<svg xmlns="http://www.w3.org/2000/svg" width="283.163" height="2.1in" viewBox="0 0 212.372 151.2"><desc>Fritzing breadboard generated by brd2svg</desc><path fill="#0F7391" d="M200.852 0l4.32 4.32v32.4l7.199 7.2v92.879L205.172 144v4.36a2.838 2.838 0 0 1-2.834 2.837H20.806a2.836 2.836 0 0 1-2.834-2.834V2.834A2.834 2.834 0 0 1 20.806 0h180.046m-.217 50.4a4.535 4.535 0 1 0 9.072.015v-.016a4.535 4.535 0 1 0-9.072.001zm0 79.2a4.535 4.535 0 0 0 9.072.016v-.016a4.535 4.535 0 1 0-9.072 0zM56.636 7.2a4.536 4.536 0 0 0 9.071.016V7.2a4.535 4.535 0 1 0-9.071 0zm-3.6 136.8a4.536 4.536 0 0 0 9.071.013V144a4.536 4.536 0 0 0-9.071-.018V144zm107.731 0a1.205 1.205 0 0 0 2.409.004V144a1.206 1.206 0 1 0-2.409-.006V144zm7.2 0a1.205 1.205 0 0 0 2.408.004V144a1.204 1.204 0 1 0-2.408-.006V144zm7.2 0a1.204 1.204 0 1 0 2.41.004V144a1.206 1.206 0 1 0-2.41-.006V144zm7.201 0a1.205 1.205 0 1 0 2.408.004V144a1.204 1.204 0 1 0-2.408-.006V144zm7.199 0a1.205 1.205 0 0 0 2.41.004V144a1.207 1.207 0 0 0-1.203-1.209c-.665 0-1.205.537-1.207 1.203V144zm7.2 0a1.205 1.205 0 0 0 2.409.004V144a1.206 1.206 0 1 0-2.409-.006V144zm.219-79.2a1.349 1.349 0 0 0 2.697.005v-.004a1.348 1.348 0 0 0-2.697-.004v.003zm7.2 0a1.347 1.347 0 0 0 2.694.005v-.004a1.347 1.347 0 0 0-2.694-.004v.003zm-7.2 7.2a1.348 1.348 0 0 0 2.697.004V72a1.35 1.35 0 0 0-2.697-.004V72zm7.2 0a1.348 1.348 0 0 0 2.694.004V72a1.348 1.348 0 0 0-2.694-.004V72zm-7.2 7.2a1.348 1.348 0 0 0 2.697.004V79.2a1.349 1.349 0 0 0-2.697-.004v.004zm7.2 0a1.349 1.349 0 0 0 1.344 1.35 1.35 1.35 0 0 0 1.35-1.346V79.2a1.348 1.348 0 0 0-2.694-.004v.004zM75.666 16.56a1.347 1.347 0 0 0 2.693.004v-.004a1.347 1.347 0 1 0-2.693-.004v.004zm0 7.2a1.346 1.346 0 0 0 2.693.004v-.004a1.347 1.347 0 0 0-2.693-.005v.005zm-7.201-7.2a1.347 1.347 0 0 0 2.693.004v-.004a1.347 1.347 0 1 0-2.693-.004v.004zm0 7.2a1.346 1.346 0 0 0 2.693.004v-.004a1.347 1.347 0 0 0-2.693-.005v.005zm-7.2-7.2a1.346 1.346 0 1 0 2.692 0 1.346 1.346 0 0 0-2.692 0zm0 7.2a1.347 1.347 0 1 0 2.693-.001 1.347 1.347 0 0 0-2.693.001zM134.847 7.2a1.204 1.204 0 1 0 2.409.005V7.2a1.205 1.205 0 0 0-2.409-.006V7.2zm-7.2 0a1.204 1.204 0 1 0 2.41.005V7.2a1.205 1.205 0 0 0-2.41-.008V7.2zm-7.199 0a1.204 1.204 0 0 0 2.408.007v-.008a1.204 1.204 0 1 0-2.408-.008V7.2zm-7.201 0a1.204 1.204 0 1 0 2.41.007v-.008a1.204 1.204 0 1 0-2.41-.008V7.2zm-7.2 0a1.204 1.204 0 1 0 2.411.007v-.008a1.206 1.206 0 0 0-2.409-.008c-.002.004-.002.006-.002.009zm-7.2 0a1.204 1.204 0 1 0 2.409.007v-.008a1.204 1.204 0 1 0-2.409-.008V7.2zm-7.201 0a1.204 1.204 0 1 0 2.41.007v-.008a1.205 1.205 0 0 0-2.41-.008V7.2zm-7.199 0a1.204 1.204 0 1 0 2.409.007v-.008a1.204 1.204 0 1 0-2.409-.008V7.2zm-7.2 0a1.204 1.204 0 1 0 2.41.007v-.008a1.205 1.205 0 0 0-2.409-.008l-.001.009zm-7.2 0a1.204 1.204 0 1 0 2.41.007v-.008a1.205 1.205 0 0 0-2.41-.008V7.2zm126.72 0a1.204 1.204 0 1 0 2.409.005V7.2a1.205 1.205 0 1 0-2.409-.006V7.2zm-7.2 0a1.204 1.204 0 1 0 2.41.005V7.2a1.206 1.206 0 0 0-2.41-.006V7.2zm-7.199 0a1.203 1.203 0 1 0 2.408.005V7.2a1.204 1.204 0 1 0-2.408-.006V7.2zm-7.201 0a1.206 1.206 0 0 0 2.41.005V7.2a1.205 1.205 0 1 0-2.41-.006V7.2zm-7.2 0a1.204 1.204 0 1 0 2.408.005V7.2a1.204 1.204 0 1 0-2.408-.006V7.2zm-7.2 0a1.204 1.204 0 1 0 2.409.005V7.2a1.205 1.205 0 1 0-2.409-.006V7.2zm-7.2 0a1.204 1.204 0 1 0 2.41.005V7.2a1.206 1.206 0 0 0-2.41-.006V7.2zm-7.199 0a1.203 1.203 0 1 0 2.408.005V7.2a1.204 1.204 0 1 0-2.408-.006V7.2zM103.167 144a1.204 1.204 0 0 0 2.409.008V144a1.204 1.204 0 1 0-2.409 0zm-7.199 0a1.204 1.204 0 0 0 2.409.008V144a1.204 1.204 0 1 0-2.409 0zm14.4 0a1.204 1.204 0 0 0 2.408.008V144a1.203 1.203 0 1 0-2.408-.008V144zm7.199 0a1.204 1.204 0 0 0 2.41.008V144a1.205 1.205 0 0 0-2.41-.008V144zm7.2 0a1.202 1.202 0 0 0 1.2 1.207 1.203 1.203 0 0 0 1.209-1.199V144a1.204 1.204 0 1 0-2.409-.008V144zm7.2 0a1.205 1.205 0 0 0 2.408.004V144a1.204 1.204 0 1 0-2.408-.006V144zm7.2 0a1.204 1.204 0 1 0 2.41.004V144a1.206 1.206 0 1 0-2.41-.006V144zm7.201 0a1.205 1.205 0 1 0 2.408.004V144a1.204 1.204 0 1 0-2.408-.006V144z"/><title>layer 21</title><circle fill="none" cx="80.612" cy="12.96" stroke="#FFF" r=".72" stroke-width=".72"/><title>text:MADE IN</title><title>text:ITALY</title><title>text:Prototype</title><title>text:Limited</title><title>text:Edition</title><text fill="#FFF" font-family="'OCRA'" font-size="3.75" transform="rotate(-90 59.509 -42.121)">13</text><text fill="#FFF" font-family="'OCRA'" font-size="3.75" transform="rotate(-90 63.109 -45.722)">12</text><text fill="#FFF" font-family="'OCRA'" font-size="3.75" transform="rotate(-90 66.709 -49.321)">11</text><text fill="#FFF" font-family="'OCRA'" font-size="3.75" transform="rotate(-90 70.308 -52.92)">10</text><text fill="#FFF" font-family="'OCRA'" font-size="3.75" transform="rotate(-90 72.555 -57.875)">9</text><text fill="#FFF" font-family="'OCRA'" font-size="3.75" transform="rotate(-90 76.155 -61.475)">8</text><text fill="#FFF" font-family="'OCRA'" font-size="3.75" transform="rotate(-90 81.915 -67.234)">7</text><text fill="#FFF" font-family="'OCRA'" font-size="3.75" transform="rotate(-90 85.515 -70.835)">6</text><text fill="#FFF" font-family="'OCRA'" font-size="3.75" transform="rotate(-90 89.115 -74.435)">5</text><text fill="#FFF" font-family="'OCRA'" font-size="3.75" transform="rotate(-90 92.714 -78.034)">4</text><text fill="#FFF" font-family="'OCRA'" font-size="3.75" transform="rotate(-90 96.315 -81.635)">3</text><text fill="#FFF" font-family="'OCRA'" font-size="3.75" transform="rotate(-90 99.915 -85.234)">2</text><title>element:C1</title><title>package:C0603-ROUND</title><title>element:C2</title><title>package:C0603-ROUND</title><title>element:C3</title><title>package:C0603-ROUND</title><title>element:C4</title><title>package:C0603-ROUND</title><title>element:C5</title><title>package:C0603-ROUND</title><title>element:C6</title><title>package:C0603-ROUND</title><title>element:C7</title><title>package:C0603-ROUND</title><title>element:C8</title><title>package:C0603-ROUND</title><title>element:C9</title><title>package:C0603-ROUND</title><title>element:C11</title><title>package:C0603-ROUND</title><title>element:F1</title><title>package:L1812</title><title>element:FD1</title><title>package:FIDUCIA-MOUNT</title><title>element:FD2</title><title>package:FIDUCIA-MOUNT</title><title>element:FD3</title><title>package:FIDUCIA-MOUNT</title><title>element:GROUND</title><title>package:SJ</title><title>element:L</title><title>text:L</title><text fill="#FFF" font-family="'OCRA'" font-size="4.677" transform="translate(88.352 36.196)">L</text><title>element:R1</title><title>package:R0603-ROUND</title><title>element:R2</title><title>package:R0603-ROUND</title><title>element:RN1</title><title>package:CAY16</title><title>element:RN2</title><title>package:CAY16</title><title>element:RN3</title><title>package:CAY16</title><title>element:RN4</title><title>package:CAY16</title><title>element:Z1</title><title>package:CT/CN0603</title><title>element:Z2</title><title>package:CT/CN0603</title><title>layer 25</title><text fill="#FFF" font-family="'OCRA'" font-size="3.341" transform="rotate(-90 133.18 5.816)">5V</text><title>text:A0</title><text fill="#FFF" font-family="'OCRA'" font-size="3.341" transform="rotate(-90 151.108 -12.111)">A0</text><text fill="#FFF" font-family="'OCRA'" font-size="3.675" transform="translate(175.672 130.811)">ANALOG IN</text><text fill="#FFF" font-family="'OCRA'" font-size="3.75" transform="rotate(-90 54.901 -32.053)">AREF</text><title>text:1</title><text fill="#FFF" font-family="'OCRA'" font-size="4.176" transform="translate(191.131 64.604)">1</text><text fill="#FFF" font-family="'OCRA'" font-size="3.75" transform="rotate(-90 57.322 -37.16)">GND</text><title>text:M.Banzi</title><title>text:D.Cuartielles</title><title>text:D.Mellis</title><title>text:TX</title><text fill="#FFF" font-family="'OCRA'" font-size="4.677" transform="translate(84.573 49.317)">TX</text><title>text:RX</title><text fill="#FFF" font-family="'OCRA'" font-size="4.677" transform="translate(84.649 56.157)">RX</text><title>text:G.Martino</title><title>text:T.Igoe</title><text fill="#FFF" font-family="'OCRA'" font-size="3.341" transform="rotate(-90 125.446 13.154)">RESET</text><text fill="#FFF" font-family="'OCRA'" font-size="3.341" transform="rotate(-90 129.585 9.374)">3V3</text><title>text:A1</title><text fill="#FFF" font-family="'OCRA'" font-size="3.341" transform="rotate(-90 154.708 -15.71)">A1</text><title>text:A2</title><text fill="#FFF" font-family="'OCRA'" font-size="3.341" transform="rotate(-90 158.31 -19.313)">A2</text><title>text:A3</title><text fill="#FFF" font-family="'OCRA'" font-size="3.341" transform="rotate(-90 161.908 -22.911)">A3</text><title>text:A4</title><text fill="#FFF" font-family="'OCRA'" font-size="3.341" transform="rotate(-90 165.508 -26.512)">A4</text><title>text:A5</title><text fill="#FFF" font-family="'OCRA'" font-size="3.341" transform="rotate(-90 169.108 -30.111)">A5</text><text fill="#FFF" font-family="'OCRA'" font-size="3.341" transform="rotate(-90 143.981 -4.984)">VIN</text><text fill="#FFF" font-family="'OCRA'" font-size="3.341" transform="rotate(-90 136.779 2.218)">GND</text><text fill="#FFF" font-family="'OCRA'" font-size="3.341" transform="rotate(-90 140.258 -1.299)">GND</text><title>text:[#=PWM]</title><text fill="#FFF" font-family="'OCRA'" font-size="3.675" transform="translate(145.157 27.276)">DIGITAL (PWM=</text><text fill="#FFF" font-family="'OCRA'" font-size="3.675" transform="translate(182.028 27.276)">)</text><path fill="#FFF" d="M122.401 21.115c-.5.021-.756-.25-.756-.596 0-.21.064-.37.225-.706.121-.255.211-.44.211-.625 0-.181-.145-.266-.42-.271v-.3c.561-.025.756.265.756.576 0 .2-.061.38-.221.726-.115.235-.221.42-.221.601s.125.29.426.3v.295zM114.979 21.115c-.5.021-.756-.25-.756-.596 0-.21.064-.37.225-.706.121-.255.211-.44.211-.625 0-.181-.145-.266-.42-.271v-.3c.561-.025.756.265.756.576 0 .2-.061.38-.221.726-.115.235-.221.42-.221.601s.125.29.426.3v.295zM162.362 18.086c-.502.02-.756-.25-.756-.596 0-.21.064-.37.225-.706.121-.254.211-.439.211-.624 0-.181-.146-.266-.422-.271v-.3c.562-.025.756.265.756.576 0 .2-.059.38-.219.726-.115.234-.221.42-.221.6s.125.29.426.3v.295z"/><title>text:#</title><path fill="#FFF" d="M176.761 18.086c-.501.02-.757-.25-.757-.596 0-.21.063-.37.226-.706.121-.254.211-.439.211-.624 0-.181-.146-.266-.421-.271v-.3c.561-.025.756.265.756.576 0 .2-.061.38-.22.726-.115.235-.222.42-.222.601s.125.29.427.3v.294zM155.522 18.086c-.502.02-.756-.25-.756-.596 0-.21.064-.37.225-.706.121-.254.211-.439.211-.624 0-.181-.146-.266-.422-.271v-.3c.561-.025.756.265.756.576 0 .2-.059.38-.219.726-.115.234-.221.42-.221.6s.125.29.426.3v.295zM129.241 18.086c-.5.02-.756-.25-.756-.596 0-.21.064-.37.225-.706.121-.254.21-.439.21-.624 0-.181-.146-.266-.42-.271v-.3c.561-.025.756.265.756.576 0 .2-.063.38-.221.726-.115.235-.223.42-.223.601s.125.29.429.3v.294z"/><title>text:Arduino</title><text fill="#FFF" font-family="'OCRA'" font-size="6.121" transform="translate(109.016 55.18)">Arduino</text><title>text:TM</title><text fill="#FFF" font-family="'OCRA'" font-size="2.226" transform="translate(138.998 51.582)">TM</text><text fill="#FFF" font-family="'OCRA'" font-size="3.341" transform="rotate(-90 122.386 16.214)">IOREF</text><title>text:SDA</title><title>text:SCL</title><title>element:AD</title><title>package:1X06</title><title>element:C1</title><title>package:C0603-ROUND</title><title>element:C2</title><title>package:C0603-ROUND</title><title>element:C3</title><title>package:C0603-ROUND</title><title>element:C4</title><title>package:C0603-ROUND</title><title>element:C5</title><title>package:C0603-ROUND</title><title>element:C6</title><title>package:C0603-ROUND</title><title>element:C7</title><title>package:C0603-ROUND</title><title>element:C8</title><title>package:C0603-ROUND</title><title>element:C9</title><title>package:C0603-ROUND</title><title>element:C11</title><title>package:C0603-ROUND</title><title>element:D1</title><title>package:SMB</title><title>element:D2</title><title>package:MINIMELF</title><title>element:D3</title><title>package:MINIMELF</title><title>element:F1</title><title>package:L1812</title><title>element:FD1</title><title>package:FIDUCIA-MOUNT</title><title>element:FD2</title><title>package:FIDUCIA-MOUNT</title><title>element:FD3</title><title>package:FIDUCIA-MOUNT</title><g><title>element:GROUND</title><title>package:SJ</title></g><g><title>element:ICSP</title><title>text:ICSP</title><text fill="#FFF" font-family="'OCRA'" font-size="4.176" transform="rotate(-90 138.443 -55.327)">ICSP</text><g><title>package:2X03</title></g></g><g><title>element:ICSP</title><title>text:ICSP</title><text fill="#FFF" font-family="'OCRA'" font-size="4.176" transform="translate(59.372 32.063)">ICSP2</text><g><title>package:2X03</title></g></g><g><title>element:ICSP1</title><title>package:2X03</title></g><g><title>element:IOH</title><title>package:1X10@1</title></g><g><title>element:IOL</title><title>package:1X08</title></g><g><title>element:JP2</title><title>package:2X02</title></g><g><title>element:L</title><title>package:CHIP-LED0805</title></g><g><title>element:L1</title><title>package:0805</title></g><g><title>element:ON</title><title>text:ON</title><text fill="#FFF" font-family="'OCRA'" font-size="4.677" transform="translate(190.772 49.32)">ON</text><g><title>package:CHIP-LED0805</title></g></g><g><title>element:PC1</title><title>package:PANASONIC_D</title></g><g><title>element:PC2</title><title>package:PANASONIC_D</title></g><g><title>element:R1</title><title>package:R0603-ROUND</title></g><g><title>element:R2</title><title>package:R0603-ROUND</title></g><g><title>element:RESET</title><title>package:TS42</title></g><g><title>element:RESET-EN</title><title>package:SJ</title></g><g><title>element:RN1</title><title>package:CAY16</title></g><g><title>element:RN2</title><title>package:CAY16</title></g><g><title>element:RN3</title><title>package:CAY16</title></g><g><title>element:RN4</title><title>package:CAY16</title></g><g><title>element:RX</title><title>package:CHIP-LED0805</title></g><g><title>element:T1</title><title>package:SOT-23</title></g><g><title>element:TX</title><title>package:CHIP-LED0805</title></g><g><title>element:U1</title><title>package:SOT223</title></g><g><title>element:U2</title><title>package:SOT23-DBV</title></g><g><title>element:U3</title><title>package:MLF32</title></g><g><title>element:U5</title><title>package:MSOP08</title></g><g><title>element:X1</title><title>package:POWERSUPPLY_DC-21MM</title></g><g><title>element:X2</title><title>package:PN61729</title></g><g><title>element:Y1</title><title>package:QS</title></g><g><title>element:Y2</title><title>package:RESONATOR</title></g><g><title>element:Z1</title><title>package:CT/CN0603</title></g><g><title>element:Z2</title><title>package:CT/CN0603</title></g><g><title>element:ZU4</title><title>package:DIL28-3</title></g><path fill="#333" d="M67.405 45.833h14.173v14.173H67.405zM96.812 96.84h105.12v15.84H96.812z"/><circle fill="none" cx="161.972" cy="144" stroke="#9A916C" r="1.61" stroke-width=".811"/><path fill="#9A916C" d="M160.361 140.295h3.222v7.408h-3.222v-7.408m0 3.705c0 .889.722 1.605 1.61 1.605.89 0 1.609-.721 1.609-1.605a1.61 1.61 0 1 0-3.219 0z"/><circle fill="none" cx="169.172" cy="144" stroke="#9A916C" r="1.61" stroke-width=".811"/><path fill="#9A916C" d="M167.561 140.295h3.221v7.408h-3.221v-7.408m0 3.705c0 .889.721 1.605 1.609 1.605a1.608 1.608 0 1 0-1.609-1.605z"/><circle fill="none" cx="176.372" cy="144" stroke="#9A916C" r="1.61" stroke-width=".811"/><path fill="#9A916C" d="M174.76 140.295h3.222v7.408h-3.222v-7.408m0 3.705c0 .889.722 1.605 1.611 1.605s1.606-.721 1.606-1.605a1.61 1.61 0 0 0-1.606-1.611c-.889 0-1.611.722-1.611 1.611z"/><circle fill="none" cx="183.573" cy="144" stroke="#9A916C" r="1.61" stroke-width=".811"/><path fill="#9A916C" d="M181.961 140.295h3.221v7.408h-3.221v-7.408m0 3.705c0 .889.721 1.605 1.605 1.605.895 0 1.611-.721 1.611-1.605a1.61 1.61 0 0 0-1.611-1.611 1.61 1.61 0 0 0-1.605 1.611z"/><circle fill="none" cx="190.772" cy="144" stroke="#9A916C" r="1.61" stroke-width=".811"/><path fill="#9A916C" d="M189.161 140.295h3.221v7.408h-3.221v-7.408m0 3.705c0 .889.721 1.605 1.611 1.605a1.608 1.608 0 1 0 0-3.216 1.61 1.61 0 0 0-1.611 1.611z"/><circle fill="none" cx="197.972" cy="144" stroke="#9A916C" r="1.61" stroke-width=".811"/><path fill="#9A916C" d="M196.361 140.295h3.222v7.408h-3.222v-7.408m0 3.705c0 .889.722 1.605 1.61 1.605.89 0 1.609-.721 1.609-1.605a1.61 1.61 0 1 0-3.219 0z"/><circle fill="none" cx="198.333" cy="64.8" stroke="#9A916C" r="1.772" stroke-width=".85"/><circle fill="none" cx="205.532" cy="64.8" stroke="#9A916C" r="1.772" stroke-width=".85"/><circle fill="none" cx="198.333" cy="72" stroke="#9A916C" r="1.771" stroke-width=".85"/><circle fill="none" cx="205.532" cy="72" stroke="#9A916C" r="1.771" stroke-width=".85"/><circle fill="none" cx="198.333" cy="79.2" stroke="#9A916C" r="1.771" stroke-width=".85"/><circle fill="none" cx="205.532" cy="79.2" stroke="#9A916C" r="1.771" stroke-width=".85"/><circle fill="none" cx="77.012" cy="16.56" stroke="#9A916C" r="1.771" stroke-width=".85"/><circle fill="none" cx="77.012" cy="23.76" stroke="#9A916C" r="1.772" stroke-width=".85"/><circle fill="none" cx="69.812" cy="16.56" stroke="#9A916C" r="1.771" stroke-width=".85"/><circle fill="none" cx="69.812" cy="23.76" stroke="#9A916C" r="1.772" stroke-width=".85"/><circle fill="none" cx="62.611" cy="16.56" stroke="#9A916C" r="1.771" stroke-width=".85"/><circle fill="none" cx="62.611" cy="23.76" stroke="#9A916C" r="1.772" stroke-width=".85"/><circle fill="none" cx="136.051" cy="7.2" stroke="#9A916C" r="1.61" stroke-width=".811"/><path fill="#9A916C" d="M134.441 3.496h3.222v7.408h-3.222V3.496m0 3.704a1.609 1.609 0 1 0 3.219 0c0-.89-.724-1.61-1.609-1.61a1.61 1.61 0 0 0-1.61 1.61z"/><circle fill="none" cx="128.852" cy="7.2" stroke="#9A916C" r="1.61" stroke-width=".811"/><path fill="#9A916C" d="M127.241 3.496h3.221v7.408h-3.221V3.496m0 3.704a1.61 1.61 0 1 0 3.22 0 1.61 1.61 0 0 0-3.22 0z"/><circle fill="none" cx="121.652" cy="7.2" stroke="#9A916C" r="1.61" stroke-width=".811"/><path fill="#9A916C" d="M120.042 3.496h3.225v7.408h-3.225V3.496m0 3.704a1.61 1.61 0 1 0 3.22 0 1.61 1.61 0 0 0-3.22 0z"/><circle fill="none" cx="114.452" cy="7.2" stroke="#9A916C" r="1.61" stroke-width=".811"/><path fill="#9A916C" d="M112.84 3.496h3.221v7.408h-3.221V3.496m0 3.704c0 .889.722 1.61 1.611 1.61s1.605-.721 1.605-1.61c0-.89-.725-1.61-1.605-1.61-.889 0-1.611.721-1.611 1.61z"/><circle fill="none" cx="107.252" cy="7.2" stroke="#9A916C" r="1.61" stroke-width=".811"/><path fill="#9A916C" d="M105.641 3.496h3.221v7.408h-3.221V3.496m0 3.704a1.607 1.607 0 1 0 3.216 0 1.609 1.609 0 1 0-3.216 0z"/><circle fill="none" cx="100.052" cy="7.2" stroke="#9A916C" r="1.61" stroke-width=".811"/><path fill="#9A916C" d="M98.441 3.496h3.221v7.408h-3.221V3.496m0 3.704a1.61 1.61 0 1 0 3.22 0 1.61 1.61 0 0 0-3.22 0z"/><circle fill="none" cx="92.852" cy="7.2" stroke="#9A916C" r="1.61" stroke-width=".811"/><path fill="#9A916C" d="M91.241 3.496h3.221v7.408h-3.221V3.496m0 3.704a1.61 1.61 0 1 0 3.22 0 1.61 1.61 0 0 0-3.22 0z"/><circle fill="none" cx="85.652" cy="7.2" stroke="#9A916C" r="1.61" stroke-width=".811"/><path fill="#9A916C" d="M84.042 3.496h3.221v7.408h-3.221V3.496m0 3.704a1.61 1.61 0 1 0 3.22 0 1.61 1.61 0 0 0-3.22 0z"/><circle fill="none" cx="78.452" cy="7.2" stroke="#9A916C" r="1.61" stroke-width=".811"/><path fill="#9A916C" d="M76.841 3.496h3.221v7.408h-3.221V3.496m0 3.704a1.61 1.61 0 1 0 3.22 0 1.61 1.61 0 0 0-3.22 0z"/><circle fill="none" cx="71.251" cy="7.2" stroke="#9A916C" r="1.61" stroke-width=".811"/><path fill="#9A916C" d="M69.641 3.496h3.221v7.408h-3.221V3.496m0 3.704a1.61 1.61 0 1 0 3.22 0 1.61 1.61 0 0 0-3.22 0z"/><circle fill="none" cx="197.972" cy="7.2" stroke="#9A916C" r="1.61" stroke-width=".811"/><path fill="#9A916C" d="M196.361 3.496h3.222v7.408h-3.222V3.496m0 3.704a1.609 1.609 0 1 0 3.219 0c0-.89-.724-1.61-1.609-1.61a1.61 1.61 0 0 0-1.61 1.61z"/><circle fill="none" cx="190.772" cy="7.2" stroke="#9A916C" r="1.61" stroke-width=".811"/><path fill="#9A916C" d="M189.161 3.496h3.221v7.408h-3.221V3.496m0 3.704a1.61 1.61 0 1 0 3.22 0 1.61 1.61 0 0 0-3.22 0z"/><circle fill="none" cx="183.573" cy="7.2" stroke="#9A916C" r="1.61" stroke-width=".811"/><path fill="#9A916C" d="M181.961 3.496h3.221v7.408h-3.221V3.496m0 3.704a1.61 1.61 0 1 0 3.218.002 1.61 1.61 0 0 0-3.218-.002z"/><circle fill="none" cx="176.372" cy="7.2" stroke="#9A916C" r="1.61" stroke-width=".811"/><path fill="#9A916C" d="M174.76 3.496h3.222v7.408h-3.222V3.496m0 3.704c0 .889.722 1.61 1.611 1.61s1.606-.721 1.606-1.61c0-.89-.726-1.61-1.606-1.61-.889 0-1.611.721-1.611 1.61z"/><circle fill="none" cx="169.172" cy="7.2" stroke="#9A916C" r="1.61" stroke-width=".811"/><path fill="#9A916C" d="M167.561 3.496h3.221v7.408h-3.221V3.496m0 3.704a1.608 1.608 0 1 0 3.217 0c0-.89-.722-1.61-1.608-1.61a1.61 1.61 0 0 0-1.609 1.61z"/><circle fill="none" cx="161.972" cy="7.2" stroke="#9A916C" r="1.61" stroke-width=".811"/><path fill="#9A916C" d="M160.361 3.496h3.222v7.408h-3.222V3.496m0 3.704a1.609 1.609 0 1 0 3.219 0c0-.89-.724-1.61-1.609-1.61a1.61 1.61 0 0 0-1.61 1.61z"/><circle fill="none" cx="154.772" cy="7.2" stroke="#9A916C" r="1.61" stroke-width=".811"/><path fill="#9A916C" d="M153.161 3.496h3.221v7.408h-3.221V3.496m0 3.704a1.61 1.61 0 1 0 3.22 0 1.61 1.61 0 0 0-3.22 0z"/><circle fill="none" cx="147.573" cy="7.2" stroke="#9A916C" r="1.61" stroke-width=".811"/><path fill="#9A916C" d="M145.961 3.496h3.221v7.408h-3.221V3.496m0 3.704a1.61 1.61 0 1 0 3.218.002 1.61 1.61 0 0 0-3.218-.002z"/><circle fill="none" cx="104.372" cy="144" stroke="#9A916C" r="1.61" stroke-width=".811"/><circle fill="none" cx="97.172" cy="144" stroke="#9A916C" r="1.61" stroke-width=".811"/><path fill="#9A916C" d="M102.761 140.295h3.221v7.408h-3.221v-7.408m0 3.705c0 .889.721 1.605 1.61 1.605a1.608 1.608 0 0 0 0-3.216c-.889 0-1.61.722-1.61 1.611zM95.562 140.295h3.221v7.408h-3.221v-7.408m0 3.705c0 .889.721 1.605 1.61 1.605a1.608 1.608 0 0 0 0-3.216c-.89 0-1.61.722-1.61 1.611z"/><circle fill="none" cx="111.573" cy="144" stroke="#9A916C" r="1.61" stroke-width=".811"/><path fill="#9A916C" d="M109.961 140.295h3.221v7.408h-3.221v-7.408m0 3.705c0 .889.721 1.605 1.605 1.605.895 0 1.611-.721 1.611-1.605a1.61 1.61 0 0 0-1.611-1.611 1.61 1.61 0 0 0-1.605 1.611z"/><circle fill="none" cx="118.772" cy="144" stroke="#9A916C" r="1.61" stroke-width=".811"/><path fill="#9A916C" d="M117.161 140.295h3.221v7.408h-3.221v-7.408m0 3.705c0 .889.721 1.605 1.611 1.605a1.608 1.608 0 1 0 0-3.216 1.61 1.61 0 0 0-1.611 1.611z"/><circle fill="none" cx="125.972" cy="144" stroke="#9A916C" r="1.61" stroke-width=".811"/><path fill="#9A916C" d="M124.361 140.295h3.222v7.408h-3.222v-7.408m0 3.705c0 .889.722 1.605 1.61 1.605.89 0 1.609-.721 1.609-1.605a1.61 1.61 0 1 0-3.219 0z"/><circle fill="none" cx="133.172" cy="144" stroke="#9A916C" r="1.61" stroke-width=".811"/><path fill="#9A916C" d="M131.561 140.295h3.221v7.408h-3.221v-7.408m0 3.705c0 .889.721 1.605 1.609 1.605a1.608 1.608 0 1 0-1.609-1.605z"/><circle fill="none" cx="140.372" cy="144" stroke="#9A916C" r="1.61" stroke-width=".811"/><path fill="#9A916C" d="M138.76 140.295h3.222v7.408h-3.222v-7.408m0 3.705c0 .889.722 1.605 1.611 1.605s1.606-.721 1.606-1.605a1.61 1.61 0 0 0-1.606-1.611c-.889 0-1.611.722-1.611 1.611z"/><circle fill="none" cx="147.573" cy="144" stroke="#9A916C" r="1.61" stroke-width=".811"/><path fill="#9A916C" d="M145.961 140.295h3.221v7.408h-3.221v-7.408m0 3.705c0 .889.721 1.605 1.605 1.605.895 0 1.611-.721 1.611-1.605a1.61 1.61 0 0 0-1.611-1.611 1.61 1.61 0 0 0-1.605 1.611z"/><path fill="none" stroke="#FFF" stroke-linecap="round" stroke-width=".864" d="M92.794 29.16h106.91M160.068 126.206h39.636"/><g><text fill="#FFF" font-family="'OCRA'" font-size="3.675" transform="translate(137.956 130.811)">POWER</text></g><path fill="none" stroke="#FFF" stroke-linecap="round" stroke-width=".864" d="M115.172 126.206h35.913"/><g><text fill="#FFF" font-family="'OCRA'" font-size="3.75" transform="rotate(-90 107.204 -92.523)">0</text></g><g><text fill="#FFF" font-family="'OCRA'" font-size="3.75" transform="rotate(-90 103.604 -88.924)">1</text></g><g><text fill="#FFF" font-family="'OCRA'" font-size="3.75" transform="rotate(-90 109.982 -82.546)">TX0</text></g><g><text fill="#FFF" font-family="'OCRA'" font-size="3.75" transform="rotate(-90 113.582 -86.146)">RX0</text></g><g><path fill="#FFF" d="M192.11 18.007h-1.959a.337.337 0 0 1-.279-.526l.978-1.459c.125-.188.438-.188.563 0l.93 1.394a.35.35 0 0 1 .113.253.35.35 0 0 1-.346.338z"/></g><g><path fill="#FFF" d="M197.409 15.88h1.955c.125 0 .238.068.301.178a.323.323 0 0 1-.02.348l-.973 1.459c-.125.188-.438.188-.563 0l-.93-1.396a.335.335 0 0 1-.113-.252.345.345 0 0 1 .343-.337z"/></g><g><path fill="#FFF" d="M179.901 26.121c-.021-.549.273-.829.653-.829.229 0 .405.071.774.247.276.132.479.23.687.23.198 0 .291-.159.297-.461h.329c.027.615-.291.829-.631.829-.221 0-.418-.066-.797-.242-.258-.126-.461-.242-.659-.242s-.318.138-.329.467l-.324.001z"/></g><g><path fill="#FFF" d="M125.862 37.068c.848-.93 1.498-1.778 2.281-2.478 2.966-2.656 6.307-3.641 10.131-2.03 3.618 1.524 5.575 5.294 4.788 9.14-.726 3.549-4.138 6.252-7.864 6.379-3.453.117-6.047-1.427-8.21-3.934-.331-.385-.646-.786-1.063-1.297-.299.351-.533.618-.758.899-2.313 2.913-5.187 4.567-9.047 4.32-3.785-.243-7.248-3.72-7.48-7.501-.301-4.792 3.354-8.726 8.432-8.769 3.362-.029 5.991 1.707 8.042 4.321.222.287.449.572.748.95z"/><path fill="#0F7391" d="M117.56 34.457c-3.496-.006-6.05 2.237-6.332 5.133-.251 2.569 1.789 5.137 4.597 5.746 2.766.6 4.977-.55 6.643-2.557 2.558-3.073 2.466-2.542.031-5.591-1.354-1.696-3.202-2.646-4.939-2.731zM134.883 34.434c-.428.03-.74.019-1.041.079-2.965.599-4.824 2.568-6.221 5.082-.109.198-.113.564-.004.757 1.262 2.183 2.838 4.053 5.348 4.841 2.433.763 4.563.132 6.24-1.735 1.504-1.675 1.846-3.656.852-5.72-1.055-2.183-2.933-3.146-5.174-3.304z"/><path fill="#FFF" d="M120.061 40.583a.142.142 0 0 1-.143.142h-5.168a.145.145 0 0 1-.145-.142v-1.561c0-.078.063-.142.145-.142h5.168c.078 0 .143.064.143.142v1.561zM137.129 39.024a.142.142 0 0 0-.144-.142h-1.521a.145.145 0 0 1-.144-.142v-1.521a.142.142 0 0 0-.142-.142h-1.563a.143.143 0 0 0-.143.142v1.521a.142.142 0 0 1-.143.142h-1.521a.145.145 0 0 0-.145.142v1.561c0 .078.063.142.145.142h1.521c.078 0 .143.064.143.142v1.52c0 .078.063.142.143.142h1.563a.144.144 0 0 0 .142-.142v-1.52c0-.078.063-.142.144-.142h1.521a.144.144 0 0 0 .144-.142v-1.561z"/><g fill="#FFF"><circle cx="172.388" cy="32.522" r=".568"/><circle cx="170.971" cy="32.522" r=".568"/><circle cx="169.554" cy="32.522" r=".568"/><circle cx="168.137" cy="32.522" r=".568"/><circle cx="166.72" cy="32.522" r=".568"/><circle cx="165.303" cy="32.522" r=".568"/><circle cx="163.886" cy="32.522" r=".568"/><circle cx="162.469" cy="32.522" r=".568"/><circle cx="161.051" cy="32.522" r=".568"/><circle cx="159.635" cy="32.522" r=".568"/><circle cx="158.217" cy="32.522" r=".568"/><circle cx="156.801" cy="32.522" r=".568"/><circle cx="155.383" cy="32.522" r=".568"/><circle cx="153.967" cy="32.522" r=".568"/></g><g fill="#FFF"><circle cx="172.445" cy="47.404" r=".567"/><circle cx="173.793" cy="47.137" r=".567"/><circle cx="175.071" cy="46.628" r=".568"/><circle cx="176.233" cy="45.894" r=".567"/><circle cx="177.241" cy="44.959" r=".568"/><circle cx="178.061" cy="43.855" r=".567"/><circle cx="178.665" cy="42.62" r=".567"/><circle cx="179.032" cy="41.295" r=".567"/><circle cx="179.151" cy="39.925" r=".567"/><circle cx="179.017" cy="38.557" r=".567"/><circle cx="178.633" cy="37.236" r=".567"/><circle cx="178.017" cy="36.008" r=".567"/><circle cx="177.185" cy="34.914" r=".567"/><circle cx="176.167" cy="33.99" r=".568"/><circle cx="174.997" cy="33.269" r=".568"/><circle cx="173.713" cy="32.774" r=".568"/><circle cx="172.361" cy="32.522" r=".568"/><circle cx="170.986" cy="32.522" r=".568"/></g><g fill="#FFF"><circle cx="152.413" cy="47.309" r=".568"/><circle cx="151.083" cy="47.026" r=".568"/><circle cx="149.825" cy="46.506" r=".568"/><circle cx="148.684" cy="45.765" r=".568"/><circle cx="147.697" cy="44.828" r=".568"/><circle cx="146.897" cy="43.727" r=".568"/><circle cx="146.312" cy="42.499" r=".568"/><circle cx="145.96" cy="41.185" r=".568"/><circle cx="145.853" cy="39.829" r=".568"/><path d="M146.054 37.911a.569.569 0 0 1-.119 1.13.567.567 0 1 1 .119-1.13zM146.543 36.626a.57.57 0 0 1-.323 1.09.569.569 0 0 1 .323-1.09z"/><circle cx="146.999" cy="35.959" r=".568"/><circle cx="147.827" cy="34.879" r=".568"/><circle cx="148.836" cy="33.969" r=".568"/><circle cx="149.999" cy="33.258" r=".568"/><circle cx="151.268" cy="32.77" r=".568"/><circle cx="152.606" cy="32.522" r=".568"/><circle cx="153.967" cy="32.522" r=".568"/></g><g fill="#FFF"><circle cx="172.388" cy="47.454" r=".568"/><circle cx="170.971" cy="47.454" r=".568"/><circle cx="169.554" cy="47.454" r=".568"/><circle cx="168.137" cy="47.454" r=".568"/><circle cx="166.72" cy="47.454" r=".568"/><circle cx="165.303" cy="47.454" r=".568"/><circle cx="163.886" cy="47.454" r=".568"/><circle cx="162.469" cy="47.454" r=".568"/><circle cx="161.051" cy="47.454" r=".568"/><circle cx="159.635" cy="47.454" r=".568"/><circle cx="158.217" cy="47.454" r=".568"/><circle cx="156.801" cy="47.454" r=".568"/><circle cx="155.383" cy="47.454" r=".568"/><circle cx="153.967" cy="47.454" r=".568"/></g><g fill="#FFF"><path d="M154.165 44.561c-.994 0-1.742-.206-2.244-.618-.485-.401-.799-.879-.936-1.434-.07-.28-.119-.58-.15-.899a12.114 12.114 0 0 1-.045-1.025v-5.236h.939v5.22c0 1.183.189 2.117.572 2.498.377.375.932.563 1.664.563.738 0 1.494-.188 1.871-.563.381-.38.572-1.314.572-2.498v-5.22h.959v5.236c0 1.088-.125 1.896-.377 2.424-.499 1.035-1.32 1.552-2.825 1.552zM166.251 44.39h-.944l-4.742-7.433v7.446h-.797v-9.054h.88l4.659 7.455v-7.455h.944v9.041zM171.911 35.131a3.67 3.67 0 0 1 1.594.346c.488.231.906.555 1.256.975.354.42.623.926.818 1.517.196.59.295 1.247.295 1.968 0 .72-.099 1.376-.295 1.966a4.617 4.617 0 0 1-.818 1.521 3.64 3.64 0 0 1-1.256.979 3.671 3.671 0 0 1-1.594.345c-.58 0-1.113-.115-1.602-.345a3.717 3.717 0 0 1-1.258-.979 4.545 4.545 0 0 1-.823-1.521 6.266 6.266 0 0 1-.294-1.966c0-.721.1-1.377.294-1.968.194-.591.47-1.097.823-1.517.353-.42.773-.745 1.258-.975a3.704 3.704 0 0 1 1.602-.346zm-.006 8.561c.41 0 .789-.085 1.135-.256s.646-.418.896-.74a3.62 3.62 0 0 0 .588-1.179c.141-.464.211-.991.211-1.581a5.44 5.44 0 0 0-.211-1.582 3.635 3.635 0 0 0-.585-1.179 2.507 2.507 0 0 0-.888-.736 2.549 2.549 0 0 0-1.125-.252 2.542 2.542 0 0 0-2.045.984c-.254.32-.451.713-.596 1.178a5.375 5.375 0 0 0-.216 1.586c0 .59.07 1.117.214 1.581a3.6 3.6 0 0 0 .588 1.179c.25.322.551.569.896.74.346.171.726.257 1.138.257z"/></g></g><g><path fill="#404040" d="M158.374 140.4h43.199v7.199h-43.199z"/><path d="M160.583 142.609h2.781v2.783h-2.781z"/><path fill="#2A2A29" d="M159.557 141.584l1.024 1.025h2.785l1.023-1.025z"/><path fill="#474747" d="M164.389 141.584l-1.023 1.029v2.781l1.023 1.023z"/><path fill="#595959" d="M164.389 146.417l-1.025-1.023h-2.783l-1.024 1.023z"/><path fill="#373737" d="M159.555 146.417l1.026-1.025v-2.783l-1.026-1.025z"/><path d="M167.784 142.609h2.781v2.783h-2.781z"/><path fill="#2A2A29" d="M166.756 141.584l1.026 1.025h2.781l1.025-1.025z"/><path fill="#474747" d="M171.588 141.584l-1.025 1.029v2.781l1.025 1.023z"/><path fill="#595959" d="M171.588 146.417l-1.025-1.023h-2.781l-1.026 1.023z"/><path fill="#373737" d="M166.754 146.417l1.028-1.025v-2.783l-1.028-1.025z"/><path d="M174.983 142.609h2.781v2.783h-2.781z"/><path fill="#2A2A29" d="M173.958 141.584l1.023 1.025h2.783l1.026-1.025z"/><path fill="#474747" d="M178.79 141.584l-1.026 1.029v2.781l1.026 1.023z"/><path fill="#595959" d="M178.79 146.417l-1.026-1.023h-2.783l-1.023 1.023z"/><path fill="#373737" d="M173.956 146.417l1.025-1.025v-2.783l-1.025-1.025z"/><path d="M182.184 142.609h2.781v2.783h-2.781z"/><path fill="#2A2A29" d="M181.159 141.584l1.023 1.025h2.783l1.026-1.025z"/><path fill="#474747" d="M185.991 141.584l-1.026 1.029v2.781l1.026 1.023z"/><path fill="#595959" d="M185.989 146.417l-1.026-1.023h-2.781l-1.023 1.023z"/><path fill="#373737" d="M181.155 146.417l1.027-1.025v-2.783l-1.027-1.025z"/><path d="M189.383 142.609h2.779v2.783h-2.779z"/><path fill="#2A2A29" d="M188.358 141.584l1.023 1.025h2.784l1.025-1.025z"/><path fill="#474747" d="M193.19 141.584l-1.025 1.029v2.781l1.025 1.023z"/><path fill="#595959" d="M193.188 146.417l-1.023-1.023h-2.784l-1.023 1.023z"/><path fill="#373737" d="M188.356 146.417l1.025-1.025v-2.783l-1.025-1.025z"/><path d="M196.583 142.609h2.781v2.783h-2.781z"/><path fill="#2A2A29" d="M195.557 141.584l1.024 1.025h2.785l1.023-1.025z"/><path fill="#474747" d="M200.389 141.584l-1.023 1.029v2.781l1.023 1.023z"/><path fill="#595959" d="M200.389 146.417l-1.025-1.023h-2.783l-1.024 1.023z"/><path fill="#373737" d="M195.555 146.417l1.026-1.025v-2.783l-1.026-1.025z"/></g><g><path fill="#404040" d="M207.536 61.296h-11.207l-1.511 1.512v3.93l1.511 1.51h11.207l1.511-1.51v-3.93zM207.536 68.478h-11.207l-1.511 1.51v3.931l1.511 1.515h11.207l1.511-1.515v-3.931zM207.536 75.656h-11.207l-1.511 1.511v3.936l1.511 1.507h11.207l1.511-1.507v-3.935z"/><path fill="#404040" d="M207.536 61.296h-11.207l-1.511 1.512v3.93l1.511 1.51h11.207l1.511-1.51v-3.93zM207.536 68.478h-11.207l-1.511 1.51v3.931l1.511 1.515h11.207l1.511-1.515v-3.931zM207.536 75.656h-11.207l-1.511 1.511v3.936l1.511 1.507h11.207l1.511-1.507v-3.935z"/><path fill="#8D8C8C" d="M199.523 80.146h-2.298v-2.3h2.298zM206.72 80.145h-2.297v-2.299h2.297zM199.523 72.946h-2.3v-2.298h2.3zM206.721 72.945h-2.297v-2.298h2.297zM199.52 65.747h-2.297v-2.298h2.297z"/><path fill="#8D8455" d="M206.72 65.747h-2.297V63.45h2.297z"/><path fill="#8C8663" d="M206.166 65.19h-1.185v-1.183h1.185z"/><path fill="#B8AF82" d="M204.423 63.45l.558.56h1.18l.56-.56z"/><path fill="#80795B" d="M206.161 65.19v-1.18l.56-.56v2.298z"/><path fill="#5E5B43" d="M204.981 65.19h1.18l.56.557h-2.298z"/><path fill="#9A916C" d="M204.423 63.45l.558.56v1.18l-.558.558z"/><path fill="#8C8663" d="M198.965 65.19h-1.185v-1.184h1.185z"/><path fill="#B8AF82" d="M197.225 63.45l.557.56h1.18l.558-.56z"/><path fill="#80795B" d="M198.962 65.19v-1.18l.558-.56v2.298z"/><path fill="#5E5B43" d="M197.782 65.19h1.18l.558.557h-2.295z"/><path fill="#9A916C" d="M197.225 63.45l.557.56v1.18l-.557.558z"/><path fill="#8C8663" d="M206.165 72.388h-1.185v-1.184h1.185z"/><path fill="#B8AF82" d="M204.423 70.648l.558.558h1.18l.56-.558z"/><path fill="#80795B" d="M206.161 72.39v-1.185l.56-.556v2.296z"/><path fill="#5E5B43" d="M204.981 72.39h1.18l.56.555h-2.298z"/><path fill="#9A916C" d="M204.423 70.648l.558.558v1.183l-.558.557z"/><path fill="#8C8663" d="M198.964 72.39h-1.185v-1.184h1.185z"/><path fill="#B8AF82" d="M197.225 70.648l.557.558h1.18l.558-.558z"/><path fill="#80795B" d="M198.962 72.39v-1.185l.558-.556v2.296z"/><path fill="#5E5B43" d="M197.782 72.39h1.18l.558.555h-2.295z"/><path fill="#9A916C" d="M197.225 70.648l.557.558v1.183l-.557.557z"/><path fill="#8C8663" d="M206.165 79.59h-1.184v-1.184h1.184z"/><path fill="#B8AF82" d="M204.423 77.849l.558.556h1.18l.56-.556z"/><path fill="#80795B" d="M206.161 79.59v-1.184l.56-.558v2.298z"/><path fill="#5E5B43" d="M204.981 79.59h1.18l.56.556h-2.298z"/><path fill="#9A916C" d="M204.423 77.849l.558.556v1.186l-.558.555z"/><path fill="#8C8663" d="M198.964 79.59h-1.184v-1.186h1.183z"/><path fill="#B8AF82" d="M197.225 77.849l.557.556h1.18l.559-.556z"/><path fill="#80795B" d="M198.962 79.59v-1.184l.559-.558v2.298z"/><path fill="#5E5B43" d="M197.782 79.59h1.18l.559.556h-2.296z"/><path fill="#9A916C" d="M197.225 77.849l.557.556v1.186l-.557.555z"/></g><g><path fill="#404040" d="M59.155 14.557v11.206l1.511 1.511h3.931l1.51-1.51V14.558l-1.51-1.513h-3.93zM66.337 14.557v11.206l1.51 1.511h3.931l1.513-1.51V14.558l-1.513-1.513h-3.932zM73.514 14.557v11.206l1.512 1.511h3.933l1.51-1.51V14.558l-1.51-1.513h-3.933z"/><path fill="#404040" d="M59.155 14.557v11.206l1.511 1.511h3.931l1.51-1.51V14.558l-1.51-1.513h-3.93zM66.337 14.557v11.206l1.51 1.511h3.931l1.513-1.51V14.558l-1.513-1.513h-3.932zM73.514 14.557v11.206l1.512 1.511h3.933l1.51-1.51V14.558l-1.51-1.513h-3.933z"/><path fill="#8D8C8C" d="M78.007 24.865h-2.299v-2.298h2.3zM78.007 17.666h-2.299v-2.298h2.3zM70.808 24.865H68.51v-2.298h2.298zM70.808 17.666H68.51v-2.298h2.298zM63.61 24.865h-2.298v-2.298h2.298z"/><path fill="#8D8455" d="M63.61 17.666h-2.298v-2.298h2.298z"/><path fill="#8C8663" d="M63.052 17.107H61.87v-1.184h1.183z"/><path fill="#B8AF82" d="M61.311 17.666l.56-.559v-1.18l-.56-.559z"/><path fill="#80795B" d="M63.052 15.926h-1.18l-.56-.558h2.298z"/><path fill="#5E5B43" d="M63.052 17.107v-1.18l.558-.559v2.298z"/><path fill="#9A916C" d="M61.311 17.666l.56-.559h1.181l.558.56z"/><path fill="#8C8663" d="M63.052 24.307H61.87v-1.182h1.183z"/><path fill="#B8AF82" d="M61.311 24.865l.56-.558v-1.18l-.56-.559z"/><path fill="#80795B" d="M63.052 23.126h-1.18l-.56-.558h2.298z"/><path fill="#5E5B43" d="M63.052 24.307v-1.18l.558-.559v2.297z"/><path fill="#9A916C" d="M61.311 24.865l.56-.558h1.181l.558.558z"/><path fill="#8C8663" d="M70.251 17.107h-1.184v-1.184h1.184z"/><path fill="#B8AF82" d="M68.511 17.666l.557-.559v-1.18l-.557-.559z"/><path fill="#80795B" d="M70.251 15.926h-1.183l-.557-.558h2.297z"/><path fill="#5E5B43" d="M70.251 17.107v-1.18l.557-.559v2.298z"/><path fill="#9A916C" d="M68.511 17.666l.557-.559h1.183l.557.56z"/><path fill="#8C8663" d="M70.251 24.307h-1.184v-1.182h1.184z"/><path fill="#B8AF82" d="M68.511 24.865l.557-.558v-1.18l-.557-.559z"/><path fill="#80795B" d="M70.251 23.126h-1.183l-.557-.558h2.297z"/><path fill="#5E5B43" d="M70.251 24.307v-1.18l.557-.559v2.297z"/><path fill="#9A916C" d="M68.511 24.865l.557-.558h1.183l.557.558z"/><path fill="#8C8663" d="M77.452 17.107h-1.185v-1.184h1.185z"/><path fill="#B8AF82" d="M75.71 17.666l.557-.559v-1.18l-.558-.559z"/><path fill="#80795B" d="M77.452 15.926h-1.185l-.558-.558h2.298z"/><path fill="#5E5B43" d="M77.452 17.107v-1.18l.555-.559v2.298z"/><path fill="#9A916C" d="M75.71 17.666l.557-.559h1.185l.555.56z"/><path fill="#8C8663" d="M77.452 24.307h-1.185v-1.182h1.185z"/><path fill="#B8AF82" d="M75.71 24.865l.557-.558v-1.18l-.558-.559z"/><path fill="#80795B" d="M77.452 23.126h-1.185l-.558-.558h2.298z"/><path fill="#5E5B43" d="M77.452 24.307v-1.18l.555-.559v2.297z"/><path fill="#9A916C" d="M75.71 24.865l.557-.558h1.185l.555.558z"/></g><g><path fill="#404040" d="M201.572 10.8h-57.6V3.601h57.6z"/><path d="M148.961 8.592h-2.78V5.81h2.78z"/><path fill="#2A2A29" d="M145.157 4.785l1.022 1.025h2.782l1.028-1.025z"/><path fill="#474747" d="M149.989 4.785l-1.028 1.028v2.781l1.028 1.023z"/><path fill="#595959" d="M149.988 9.617l-1.027-1.023h-2.782l-1.022 1.023z"/><path fill="#373737" d="M145.155 9.617l1.024-1.025V5.81l-1.024-1.025z"/><path d="M156.162 8.592h-2.779V5.81h2.779z"/><path fill="#2A2A29" d="M152.355 4.785l1.024 1.025h2.785l1.025-1.025z"/><path fill="#474747" d="M157.189 4.785l-1.025 1.028v2.781l1.025 1.023z"/><path fill="#595959" d="M157.187 9.617l-1.025-1.023h-2.783l-1.024 1.023z"/><path fill="#373737" d="M152.353 9.617l1.026-1.025V5.81l-1.026-1.025z"/><path d="M163.364 8.592h-2.781V5.81h2.781z"/><path fill="#2A2A29" d="M159.556 4.785l1.024 1.025h2.784l1.024-1.025z"/><path fill="#474747" d="M164.388 4.785l-1.024 1.028v2.781l1.024 1.023z"/><path fill="#595959" d="M164.385 9.617l-1.022-1.023h-2.783l-1.024 1.023z"/><path fill="#373737" d="M159.554 9.617l1.026-1.025V5.81l-1.026-1.025z"/><path d="M170.564 8.592h-2.78V5.81h2.78z"/><path fill="#2A2A29" d="M166.754 4.785l1.028 1.025h2.782l1.022-1.025z"/><path fill="#474747" d="M171.586 4.785l-1.022 1.028v2.781l1.022 1.023z"/><path fill="#595959" d="M171.586 9.617l-1.024-1.023h-2.78l-1.028 1.023z"/><path fill="#373737" d="M166.752 9.617l1.03-1.025V5.81l-1.03-1.025z"/><path d="M177.763 8.592h-2.781V5.81h2.781z"/><path fill="#2A2A29" d="M173.957 4.785l1.023 1.025h2.783l1.026-1.025z"/><path fill="#474747" d="M178.789 4.785l-1.026 1.028v2.781l1.026 1.023z"/><path fill="#595959" d="M178.787 9.617l-1.027-1.023h-2.78l-1.023 1.023z"/><path fill="#373737" d="M173.955 9.617l1.025-1.025V5.81l-1.025-1.025z"/><path d="M184.961 8.592h-2.78V5.81h2.78z"/><path fill="#2A2A29" d="M181.157 4.785l1.022 1.025h2.782l1.028-1.025z"/><path fill="#474747" d="M185.989 4.785l-1.028 1.028v2.781l1.028 1.023z"/><path fill="#595959" d="M185.988 9.617l-1.027-1.023h-2.782l-1.022 1.023z"/><path fill="#373737" d="M181.155 9.617l1.024-1.025V5.81l-1.024-1.025z"/><path d="M192.162 8.592h-2.779V5.81h2.779z"/><path fill="#2A2A29" d="M188.355 4.785l1.024 1.025h2.785l1.025-1.025z"/><path fill="#474747" d="M193.189 4.785l-1.025 1.028v2.781l1.025 1.023z"/><path fill="#595959" d="M193.187 9.617l-1.025-1.023h-2.783l-1.024 1.023z"/><path fill="#373737" d="M188.353 9.617l1.026-1.025V5.81l-1.026-1.025z"/><path d="M199.364 8.592h-2.781V5.81h2.781z"/><path fill="#2A2A29" d="M195.556 4.785l1.024 1.025h2.784l1.024-1.025z"/><path fill="#474747" d="M200.388 4.785l-1.024 1.028v2.781l1.024 1.023z"/><path fill="#595959" d="M200.385 9.617l-1.022-1.023h-2.783l-1.024 1.023z"/><path fill="#373737" d="M195.554 9.617l1.026-1.025V5.81l-1.026-1.025z"/></g><g><path fill="none" d="M93.157 36.073h7.236"/><path fill="#F2F2F2" d="M100.502 36.072h-7.348V32.24h7.348z"/><path fill="#22B573" fill-opacity=".7" d="M97.901 36.073s.645-.467.867-.426c.219.041.541-.148.676 0l-.018.424-1.525.002z"/><path fill="#FFF" d="M97.184 34.608h-.854v-.96h.854z"/><path fill="#B3B3B3" d="M97.184 34.631h-.854v-.049h.854z"/><path fill="#D1C690" d="M98.481 35.647l.964.106v-.733l-.964.105z"/><path fill="#D1C690" d="M98.542 35.45h-.008a2.418 2.418 0 0 1-.598-.162c-.209-.08-.559-.782-.828-.696-.027.012-.06-.01-.066-.043-.008-.035.01-.068.039-.078.305-.095.674.617.893.701.148.06.318.123.572.155a.059.059 0 0 1 .049.068c-.001.03-.025.055-.053.055zM95.061 32.761l-.964-.103v.73l.964-.103z"/><path fill="#D1C690" d="M96.714 34.282c-.025 0-.049-.02-.055-.047-.063-.292-1.088-1.152-1.885-1.152-.033 0-.057-.026-.057-.063.002-.034.025-.063.057-.063h.002c.749 0 1.891.77 1.993 1.245a.067.067 0 0 1-.041.078c-.002.002-.007.002-.014.002zM97.185 34.298s-.356-.002-.383.311h.383v-.31z"/><path fill="#D1C690" d="M96.749 33.977s.158.306.053.351c-.107.048-.178.052-.24-.028-.061-.082.187-.323.187-.323z"/><path fill="#9D956C" d="M97.108 34.645c.27-.084.619.618.828.698.145.06.33.127.598.162v-.059a2.418 2.418 0 0 1-.598-.162c-.209-.08-.559-.782-.828-.696v.057zM95.061 33.34l-.964.103v-.055l.964-.103z"/><path fill="#9D956C" d="M96.659 34.29c-.062-.29-1.07-1.212-1.885-1.149v-.06c.877-.06 1.826.86 1.887 1.152l-.002.057zM96.803 34.663h.381v-.057h-.381v.057zM96.561 34.352c.063.08.131.076.238.031l.002-.06c-.107.05-.179.052-.24-.028v.057z"/><g><path opacity=".5" fill="#FFF" d="M98.854 32.292H94.63v-.05h4.223z"/></g><path opacity=".5" fill="#F2F2F2" d="M94.114 32.24v3.831h5.317l.004-3.83h-5.321z"/><path opacity=".55" fill="#FFF" d="M94.164 32.89v-.27c.018-.152-.012-.272.098-.272h4.854c.168 0 .176.065-.012.065h-4.346c-.457 0-.518.105-.518.197l.002.272c0 .182-.078.182-.078.008z"/><path opacity=".03" d="M99.29 35.85c0 .067.012.137-.098.137h-4.817c-.168 0-.176-.065.008-.065l3.589-.002c.595.001 1.318-.07 1.318-.07z"/><path fill="#D1C690" d="M93.156 36.073h.771v-.52c0-.126.08-.214.188-.269v-3.047h-1.01V36.071"/><g><path opacity=".5" fill="#FFF" d="M94.11 32.292h-1.005v-.052h1.006z"/></g><path fill="#D1C690" d="M100.501 36.073V32.24H99.43v3.464c.104.056.191.146.191.271v.1h.829"/><g><path opacity=".5" fill="#FFF" d="M100.5 32.29h-1.073v-.053h1.072z"/></g></g><g><path fill="none" d="M182.467 49.546h7.236"/><path fill="#F2F2F2" d="M189.811 49.545h-7.349v-3.833h7.35z"/><path fill="#22B573" fill-opacity=".7" d="M187.212 49.544s.646-.467.865-.426c.219.041.541-.148.678 0l-.021.424-1.522.002z"/><path fill="#FFF" d="M186.494 48.08h-.854v-.96h.854z"/><path fill="#B3B3B3" d="M186.493 48.105h-.854v-.049h.854z"/><path fill="#D1C690" d="M187.792 49.12l.963.104v-.73l-.963.103z"/><path fill="#D1C690" d="M187.854 48.921h-.008c-.269-.035-.447-.104-.601-.162-.209-.08-.561-.782-.826-.696-.026.012-.063-.01-.065-.043-.008-.035.011-.068.039-.078.306-.095.674.617.894.701.147.06.317.123.571.155a.06.06 0 0 1 .05.068c-.006.03-.028.055-.054.055zM184.372 46.232l-.967-.103v.73l.967-.103z"/><path fill="#D1C690" d="M186.024 47.753c-.025 0-.049-.02-.055-.047-.063-.292-1.088-1.152-1.885-1.152a.062.062 0 0 1-.062-.063c.002-.034.022-.063.062-.063h.002c.748 0 1.891.77 1.992 1.245a.07.07 0 0 1-.041.078c-.003.002-.007.002-.013.002zM186.495 47.77s-.354-.003-.383.31h.383v-.31z"/><path fill="#D1C690" d="M186.061 47.45s.157.306.054.351c-.107.048-.179.052-.24-.028-.062-.084.186-.323.186-.323z"/><path fill="#9D956C" d="M186.419 48.118c.271-.084.617.618.826.698.146.06.33.127.601.162v-.059c-.269-.035-.447-.104-.601-.162-.209-.08-.561-.782-.826-.696v.057zM184.372 46.811l-.967.103v-.055l.967-.103z"/><path fill="#9D956C" d="M185.968 47.763c-.063-.29-1.069-1.212-1.885-1.149v-.06c.877-.06 1.824.86 1.888 1.152l-.003.057zM186.112 48.136h.381v-.057h-.381v.057zM185.872 47.825c.063.08.131.076.237.031l.003-.06c-.107.05-.18.052-.24-.028v.057z"/><g><path opacity=".5" fill="#FFF" d="M188.166 45.762h-4.225v-.051h4.225z"/></g><path opacity=".5" fill="#F2F2F2" d="M183.423 45.712v3.831h5.316l.004-3.83h-5.32z"/><path opacity=".55" fill="#FFF" d="M183.475 46.363v-.27c.019-.152-.013-.272.099-.272h4.854c.168 0 .176.065-.014.065h-4.348c-.457 0-.52.105-.52.197l.004.272c0 .182-.075.182-.075.008z"/><path opacity=".03" d="M188.602 49.322c0 .068.013.138-.099.138h-4.817c-.168 0-.177-.065.009-.065l3.59-.002c.593 0 1.317-.07 1.317-.07z"/><path fill="#D1C690" d="M182.464 49.544h.771v-.52c0-.126.08-.214.188-.269v-3.047h-1.01V49.542"/><g><path opacity=".5" fill="#FFF" d="M183.422 45.76h-1.007v-.051h1.007z"/></g><path fill="#D1C690" d="M189.813 49.544V45.711h-1.071v3.464c.104.056.19.146.19.271v.1h.83"/><g><path opacity=".5" fill="#FFF" d="M189.81 45.762h-1.07v-.052h1.07z"/></g></g><g><g transform="rotate(90 -7.779 107.286)"><path fill="#CCC" d="M20.426 8.514v1.272h-1.039V8.514zM1.036 8.514v1.272H-.001V8.514z"/><path opacity=".1" d="M20.426 8.512v.203h-1.039v-.203zM1.035 8.511v.203H-.002v-.203z"/><path opacity=".2" fill="#FFF" d="M20.426 9.582v.204h-1.039v-.204zM1.036 9.58v.205H-.001V9.58z"/><path fill="#1A1A1A" d="M4.845 18.353h13.157a1.39 1.39 0 0 0 1.385-1.383V1.39A1.39 1.39 0 0 0 18.002.003H4.845l-3.81 3.811v10.731l3.81 3.808z"/><circle fill="#E6E6E6" cx="10.211" cy="9.178" r="8.703"/><path fill="#333" d="M4.845 18.353h13.157a1.39 1.39 0 0 0 1.385-1.383V1.39A1.39 1.39 0 0 0 18.002.003H4.845l-3.81 3.811v10.731l3.81 3.808z"/><path d="M1.036 3.997L4.847.186H18.003c.76 0 1.385.623 1.385 1.387v-.184A1.39 1.39 0 0 0 18.003.002H4.845l-3.81 3.811v.184h.001z"/><path opacity=".1" fill="#FFF" d="M19.386 16.785a1.39 1.39 0 0 1-1.385 1.384H4.844l-3.811-3.807v.183l3.811 3.808h13.157a1.39 1.39 0 0 0 1.385-1.383v-.185z"/><path fill="#E6E6E6" d="M10.211.354c1.881 0 3.615.604 5.039 1.614a8.69 8.69 0 0 1 3.664 7.088 8.684 8.684 0 0 1-3.664 7.087 8.657 8.657 0 0 1-5.039 1.615 8.703 8.703 0 0 1 0-17.404z"/><path d="M18.915 9.178a8.689 8.689 0 0 0-3.664-7.088v14.175a8.685 8.685 0 0 0 3.664-7.087z"/><path opacity=".3" fill="#FFF" d="M1.509 8.934a8.703 8.703 0 0 0 8.702 8.703 8.665 8.665 0 0 0 5.039-1.616 8.685 8.685 0 0 0 3.664-7.087v.244a8.682 8.682 0 0 1-3.664 7.087 8.65 8.65 0 0 1-5.039 1.615 8.703 8.703 0 0 1-8.702-8.702v-.244z"/><path opacity=".5" fill="#FFF" d="M18.915 9.407a8.691 8.691 0 0 0-3.664-7.088V2.09a8.689 8.689 0 0 1 3.664 7.088v.229z"/><path opacity=".2" d="M15.25 2.319A8.664 8.664 0 0 0 10.211.704a8.704 8.704 0 0 0-8.702 8.703v-.229A8.704 8.704 0 0 1 10.211.475c1.881 0 3.615.604 5.039 1.615v.229z"/></g></g><g><g transform="rotate(90 -17.859 97.206)"><path fill="#CCC" d="M20.427 8.514v1.272h-1.038V8.514zM1.037 8.513v1.272H0V8.513z"/><path opacity=".1" d="M20.426 8.511v.203h-1.039v-.203zM1.036 8.512v.203H-.001v-.203z"/><path opacity=".2" fill="#FFF" d="M20.427 9.582v.204h-1.039v-.204zM1.037 9.58v.205H0V9.58z"/><path fill="#1A1A1A" d="M4.846 18.353h13.157a1.39 1.39 0 0 0 1.385-1.383V1.39A1.39 1.39 0 0 0 18.003.003H4.846l-3.81 3.811v10.731l3.81 3.808z"/><circle fill="#E6E6E6" cx="10.212" cy="9.178" r="8.703"/><path fill="#333" d="M4.846 18.353h13.157a1.39 1.39 0 0 0 1.385-1.383V1.39A1.39 1.39 0 0 0 18.003.003H4.846l-3.81 3.811v10.731l3.81 3.808z"/><path d="M1.037 3.997L4.848.186H18.004c.76 0 1.385.623 1.385 1.387v-.184A1.39 1.39 0 0 0 18.004.002H4.847l-3.81 3.811v.184z"/><path opacity=".1" fill="#FFF" d="M19.387 16.785a1.39 1.39 0 0 1-1.385 1.384H4.845l-3.811-3.807v.183l3.811 3.808h13.157a1.39 1.39 0 0 0 1.385-1.383v-.185z"/><path fill="#E6E6E6" d="M10.212.354c1.881 0 3.615.604 5.039 1.614a8.69 8.69 0 0 1 3.664 7.088 8.684 8.684 0 0 1-3.664 7.087 8.657 8.657 0 0 1-5.039 1.615 8.703 8.703 0 0 1 0-17.404z"/><path d="M18.915 9.178a8.689 8.689 0 0 0-3.664-7.088v14.175a8.68 8.68 0 0 0 3.664-7.087z"/><path opacity=".3" fill="#FFF" d="M1.51 8.934a8.703 8.703 0 0 0 8.702 8.703 8.665 8.665 0 0 0 5.039-1.616 8.685 8.685 0 0 0 3.664-7.087v.244a8.682 8.682 0 0 1-3.664 7.087 8.65 8.65 0 0 1-5.039 1.615A8.703 8.703 0 0 1 1.51 9.178v-.244z"/><path opacity=".5" fill="#FFF" d="M18.915 9.407a8.691 8.691 0 0 0-3.664-7.088V2.09a8.689 8.689 0 0 1 3.664 7.088v.229z"/><path opacity=".2" d="M15.251 2.319A8.664 8.664 0 0 0 10.212.704 8.704 8.704 0 0 0 1.51 9.407v-.229A8.704 8.704 0 0 1 10.212.475c1.881 0 3.615.604 5.039 1.615v.229z"/></g></g><g><path fill="#404040" d="M93.572 140.4h57.6v7.199h-57.6z"/><path d="M95.782 142.609h2.78v2.783h-2.78z"/><path fill="#2A2A29" d="M94.757 141.584l1.023 1.025h2.783l1.026-1.025z"/><path fill="#474747" d="M99.589 141.584l-1.026 1.029v2.781l1.026 1.023z"/><path fill="#595959" d="M99.588 146.417l-1.026-1.023H95.78l-1.023 1.023z"/><path fill="#373737" d="M94.755 146.417l1.025-1.025v-2.783l-1.025-1.025z"/><path d="M102.982 142.609h2.78v2.783h-2.78z"/><path fill="#2A2A29" d="M101.956 141.584l1.024 1.025h2.784l1.026-1.025z"/><path fill="#474747" d="M106.79 141.584l-1.026 1.029v2.781l1.026 1.023z"/><path fill="#595959" d="M106.788 146.417l-1.025-1.023h-2.783l-1.024 1.023z"/><path fill="#373737" d="M101.954 146.417l1.026-1.025v-2.783l-1.026-1.025z"/><path d="M110.183 142.609h2.78v2.783h-2.78z"/><path fill="#2A2A29" d="M109.156 141.584l1.024 1.025h2.784l1.024-1.025z"/><path fill="#474747" d="M113.988 141.584l-1.024 1.029v2.781l1.024 1.023z"/><path fill="#595959" d="M113.987 146.417l-1.025-1.023h-2.782l-1.024 1.023z"/><path fill="#373737" d="M109.154 146.417l1.026-1.025v-2.783l-1.026-1.025z"/><path d="M117.382 142.609h2.78v2.783h-2.78z"/><path fill="#2A2A29" d="M116.355 141.584l1.025 1.025h2.785l1.022-1.025z"/><path fill="#474747" d="M121.187 141.584l-1.022 1.029v2.781l1.022 1.023z"/><path fill="#595959" d="M121.187 146.417l-1.024-1.023h-2.783l-1.025 1.023z"/><path fill="#373737" d="M116.353 146.417l1.027-1.025v-2.783l-1.027-1.025z"/><path d="M124.583 142.609h2.78v2.783h-2.78z"/><path fill="#2A2A29" d="M123.555 141.584l1.026 1.025h2.782l1.024-1.025z"/><path fill="#474747" d="M128.387 141.584l-1.024 1.029v2.781l1.024 1.023z"/><path fill="#595959" d="M128.387 146.417l-1.025-1.023h-2.781l-1.026 1.023z"/><path fill="#373737" d="M123.553 146.417l1.028-1.025v-2.783l-1.028-1.025z"/><path d="M131.782 142.609h2.78v2.783h-2.78z"/><path fill="#2A2A29" d="M130.757 141.584l1.023 1.025h2.782l1.027-1.025z"/><path fill="#474747" d="M135.589 141.584l-1.027 1.029v2.781l1.027 1.023z"/><path fill="#595959" d="M135.587 146.417l-1.025-1.023h-2.782l-1.023 1.023z"/><path fill="#373737" d="M130.755 146.417l1.025-1.025v-2.783l-1.025-1.025z"/><path d="M138.982 142.609h2.78v2.783h-2.78z"/><path fill="#2A2A29" d="M137.956 141.584l1.024 1.025h2.782l1.028-1.025z"/><path fill="#474747" d="M142.79 141.584l-1.028 1.029v2.781l1.028 1.023z"/><path fill="#595959" d="M142.788 146.417l-1.026-1.023h-2.782l-1.024 1.023z"/><path fill="#373737" d="M137.954 146.417l1.026-1.025v-2.783l-1.026-1.025z"/><path d="M146.183 142.609h2.78v2.783h-2.78z"/><path fill="#2A2A29" d="M145.156 141.584l1.024 1.025h2.784l1.024-1.025z"/><path fill="#474747" d="M149.988 141.584l-1.024 1.029v2.781l1.024 1.023z"/><path fill="#595959" d="M149.987 146.417l-1.025-1.023h-2.782l-1.024 1.023z"/><path fill="#373737" d="M145.154 146.417l1.026-1.025v-2.783l-1.026-1.025z"/></g><g><path fill="none" d="M100.396 51.974H93.16"/><path fill="#F2F2F2" d="M100.394 55.801h-7.348v-3.833h7.348z"/><path fill="#22B573" fill-opacity=".7" d="M95.646 51.968s-.645.467-.867.426c-.219-.041-.54.148-.676 0l.018-.424 1.525-.002z"/><path fill="#FFF" d="M97.217 54.396h-.854v-.96h.854z"/><path fill="#B3B3B3" d="M97.219 53.46h-.854v-.05h.854z"/><path fill="#D1C690" d="M95.066 52.394l-.963-.104v.73l.963-.103z"/><path fill="#D1C690" d="M95.005 52.59h.008c.266.036.447.105.598.163.21.08.56.782.828.696.027-.012.06.01.066.043.008.035-.01.068-.039.078-.305.095-.674-.617-.893-.701a2.118 2.118 0 0 0-.572-.155.059.059 0 0 1-.049-.068c.003-.03.026-.055.053-.055zM98.486 55.28l.966.103v-.73l-.966.103z"/><path fill="#D1C690" d="M96.833 53.759c.025 0 .05.02.055.047.063.292 1.088 1.152 1.885 1.152.033 0 .057.026.057.063-.002.034-.025.063-.057.063h-.002c-.749 0-1.89-.77-1.993-1.245a.067.067 0 0 1 .041-.078c.005-.002.01-.002.014-.002zM96.363 53.743s.356.002.383-.311h-.383v.31z"/><path fill="#D1C690" d="M96.798 54.063s-.158-.306-.053-.351c.107-.048.178-.052.24.028.061.083-.187.323-.187.323z"/><path fill="#9D956C" d="M96.44 53.396c-.27.084-.62-.618-.829-.698a2.242 2.242 0 0 0-.598-.162v.059c.266.035.447.104.598.162.21.08.56.782.828.696v-.057zM98.486 54.7l.966-.1v.053l-.966.103z"/><path fill="#9D956C" d="M96.89 53.75c.062.29 1.07 1.212 1.885 1.149v.06c-.877.06-1.826-.86-1.887-1.152l.002-.057zM96.746 53.376h-.38v.057h.38v-.057zM96.986 53.688c-.063-.08-.13-.076-.238-.031l-.002.06c.107-.05.18-.052.24.028v-.057z"/><g><path opacity=".5" fill="#FFF" d="M98.915 55.804h-4.223v-.05h4.223z"/></g><path opacity=".5" fill="#F2F2F2" d="M99.435 55.8v-3.83h-5.317l-.004 3.83h5.321z"/><path opacity=".55" fill="#FFF" d="M99.384 55.149v.27c-.018.152.012.272-.098.272h-4.854c-.168 0-.176-.065.012-.065h4.346c.457 0 .518-.105.518-.197l-.002-.272c.001-.18.078-.18.078-.008z"/><path opacity=".03" d="M94.257 52.19c0-.068-.012-.138.098-.138h4.817c.168 0 .176.065-.008.065l-3.589.002c-.595.003-1.318.07-1.318.07z"/><path fill="#D1C690" d="M100.393 51.968h-.77v.52c0 .126-.08.214-.189.269v3.047h1.01V51.97"/><g><path opacity=".5" fill="#FFF" d="M100.443 55.805h-1.006v-.052h1.006z"/></g><path fill="#D1C690" d="M93.046 51.968V55.8h1.072v-3.464c-.105-.056-.19-.146-.19-.271v-.1h-.83"/><g><path opacity=".5" fill="#FFF" d="M94.118 55.805h-1.072v-.052h1.072z"/></g></g><g><path fill="none" d="M100.396 45.494H93.16"/><path fill="#F2F2F2" d="M100.393 49.321h-7.348v-3.833h7.348z"/><path fill="#22B573" fill-opacity=".7" d="M95.646 45.488s-.645.467-.867.426c-.219-.041-.54.148-.676 0l.018-.424 1.525-.002z"/><path fill="#FFF" d="M97.217 47.916h-.854v-.96h.854z"/><path fill="#B3B3B3" d="M97.217 46.978h-.854v-.049h.854z"/><path fill="#D1C690" d="M95.066 45.914l-.963-.104v.73l.963-.103z"/><path fill="#D1C690" d="M95.005 46.11h.008c.266.036.447.105.598.163.21.08.56.782.828.696.027-.012.06.01.066.043.008.035-.01.068-.039.078-.305.095-.674-.617-.893-.701a2.118 2.118 0 0 0-.572-.155.059.059 0 0 1-.049-.068c.003-.03.026-.055.053-.055zM98.486 48.8l.966.103v-.73l-.966.103z"/><path fill="#D1C690" d="M96.833 47.279c.025 0 .05.02.055.047.063.292 1.088 1.152 1.885 1.152.033 0 .057.026.057.063-.002.034-.025.063-.057.063h-.002c-.749 0-1.89-.77-1.993-1.245a.067.067 0 0 1 .041-.078c.005-.002.01-.002.014-.002zM96.363 47.265s.356.002.383-.311h-.383v.31z"/><path fill="#D1C690" d="M96.798 47.584s-.158-.306-.053-.351c.107-.048.178-.052.24.028.061.082-.187.323-.187.323z"/><path fill="#9D956C" d="M96.44 46.916c-.27.084-.62-.618-.829-.698a2.242 2.242 0 0 0-.598-.162v.059c.266.035.447.104.598.162.21.08.56.782.828.696v-.057zM98.486 48.223l.966-.104v.054l-.966.103z"/><path fill="#9D956C" d="M96.89 47.27c.062.292 1.07 1.213 1.885 1.15v.06c-.877.06-1.826-.86-1.887-1.152l.002-.057zM96.746 46.898h-.38v.057h.38v-.057zM96.986 47.209c-.063-.08-.13-.076-.238-.031l-.002.06c.107-.05.18-.052.24.028v-.057z"/><g><path opacity=".5" fill="#FFF" d="M98.915 49.323h-4.223v-.05h4.223z"/></g><path opacity=".5" fill="#F2F2F2" d="M99.435 49.32v-3.83h-5.317l-.004 3.83h5.321z"/><path opacity=".55" fill="#FFF" d="M99.384 48.67v.27c-.018.152.012.272-.098.272h-4.854c-.168 0-.176-.065.012-.065h4.346c.457 0 .518-.105.518-.197l-.002-.272c.001-.181.078-.181.078-.008z"/><path opacity=".03" d="M94.257 45.712c0-.068-.012-.138.098-.138h4.817c.168 0 .176.065-.008.065l-3.589.002a16.6 16.6 0 0 0-1.318.07z"/><path fill="#D1C690" d="M100.393 45.488h-.77v.52c0 .126-.08.214-.189.269v3.047h1.01V45.49"/><g><path opacity=".5" fill="#FFF" d="M100.443 49.324h-1.006v-.052h1.006z"/></g><path fill="#D1C690" d="M93.046 45.488V49.32h1.072v-3.464c-.105-.056-.19-.146-.19-.271v-.1h-.83"/><g><path opacity=".5" fill="#FFF" d="M94.118 49.323h-1.072v-.052h1.072z"/></g></g><g><g transform="rotate(90 -13.445 64.269)"><path fill="#999" d="M32.445 1.192v4.896h-3.458V1.192zM25.89 1.193v4.896h-3.459V1.193zM19.334 1.192v4.896H15.88V1.192z"/><path opacity=".2" fill="#FFF" d="M32.445 1.192v.146h-3.458v-.146zM25.89 1.193v.146h-3.459v-.146zM19.334 1.192v.146H15.88v-.146z"/><path fill="#999" d="M29.264 16.03v5.285H19.057V16.03z"/><path opacity=".2" fill="#FFF" d="M29.264 21.154v.161H19.057v-.16z"/><path fill="#303030" d="M33.742 6.089v9.943h-19.16V6.089z"/><path fill="#1F1F1F" d="M33.744 16.031H14.582l.719-.721h17.72zM33.744 6.088H14.582l.719.723h17.72z"/><path d="M33.744 16.031V6.088l-.723.723v8.499z"/><path fill="#3D3D3D" d="M14.582 16.031V6.088l.719.723v8.499z"/><circle fill="#1F1F1F" cx="31.582" cy="8.251" r=".72"/></g></g><g><path fill="#232323" d="M50.6 140.928H17.63v-23.732H50.6z"/><path fill="#494949" d="M50.17 119.415H18.233v-1.646H50.17z"/><path fill="#3D3D3D" fill-opacity=".3" d="M50.168 124.786H18.232v-5.37h31.936z"/><path d="M50.17 140.41H17.197v-1.618H50.17z"/><path fill="#0F0F0F" fill-opacity=".4" d="M50.17 138.838H17.197v-5.826H50.17z"/><path opacity=".2" d="M50.6 140.926h-.591v-23.73h.592z"/><path opacity=".5" fill="none" stroke="#000" stroke-width=".25" stroke-miterlimit="10" d="M47.79 140.928v-23.732"/><path opacity=".25" d="M21.127 140.95H19.84v-23.73h1.287z"/><path opacity=".25" stroke="#565656" stroke-width=".25" d="M20.123 121.519v15.08h13.296a7.54 7.54 0 0 0 7.54-7.541 7.54 7.54 0 0 0-7.54-7.541l-13.296.002z" stroke-miterlimit="10"/><g fill="#232323"><path d="M20.123 121.519v15.08h13.296a7.54 7.54 0 0 0 7.54-7.541 7.54 7.54 0 0 0-7.54-7.541l-13.296.002z"/><path d="M20.849 141.817H13.16v-25.514h7.688z"/></g><path fill="#6D6D6D" d="M52.303 131.917h-1.701v-5.713h1.7z"/><path fill="#494949" d="M51.575 134.672h-.976v-11.226h.976zM20.122 117.768h-6.266v-1.051h6.266z"/><path d="M20.122 141.456h-6.267v-1.051h6.267z"/></g><g><path fill="#999" d="M19.6 22.886h2.957v4.074l-2.956.002h-1.928v-3.17c0-.502.406-.908.907-.908 0 0 1.02 0 1.02.002z"/><path fill="gray" d="M18.48 22.886v4.076h-.807v-3.318c0-.403.56-.758.807-.758z"/><path fill="#B3B3B3" d="M44.443 59.436H7.761v-32.48h36.682z"/><path fill="#999" d="M7.763 59.437H.198V26.958h7.565z"/><path opacity=".5" fill="#CCC" d="M44.445 59.435H.198V57.39h44.247z"/><path opacity=".2" d="M44.444 29.004H.197v-2.047h44.247z"/><g><path fill="#B3B3B3" d="M19.599 63.513h2.956v-4.077H17.67v3.172c0 .502.406.905.907.905h1.02z"/><path fill="#E6E6E6" d="M18.478 63.513v-4.077h-.807v3.319c0 .404.56.758.807.758z"/></g></g><g><g transform="rotate(-90 16.168 6.608)"><path fill="#CCC" d="M3.229 21.262h.368v8.264h-.368v6.246h15.979V15.015H3.229z"/><path fill="#CCC" d="M21.768 29.526h-.369v-8.264h.369v-6.247H5.908v20.757h15.86z"/><circle fill="#641D1C" cx="12.496" cy="25.395" r="5.117"/><path opacity=".2" d="M12.746 30.51a5.115 5.115 0 0 0 5.118-5.114 5.119 5.119 0 0 0-5.118-5.12h-.249a5.119 5.119 0 0 1 5.118 5.12 5.115 5.115 0 0 1-5.118 5.114h.249z"/><circle fill="#852725" cx="12.497" cy="25.395" r="4.93"/><circle fill="#852725" cx="12.381" cy="25.395" r="4.929"/><path opacity=".1" d="M7.568 25.512a4.93 4.93 0 1 0 9.86 0v-.233a4.93 4.93 0 1 1-9.86 0v.233z"/><path opacity=".2" fill="#FFF" d="M17.427 25.512a4.929 4.929 0 0 0-4.929-4.93 4.928 4.928 0 0 0-4.931 4.93v-.233a4.93 4.93 0 1 1 9.86 0v.233zM3.23 21.26v-6.248h.37v6.248zM3.23 35.77v-6.245h.37v6.244z"/><path opacity=".2" fill="#FFF" d="M3.597 29.524v-8.266h.368v8.266z"/><path opacity=".2" d="M21.387 21.26v-6.248h.368v6.248zM21.383 35.768v-6.244h.37v6.244z"/><g><path opacity=".2" d="M21.015 29.526v-8.267h.37v8.267z"/></g></g><path fill="#E6E6E6" d="M45.355 15.278h2.75v2.251h-2.75zM45.355 3.027h2.75V5.28h-2.75zM21.98 8.486h2.75v3.417h-2.75zM21.98 15.278h2.75v2.251h-2.75zM21.98 3.027h2.75V5.28h-2.75z"/><path opacity=".2" fill="#FFF" d="M21.98 8.486h.334v3.417h-.334zM21.98 15.278h.334v2.251h-.334zM21.98 3.027h.334V5.28h-.334z"/><path opacity=".2" d="M48.045 15.26h.104v2.25h-.104zM48.045 3.008h.104V5.26h-.104z"/><path opacity=".1" d="M45.37 15.291h.335v2.251h-.334zM45.37 3.04h.335v2.252h-.334z"/></g><g><title>text:RESET</title><text fill="#FFF" font-family="'OCRA'" font-size="4.176" transform="translate(27.468 23.4)">RESET</text></g><g><path fill="#404040" d="M67.591 3.6h72v7.2h-72z"/><path d="M69.802 5.81h2.78V8.59h-2.78z"/><path fill="#2A2A29" d="M68.777 4.784L69.8 5.81h2.783l1.026-1.025z"/><path fill="#474747" d="M73.61 4.784l-1.027 1.028v2.781l1.026 1.023z"/><path fill="#595959" d="M73.61 9.616l-1.027-1.023H69.8l-1.023 1.023z"/><path fill="#373737" d="M68.775 9.616L69.8 8.591V5.81l-1.025-1.025z"/><path d="M77.003 5.81h2.781V8.59h-2.78z"/><path fill="#2A2A29" d="M75.976 4.784L77 5.81h2.783l1.026-1.025z"/><path fill="#474747" d="M80.808 4.784l-1.026 1.028v2.781l1.026 1.023z"/><path fill="#595959" d="M80.808 9.616L79.78 8.593H77l-1.024 1.023z"/><path fill="#373737" d="M75.974 9.616L77 8.591V5.81l-1.025-1.025z"/><path d="M84.202 5.81h2.78V8.59h-2.78z"/><path fill="#2A2A29" d="M83.175 4.784l1.023 1.025h2.786l1.025-1.025z"/><path fill="#474747" d="M88.01 4.784l-1.026 1.028v2.781l1.025 1.023z"/><path fill="#595959" d="M88.007 9.616l-1.023-1.023h-2.786l-1.023 1.023z"/><path fill="#373737" d="M83.175 9.616l1.023-1.025V5.81l-1.023-1.025z"/><path d="M91.403 5.81h2.781V8.59h-2.78z"/><path fill="#2A2A29" d="M90.376 4.784l1.026 1.025h2.783l1.023-1.025z"/><path fill="#474747" d="M95.208 4.784l-1.023 1.028v2.781l1.023 1.023z"/><path fill="#595959" d="M95.208 9.616l-1.025-1.023h-2.78l-1.027 1.023z"/><path fill="#373737" d="M90.374 9.616l1.028-1.025V5.81l-1.028-1.025z"/><path d="M98.603 5.81h2.78V8.59h-2.78z"/><path fill="#2A2A29" d="M97.575 4.784l1.026 1.025h2.783l1.023-1.025z"/><path fill="#474747" d="M102.407 4.784l-1.023 1.028v2.781l1.023 1.023z"/><path fill="#595959" d="M102.405 9.616l-1.023-1.023h-2.78l-1.027 1.023z"/><path fill="#373737" d="M97.573 9.616l1.028-1.025V5.81l-1.028-1.025z"/><path d="M105.804 5.81h2.78V8.59h-2.78z"/><path fill="#2A2A29" d="M104.777 4.784L105.8 5.81h2.783l1.027-1.025z"/><path fill="#474747" d="M109.61 4.784l-1.027 1.028v2.781l1.027 1.023z"/><path fill="#595959" d="M109.61 9.616l-1.03-1.023h-2.78l-1.023 1.023z"/><path fill="#373737" d="M104.775 9.616l1.025-1.025V5.81l-1.025-1.025z"/><path d="M113.001 5.81h2.78V8.59h-2.78z"/><path fill="#2A2A29" d="M111.98 4.784L113 5.81h2.781l1.03-1.025z"/><path fill="#474747" d="M116.81 4.784l-1.029 1.028v2.781l1.03 1.023z"/><path fill="#595959" d="M116.808 9.616l-1.029-1.023H113l-1.02 1.023z"/><path fill="#373737" d="M111.976 9.616L113 8.591V5.81l-1.023-1.025z"/><path d="M120.201 5.81h2.78V8.59h-2.78z"/><path fill="#2A2A29" d="M119.175 4.784l1.022 1.025h2.788l1.022-1.025z"/><path fill="#474747" d="M124.007 4.784l-1.022 1.028v2.781l1.022 1.023z"/><path fill="#595959" d="M124.007 9.616l-1.022-1.023h-2.788l-1.022 1.023z"/><path fill="#373737" d="M119.173 9.616l1.024-1.025V5.81l-1.024-1.025z"/><path d="M127.402 5.81h2.78V8.59h-2.78z"/><path fill="#2A2A29" d="M126.376 4.784l1.026 1.025h2.784l1.022-1.025z"/><path fill="#474747" d="M131.208 4.784l-1.022 1.028v2.781l1.022 1.023z"/><path fill="#595959" d="M131.205 9.616l-1.022-1.023h-2.78l-1.027 1.023z"/><path fill="#373737" d="M126.374 9.616l1.028-1.025V5.81l-1.028-1.025z"/><path d="M134.604 5.81h2.778V8.59h-2.778z"/><path fill="#2A2A29" d="M133.574 4.784l1.027 1.025h2.781l1.024-1.025z"/><path fill="#474747" d="M138.406 4.784l-1.024 1.028v2.781l1.024 1.023z"/><path fill="#595959" d="M138.404 9.616l-1.022-1.023h-2.78l-1.028 1.023z"/><path fill="#373737" d="M133.572 9.616l1.03-1.025V5.81l-1.03-1.025z"/></g></svg>