<svg xmlns:ns0="http://www.iki.fi/pav/software/textext/" xmlns="http://www.w3.org/2000/svg" xmlns:xlink="http://www.w3.org/1999/xlink" width="744.094" height="1052.362"><title>Leuchtdiode (Bauform)</title><g><rect ry="2.95" y="325.354" x="129.833" height="401.655" width="484.429" style="marker:none" color="#000" fill="#fff" stroke="#fff" stroke-linecap="round" stroke-linejoin="round" overflow="visible"/><g color="#000" stroke="#000" stroke-linecap="round" stroke-linejoin="round"><path d="M515.96 469.918c-19.944 0-36.125 16.18-36.125 36.125 0 19.944 16.18 36.094 36.125 36.094 13.44 0 25.032-7.42 31.25-18.313V488.23c-6.218-10.892-17.81-18.312-31.25-18.312z" style="marker:none" fill="#ff0" fill-opacity=".784" overflow="visible"/><g transform="matrix(2.19696 0 0 2.19696 394.3 -1360.72)" fill="#b3b3b3"><path d="M49.89 849.7a2.652 2.652 0 1 1-5.303 0 2.652 2.652 0 0 1 5.304 0z" style="marker:none" fill-opacity=".784" stroke-width=".45499999999999996" overflow="visible"/><rect ry="1.304" y="847.048" x="53.95" height="5.303" width="9.997" style="marker:none" stroke-width=".455" overflow="visible"/><path style="marker:none" d="M49.89 849.7a2.652 2.652 0 1 1-5.303 0 2.652 2.652 0 0 1 5.304 0z" fill-opacity=".784" stroke-width=".45499999999999996" overflow="visible"/></g></g><use y="134.765" x="223.432" xlink:href="#a" width="372.047" height="262.205" transform="matrix(3.46248 0 0 3.46248 -289.434 116.323)" ns0:preamble="/home/waldgeist/data/sphinx/inkscape-preamble.tex" ns0:text="$A$"/><use height="262.205" width="372.047" xlink:href="#b" x="223.432" y="134.765" transform="matrix(3.46248 0 0 3.46248 -257.777 116.323)" ns0:text="$K$" ns0:preamble="/home/waldgeist/data/sphinx/inkscape-preamble.tex"/><g color="#000" fill="#b7b7b7" stroke="#000" stroke-linecap="round" stroke-linejoin="round"><path style="marker:none" d="M220.598 404.378h8.413l7.336 15.204h-7.336v56.256h-8.413z" stroke-width=".9996168" overflow="visible"/><path style="marker:none" d="M236.229 404.378h24.831v71.46h-8.358v-48.423z" stroke-width="1.07870736" overflow="visible"/></g><path style="marker:none" color="#000" fill="#b7b7b7" stroke="#000" stroke-linecap="round" stroke-linejoin="round" overflow="visible" d="M220.719 475.838h8.292v151.853h-8.292z"/><g transform="translate(-563.482 232.464) scale(3.46248)" ns0:preamble="/home/waldgeist/data/sphinx/inkscape-preamble.tex" ns0:text="$A$"><defs><symbol id="a" overflow="visible"><path d="M1.781-1.14C1.391-.485 1-.345.563-.314c-.125.016-.22.016-.22.204 0 .062.063.109.141.109.266 0 .579-.031.844-.031.344 0 .688.031 1 .031.063 0 .188 0 .188-.188 0-.109-.079-.124-.157-.124-.218-.016-.468-.094-.468-.344 0-.125.062-.235.14-.375l.766-1.266h2.5c.016.203.156 1.563.156 1.656 0 .297-.516.329-.719.329-.14 0-.234 0-.234.203C4.5 0 4.61 0 4.64 0c.407 0 .829-.031 1.235-.031.25 0 .89.031 1.14.031.048 0 .173 0 .173-.203 0-.11-.094-.11-.235-.11-.61 0-.61-.062-.64-.359l-.61-6.219c-.016-.203-.016-.25-.187-.25-.157 0-.204.079-.266.172zm1.203-1.47l1.954-3.296.328 3.297zm0 0"/></symbol></defs><use y="134.765" x="223.432" xlink:href="#a" width="372.047" height="262.205"/></g><g ns0:text="$K$" ns0:preamble="/home/waldgeist/data/sphinx/inkscape-preamble.tex" transform="translate(-531.088 232.464) scale(3.46248)"><defs><symbol overflow="visible" id="b"><path d="M5.078-4.031a.497.497 0 0 1-.047-.14s.172-.141.282-.22l1.75-1.343C8-6.438 8.39-6.47 8.688-6.5c.078-.016.171-.016.171-.203 0-.031-.03-.11-.109-.11-.219 0-.469.032-.703.032-.36 0-.75-.032-1.11-.032-.062 0-.187 0-.187.204 0 .062.047.093.125.109.219.016.297.063.297.203 0 .188-.297.422-.36.469L2.938-2.844l.797-3.203c.079-.36.11-.453.829-.453.25 0 .343 0 .343-.203 0-.078-.078-.11-.14-.11-.282 0-1 .032-1.282.032-.28 0-.984-.032-1.28-.032-.063 0-.204 0-.204.188 0 .125.094.125.297.125.125 0 .312.016.422.016.156.03.219.046.219.171 0 .032 0 .063-.032.188L1.562-.781c-.093.39-.109.469-.906.469-.172 0-.281 0-.281.187C.375 0 .5 0 .531 0c.281 0 .985-.031 1.266-.031.203 0 .422.015.64.015.22 0 .438.016.641.016.078 0 .203 0 .203-.203 0-.11-.094-.11-.281-.11-.375 0-.64 0-.64-.171 0-.079.046-.297.078-.438.14-.531.28-1.047.406-1.578l1.484-1.156L5.484-.97c.125.266.125.297.125.344 0 .313-.437.313-.53.313-.11 0-.22 0-.22.203C4.86 0 4.984 0 5 0c.406 0 .828-.031 1.219-.031.218 0 .765.031.984.031.047 0 .172 0 .172-.203 0-.11-.11-.11-.203-.11-.406 0-.531-.093-.688-.437zm0 0"/></symbol></defs><use height="262.205" width="372.047" xlink:href="#b" x="223.432" y="134.765"/></g><path style="marker:none" color="#000" fill="#b7b7b7" stroke="#000" stroke-linecap="round" stroke-linejoin="round" overflow="visible" d="M252.702 475.838h8.292v117.558h-8.292z"/><g ns0:text="+" ns0:preamble="/home/waldgeist/data/sphinx/inkscape-preamble.tex" transform="translate(-562.181 190.29) scale(3.46248)"><defs><symbol overflow="visible" id="c"><path d="M4.078-2.297H6.86c.141 0 .329 0 .329-.203 0-.188-.188-.188-.329-.188H4.08v-2.796c0-.141 0-.329-.204-.329-.203 0-.203.188-.203.329v2.796H.89c-.141 0-.329 0-.329.188 0 .203.188.203.329.203h2.78V.5c0 .14 0 .328.204.328.203 0 .203-.187.203-.328zm0 0"/></symbol></defs><use height="1052.362" width="744.094" xlink:href="#c" x="223.432" y="134.765"/></g><g transform="translate(-530.198 154.946) scale(3.46248)" ns0:preamble="/home/waldgeist/data/sphinx/inkscape-preamble.tex" ns0:text="$-$"><defs><symbol id="d" overflow="visible"><path d="M6.563-2.297c.171 0 .359 0 .359-.203 0-.188-.188-.188-.36-.188h-5.39c-.172 0-.344 0-.344.188 0 .203.172.203.344.203zm0 0"/></symbol></defs><use y="134.765" x="223.432" xlink:href="#d" width="744.094" height="1052.362"/></g><path style="marker:none" d="M199.859 475.708c-1.613 0-2.911 1.609-2.911 3.607 0 2 1.298 3.608 2.91 3.608h80.738c.212 0 .434-.025.633-.078v-7.098c-.2-.053-.42-.04-.633-.04h-80.737z" opacity=".9" color="#000" fill="#ff0" stroke="#b3b3b3" stroke-width="1.127" stroke-linecap="round" stroke-linejoin="bevel" overflow="visible"/><rect style="marker:none" width="9.699" height="1.324" x="243.864" y="402.304" rx="0" ry="0" color="#000" fill="#b7b7b7" stroke="#000" stroke-width=".5" stroke-linecap="round" stroke-linejoin="bevel" overflow="visible"/><path d="M224.804 404.378s-.138-4.827 1.594-6.82c3.392-3.903 8.33-5.406 12.993-5.215 3.094.127 6.415 1.311 8.308 4.155 1.467 2.202 1.014 5.806 1.014 5.806" fill="none" stroke="gray" stroke-width=".5"/><path d="M240.227 353.777c-19.789 0-35.858 13.849-36.112 31.032-.002.137 0 .274 0 .412v90.487h72.225V385.22c0-.138.002-.275 0-.412-.254-17.183-16.324-31.032-36.113-31.032z" style="marker:none" opacity=".5" color="#000" fill="#ff0" stroke="#000" stroke-linecap="round" stroke-linejoin="round" overflow="visible"/></g></svg>