<svg xmlns:ns0="http://www.iki.fi/pav/software/textext/" xmlns="http://www.w3.org/2000/svg" xmlns:xlink="http://www.w3.org/1999/xlink" width="1052.362" height="744.094"><title>Bauformen Transistor npn</title><g transform="translate(0 -308.268)"><rect style="marker:none" width="640" height="436" x="206.181" y="462.315" ry="2.233" color="#000" fill="#fff" stroke="#fff" stroke-width="1.5" overflow="visible"/><g ns0:text="TO-220" ns0:preamble="/home/waldgeist/data/sphinx/inkscape-preamble.tex" transform="matrix(3.90839 0 0 3.90839 -243.047 331.224)"><defs><symbol overflow="visible" id="a"><path d="M6.64-6.75H.548L.359-4.5h.25C.75-6.11.891-6.438 2.406-6.438c.172 0 .438 0 .531.016.22.047.22.156.22.375V-.78c0 .328 0 .469-1.048.469h-.406V0c.406-.031 1.422-.031 1.89-.031.454 0 1.485 0 1.891.031v-.313h-.406c-1.047 0-1.047-.14-1.047-.468v-5.266c0-.187 0-.328.188-.375.11-.016.375-.016.562-.016 1.516 0 1.657.329 1.797 1.938h.25zm0 0"/></symbol><symbol overflow="visible" id="b"><path d="M7.188-3.375c0-2.031-1.5-3.656-3.313-3.656-1.797 0-3.313 1.593-3.313 3.656C.563-1.328 2.095.219 3.876.219c1.813 0 3.313-1.578 3.313-3.594zM3.874-.047c-.953 0-2.297-.875-2.297-3.469 0-2.578 1.469-3.265 2.297-3.265.86 0 2.281.703 2.281 3.265 0 2.641-1.36 3.47-2.281 3.47zm0 0"/></symbol><symbol overflow="visible" id="c"><path d="M2.75-1.86v-.577H.11v.578zm0 0"/></symbol><symbol overflow="visible" id="d"><path d="M1.266-.766l1.062-1.03c1.547-1.376 2.14-1.907 2.14-2.907 0-1.14-.89-1.938-2.109-1.938C1.234-6.64.5-5.719.5-4.828c0 .547.5.547.531.547.172 0 .516-.11.516-.532a.513.513 0 0 0-.531-.515c-.079 0-.094 0-.125.016.218-.657.765-1.016 1.343-1.016.907 0 1.329.812 1.329 1.625 0 .797-.485 1.578-1.047 2.203L.609-.375C.5-.265.5-.235.5 0h3.703l.266-1.734h-.235C4.172-1.438 4.11-1 4-.844c-.063.078-.719.078-.938.078zm0 0"/></symbol><symbol overflow="visible" id="e"><path d="M4.578-3.188c0-.796-.047-1.593-.39-2.328C3.733-6.484 2.905-6.64 2.5-6.64c-.61 0-1.328.266-1.75 1.188-.313.687-.36 1.469-.36 2.266 0 .75.032 1.64.454 2.406a1.83 1.83 0 0 0 1.64 1c.532 0 1.297-.203 1.735-1.157.312-.687.36-1.468.36-2.25zM2.484 0c-.39 0-.984-.25-1.156-1.203-.11-.594-.11-1.516-.11-2.11 0-.64 0-1.296.079-1.828.187-1.187.937-1.28 1.187-1.28.329 0 .985.187 1.172 1.171.11.563.11 1.313.11 1.938 0 .75 0 1.421-.11 2.062C3.5-.297 2.937 0 2.484 0zm0 0"/></symbol></defs><use height="262.205" width="372.047" xlink:href="#a" x="223.432" y="134.765"/><use height="262.205" width="372.047" xlink:href="#b" x="230.627" y="134.765"/><use height="262.205" width="372.047" xlink:href="#c" x="238.376" y="134.765"/><use height="262.205" width="372.047" xlink:href="#d" x="241.696" y="134.765"/><use height="262.205" width="372.047" xlink:href="#d" x="246.678" y="134.765"/><use height="262.205" width="372.047" xlink:href="#e" x="251.659" y="134.765"/></g><g stroke="#000" stroke-width=".684" stroke-linecap="round" stroke-linejoin="round"><path d="M663.427 665.325l-.37 31.88 2.335 3.106v64.867l4.214 4.213 5.269-1.412v-67.675l2.232-3.117v-42.056" fill="#e6e6e6" stroke-width="1.00002852"/><path d="M669.606 769.39h.226v-67.796l2.283-3.247v-37.184" fill="none" stroke-width="1.00002852"/><path d="M703.599 688.26l-.37 31.88 2.335 3.106v64.867l4.214 4.213 5.268-1.412V723.24l2.233-3.117v-42.056" fill="#e6e6e6" stroke-width="1.00002852"/><path d="M709.778 792.326h.226v-67.797l2.283-3.247v-37.184" fill="none" stroke-width="1.00002852"/><g><path d="M683.513 676.792l-.37 31.881 2.335 3.106v64.866l4.214 4.213 5.269-1.411V711.77l2.232-3.116v-42.056" fill="#e6e6e6" stroke-width="1.00002852"/><path d="M689.692 780.858h.226v-67.796l2.283-3.248V672.63" fill="none" stroke-width="1.00002852"/></g></g><path d="M708.02 690.813v-66.028l34.673-25.44v66.028z" stroke="#000" stroke-width="1.00002852" stroke-linecap="round" stroke-linejoin="round"/><path d="M644.431 587.702l24.358-17.81 63.824 36.85-24.592 18.043zM644.197 653.964v-66.028l63.824 36.849v66.028l-63.824-36.849z" stroke="#000" stroke-width="1.00002852" stroke-linecap="round" stroke-linejoin="round"/><path d="M644.197 653.964l63.824 36.849M708.02 690.813v-66.028M644.197 653.964v-66.028M742.693 665.373v-66.028M708.02 624.785l34.673-25.44M708.02 690.813l34.673-25.44" fill="none" stroke="#b3b3b3" stroke-width="1.00002852" stroke-linecap="round"/><path d="M732.613 606.741l-63.824-36.848.099-14.893-3.28-1.871v-14.591l3.28-2.766v-10.257l-3.28-1.904v-13.576l70.086 40.465v12.756l-3.081 1.788v9.638l3.081 2.598v13.71l-3.081 1.758z" fill="#fff" stroke="#000" stroke-width="1.00002852"/><path d="M644.431 587.702l24.457-17.944M644.197 587.936l63.824 36.849" fill="none" stroke="#b3b3b3" stroke-width="1.00002852" stroke-linecap="round"/><path style="marker:none" d="M695.637 542.06c-1.105 3.013-1.177 6.834.091 11.01 2.892 9.526 11.54 17.237 19.463 17.5 1.107-3.014 1.132-6.833-.137-11.011-2.888-9.512-11.504-17.217-19.417-17.499z" color="#000" fill="none" stroke="#000" stroke-width="1.00002852" stroke-linecap="round" stroke-linejoin="round" overflow="visible"/><path d="M668.789 569.893l63.824 36.848" fill="none" stroke="#333" stroke-width="1.00002852" stroke-linecap="round"/><path d="M732.613 606.741v-13.993l3.081-1.758v-13.71l-3.081-2.598v-9.638l3.081-1.788V550.5" fill="none" stroke="#000" stroke-width="1.00002852" stroke-linecap="round" stroke-linejoin="round"/><path d="M735.694 550.5l10.08-7.397" fill="none" stroke="#000" stroke-width="1.00002852" stroke-linecap="round"/><path d="M742.693 599.345v-13.993l3.082-1.758v-13.71l-3.082-2.599v-9.637l3.082-1.789v-12.756" fill="none" stroke="#000" stroke-width="1.00002852" stroke-linecap="round" stroke-linejoin="round"/><path d="M735.694 563.256l10.08-7.397M732.613 574.682l10.08-7.397M735.694 577.28l10.08-7.396M735.694 590.99l10.08-7.396" fill="none" stroke="#000" stroke-width="1.00002852" stroke-linecap="round"/><path d="M665.608 510.035l70.086 40.465" fill="none" stroke="#000" stroke-width="1.09798453" stroke-linecap="round"/><path d="M668.888 569.893V555l-3.28-1.871v-14.591l3.28-2.766v-10.257l-3.28-1.904v-13.576" fill="none" stroke="#000" stroke-width="1.06435784" stroke-linecap="round" stroke-linejoin="round"/><path d="M665.608 510.035l10.08-7.396" fill="none" stroke="#000" stroke-width="1.00002852" stroke-linecap="round"/><path d="M675.689 502.64l70.086 40.463" fill="none" stroke="#000" stroke-width="1.09798453" stroke-linecap="round"/><path style="marker:none" d="M231.653 77.924c0 6.628-4.454 12.002-9.948 12.002-5.494 0-9.948-5.374-9.948-12.002 0-6.628 4.454-12 9.948-12 5.494 0 9.948 5.372 9.948 12z" transform="matrix(1.46203 0 .44394 1.46203 341.797 445.612)" color="#000" fill="none" stroke="#000" stroke-width=".684" stroke-linecap="round" stroke-linejoin="round" overflow="visible"/><path d="M735.694 590.99v-13.71l10.08-7.396v13.71zM735.694 563.256V550.5l10.08-7.397v12.756z" fill="#fff" stroke="#000" stroke-width="1.00002852" stroke-linecap="round" stroke-linejoin="round"/><g ns0:preamble="/home/waldgeist/data/sphinx/inkscape-preamble.tex" ns0:text="$B$"><path d="M671.836 798.309c-.216.9-.288 1.08-2.088 1.08-.397 0-.613 0-.613.468 0 .252.216.252.613.252h8.208c3.637 0 6.337-2.7 6.337-4.969 0-1.656-1.332-2.988-3.565-3.24 2.377-.432 4.789-2.124 4.789-4.32 0-1.692-1.512-3.169-4.248-3.169h-7.741c-.432 0-.648 0-.648.468 0 .252.216.252.648.252.036 0 .468 0 .864.036.396.072.612.072.612.397 0 .072-.036.144-.072.432zm3.456-6.625l1.44-5.688c.216-.793.252-.865 1.224-.865h2.989c2.016 0 2.484 1.369 2.484 2.377 0 2.016-1.98 4.176-4.753 4.176zm-1.008 7.705h-.504c-.252-.036-.324-.072-.324-.252 0-.072 0-.108.144-.504l1.584-6.409h4.32c2.197 0 2.665 1.692 2.665 2.664 0 2.269-2.053 4.5-4.789 4.5zm0 0"/></g><g ns0:text="$C$" ns0:preamble="/home/waldgeist/data/sphinx/inkscape-preamble.tex"><path d="M667.35 773.092c0-.072-.036-.252-.252-.252-.072 0-.108.036-.36.288l-1.584 1.765c-.216-.324-1.26-2.053-3.817-2.053-5.148 0-10.297 5.077-10.297 10.405 0 3.78 2.7 6.3 6.229 6.3 1.98 0 3.744-.9 4.968-1.98 2.125-1.871 2.52-3.96 2.52-4.032 0-.252-.251-.252-.287-.252-.144 0-.252.072-.288.252-.216.648-.757 2.305-2.34 3.637-1.585 1.26-3.025 1.656-4.213 1.656-2.052 0-4.5-1.188-4.5-4.753 0-1.332.468-5.04 2.772-7.74 1.404-1.62 3.564-2.773 5.616-2.773 2.34 0 3.709 1.765 3.709 4.429 0 .936-.072.936-.072 1.188 0 .216.252.216.324.216.288 0 .288-.036.432-.468zm0 0"/></g><g ns0:preamble="/home/waldgeist/data/sphinx/inkscape-preamble.tex" ns0:text="$E$"><path d="M702.712 805.235c.036-.108.108-.252.108-.324 0 0 0-.252-.288-.252-.216 0-.252.144-.288.288-1.512 3.385-2.34 4.933-6.265 4.933h-3.852c-.252-.036-.324-.072-.324-.252 0-.072 0-.108.108-.504l1.584-6.3h2.268c1.944 0 1.944.503 1.944 1.08 0 .143 0 .431-.144 1.115-.036.108-.072.18-.072.252 0 .108.072.252.288.252.18 0 .252-.108.36-.468l1.297-5.364c0-.144-.108-.252-.288-.252s-.252.144-.288.396c-.504 1.764-.9 2.304-3.025 2.304h-2.16l1.368-5.544c.216-.829.252-.9 1.26-.9h3.24c2.773 0 3.493.647 3.493 2.556 0 .54 0 .576-.108 1.224 0 .108-.036.288-.036.396 0 .108.072.288.288.288.252 0 .288-.144.324-.576l.468-3.997c.072-.612-.036-.612-.612-.612h-11.63c-.431 0-.683 0-.683.468 0 .252.216.252.648.252.864 0 1.512 0 1.512.396 0 .108 0 .144-.144.577l-3.024 12.133c-.216.9-.252 1.08-2.088 1.08-.396 0-.648 0-.648.432 0 .288.216.288.648.288h11.917c.54 0 .576-.036.72-.396zm0 0"/></g><g transform="matrix(3.90839 0 0 3.90839 -414.413 331.224)" ns0:preamble="/home/waldgeist/data/sphinx/inkscape-preamble.tex" ns0:text="TO-92"><defs><symbol id="f" overflow="visible"><path d="M6.64-6.75H.548L.359-4.5h.25C.75-6.11.891-6.438 2.406-6.438c.172 0 .438 0 .531.016.22.047.22.156.22.375V-.78c0 .328 0 .469-1.048.469h-.406V0c.406-.031 1.422-.031 1.89-.031.454 0 1.485 0 1.891.031v-.313h-.406c-1.047 0-1.047-.14-1.047-.468v-5.266c0-.187 0-.328.188-.375.11-.016.375-.016.562-.016 1.516 0 1.657.329 1.797 1.938h.25zm0 0"/></symbol><symbol id="g" overflow="visible"><path d="M7.188-3.375c0-2.031-1.5-3.656-3.313-3.656-1.797 0-3.313 1.593-3.313 3.656C.563-1.328 2.095.219 3.876.219c1.813 0 3.313-1.578 3.313-3.594zM3.874-.047c-.953 0-2.297-.875-2.297-3.469 0-2.578 1.469-3.265 2.297-3.265.86 0 2.281.703 2.281 3.265 0 2.641-1.36 3.47-2.281 3.47zm0 0"/></symbol><symbol id="h" overflow="visible"><path d="M2.75-1.86v-.577H.11v.578zm0 0"/></symbol><symbol id="i" overflow="visible"><path d="M3.656-3.172v.328c0 2.328-1.031 2.781-1.61 2.781-.171 0-.718-.015-.983-.359.437 0 .515-.281.515-.453 0-.313-.234-.453-.453-.453-.156 0-.453.078-.453.469 0 .671.531 1.078 1.375 1.078 1.297 0 2.515-1.36 2.515-3.5 0-2.688-1.156-3.36-2.046-3.36-.547 0-1.032.188-1.454.625-.421.454-.64.875-.64 1.625 0 1.235.875 2.22 1.984 2.22.61 0 1.016-.423 1.25-1zm-1.234.766c-.156 0-.625 0-.922-.625-.188-.375-.188-.86-.188-1.36 0-.53 0-1 .22-1.375.265-.5.64-.625.984-.625.468 0 .796.344.968.782.11.328.157.953.157 1.406 0 .828-.344 1.797-1.22 1.797zm0 0"/></symbol><symbol id="j" overflow="visible"><path d="M1.266-.766l1.062-1.03c1.547-1.376 2.14-1.907 2.14-2.907 0-1.14-.89-1.938-2.109-1.938C1.234-6.64.5-5.719.5-4.828c0 .547.5.547.531.547.172 0 .516-.11.516-.532a.513.513 0 0 0-.531-.515c-.079 0-.094 0-.125.016.218-.657.765-1.016 1.343-1.016.907 0 1.329.812 1.329 1.625 0 .797-.485 1.578-1.047 2.203L.609-.375C.5-.265.5-.235.5 0h3.703l.266-1.734h-.235C4.172-1.438 4.11-1 4-.844c-.063.078-.719.078-.938.078zm0 0"/></symbol></defs><use y="134.765" x="223.432" xlink:href="#f" width="372.047" height="262.205"/><use y="134.765" x="230.627" xlink:href="#g" width="372.047" height="262.205"/><use y="134.765" x="238.376" xlink:href="#h" width="372.047" height="262.205"/><use y="134.765" x="241.696" xlink:href="#i" width="372.047" height="262.205"/><use y="134.765" x="246.678" xlink:href="#j" width="372.047" height="262.205"/></g><g><path d="M523.671 645.606a3.385 3.546 0 0 0-3.332 3.59v138.102a3.385 3.546 0 1 0 6.77 0V649.196a3.385 3.546 0 0 0-3.438-3.59zM507.035 636.002a3.385 3.546 0 0 0-3.332 3.59v138.102a3.385 3.546 0 1 0 6.77 0V639.592a3.385 3.546 0 0 0-3.438-3.59zM490.4 626.397a3.385 3.546 0 0 0-3.332 3.59V768.09a3.385 3.546 0 1 0 6.77 0V629.987a3.385 3.546 0 0 0-3.438-3.59z" style="text-indent:0;text-align:start;line-height:normal;text-transform:none;block-progression:tb;marker:none;-inkscape-font-specification:Sans" font-weight="400" color="#000" fill="#e6e6e6" stroke="#000" stroke-width=".79388229" overflow="visible" font-family="Sans"/><path d="M474.019 659.755V596.44l41.2 23.967v63.165z" stroke="#000" stroke-width="1.00002852" stroke-linecap="round" stroke-linejoin="round"/><path d="M474.019 659.755l41.2 23.818" fill="none" stroke="gray" stroke-width="1.00002852" stroke-linecap="round"/><path d="M515.505 620.385c7.667-.592 32.307-6.01 32.307-19.76v63.167c-1.769 13.924-20.711 18.605-32.594 19.78z" stroke="#000" stroke-width="1.00002852" stroke-linecap="round" stroke-linejoin="round"/><path d="M515.218 683.573v-63.165M474.019 659.755v-63.698M547.812 663.792v-63.167" fill="none" stroke="gray" stroke-width="1.00002852" stroke-linecap="round"/><path style="marker:none" d="M157.981 96.145c2.673-6.056 14.046-9.81 25.403-8.385 11.358 1.425 18.398 7.49 15.726 13.544-2.002 4.535-9.034 7.945-17.69 8.58" transform="matrix(1.77005 0 0 1.77082 194.384 425.802)" color="#000" stroke="gray" stroke-width=".565" stroke-linecap="round" stroke-linejoin="round" overflow="visible"/><path d="M474.019 596.44l41.2 23.787" fill="none" stroke="gray" stroke-width="1.00002852" stroke-linecap="round"/><path transform="matrix(1.77005 0 0 1.77082 194.384 488.969)" d="M199.671 98.724c0 5.662-7.882 10.444-18.414 11.17" style="marker:none" color="#000" fill="none" stroke="gray" stroke-width=".565" stroke-linecap="round" stroke-linejoin="round" overflow="visible"/></g><g ns0:text="$B$" ns0:preamble="/home/waldgeist/data/sphinx/inkscape-preamble.tex"><path d="M489.978 798.309c-.216.9-.288 1.08-2.088 1.08-.396 0-.612 0-.612.468 0 .252.216.252.612.252h8.208c3.637 0 6.337-2.7 6.337-4.969 0-1.656-1.332-2.988-3.564-3.24 2.376-.432 4.788-2.124 4.788-4.32 0-1.692-1.512-3.169-4.248-3.169h-7.74c-.433 0-.649 0-.649.468 0 .252.216.252.648.252.036 0 .468 0 .864.036.396.072.612.072.612.397 0 .072-.036.144-.072.432zm3.456-6.625l1.44-5.688c.216-.793.252-.865 1.224-.865h2.989c2.016 0 2.484 1.369 2.484 2.377 0 2.016-1.98 4.176-4.752 4.176zm-1.008 7.705h-.504c-.252-.036-.324-.072-.324-.252 0-.072 0-.108.144-.504l1.584-6.409h4.32c2.197 0 2.665 1.692 2.665 2.664 0 2.269-2.052 4.5-4.789 4.5zm0 0"/></g><g ns0:preamble="/home/waldgeist/data/sphinx/inkscape-preamble.tex" ns0:text="$C$"><path d="M485.492 773.092c0-.072-.036-.252-.252-.252-.072 0-.108.036-.36.288l-1.584 1.765c-.216-.324-1.26-2.053-3.816-2.053-5.149 0-10.297 5.077-10.297 10.405 0 3.78 2.7 6.3 6.228 6.3 1.98 0 3.745-.9 4.969-1.98 2.124-1.871 2.52-3.96 2.52-4.032 0-.252-.252-.252-.288-.252-.144 0-.252.072-.288.252-.216.648-.756 2.305-2.34 3.637-1.585 1.26-3.025 1.656-4.213 1.656-2.052 0-4.5-1.188-4.5-4.753 0-1.332.468-5.04 2.772-7.74 1.404-1.62 3.564-2.773 5.617-2.773 2.34 0 3.708 1.765 3.708 4.429 0 .936-.072.936-.072 1.188 0 .216.252.216.324.216.288 0 .288-.036.432-.468zm0 0"/></g><g ns0:text="$E$" ns0:preamble="/home/waldgeist/data/sphinx/inkscape-preamble.tex"><path d="M520.854 805.235c.036-.108.108-.252.108-.324 0 0 0-.252-.288-.252-.216 0-.252.144-.288.288-1.512 3.385-2.34 4.933-6.264 4.933h-3.853c-.252-.036-.324-.072-.324-.252 0-.072 0-.108.108-.504l1.584-6.3h2.269c1.944 0 1.944.503 1.944 1.08 0 .143 0 .431-.144 1.115-.036.108-.072.18-.072.252 0 .108.072.252.288.252.18 0 .252-.108.36-.468l1.296-5.364c0-.144-.108-.252-.288-.252s-.252.144-.288.396c-.504 1.764-.9 2.304-3.024 2.304h-2.16l1.367-5.544c.216-.829.252-.9 1.26-.9h3.24c2.773 0 3.493.647 3.493 2.556 0 .54 0 .576-.108 1.224 0 .108-.036.288-.036.396 0 .108.072.288.288.288.252 0 .288-.144.324-.576l.468-3.997c.072-.612-.036-.612-.612-.612h-11.629c-.432 0-.684 0-.684.468 0 .252.216.252.648.252.864 0 1.512 0 1.512.396 0 .108 0 .144-.144.577l-3.024 12.133c-.216.9-.252 1.08-2.088 1.08-.396 0-.648 0-.648.432 0 .288.216.288.648.288h11.917c.54 0 .576-.036.72-.396zm0 0"/></g><path style="marker:none" d="M62.398 100.126a14.75 29.5 0 1 1-.077 54.09" transform="matrix(2.616 0 0 1.3691 152.983 508.995)" color="#000" stroke="gray" stroke-width=".528" stroke-linecap="round" stroke-linejoin="round" overflow="visible"/><path d="M316.015 720.133v-74.037" fill="gray" stroke="gray" stroke-linecap="round"/><g color="#000" fill="#e6e6e6" stroke="gray" stroke-width=".387" stroke-linecap="round" stroke-linejoin="round"><path d="M335.826 658.287a4.458 4.458 0 1 1-8.917 0 4.458 4.458 0 0 1 8.917 0zM335.826 683.114a4.458 4.458 0 1 1-8.917 0 4.458 4.458 0 0 1 8.917 0zM335.826 707.942a4.458 4.458 0 1 1-8.917 0 4.458 4.458 0 0 1 8.917 0z" style="marker:none" overflow="visible" stroke-width="1.00103742"/></g><g ns0:preamble="/home/waldgeist/data/sphinx/inkscape-preamble.tex" ns0:text="$B$"><path d="M296.943 689.703c-.216.9-.288 1.08-2.088 1.08-.396 0-.612 0-.612.468 0 .252.216.252.612.252h8.209c3.636 0 6.336-2.7 6.336-4.968 0-1.656-1.332-2.989-3.564-3.24 2.376-.433 4.788-2.125 4.788-4.321 0-1.692-1.512-3.168-4.248-3.168h-7.74c-.433 0-.649 0-.649.468 0 .252.216.252.648.252.036 0 .468 0 .864.036.396.072.612.072.612.396 0 .072-.036.144-.072.432zm3.456-6.625l1.44-5.688c.217-.792.253-.864 1.225-.864h2.988c2.016 0 2.484 1.368 2.484 2.376 0 2.016-1.98 4.176-4.752 4.176zm-1.008 7.705h-.504c-.252-.036-.324-.072-.324-.252 0-.072 0-.108.144-.504l1.584-6.409h4.32c2.197 0 2.665 1.693 2.665 2.665 0 2.268-2.052 4.5-4.788 4.5zm0 0"/></g><g ns0:text="$C$" ns0:preamble="/home/waldgeist/data/sphinx/inkscape-preamble.tex"><path d="M310.624 649.173c0-.072-.036-.252-.252-.252-.072 0-.108.036-.36.288l-1.584 1.765c-.216-.324-1.26-2.053-3.816-2.053-5.149 0-10.297 5.077-10.297 10.405 0 3.78 2.7 6.3 6.228 6.3 1.98 0 3.745-.9 4.969-1.98 2.124-1.871 2.52-3.96 2.52-4.032 0-.252-.252-.252-.288-.252-.144 0-.252.072-.288.252-.216.648-.756 2.305-2.34 3.637-1.584 1.26-3.024 1.656-4.213 1.656-2.052 0-4.5-1.188-4.5-4.753 0-1.332.468-5.04 2.772-7.74 1.404-1.62 3.565-2.772 5.617-2.772 2.34 0 3.708 1.764 3.708 4.428 0 .936-.072.936-.072 1.188 0 .216.252.216.324.216.288 0 .288-.036.432-.468zm0 0"/></g><g ns0:preamble="/home/waldgeist/data/sphinx/inkscape-preamble.tex" ns0:text="$E$"><path d="M309.344 711.943c.036-.108.108-.252.108-.324 0 0 0-.252-.288-.252-.216 0-.252.144-.288.288-1.512 3.384-2.34 4.932-6.264 4.932H298.759c-.252-.036-.324-.072-.324-.252 0-.072 0-.108.108-.504l1.585-6.3h2.268c1.944 0 1.944.504 1.944 1.08 0 .144 0 .432-.144 1.116-.036.108-.072.18-.072.252 0 .108.072.252.288.252.18 0 .252-.108.36-.468l1.296-5.365c0-.144-.108-.252-.288-.252s-.252.144-.288.396c-.504 1.765-.9 2.305-3.024 2.305h-2.16l1.368-5.545c.216-.828.252-.9 1.26-.9h3.24c2.772 0 3.492.648 3.492 2.556 0 .54 0 .576-.108 1.224 0 .108-.036.288-.036.396 0 .108.072.288.288.288.252 0 .288-.144.325-.576l.468-3.996c.072-.612-.036-.612-.613-.612h-11.629c-.432 0-.684 0-.684.468 0 .252.216.252.648.252.865 0 1.513 0 1.513.396 0 .108 0 .144-.144.576l-3.025 12.133c-.216.9-.252 1.08-2.088 1.08-.396 0-.648 0-.648.432 0 .288.216.288.648.288H306.5c.54 0 .576-.036.72-.396zm0 0"/></g></g></svg>