<svg xmlns="http://www.w3.org/2000/svg" width="210mm" height="297mm"><title>Widerstand (Bauform)</title><g stroke-linecap="round"><path style="marker:none" color="#000" fill="#fff" stroke="#fff" stroke-width="6" stroke-linejoin="bevel" overflow="visible" d="M154.904 396.895H589.19v258.571H154.904z"/><path d="M230.619 470.614h67.714m147.429 0h67.714" fill="none" stroke="gray" stroke-width="6"/><path style="marker:none" d="M301.282 444.33c-13.21 0-23.844 10.52-23.844 23.594v9.657c0 13.075 10.635 23.593 23.844 23.593 5.438 0 10.434-1.8 14.437-4.812h112.656a23.924 23.924 0 0 0 14.438 4.812c13.209 0 23.844-10.518 23.844-23.593v-9.657c0-13.074-10.635-23.593-23.844-23.593-5.439 0-10.435 1.8-14.438 4.812H315.72a23.924 23.924 0 0 0-14.437-4.812z" color="#000" fill="#f4e3d7" stroke="#a8a29e" stroke-linejoin="bevel" overflow="visible"/><rect style="marker:none" width="6.503" height="47.408" x="318.433" y="449.017" rx="0" ry="0" color="#000" fill="#a05a2c" stroke="#a8a29e" stroke-width=".777" stroke-linejoin="bevel" overflow="visible"/><rect ry="0" rx="0" y="449.017" x="344.571" height="47.408" width="6.503" style="marker:none" color="#000" stroke="#a8a29e" stroke-width=".777" stroke-linejoin="bevel" overflow="visible"/><rect style="marker:none" width="6.503" height="47.408" x="370.708" y="449.017" rx="0" ry="0" color="#000" fill="#ff0" stroke="#a8a29e" stroke-width=".777" stroke-linejoin="bevel" overflow="visible"/><rect ry="0" rx="0" y="449.017" x="411.494" height="47.408" width="6.503" style="marker:none" color="#000" fill="#c8ab37" stroke="#a8a29e" stroke-width=".777" stroke-linejoin="bevel" overflow="visible"/><path d="M230.619 577.471h67.714m147.429 0h67.714" fill="none" stroke="gray" stroke-width="6"/><path d="M301.282 551.188c-13.21 0-23.844 10.519-23.844 23.594v9.656c0 13.075 10.635 23.594 23.844 23.594 5.438 0 10.434-1.8 14.437-4.813h112.656a23.924 23.924 0 0 0 14.438 4.813c13.209 0 23.844-10.52 23.844-23.594v-9.656c0-13.075-10.635-23.594-23.844-23.594-5.439 0-10.435 1.8-14.438 4.812H315.72a23.924 23.924 0 0 0-14.437-4.812z" style="marker:none" color="#000" fill="#afc6e9" stroke="#5f8dd3" stroke-linejoin="bevel" overflow="visible"/><rect ry="0" rx="0" y="555.874" x="318.433" height="47.408" width="6.503" style="marker:none" color="#000" fill="#a05a2c" stroke="#5f8dd3" stroke-width=".777" stroke-linejoin="bevel" overflow="visible"/><rect style="marker:none" width="6.503" height="47.408" x="339.899" y="555.874" rx="0" ry="0" color="#000" stroke="#5f8dd3" stroke-width=".777" stroke-linejoin="bevel" overflow="visible"/><rect ry="0" rx="0" y="555.874" x="361.365" height="47.408" width="6.503" style="marker:none" color="#000" stroke="#5f8dd3" stroke-width=".777" stroke-linejoin="bevel" overflow="visible"/><rect style="marker:none" width="6.503" height="47.408" x="411.494" y="555.874" rx="0" ry="0" color="#000" fill="#c8ab37" stroke="#5f8dd3" stroke-width=".777" stroke-linejoin="bevel" overflow="visible"/><rect style="marker:none" width="6.503" height="47.408" x="382.83" y="555.874" rx="0" ry="0" color="#000" fill="#f60" stroke="#5f8dd3" stroke-width=".777" stroke-linejoin="bevel" overflow="visible"/></g></svg>