<svg xmlns="http://www.w3.org/2000/svg" width="210mm" height="297mm"><title>Elektromotor</title><defs><marker orient="auto" id="a" overflow="visible"><path d="M2.308 0l-3.46 2v-4l3.46 2z" fill-rule="evenodd" stroke="#000" stroke-width=".4pt"/></marker></defs><path fill="#fff" stroke="#fff" stroke-width="3" stroke-linecap="round" d="M17.08 268.794h709.935v514.774H17.08z"/><path d="M180.414 505.41v2.47c0-.827.034-1.645.045-2.47zm0 2.47v212.334h384.68V518.248c-5.503 99.07-89.446 177.744-192.205 177.744-106.317 0-192.475-84.225-192.475-188.113z" fill="#b3b3b3" stroke="#000" stroke-width="3" stroke-linecap="round"/><path fill="gray" stroke="#000" stroke-width="3" stroke-linecap="round" d="M422.694 384.961l73.064 73.064-175.091 175.09-73.064-73.063z"/><path d="M427.376 375.57c17.232 9.022 32.294 20.043 45.24 33.02 12.944 12.977 23.771 27.91 32.533 44.752l-13.091 13.091-77.773-77.772zM239.86 563.086c9.022 17.232 20.044 32.294 33.02 45.24 12.977 12.944 27.91 23.771 44.752 32.532l13.091-13.09-77.772-77.773z" fill="gray" stroke="#000" stroke-width="2.653"/><path d="M379.301 501.418l69.569-69.32M296.14 584.33l69.568-69.32" fill="none" stroke="#1a1a1a"/><path d="M258.675 543.335c1.708-7.037 87.592 76.176 79.777 76.307M255.948 546.315c1.709-7.037 87.465 76.05 79.65 76.18M292.554 509.455c1.709-7.037 87.592 76.177 79.777 76.308M295.408 506.602c1.708-7.037 87.592 76.176 79.777 76.307M298.262 503.748c1.708-7.037 87.592 76.177 79.777 76.307M301.115 500.894c1.709-7.037 87.592 76.177 79.778 76.308M303.969 498.04c1.709-7.036 87.592 76.177 79.777 76.308M261.346 540.663c1.709-7.037 87.592 76.177 79.777 76.308M264.017 537.992c1.709-7.037 87.593 76.177 79.778 76.307M266.871 535.138c1.709-7.037 87.592 76.177 79.777 76.308M269.725 532.285c1.708-7.037 87.592 76.176 79.777 76.307M272.579 529.431c1.708-7.037 87.592 76.177 79.777 76.307M275.432 526.577c1.709-7.037 87.592 76.177 79.777 76.308M278.286 523.724c1.708-7.037 87.592 76.176 79.777 76.307M281.14 520.87c1.708-7.037 87.592 76.177 79.777 76.307M283.993 518.016c1.709-7.037 87.592 76.177 79.777 76.308M286.847 515.163c1.708-7.037 87.592 76.176 79.777 76.307M289.7 512.309c1.71-7.037 87.593 76.177 79.778 76.307M306.823 495.187c1.708-7.037 87.592 76.177 79.777 76.307M309.676 492.333c1.709-7.037 87.592 76.177 79.778 76.308M312.53 489.48c1.709-7.038 87.592 76.176 79.777 76.307M348.273 453.737c1.708-7.037 87.592 76.177 79.777 76.307M345.546 456.717c1.708-7.037 87.465 76.05 79.65 76.18M382.152 419.857c1.709-7.037 87.592 76.177 79.777 76.308M385.006 417.004c1.708-7.037 87.592 76.176 79.777 76.307M387.86 414.15c1.708-7.037 87.592 76.177 79.777 76.307M390.713 411.296c1.709-7.037 87.592 76.177 79.777 76.308M393.567 408.443c1.708-7.037 87.592 76.176 79.777 76.307M350.944 451.065c1.709-7.037 87.592 76.177 79.777 76.308M353.615 448.394c1.709-7.037 87.592 76.177 79.777 76.308M356.469 445.54c1.708-7.036 87.592 76.177 79.777 76.308M359.323 442.687c1.708-7.037 87.592 76.177 79.777 76.307M362.176 439.833c1.709-7.037 87.592 76.177 79.778 76.308M365.03 436.98c1.709-7.038 87.592 76.176 79.777 76.307M367.884 434.126c1.708-7.037 87.592 76.177 79.777 76.307M370.737 431.272c1.709-7.037 87.592 76.177 79.778 76.308M373.591 428.418c1.709-7.037 87.592 76.177 79.777 76.308M376.445 425.565c1.708-7.037 87.592 76.177 79.777 76.307M379.298 422.711c1.709-7.037 87.593 76.177 79.778 76.308M396.42 405.589c1.71-7.037 87.593 76.177 79.778 76.307M399.274 402.735c1.709-7.037 87.592 76.177 79.777 76.308M402.128 399.882c1.708-7.037 87.592 76.176 79.777 76.307M405.394 396.616c.854-3.519 22.752 15.526 43.46 35.466" fill="none" stroke="#000" stroke-width="1.196" stroke-linecap="round"/><path d="M392.307 565.787l-46.761-109.07" opacity=".25" fill="none" stroke="#000" stroke-dasharray="2.00000003,2.00000003"/><path d="M362.488 518.23a14.166 14.166 0 1 1 20.033-20.033 14.166 14.166 0 1 1-20.033 20.034z" fill="#4d4d4d" stroke="#1a1a1a" stroke-width="6.000527600000001"/><path fill="#e6e6e6" stroke="#000" stroke-width=".097" stroke-linecap="round" d="M362.745 494.157l23.818 23.817-4.298 4.298-23.818-23.818z"/><path d="M362.488 518.23a14.166 14.166 0 1 1 20.033-20.033 14.166 14.166 0 1 1-20.033 20.034z" fill="#ccc"/><g fill="#f55" stroke="navy" stroke-width=".543"><g stroke="none"><path d="M425.986 443.887c.123-.86.184-.92-.552-1.657l-6.69-6.69-1.228 1.227 1.166 1.166c.552.553 1.289 1.412 1.841 1.964.798 1.044.798 1.167.062 1.903l-20.44 20.44c-1.044 1.044-2.885 2.885-6.937-1.166l-1.227 1.228c1.412 1.289 3.437 3.192 4.726 4.48 1.29 1.29 3.13 3.254 4.42 4.666l1.227-1.228c-3.99-3.99-2.148-5.831-1.105-6.875l20.38-20.379c0 .369-.062.43-.124.86l-7.55 39.468c-.061.798-.061.921.185 1.166.552.553.798.307 1.595-.49l21.607-21.607c1.043-1.043 2.885-2.885 6.936 1.166l1.228-1.227c-1.474-1.35-3.438-3.192-4.727-4.481-1.289-1.29-3.13-3.253-4.42-4.665l-1.227 1.227c3.99 3.99 2.148 5.832 1.105 6.875l-16.757 16.757zm0 0" fill="#59f"/><path d="M332.368 554.324l-3.867-6.2c-1.841-3.069-1.228-6.629 1.044-8.9 2.762-2.762 7.243-3.07 10.312 0 6.506 6.506.92 13.81-.553 15.775-.184.307-.43.553 0 .982.491.491.675.307 1.412-.43l7.857-7.856c.675-.676.982-.982.552-1.412-.245-.246-.368-.246-1.105 0l-3.621.798c0-2.333 0-5.525-3.499-9.023-4.358-4.358-11.049-4.174-15.223 0-3.253 3.253-4.05 8.225-2.086 12.276.306.553 1.841 3.07 3.928 6.507.798 1.289 1.657 2.762 1.35 5.278a8.48 8.48 0 0 1-2.394 4.85c-2.762 2.762-7.55 3.621-10.864.306-1.105-1.104-3.929-4.296-4.113-8.286-.122-4.42 2.21-6.998 3.622-8.41.368-.49.061-.797-.062-.92-.49-.491-.798-.184-1.473.49l-7.857 7.858c-.675.675-.92.92-.49 1.35.245.246.368.246 1.043.062.061-.062.307-.062 3.683-.86-.123 2.578.982 6.507 4.48 10.005 4.543 4.543 11.479 3.868 15.837-.49 3.867-3.868 4.542-9.699 2.087-13.75zm0 0"/></g></g><path d="M-14.4 419.254A55 55 0 0 1 23 471.362" transform="rotate(30 96.467 1395.784)" fill="none" stroke="#000" stroke-width="3" stroke-opacity=".498" marker-end="url(#a)"/><path transform="rotate(-150 133.979 436.002)" d="M-14.4 419.254A55 55 0 0 1 23 471.362" fill="none" stroke="#000" stroke-width="3" stroke-opacity=".498" marker-end="url(#a)"/><path d="M256.134 546.69l41.912 39.735" fill="#1a1a1a" stroke="#1a1a1a" stroke-width="1.002" stroke-linecap="round"/><path d="M372.777 319.75c-106.317 0-192.52 84.229-192.52 188.121 0 103.893 86.203 188.121 192.52 188.121 106.316 0 192.475-84.228 192.475-188.12 0-103.893-86.159-188.121-192.475-188.121zm0 19.886c95.072 0 172.14 75.331 172.14 168.235 0 92.905-77.068 168.191-172.14 168.191-95.072 0-172.141-75.286-172.141-168.19 0-92.905 77.069-168.236 172.14-168.236z" fill="#b3b3b3" stroke="#000" stroke-width="3.324"/><g fill="#e6e6e6" stroke-linecap="square"><path stroke="#000" stroke-width="3" d="M122.414 721.226h500.681v24.624h-500.68z"/><path stroke="#333" stroke-width="2.864" d="M136.602 708.228h25.405v12.462h-25.405zM583.502 708.228h25.405v12.462h-25.405z"/></g><g stroke="#000" stroke-width="3"><path d="M428.777 675.83c-5.635 1.672-11.347 3.144-17.188 4.312a196.593 196.593 0 0 1-19.125 2.875c-6.47.642-13.042.969-19.687.969-6.645 0-13.216-.327-19.688-.969a195.97 195.97 0 0 1-19.093-2.875c-5.852-1.17-11.605-2.636-17.25-4.312v-24.47c17.732 5.265 36.54 8.095 56.03 8.095 19.476 0 38.284-2.807 56-8.063z" fill="#f55"/><path d="M428.777 700.36c-5.635 1.673-11.347 3.145-17.188 4.313a196.593 196.593 0 0 1-19.125 2.875c-6.47.643-13.042.97-19.687.97-6.645 0-13.216-.327-19.688-.97a195.97 195.97 0 0 1-19.093-2.875c-5.852-1.17-11.605-2.636-17.25-4.312v-24.469c17.732 5.264 36.54 8.094 56.03 8.094 19.476 0 38.284-2.807 56-8.063z" fill="#59f"/><g><path d="M428.777 339.907c-5.635-1.672-11.347-3.144-17.188-4.313a196.593 196.593 0 0 0-19.125-2.875 199.357 199.357 0 0 0-19.687-.968c-6.645 0-13.216.326-19.688.968a195.97 195.97 0 0 0-19.093 2.875c-5.852 1.17-11.605 2.637-17.25 4.313v24.469c17.732-5.264 36.54-8.094 56.03-8.094 19.476 0 38.284 2.807 56 8.062z" fill="#59f"/><path d="M428.777 315.376c-5.635-1.673-11.347-3.145-17.188-4.313a196.593 196.593 0 0 0-19.125-2.875 199.357 199.357 0 0 0-19.687-.969c-6.645 0-13.216.327-19.688.97a195.97 195.97 0 0 0-19.093 2.874c-5.852 1.17-11.605 2.636-17.25 4.313v24.468c17.732-5.264 36.54-8.093 56.03-8.093 19.476 0 38.284 2.807 56 8.062z" fill="#f55"/></g></g><path d="M369.47 336.677c-.216-.29-.216-.325-.65-.325h-3.942v.723h.687c.326 0 .796.036 1.121.036.543.072.579.109.579.542v12.042c0 .615 0 1.7-2.387 1.7v.723a69.653 69.653 0 0 1 2.712-.073c.76 0 1.88.036 2.676.073v-.724c-2.35 0-2.35-1.084-2.35-1.7V337.69c.108.108.108.144.217.289l9.401 13.85c.217.252.253.289.398.289.326 0 .326-.145.326-.615v-12.729c0-.614 0-1.7 2.386-1.7v-.722a71.59 71.59 0 0 1-2.712.072c-.76 0-1.88-.036-2.676-.072v.723c2.35 0 2.35 1.085 2.35 1.7v9.871zm0 0M374.425 318.209l-2.966-.687c-1.446-.362-2.314-1.591-2.314-2.93 0-1.627 1.23-3.037 3.038-3.037 3.833 0 4.339 3.797 4.483 4.81.037.144.037.289.29.289.29 0 .29-.109.29-.543v-4.628c0-.398 0-.579-.254-.579-.145 0-.18.037-.326.326l-.831 1.302c-.687-.688-1.627-1.628-3.689-1.628-2.567 0-4.483 2.025-4.483 4.484a4.492 4.492 0 0 0 3 4.231c.254.072 1.447.362 3.075.76.614.144 1.301.325 1.952 1.156.47.615.723 1.375.723 2.134 0 1.627-1.157 3.29-3.11 3.29-.65 0-2.422-.108-3.652-1.229-1.338-1.266-1.41-2.712-1.41-3.544-.036-.253-.217-.253-.29-.253-.288 0-.288.181-.288.579v4.628c0 .398 0 .543.253.543.144 0 .18-.036.325-.29 0-.036.072-.108.832-1.337.723.795 2.206 1.627 4.267 1.627 2.676 0 4.52-2.242 4.52-4.81 0-2.278-1.519-4.194-3.435-4.664zm0 0M369.47 688.484c-.216-.29-.216-.325-.65-.325h-3.942v.723h.687c.326 0 .796.036 1.121.036.543.072.579.109.579.543v12.04c0 .616 0 1.7-2.387 1.7v.724a69.653 69.653 0 0 1 2.712-.073c.76 0 1.88.036 2.676.073v-.724c-2.35 0-2.35-1.084-2.35-1.7v-12.004c.108.108.108.144.217.289l9.401 13.85c.217.253.253.289.398.289.326 0 .326-.145.326-.615V690.58c0-.614 0-1.7 2.386-1.7v-.722a71.59 71.59 0 0 1-2.712.072c-.76 0-1.88-.036-2.676-.072v.723c2.35 0 2.35 1.085 2.35 1.7v9.871zm0 0M374.425 670.516l-2.966-.687c-1.446-.362-2.314-1.591-2.314-2.93 0-1.626 1.23-3.037 3.038-3.037 3.833 0 4.339 3.797 4.483 4.81.037.144.037.289.29.289.29 0 .29-.109.29-.543v-4.628c0-.398 0-.579-.254-.579-.145 0-.18.037-.326.326l-.831 1.302c-.687-.687-1.627-1.628-3.689-1.628-2.567 0-4.483 2.025-4.483 4.484a4.492 4.492 0 0 0 3 4.231c.254.072 1.447.362 3.075.76.614.144 1.301.325 1.952 1.157.47.614.723 1.374.723 2.133 0 1.627-1.157 3.29-3.11 3.29-.65 0-2.422-.108-3.652-1.229-1.338-1.265-1.41-2.712-1.41-3.544-.036-.253-.217-.253-.29-.253-.288 0-.288.181-.288.579v4.628c0 .398 0 .543.253.543.144 0 .18-.036.325-.29 0-.036.072-.108.832-1.337.723.795 2.206 1.627 4.267 1.627 2.676 0 4.52-2.242 4.52-4.81 0-2.278-1.519-4.194-3.435-4.664zm0 0" fill="#333"/></svg>