<svg xmlns:ns0="http://www.iki.fi/pav/software/textext/" xmlns="http://www.w3.org/2000/svg" xmlns:xlink="http://www.w3.org/1999/xlink" width="744.094" height="1052.362"><title>I-U-Kennlinie (Diode, Durchlassrichtung)</title><defs><marker orient="auto" id="b" overflow="visible"><path d="M2.308 0l-3.46 2v-4l3.46 2z" fill-rule="evenodd" stroke="#000" stroke-width=".4pt"/></marker></defs><g transform="translate(-444.641 322.645) scale(4.62289)" fill="green"><use height="1052.362" width="744.094" xlink:href="#textext-082fa4b4-3" x="231.736" y="134.765"/><use height="1052.362" width="744.094" xlink:href="#textext-082fa4b4-3" x="231.736" y="134.765"/><g ns0:text="$\\Delta \\vec{r} = \\vec{r}_{\\rm{2}} - \\vec{r}_{\\rm{1}} $" ns0:preamble="/home/waldgeist/data/sphinx/test.tex"><use height="1052.362" width="744.094" xlink:href="#textext-082fa4b4-0" x="223.432" y="134.765"/><use height="1052.362" width="744.094" xlink:href="#textext-082fa4b4-2" x="231.417" y="134.765"/><use height="1052.362" width="744.094" xlink:href="#textext-082fa4b4-3" x="231.736" y="134.765"/><use height="1052.362" width="744.094" xlink:href="#textext-082fa4b4-1" x="239.273" y="134.765"/><use height="1052.362" width="744.094" xlink:href="#textext-082fa4b4-2" x="249.472" y="134.765"/><use height="1052.362" width="744.094" xlink:href="#textext-082fa4b4-3" x="249.791" y="134.765"/><use height="1052.362" width="744.094" xlink:href="#textext-082fa4b4-4" x="254.284" y="136.259"/><use height="1052.362" width="744.094" xlink:href="#textext-082fa4b4-6" x="260.967" y="134.765"/><use height="1052.362" width="744.094" xlink:href="#textext-082fa4b4-2" x="270.612" y="134.765"/><use height="1052.362" width="744.094" xlink:href="#textext-082fa4b4-3" x="270.931" y="134.765"/><use height="1052.362" width="744.094" xlink:href="#textext-082fa4b4-5" x="275.425" y="136.259"/></g><g ns0:text="$\\Delta \\vec{r} = \\vec{r}_{\\rm{2}} - \\vec{r}_{\\rm{1}} $" ns0:preamble="/home/waldgeist/data/sphinx/test.tex"><use height="1052.362" width="744.094" xlink:href="#textext-082fa4b4-0" x="223.432" y="134.765"/><use height="1052.362" width="744.094" xlink:href="#textext-082fa4b4-2" x="231.417" y="134.765"/><use height="1052.362" width="744.094" xlink:href="#textext-082fa4b4-3" x="231.736" y="134.765"/><use height="1052.362" width="744.094" xlink:href="#textext-082fa4b4-1" x="239.273" y="134.765"/><use height="1052.362" width="744.094" xlink:href="#textext-082fa4b4-2" x="249.472" y="134.765"/><use height="1052.362" width="744.094" xlink:href="#textext-082fa4b4-3" x="249.791" y="134.765"/><use height="1052.362" width="744.094" xlink:href="#textext-082fa4b4-4" x="254.284" y="136.259"/><use height="1052.362" width="744.094" xlink:href="#textext-082fa4b4-6" x="260.967" y="134.765"/><use height="1052.362" width="744.094" xlink:href="#textext-082fa4b4-2" x="270.612" y="134.765"/><use height="1052.362" width="744.094" xlink:href="#textext-082fa4b4-3" x="270.931" y="134.765"/><use height="1052.362" width="744.094" xlink:href="#textext-082fa4b4-5" x="275.425" y="136.259"/></g><g ns0:text="$\\Delta \\vec{r} = \\vec{r}_{\\rm{2}} - \\vec{r}_{\\rm{1}} $" ns0:preamble="/home/waldgeist/data/sphinx/test.tex"><use height="1052.362" width="744.094" xlink:href="#textext-082fa4b4-0" x="223.432" y="134.765"/><use height="1052.362" width="744.094" xlink:href="#textext-082fa4b4-2" x="231.417" y="134.765"/><use height="1052.362" width="744.094" xlink:href="#textext-082fa4b4-3" x="231.736" y="134.765"/><use height="1052.362" width="744.094" xlink:href="#textext-082fa4b4-1" x="239.273" y="134.765"/><use height="1052.362" width="744.094" xlink:href="#textext-082fa4b4-2" x="249.472" y="134.765"/><use height="1052.362" width="744.094" xlink:href="#textext-082fa4b4-3" x="249.791" y="134.765"/><use height="1052.362" width="744.094" xlink:href="#textext-082fa4b4-4" x="254.284" y="136.259"/><use height="1052.362" width="744.094" xlink:href="#textext-082fa4b4-6" x="260.967" y="134.765"/><use height="1052.362" width="744.094" xlink:href="#textext-082fa4b4-2" x="270.612" y="134.765"/><use height="1052.362" width="744.094" xlink:href="#textext-082fa4b4-3" x="270.931" y="134.765"/><use height="1052.362" width="744.094" xlink:href="#textext-082fa4b4-5" x="275.425" y="136.259"/></g></g><g ns0:text="$U_{\\rm{D}}$"><use y="134.765" x="223.432" xlink:href="#textext-eb46062f-0" width="1052.362" height="744.094" transform="matrix(3.65192 0 0 3.65192 -680.592 -98.171)"/><use y="136.259" x="230.234" xlink:href="#textext-eb46062f-1" width="1052.362" height="744.094" transform="matrix(3.65192 0 0 3.65192 -680.592 -98.171)"/></g><path fill="#fff" stroke="#fff" stroke-width="3" stroke-linecap="round" d="M3.758 153.231h736.578v745.901H3.758z"/><g stroke="#ccc" stroke-width="1.188" fill="none"><g stroke-width="2.925"><path d="M167.234 291.103v512.75M218.51 291.103v512.75M269.784 291.103v512.75M321.06 291.103v512.75M372.334 291.103v512.75M423.609 291.103v512.75M474.884 291.103v512.75M526.159 291.103v512.75M577.434 291.103v512.75" stroke-width="1.49979375"/></g><g stroke-width="2.925"><path d="M115.96 342.378h512.749M115.96 393.653h512.749M115.96 444.928h512.749M115.96 496.203h512.749M115.96 547.478h512.749M115.96 598.753h512.749M115.96 650.028h512.749M115.96 701.303h512.749M115.96 752.578h512.749" stroke-width="1.49979375"/></g><g stroke-width=".975"><path d="M121.087 291.103v512.75M126.214 291.103v512.75M131.342 291.103v512.75M136.47 291.103v512.75M141.597 291.103v512.75M146.724 291.103v512.75M151.852 291.103v512.75M156.98 291.103v512.75M162.107 291.103v512.75M172.362 291.103v512.75M177.49 291.103v512.75M182.617 291.103v512.75M187.744 291.103v512.75M192.872 291.103v512.75M198 291.103v512.75M203.127 291.103v512.75M208.254 291.103v512.75M213.382 291.103v512.75M223.637 291.103v512.75M228.764 291.103v512.75M233.892 291.103v512.75M239.02 291.103v512.75M244.147 291.103v512.75M249.274 291.103v512.75M254.402 291.103v512.75M259.53 291.103v512.75M264.657 291.103v512.75M274.912 291.103v512.75M280.04 291.103v512.75M285.167 291.103v512.75M290.294 291.103v512.75M295.422 291.103v512.75M300.55 291.103v512.75M305.677 291.103v512.75M310.804 291.103v512.75M315.932 291.103v512.75M326.187 291.103v512.75M331.314 291.103v512.75M336.442 291.103v512.75M341.57 291.103v512.75M346.697 291.103v512.75M351.824 291.103v512.75M356.952 291.103v512.75M362.08 291.103v512.75M367.207 291.103v512.75M377.462 291.103v512.75M382.589 291.103v512.75M387.717 291.103v512.75M392.844 291.103v512.75M397.971 291.103v512.75M403.099 291.103v512.75M408.226 291.103v512.75M413.354 291.103v512.75M418.481 291.103v512.75M428.736 291.103v512.75M433.864 291.103v512.75M438.991 291.103v512.75M444.119 291.103v512.75M449.246 291.103v512.75M454.374 291.103v512.75M459.501 291.103v512.75M464.629 291.103v512.75M469.756 291.103v512.75M480.011 291.103v512.75M485.139 291.103v512.75M490.266 291.103v512.75M495.394 291.103v512.75M500.521 291.103v512.75M505.649 291.103v512.75M510.776 291.103v512.75M515.904 291.103v512.75M521.031 291.103v512.75M531.286 291.103v512.75M536.414 291.103v512.75M541.541 291.103v512.75M546.669 291.103v512.75M551.796 291.103v512.75M556.924 291.103v512.75M562.051 291.103v512.75M567.179 291.103v512.75M572.306 291.103v512.75M582.561 291.103v512.75M587.689 291.103v512.75M592.816 291.103v512.75M597.944 291.103v512.75M603.071 291.103v512.75M608.199 291.103v512.75M613.326 291.103v512.75M618.454 291.103v512.75M623.581 291.103v512.75" stroke-width=".49993125000000005"/></g><g stroke-width=".975"><path d="M115.96 296.23h512.749M115.96 301.358h512.749M115.96 306.486h512.749M115.96 311.613h512.749M115.96 316.74h512.749M115.96 321.868h512.749M115.96 326.996h512.749M115.96 332.123h512.749M115.96 337.25h512.749M115.96 347.506h512.749M115.96 352.633h512.749M115.96 357.76h512.749M115.96 362.888h512.749M115.96 368.016h512.749M115.96 373.143h512.749M115.96 378.27h512.749M115.96 383.398h512.749M115.96 388.526h512.749M115.96 398.78h512.749M115.96 403.908h512.749M115.96 409.036h512.749M115.96 414.163h512.749M115.96 419.29h512.749M115.96 424.418h512.749M115.96 429.546h512.749M115.96 434.673h512.749M115.96 439.8h512.749M115.96 450.056h512.749M115.96 455.183h512.749M115.96 460.31h512.749M115.96 465.438h512.749M115.96 470.566h512.749M115.96 475.693h512.749M115.96 480.82h512.749M115.96 485.948h512.749M115.96 491.076h512.749M115.96 501.33h512.749M115.96 506.458h512.749M115.96 511.586h512.749M115.96 516.713h512.749M115.96 521.84h512.749M115.96 526.968h512.749M115.96 532.096h512.749M115.96 537.223h512.749M115.96 542.35h512.749M115.96 552.606h512.749M115.96 557.733h512.749M115.96 562.86h512.749M115.96 567.988h512.749M115.96 573.115h512.749M115.96 578.243h512.749M115.96 583.37h512.749M115.96 588.498h512.749M115.96 593.625h512.749M115.96 603.88h512.749M115.96 609.008h512.749M115.96 614.135h512.749M115.96 619.263h512.749M115.96 624.39h512.749M115.96 629.518h512.749M115.96 634.645h512.749M115.96 639.773h512.749M115.96 644.9h512.749M115.96 655.155h512.749M115.96 660.283h512.749M115.96 665.41h512.749M115.96 670.538h512.749M115.96 675.665h512.749M115.96 680.793h512.749M115.96 685.92h512.749M115.96 691.048h512.749M115.96 696.175h512.749M115.96 706.43h512.749M115.96 711.558h512.749M115.96 716.685h512.749M115.96 721.813h512.749M115.96 726.94h512.749M115.96 732.068h512.749M115.96 737.195h512.749M115.96 742.323h512.749M115.96 747.45h512.749M115.96 757.705h512.749M115.96 762.833h512.749M115.96 767.96h512.749M115.96 773.088h512.749M115.96 778.215h512.749M115.96 783.343h512.749M115.96 788.47h512.749M115.96 793.598h512.749M115.96 798.725h512.749" stroke-width=".49993125000000005"/></g><path stroke-width="1.49979375" d="M115.96 291.103h512.749v512.75h-512.75z"/></g><g fill="none" stroke="#000" stroke-width="1.105"><path d="M126.389 701.303H105.53M126.389 650.028H105.53M126.389 598.753H105.53M126.389 547.478H105.53M126.389 803.853H105.53M126.389 752.578H105.53" stroke-width="1.55856935"/></g><path id="a" d="M423.609 793.33v20.51" fill="none" stroke="#000" stroke-width="2"/><use xlink:href="#a" transform="translate(51.275 -.414)" width="744.094" height="1052.362"/><use xlink:href="#a" transform="translate(102.55)" width="744.094" height="1052.362"/><use xlink:href="#a" transform="translate(153.825)" width="744.094" height="1052.362"/><use xlink:href="#a" transform="translate(-51.275 .268)" width="744.094" height="1052.362"/><use xlink:href="#a" transform="translate(-256.375 -.414)" width="744.094" height="1052.362"/><use height="1052.362" width="744.094" transform="translate(-153.825 -.212)" xlink:href="#a"/><use height="1052.362" width="744.094" transform="translate(-307.65 .268)" xlink:href="#a"/><use height="744.094" width="1052.362" transform="translate(-102.55 -.054)" xlink:href="#a"/><use height="744.094" width="1052.362" transform="translate(205.1 -.572)" xlink:href="#a"/><path d="M115.96 804.173V202.7" fill="none" stroke="#000" stroke-width="3.076" stroke-linecap="round" marker-end="url(#b)"/><use height="1052.362" width="744.094" transform="translate(-205.1 -.313)" xlink:href="#a"/><g ns0:text="\\centering $U_{\\rm{D}}$ \\\\ in V" transform="matrix(2.88813 0 0 2.88813 -444.475 451.494)" opacity=".99"><defs><symbol overflow="visible" id="c"><path d="M6.328-5.766c.11-.406.281-.703 1.078-.734.047 0 .172-.016.172-.203 0 0 0-.11-.125-.11-.328 0-.687.032-1.016.032-.343 0-.718-.032-1.046-.032-.063 0-.172 0-.172.204 0 .109.093.109.172.109.578.016.687.219.687.438 0 .03-.031.187-.031.203L5.14-2.297C4.812-.953 3.656-.094 2.656-.094c-.672 0-1.203-.437-1.203-1.297 0-.015 0-.328.11-.765l.953-3.89c.093-.36.109-.454.843-.454.266 0 .344 0 .344-.203 0-.11-.11-.11-.14-.11-.282 0-1 .032-1.282.032-.281 0-1-.032-1.281-.032-.078 0-.188 0-.188.204 0 .109.079.109.282.109.015 0 .203 0 .375.016.172.03.265.03.265.171 0 .047-.109.47-.171.704l-.22.875C1.25-4.344.782-2.47.735-2.266c-.062.266-.062.422-.062.579 0 1.203.906 1.906 1.953 1.906 1.25 0 2.484-1.125 2.813-2.438zm0 0"/></symbol><symbol overflow="visible" id="d"><path d="M.406-4.766v.25h.172c.531 0 .547.079.547.329v3.625c0 .234-.016.312-.547.312H.406V0h2.75A2.34 2.34 0 0 0 5.5-2.344c0-1.328-1.047-2.422-2.344-2.422zM2.094-.25c-.328 0-.344-.063-.344-.266v-3.718c0-.22.016-.282.344-.282h.86c.593 0 1.108.25 1.437.657.28.375.39.906.39 1.515 0 .813-.203 1.235-.453 1.516-.312.36-.812.578-1.36.578zm0 0"/></symbol><symbol overflow="visible" id="e"><path d="M1.766-4.406l-1.391.11v.312c.64 0 .734.062.734.546V-.75c0 .438-.109.438-.78.438V0c.312-.016.859-.031 1.093-.031.36 0 .703.015 1.047.031v-.313c-.672 0-.703-.046-.703-.437zm.03-1.735a.514.514 0 0 0-.515-.53.537.537 0 0 0-.531.53c0 .266.219.532.531.532a.514.514 0 0 0 .516-.532zm0 0"/></symbol><symbol overflow="visible" id="f"><path d="M1.094-3.422V-.75c0 .438-.11.438-.782.438V0c.36-.016.86-.031 1.141-.031.25 0 .766.015 1.11.031v-.313c-.672 0-.782 0-.782-.437v-1.844c0-1.031.719-1.594 1.344-1.594.64 0 .75.532.75 1.11V-.75c0 .438-.11.438-.781.438V0c.344-.016.86-.031 1.125-.031.25 0 .781.015 1.11.031v-.313c-.516 0-.766 0-.766-.296v-1.907c0-.859 0-1.156-.313-1.515-.14-.172-.469-.375-1.047-.375-.734 0-1.203.422-1.484 1.047v-1.047l-1.407.11v.312c.704 0 .782.062.782.562zm0 0"/></symbol><symbol overflow="visible" id="g"><path d="M6.188-5.828c.14-.375.406-.656 1.093-.672v-.313c-.312.032-.718.032-.968.032-.297 0-.875-.016-1.141-.032v.313c.516.016.734.266.734.5 0 .078-.031.14-.047.203L4.031-1 2.125-6.031c-.063-.14-.063-.157-.063-.172 0-.297.563-.297.813-.297v-.313c-.36.032-1.047.032-1.422.032-.469 0-.906-.016-1.266-.032v.313c.657 0 .844 0 .985.375L3.484 0c.063.188.11.219.25.219.157 0 .188-.047.235-.188zm0 0"/></symbol></defs><use xlink:href="#c" x="388.638" y="134.765" width="1052.362" height="744.094"/><use xlink:href="#d" x="395.441" y="136.259" width="1052.362" height="744.094"/><use xlink:href="#e" x="385.74" y="146.72" width="1052.362" height="744.094"/><use xlink:href="#f" x="388.508" y="146.72" width="1052.362" height="744.094"/><g><use xlink:href="#g" x="397.36" y="146.72" width="1052.362" height="744.094"/></g></g><g transform="matrix(2.88813 0 0 2.88813 -1084.231 -173.591)" ns0:text="\\centering $I_{\\rm{D}}$ \\\\ in mA"><defs><symbol id="h" overflow="visible"><path d="M3.734-6.047c.079-.36.11-.453.907-.453.234 0 .312 0 .312-.188 0-.125-.11-.125-.14-.125-.297 0-1.032.032-1.329.032-.296 0-1.015-.032-1.328-.032-.062 0-.187 0-.187.204 0 .109.078.109.281.109.406 0 .688 0 .688.188 0 .046 0 .078-.032.156L1.562-.781c-.093.375-.109.469-.906.469-.234 0-.312 0-.312.203 0 .109.11.109.14.109C.781 0 1.5-.031 1.797-.031c.297 0 1.031.031 1.328.031.078 0 .203 0 .203-.188 0-.124-.078-.124-.297-.124-.187 0-.234 0-.422-.016-.218-.016-.25-.063-.25-.172 0-.078.016-.156.032-.234zm0 0"/></symbol><symbol id="i" overflow="visible"><path d="M.406-4.766v.25h.172c.531 0 .547.079.547.329v3.625c0 .234-.016.312-.547.312H.406V0h2.75A2.34 2.34 0 0 0 5.5-2.344c0-1.328-1.047-2.422-2.344-2.422zM2.094-.25c-.328 0-.344-.063-.344-.266v-3.718c0-.22.016-.282.344-.282h.86c.593 0 1.108.25 1.437.657.28.375.39.906.39 1.515 0 .813-.203 1.235-.453 1.516-.312.36-.812.578-1.36.578zm0 0"/></symbol><symbol id="j" overflow="visible"><path d="M1.766-4.406l-1.391.11v.312c.64 0 .734.062.734.546V-.75c0 .438-.109.438-.78.438V0c.312-.016.859-.031 1.093-.031.36 0 .703.015 1.047.031v-.313c-.672 0-.703-.046-.703-.437zm.03-1.735a.514.514 0 0 0-.515-.53.537.537 0 0 0-.531.53c0 .266.219.532.531.532a.514.514 0 0 0 .516-.532zm0 0"/></symbol><symbol id="k" overflow="visible"><path d="M1.094-3.422V-.75c0 .438-.11.438-.782.438V0c.36-.016.86-.031 1.141-.031.25 0 .766.015 1.11.031v-.313c-.672 0-.782 0-.782-.437v-1.844c0-1.031.719-1.594 1.344-1.594.64 0 .75.532.75 1.11V-.75c0 .438-.11.438-.781.438V0c.344-.016.86-.031 1.125-.031.25 0 .781.015 1.11.031v-.313c-.516 0-.766 0-.766-.296v-1.907c0-.859 0-1.156-.313-1.515-.14-.172-.469-.375-1.047-.375-.734 0-1.203.422-1.484 1.047v-1.047l-1.407.11v.312c.704 0 .782.062.782.562zm0 0"/></symbol><symbol id="l" overflow="visible"><path d="M1.094-3.422V-.75c0 .438-.11.438-.782.438V0c.36-.016.86-.031 1.141-.031.25 0 .766.015 1.11.031v-.313c-.672 0-.782 0-.782-.437v-1.844c0-1.031.719-1.594 1.344-1.594.64 0 .75.532.75 1.11V-.75c0 .438-.11.438-.781.438V0c.344-.016.86-.031 1.125-.031.25 0 .781.015 1.11.031v-.313c-.657 0-.766 0-.766-.437v-1.844c0-1.031.703-1.594 1.343-1.594.625 0 .735.532.735 1.11V-.75c0 .438-.11.438-.782.438V0c.344-.016.86-.031 1.125-.031.266 0 .782.015 1.125.031v-.313c-.515 0-.765 0-.78-.296v-1.907c0-.859 0-1.156-.313-1.515-.141-.172-.47-.375-1.047-.375-.828 0-1.282.593-1.438.984-.14-.875-.875-.984-1.328-.984-.734 0-1.203.422-1.484 1.047v-1.047l-1.407.11v.312c.704 0 .782.062.782.562zm0 0"/></symbol><symbol id="m" overflow="visible"><path d="M3.969-6.938c-.047-.125-.078-.203-.235-.203-.156 0-.187.063-.234.204L1.437-.984C1.25-.47.86-.313.313-.313V0c.235-.016.672-.031 1.016-.031.313 0 .828.015 1.156.031v-.313c-.5 0-.75-.25-.75-.5 0-.03.016-.14.016-.156l.469-1.297h2.453L5.203-.75a.58.58 0 0 1 .031.14c0 .297-.562.297-.828.297V0c.36-.031 1.063-.031 1.438-.031.422 0 .89.015 1.297.031v-.313h-.172c-.594 0-.735-.062-.844-.39zm-.531 1.11l1.124 3.25H2.329zm0 0"/></symbol></defs><use height="744.094" width="1052.362" y="134.765" x="389.85" xlink:href="#h"/><use height="744.094" width="1052.362" y="136.259" x="394.229" xlink:href="#i"/><use height="744.094" width="1052.362" y="146.72" x="381.589" xlink:href="#j"/><use height="744.094" width="1052.362" y="146.72" x="384.357" xlink:href="#k"/><g><use height="744.094" width="1052.362" y="146.72" x="393.209" xlink:href="#l"/><use height="744.094" width="1052.362" y="146.72" x="401.511" xlink:href="#m"/></g></g><g ns0:text="$0,1$" transform="translate(-335.222 546.003) scale(2.18063)" fill="#4d4d4d" stroke="#4d4d4d" stroke-width="1.376"><defs><symbol overflow="visible" id="n"><path d="M4.578-3.188c0-.796-.047-1.593-.39-2.328C3.733-6.484 2.905-6.64 2.5-6.64c-.61 0-1.328.266-1.75 1.188-.313.687-.36 1.469-.36 2.266 0 .75.032 1.64.454 2.406a1.83 1.83 0 0 0 1.64 1c.532 0 1.297-.203 1.735-1.157.312-.687.36-1.468.36-2.25zM2.484 0c-.39 0-.984-.25-1.156-1.203-.11-.594-.11-1.516-.11-2.11 0-.64 0-1.296.079-1.828.187-1.187.937-1.28 1.187-1.28.329 0 .985.187 1.172 1.171.11.563.11 1.313.11 1.938 0 .75 0 1.421-.11 2.062C3.5-.297 2.937 0 2.484 0zm0 0" stroke="none"/></symbol><symbol overflow="visible" id="p"><path d="M2.938-6.375c0-.25 0-.266-.235-.266C2.078-6 1.203-6 .891-6v.313c.203 0 .78 0 1.296-.266v5.172c0 .36-.03.469-.921.469H.953V0c.344-.031 1.203-.031 1.61-.031.39 0 1.265 0 1.609.031v-.313h-.313c-.906 0-.921-.109-.921-.468zm0 0" stroke="none"/></symbol><symbol overflow="visible" id="o"><path d="M2.031-.016c0-.656-.25-1.046-.64-1.046a.517.517 0 0 0-.532.53c0 .266.204.532.532.532a.58.58 0 0 0 .343-.125c.032-.031.047-.031.047-.031.016 0 .016 0 .016.14 0 .75-.344 1.344-.672 1.672-.11.11-.11.125-.11.157 0 .078.048.109.094.109.11 0 .922-.766.922-1.938zm0 0" stroke="none"/></symbol></defs><use height="744.094" width="1052.362" xlink:href="#n" x="223.432" y="134.765"/><use height="744.094" width="1052.362" xlink:href="#o" x="228.413" y="134.765"/><use height="744.094" width="1052.362" xlink:href="#p" x="232.841" y="134.765"/></g><path d="M528.992 288.493c-13.735 148.303-36.397 362.023-66.973 452.805-7.33 21.762-29.918 46.307-47.863 51.282-43.732 12.124-194.766 7.178-295.161 9.687" fill="none" stroke="teal" stroke-width="3"/><g fill="none" stroke="#000" stroke-width="1.105"><path d="M126.389 444.928H105.53M126.389 393.653H105.53M126.389 342.378H105.53M126.389 291.103H105.53M126.389 547.478H105.53M126.389 496.203H105.53" stroke-width="1.55856935"/></g><g transform="translate(-415.493 465.707) scale(2.18063)" ns0:text="$10$" fill="#4d4d4d" stroke="#4d4d4d" stroke-width="1.376"><defs><symbol id="q" overflow="visible"><path d="M2.938-6.375c0-.25 0-.266-.235-.266C2.078-6 1.203-6 .891-6v.313c.203 0 .78 0 1.296-.266v5.172c0 .36-.03.469-.921.469H.953V0c.344-.031 1.203-.031 1.61-.031.39 0 1.265 0 1.609.031v-.313h-.313c-.906 0-.921-.109-.921-.468zm0 0" stroke="none"/></symbol><symbol id="r" overflow="visible"><path d="M4.578-3.188c0-.796-.047-1.593-.39-2.328C3.733-6.484 2.905-6.64 2.5-6.64c-.61 0-1.328.266-1.75 1.188-.313.687-.36 1.469-.36 2.266 0 .75.032 1.64.454 2.406a1.83 1.83 0 0 0 1.64 1c.532 0 1.297-.203 1.735-1.157.312-.687.36-1.468.36-2.25zM2.484 0c-.39 0-.984-.25-1.156-1.203-.11-.594-.11-1.516-.11-2.11 0-.64 0-1.296.079-1.828.187-1.187.937-1.28 1.187-1.28.329 0 .985.187 1.172 1.171.11.563.11 1.313.11 1.938 0 .75 0 1.421-.11 2.062C3.5-.297 2.937 0 2.484 0zm0 0" stroke="none"/></symbol></defs><use y="134.765" x="223.432" xlink:href="#q" width="1052.362" height="744.094"/><use y="134.765" x="228.413" xlink:href="#r" width="1052.362" height="744.094"/></g><g ns0:text="$20$" transform="translate(-415.493 414.432) scale(2.18063)" fill="#4d4d4d" stroke="#4d4d4d" stroke-width="1.376"><defs><symbol overflow="visible" id="s"><path d="M1.266-.766l1.062-1.03c1.547-1.376 2.14-1.907 2.14-2.907 0-1.14-.89-1.938-2.109-1.938C1.234-6.64.5-5.719.5-4.828c0 .547.5.547.531.547.172 0 .516-.11.516-.532a.513.513 0 0 0-.531-.515c-.079 0-.094 0-.125.016.218-.657.765-1.016 1.343-1.016.907 0 1.329.812 1.329 1.625 0 .797-.485 1.578-1.047 2.203L.609-.375C.5-.265.5-.235.5 0h3.703l.266-1.734h-.235C4.172-1.438 4.11-1 4-.844c-.063.078-.719.078-.938.078zm0 0" stroke="none"/></symbol><symbol overflow="visible" id="t"><path d="M4.578-3.188c0-.796-.047-1.593-.39-2.328C3.733-6.484 2.905-6.64 2.5-6.64c-.61 0-1.328.266-1.75 1.188-.313.687-.36 1.469-.36 2.266 0 .75.032 1.64.454 2.406a1.83 1.83 0 0 0 1.64 1c.532 0 1.297-.203 1.735-1.157.312-.687.36-1.468.36-2.25zM2.484 0c-.39 0-.984-.25-1.156-1.203-.11-.594-.11-1.516-.11-2.11 0-.64 0-1.296.079-1.828.187-1.187.937-1.28 1.187-1.28.329 0 .985.187 1.172 1.171.11.563.11 1.313.11 1.938 0 .75 0 1.421-.11 2.062C3.5-.297 2.937 0 2.484 0zm0 0" stroke="none"/></symbol></defs><use xlink:href="#s" x="223.432" y="134.765" width="1052.362" height="744.094"/><use xlink:href="#t" x="228.413" y="134.765" width="1052.362" height="744.094"/></g><g transform="translate(-415.493 363.157) scale(2.18063)" ns0:text="$30$" fill="#4d4d4d" stroke="#4d4d4d" stroke-width="1.376"><defs><symbol id="u" overflow="visible"><path d="M2.89-3.516c.813-.265 1.391-.953 1.391-1.75 0-.812-.875-1.375-1.828-1.375-1 0-1.765.594-1.765 1.36 0 .328.218.515.515.515.297 0 .5-.218.5-.515 0-.485-.469-.485-.61-.485.298-.5.954-.625 1.313-.625.422 0 .969.22.969 1.11 0 .125-.031.703-.281 1.14-.297.485-.64.516-.89.516a3.29 3.29 0 0 1-.392.031c-.078.016-.14.031-.14.125 0 .11.062.11.234.11h.438c.812 0 1.187.671 1.187 1.656 0 1.36-.687 1.64-1.125 1.64-.437 0-1.187-.171-1.531-.75.344.047.656-.171.656-.546a.537.537 0 0 0-.547-.563c-.25 0-.562.14-.562.578C.422-.437 1.344.22 2.437.22c1.22 0 2.126-.906 2.126-1.922 0-.813-.641-1.594-1.672-1.813zm0 0" stroke="none"/></symbol><symbol id="v" overflow="visible"><path d="M4.578-3.188c0-.796-.047-1.593-.39-2.328C3.733-6.484 2.905-6.64 2.5-6.64c-.61 0-1.328.266-1.75 1.188-.313.687-.36 1.469-.36 2.266 0 .75.032 1.64.454 2.406a1.83 1.83 0 0 0 1.64 1c.532 0 1.297-.203 1.735-1.157.312-.687.36-1.468.36-2.25zM2.484 0c-.39 0-.984-.25-1.156-1.203-.11-.594-.11-1.516-.11-2.11 0-.64 0-1.296.079-1.828.187-1.187.937-1.28 1.187-1.28.329 0 .985.187 1.172 1.171.11.563.11 1.313.11 1.938 0 .75 0 1.421-.11 2.062C3.5-.297 2.937 0 2.484 0zm0 0" stroke="none"/></symbol></defs><use y="134.765" x="223.432" xlink:href="#u" width="1052.362" height="744.094"/><use y="134.765" x="228.413" xlink:href="#v" width="1052.362" height="744.094"/></g><g ns0:text="$40$" transform="translate(-415.493 312.001) scale(2.18063)" fill="#4d4d4d" stroke="#4d4d4d" stroke-width="1.376"><defs><symbol overflow="visible" id="w"><path d="M2.938-1.64v.859c0 .36-.032.469-.766.469h-.203V0c.406-.031.922-.031 1.343-.031.422 0 .938 0 1.36.031v-.313h-.219c-.734 0-.75-.109-.75-.468v-.86h.985v-.312h-.985v-4.531c0-.204 0-.266-.172-.266-.078 0-.11 0-.187.125L.28-1.953v.312zm.046-.313H.563l2.421-3.719zm0 0" stroke="none"/></symbol><symbol overflow="visible" id="x"><path d="M4.578-3.188c0-.796-.047-1.593-.39-2.328C3.733-6.484 2.905-6.64 2.5-6.64c-.61 0-1.328.266-1.75 1.188-.313.687-.36 1.469-.36 2.266 0 .75.032 1.64.454 2.406a1.83 1.83 0 0 0 1.64 1c.532 0 1.297-.203 1.735-1.157.312-.687.36-1.468.36-2.25zM2.484 0c-.39 0-.984-.25-1.156-1.203-.11-.594-.11-1.516-.11-2.11 0-.64 0-1.296.079-1.828.187-1.187.937-1.28 1.187-1.28.329 0 .985.187 1.172 1.171.11.563.11 1.313.11 1.938 0 .75 0 1.421-.11 2.062C3.5-.297 2.937 0 2.484 0zm0 0" stroke="none"/></symbol></defs><use xlink:href="#w" x="223.432" y="134.765" width="1052.362" height="744.094"/><use xlink:href="#x" x="228.413" y="134.765" width="1052.362" height="744.094"/></g><g transform="translate(-415.493 260.607) scale(2.18063)" ns0:text="$50$" fill="#4d4d4d" stroke="#4d4d4d" stroke-width="1.376"><defs><symbol id="y" overflow="visible"><path d="M4.469-2c0-1.188-.813-2.188-1.89-2.188-.47 0-.907.157-1.267.516v-1.953c.204.063.532.125.844.125 1.235 0 1.938-.906 1.938-1.031 0-.063-.032-.11-.11-.11 0 0-.03 0-.078.032a3.22 3.22 0 0 1-1.36.296c-.39 0-.858-.078-1.327-.28-.078-.032-.094-.032-.11-.032C1-6.625 1-6.547 1-6.391v2.954c0 .171 0 .25.14.25.079 0 .094-.016.141-.079.11-.156.469-.703 1.282-.703.515 0 .765.453.843.64.156.376.188.75.188 1.25 0 .36 0 .954-.25 1.376-.235.39-.61.64-1.063.64-.719 0-1.297-.53-1.469-1.109.032 0 .063.016.172.016.329 0 .5-.25.5-.485 0-.25-.171-.5-.5-.5-.14 0-.484.079-.484.532C.5-.75 1.188.219 2.297.219 3.453.219 4.469-.734 4.469-2zm0 0" stroke="none"/></symbol><symbol id="z" overflow="visible"><path d="M4.578-3.188c0-.796-.047-1.593-.39-2.328C3.733-6.484 2.905-6.64 2.5-6.64c-.61 0-1.328.266-1.75 1.188-.313.687-.36 1.469-.36 2.266 0 .75.032 1.64.454 2.406a1.83 1.83 0 0 0 1.64 1c.532 0 1.297-.203 1.735-1.157.312-.687.36-1.468.36-2.25zM2.484 0c-.39 0-.984-.25-1.156-1.203-.11-.594-.11-1.516-.11-2.11 0-.64 0-1.296.079-1.828.187-1.187.937-1.28 1.187-1.28.329 0 .985.187 1.172 1.171.11.563.11 1.313.11 1.938 0 .75 0 1.421-.11 2.062C3.5-.297 2.937 0 2.484 0zm0 0" stroke="none"/></symbol></defs><use y="134.765" x="223.432" xlink:href="#y" width="1052.362" height="744.094"/><use y="134.765" x="228.413" xlink:href="#z" width="1052.362" height="744.094"/></g><g ns0:text="$0,2$" transform="translate(-284.27 546.003) scale(2.18063)" fill="#4d4d4d" stroke="#4d4d4d" stroke-width="1.376"><defs><symbol overflow="visible" id="A"><path d="M4.578-3.188c0-.796-.047-1.593-.39-2.328C3.733-6.484 2.905-6.64 2.5-6.64c-.61 0-1.328.266-1.75 1.188-.313.687-.36 1.469-.36 2.266 0 .75.032 1.64.454 2.406a1.83 1.83 0 0 0 1.64 1c.532 0 1.297-.203 1.735-1.157.312-.687.36-1.468.36-2.25zM2.484 0c-.39 0-.984-.25-1.156-1.203-.11-.594-.11-1.516-.11-2.11 0-.64 0-1.296.079-1.828.187-1.187.937-1.28 1.187-1.28.329 0 .985.187 1.172 1.171.11.563.11 1.313.11 1.938 0 .75 0 1.421-.11 2.062C3.5-.297 2.937 0 2.484 0zm0 0" stroke="none"/></symbol><symbol overflow="visible" id="C"><path d="M1.266-.766l1.062-1.03c1.547-1.376 2.14-1.907 2.14-2.907 0-1.14-.89-1.938-2.109-1.938C1.234-6.64.5-5.719.5-4.828c0 .547.5.547.531.547.172 0 .516-.11.516-.532a.513.513 0 0 0-.531-.515c-.079 0-.094 0-.125.016.218-.657.765-1.016 1.343-1.016.907 0 1.329.812 1.329 1.625 0 .797-.485 1.578-1.047 2.203L.609-.375C.5-.265.5-.235.5 0h3.703l.266-1.734h-.235C4.172-1.438 4.11-1 4-.844c-.063.078-.719.078-.938.078zm0 0" stroke="none"/></symbol><symbol overflow="visible" id="B"><path d="M2.031-.016c0-.656-.25-1.046-.64-1.046a.517.517 0 0 0-.532.53c0 .266.204.532.532.532a.58.58 0 0 0 .343-.125c.032-.031.047-.031.047-.031.016 0 .016 0 .016.14 0 .75-.344 1.344-.672 1.672-.11.11-.11.125-.11.157 0 .078.048.109.094.109.11 0 .922-.766.922-1.938zm0 0" stroke="none"/></symbol></defs><use height="744.094" width="1052.362" xlink:href="#A" x="223.432" y="134.765"/><use height="744.094" width="1052.362" xlink:href="#B" x="228.413" y="134.765"/><use height="744.094" width="1052.362" xlink:href="#C" x="232.841" y="134.765"/></g><g transform="translate(-233.098 546.003) scale(2.18063)" ns0:text="$0,3$" fill="#4d4d4d" stroke="#4d4d4d" stroke-width="1.376"><defs><symbol id="D" overflow="visible"><path d="M4.578-3.188c0-.796-.047-1.593-.39-2.328C3.733-6.484 2.905-6.64 2.5-6.64c-.61 0-1.328.266-1.75 1.188-.313.687-.36 1.469-.36 2.266 0 .75.032 1.64.454 2.406a1.83 1.83 0 0 0 1.64 1c.532 0 1.297-.203 1.735-1.157.312-.687.36-1.468.36-2.25zM2.484 0c-.39 0-.984-.25-1.156-1.203-.11-.594-.11-1.516-.11-2.11 0-.64 0-1.296.079-1.828.187-1.187.937-1.28 1.187-1.28.329 0 .985.187 1.172 1.171.11.563.11 1.313.11 1.938 0 .75 0 1.421-.11 2.062C3.5-.297 2.937 0 2.484 0zm0 0" stroke="none"/></symbol><symbol id="F" overflow="visible"><path d="M2.89-3.516c.813-.265 1.391-.953 1.391-1.75 0-.812-.875-1.375-1.828-1.375-1 0-1.765.594-1.765 1.36 0 .328.218.515.515.515.297 0 .5-.218.5-.515 0-.485-.469-.485-.61-.485.298-.5.954-.625 1.313-.625.422 0 .969.22.969 1.11 0 .125-.031.703-.281 1.14-.297.485-.64.516-.89.516a3.29 3.29 0 0 1-.392.031c-.078.016-.14.031-.14.125 0 .11.062.11.234.11h.438c.812 0 1.187.671 1.187 1.656 0 1.36-.687 1.64-1.125 1.64-.437 0-1.187-.171-1.531-.75.344.047.656-.171.656-.546a.537.537 0 0 0-.547-.563c-.25 0-.562.14-.562.578C.422-.437 1.344.22 2.437.22c1.22 0 2.126-.906 2.126-1.922 0-.813-.641-1.594-1.672-1.813zm0 0" stroke="none"/></symbol><symbol id="E" overflow="visible"><path d="M2.031-.016c0-.656-.25-1.046-.64-1.046a.517.517 0 0 0-.532.53c0 .266.204.532.532.532a.58.58 0 0 0 .343-.125c.032-.031.047-.031.047-.031.016 0 .016 0 .016.14 0 .75-.344 1.344-.672 1.672-.11.11-.11.125-.11.157 0 .078.048.109.094.109.11 0 .922-.766.922-1.938zm0 0" stroke="none"/></symbol></defs><use height="744.094" width="1052.362" y="134.765" x="223.432" xlink:href="#D"/><use height="744.094" width="1052.362" y="134.765" x="228.413" xlink:href="#E"/><use height="744.094" width="1052.362" y="134.765" x="232.841" xlink:href="#F"/></g><g ns0:text="$0,4$" transform="translate(-181.959 546.122) scale(2.18063)" fill="#4d4d4d" stroke="#4d4d4d" stroke-width="1.376"><defs><symbol overflow="visible" id="G"><path d="M4.578-3.188c0-.796-.047-1.593-.39-2.328C3.733-6.484 2.905-6.64 2.5-6.64c-.61 0-1.328.266-1.75 1.188-.313.687-.36 1.469-.36 2.266 0 .75.032 1.64.454 2.406a1.83 1.83 0 0 0 1.64 1c.532 0 1.297-.203 1.735-1.157.312-.687.36-1.468.36-2.25zM2.484 0c-.39 0-.984-.25-1.156-1.203-.11-.594-.11-1.516-.11-2.11 0-.64 0-1.296.079-1.828.187-1.187.937-1.28 1.187-1.28.329 0 .985.187 1.172 1.171.11.563.11 1.313.11 1.938 0 .75 0 1.421-.11 2.062C3.5-.297 2.937 0 2.484 0zm0 0" stroke="none"/></symbol><symbol overflow="visible" id="I"><path d="M2.938-1.64v.859c0 .36-.032.469-.766.469h-.203V0c.406-.031.922-.031 1.343-.031.422 0 .938 0 1.36.031v-.313h-.219c-.734 0-.75-.109-.75-.468v-.86h.985v-.312h-.985v-4.531c0-.204 0-.266-.172-.266-.078 0-.11 0-.187.125L.28-1.953v.312zm.046-.313H.563l2.421-3.719zm0 0" stroke="none"/></symbol><symbol overflow="visible" id="H"><path d="M2.031-.016c0-.656-.25-1.046-.64-1.046a.517.517 0 0 0-.532.53c0 .266.204.532.532.532a.58.58 0 0 0 .343-.125c.032-.031.047-.031.047-.031.016 0 .016 0 .016.14 0 .75-.344 1.344-.672 1.672-.11.11-.11.125-.11.157 0 .078.048.109.094.109.11 0 .922-.766.922-1.938zm0 0" stroke="none"/></symbol></defs><use height="744.094" width="1052.362" xlink:href="#G" x="223.432" y="134.765"/><use height="744.094" width="1052.362" xlink:href="#H" x="228.413" y="134.765"/><use height="744.094" width="1052.362" xlink:href="#I" x="232.841" y="134.765"/></g><g transform="translate(-130.446 546.003) scale(2.18063)" ns0:text="$0,5$" fill="#4d4d4d" stroke="#4d4d4d" stroke-width="1.376"><defs><symbol id="J" overflow="visible"><path d="M4.578-3.188c0-.796-.047-1.593-.39-2.328C3.733-6.484 2.905-6.64 2.5-6.64c-.61 0-1.328.266-1.75 1.188-.313.687-.36 1.469-.36 2.266 0 .75.032 1.64.454 2.406a1.83 1.83 0 0 0 1.64 1c.532 0 1.297-.203 1.735-1.157.312-.687.36-1.468.36-2.25zM2.484 0c-.39 0-.984-.25-1.156-1.203-.11-.594-.11-1.516-.11-2.11 0-.64 0-1.296.079-1.828.187-1.187.937-1.28 1.187-1.28.329 0 .985.187 1.172 1.171.11.563.11 1.313.11 1.938 0 .75 0 1.421-.11 2.062C3.5-.297 2.937 0 2.484 0zm0 0" stroke="none"/></symbol><symbol id="L" overflow="visible"><path d="M4.469-2c0-1.188-.813-2.188-1.89-2.188-.47 0-.907.157-1.267.516v-1.953c.204.063.532.125.844.125 1.235 0 1.938-.906 1.938-1.031 0-.063-.032-.11-.11-.11 0 0-.03 0-.078.032a3.22 3.22 0 0 1-1.36.296c-.39 0-.858-.078-1.327-.28-.078-.032-.094-.032-.11-.032C1-6.625 1-6.547 1-6.391v2.954c0 .171 0 .25.14.25.079 0 .094-.016.141-.079.11-.156.469-.703 1.282-.703.515 0 .765.453.843.64.156.376.188.75.188 1.25 0 .36 0 .954-.25 1.376-.235.39-.61.64-1.063.64-.719 0-1.297-.53-1.469-1.109.032 0 .063.016.172.016.329 0 .5-.25.5-.485 0-.25-.171-.5-.5-.5-.14 0-.484.079-.484.532C.5-.75 1.188.219 2.297.219 3.453.219 4.469-.734 4.469-2zm0 0" stroke="none"/></symbol><symbol id="K" overflow="visible"><path d="M2.031-.016c0-.656-.25-1.046-.64-1.046a.517.517 0 0 0-.532.53c0 .266.204.532.532.532a.58.58 0 0 0 .343-.125c.032-.031.047-.031.047-.031.016 0 .016 0 .016.14 0 .75-.344 1.344-.672 1.672-.11.11-.11.125-.11.157 0 .078.048.109.094.109.11 0 .922-.766.922-1.938zm0 0" stroke="none"/></symbol></defs><use height="744.094" width="1052.362" y="134.765" x="223.432" xlink:href="#J"/><use height="744.094" width="1052.362" y="134.765" x="228.413" xlink:href="#K"/><use height="744.094" width="1052.362" y="134.765" x="232.841" xlink:href="#L"/></g><g ns0:text="$0,6$" transform="translate(-79.273 546.003) scale(2.18063)" fill="#4d4d4d" stroke="#4d4d4d" stroke-width="1.376"><defs><symbol overflow="visible" id="M"><path d="M4.578-3.188c0-.796-.047-1.593-.39-2.328C3.733-6.484 2.905-6.64 2.5-6.64c-.61 0-1.328.266-1.75 1.188-.313.687-.36 1.469-.36 2.266 0 .75.032 1.64.454 2.406a1.83 1.83 0 0 0 1.64 1c.532 0 1.297-.203 1.735-1.157.312-.687.36-1.468.36-2.25zM2.484 0c-.39 0-.984-.25-1.156-1.203-.11-.594-.11-1.516-.11-2.11 0-.64 0-1.296.079-1.828.187-1.187.937-1.28 1.187-1.28.329 0 .985.187 1.172 1.171.11.563.11 1.313.11 1.938 0 .75 0 1.421-.11 2.062C3.5-.297 2.937 0 2.484 0zm0 0" stroke="none"/></symbol><symbol overflow="visible" id="O"><path d="M1.313-3.266v-.25c0-2.515 1.234-2.875 1.75-2.875.234 0 .656.063.874.407-.156 0-.546 0-.546.437 0 .313.234.469.453.469.156 0 .469-.094.469-.484 0-.594-.438-1.079-1.266-1.079C1.766-6.64.422-5.359.422-3.156.422-.484 1.578.219 2.5.219c1.11 0 2.063-.938 2.063-2.25 0-1.266-.891-2.219-2-2.219-.672 0-1.047.5-1.25.984zM2.5-.062c-.625 0-.922-.594-.984-.75-.188-.47-.188-1.266-.188-1.438 0-.781.328-1.781 1.219-1.781.172 0 .625 0 .937.625.172.36.172.875.172 1.36 0 .483 0 .983-.172 1.343-.296.594-.75.64-.984.64zm0 0" stroke="none"/></symbol><symbol overflow="visible" id="N"><path d="M2.031-.016c0-.656-.25-1.046-.64-1.046a.517.517 0 0 0-.532.53c0 .266.204.532.532.532a.58.58 0 0 0 .343-.125c.032-.031.047-.031.047-.031.016 0 .016 0 .016.14 0 .75-.344 1.344-.672 1.672-.11.11-.11.125-.11.157 0 .078.048.109.094.109.11 0 .922-.766.922-1.938zm0 0" stroke="none"/></symbol></defs><use height="744.094" width="1052.362" xlink:href="#M" x="223.432" y="134.765"/><use height="744.094" width="1052.362" xlink:href="#N" x="228.413" y="134.765"/><use height="744.094" width="1052.362" xlink:href="#O" x="232.841" y="134.765"/></g><g transform="translate(-28.288 546.105) scale(2.18063)" ns0:text="$0,7$" fill="#4d4d4d" stroke="#4d4d4d" stroke-width="1.376"><defs><symbol id="P" overflow="visible"><path d="M4.578-3.188c0-.796-.047-1.593-.39-2.328C3.733-6.484 2.905-6.64 2.5-6.64c-.61 0-1.328.266-1.75 1.188-.313.687-.36 1.469-.36 2.266 0 .75.032 1.64.454 2.406a1.83 1.83 0 0 0 1.64 1c.532 0 1.297-.203 1.735-1.157.312-.687.36-1.468.36-2.25zM2.484 0c-.39 0-.984-.25-1.156-1.203-.11-.594-.11-1.516-.11-2.11 0-.64 0-1.296.079-1.828.187-1.187.937-1.28 1.187-1.28.329 0 .985.187 1.172 1.171.11.563.11 1.313.11 1.938 0 .75 0 1.421-.11 2.062C3.5-.297 2.937 0 2.484 0zm0 0" stroke="none"/></symbol><symbol id="R" overflow="visible"><path d="M4.75-6.078c.078-.11.078-.125.078-.344H2.406c-1.203 0-1.234-.125-1.265-.312H.89L.562-4.688h.25c.032-.156.11-.78.25-.906.063-.062.844-.062.97-.062h2.062c-.11.156-.89 1.25-1.11 1.578C2.078-2.734 1.75-1.344 1.75-.328c0 .094 0 .547.469.547.453 0 .453-.453.453-.547v-.516c0-.547.031-1.094.11-1.625.046-.234.171-1.094.624-1.703zm0 0" stroke="none"/></symbol><symbol id="Q" overflow="visible"><path d="M2.031-.016c0-.656-.25-1.046-.64-1.046a.517.517 0 0 0-.532.53c0 .266.204.532.532.532a.58.58 0 0 0 .343-.125c.032-.031.047-.031.047-.031.016 0 .016 0 .016.14 0 .75-.344 1.344-.672 1.672-.11.11-.11.125-.11.157 0 .078.048.109.094.109.11 0 .922-.766.922-1.938zm0 0" stroke="none"/></symbol></defs><use height="744.094" width="1052.362" y="134.765" x="223.432" xlink:href="#P"/><use height="744.094" width="1052.362" y="134.765" x="228.413" xlink:href="#Q"/><use height="744.094" width="1052.362" y="134.765" x="232.841" xlink:href="#R"/></g><g ns0:text="$0,8$" transform="translate(23.277 546.003) scale(2.18063)" fill="#4d4d4d" stroke="#4d4d4d" stroke-width="1.376"><defs><symbol overflow="visible" id="S"><path d="M4.578-3.188c0-.796-.047-1.593-.39-2.328C3.733-6.484 2.905-6.64 2.5-6.64c-.61 0-1.328.266-1.75 1.188-.313.687-.36 1.469-.36 2.266 0 .75.032 1.64.454 2.406a1.83 1.83 0 0 0 1.64 1c.532 0 1.297-.203 1.735-1.157.312-.687.36-1.468.36-2.25zM2.484 0c-.39 0-.984-.25-1.156-1.203-.11-.594-.11-1.516-.11-2.11 0-.64 0-1.296.079-1.828.187-1.187.937-1.28 1.187-1.28.329 0 .985.187 1.172 1.171.11.563.11 1.313.11 1.938 0 .75 0 1.421-.11 2.062C3.5-.297 2.937 0 2.484 0zm0 0" stroke="none"/></symbol><symbol overflow="visible" id="U"><path d="M1.625-4.563c-.453-.296-.5-.625-.5-.796 0-.61.656-1.032 1.36-1.032.718 0 1.359.516 1.359 1.235 0 .578-.39 1.047-.985 1.39zm1.453.954c.719-.375 1.203-.891 1.203-1.547 0-.922-.875-1.485-1.781-1.485-1 0-1.813.735-1.813 1.672 0 .172.016.625.438 1.094.11.11.484.36.734.531C1.281-3.047.422-2.5.422-1.5.422-.453 1.438.219 2.484.219c1.125 0 2.079-.828 2.079-1.89 0-.36-.11-.813-.5-1.235-.188-.203-.344-.297-.985-.703zm-1 .421l1.235.782c.28.187.75.484.75 1.094 0 .734-.75 1.25-1.563 1.25C1.64-.063.922-.672.922-1.5c0-.578.312-1.219 1.156-1.688zm0 0" stroke="none"/></symbol><symbol overflow="visible" id="T"><path d="M2.031-.016c0-.656-.25-1.046-.64-1.046a.517.517 0 0 0-.532.53c0 .266.204.532.532.532a.58.58 0 0 0 .343-.125c.032-.031.047-.031.047-.031.016 0 .016 0 .016.14 0 .75-.344 1.344-.672 1.672-.11.11-.11.125-.11.157 0 .078.048.109.094.109.11 0 .922-.766.922-1.938zm0 0" stroke="none"/></symbol></defs><use height="744.094" width="1052.362" xlink:href="#S" x="223.432" y="134.765"/><use height="744.094" width="1052.362" xlink:href="#T" x="228.413" y="134.765"/><use height="744.094" width="1052.362" xlink:href="#U" x="232.841" y="134.765"/></g><g transform="translate(74.552 546.003) scale(2.18063)" ns0:text="$0,9$" fill="#4d4d4d" stroke="#4d4d4d" stroke-width="1.376"><defs><symbol id="V" overflow="visible"><path d="M4.578-3.188c0-.796-.047-1.593-.39-2.328C3.733-6.484 2.905-6.64 2.5-6.64c-.61 0-1.328.266-1.75 1.188-.313.687-.36 1.469-.36 2.266 0 .75.032 1.64.454 2.406a1.83 1.83 0 0 0 1.64 1c.532 0 1.297-.203 1.735-1.157.312-.687.36-1.468.36-2.25zM2.484 0c-.39 0-.984-.25-1.156-1.203-.11-.594-.11-1.516-.11-2.11 0-.64 0-1.296.079-1.828.187-1.187.937-1.28 1.187-1.28.329 0 .985.187 1.172 1.171.11.563.11 1.313.11 1.938 0 .75 0 1.421-.11 2.062C3.5-.297 2.937 0 2.484 0zm0 0" stroke="none"/></symbol><symbol id="X" overflow="visible"><path d="M3.656-3.172v.328c0 2.328-1.031 2.781-1.61 2.781-.171 0-.718-.015-.983-.359.437 0 .515-.281.515-.453 0-.313-.234-.453-.453-.453-.156 0-.453.078-.453.469 0 .671.531 1.078 1.375 1.078 1.297 0 2.515-1.36 2.515-3.5 0-2.688-1.156-3.36-2.046-3.36-.547 0-1.032.188-1.454.625-.421.454-.64.875-.64 1.625 0 1.235.875 2.22 1.984 2.22.61 0 1.016-.423 1.25-1zm-1.234.766c-.156 0-.625 0-.922-.625-.188-.375-.188-.86-.188-1.36 0-.53 0-1 .22-1.375.265-.5.64-.625.984-.625.468 0 .796.344.968.782.11.328.157.953.157 1.406 0 .828-.344 1.797-1.22 1.797zm0 0" stroke="none"/></symbol><symbol id="W" overflow="visible"><path d="M2.031-.016c0-.656-.25-1.046-.64-1.046a.517.517 0 0 0-.532.53c0 .266.204.532.532.532a.58.58 0 0 0 .343-.125c.032-.031.047-.031.047-.031.016 0 .016 0 .016.14 0 .75-.344 1.344-.672 1.672-.11.11-.11.125-.11.157 0 .078.048.109.094.109.11 0 .922-.766.922-1.938zm0 0" stroke="none"/></symbol></defs><use height="744.094" width="1052.362" y="134.765" x="223.432" xlink:href="#V"/><use height="744.094" width="1052.362" y="134.765" x="228.413" xlink:href="#W"/><use height="744.094" width="1052.362" y="134.765" x="232.841" xlink:href="#X"/></g><g ns0:text="$1,0$" transform="translate(125.265 546.003) scale(2.18063)" opacity=".99" fill="#4d4d4d" stroke="#4d4d4d" stroke-width="1.376"><defs><symbol overflow="visible" id="Y"><path d="M2.938-6.375c0-.25 0-.266-.235-.266C2.078-6 1.203-6 .891-6v.313c.203 0 .78 0 1.296-.266v5.172c0 .36-.03.469-.921.469H.953V0c.344-.031 1.203-.031 1.61-.031.39 0 1.265 0 1.609.031v-.313h-.313c-.906 0-.921-.109-.921-.468zm0 0" stroke="none"/></symbol><symbol overflow="visible" id="aa"><path d="M4.578-3.188c0-.796-.047-1.593-.39-2.328C3.733-6.484 2.905-6.64 2.5-6.64c-.61 0-1.328.266-1.75 1.188-.313.687-.36 1.469-.36 2.266 0 .75.032 1.64.454 2.406a1.83 1.83 0 0 0 1.64 1c.532 0 1.297-.203 1.735-1.157.312-.687.36-1.468.36-2.25zM2.484 0c-.39 0-.984-.25-1.156-1.203-.11-.594-.11-1.516-.11-2.11 0-.64 0-1.296.079-1.828.187-1.187.937-1.28 1.187-1.28.329 0 .985.187 1.172 1.171.11.563.11 1.313.11 1.938 0 .75 0 1.421-.11 2.062C3.5-.297 2.937 0 2.484 0zm0 0" stroke="none"/></symbol><symbol overflow="visible" id="Z"><path d="M2.031-.016c0-.656-.25-1.046-.64-1.046a.517.517 0 0 0-.532.53c0 .266.204.532.532.532a.58.58 0 0 0 .343-.125c.032-.031.047-.031.047-.031.016 0 .016 0 .016.14 0 .75-.344 1.344-.672 1.672-.11.11-.11.125-.11.157 0 .078.048.109.094.109.11 0 .922-.766.922-1.938zm0 0" stroke="none"/></symbol></defs><use height="744.094" width="1052.362" xlink:href="#Y" x="223.432" y="134.765"/><use height="744.094" width="1052.362" xlink:href="#Z" x="228.413" y="134.765"/><use height="744.094" width="1052.362" xlink:href="#aa" x="232.841" y="134.765"/></g><g transform="translate(-415.493 209.332) scale(2.18063)" ns0:text="$60$" fill="#4d4d4d" stroke="#4d4d4d" stroke-width="1.376"><defs><symbol id="ab" overflow="visible"><path d="M1.313-3.266v-.25c0-2.515 1.234-2.875 1.75-2.875.234 0 .656.063.874.407-.156 0-.546 0-.546.437 0 .313.234.469.453.469.156 0 .469-.094.469-.484 0-.594-.438-1.079-1.266-1.079C1.766-6.64.422-5.359.422-3.156.422-.484 1.578.219 2.5.219c1.11 0 2.063-.938 2.063-2.25 0-1.266-.891-2.219-2-2.219-.672 0-1.047.5-1.25.984zM2.5-.062c-.625 0-.922-.594-.984-.75-.188-.47-.188-1.266-.188-1.438 0-.781.328-1.781 1.219-1.781.172 0 .625 0 .937.625.172.36.172.875.172 1.36 0 .483 0 .983-.172 1.343-.296.594-.75.64-.984.64zm0 0" stroke="none"/></symbol><symbol id="ac" overflow="visible"><path d="M4.578-3.188c0-.796-.047-1.593-.39-2.328C3.733-6.484 2.905-6.64 2.5-6.64c-.61 0-1.328.266-1.75 1.188-.313.687-.36 1.469-.36 2.266 0 .75.032 1.64.454 2.406a1.83 1.83 0 0 0 1.64 1c.532 0 1.297-.203 1.735-1.157.312-.687.36-1.468.36-2.25zM2.484 0c-.39 0-.984-.25-1.156-1.203-.11-.594-.11-1.516-.11-2.11 0-.64 0-1.296.079-1.828.187-1.187.937-1.28 1.187-1.28.329 0 .985.187 1.172 1.171.11.563.11 1.313.11 1.938 0 .75 0 1.421-.11 2.062C3.5-.297 2.937 0 2.484 0zm0 0" stroke="none"/></symbol></defs><use y="134.765" x="223.432" xlink:href="#ab" width="1052.362" height="744.094"/><use y="134.765" x="228.413" xlink:href="#ac" width="1052.362" height="744.094"/></g><g ns0:text="$70$" transform="translate(-415.493 158.16) scale(2.18063)" fill="#4d4d4d" stroke="#4d4d4d" stroke-width="1.376"><defs><symbol overflow="visible" id="ad"><path d="M4.75-6.078c.078-.11.078-.125.078-.344H2.406c-1.203 0-1.234-.125-1.265-.312H.89L.562-4.688h.25c.032-.156.11-.78.25-.906.063-.062.844-.062.97-.062h2.062c-.11.156-.89 1.25-1.11 1.578C2.078-2.734 1.75-1.344 1.75-.328c0 .094 0 .547.469.547.453 0 .453-.453.453-.547v-.516c0-.547.031-1.094.11-1.625.046-.234.171-1.094.624-1.703zm0 0" stroke="none"/></symbol><symbol overflow="visible" id="ae"><path d="M4.578-3.188c0-.796-.047-1.593-.39-2.328C3.733-6.484 2.905-6.64 2.5-6.64c-.61 0-1.328.266-1.75 1.188-.313.687-.36 1.469-.36 2.266 0 .75.032 1.64.454 2.406a1.83 1.83 0 0 0 1.64 1c.532 0 1.297-.203 1.735-1.157.312-.687.36-1.468.36-2.25zM2.484 0c-.39 0-.984-.25-1.156-1.203-.11-.594-.11-1.516-.11-2.11 0-.64 0-1.296.079-1.828.187-1.187.937-1.28 1.187-1.28.329 0 .985.187 1.172 1.171.11.563.11 1.313.11 1.938 0 .75 0 1.421-.11 2.062C3.5-.297 2.937 0 2.484 0zm0 0" stroke="none"/></symbol></defs><use xlink:href="#ad" x="223.432" y="134.765" width="1052.362" height="744.094"/><use xlink:href="#ae" x="228.413" y="134.765" width="1052.362" height="744.094"/></g><g transform="translate(-415.493 106.783) scale(2.18063)" ns0:text="$80$" fill="#4d4d4d" stroke="#4d4d4d" stroke-width="1.376"><defs><symbol id="af" overflow="visible"><path d="M1.625-4.563c-.453-.296-.5-.625-.5-.796 0-.61.656-1.032 1.36-1.032.718 0 1.359.516 1.359 1.235 0 .578-.39 1.047-.985 1.39zm1.453.954c.719-.375 1.203-.891 1.203-1.547 0-.922-.875-1.485-1.781-1.485-1 0-1.813.735-1.813 1.672 0 .172.016.625.438 1.094.11.11.484.36.734.531C1.281-3.047.422-2.5.422-1.5.422-.453 1.438.219 2.484.219c1.125 0 2.079-.828 2.079-1.89 0-.36-.11-.813-.5-1.235-.188-.203-.344-.297-.985-.703zm-1 .421l1.235.782c.28.187.75.484.75 1.094 0 .734-.75 1.25-1.563 1.25C1.64-.063.922-.672.922-1.5c0-.578.312-1.219 1.156-1.688zm0 0" stroke="none"/></symbol><symbol id="ag" overflow="visible"><path d="M4.578-3.188c0-.796-.047-1.593-.39-2.328C3.733-6.484 2.905-6.64 2.5-6.64c-.61 0-1.328.266-1.75 1.188-.313.687-.36 1.469-.36 2.266 0 .75.032 1.64.454 2.406a1.83 1.83 0 0 0 1.64 1c.532 0 1.297-.203 1.735-1.157.312-.687.36-1.468.36-2.25zM2.484 0c-.39 0-.984-.25-1.156-1.203-.11-.594-.11-1.516-.11-2.11 0-.64 0-1.296.079-1.828.187-1.187.937-1.28 1.187-1.28.329 0 .985.187 1.172 1.171.11.563.11 1.313.11 1.938 0 .75 0 1.421-.11 2.062C3.5-.297 2.937 0 2.484 0zm0 0" stroke="none"/></symbol></defs><use y="134.765" x="223.432" xlink:href="#af" width="1052.362" height="744.094"/><use y="134.765" x="228.413" xlink:href="#ag" width="1052.362" height="744.094"/></g><g ns0:text="$90$" transform="translate(-415.493 55.508) scale(2.18063)" fill="#4d4d4d" stroke="#4d4d4d" stroke-width="1.376"><defs><symbol overflow="visible" id="ah"><path d="M3.656-3.172v.328c0 2.328-1.031 2.781-1.61 2.781-.171 0-.718-.015-.983-.359.437 0 .515-.281.515-.453 0-.313-.234-.453-.453-.453-.156 0-.453.078-.453.469 0 .671.531 1.078 1.375 1.078 1.297 0 2.515-1.36 2.515-3.5 0-2.688-1.156-3.36-2.046-3.36-.547 0-1.032.188-1.454.625-.421.454-.64.875-.64 1.625 0 1.235.875 2.22 1.984 2.22.61 0 1.016-.423 1.25-1zm-1.234.766c-.156 0-.625 0-.922-.625-.188-.375-.188-.86-.188-1.36 0-.53 0-1 .22-1.375.265-.5.64-.625.984-.625.468 0 .796.344.968.782.11.328.157.953.157 1.406 0 .828-.344 1.797-1.22 1.797zm0 0" stroke="none"/></symbol><symbol overflow="visible" id="ai"><path d="M4.578-3.188c0-.796-.047-1.593-.39-2.328C3.733-6.484 2.905-6.64 2.5-6.64c-.61 0-1.328.266-1.75 1.188-.313.687-.36 1.469-.36 2.266 0 .75.032 1.64.454 2.406a1.83 1.83 0 0 0 1.64 1c.532 0 1.297-.203 1.735-1.157.312-.687.36-1.468.36-2.25zM2.484 0c-.39 0-.984-.25-1.156-1.203-.11-.594-.11-1.516-.11-2.11 0-.64 0-1.296.079-1.828.187-1.187.937-1.28 1.187-1.28.329 0 .985.187 1.172 1.171.11.563.11 1.313.11 1.938 0 .75 0 1.421-.11 2.062C3.5-.297 2.937 0 2.484 0zm0 0" stroke="none"/></symbol></defs><use xlink:href="#ah" x="223.432" y="134.765" width="1052.362" height="744.094"/><use xlink:href="#ai" x="228.413" y="134.765" width="1052.362" height="744.094"/></g><g transform="translate(-426.356 4.233) scale(2.18063)" ns0:text="$100$" fill="#4d4d4d" stroke="#4d4d4d" stroke-width="1.376"><defs><symbol id="aj" overflow="visible"><path d="M2.938-6.375c0-.25 0-.266-.235-.266C2.078-6 1.203-6 .891-6v.313c.203 0 .78 0 1.296-.266v5.172c0 .36-.03.469-.921.469H.953V0c.344-.031 1.203-.031 1.61-.031.39 0 1.265 0 1.609.031v-.313h-.313c-.906 0-.921-.109-.921-.468zm0 0" stroke="none"/></symbol><symbol id="ak" overflow="visible"><path d="M4.578-3.188c0-.796-.047-1.593-.39-2.328C3.733-6.484 2.905-6.64 2.5-6.64c-.61 0-1.328.266-1.75 1.188-.313.687-.36 1.469-.36 2.266 0 .75.032 1.64.454 2.406a1.83 1.83 0 0 0 1.64 1c.532 0 1.297-.203 1.735-1.157.312-.687.36-1.468.36-2.25zM2.484 0c-.39 0-.984-.25-1.156-1.203-.11-.594-.11-1.516-.11-2.11 0-.64 0-1.296.079-1.828.187-1.187.937-1.28 1.187-1.28.329 0 .985.187 1.172 1.171.11.563.11 1.313.11 1.938 0 .75 0 1.421-.11 2.062C3.5-.297 2.937 0 2.484 0zm0 0" stroke="none"/></symbol></defs><use y="134.765" x="223.432" xlink:href="#aj" width="1052.362" height="744.094"/><use y="134.765" x="228.413" xlink:href="#ak" width="1052.362" height="744.094"/><use y="134.765" x="233.395" xlink:href="#ak" width="1052.362" height="744.094"/></g><path d="M115.96 804.173h601.473" fill="none" stroke="#000" stroke-width="3.076" stroke-linecap="round" marker-end="url(#b)"/></svg>