<svg xmlns:ns0="http://www.iki.fi/pav/software/textext/" xmlns="http://www.w3.org/2000/svg" xmlns:xlink="http://www.w3.org/1999/xlink" width="372.047" height="262.205"><title>Schaltzeichen Roehrendiode</title><g transform="rotate(90 94.614 168.305) scale(1.92944)" fill-rule="evenodd" stroke-width="1.555"><circle transform="translate(0 .535)" class="fil0 str0" cx="29.488" cy="39.318" r="27.636" fill="none" stroke="#1f1a17"/><path class="fil0 str0" d="M19.574 61.624c0-5.26 4.266-9.526 9.526-9.526s9.527 4.266 9.527 9.526" fill="none" stroke="#1f1a17"/><path class="fil0 str0" fill="none" stroke="#1f1a17" stroke-linecap="round" d="M19.574 61.624v36.803M38.627 61.624v36.803M29.488-18.952v40.214M17.604 21.262h23.769"/></g><g transform="translate(0 -793.33)"><g transform="translate(-561.298 394.8) scale(3.61553)" ns0:text="K" ns0:preamble="/home/waldgeist/data/sphinx/test.tex"><defs><symbol overflow="visible" id="b"><path d="M3.984-4.172l1.797-1.734c.078-.078.61-.578 1.422-.594v-.313c-.266.032-.578.032-.86.032-.359 0-.921 0-1.265-.032v.313c.406.016.469.234.469.328 0 .156-.11.266-.188.328L2.25-2.859v-3.172c0-.36.016-.469.781-.469h.235v-.313c-.344.032-1.079.032-1.47.032-.374 0-1.124 0-1.468-.032v.313h.234c.766 0 .797.11.797.469v5.25c0 .36-.03.469-.796.469H.328V0c.344-.031 1.094-.031 1.469-.031s1.125 0 1.469.031v-.313H3.03c-.765 0-.781-.109-.781-.468v-1.735l1.156-1.109L5.203-.953c.063.094.156.219.156.344 0 .296-.39.296-.593.296V0c.343-.031 1.046-.031 1.421-.031.36 0 .735.015 1.157.031v-.313c-.547 0-.75-.03-1.047-.468zm0 0"/></symbol></defs></g><g transform="translate(-709.987 395.14) scale(3.61553)" ns0:preamble="/home/waldgeist/data/sphinx/test.tex" ns0:text="A"><defs><symbol id="a" overflow="visible"><path d="M3.969-6.938c-.047-.125-.078-.203-.235-.203-.156 0-.187.063-.234.204L1.437-.984C1.25-.47.86-.313.313-.313V0c.235-.016.672-.031 1.016-.031.313 0 .828.015 1.156.031v-.313c-.5 0-.75-.25-.75-.5 0-.03.016-.14.016-.156l.469-1.297h2.453L5.203-.75a.58.58 0 0 1 .031.14c0 .297-.562.297-.828.297V0c.36-.031 1.063-.031 1.438-.031.422 0 .89.015 1.297.031v-.313h-.172c-.594 0-.735-.062-.844-.39zm-.531 1.11l1.124 3.25H2.329zm0 0"/></symbol></defs><use transform="translate(41.234 -31.377)" height="262.205" width="372.047" xlink:href="#a" x="223.432" y="134.765"/></g><use height="262.205" width="372.047" xlink:href="#b" x="223.432" y="134.765" transform="translate(-710.382 281.101) scale(3.61553)"/></g></svg>