<svg xmlns="http://www.w3.org/2000/svg" width="372.047" height="262.205"><title>Schaltzeichen Glimmlampe</title><g stroke-width="3" stroke="#000"><path d="M299.261 131.102h-102.03" fill="none" stroke-linecap="round"/><path style="marker:none" d="M435.827 100.866c0 5.87-6.346 10.63-14.173 10.63-7.828 0-14.174-4.76-14.174-10.63 0-5.87 6.346-10.63 14.174-10.63 7.827 0 14.173 4.76 14.173 10.63z" transform="matrix(3.76475 0 0 -5.01966 -1400.97 637.416)" color="#000" fill="none" stroke-width=".69" stroke-linecap="square" overflow="visible"/><path d="M175.557 131.102H72.787M197.128 98.951v64.302M175.666 98.951v64.302" fill="none" stroke-linecap="round"/><path d="M200.989 105.912a6.96 6.96 0 1 1 13.92 0 6.96 6.96 0 0 1-13.92 0z" stroke-width="2.9998125"/></g></svg>