<svg xmlns="http://www.w3.org/2000/svg" width="372.047" height="262.205"><title>Spule mit veraenderlicher Induktivitaet</title><defs><marker id="a" orient="auto" overflow="visible"><path d="M2.308 0l-3.46 2v-4l3.46 2z" fill-rule="evenodd" stroke="#000" stroke-width=".4pt"/></marker></defs><path d="M103.81 131.102s0-22.16 20.465-22.16 20.465 22.16 20.465 22.16c0-22.16 20.465-22.16 20.465-22.16 20.465 0 20.465 22.16 20.465 22.16 0-22.16 20.465-22.16 20.465-22.16 20.465 0 20.465 22.16 20.465 22.16 0-22.16 20.465-22.16 20.465-22.16s20.465 0 20.465 22.16h30.698m-225.116 0h30.698" fill="none" stroke="#000" stroke-width="3" stroke-linecap="round"/><path d="M1406.61-1984.157l95.67-127.56" fill="none" stroke="#000" stroke-width="3" stroke-linecap="round" marker-end="url(#a)" transform="translate(-1270.478 2170.354)"/></svg>