<svg xmlns="http://www.w3.org/2000/svg" width="372.047" height="262.205"><title>Schaltzeichen Widerstand (Heissleiter)</title><defs><marker id="a" orient="auto" overflow="visible"><path d="M2.308 0l-3.46 2v-4l3.46 2z" fill-rule="evenodd" stroke="#000" stroke-width=".4pt"/></marker></defs><g fill="none" stroke="#000" stroke-width="3" stroke-linecap="round"><path d="M113.048 131.102H74.592M259 101.152v59.9H113.046v-59.9zM298.935 131.102H259"/><path d="M147.39 186.436l85.469-113.959h43.969"/></g><path d="M254.21 40.175c-3.71-.827-6.363-1.823-7.963-2.984-1.6-1.161-2.399-2.657-2.399-4.489 0-1.591.612-2.928 1.838-4.01 1.226-1.082 2.76-1.622 4.607-1.622 2.77 0 4.814.99 6.137 2.973 1.32 1.98 2.036 5.134 2.15 9.467.65.175 1.662.419 3.032.739.397.096.7.17.906.215l-.238 1.671c-1.05-.238-1.829-.42-2.339-.547a30.13 30.13 0 0 1-1.41-.385c-.269 7.02-1.591 12.568-3.962 16.643-2.37 4.072-5.434 6.111-9.192 6.111-1.654 0-3.072-.617-4.248-1.849-1.178-1.235-1.767-2.727-1.767-4.477 0-1.402.49-3.608 1.47-6.627.98-3.013 1.47-5.207 1.47-6.575 0-.572-.105-.991-.312-1.252-.206-.263-.532-.396-.98-.396-.572 0-1.229.43-1.968 1.288-.739.861-1.404 1.99-1.993 3.39l-1.17-.382c.844-2.116 1.85-3.764 3.019-4.942 1.17-1.178 2.384-1.767 3.642-1.767 1.209 0 2.18.425 2.914 1.277.73.852 1.098 1.977 1.098 3.378 0 1.578-.54 4.036-1.622 7.375-.128.413-.224.725-.286.931l-.145.479c-.844 2.784-1.266 4.536-1.266 5.25 0 .954.292 1.739.873 2.35.58.615 1.333.92 2.257.92 2.322 0 4.213-1.91 5.669-5.728 1.458-3.823 2.183-8.937 2.183-15.351v-1.074zm0-1.812c-.11-2.96-.558-5.216-1.337-6.768-.779-1.552-1.846-2.328-3.197-2.328-.906 0-1.654.317-2.243.954-.589.64-.883 1.45-.883 2.436 0 1.322.603 2.438 1.815 3.356 1.212.917 3.154 1.696 5.845 2.35z"/><g transform="translate(-179.151 -786.27) scale(.94656)" stroke-width="3.169" stroke-miterlimit="2.613" fill="none" stroke="#000" stroke-linecap="round" marker-end="url(#a)"><path d="M481.722 896.642v-28.688M499.627 861.432v28.687"/></g></svg>