<svg xmlns:ns0="http://www.iki.fi/pav/software/textext/" xmlns="http://www.w3.org/2000/svg" xmlns:xlink="http://www.w3.org/1999/xlink" height="262.205" width="372.047"><title>Schaltzeichen Roehrentriode</title><g transform="translate(0 -790.157)"><circle transform="matrix(0 -2.86686 -2.86686 0 302.953 991.162)" class="fil0 str0" cx="24.383" cy="40.786" r="18.598" fill="none" stroke="#1f1a17" stroke-width="1.046"/><path class="fil0 str0" d="M142.763 940.388c10.15 0 18.38-8.23 18.38-18.38 0-10.15-8.23-18.38-18.38-18.38" fill="none" stroke="#1f1a17" stroke-width="3"/><path class="fil0 str0" fill="none" stroke="#1f1a17" stroke-width="3" stroke-linecap="round" d="M142.763 940.388H72.786M142.763 903.628H72.786M299.261 921.26h-78.625M220.636 944.189V898.33M185.8 919.425v-21.157M185.8 892.352v-21.157M185.8 867.941v-21.158M185.8 846.783v-21.157M185.8 946.472v-21.158"/></g><g transform="translate(50.246 -822.019)"><g ns0:preamble="/home/waldgeist/data/sphinx/test.tex" ns0:text="K" transform="translate(-611.206 421.36) scale(3.61553)"><defs><symbol id="b" overflow="visible"><path d="M3.984-4.172l1.797-1.734c.078-.078.61-.578 1.422-.594v-.313c-.266.032-.578.032-.86.032-.359 0-.921 0-1.265-.032v.313c.406.016.469.234.469.328 0 .156-.11.266-.188.328L2.25-2.859v-3.172c0-.36.016-.469.781-.469h.235v-.313c-.344.032-1.079.032-1.47.032-.374 0-1.124 0-1.468-.032v.313h.234c.766 0 .797.11.797.469v5.25c0 .36-.03.469-.796.469H.328V0c.344-.031 1.094-.031 1.469-.031s1.125 0 1.469.031v-.313H3.03c-.765 0-.781-.109-.781-.468v-1.735l1.156-1.109L5.203-.953c.063.094.156.219.156.344 0 .296-.39.296-.593.296V0c.343-.031 1.046-.031 1.421-.031.36 0 .735.015 1.157.031v-.313c-.547 0-.75-.03-1.047-.468zm0 0"/></symbol></defs></g><g ns0:text="A" ns0:preamble="/home/waldgeist/data/sphinx/test.tex" transform="translate(-759.894 421.701) scale(3.61553)"><defs><symbol overflow="visible" id="a"><path d="M3.969-6.938c-.047-.125-.078-.203-.235-.203-.156 0-.187.063-.234.204L1.437-.984C1.25-.47.86-.313.313-.313V0c.235-.016.672-.031 1.016-.031.313 0 .828.015 1.156.031v-.313c-.5 0-.75-.25-.75-.5 0-.03.016-.14.016-.156l.469-1.297h2.453L5.203-.75a.58.58 0 0 1 .031.14c0 .297-.562.297-.828.297V0c.36-.031 1.063-.031 1.438-.031.422 0 .89.015 1.297.031v-.313h-.172c-.594 0-.735-.062-.844-.39zm-.531 1.11l1.124 3.25H2.329zm0 0"/></symbol></defs><use y="134.765" x="223.432" xlink:href="#a" width="372.047" height="262.205" transform="translate(41.234 -31.377)"/></g><use transform="translate(-760.29 307.663) scale(3.61553)" y="134.765" x="223.432" xlink:href="#b" width="372.047" height="262.205"/></g><g transform="translate(-636.066 -561.413) scale(3.61553)" ns0:preamble="/home/waldgeist/data/sphinx/test.tex" ns0:text="G"><defs><symbol id="c" overflow="visible"><path d="M5.906-.625c.14.219.532.61.64.61.095 0 .095-.079.095-.22v-1.734c0-.39.03-.437.687-.437v-.313c-.375 0-.922.031-1.219.031-.39 0-1.25 0-1.609-.03v.312h.328c.89 0 .922.11.922.469v.64c0 1.125-1.266 1.203-1.547 1.203-.64 0-2.625-.344-2.625-3.312 0-2.985 1.969-3.313 2.563-3.313 1.078 0 1.984.89 2.171 2.36.032.14.032.171.172.171.157 0 .157-.03.157-.234v-2.36c0-.171 0-.25-.11-.25-.047 0-.078 0-.156.126l-.5.734c-.328-.312-.86-.86-1.844-.86-1.86 0-3.468 1.579-3.468 3.626C.563-1.36 2.155.219 4.046.219c.734 0 1.531-.266 1.86-.844zm0 0"/></symbol></defs><use y="134.765" x="223.432" xlink:href="#c" width="372.047" height="262.205"/></g></svg>