<svg xmlns:ns0="http://www.iki.fi/pav/software/textext/" xmlns="http://www.w3.org/2000/svg" xmlns:xlink="http://www.w3.org/1999/xlink" width="372.047" height="262.205"><title>Schaltzeichen Spannungsregler</title><g transform="matrix(.97923 0 0 1 .434 -790.157)" stroke="#000" stroke-linecap="round"><path d="M126.426 921.26H75.408" id="a" fill="none" stroke-width="3.032"/><use xlink:href="#a" transform="matrix(.9553 0 0 1 179.484 0)" width="372.047" height="262.205" stroke-width="3.102"/></g><path fill="none" stroke="#000" stroke-width="2.9998838699999997" stroke-linecap="round" d="M247.814 80.679v100.847H124.233V80.679z"/><path d="M186.024 181.526v19.933" fill="none" stroke="#000" stroke-width="3.0000383999999998" stroke-linecap="round"/><g transform="matrix(1.92838 0 0 1.92838 -299.709 -122.207)" ns0:text="IN" ns0:preamble="/home/waldgeist/data/sphinx/inkscape-preamble.tex"><defs><symbol overflow="visible" id="b"><path d="M2.25-6.031c0-.36.016-.469.813-.469h.25v-.313c-.344.032-1.126.032-1.516.032-.375 0-1.172 0-1.516-.032v.313h.25c.797 0 .828.11.828.469v5.25c0 .36-.03.469-.828.469h-.25V0c.344-.031 1.14-.031 1.516-.031.39 0 1.172 0 1.516.031v-.313h-.25c-.797 0-.813-.109-.813-.468zm0 0"/></symbol><symbol overflow="visible" id="c"><path d="M2.313-6.672c-.094-.125-.094-.14-.282-.14H.328v.312h.297c.14 0 .344.016.484.016.235.03.25.046.25.234v5.203c0 .266 0 .734-1.03.734V0c.343-.016.843-.031 1.171-.031.328 0 .813.015 1.156.031v-.313c-1.015 0-1.015-.468-1.015-.734v-5.187c.046.046.046.062.093.125L5.797-.125c.094.11.11.125.172.125.14 0 .14-.063.14-.266v-5.5c0-.265 0-.734 1.032-.734v-.313c-.36.016-.844.032-1.172.032-.328 0-.813-.016-1.157-.032v.313c1.016 0 1.016.469 1.016.734V-1.5zm0 0"/></symbol></defs><use height="262.205" width="372.047" xlink:href="#b" x="223.432" y="134.765"/><use height="262.205" width="372.047" xlink:href="#c" x="227.03" y="134.765"/></g><g transform="matrix(1.92838 0 0 1.92838 -233.028 -122.207)" ns0:preamble="/home/waldgeist/data/sphinx/inkscape-preamble.tex" ns0:text="OUT"><defs><symbol id="d" overflow="visible"><path d="M7.188-3.375c0-2.031-1.5-3.656-3.313-3.656-1.797 0-3.313 1.593-3.313 3.656C.563-1.328 2.095.219 3.876.219c1.813 0 3.313-1.578 3.313-3.594zM3.874-.047c-.953 0-2.297-.875-2.297-3.469 0-2.578 1.469-3.265 2.297-3.265.86 0 2.281.703 2.281 3.265 0 2.641-1.36 3.47-2.281 3.47zm0 0"/></symbol><symbol id="e" overflow="visible"><path d="M5.797-2.297c0 1.406-.969 2.203-1.906 2.203-.47 0-1.641-.25-1.641-2.14v-3.797c0-.36.016-.469.781-.469h.235v-.313c-.344.032-1.079.032-1.47.032-.374 0-1.124 0-1.468-.032v.313h.234c.766 0 .797.11.797.469v3.765C1.36-.875 2.516.22 3.875.22c1.14 0 2.031-.922 2.203-2.063.031-.203.031-.297.031-.687V-5.72c0-.328 0-.781 1.032-.781v-.313c-.36.016-.844.032-1.172.032-.36 0-.828-.016-1.188-.032v.313c1.016 0 1.016.469 1.016.734zm0 0"/></symbol><symbol id="f" overflow="visible"><path d="M6.64-6.75H.548L.359-4.5h.25C.75-6.11.891-6.438 2.406-6.438c.172 0 .438 0 .531.016.22.047.22.156.22.375V-.78c0 .328 0 .469-1.048.469h-.406V0c.406-.031 1.422-.031 1.89-.031.454 0 1.485 0 1.891.031v-.313h-.406c-1.047 0-1.047-.14-1.047-.468v-5.266c0-.187 0-.328.188-.375.11-.016.375-.016.562-.016 1.516 0 1.657.329 1.797 1.938h.25zm0 0"/></symbol></defs><use height="262.205" width="372.047" y="134.765" x="223.432" xlink:href="#d"/><use height="262.205" width="372.047" y="134.765" x="231.181" xlink:href="#e"/><use height="262.205" width="372.047" y="134.765" x="238.653" xlink:href="#f"/></g><g transform="matrix(1.92838 0 0 1.92838 -266.917 -87.147)" ns0:preamble="/home/waldgeist/data/sphinx/inkscape-preamble.tex" ns0:text="GND"><defs><symbol id="g" overflow="visible"><path d="M5.906-.625c.14.219.532.61.64.61.095 0 .095-.079.095-.22v-1.734c0-.39.03-.437.687-.437v-.313c-.375 0-.922.031-1.219.031-.39 0-1.25 0-1.609-.03v.312h.328c.89 0 .922.11.922.469v.64c0 1.125-1.266 1.203-1.547 1.203-.64 0-2.625-.344-2.625-3.312 0-2.985 1.969-3.313 2.563-3.313 1.078 0 1.984.89 2.171 2.36.032.14.032.171.172.171.157 0 .157-.03.157-.234v-2.36c0-.171 0-.25-.11-.25-.047 0-.078 0-.156.126l-.5.734c-.328-.312-.86-.86-1.844-.86-1.86 0-3.468 1.579-3.468 3.626C.563-1.36 2.155.219 4.046.219c.734 0 1.531-.266 1.86-.844zm0 0"/></symbol><symbol id="h" overflow="visible"><path d="M2.313-6.672c-.094-.125-.094-.14-.282-.14H.328v.312h.297c.14 0 .344.016.484.016.235.03.25.046.25.234v5.203c0 .266 0 .734-1.03.734V0c.343-.016.843-.031 1.171-.031.328 0 .813.015 1.156.031v-.313c-1.015 0-1.015-.468-1.015-.734v-5.187c.046.046.046.062.093.125L5.797-.125c.094.11.11.125.172.125.14 0 .14-.063.14-.266v-5.5c0-.265 0-.734 1.032-.734v-.313c-.36.016-.844.032-1.172.032-.328 0-.813-.016-1.157-.032v.313c1.016 0 1.016.469 1.016.734V-1.5zm0 0"/></symbol><symbol id="i" overflow="visible"><path d="M.344-6.813v.313h.25c.765 0 .781.11.781.469v5.25c0 .36-.016.469-.781.469h-.25V0H4c1.672 0 3.047-1.469 3.047-3.344C7.047-5.25 5.703-6.813 4-6.813zm2.375 6.5c-.469 0-.485-.062-.485-.39v-5.39c0-.345.016-.407.485-.407h1c.625 0 1.312.219 1.812.922.438.594.516 1.453.516 2.234 0 1.094-.188 1.703-.547 2.188a2.192 2.192 0 0 1-1.766.843zm0 0"/></symbol></defs><use y="134.765" x="223.432" xlink:href="#g" width="372.047" height="262.205"/><use y="134.765" x="231.25" xlink:href="#h" width="372.047" height="262.205"/><use y="134.765" x="238.722" xlink:href="#i" width="372.047" height="262.205"/></g></svg>