<svg xmlns="http://www.w3.org/2000/svg" width="372.047" height="262.205"><title>Schaltzeichen Leuchtstoffroehre</title><path d="M219.366 116.571c-2.497 0-4.524-2.151-4.524-4.8 0-2.65 2.027-4.802 4.524-4.802s4.523 2.151 4.523 4.802c0 2.65-2.026 4.8-4.523 4.8z" fill-rule="evenodd"/><path d="M132.899 162.31c-16.232 0-29.394-13.973-29.394-31.202 0-17.228 13.162-31.202 29.394-31.202m106.779 62.395l-106.78.01m106.78-.01c16.23 0 29.394-13.974 29.394-31.203s-13.164-31.202-29.394-31.202m0-.002l-106.78.01m126.367 49.42h40.22m-40.22-36.007h40.22m-40.22 36.007c-9.364 0-16.96-8.062-16.96-18.003 0-9.942 7.596-18.004 16.96-18.004h.01m-146.493 36.007c9.366 0 16.961-8.062 16.961-18.003 0-9.942-7.595-18.004-16.961-18.004h-.008m.008 36.007H72.786m39.996-36.007H72.786" fill="none" stroke="#000" stroke-width="3" stroke-linecap="round"/></svg>