<svg xmlns="http://www.w3.org/2000/svg" width="372.047" height="262.205"><title>Schaltzeichen Wechselschalter</title><g stroke="#000" stroke-linecap="round"><path d="M72.735 131.102h59.626l107.326-32.758" fill="none" stroke-width="3"/><path d="M137.71 131.102a5.35 5.35 0 1 1-10.7 0 5.35 5.35 0 0 1 10.7 0z" stroke-width="3.9423000000000004"/><g fill="none" stroke-width="3"><path d="M299.312 163.86h-59.625M298.86 98.344h-59.626"/></g><path d="M245.037 98.344a5.35 5.35 0 1 1-10.7 0 5.35 5.35 0 0 1 10.7 0zM245.037 163.86a5.35 5.35 0 1 1-10.7 0 5.35 5.35 0 0 1 10.7 0z" stroke-width="3.9423000000000004"/></g></svg>