<svg xmlns="http://www.w3.org/2000/svg" width="372.047" height="262.205"><title>Schaltzeichen Transformator</title><g stroke="#000" stroke-width="3" stroke-linecap="round"><path d="M104.163 82.82s0 22.16 20.466 22.16c20.465 0 20.465-22.16 20.465-22.16 0 22.16 20.465 22.16 20.465 22.16 20.465 0 20.465-22.16 20.465-22.16 0 22.16 20.465 22.16 20.465 22.16 20.465 0 20.465-22.16 20.465-22.16 0 22.16 20.465 22.16 20.465 22.16s20.465 0 20.465-22.16h30.697m-225.115 0h30.697" fill="none"/><path d="M104.388 125.67H267.66"/><g><path d="M104.163 179.384s0-22.16 20.466-22.16c20.465 0 20.465 22.16 20.465 22.16 0-22.16 20.465-22.16 20.465-22.16 20.465 0 20.465 22.16 20.465 22.16 0-22.16 20.465-22.16 20.465-22.16 20.465 0 20.465 22.16 20.465 22.16 0-22.16 20.465-22.16 20.465-22.16s20.465 0 20.465 22.16h30.697m-225.115 0h30.697" fill="none"/><path d="M104.388 136.535H267.66"/></g></g></svg>