<svg xmlns="http://www.w3.org/2000/svg" width="372.047" height="262.205"><title>Schaltzeichen Optokoppler</title><defs><marker id="a" orient="auto" overflow="visible"><path d="M2.308 0l-3.46 2v-4l3.46 2z" fill-rule="evenodd" stroke="#000" stroke-width=".4pt"/></marker><marker id="b" orient="auto" overflow="visible"><path d="M2.308 0l-3.46 2v-4l3.46 2z" fill-rule="evenodd" stroke="#000" stroke-width=".4pt"/></marker></defs><g stroke="#000"><g stroke-width="2.068"><path d="M121.755 134.792h51.391M73.142 181.627h74.308V73.706H73.142" fill="none" stroke-linecap="round" stroke-width="2.99936516"/><path d="M121.755 88.54h51.391l-25.696 46.252-25.695-46.252z" fill="#fff" stroke-width="2.99936516"/><path fill="none" d="M96.06 53.149h179.869v155.906H96.059zM224.537 104.54v51.391" stroke-width="2.99936516"/><path d="M224.537 119.958l30.835-15.418V73.706h43.533M224.537 140.514l30.835 15.417v25.696h42.37" fill="none" stroke-linecap="round" stroke-width="2.99936516"/></g><path d="M2004.117 337.328l22.956 11.478" fill="none" stroke-width="3" marker-end="url(#a)" transform="translate(-1777.747 -195.898)"/><path d="M1965.25 302.862l22.188 22.187M1951.277 316.835l22.188 22.187" fill="none" stroke-width="3" stroke-linecap="round" marker-end="url(#b)" transform="translate(-1777.747 -195.898)"/></g></svg>