<svg xmlns="http://www.w3.org/2000/svg" width="372.047" height="262.205"><title>Schaltzeichen Widerstand (Kaltleiter)</title><defs><marker id="a" orient="auto" overflow="visible"><path d="M2.308 0l-3.46 2v-4l3.46 2z" fill-rule="evenodd" stroke="#000" stroke-width=".4pt"/></marker></defs><g fill="none" stroke="#000" stroke-width="3" stroke-linecap="round"><path d="M111.42 131.102H72.966M259 101.152v59.9H113.046v-59.9zM297.455 131.102h-38.456"/><path d="M147.333 186.436l85.47-113.959h43.968"/></g><path d="M254.154 40.175c-3.71-.827-6.364-1.823-7.964-2.984-1.6-1.161-2.398-2.657-2.398-4.489 0-1.591.611-2.928 1.838-4.01 1.226-1.082 2.76-1.622 4.607-1.622 2.77 0 4.814.99 6.137 2.973 1.32 1.98 2.036 5.134 2.15 9.467.65.175 1.661.419 3.032.739.396.096.7.17.906.215l-.238 1.671c-1.05-.238-1.83-.42-2.339-.547a30.13 30.13 0 0 1-1.41-.385c-.27 7.02-1.592 12.568-3.962 16.643-2.37 4.072-5.434 6.111-9.192 6.111-1.654 0-3.073-.617-4.248-1.849-1.178-1.235-1.767-2.727-1.767-4.477 0-1.402.49-3.608 1.47-6.627.98-3.013 1.47-5.207 1.47-6.575 0-.572-.105-.991-.312-1.252-.207-.263-.532-.396-.98-.396-.572 0-1.229.43-1.968 1.288-.739.861-1.404 1.99-1.993 3.39l-1.17-.382c.844-2.116 1.85-3.764 3.019-4.942 1.17-1.178 2.384-1.767 3.641-1.767 1.21 0 2.181.425 2.914 1.277.731.852 1.1 1.977 1.1 3.378 0 1.578-.542 4.036-1.623 7.375-.128.413-.224.725-.286.931l-.145.479c-.844 2.784-1.266 4.536-1.266 5.25 0 .954.292 1.739.873 2.35.58.615 1.333.92 2.256.92 2.323 0 4.214-1.91 5.67-5.728 1.458-3.823 2.183-8.937 2.183-15.351v-1.074zm0-1.812c-.11-2.96-.558-5.216-1.337-6.768-.779-1.552-1.846-2.328-3.197-2.328-.906 0-1.654.317-2.243.954-.59.64-.884 1.45-.884 2.436 0 1.322.604 2.438 1.816 3.356 1.212.917 3.154 1.696 5.845 2.35z"/><g stroke-width="3" stroke-miterlimit="2.613"><g fill="none" stroke="#000" stroke-width="3.169" stroke-linecap="round" marker-end="url(#a)" transform="translate(-179.095 -786.52) scale(.94656)"><path d="M481.598 896.642v-28.688M499.627 896.642v-28.688"/></g></g></svg>