<svg xmlns:ns0="http://www.iki.fi/pav/software/textext/" xmlns="http://www.w3.org/2000/svg" xmlns:xlink="http://www.w3.org/1999/xlink" width="744.094" height="1052.362"><title>Farbcode-Aufgabe 02 (Loesung)</title><g transform="matrix(4.23192 0 0 4.23192 -575.653 40.161)" ns0:text="$0$"><defs><symbol id="b" overflow="visible"><path d="M4.578-3.188c0-.796-.047-1.593-.39-2.328C3.733-6.484 2.905-6.64 2.5-6.64c-.61 0-1.328.266-1.75 1.188-.313.687-.36 1.469-.36 2.266 0 .75.032 1.64.454 2.406a1.83 1.83 0 0 0 1.64 1c.532 0 1.297-.203 1.735-1.157.312-.687.36-1.468.36-2.25zM2.484 0c-.39 0-.984-.25-1.156-1.203-.11-.594-.11-1.516-.11-2.11 0-.64 0-1.296.079-1.828.187-1.187.937-1.28 1.187-1.28.329 0 .985.187 1.172 1.171.11.563.11 1.313.11 1.938 0 .75 0 1.421-.11 2.062C3.5-.297 2.937 0 2.484 0zm0 0"/></symbol></defs></g><g><path style="marker:none" color="#000" fill="#fff" stroke="#fff" stroke-width="2" stroke-linecap="round" stroke-linejoin="round" overflow="visible" d="M153.476 439.753h437.143V612.61H153.476z"/><path style="marker:none" color="#000" fill="#fca" stroke="#000" stroke-linecap="round" stroke-linejoin="round" overflow="visible" d="M272.032 486.36h200.031v79.643H272.032z"/><path style="marker:none" color="#000" fill="red" stroke="#000" stroke-linecap="round" stroke-linejoin="round" overflow="visible" d="M291.884 486.36h20v79.643h-20zM332.241 486.36h20v79.643h-20z"/><path style="marker:none" color="#000" fill="#f90" stroke="#000" stroke-linecap="round" stroke-linejoin="round" overflow="visible" d="M372.047 486.36h20v79.643h-20z"/><path style="marker:none" color="#000" fill="#fc0" stroke="#000" stroke-linecap="round" stroke-linejoin="round" overflow="visible" d="M432.762 486.36h20v79.643h-20z"/><path d="M207.438 526.181h64.594M472.063 526.181h64.593" fill="none" stroke="#000" stroke-width="2" stroke-linecap="round"/><g transform="matrix(4.30756 0 0 4.30756 -566.714 -107.5)"><use y="134.765" x="223.432" xlink:href="#textext-de104693-0" width="744.094" height="1052.362"/><use y="134.765" x="228.413" xlink:href="#textext-de104693-1" width="744.094" height="1052.362"/><use y="134.765" x="231.181" xlink:href="#textext-de104693-2" width="744.094" height="1052.362"/></g><g transform="rotate(15 595.892 -698.286) scale(3.41645)" ns0:text="$/$"><defs><symbol id="a" overflow="visible"><path d="M4.375-7.094c.047-.14.047-.172.047-.187 0-.11-.078-.203-.188-.203-.078 0-.14.03-.171.093l-3.47 9.5c-.046.141-.046.172-.046.188 0 .11.094.203.203.203.125 0 .156-.078.219-.25zm0 0"/></symbol></defs><use y="134.765" x="223.432" xlink:href="#a" width="744.094" height="1052.362"/></g><use y="134.765" x="223.432" xlink:href="#b" width="744.094" height="1052.362" transform="matrix(2.15945 0 0 1.98731 -27.31 190.147)" ns0:text="$0$"/><use height="1052.362" width="744.094" xlink:href="#b" x="223.432" y="134.765" transform="matrix(2.15945 0 0 1.98731 -12.318 204.059)" ns0:text="$0$"/><g ns0:text="5"><path d="M449.357 463.659c0-5.116-3.5-9.423-8.144-9.423-2.019 0-3.904.673-5.452 2.22v-8.412c.875.269 2.289.538 3.635.538 5.317 0 8.346-3.904 8.346-4.442 0-.27-.135-.471-.471-.471 0 0-.135 0-.337.134a13.873 13.873 0 0 1-5.855 1.28c-1.683 0-3.702-.337-5.721-1.212-.337-.135-.404-.135-.472-.135-.47 0-.47.337-.47 1.01v12.72c0 .74 0 1.077.605 1.077.337 0 .404-.067.606-.336.471-.673 2.019-3.029 5.519-3.029 2.221 0 3.298 1.952 3.634 2.76.673 1.615.808 3.23.808 5.384 0 1.548 0 4.106-1.077 5.923-1.01 1.683-2.625 2.76-4.577 2.76-3.096 0-5.586-2.289-6.326-4.78.134 0 .269.068.74.068 1.413 0 2.154-1.077 2.154-2.086 0-1.077-.74-2.154-2.154-2.154-.606 0-2.086.336-2.086 2.288 0 3.702 2.961 7.875 7.74 7.875 4.98 0 9.355-4.106 9.355-9.557zm0 0"/></g><g transform="matrix(4.30756 0 0 4.30756 -671.265 28.088)" ns0:text="2"><defs><symbol id="c" overflow="visible"><path d="M1.266-.766l1.062-1.03c1.547-1.376 2.14-1.907 2.14-2.907 0-1.14-.89-1.938-2.109-1.938C1.234-6.64.5-5.719.5-4.828c0 .547.5.547.531.547.172 0 .516-.11.516-.532a.513.513 0 0 0-.531-.515c-.079 0-.094 0-.125.016.218-.657.765-1.016 1.343-1.016.907 0 1.329.812 1.329 1.625 0 .797-.485 1.578-1.047 2.203L.609-.375C.5-.265.5-.235.5 0h3.703l.266-1.734h-.235C4.172-1.438 4.11-1 4-.844c-.063.078-.719.078-.938.078zm0 0"/></symbol></defs><use y="134.765" x="223.432" xlink:href="#c" width="744.094" height="1052.362"/></g><g ns0:text="2"><use xlink:href="#c" x="223.432" y="134.765" width="744.094" height="1052.362" transform="matrix(4.30756 0 0 4.30756 -630.908 28.088)"/></g><g ns0:text="0" transform="matrix(4.30756 0 0 4.30756 -592.583 28.088)"><defs><symbol overflow="visible" id="d"><path d="M4.578-3.188c0-.796-.047-1.593-.39-2.328C3.733-6.484 2.905-6.64 2.5-6.64c-.61 0-1.328.266-1.75 1.188-.313.687-.36 1.469-.36 2.266 0 .75.032 1.64.454 2.406a1.83 1.83 0 0 0 1.64 1c.532 0 1.297-.203 1.735-1.157.312-.687.36-1.468.36-2.25zM2.484 0c-.39 0-.984-.25-1.156-1.203-.11-.594-.11-1.516-.11-2.11 0-.64 0-1.296.079-1.828.187-1.187.937-1.28 1.187-1.28.329 0 .985.187 1.172 1.171.11.563.11 1.313.11 1.938 0 .75 0 1.421-.11 2.062C3.5-.297 2.937 0 2.484 0zm0 0"/></symbol></defs><use height="1052.362" width="744.094" xlink:href="#d" x="223.432" y="134.765"/><use height="1052.362" width="744.094" xlink:href="#d" x="228.413" y="134.765"/><use height="1052.362" width="744.094" xlink:href="#d" x="233.395" y="134.765"/></g></g></svg>