<svg xmlns:ns0="http://www.iki.fi/pav/software/textext/" xmlns="http://www.w3.org/2000/svg" xmlns:xlink="http://www.w3.org/1999/xlink" width="744.094" height="1052.362"><title>Farbcode-Beispiel 470 Ohm</title><g><path style="marker:none" color="#000" fill="#fff" stroke="#fff" stroke-width="2" stroke-linecap="round" stroke-linejoin="round" overflow="visible" d="M153.476 418.007h437.143v216.348H153.476z"/><path style="marker:none" color="#000" fill="#fca" stroke="#000" stroke-linecap="round" stroke-linejoin="round" overflow="visible" d="M272.032 486.18h200.031v79.644H272.032z"/><path style="marker:none" color="#000" fill="#ff0" stroke="#000" stroke-linecap="round" stroke-linejoin="round" overflow="visible" d="M291.884 486.18h20v79.644h-20z"/><path style="marker:none" color="#000" fill="purple" stroke="#000" stroke-linecap="round" stroke-linejoin="round" overflow="visible" d="M332.241 486.18h20v79.644h-20z"/><path style="marker:none" color="#000" fill="#a40" stroke="#000" stroke-linecap="round" stroke-linejoin="round" overflow="visible" d="M372.047 486.18h20v79.644h-20z"/><path style="marker:none" color="#000" fill="#fc0" stroke="#000" stroke-linecap="round" stroke-linejoin="round" overflow="visible" d="M432.762 486.18h20v79.644h-20z"/><g ns0:text="$4$" transform="matrix(4.23192 0 0 4.23192 -655.353 38.07)"><defs><symbol id="a" overflow="visible"><path d="M2.938-1.64v.859c0 .36-.032.469-.766.469h-.203V0c.406-.031.922-.031 1.343-.031.422 0 .938 0 1.36.031v-.313h-.219c-.734 0-.75-.109-.75-.468v-.86h.985v-.312h-.985v-4.531c0-.204 0-.266-.172-.266-.078 0-.11 0-.187.125L.28-1.953v.312zm.046-.313H.563l2.421-3.719zm0 0"/></symbol></defs><use y="134.765" x="223.432" xlink:href="#a" width="744.094" height="1052.362"/></g><g ns0:text="$7$" transform="matrix(4.23192 0 0 4.23192 -616.164 38.003)"><defs><symbol overflow="visible" id="b"><path d="M4.75-6.078c.078-.11.078-.125.078-.344H2.406c-1.203 0-1.234-.125-1.265-.312H.89L.562-4.688h.25c.032-.156.11-.78.25-.906.063-.062.844-.062.97-.062h2.062c-.11.156-.89 1.25-1.11 1.578C2.078-2.734 1.75-1.344 1.75-.328c0 .094 0 .547.469.547.453 0 .453-.453.453-.547v-.516c0-.547.031-1.094.11-1.625.046-.234.171-1.094.624-1.703zm0 0"/></symbol></defs><use xlink:href="#b" x="223.432" y="134.765" width="744.094" height="1052.362"/></g><g transform="matrix(4.23192 0 0 4.23192 -575.653 37.606)" ns0:text="$0$"><defs><symbol id="c" overflow="visible"><path d="M4.578-3.188c0-.796-.047-1.593-.39-2.328C3.733-6.484 2.905-6.64 2.5-6.64c-.61 0-1.328.266-1.75 1.188-.313.687-.36 1.469-.36 2.266 0 .75.032 1.64.454 2.406a1.83 1.83 0 0 0 1.64 1c.532 0 1.297-.203 1.735-1.157.312-.687.36-1.468.36-2.25zM2.484 0c-.39 0-.984-.25-1.156-1.203-.11-.594-.11-1.516-.11-2.11 0-.64 0-1.296.079-1.828.187-1.187.937-1.28 1.187-1.28.329 0 .985.187 1.172 1.171.11.563.11 1.313.11 1.938 0 .75 0 1.421-.11 2.062C3.5-.297 2.937 0 2.484 0zm0 0"/></symbol></defs><use y="134.765" x="223.432" xlink:href="#c" width="744.094" height="1052.362"/></g><g ns0:text="$/$" transform="rotate(15 596.249 -700.642) scale(3.41645)"><defs><symbol overflow="visible" id="d"><path d="M4.375-7.094c.047-.14.047-.172.047-.187 0-.11-.078-.203-.188-.203-.078 0-.14.03-.171.093l-3.47 9.5c-.046.141-.046.172-.046.188 0 .11.094.203.203.203.125 0 .156-.078.219-.25zm0 0"/></symbol></defs><use height="1052.362" width="744.094" xlink:href="#d" x="223.432" y="134.765"/></g><use height="1052.362" width="744.094" xlink:href="#c" x="223.432" y="134.765" transform="matrix(2.15945 0 0 1.98731 -27.908 189.975)" ns0:text="$0$"/><use y="134.765" x="223.432" xlink:href="#c" width="744.094" height="1052.362" transform="matrix(2.15945 0 0 1.98731 -12.915 203.886)" ns0:text="$0$"/><g ns0:text="$5$" transform="matrix(4.23192 0 0 4.23192 -515.402 -98.197)"><defs><symbol overflow="visible" id="e"><path d="M4.469-2c0-1.188-.813-2.188-1.89-2.188-.47 0-.907.157-1.267.516v-1.953c.204.063.532.125.844.125 1.235 0 1.938-.906 1.938-1.031 0-.063-.032-.11-.11-.11 0 0-.03 0-.078.032a3.22 3.22 0 0 1-1.36.296c-.39 0-.858-.078-1.327-.28-.078-.032-.094-.032-.11-.032C1-6.625 1-6.547 1-6.391v2.954c0 .171 0 .25.14.25.079 0 .094-.016.141-.079.11-.156.469-.703 1.282-.703.515 0 .765.453.843.64.156.376.188.75.188 1.25 0 .36 0 .954-.25 1.376-.235.39-.61.64-1.063.64-.719 0-1.297-.53-1.469-1.109.032 0 .063.016.172.016.329 0 .5-.25.5-.485 0-.25-.171-.5-.5-.5-.14 0-.484.079-.484.532C.5-.75 1.188.219 2.297.219 3.453.219 4.469-.734 4.469-2zm0 0"/></symbol></defs><use xlink:href="#e" x="223.432" y="134.765" width="744.094" height="1052.362"/></g><path d="M207.438 526.002h64.594M472.063 526.002h64.593" fill="none" stroke="#000" stroke-width="2" stroke-linecap="round"/></g></svg>