<svg xmlns:ns0="http://www.iki.fi/pav/software/textext/" xmlns="http://www.w3.org/2000/svg" xmlns:xlink="http://www.w3.org/1999/xlink" width="744.094" height="1052.362"><title>Farbcode-Aufgabe 04 (Loesung)</title><defs><symbol overflow="visible" id="e"><path d="M4.578-3.188c0-.796-.047-1.593-.39-2.328C3.733-6.484 2.905-6.64 2.5-6.64c-.61 0-1.328.266-1.75 1.188-.313.687-.36 1.469-.36 2.266 0 .75.032 1.64.454 2.406a1.83 1.83 0 0 0 1.64 1c.532 0 1.297-.203 1.735-1.157.312-.687.36-1.468.36-2.25zM2.484 0c-.39 0-.984-.25-1.156-1.203-.11-.594-.11-1.516-.11-2.11 0-.64 0-1.296.079-1.828.187-1.187.937-1.28 1.187-1.28.329 0 .985.187 1.172 1.171.11.563.11 1.313.11 1.938 0 .75 0 1.421-.11 2.062C3.5-.297 2.937 0 2.484 0zm0 0"/></symbol><symbol overflow="visible" id="f"><path d="M2.031-.016c0-.625-.25-1.046-.64-1.046-.36 0-.532.28-.532.53 0 .266.172.532.532.532a.578.578 0 0 0 .375-.14l.015-.016c.016 0 .016 0 .016.14 0 .641-.266 1.25-.703 1.72-.063.062-.078.077-.078.109 0 .078.046.109.093.109.125 0 .922-.781.922-1.938zm0 0"/></symbol><symbol overflow="visible" id="g"><path d="M2.938-6.375c0-.25 0-.266-.235-.266C2.078-6 1.203-6 .891-6v.313c.203 0 .78 0 1.296-.266v5.172c0 .36-.03.469-.921.469H.953V0c.344-.031 1.203-.031 1.61-.031.39 0 1.265 0 1.609.031v-.313h-.313c-.906 0-.921-.109-.921-.468zm0 0"/></symbol></defs><g ns0:text="$0$" transform="matrix(4.23192 0 0 4.23192 -575.653 40.161)"><defs><symbol overflow="visible" id="i"><path d="M4.578-3.188c0-.796-.047-1.593-.39-2.328C3.733-6.484 2.905-6.64 2.5-6.64c-.61 0-1.328.266-1.75 1.188-.313.687-.36 1.469-.36 2.266 0 .75.032 1.64.454 2.406a1.83 1.83 0 0 0 1.64 1c.532 0 1.297-.203 1.735-1.157.312-.687.36-1.468.36-2.25zM2.484 0c-.39 0-.984-.25-1.156-1.203-.11-.594-.11-1.516-.11-2.11 0-.64 0-1.296.079-1.828.187-1.187.937-1.28 1.187-1.28.329 0 .985.187 1.172 1.171.11.563.11 1.313.11 1.938 0 .75 0 1.421-.11 2.062C3.5-.297 2.937 0 2.484 0zm0 0"/></symbol></defs></g><g><path style="marker:none" color="#000" fill="#fff" stroke="#fff" stroke-width="2" stroke-linecap="round" stroke-linejoin="round" overflow="visible" d="M153.476 431.453h437.143V620.91H153.476z"/><path style="marker:none" color="#000" fill="#5fbcd3" stroke="#000" stroke-linecap="round" stroke-linejoin="round" overflow="visible" d="M272.032 486.36h200.031v79.643H272.032z"/><path style="marker:none" color="#000" fill="green" stroke="#000" stroke-linecap="round" stroke-linejoin="round" overflow="visible" d="M322.031 486.36h20v79.643h-20z"/><path style="marker:none" color="#000" stroke="#000" stroke-linecap="round" stroke-linejoin="round" overflow="visible" d="M356.454 486.36h20v79.643h-20z"/><path style="marker:none" color="#000" fill="#993200" stroke="#000" stroke-linecap="round" stroke-linejoin="round" overflow="visible" d="M287.608 486.36h20v79.643h-20z"/><path style="marker:none" color="#000" fill="purple" stroke="#000" stroke-linecap="round" stroke-linejoin="round" overflow="visible" d="M436.486 486.36h20v79.643h-20z"/><path d="M207.438 526.181h64.594M472.063 526.181h64.593" fill="none" stroke="#000" stroke-width="2" stroke-linecap="round"/><path style="marker:none" color="#000" fill="#f90" stroke="#000" stroke-linecap="round" stroke-linejoin="round" overflow="visible" d="M390.877 486.36h20v79.643h-20z"/><g ns0:text="1" transform="matrix(4.30756 0 0 4.30756 -675.742 28.09)"><defs><symbol id="a" overflow="visible"><path d="M2.938-6.375c0-.25 0-.266-.235-.266C2.078-6 1.203-6 .891-6v.313c.203 0 .78 0 1.296-.266v5.172c0 .36-.03.469-.921.469H.953V0c.344-.031 1.203-.031 1.61-.031.39 0 1.265 0 1.609.031v-.313h-.313c-.906 0-.921-.109-.921-.468zm0 0"/></symbol></defs><use y="134.765" x="223.432" xlink:href="#a" width="744.094" height="1052.362"/></g><g ns0:text="5" transform="matrix(4.30756 0 0 4.30756 -641.118 27.618)"><defs><symbol overflow="visible" id="b"><path d="M4.469-2c0-1.188-.813-2.188-1.89-2.188-.47 0-.907.157-1.267.516v-1.953c.204.063.532.125.844.125 1.235 0 1.938-.906 1.938-1.031 0-.063-.032-.11-.11-.11 0 0-.03 0-.078.032a3.22 3.22 0 0 1-1.36.296c-.39 0-.858-.078-1.327-.28-.078-.032-.094-.032-.11-.032C1-6.625 1-6.547 1-6.391v2.954c0 .171 0 .25.14.25.079 0 .094-.016.141-.079.11-.156.469-.703 1.282-.703.515 0 .765.453.843.64.156.376.188.75.188 1.25 0 .36 0 .954-.25 1.376-.235.39-.61.64-1.063.64-.719 0-1.297-.53-1.469-1.109.032 0 .063.016.172.016.329 0 .5-.25.5-.485 0-.25-.171-.5-.5-.5-.14 0-.484.079-.484.532C.5-.75 1.188.219 2.297.219 3.453.219 4.469-.734 4.469-2zm0 0"/></symbol></defs><use height="1052.362" width="744.094" xlink:href="#b" x="223.432" y="134.765"/></g><g transform="matrix(4.30756 0 0 4.30756 -606.695 27.618)" ns0:text="0"><defs><symbol id="c" overflow="visible"><path d="M4.578-3.188c0-.796-.047-1.593-.39-2.328C3.733-6.484 2.905-6.64 2.5-6.64c-.61 0-1.328.266-1.75 1.188-.313.687-.36 1.469-.36 2.266 0 .75.032 1.64.454 2.406a1.83 1.83 0 0 0 1.64 1c.532 0 1.297-.203 1.735-1.157.312-.687.36-1.468.36-2.25zM2.484 0c-.39 0-.984-.25-1.156-1.203-.11-.594-.11-1.516-.11-2.11 0-.64 0-1.296.079-1.828.187-1.187.937-1.28 1.187-1.28.329 0 .985.187 1.172 1.171.11.563.11 1.313.11 1.938 0 .75 0 1.421-.11 2.062C3.5-.297 2.937 0 2.484 0zm0 0"/></symbol></defs><use y="134.765" x="223.432" xlink:href="#c" width="744.094" height="1052.362"/></g><g ns0:text="0" transform="matrix(4.30756 0 0 4.30756 -573.753 27.618)"><defs><symbol overflow="visible" id="d"><path d="M4.578-3.188c0-.796-.047-1.593-.39-2.328C3.733-6.484 2.905-6.64 2.5-6.64c-.61 0-1.328.266-1.75 1.188-.313.687-.36 1.469-.36 2.266 0 .75.032 1.64.454 2.406a1.83 1.83 0 0 0 1.64 1c.532 0 1.297-.203 1.735-1.157.312-.687.36-1.468.36-2.25zM2.484 0c-.39 0-.984-.25-1.156-1.203-.11-.594-.11-1.516-.11-2.11 0-.64 0-1.296.079-1.828.187-1.187.937-1.28 1.187-1.28.329 0 .985.187 1.172 1.171.11.563.11 1.313.11 1.938 0 .75 0 1.421-.11 2.062C3.5-.297 2.937 0 2.484 0zm0 0"/></symbol></defs><use height="1052.362" width="744.094" xlink:href="#d" x="223.432" y="134.765"/><use height="1052.362" width="744.094" xlink:href="#d" x="228.413" y="134.765"/><use height="1052.362" width="744.094" xlink:href="#d" x="233.395" y="134.765"/></g><g transform="matrix(4.30756 0 0 4.30756 -528.144 -107.497)"><use y="134.765" x="223.432" xlink:href="#e" width="744.094" height="1052.362"/><use y="134.765" x="228.413" xlink:href="#f" width="744.094" height="1052.362"/><use y="134.765" x="231.181" xlink:href="#g" width="744.094" height="1052.362"/></g><g transform="rotate(15 615.17 -551.803) scale(3.41645)" ns0:text="$/$"><defs><symbol id="h" overflow="visible"><path d="M4.375-7.094c.047-.14.047-.172.047-.187 0-.11-.078-.203-.188-.203-.078 0-.14.03-.171.093l-3.47 9.5c-.046.141-.046.172-.046.188 0 .11.094.203.203.203.125 0 .156-.078.219-.25zm0 0"/></symbol></defs><use y="134.765" x="223.432" xlink:href="#h" width="744.094" height="1052.362"/></g><use y="134.765" x="223.432" xlink:href="#i" width="744.094" height="1052.362" transform="matrix(2.15945 0 0 1.98731 11.259 190.15)" ns0:text="$0$"/><use height="1052.362" width="744.094" xlink:href="#i" x="223.432" y="134.765" transform="matrix(2.15945 0 0 1.98731 26.252 204.06)" ns0:text="$0$"/></g></svg>