<svg xmlns:ns0="http://www.iki.fi/pav/software/textext/" xmlns="http://www.w3.org/2000/svg" xmlns:xlink="http://www.w3.org/1999/xlink" width="744.094" height="1052.362"><title>Farbcode-Aufgabe 03 (Loesung)</title><g ns0:text="$0$" transform="matrix(4.23192 0 0 4.23192 -575.653 40.161)"><defs><symbol overflow="visible" id="b"><path d="M4.578-3.188c0-.796-.047-1.593-.39-2.328C3.733-6.484 2.905-6.64 2.5-6.64c-.61 0-1.328.266-1.75 1.188-.313.687-.36 1.469-.36 2.266 0 .75.032 1.64.454 2.406a1.83 1.83 0 0 0 1.64 1c.532 0 1.297-.203 1.735-1.157.312-.687.36-1.468.36-2.25zM2.484 0c-.39 0-.984-.25-1.156-1.203-.11-.594-.11-1.516-.11-2.11 0-.64 0-1.296.079-1.828.187-1.187.937-1.28 1.187-1.28.329 0 .985.187 1.172 1.171.11.563.11 1.313.11 1.938 0 .75 0 1.421-.11 2.062C3.5-.297 2.937 0 2.484 0zm0 0"/></symbol></defs></g><g ns0:text="1"><use height="1052.362" width="744.094" xlink:href="#textext-11cd1a87-0" x="223.432" y="134.765" transform="matrix(4.30756 0 0 4.30756 -526.345 -107.29)"/></g><g><path style="marker:none" color="#000" fill="#fff" stroke="#fff" stroke-width="2" stroke-linecap="round" stroke-linejoin="round" overflow="visible" d="M153.476 431.453h437.143V620.91H153.476z"/><path style="marker:none" color="#000" fill="#5fbcd3" stroke="#000" stroke-linecap="round" stroke-linejoin="round" overflow="visible" d="M272.032 486.36h200.031v79.643H272.032z"/><path style="marker:none" color="#000" fill="#f90" stroke="#000" stroke-linecap="round" stroke-linejoin="round" overflow="visible" d="M322.031 486.36h20v79.643h-20z"/><path style="marker:none" color="#000" fill="red" stroke="#000" stroke-linecap="round" stroke-linejoin="round" overflow="visible" d="M356.454 486.36h20v79.643h-20z"/><path style="marker:none" color="#000" fill="#f90" stroke="#000" stroke-linecap="round" stroke-linejoin="round" overflow="visible" d="M287.608 486.36h20v79.643h-20z"/><path style="marker:none" color="#000" fill="#993200" stroke="#000" stroke-linecap="round" stroke-linejoin="round" overflow="visible" d="M436.486 486.36h20v79.643h-20z"/><path d="M207.438 526.181h64.594M472.063 526.181h64.593" fill="none" stroke="#000" stroke-width="2" stroke-linecap="round"/><path style="marker:none" color="#000" stroke="#000" stroke-linecap="round" stroke-linejoin="round" overflow="visible" d="M390.877 486.36h20v79.643h-20z"/><g transform="rotate(15 597.17 -688.527) scale(3.41645)" ns0:text="$/$"><defs><symbol id="a" overflow="visible"><path d="M4.375-7.094c.047-.14.047-.172.047-.187 0-.11-.078-.203-.188-.203-.078 0-.14.03-.171.093l-3.47 9.5c-.046.141-.046.172-.046.188 0 .11.094.203.203.203.125 0 .156-.078.219-.25zm0 0"/></symbol></defs><use y="134.765" x="223.432" xlink:href="#a" width="744.094" height="1052.362"/></g><use y="134.765" x="223.432" xlink:href="#b" width="744.094" height="1052.362" transform="matrix(2.15945 0 0 1.98731 -24.741 190.15)" ns0:text="$0$"/><use height="1052.362" width="744.094" xlink:href="#b" x="223.432" y="134.765" transform="matrix(2.15945 0 0 1.98731 -9.748 204.06)" ns0:text="$0$"/><g transform="matrix(4.30756 0 0 4.30756 -675.574 28.09)" ns0:text="3"><defs><symbol id="c" overflow="visible"><path d="M2.89-3.516c.813-.265 1.391-.953 1.391-1.75 0-.812-.875-1.375-1.828-1.375-1 0-1.765.594-1.765 1.36 0 .328.218.515.515.515.297 0 .5-.218.5-.515 0-.485-.469-.485-.61-.485.298-.5.954-.625 1.313-.625.422 0 .969.22.969 1.11 0 .125-.031.703-.281 1.14-.297.485-.64.516-.89.516a3.29 3.29 0 0 1-.392.031c-.078.016-.14.031-.14.125 0 .11.062.11.234.11h.438c.812 0 1.187.671 1.187 1.656 0 1.36-.687 1.64-1.125 1.64-.437 0-1.187-.171-1.531-.75.344.047.656-.171.656-.546a.537.537 0 0 0-.547-.563c-.25 0-.562.14-.562.578C.422-.437 1.344.22 2.437.22c1.22 0 2.126-.906 2.126-1.922 0-.813-.641-1.594-1.672-1.813zm0 0"/></symbol></defs><use y="134.765" x="223.432" xlink:href="#c" width="744.094" height="1052.362"/></g><use xlink:href="#c" x="223.432" y="134.765" width="744.094" height="1052.362" transform="matrix(4.30756 0 0 4.30756 -641.151 28.09)" ns0:text="3"/><g ns0:text="2" transform="matrix(4.30756 0 0 4.30756 -606.695 27.618)"><defs><symbol overflow="visible" id="d"><path d="M1.266-.766l1.062-1.03c1.547-1.376 2.14-1.907 2.14-2.907 0-1.14-.89-1.938-2.109-1.938C1.234-6.64.5-5.719.5-4.828c0 .547.5.547.531.547.172 0 .516-.11.516-.532a.513.513 0 0 0-.531-.515c-.079 0-.094 0-.125.016.218-.657.765-1.016 1.343-1.016.907 0 1.329.812 1.329 1.625 0 .797-.485 1.578-1.047 2.203L.609-.375C.5-.265.5-.235.5 0h3.703l.266-1.734h-.235C4.172-1.438 4.11-1 4-.844c-.063.078-.719.078-.938.078zm0 0"/></symbol></defs><use height="1052.362" width="744.094" xlink:href="#d" x="223.432" y="134.765"/></g><g transform="matrix(4.30756 0 0 4.30756 -572.473 27.618)" ns0:text="--"><defs><symbol id="e" overflow="visible"><path d="M4.969-2.547v-.219H0v.22zm0 0"/></symbol></defs><use y="134.765" x="223.432" xlink:href="#e" width="744.094" height="1052.362"/></g><g ns0:text="1" transform="matrix(4.30756 0 0 4.30756 -530.298 -107.29)"><defs><symbol overflow="visible" id="f"><path d="M2.938-6.375c0-.25 0-.266-.235-.266C2.078-6 1.203-6 .891-6v.313c.203 0 .78 0 1.296-.266v5.172c0 .36-.03.469-.921.469H.953V0c.344-.031 1.203-.031 1.61-.031.39 0 1.265 0 1.609.031v-.313h-.313c-.906 0-.921-.109-.921-.468zm0 0"/></symbol></defs><use height="1052.362" width="744.094" xlink:href="#f" x="223.432" y="134.765"/></g></g></svg>