<svg xmlns:ns0="http://www.iki.fi/pav/software/textext/" xmlns="http://www.w3.org/2000/svg" xmlns:xlink="http://www.w3.org/1999/xlink" width="1052.362" height="744.094"><title>Diode als Schalthelfer</title><path style="marker:none" color="#000" fill="#fff" stroke="#fff" stroke-linecap="round" stroke-linejoin="round" overflow="visible" d="M2.495 9.71H1030.83v716.15H2.495z"/><path d="M112.537 983.155h70.868" fill="none" stroke="#000" stroke-width="2.34" stroke-linecap="round" transform="matrix(0 -1.64408 1 0 -861.125 454.413)"/><path d="M119.568 983.155h122.911" fill="none" stroke="#000" stroke-width="3.095" stroke-linecap="round" transform="matrix(0 .93949 1 0 -861.125 371.324)"/><path d="M-96.363 920.76H75.87" fill="none" stroke="#000" stroke-width="2.338" stroke-linecap="round" transform="matrix(-1.64685 0 0 1 248.515 -767.88)"/><path d="M122.03 382.649v101.007M122.03 257.834v100.395" fill="none" stroke="#000" stroke-width="3" stroke-linecap="round"/><g fill="none" stroke="#000" stroke-width="3.372" stroke-linecap="round"><path d="M893.302 1257.256v-200.939M869.468 1120.08v73.413" transform="matrix(0 -1 .79163 0 -793.721 1251.782)"/></g><g fill="none" stroke="#000" stroke-linecap="round" stroke-width=".892"><path d="M60.881 291.514v33.035M42.495 308.031h33.036" stroke-width="3.00141052"/></g><path d="M60.881 416.635v33.035" fill="none" stroke="#000" stroke-width="3" stroke-linecap="round"/><g transform="matrix(0 2.05598 -1 0 1328.748 128.42)"><path id="a" d="M82.997 921.537h-6.483" fill="none" stroke="#000" stroke-width="2.092" stroke-linecap="round"/><use height="262.205" width="372.047" transform="matrix(1.78923 0 0 1 15.828 0)" xlink:href="#a" stroke-width="3" stroke-linecap="round"/></g><path fill="none" stroke="#000" stroke-width="3" stroke-linecap="round" d="M436.63 442.428h-58.84V299.061h58.84zM407.21 285.732V152.88M407.21 599.13V466.28"/><g transform="matrix(4.33796 0 0 4.33796 -1955.866 -202.324)" ns0:text="\\begin{flushright}\n$R _{\\rm{1}}$\n\\end{flushright}"><defs><symbol id="b" overflow="visible"><path d="M3.734-6.125c.063-.234.094-.328.282-.36.093-.015.406-.015.609-.015.703 0 1.813 0 1.813.984 0 .344-.157 1.032-.547 1.422-.266.25-.782.578-1.688.578h-1.11zm1.438 2.734c1.016-.218 2.187-.921 2.187-1.921 0-.86-.89-1.5-2.203-1.5H2.328c-.203 0-.297 0-.297.203 0 .109.094.109.281.109.016 0 .204 0 .376.016.187.03.265.03.265.171 0 .032 0 .063-.031.188L1.578-.781c-.094.39-.11.469-.906.469-.172 0-.266 0-.266.203C.406 0 .531 0 .546 0c.282 0 .985-.031 1.25-.031.282 0 1 .031 1.282.031.078 0 .188 0 .188-.203 0-.11-.079-.11-.282-.11-.359 0-.64 0-.64-.171 0-.063.015-.11.031-.172l.656-2.64H4.22c.906 0 1.078.562 1.078.905 0 .141-.078.454-.14.688-.063.281-.157.64-.157.844C5 .219 6.203.219 6.328.219c.844 0 1.203-1 1.203-1.14 0-.126-.11-.126-.125-.126-.093 0-.11.063-.125.14-.25.735-.687.907-.906.907-.328 0-.406-.219-.406-.61 0-.312.062-.812.11-1.14.015-.14.03-.328.03-.469 0-.765-.671-1.078-.937-1.172zm0 0"/></symbol><symbol id="c" overflow="visible"><path d="M2.328-4.438c0-.187 0-.187-.203-.187-.453.438-1.078.438-1.36.438v.25c.157 0 .626 0 1-.188v3.547c0 .234 0 .328-.687.328H.812V0c.125 0 .985-.031 1.235-.031.219 0 1.094.031 1.25.031v-.25H3.03c-.703 0-.703-.094-.703-.328zm0 0"/></symbol></defs><use y="134.765" x="555.109" xlink:href="#b" width="1052.362" height="744.094"/><use y="136.259" x="562.674" xlink:href="#c" width="1052.362" height="744.094"/></g><path d="M-96.363 920.76H75.87" fill="none" stroke="#000" stroke-width="2.338" stroke-linecap="round" transform="matrix(-1.64685 0 0 1 248.515 -321.63)"/><path d="M112.537 983.155h70.868" fill="none" stroke="#000" stroke-width="2.34" stroke-linecap="round" transform="matrix(0 -1.64408 1 0 -330.924 451.453)"/><path d="M119.568 983.155h122.911" fill="none" stroke="#000" stroke-width="3.095" stroke-linecap="round" transform="matrix(0 .93949 1 0 -330.924 368.364)"/><path d="M-96.363 920.76H75.87" fill="none" stroke="#000" stroke-width="2.338" stroke-linecap="round" transform="matrix(-1.64685 0 0 1 778.715 -770.84)"/><path d="M652.23 379.689v101.008M652.23 254.874v100.395" fill="none" stroke="#000" stroke-width="3" stroke-linecap="round"/><g fill="none" stroke="#000" stroke-width="3.372" stroke-linecap="round"><path d="M893.302 1257.256v-200.939M869.468 1120.08v73.413" transform="matrix(0 -1 .79163 0 -263.52 1248.822)"/></g><g fill="none" stroke="#000" stroke-linecap="round" stroke-width=".892"><path d="M591.081 288.554v33.035M572.695 305.071h33.036" stroke-width="3.00141052"/></g><path d="M591.081 413.675v33.035" fill="none" stroke="#000" stroke-width="3" stroke-linecap="round"/><g><g transform="matrix(0 2.05598 -1 0 1858.948 125.46)"><path d="M82.997 921.537h-6.483" fill="none" stroke="#000" stroke-width="2.092" stroke-linecap="round"/><use xlink:href="#a" transform="matrix(1.78923 0 0 1 15.828 0)" width="372.047" height="262.205" stroke-width="3" stroke-linecap="round"/></g></g><path fill="none" stroke="#000" stroke-width="3" stroke-linecap="round" d="M966.83 439.468h-58.84V296.101h58.84zM937.41 282.772V149.92M937.41 596.17V463.32"/><g ns0:text="\\begin{flushright}\n$R _{\\rm{1}}$\n\\end{flushright}"><use height="744.094" width="1052.362" xlink:href="#b" x="555.109" y="134.765" transform="matrix(4.33796 0 0 4.33796 -1425.666 -205.284)"/><use height="744.094" width="1052.362" xlink:href="#c" x="562.674" y="136.259" transform="matrix(4.33796 0 0 4.33796 -1425.666 -205.284)"/></g><g><path d="M-96.363 920.76H75.87" fill="none" stroke="#000" stroke-width="2.338" stroke-linecap="round" transform="matrix(-1.64685 0 0 1 778.715 -324.59)"/></g></svg>