<svg xmlns="http://www.w3.org/2000/svg" xmlns:xlink="http://www.w3.org/1999/xlink" width="2104.724" height="1488.189"><title>Einweg-Gleichrichter (Stromfluss)</title><defs><pattern xlink:href="#a" id="b" patternTransform="translate(.25)"/><pattern id="a" height="5.181" width="30.066" patternUnits="userSpaceOnUse"><path d="M7.597.061C5.079-.187 2.656.302-.01 1.788v1.273c2.783-1.63 5.183-2.009 7.482-1.781 2.298.228 4.497 1.081 6.781 1.938 4.567 1.713 9.551 3.458 15.813-.157l-.004-1.273c-6.44 3.709-10.816 1.982-15.371.273-2.278-.854-4.576-1.75-7.094-2z"/></pattern><linearGradient id="c"><stop offset="0" stop-color="#0e0e0e" stop-opacity=".746"/><stop offset="1" stop-color="#fff"/></linearGradient><linearGradient id="d"><stop offset="0" stop-color="#ebebeb"/><stop offset="1" stop-color="#fff" stop-opacity="0"/></linearGradient><linearGradient id="e"><stop offset="0" stop-opacity="0"/><stop offset="1" stop-color="#fff"/></linearGradient><linearGradient id="f"><stop offset="0" stop-color="#1a1a1a" stop-opacity=".828"/><stop offset="1" stop-color="#fff"/></linearGradient><linearGradient id="g"><stop offset="0" stop-color="#fff"/><stop offset="1" stop-color="#fff" stop-opacity="0"/></linearGradient><linearGradient id="h"><stop offset="0" stop-opacity="0"/><stop offset="1" stop-color="#fff"/></linearGradient></defs><path style="marker:none" color="#000" fill="#fff" stroke="#fff" stroke-linecap="round" stroke-linejoin="round" overflow="visible" d="M20.236 430.975h2064.252v626.239H20.236z"/><g stroke="#000"><path d="M185.125 519.244h66.522m70.471 0h79.053" fill="teal" stroke="teal" stroke-width="6.000422400000001" stroke-linecap="round"/><g stroke-width="3.136" fill="none"><path d="M318.004 519.244l-66.356 37.532v-75.063l66.356 37.531z" stroke-linecap="square" stroke-width="3.0002112000000003"/><path d="M322.118 482.688V555.8" stroke-linecap="round" stroke-width="3.0002112000000003"/></g></g><g fill="none" stroke-linecap="round"><path d="M509.194 729.503v-92.091" stroke="teal" stroke-width="6.000422400000001"/><path d="M585.467 729.603H432.92" stroke="#000" stroke-width="3.0002112000000003"/><path d="M509.194 760.211v92.092" stroke="teal" stroke-width="6.000422400000001"/><path d="M585.467 760.112H432.92" stroke="#000" stroke-width="3.0002112000000003"/></g><g transform="matrix(.9567 0 0 .9567 8.743 65.145)"><path id="i" d="M974.744 638.79v-37.775" fill="none" stroke="teal" stroke-width="6.272" stroke-linecap="round"/><use height="262.205" width="372.047" transform="translate(0 181.141)" xlink:href="#i" stroke="teal" stroke-width="6.272" stroke-linecap="round"/><path fill="none" stroke="#000" stroke-width="3.1354696800000004" stroke-linecap="round" d="M1004.164 782.156h-58.84V638.79h58.84z"/></g><path d="M77.102 691.186V519.244M185.125 519.244H77.102" fill="none" stroke-linecap="round" stroke="teal" stroke-width="6.000422400000001"/><path d="M401.17 519.244h216.047" fill="#0000de" stroke="teal" stroke-width="6.000422400000001" stroke-linecap="round"/><path d="M-68.184 683.252H141.37" fill="none" stroke="teal" stroke-width="8.169" stroke-linecap="round" transform="matrix(0 -.5639 .9567 0 -144.477 598.963)"/><path d="M514.312 519.244a5.119 5.119 0 1 1-10.237 0 5.119 5.119 0 0 1 10.237 0z" stroke="#000" stroke-width="3.94207632" stroke-linecap="round"/><path d="M77.102 797.003V970.47" fill="none" stroke="teal" stroke-width="6.000422400000001" stroke-linecap="round"/><path class="fil0 str0" fill="none" stroke="teal" stroke-width="6.000422400000001" stroke-linecap="round" d="M77.102 860.935v-52.93"/><path class="fil0 str0" fill="none" stroke="teal" stroke-width="3.0002112000000003" stroke-linecap="round" d="M77.102 679.4v-53.645"/><g transform="matrix(0 -.9567 .9567 0 -1382.658 901.945)"><circle transform="matrix(4.54222 0 0 4.54222 86.748 1346.467)" class="fil0 str0" cx="9.401" cy="39.486" r="4.35" fill="none" stroke="#1f1a17" stroke-width=".69"/><circle transform="matrix(4.54222 0 0 4.54222 37.679 1346.467)" class="fil0 str0" cx="35.854" cy="39.486" r="4.35" fill="none" stroke="#1f1a17" stroke-width=".69"/></g><g fill="none" stroke="teal" stroke-width="6.272" stroke-linecap="round"><path d="M185.125 970.47H77.102M401.17 970.47H185.126" stroke-width="6.000422400000001"/></g><path d="M401.17 970.47h216.047" fill="#0000de" stroke="teal" stroke-width="6.000422400000001" stroke-linecap="round"/><path d="M-68.184 683.252H141.37" fill="none" stroke="teal" stroke-width="8.169" stroke-linecap="round" transform="matrix(0 .5639 .9567 0 -144.477 890.752)"/><path d="M514.312 970.47a5.119 5.119 0 1 0-10.237 0 5.119 5.119 0 0 0 10.237 0z" stroke="#000" stroke-width="3.94207632" stroke-linecap="round"/><path d="M129.58 921.26h112.9" fill="none" stroke="teal" stroke-width="5.636" stroke-linecap="round" transform="matrix(0 -1.1848 -.9567 0 1822.659 806.536)"/><g fill="none" stroke="teal" stroke-width="6.272" stroke-linecap="round"><path d="M725.24 970.47H617.216M941.285 970.47H725.24" stroke-width="6.000422400000001"/></g><path d="M941.285 970.47V849.576" fill="none" stroke="teal" stroke-width="6.000422400000001" stroke-linecap="round"/><g fill="none" stroke="teal" stroke-width="6.272" stroke-linecap="round"><path d="M725.24 519.244H617.216M941.285 519.244H725.24" stroke-width="6.000422400000001"/></g><path class="fil0 str0" fill="none" stroke="#000" stroke-width="3.0002112000000003" stroke-linecap="round" d="M1157.54 855.831v-52.93M1157.54 684.07v-53.645"/><g transform="matrix(0 -.9567 .9567 0 -302.22 903.458)"><circle r="4.35" cy="39.486" cx="9.401" class="fil0 str0" transform="matrix(4.54222 0 0 4.54222 82.163 1346.467)" fill="none" stroke="#1f1a17" stroke-width=".69"/><circle r="4.35" cy="39.486" cx="35.854" class="fil0 str0" transform="matrix(4.54222 0 0 4.54222 45.987 1346.467)" fill="none" stroke="#1f1a17" stroke-width=".69"/></g><g stroke="#000"><path d="M1265.563 519.245h66.523m70.47 0h79.053" fill="teal" stroke-width="3.0002112000000003" stroke-linecap="round"/><g stroke-width="3.136" fill="none"><path d="M1398.442 519.245l-66.356 37.532v-75.064l66.356 37.532z" stroke-linecap="square" stroke-width="3.0002112000000003"/><path d="M1402.557 482.688V555.8" stroke-linecap="round" stroke-width="3.0002112000000003"/></g></g><g fill="none" stroke-linecap="round"><path d="M1589.632 729.504v-92.092" stroke="teal" stroke-width="6.000422400000001"/><path d="M1665.905 729.603H1513.36" stroke="#000" stroke-width="3.0002112000000003"/><path d="M1589.632 760.211v92.092" stroke="teal" stroke-width="6.000422400000001"/><path d="M1665.905 760.112H1513.36" stroke="#000" stroke-width="3.0002112000000003"/></g><path d="M2021.724 847.7v-34.924m0-137.266v-35.02" fill="none" stroke="teal" stroke-width="6.000422400000001" stroke-linecap="round"/><path fill="none" stroke="#000" stroke-width="2.9997139200000005" stroke-linecap="round" d="M2049.87 812.674h-56.293v-137.16h56.293z"/><path d="M1157.54 630.424v-111.18M1265.563 519.245H1157.54" fill="none" stroke="#000" stroke-linecap="round" stroke-width="3.0002112000000003"/><g fill="#0000de" stroke-linecap="round"><path d="M1481.609 519.245h107.884" stroke="#000" stroke-width="3.0002112000000003"/><path d="M1589.632 519.245h108.023" stroke="teal" stroke-width="6.000422400000001"/></g><path d="M-68.184 683.252H141.37" fill="none" stroke="teal" stroke-width="8.169" stroke-linecap="round" transform="matrix(0 -.5639 .9567 0 935.961 598.963)"/><path d="M1594.75 519.245a5.119 5.119 0 1 1-10.237 0 5.119 5.119 0 0 1 10.238 0z" stroke="#000" stroke-width="3.94207632" stroke-linecap="round"/><path d="M1157.54 855.83v114.64" fill="none" stroke="#000" stroke-width="3.0002112000000003" stroke-linecap="round"/><g fill="none" stroke="#000" stroke-width="3.136" stroke-linecap="round"><path d="M1265.563 970.47H1157.54M1481.609 970.47h-216.046" stroke-width="3.0002112000000003"/></g><g fill="#0000de" stroke-linecap="round"><path d="M1481.609 970.47h107.701" stroke="#000" stroke-width="3.0002112000000003"/><path d="M1589.31 970.47h108.345" stroke="teal" stroke-width="6.000422400000001"/></g><path d="M-68.184 683.252H141.37" fill="none" stroke="teal" stroke-width="8.169" stroke-linecap="round" transform="matrix(0 .5639 .9567 0 935.961 890.752)"/><path d="M1594.75 970.47a5.119 5.119 0 1 0-10.237 0 5.119 5.119 0 0 0 10.238 0z" stroke="#000" stroke-width="3.94207632" stroke-linecap="round"/><g fill="none" stroke="teal" stroke-width="6.272" stroke-linecap="round"><path d="M1805.678 970.47h-108.023M2021.724 970.47h-216.046" stroke-width="6.000422400000001"/></g><path d="M2021.724 970.47V847.7" fill="none" stroke="teal" stroke-width="6.000422400000001" stroke-linecap="round"/><g fill="none" stroke="teal" stroke-width="6.272" stroke-linecap="round"><path d="M1805.678 519.245h-108.023M2021.724 519.245h-216.046" stroke-width="6.000422400000001"/></g><text transform="matrix(0 1 -1 0 0 435.827)" y="-108.939" x="245.37" font-size="55.592" font-weight="400" font-family="Bitstream Vera Sans"><tspan y="-108.939" x="245.37">+</tspan></text><path d="M109.318 783.998h34.095" fill="none" stroke="#000" stroke-width="4"/><text transform="matrix(0 -1 -1 0 0 435.827)" y="-1194.946" x="-371.461" font-size="55.592" font-weight="400" font-family="Bitstream Vera Sans"><tspan y="-1194.946" x="-371.461">+</tspan></text><path d="M1195.325 703.654h34.095" fill="none" stroke="#000" stroke-width="4"/><path d="M2021.724 641.39V519.244" fill="none" stroke="teal" stroke-width="6" stroke-linecap="round"/><path d="M1810.513 519.245l-4.64 2.679-4.64 2.678v-10.715l4.64 2.679zM1801.233 970.47l4.64 2.68 4.64 2.678v-10.716l-4.64 2.68zM1589.632 626.502l2.68 4.64 2.678 4.64h-10.716l2.68-4.64zM1589.632 852.877l2.68 4.64 2.678 4.64h-10.716l2.68-4.64zM2021.724 635.782l2.679-4.64 2.679-4.64h-10.716l2.679 4.64zM2021.723 862.158l-2.679-4.64-2.678-4.64h10.715l-2.679 4.64zM729.684 518.443l-4.64 2.679-4.64 2.678v-10.715l4.64 2.679zM720.404 970.47l4.64 2.68 4.64 2.678v-10.716l-4.64 2.68zM288.703 970.47l4.64 2.68 4.64 2.678v-10.716l-4.64 2.68zM941.286 862.158l2.678-4.64 2.679-4.64h-10.716l2.68 4.64zM77.102 852.877l2.679 4.64 2.679 4.64H71.744l2.68-4.64zM509.194 862.158l2.679-4.64 2.678-4.64h-10.715l2.679 4.64zM941.114 635.782l2.68-4.64 2.678-4.64h-10.716l2.68 4.64zM77.102 626.502l2.679 4.64 2.679 4.64H71.744l2.68-4.64zM508.77 635.782l2.678-4.64 2.679-4.64H503.41l2.68 4.64z" fill="green" stroke="teal" stroke-width="14.953841"/></svg>