<svg xmlns="http://www.w3.org/2000/svg" xmlns:xlink="http://www.w3.org/1999/xlink" width="1488.189" height="1052.362"><title>Einweg-Gleichrichter</title><path style="marker:none" color="#000" fill="#fff" stroke="#fff" stroke-linecap="round" stroke-linejoin="round" overflow="visible" d="M63.851 93.177h1360.487v866.007H63.851z"/><path class="fil0 str0" fill="none" stroke="#1f1a17" stroke-width="3" stroke-linecap="round" d="M142.536 769.915V714.59M142.536 580.166v-56.074"/><g transform="rotate(-90 -274.902 1087.683)"><circle transform="matrix(4.54222 0 0 4.54222 75.997 1325.766)" class="fil0 str0" cx="9.401" cy="39.486" r="4.35" fill="none" stroke="#1f1a17" stroke-width=".66"/><circle transform="matrix(4.54222 0 0 4.54222 49.997 1325.766)" class="fil0 str0" cx="35.854" cy="39.486" r="4.35" fill="none" stroke="#1f1a17" stroke-width=".66"/></g><g fill="none" stroke="#000" stroke-linecap="round" stroke-linejoin="round" stroke-width="6.887"><path d="M142.535 646.428c0 6.422-5.205 11.627-11.627 11.627-6.422 0-11.627-5.205-11.627-11.627" stroke-width="3.00018381"/><path d="M165.79 647.578c0-6.421-5.206-11.627-11.628-11.627-6.421 0-11.627 5.206-11.627 11.627" stroke-width="3.00018381"/></g><g stroke="#000"><g stroke-width="3" fill="none"><path d="M379.91 303.62l-69.36 39.23v-78.461l69.36 39.23z" stroke-linecap="square"/><path d="M384.21 265.408v76.422" stroke-linecap="round"/></g><path d="M276.147 303.62l34.355.088m73.708-.089h30.102" fill="none" stroke-width="3" stroke-linecap="round"/></g><path d="M142.535 524.092V411.18M142.535 769.915v112.911" fill="none" stroke="#000" stroke-width="3" stroke-linecap="round"/><g fill="none" stroke="#000" stroke-width="3.508" stroke-linecap="round"><path d="M129.568 921.26h141.219M-96.255 921.26h225.823" transform="matrix(-.73127 0 0 1 340.554 -38.434)"/></g><text y="18.645" x="10.25" font-size="12" font-weight="400" font-family="Bitstream Vera Sans" transform="matrix(0 4.84228 -4.84228 0 993.457 292.29)"><tspan y="18.645" x="10.25">+</tspan></text><g stroke-width=".667" fill="none" stroke="#000" stroke-linecap="round"><path d="M967.567 395.235h-159.45M967.567 427.125h-159.45M887.842 395.132v-96.26M887.842 427.23v96.258" stroke-width="3.0015266800000004"/></g><g transform="rotate(90 1011.069 1249.679)"><path fill="none" stroke="#000" stroke-width="2.99991366" stroke-linecap="round" d="M257.707 891.84v58.84H114.34v-58.84z"/><path d="M114.34 921.26H76.566" id="a" fill="none" stroke="#000" stroke-width="3" stroke-linecap="round"/><use xlink:href="#a" transform="translate(181.141)" width="372.047" height="262.205" stroke-width="3" stroke-linecap="round"/></g><path d="M774.93 175.357h225.824" fill="#0000de" stroke="#000" stroke-width="3" stroke-linecap="round"/><path d="M-68.184 683.252H141.37" fill="none" stroke="#000" stroke-width="3.908" stroke-linecap="round" transform="matrix(0 -.58942 1 0 204.59 258.683)"/><path d="M893.193 175.357a5.35 5.35 0 1 1-10.701 0 5.35 5.35 0 0 1 10.7 0z" stroke="#000" stroke-width="3.9423000000000004" stroke-linecap="round"/><path d="M774.93 647.003h225.824" fill="#0000de" stroke="#000" stroke-width="3" stroke-linecap="round"/><path d="M-68.184 683.252H141.37" fill="none" stroke="#000" stroke-width="3.908" stroke-linecap="round" transform="matrix(0 .58942 1 0 204.59 563.677)"/><path d="M893.193 647.003a5.35 5.35 0 1 0-10.701 0 5.35 5.35 0 0 0 10.7 0z" stroke="#000" stroke-width="3.9423000000000004" stroke-linecap="round"/><path d="M129.58 921.26h112.9" fill="none" stroke="#000" stroke-width="2.696" stroke-linecap="round" transform="matrix(0 -1.23843 -1 0 2260.748 475.65)"/><g fill="none" stroke="#000" stroke-width="3" stroke-linecap="round"><path d="M1113.665 647.003h-112.911M1339.488 647.003h-225.823"/></g><path d="M1339.488 647.003V534.092" fill="none" stroke="#000" stroke-width="3" stroke-linecap="round"/><g fill="none" stroke="#000" stroke-width="3" stroke-linecap="round"><path d="M1113.665 175.357h-112.911M1339.488 175.357h-225.823"/></g><path d="M281.498 411.18a5.35 5.35 0 1 1-10.701 0 5.35 5.35 0 0 1 10.7 0z" stroke="#000" stroke-width="3.9423000000000004" stroke-linecap="round"/><g><path d="M276.147 411.18v112.912" fill="none" stroke="#000" stroke-width="3" stroke-linecap="round"/></g><g><path d="M276.147 303.62v112.91" fill="none" stroke="#000" stroke-width="3" stroke-linecap="round"/></g><g><g stroke="#000"><g stroke-width="3" fill="none"><path d="M310.55 524.092l69.36 39.23v-78.46l-69.36 39.23z" stroke-linecap="square"/><path d="M306.25 485.88v76.423" stroke-linecap="round"/></g><path d="M414.312 524.092l-34.354.089m-73.709-.09h-30.102" fill="none" stroke-width="3" stroke-linecap="round"/></g></g><path d="M419.663 524.092a5.35 5.35 0 1 1-10.701 0 5.35 5.35 0 0 1 10.7 0zM419.662 303.62a5.35 5.35 0 1 1-10.7 0 5.35 5.35 0 0 1 10.7 0z" stroke="#000" stroke-width="3.9423000000000004" stroke-linecap="round"/><g><g stroke="#000"><g stroke-width="3" fill="none"><path d="M518.074 524.092l-69.359 39.23v-78.46l69.36 39.23z" stroke-linecap="square"/><path d="M522.375 485.88v76.423" stroke-linecap="round"/></g><path d="M414.312 524.092l34.355.089m73.708-.09h30.102" fill="none" stroke-width="3" stroke-linecap="round"/></g></g><g><g stroke="#000"><g stroke-width="3" fill="none"><path d="M448.715 303.62l69.36 39.23v-78.461l-69.36 39.23z" stroke-linecap="square"/><path d="M444.414 265.408v76.422" stroke-linecap="round"/></g><path d="M552.477 303.62l-34.354.088m-73.709-.089h-30.102" fill="none" stroke-width="3" stroke-linecap="round"/></g></g><g><path d="M552.477 303.62v112.91" fill="none" stroke="#000" stroke-width="3" stroke-linecap="round"/></g><g><path d="M552.477 411.18v112.912" fill="none" stroke="#000" stroke-width="3" stroke-linecap="round"/></g><path d="M557.827 411.18a5.35 5.35 0 1 1-10.7 0 5.35 5.35 0 0 1 10.7 0z" stroke="#000" stroke-width="3.9423000000000004" stroke-linecap="round"/><g fill="none" stroke="#000" stroke-width="3.508" stroke-linecap="round"><path d="M129.568 921.26h112.911M-182.917 921.26h312.485" transform="matrix(-.73127 0 0 1 546.977 -38.434)"/></g><g><path d="M680.739 882.826V411.18" fill="none" stroke="#000" stroke-width="3" stroke-linecap="round"/></g><g><path d="M414.312 647.003V524.092" fill="none" stroke="#000" stroke-width="3" stroke-linecap="round"/></g><g><path d="M414.312 303.62V175.357" fill="none" stroke="#000" stroke-width="3" stroke-linecap="round"/></g><g fill="none" stroke="#000" stroke-linecap="round"><path d="M774.93 175.357H662.02" stroke-width="3"/><g stroke-width="3.508"><path d="M129.568 921.26h112.911M-96.255 921.26h225.823" transform="matrix(-.73127 0 0 1 591.63 -745.902)"/></g></g><g fill="none" stroke="#000" stroke-linecap="round"><path d="M772.95 647.003H660.038" stroke-width="3"/><g stroke-width="3.508"><path d="M129.568 921.26H239.77M-96.255 921.26h225.823" transform="matrix(-.73127 0 0 1 589.65 -274.257)"/></g></g><path d="M680.739 411.18H552.477M270.797 411.18H142.535" fill="none" stroke="#000" stroke-width="3" stroke-linecap="round"/></svg>