<svg xmlns="http://www.w3.org/2000/svg" xmlns:xlink="http://www.w3.org/1999/xlink" width="1052.362" height="744.094"><title>Einweg-Gleichrichter</title><path style="marker:none" color="#000" fill="#fff" stroke="#fff" stroke-linecap="round" stroke-linejoin="round" overflow="visible" d="M12.013 44.758h1028.335v654.58H12.013z"/><path class="fil0 str0" fill="none" stroke="#1f1a17" stroke-width="3" stroke-linecap="round" d="M71.452 511.663V456.34M71.452 321.914V265.84"/><g transform="rotate(-90 -449.92 1004.449)"><circle r="4.35" cy="39.486" cx="9.401" class="fil0 str0" transform="matrix(4.54222 0 0 4.54222 75.997 1346.467)" fill="none" stroke="#1f1a17" stroke-width=".66"/><circle r="4.35" cy="39.486" cx="35.854" class="fil0 str0" transform="matrix(4.54222 0 0 4.54222 49.997 1346.467)" fill="none" stroke="#1f1a17" stroke-width=".66"/></g><g fill="none" stroke="#000" stroke-linecap="round" stroke-linejoin="round" stroke-width="6.887"><path d="M71.452 388.177c0 6.421-5.205 11.627-11.627 11.627-6.421 0-11.627-5.206-11.627-11.627M94.707 389.327c0-6.422-5.206-11.628-11.627-11.628-6.422 0-11.628 5.206-11.628 11.628" stroke-width="3.00018381"/></g><g stroke-width="3" fill="none" stroke="#000"><path d="M323.256 152.929l-69.359 39.23V113.7l69.36 39.23z" stroke-linecap="square"/><path d="M327.557 114.718v76.422" stroke-linecap="round"/><g stroke-linecap="round"><path d="M184.364 152.929h69.533M327.557 152.929h82.63"/></g></g><g stroke-width=".667" fill="none" stroke="#000" stroke-linecap="round"><path d="M602.823 372.807h-159.45M602.823 404.697h-159.45M523.098 372.703v-96.26M523.098 404.8v96.26" stroke-width="3.0015266800000004"/></g><g transform="rotate(90 839.911 1056.093)"><path fill="none" stroke="#000" stroke-width="2.99991366" stroke-linecap="round" d="M244.254 891.84v58.84H100.886v-58.84z"/><path id="a" d="M101.713 921.26H76.566" fill="none" stroke="#000" stroke-width="3" stroke-linecap="round"/><use height="262.205" width="372.047" transform="translate(169.02)" xlink:href="#a" stroke-width="3" stroke-linecap="round"/></g><path d="M71.452 265.84V152.93M184.364 152.929H71.452" fill="none" stroke="#000" stroke-width="3" stroke-linecap="round"/><g><path d="M410.187 152.929H636.01" fill="#0000de" stroke="#000" stroke-width="3" stroke-linecap="round"/><path d="M-68.184 683.252H141.37" fill="none" stroke="#000" stroke-width="3.908" stroke-linecap="round" transform="matrix(0 -.58942 1 0 -160.154 236.255)"/><path d="M528.448 152.929a5.35 5.35 0 1 1-10.7 0 5.35 5.35 0 0 1 10.7 0z" stroke="#000" stroke-width="3.9423000000000004" stroke-linecap="round"/></g><g><path d="M71.452 511.663v112.912" fill="none" stroke="#000" stroke-width="3" stroke-linecap="round"/></g><g fill="none" stroke="#000" stroke-width="3" stroke-linecap="round"><path d="M184.364 624.575H71.452M410.187 624.575H184.364"/></g><g><path d="M410.187 624.575H636.01" fill="#0000de" stroke="#000" stroke-width="3" stroke-linecap="round"/><path d="M-68.184 683.252H141.37" fill="none" stroke="#000" stroke-width="3.908" stroke-linecap="round" transform="matrix(0 .58942 1 0 -160.154 541.249)"/><path d="M528.448 624.575a5.35 5.35 0 1 0-10.7 0 5.35 5.35 0 0 0 10.7 0z" stroke="#000" stroke-width="3.9423000000000004" stroke-linecap="round"/></g><g><path d="M129.58 921.26h112.9" fill="none" stroke="#000" stroke-width="2.696" stroke-linecap="round" transform="matrix(0 -1.23843 -1 0 1896.004 453.222)"/></g><g fill="none" stroke="#000" stroke-width="3" stroke-linecap="round"><path d="M748.921 624.575H636.01M974.744 624.575H748.921"/></g><g><path d="M974.744 624.575v-137.66" fill="none" stroke="#000" stroke-width="3" stroke-linecap="round"/></g><g fill="none" stroke="#000" stroke-width="3" stroke-linecap="round"><path d="M748.921 152.929H636.01M974.744 152.929H748.921"/></g></svg>