<svg xmlns="http://www.w3.org/2000/svg" xmlns:xlink="http://www.w3.org/1999/xlink" width="2979.921" height="2104.724"><title>Zweiweg-Gleichrichter (Stromfluss)</title><path style="marker:none" color="#000" fill="#fff" stroke="#fff" stroke-linecap="round" stroke-linejoin="round" overflow="visible" d="M63.851 619.358h2847.432v866.007H63.851z"/><path class="fil0 str0" fill="none" stroke="teal" stroke-width="6" stroke-linecap="round" d="M142.687 1287.346v-55.325M142.687 1112.347v-56.074"/><g transform="rotate(-90 -11.735 1350.697)"><circle r="4.35" cy="39.486" cx="9.401" class="fil0 str0" transform="matrix(4.54222 0 0 4.54222 83.997 1325.766)" fill="none" stroke="teal" stroke-width="1.321"/><circle r="4.35" cy="39.486" cx="35.854" class="fil0 str0" transform="matrix(4.54222 0 0 4.54222 43.997 1325.766)" fill="none" stroke="teal" stroke-width="1.321"/></g><g stroke-width="6" fill="none" stroke="teal"><path d="M380.061 829.8l-69.359 39.23v-78.46l69.36 39.23z" stroke-linecap="square"/><path d="M384.362 791.59v76.421" stroke-linecap="round"/></g><path d="M276.299 829.8l34.355.09m73.708-.09h30.102" fill="none" stroke="teal" stroke-width="6" stroke-linecap="round"/><path d="M129.568 900.56h112.911" fill="none" stroke="teal" stroke-width="5.83" stroke-linecap="round" transform="matrix(0 -1.05932 1 0 -757.872 1194.225)"/><path d="M129.568 921.26h112.911" fill="none" stroke="teal" stroke-width="5.746" stroke-linecap="round" transform="matrix(0 1.09054 1 0 -778.573 1144.574)"/><g fill="none" stroke="teal" stroke-width="7.016" stroke-linecap="round"><path d="M129.568 921.26h141.219M-96.255 921.26h225.823" transform="matrix(-.73127 0 0 1 340.706 487.747)"/></g><g stroke-width="1.333" fill="none" stroke="teal" stroke-linecap="round"><path d="M967.72 921.416H808.268M967.72 953.306H808.268M887.994 921.313v-96.26M887.994 953.41v96.26" stroke-width="5.99855332"/></g><g transform="rotate(90 748.054 1512.845)"><path d="M100.887 921.617l-24.321-.357" id="a" fill="none" stroke="teal" stroke-width="6" stroke-linecap="round"/><use xlink:href="#a" transform="translate(167.688 -.179)" width="372.047" height="262.205" stroke="teal" stroke-width="6" stroke-linecap="round"/><path fill="none" stroke="teal" stroke-width="5.99982732" stroke-linecap="round" d="M244.254 891.84v58.84H100.886v-58.84z"/></g><path d="M775.083 701.539h225.823" fill="#0000de" stroke="teal" stroke-width="6" stroke-linecap="round"/><path d="M-68.184 683.252H141.37" fill="none" stroke="teal" stroke-width="7.815" stroke-linecap="round" transform="matrix(0 -.58942 1 0 204.742 784.865)"/><path d="M893.344 701.539a5.35 5.35 0 1 1-10.7 0 5.35 5.35 0 0 1 10.7 0z" fill="teal" stroke="teal" stroke-width="6.0001806" stroke-linecap="round"/><path d="M775.083 1173.184h225.823" fill="#0000de" stroke="teal" stroke-width="6" stroke-linecap="round"/><path d="M-68.184 683.252H141.37" fill="none" stroke="teal" stroke-width="7.815" stroke-linecap="round" transform="matrix(0 .58942 1 0 204.742 1089.858)"/><path d="M893.344 1173.184a5.35 5.35 0 1 0-10.7 0 5.35 5.35 0 0 0 10.7 0z" fill="teal" stroke="teal" stroke-width="6.0001806" stroke-linecap="round"/><path d="M129.58 921.26h112.9" fill="none" stroke="teal" stroke-width="5.392" stroke-linecap="round" transform="matrix(0 -1.23843 -1 0 2260.9 1001.832)"/><g fill="none" stroke="teal" stroke-width="6" stroke-linecap="round"><path d="M1113.817 1173.184h-112.912M1339.64 1173.184h-225.823"/></g><path d="M1339.64 1173.184c0-37.637-.179-102.18-.179-139.818" fill="none" stroke="teal" stroke-width="6" stroke-linecap="round"/><g fill="none" stroke="teal" stroke-width="6" stroke-linecap="round"><path d="M1113.817 701.539h-112.912M1339.64 701.538h-225.823"/></g><path d="M276.299 937.361v112.912" fill="none" stroke="#000" stroke-width="3" stroke-linecap="round"/><path d="M276.299 829.8v107.561" fill="none" stroke="teal" stroke-width="6" stroke-linecap="round"/><g stroke="#000"><g stroke-width="3" fill="none"><path d="M310.702 1050.273l69.36 39.23v-78.46l-69.36 39.23z" stroke-linecap="square"/><path d="M306.401 1012.062v76.422" stroke-linecap="round"/></g><path d="M414.464 1050.273l-34.355.09m-73.708-.09H276.3" fill="none" stroke-width="3" stroke-linecap="round"/></g><path d="M414.464 1050.273l34.355.09m73.708-.09h30.102" fill="none" stroke="teal" stroke-width="6" stroke-linecap="round"/><path d="M518.226 1050.273l-69.359 39.23v-78.46l69.36 39.23z" fill="none" stroke="teal" stroke-width="6" stroke-linecap="square"/><path d="M522.527 1012.062v76.422" fill="none" stroke="teal" stroke-width="6" stroke-linecap="round"/><g stroke="#000"><g stroke-width="3" fill="none"><path d="M448.867 829.8l69.36 39.23v-78.46l-69.36 39.23z" stroke-linecap="square"/><path d="M444.566 791.59v76.421" stroke-linecap="round"/></g><path d="M552.629 829.8l-34.355.09m-73.708-.09h-30.102" fill="none" stroke-width="3" stroke-linecap="round"/></g><path d="M552.629 829.8v112.912" fill="none" stroke="#000" stroke-width="3" stroke-linecap="round"/><path d="M552.629 937.361v112.912" fill="none" stroke="teal" stroke-width="6" stroke-linecap="round"/><g fill="none" stroke="teal" stroke-width="7.016" stroke-linecap="round"><path d="M129.568 921.26h112.911M-182.917 921.26h312.485" transform="matrix(-.73127 0 0 1 547.129 487.747)"/></g><path d="M680.89 1409.007V937.361M414.464 1173.184v-122.911" fill="none" stroke="teal" stroke-width="6" stroke-linecap="round"/><path d="M419.814 1050.273a5.35 5.35 0 1 1-10.7 0 5.35 5.35 0 0 1 10.7 0z" fill="teal" stroke="teal" stroke-width="6.0001806" stroke-linecap="round"/><path d="M414.464 829.8V701.54" fill="none" stroke="teal" stroke-width="6" stroke-linecap="round"/><path d="M419.814 829.8a5.35 5.35 0 1 1-10.7 0 5.35 5.35 0 0 1 10.7 0z" fill="teal" stroke="teal" stroke-width="6.0001806" stroke-linecap="round"/><g fill="none" stroke="teal" stroke-linecap="round"><path d="M775.083 701.539H662.17" stroke-width="6"/><g stroke-width="7.016"><path d="M129.568 921.26h112.911M-96.255 921.26h225.823" transform="matrix(-.73127 0 0 1 591.782 -219.721)"/></g></g><g fill="none" stroke="teal" stroke-linecap="round"><path d="M773.102 1173.184H660.19" stroke-width="6"/><g stroke-width="7.016"><path d="M129.568 921.26H239.77M-96.255 921.26h225.823" transform="matrix(-.73127 0 0 1 589.802 251.925)"/></g></g><path d="M680.89 937.361H552.63" fill="none" stroke="teal" stroke-width="6" stroke-linecap="round"/><path d="M557.98 937.361a5.35 5.35 0 1 1-10.701 0 5.35 5.35 0 0 1 10.7 0z" fill="teal" stroke="teal" stroke-width="6.0001806" stroke-linecap="round"/><path d="M270.949 937.361H142.687" fill="none" stroke="teal" stroke-width="6" stroke-linecap="round"/><path class="fil0 str0" fill="none" stroke="teal" stroke-width="6" stroke-linecap="round" d="M1634.116 1287.346v-55.324M1634.116 1112.347v-56.074"/><g transform="rotate(-90 733.979 604.983)"><circle transform="matrix(4.54222 0 0 4.54222 83.997 1325.766)" class="fil0 str0" cx="9.401" cy="39.486" r="4.35" fill="none" stroke="teal" stroke-width="1.321"/><circle transform="matrix(4.54222 0 0 4.54222 43.997 1325.766)" class="fil0 str0" cx="35.854" cy="39.486" r="4.35" fill="none" stroke="teal" stroke-width="1.321"/></g><g stroke="#000"><g stroke-width="3" fill="none"><path d="M1871.49 829.8l-69.36 39.23v-78.46l69.36 39.23z" stroke-linecap="square"/><path d="M1875.79 791.59v76.421" stroke-linecap="round"/></g><path d="M1767.728 829.8l34.354.09m73.709-.09h30.102" fill="none" stroke-width="3" stroke-linecap="round"/></g><path d="M1634.116 1056.273V937.36M1634.116 1287.346v121.661" fill="none" stroke="teal" stroke-width="6" stroke-linecap="round"/><g fill="none" stroke="teal" stroke-width="7.016" stroke-linecap="round"><path d="M129.568 921.26h141.219M-96.255 921.26h225.823" transform="matrix(-.73127 0 0 1 1832.135 487.747)"/></g><g stroke-width="1.333" fill="none" stroke="teal" stroke-linecap="round"><path d="M2459.148 921.416h-159.45M2459.148 953.306h-159.45M2379.423 921.313v-96.26M2379.423 953.41v96.26" stroke-width="5.99855332"/></g><g transform="rotate(90 1493.768 2258.56)"><path fill="none" stroke="teal" stroke-width="5.99982732" stroke-linecap="round" d="M244.254 891.84v58.84H100.886v-58.84z"/><path d="M100.887 921.35l-24.321-.18" fill="none" stroke="teal" stroke-width="6" stroke-linecap="round"/><use xlink:href="#a" transform="translate(167.688 -.179)" width="372.047" height="262.205" stroke-width="3" stroke-linecap="round"/></g><path d="M2266.511 701.539h225.823" fill="#0000de" stroke="teal" stroke-width="6" stroke-linecap="round"/><path d="M-68.184 683.252H141.37" fill="none" stroke="teal" stroke-width="7.815" stroke-linecap="round" transform="matrix(0 -.58942 1 0 1696.17 784.865)"/><path d="M2384.773 701.539a5.35 5.35 0 1 1-10.7 0 5.35 5.35 0 0 1 10.7 0z" fill="teal" stroke="teal" stroke-width="6.0001806" stroke-linecap="round"/><path d="M2266.511 1173.184h225.823" fill="#0000de" stroke="teal" stroke-width="6" stroke-linecap="round"/><path d="M-68.184 683.252H141.37" fill="none" stroke="teal" stroke-width="7.815" stroke-linecap="round" transform="matrix(0 .58942 1 0 1696.17 1089.858)"/><path d="M2384.773 1173.184a5.35 5.35 0 1 0-10.7 0 5.35 5.35 0 0 0 10.7 0z" fill="teal" stroke="teal" stroke-width="6.0001806" stroke-linecap="round"/><path d="M129.58 921.26h112.9" fill="none" stroke="teal" stroke-width="5.392" stroke-linecap="round" transform="matrix(0 -1.23843 -1 0 3752.328 1001.832)"/><g fill="none" stroke="teal" stroke-width="6" stroke-linecap="round"><path d="M2605.245 1173.184h-112.91M2831.068 1173.184h-225.822"/></g><path d="M2831.068 1173.184c0-37.637-.178-102.18-.178-139.818" fill="none" stroke="teal" stroke-width="6" stroke-linecap="round"/><g fill="none" stroke="teal" stroke-width="6" stroke-linecap="round"><path d="M2605.245 701.539h-112.91M2831.068 701.539h-225.822"/></g><path d="M1767.728 937.361v112.912" fill="none" stroke="teal" stroke-width="6" stroke-linecap="round"/><path d="M1767.728 829.8v112.912" fill="none" stroke="#000" stroke-width="3" stroke-linecap="round"/><g><g stroke-width="6" fill="none" stroke="teal"><path d="M1802.13 1050.273l69.36 39.23v-78.46l-69.36 39.23z" stroke-linecap="square"/><path d="M1797.83 1012.062v76.422" stroke-linecap="round"/></g><path d="M1905.893 1050.273l-34.355.09m-73.708-.09h-30.102" fill="none" stroke="teal" stroke-width="6" stroke-linecap="round"/></g><g><g stroke="#000"><g stroke-width="3" fill="none"><path d="M2009.655 1050.273l-69.36 39.23v-78.46l69.36 39.23z" stroke-linecap="square"/><path d="M2013.956 1012.062v76.422" stroke-linecap="round"/></g><path d="M1905.893 1050.273l34.354.09m73.709-.09h30.102" fill="none" stroke-width="3" stroke-linecap="round"/></g></g><g><g stroke-width="6" fill="none" stroke="teal"><path d="M1940.296 829.8l69.359 39.23v-78.46l-69.36 39.23z" stroke-linecap="square"/><path d="M1935.995 791.59v76.421" stroke-linecap="round"/></g><path d="M2044.058 829.8l-34.355.09m-73.708-.09h-30.102" fill="none" stroke="teal" stroke-width="6" stroke-linecap="round"/></g><g><path d="M2044.058 829.8v107.561" fill="none" stroke="teal" stroke-width="6" stroke-linecap="round"/></g><g><path d="M2044.058 937.361v112.912" fill="none" stroke="#000" stroke-width="3" stroke-linecap="round"/></g><g fill="none" stroke="teal" stroke-width="7.016" stroke-linecap="round"><path d="M129.568 921.26h112.911M-182.917 921.26h312.485" transform="matrix(-.73127 0 0 1 2038.557 487.747)"/></g><g><path d="M2172.32 1409.007V937.361" fill="none" stroke="teal" stroke-width="6" stroke-linecap="round"/></g><g><path d="M1905.893 1173.184v-122.911" fill="none" stroke="teal" stroke-width="6" stroke-linecap="round"/></g><path d="M1911.243 1050.273a5.35 5.35 0 1 1-10.7 0 5.35 5.35 0 0 1 10.7 0z" fill="teal" stroke="teal" stroke-width="6.0001806" stroke-linecap="round"/><g><path d="M1905.893 829.8V701.54" fill="none" stroke="teal" stroke-width="6" stroke-linecap="round"/></g><path d="M1911.243 829.8a5.35 5.35 0 1 1-10.7 0 5.35 5.35 0 0 1 10.7 0z" fill="teal" stroke="teal" stroke-width="6.0001806" stroke-linecap="round"/><g fill="none" stroke="teal" stroke-linecap="round"><path d="M2266.511 701.539H2153.6" stroke-width="6"/><g stroke-width="7.016"><path d="M129.568 921.26h112.911M-96.255 921.26h225.823" transform="matrix(-.73127 0 0 1 2083.211 -219.721)"/></g></g><g fill="none" stroke="teal" stroke-linecap="round"><path d="M2264.53 1173.184H2151.62" stroke-width="6"/><g stroke-width="7.016"><path d="M129.568 921.26H239.77M-96.255 921.26h225.823" transform="matrix(-.73127 0 0 1 2081.23 251.925)"/></g></g><path d="M2172.32 937.361h-128.262" fill="none" stroke="teal" stroke-width="6" stroke-linecap="round"/><path d="M2049.408 937.361a5.35 5.35 0 1 1-10.7 0 5.35 5.35 0 0 1 10.7 0z" fill="teal" stroke="teal" stroke-width="6.0001806" stroke-linecap="round"/><path d="M1762.377 937.361h-128.261" fill="none" stroke="teal" stroke-width="6" stroke-linecap="round"/><path d="M1773.078 937.361a5.35 5.35 0 1 1-10.7 0 5.35 5.35 0 0 1 10.7 0zM281.65 937.361a5.35 5.35 0 1 1-10.701 0 5.35 5.35 0 0 1 10.7 0z" fill="teal" stroke="teal" stroke-width="6.0001806" stroke-linecap="round"/><path d="M142.687 1030.094l2.68 4.64 2.678 4.64h-10.716l2.68-4.64zM142.687 1304.995l2.68 4.64 2.678 4.64h-10.716l2.68-4.64zM214.133 937.362l-4.64 2.678-4.64 2.68V932.003l4.64 2.679zM276.3 878.94l2.678 4.64 2.679 4.64H270.94l2.68-4.64zM414.464 761.03l2.68 4.64 2.678 4.64h-10.716l2.68-4.64zM658.9 701.539l-4.64 2.679-4.64 2.678v-10.715l4.64 2.679zM1118.457 701.539l-4.64 2.679-4.64 2.678v-10.715l4.64 2.679zM887.994 1067.886l2.68-4.64 2.678-4.64h-10.716l2.68 4.64zM1339.64 1095.755l2.679-4.64 2.679-4.64h-10.716l2.68 4.64zM1339.64 788.248l2.679-4.64 2.679-4.64h-10.716l2.68 4.64zM1109.177 1173.184l4.64-2.679 4.64-2.678v10.715l-4.64-2.679zM646.589 1173.184l4.64-2.679 4.64-2.678v10.715l-4.64-2.679zM414.464 1107.114l2.68 4.64 2.678 4.64h-10.716l2.68-4.64zM621.4 937.362l-4.64 2.678-4.64 2.68V932.003l4.64 2.679zM680.891 1295.736l2.679-4.64 2.679-4.64h-10.716l2.68 4.64zM407.149 1409.007l4.64-2.679 4.64-2.679v10.716l-4.64-2.68zM887.994 816.118l2.68-4.64 2.678-4.64h-10.716l2.68 4.64zM680.891 1059.913l2.679-4.64 2.679-4.64h-10.716l2.68 4.64z" fill="green" stroke="teal" stroke-width="14.953841"/><text x="56.454" y="-175.788" transform="rotate(90 -526.181 526.181)" font-size="55.592" font-weight="400" font-family="Bitstream Vera Sans"><tspan x="56.454" y="-175.788">+</tspan></text><path d="M176.167 1212.263h34.095" fill="none" stroke="#000" stroke-width="4"/><text x="-183.19" y="-1667.43" transform="matrix(0 -1 -1 0 0 1052.362)" font-size="55.592" font-weight="400" font-family="Bitstream Vera Sans"><tspan x="-183.19" y="-1667.43">+</tspan></text><path d="M1667.81 1132.106h34.095" fill="none" stroke="#000" stroke-width="4"/><path d="M2379.423 1067.886l2.679-4.64 2.678-4.64h-10.715l2.679 4.64zM2831.069 1093.734l2.678-4.64 2.68-4.64H2825.71l2.679 4.64zM2831.069 788.248l2.678-4.64 2.68-4.64H2825.71l2.679 4.64zM2379.423 816.118l2.679-4.64 2.678-4.64h-10.715l2.679 4.64zM2609.886 701.539l-4.64 2.679-4.64 2.678v-10.715l4.64 2.679zM2147.298 701.539l-4.64 2.679-4.64 2.678v-10.715l4.64 2.679zM2138.018 1173.184l4.64-2.679 4.64-2.678v10.715l-4.64-2.679zM2600.605 1173.184l4.64-2.679 4.64-2.678v10.715l-4.64-2.679zM1905.893 1107.114l2.679 4.64 2.678 4.64h-10.715l2.679-4.64zM1700.691 937.362l4.64 2.678 4.64 2.68V932.003l-4.64 2.679zM1634.116 1314.275l2.679-4.64 2.678-4.64h-10.715l2.679 4.64zM2172.32 1286.456l2.678 4.64 2.68 4.64H2166.961l2.679-4.64zM2172.32 1050.633l2.678 4.64 2.68 4.64H2166.961l2.679-4.64zM1634.116 1039.374l2.679-4.64 2.678-4.64h-10.715l2.679 4.64zM1910.533 1409.007l-4.64-2.679-4.64-2.679v10.716l4.64-2.68zM2103.548 937.362l4.64 2.678 4.64 2.68V932.003l-4.64 2.679zM2044.058 878.94l2.679 4.64 2.678 4.64H2038.7l2.679-4.64zM1905.893 761.03l2.679 4.64 2.678 4.64h-10.715l2.679-4.64zM552.63 989.177l2.678 4.64 2.679 4.64H547.27l2.68-4.64zM1767.727 989.177l-2.678 4.64-2.68 4.64H1773.086l-2.679-4.64z" fill="green" stroke="teal" stroke-width="14.953841"/></svg>