<svg xmlns:ns0="http://www.iki.fi/pav/software/textext/" xmlns="http://www.w3.org/2000/svg" xmlns:xlink="http://www.w3.org/1999/xlink" width="1052.362" height="744.094"><title>Astabile Kippschaltung (Stromfluss)</title><defs><marker id="i" orient="auto" overflow="visible"><path d="M2.308 0l-3.46 2v-4l3.46 2z" fill-rule="evenodd" stroke="#000" stroke-width=".4pt"/></marker><symbol id="E" overflow="visible"><path d="M6.438-6.922a.12.12 0 0 0-.125-.11c-.047 0-.047.016-.172.157l-.485.563c-.25-.47-.765-.72-1.422-.72-1.265 0-2.453 1.157-2.453 2.36 0 .797.516 1.266 1.032 1.406l1.062.282c.375.093.922.25.922 1.062 0 .89-.813 1.828-1.797 1.828-.64 0-1.75-.218-1.75-1.453 0-.234.063-.484.063-.531.015-.047.015-.063.015-.078 0-.094-.062-.11-.11-.11a.142.142 0 0 0-.109.047C1.08-2.188.516.094.516.125c0 .047.046.094.109.094.047 0 .063-.016.188-.157L1.296-.5c.422.578 1.11.719 1.687.719 1.36 0 2.532-1.328 2.532-2.563 0-.687-.344-1.031-.485-1.172-.234-.218-.39-.265-1.265-.484-.235-.063-.579-.172-.672-.188a.928.928 0 0 1-.61-.906c0-.812.797-1.656 1.75-1.656.813 0 1.422.438 1.422 1.547 0 .312-.031.5-.031.562 0 0 0 .094.11.094.109 0 .124-.031.156-.203zm0 0"/></symbol><symbol id="F" overflow="visible"><path d="M2.328-4.438c0-.187 0-.187-.203-.187-.453.438-1.078.438-1.36.438v.25c.157 0 .626 0 1-.188v3.547c0 .234 0 .328-.687.328H.812V0c.125 0 .985-.031 1.235-.031.219 0 1.094.031 1.25.031v-.25H3.03c-.703 0-.703-.094-.703-.328zm0 0"/></symbol><linearGradient id="d"><stop offset="0" stop-opacity="0"/><stop offset="1" stop-color="#fff"/></linearGradient><linearGradient id="e"><stop offset="0" stop-color="#fff"/><stop offset="1" stop-color="#fff" stop-opacity="0"/></linearGradient><linearGradient id="f"><stop offset="0" stop-color="#1a1a1a" stop-opacity=".828"/><stop offset="1" stop-color="#fff"/></linearGradient><linearGradient id="a"><stop offset="0" stop-opacity="0"/><stop offset="1" stop-color="#fff"/></linearGradient><linearGradient id="b"><stop offset="0" stop-color="#ebebeb"/><stop offset="1" stop-color="#fff" stop-opacity="0"/></linearGradient><linearGradient id="c"><stop offset="0" stop-color="#0e0e0e" stop-opacity=".746"/><stop offset="1" stop-color="#fff"/></linearGradient><pattern id="g" height="5.181" width="30.066" patternUnits="userSpaceOnUse"><path d="M7.597.061C5.079-.187 2.656.302-.01 1.788v1.273c2.783-1.63 5.183-2.009 7.482-1.781 2.298.228 4.497 1.081 6.781 1.938 4.567 1.713 9.551 3.458 15.813-.157l-.004-1.273c-6.44 3.709-10.816 1.982-15.371.273-2.278-.854-4.576-1.75-7.094-2z"/></pattern><pattern xlink:href="#g" id="h" patternTransform="translate(.25)"/></defs><g transform="translate(0 -308.268)"><path style="marker:none" color="#000" fill="#fff" stroke="#fff" stroke-width="2.033" stroke-linecap="round" stroke-linejoin="round" overflow="visible" d="M1646.582-4720.835h3638.472v2466.155H1646.582z"/><path d="M47.688 408.938l3.07 5.317 3.07 5.317h-12.28l3.07-5.317z" id="D" fill="teal" stroke="teal" stroke-width=".9562134000000001"/><g stroke="teal" stroke-width="3.702"><path d="M73.076 923.572h452.452" fill="none" stroke-linecap="round" transform="matrix(.2278 0 0 .3203 138.47 43.958)"/></g><path d="M319.502 339.776l-5.317 3.07-5.317 3.07v-12.28l5.317 3.07z" fill="teal" stroke="teal" stroke-width=".9562134000000001"/><g stroke="teal"><g fill="none" stroke-width="3.381" stroke-linecap="round"><path d="M893.302 1257.256v-200.939M869.468 1120.08v73.413" transform="matrix(0 -.31944 .25288 0 -244.84 775.78)"/></g><g fill="none" stroke-width=".894" stroke-linecap="round"><path d="M28.155 469.03v10.553M22.281 474.307h10.553" stroke-width=".96092484"/></g><path d="M28.155 509v10.552" fill="none" stroke-width=".96087552" stroke-linecap="round"/></g><g fill="none" stroke="#000"><g stroke-width="1.639"><path style="marker:none" d="M435.827 100.866c0 5.87-6.346 10.63-14.173 10.63-7.828 0-14.174-4.76-14.174-10.63 0-5.87 6.346-10.63 14.174-10.63 7.827 0 14.173 4.76 14.173 10.63z" transform="matrix(-1.20584 0 0 1.60778 971.485 423.869)" color="#000" stroke-width=".69" stroke-linecap="square" overflow="visible"/><path d="M458.765 586.04h-93.638M458.765 594.585v-17.09M458.861 581.669l12.722-8.447v-1.499" stroke-width=".96105448" stroke-linecap="round"/><path d="M458.713 590.26l12.87 8.598v1.499" stroke-width=".96105448" stroke-linecap="round" stroke-linejoin="round"/></g><path d="M241.162 980.596l34.74 23.207" stroke-width="3.019" marker-end="url(#i)" transform="matrix(.3203 0 0 .3203 381.473 276.18)"/></g><path d="M471.576 571.204l.095-46.954M471.488 648.807l.095-48.45" fill="none" stroke="#000" stroke-width=".9608999999999999" stroke-linecap="round"/><path d="M471.623 523.679v-36.183" fill="none" stroke="teal" stroke-width=".961" stroke-linecap="round"/><g stroke-width="3" fill="none" stroke="teal"><path d="M471.66 461.861l-12.566-22.215h25.13L471.66 461.86z" stroke-linecap="square" stroke-width=".9608999999999999"/><path d="M483.898 463.239H459.42" stroke-linecap="round" stroke-width=".9608999999999999"/><path d="M695.75 614.612l45.47-45.47M716.5 626.362l45.47-45.47" stroke-linecap="round" marker-end="url(#i)" transform="rotate(90 231.317 453.553) scale(.3203)"/><g stroke-linecap="round"><path d="M471.66 415.512v24.134M471.623 463.239v24.133" stroke-width=".9608999999999999"/></g></g><path fill="none" stroke-width=".9608999999999999" stroke-linecap="round" d="M480.406 398.666H461.56v-45.92h18.846z" stroke="teal"/><path d="M153.404 523.964h30.915" fill="none" stroke="#000" stroke-width=".961" stroke-linecap="round"/><path d="M153.404 525.678a1.714 1.714 0 1 1 0-3.427 1.714 1.714 0 1 1 0 3.427z" fill="teal" stroke="teal" stroke-width="1.2627" stroke-linecap="round"/><g stroke="teal" stroke-width="6.244"><g fill="none"><g stroke-width="1.659"><path transform="matrix(1.20584 0 0 1.60778 -346.41 423.583)" d="M435.827 100.866c0 5.87-6.346 10.63-14.173 10.63-7.828 0-14.174-4.76-14.174-10.63 0-5.87 6.346-10.63 14.174-10.63 7.827 0 14.173 4.76 14.173 10.63z" style="marker:none" color="#000" stroke-width="1.436" stroke-linecap="square" overflow="visible"/><path d="M166.309 585.754h17.09M166.309 594.3v-17.091M166.213 581.383l-12.722-8.447v-1.498" stroke-linecap="round" stroke-width="2.00048856"/><path d="M166.36 589.975l-12.87 8.597v8.546" stroke-linecap="round" stroke-linejoin="round" stroke-width="2.00048856"/></g><path d="M241.162 980.596l34.74 23.207" marker-end="url(#i)" transform="matrix(-.3203 0 0 .3203 243.601 275.895)"/></g><path d="M153.498 570.918l-.095-46.954" fill="none" stroke-linecap="round" stroke-width="1.9999531999999998"/></g><path d="M153.404 415.315v-17.276" fill="none" stroke="#000" stroke-width=".961" stroke-linecap="round"/><g fill="none" stroke="teal" stroke-width="6.244"><path d="M153.367 461.861l12.566-22.215h-25.131l12.565 22.215z" stroke-linecap="square" stroke-width="1.9999531999999998"/><path d="M141.128 463.239h24.478" stroke-linecap="round" stroke-width="1.9999531999999998"/><path d="M695.75 614.612l45.47-45.47M716.5 626.362l45.47-45.47" stroke-width="3.122" stroke-linecap="round" marker-end="url(#i)" transform="matrix(0 .3203 .3203 0 -59.84 222.237)"/><g stroke-linecap="round"><path d="M153.367 415.512v24.134M153.404 463.239v24.133" stroke-width="1.9999531999999998"/></g></g><path fill="none" stroke="teal" stroke-width="2" stroke-linecap="round" d="M162.569 398.039h-18.331v-44.665h18.331z"/><path d="M153.404 522.438v-35.065" fill="none" stroke="#000" stroke-width=".961" stroke-linecap="round"/><path d="M73.076 923.572h452.35" fill="none" stroke-width="1.753" stroke-linecap="round" transform="matrix(.9372 0 0 .32072 -20.938 352.594)" stroke="#000"/><path d="M153.396 648.59l.095-48.45" fill="none" stroke="#000" stroke-width=".961" stroke-linecap="round"/><path d="M183.4 585.754l76.5.095" fill="none" stroke="teal" stroke-width=".961" stroke-linecap="round"/><path d="M365.127 586.04L259.9 523.964" fill="none" stroke="#000" stroke-width=".961"/><path d="M259.9 586.04l105.227-62.076" fill="none" stroke="teal" stroke-width=".961"/><path d="M47.688 490.422v-53.774" fill="none" stroke="#000" stroke-width=".961" stroke-linecap="round"/><path d="M47.688 339.776v150.17" fill="none" stroke="teal" stroke-width="2" stroke-linecap="round"/><path d="M47.548 648.682V498.036" fill="none" stroke="#000" stroke-width=".961" stroke-linecap="round"/><path d="M471.296 352.746v-12.97M471.66 415.512v-16.846" fill="none" stroke="teal" stroke-width=".961" stroke-linecap="round"/><path d="M73.076 923.572h452.452" fill="none" stroke-width="3.541" stroke-linecap="round" transform="matrix(.22986 0 0 .3203 30.89 43.958)" stroke="#000"/><path d="M153.404 341.49a1.714 1.714 0 1 1 0-3.428 1.714 1.714 0 1 1 0 3.428z" fill="teal" stroke="teal" stroke-width="1.2627" stroke-linecap="round"/><path d="M153.404 353.374v-13.598" fill="none" stroke="#000" stroke-width=".961" stroke-linecap="round"/><g ns0:text="$R _{\\rm{1}}$" transform="matrix(1.50863 0 0 1.50863 -172.312 179.036)" fill="teal"><defs><symbol overflow="visible" id="j"><path d="M3.734-6.125c.063-.234.094-.328.282-.36.093-.015.406-.015.609-.015.703 0 1.813 0 1.813.984 0 .344-.157 1.032-.547 1.422-.266.25-.782.578-1.688.578h-1.11zm1.438 2.734c1.016-.218 2.187-.921 2.187-1.921 0-.86-.89-1.5-2.203-1.5H2.328c-.203 0-.297 0-.297.203 0 .109.094.109.281.109.016 0 .204 0 .376.016.187.03.265.03.265.171 0 .032 0 .063-.031.188L1.578-.781c-.094.39-.11.469-.906.469-.172 0-.266 0-.266.203C.406 0 .531 0 .546 0c.282 0 .985-.031 1.25-.031.282 0 1 .031 1.282.031.078 0 .188 0 .188-.203 0-.11-.079-.11-.282-.11-.359 0-.64 0-.64-.171 0-.063.015-.11.031-.172l.656-2.64H4.22c.906 0 1.078.562 1.078.905 0 .141-.078.454-.14.688-.063.281-.157.64-.157.844C5 .219 6.203.219 6.328.219c.844 0 1.203-1 1.203-1.14 0-.126-.11-.126-.125-.126-.093 0-.11.063-.125.14-.25.735-.687.907-.906.907-.328 0-.406-.219-.406-.61 0-.312.062-.812.11-1.14.015-.14.03-.328.03-.469 0-.765-.671-1.078-.937-1.172zm0 0"/></symbol><symbol overflow="visible" id="k"><path d="M2.328-4.438c0-.187 0-.187-.203-.187-.453.438-1.078.438-1.36.438v.25c.157 0 .626 0 1-.188v3.547c0 .234 0 .328-.687.328H.812V0c.125 0 .985-.031 1.235-.031.219 0 1.094.031 1.25.031v-.25H3.03c-.703 0-.703-.094-.703-.328zm0 0"/></symbol></defs><use xlink:href="#j" x="223.432" y="134.765" width="1052.362" height="1488.189"/><use xlink:href="#k" x="230.997" y="136.259" width="1052.362" height="1488.189"/></g><g transform="matrix(1.50863 0 0 1.50863 -65.365 179.036)" ns0:text="$R _{\\rm{2}}$"><defs><symbol id="l" overflow="visible"><path d="M3.734-6.125c.063-.234.094-.328.282-.36.093-.015.406-.015.609-.015.703 0 1.813 0 1.813.984 0 .344-.157 1.032-.547 1.422-.266.25-.782.578-1.688.578h-1.11zm1.438 2.734c1.016-.218 2.187-.921 2.187-1.921 0-.86-.89-1.5-2.203-1.5H2.328c-.203 0-.297 0-.297.203 0 .109.094.109.281.109.016 0 .204 0 .376.016.187.03.265.03.265.171 0 .032 0 .063-.031.188L1.578-.781c-.094.39-.11.469-.906.469-.172 0-.266 0-.266.203C.406 0 .531 0 .546 0c.282 0 .985-.031 1.25-.031.282 0 1 .031 1.282.031.078 0 .188 0 .188-.203 0-.11-.079-.11-.282-.11-.359 0-.64 0-.64-.171 0-.063.015-.11.031-.172l.656-2.64H4.22c.906 0 1.078.562 1.078.905 0 .141-.078.454-.14.688-.063.281-.157.64-.157.844C5 .219 6.203.219 6.328.219c.844 0 1.203-1 1.203-1.14 0-.126-.11-.126-.125-.126-.093 0-.11.063-.125.14-.25.735-.687.907-.906.907-.328 0-.406-.219-.406-.61 0-.312.062-.812.11-1.14.015-.14.03-.328.03-.469 0-.765-.671-1.078-.937-1.172zm0 0"/></symbol><symbol id="m" overflow="visible"><path d="M3.516-1.266H3.28c-.015.157-.094.563-.187.625-.047.047-.578.047-.688.047H1.125c.734-.64.984-.844 1.39-1.172.516-.406 1-.843 1-1.5 0-.843-.734-1.359-1.624-1.359-.86 0-1.454.61-1.454 1.25 0 .344.297.39.376.39.156 0 .359-.124.359-.374 0-.125-.047-.375-.406-.375.218-.485.687-.641 1.015-.641.703 0 1.063.547 1.063 1.11 0 .609-.438 1.078-.656 1.328L.516-.266C.437-.203.437-.187.437 0h2.876zm0 0"/></symbol></defs><use y="134.765" x="223.432" xlink:href="#l" width="1052.362" height="1488.189"/><use y="136.259" x="230.997" xlink:href="#m" width="1052.362" height="1488.189"/></g><g ns0:text="$R _{\\rm{3}}$" transform="matrix(1.50863 0 0 1.50863 40.13 178.93)"><defs><symbol overflow="visible" id="n"><path d="M3.734-6.125c.063-.234.094-.328.282-.36.093-.015.406-.015.609-.015.703 0 1.813 0 1.813.984 0 .344-.157 1.032-.547 1.422-.266.25-.782.578-1.688.578h-1.11zm1.438 2.734c1.016-.218 2.187-.921 2.187-1.921 0-.86-.89-1.5-2.203-1.5H2.328c-.203 0-.297 0-.297.203 0 .109.094.109.281.109.016 0 .204 0 .376.016.187.03.265.03.265.171 0 .032 0 .063-.031.188L1.578-.781c-.094.39-.11.469-.906.469-.172 0-.266 0-.266.203C.406 0 .531 0 .546 0c.282 0 .985-.031 1.25-.031.282 0 1 .031 1.282.031.078 0 .188 0 .188-.203 0-.11-.079-.11-.282-.11-.359 0-.64 0-.64-.171 0-.063.015-.11.031-.172l.656-2.64H4.22c.906 0 1.078.562 1.078.905 0 .141-.078.454-.14.688-.063.281-.157.64-.157.844C5 .219 6.203.219 6.328.219c.844 0 1.203-1 1.203-1.14 0-.126-.11-.126-.125-.126-.093 0-.11.063-.125.14-.25.735-.687.907-.906.907-.328 0-.406-.219-.406-.61 0-.312.062-.812.11-1.14.015-.14.03-.328.03-.469 0-.765-.671-1.078-.937-1.172zm0 0"/></symbol><symbol overflow="visible" id="o"><path d="M1.906-2.328c.547 0 .938.375.938 1.125 0 .86-.516 1.125-.906 1.125-.282 0-.907-.078-1.188-.5.328 0 .406-.235.406-.39 0-.22-.172-.376-.39-.376a.38.38 0 0 0-.391.407C.375-.281 1.094.14 1.938.14c.968 0 1.64-.657 1.64-1.344 0-.547-.437-1.094-1.203-1.25.719-.266.984-.781.984-1.219 0-.547-.625-.953-1.406-.953-.766 0-1.36.375-1.36.938 0 .234.157.359.36.359.219 0 .36-.156.36-.344 0-.203-.141-.36-.36-.375.25-.297.719-.375.985-.375.312 0 .75.156.75.75 0 .297-.094.625-.282.828-.219.266-.422.281-.765.313-.172.015-.188.015-.22.015-.015 0-.077.016-.077.094 0 .094.062.094.187.094zm0 0"/></symbol></defs><use height="1488.189" width="1052.362" xlink:href="#n" x="223.432" y="134.765"/><use height="1488.189" width="1052.362" xlink:href="#o" x="230.997" y="136.259"/></g><g ns0:text="$R _{\\rm{4}}$" transform="matrix(1.50863 0 0 1.50863 145.911 179.036)" fill="teal"><defs><symbol overflow="visible" id="p"><path d="M3.734-6.125c.063-.234.094-.328.282-.36.093-.015.406-.015.609-.015.703 0 1.813 0 1.813.984 0 .344-.157 1.032-.547 1.422-.266.25-.782.578-1.688.578h-1.11zm1.438 2.734c1.016-.218 2.187-.921 2.187-1.921 0-.86-.89-1.5-2.203-1.5H2.328c-.203 0-.297 0-.297.203 0 .109.094.109.281.109.016 0 .204 0 .376.016.187.03.265.03.265.171 0 .032 0 .063-.031.188L1.578-.781c-.094.39-.11.469-.906.469-.172 0-.266 0-.266.203C.406 0 .531 0 .546 0c.282 0 .985-.031 1.25-.031.282 0 1 .031 1.282.031.078 0 .188 0 .188-.203 0-.11-.079-.11-.282-.11-.359 0-.64 0-.64-.171 0-.063.015-.11.031-.172l.656-2.64H4.22c.906 0 1.078.562 1.078.905 0 .141-.078.454-.14.688-.063.281-.157.64-.157.844C5 .219 6.203.219 6.328.219c.844 0 1.203-1 1.203-1.14 0-.126-.11-.126-.125-.126-.093 0-.11.063-.125.14-.25.735-.687.907-.906.907-.328 0-.406-.219-.406-.61 0-.312.062-.812.11-1.14.015-.14.03-.328.03-.469 0-.765-.671-1.078-.937-1.172zm0 0"/></symbol><symbol overflow="visible" id="q"><path d="M3.688-1.14v-.25h-.782V-4.5c0-.14 0-.203-.14-.203-.094 0-.125 0-.188.11L.266-1.392v.25h2.062v.563c0 .25 0 .328-.578.328h-.188V0c.36-.016.797-.031 1.047-.031.266 0 .704.015 1.063.031v-.25h-.188c-.578 0-.578-.078-.578-.328v-.563zM2.375-3.939v2.547H.531zm0 0"/></symbol></defs><use height="1052.362" width="744.094" xlink:href="#p" x="223.432" y="134.765"/><use height="1052.362" width="744.094" xlink:href="#q" x="230.997" y="136.259"/></g><g transform="matrix(1.50863 0 0 1.50863 146.811 386.694)" ns0:text="$T _{\\rm{2}}$"><defs><symbol id="r" overflow="visible"><path d="M4.25-6.047c.078-.281.11-.344.234-.375.094-.016.422-.016.625-.016 1.016 0 1.454.032 1.454.813 0 .156-.032.547-.079.797 0 .047-.03.156-.03.187 0 .063.03.141.124.141.11 0 .125-.078.156-.234L7-6.47c.016-.047.016-.14.016-.172 0-.109-.094-.109-.266-.109H1.219c-.235 0-.25.016-.328.203l-.594 1.75c0 .016-.063.156-.063.188 0 .046.063.109.125.109.094 0 .11-.063.172-.219.531-1.547.797-1.718 2.266-1.718h.39c.282 0 .282.03.282.125a.775.775 0 0 1-.047.203L2.094-.781C2-.421 1.969-.312.906-.312c-.36 0-.422 0-.422.187C.484 0 .594 0 .656 0c.266 0 .547-.016.813-.016.281 0 .578-.015.86-.015.28 0 .546.015.827.015.281 0 .578.016.86.016.093 0 .218 0 .218-.203 0-.11-.078-.11-.343-.11-.235 0-.375 0-.625-.015-.297-.031-.375-.063-.375-.219 0-.015 0-.062.046-.203zm0 0"/></symbol><symbol id="s" overflow="visible"><path d="M3.516-1.266H3.28c-.015.157-.094.563-.187.625-.047.047-.578.047-.688.047H1.125c.734-.64.984-.844 1.39-1.172.516-.406 1-.843 1-1.5 0-.843-.734-1.359-1.624-1.359-.86 0-1.454.61-1.454 1.25 0 .344.297.39.376.39.156 0 .359-.124.359-.374 0-.125-.047-.375-.406-.375.218-.485.687-.641 1.015-.641.703 0 1.063.547 1.063 1.11 0 .609-.438 1.078-.656 1.328L.516-.266C.437-.203.437-.187.437 0h2.876zm0 0"/></symbol></defs><use y="134.765" x="223.432" xlink:href="#r" width="744.094" height="1052.362"/><use y="136.259" x="229.254" xlink:href="#s" width="744.094" height="1052.362"/></g><g ns0:text="$T _{\\rm{1}}$" transform="matrix(1.50863 0 0 1.50863 -210.626 386.408)" fill="teal"><defs><symbol overflow="visible" id="t"><path d="M4.25-6.047c.078-.281.11-.344.234-.375.094-.016.422-.016.625-.016 1.016 0 1.454.032 1.454.813 0 .156-.032.547-.079.797 0 .047-.03.156-.03.187 0 .063.03.141.124.141.11 0 .125-.078.156-.234L7-6.47c.016-.047.016-.14.016-.172 0-.109-.094-.109-.266-.109H1.219c-.235 0-.25.016-.328.203l-.594 1.75c0 .016-.063.156-.063.188 0 .046.063.109.125.109.094 0 .11-.063.172-.219.531-1.547.797-1.718 2.266-1.718h.39c.282 0 .282.03.282.125a.775.775 0 0 1-.047.203L2.094-.781C2-.421 1.969-.312.906-.312c-.36 0-.422 0-.422.187C.484 0 .594 0 .656 0c.266 0 .547-.016.813-.016.281 0 .578-.015.86-.015.28 0 .546.015.827.015.281 0 .578.016.86.016.093 0 .218 0 .218-.203 0-.11-.078-.11-.343-.11-.235 0-.375 0-.625-.015-.297-.031-.375-.063-.375-.219 0-.015 0-.062.046-.203zm0 0"/></symbol><symbol overflow="visible" id="u"><path d="M2.328-4.438c0-.187 0-.187-.203-.187-.453.438-1.078.438-1.36.438v.25c.157 0 .626 0 1-.188v3.547c0 .234 0 .328-.687.328H.812V0c.125 0 .985-.031 1.235-.031.219 0 1.094.031 1.25.031v-.25H3.03c-.703 0-.703-.094-.703-.328zm0 0"/></symbol></defs><use xlink:href="#t" x="223.432" y="134.765" width="744.094" height="1052.362"/><use xlink:href="#u" x="229.254" y="136.259" width="744.094" height="1052.362"/></g><g transform="matrix(1.50863 0 0 1.50863 -168.469 251.455)" ns0:text="$D _{\\rm{1}}$" fill="teal"><defs><symbol id="v" overflow="visible"><path d="M1.578-.781c-.094.39-.11.469-.906.469-.156 0-.266 0-.266.187C.406 0 .484 0 .672 0h3.312c2.063 0 4.032-2.11 4.032-4.281 0-1.407-.844-2.532-2.344-2.532H2.328c-.187 0-.297 0-.297.188 0 .125.078.125.281.125.126 0 .313.016.422.016.172.03.22.046.22.171 0 .032 0 .063-.032.188zm2.156-5.344c.094-.344.11-.375.547-.375h1.063c.968 0 1.797.531 1.797 1.844 0 .484-.188 2.125-1.047 3.218A2.919 2.919 0 0 1 3.797-.313H2.453c-.094-.015-.125-.03-.125-.109 0-.031 0-.047.047-.219zm0 0"/></symbol><symbol id="w" overflow="visible"><path d="M2.328-4.438c0-.187 0-.187-.203-.187-.453.438-1.078.438-1.36.438v.25c.157 0 .626 0 1-.188v3.547c0 .234 0 .328-.687.328H.812V0c.125 0 .985-.031 1.235-.031.219 0 1.094.031 1.25.031v-.25H3.03c-.703 0-.703-.094-.703-.328zm0 0"/></symbol></defs><use y="134.765" x="223.432" xlink:href="#v" width="744.094" height="1052.362"/><use y="136.259" x="231.68" xlink:href="#w" width="744.094" height="1052.362"/></g><g ns0:text="$D _{\\rm{2}}$" transform="matrix(1.50863 0 0 1.50863 99.6 251.455)" fill="teal"><defs><symbol overflow="visible" id="x"><path d="M1.578-.781c-.094.39-.11.469-.906.469-.156 0-.266 0-.266.187C.406 0 .484 0 .672 0h3.312c2.063 0 4.032-2.11 4.032-4.281 0-1.407-.844-2.532-2.344-2.532H2.328c-.187 0-.297 0-.297.188 0 .125.078.125.281.125.126 0 .313.016.422.016.172.03.22.046.22.171 0 .032 0 .063-.032.188zm2.156-5.344c.094-.344.11-.375.547-.375h1.063c.968 0 1.797.531 1.797 1.844 0 .484-.188 2.125-1.047 3.218A2.919 2.919 0 0 1 3.797-.313H2.453c-.094-.015-.125-.03-.125-.109 0-.031 0-.047.047-.219zm0 0"/></symbol><symbol overflow="visible" id="y"><path d="M3.516-1.266H3.28c-.015.157-.094.563-.187.625-.047.047-.578.047-.688.047H1.125c.734-.64.984-.844 1.39-1.172.516-.406 1-.843 1-1.5 0-.843-.734-1.359-1.624-1.359-.86 0-1.454.61-1.454 1.25 0 .344.297.39.376.39.156 0 .359-.124.359-.374 0-.125-.047-.375-.406-.375.218-.485.687-.641 1.015-.641.703 0 1.063.547 1.063 1.11 0 .609-.438 1.078-.656 1.328L.516-.266C.437-.203.437-.187.437 0h2.876zm0 0"/></symbol></defs><use xlink:href="#x" x="223.432" y="134.765" width="744.094" height="1052.362"/><use xlink:href="#y" x="231.68" y="136.259" width="744.094" height="1052.362"/></g><path fill="none" stroke="#000" stroke-width=".961" stroke-linecap="round" d="M228.984 514.799v18.331h-44.665v-18.331z"/><path fill="none" stroke="teal" stroke-width=".961" stroke-linecap="round" d="M440.708 514.799v18.331h-44.665v-18.331z"/><path d="M228.984 523.964h30.915" fill="none" stroke="#000" stroke-width=".961" stroke-linecap="round"/><path d="M365.127 523.964h30.916M440.708 523.679h30.915" fill="none" stroke="teal" stroke-width=".961" stroke-linecap="round"/><g stroke="#000" stroke-linecap="round"><path d="M259.9 481.936v-16.562" fill="none" stroke-width=".96077184"/><path d="M259.76 466.86a1.486 1.486 0 1 0 0-2.972 1.486 1.486 0 0 0 0 2.972z" stroke-width="1.262754"/></g><path d="M259.9 437.62a1.486 1.486 0 1 0 0-2.973 1.486 1.486 0 0 0 0 2.972z" stroke="#000" stroke-width="1.262754" stroke-linecap="round"/><path d="M259.9 419.572v16.561" fill="none" stroke="#000" stroke-width=".96077184" stroke-linecap="round"/><g stroke="#000" stroke-width="3.459" stroke-linecap="round"><path d="M252.637 436.56v28.388" fill="#0000de" stroke-width=".96077184"/><path d="M237.902 450.754h14.735" fill="none" stroke-width=".96077184"/></g><g stroke="#000" stroke-linecap="round"><path d="M366.025 481.936v-16.562" fill="none" stroke-width=".96077184"/><path d="M366.025 466.86a1.486 1.486 0 1 1 0-2.972 1.486 1.486 0 0 1 0 2.972z" stroke-width="1.262754"/></g><path d="M365.886 437.62a1.486 1.486 0 1 1 0-2.973 1.486 1.486 0 0 1 0 2.972z" stroke="#000" stroke-width="1.262754" stroke-linecap="round"/><path d="M365.886 419.572v16.561" fill="none" stroke="#000" stroke-width=".96077184" stroke-linecap="round"/><g stroke="#000" stroke-width="3.459" stroke-linecap="round"><path d="M373.149 436.56v28.388" fill="#0000de" stroke-width=".96077184"/><path d="M387.884 450.754h-14.735" fill="none" stroke-width=".96077184"/></g><path d="M259.9 525.678a1.714 1.714 0 1 1 0-3.427 1.714 1.714 0 1 1 0 3.427z" stroke="#000" stroke-width="1.2627" stroke-linecap="round"/><path d="M366.025 522.25v-40.314" fill="none" stroke="#000" stroke-width=".961" stroke-linecap="round"/><path d="M366.025 525.678a1.714 1.714 0 1 1 0-3.427 1.714 1.714 0 1 1 0 3.427z" fill="teal" stroke="teal" stroke-width="1.2627" stroke-linecap="round"/><path fill="none" stroke="#000" stroke-width=".961" stroke-linecap="round" d="M269.065 398.039h-18.331v-44.665h18.331zM375.052 398.039h-18.331v-44.665h18.331zM365.886 353.374v-13.598"/><path d="M365.886 341.49a1.714 1.714 0 1 1 0-3.428 1.714 1.714 0 1 1 0 3.428z" fill="teal" stroke="teal" stroke-width="1.2627" stroke-linecap="round"/><path d="M259.9 353.374v-13.598" fill="none" stroke="#000" stroke-width=".961" stroke-linecap="round"/><path d="M259.9 341.49a1.714 1.714 0 1 1 0-3.428 1.714 1.714 0 1 1 0 3.428z" fill="teal" stroke="teal" stroke-width="1.2627" stroke-linecap="round"/><path d="M259.9 419.572v-21.533M365.886 419.572v-21.533M259.9 522.25v-40.314" fill="none" stroke="#000" stroke-width=".961" stroke-linecap="round"/><g ns0:text="$R _{\\rm{6}}$" transform="matrix(1.50863 0 0 1.50863 72.588 305.231)" fill="teal"><defs><symbol overflow="visible" id="z"><path d="M3.734-6.125c.063-.234.094-.328.282-.36.093-.015.406-.015.609-.015.703 0 1.813 0 1.813.984 0 .344-.157 1.032-.547 1.422-.266.25-.782.578-1.688.578h-1.11zm1.438 2.734c1.016-.218 2.187-.921 2.187-1.921 0-.86-.89-1.5-2.203-1.5H2.328c-.203 0-.297 0-.297.203 0 .109.094.109.281.109.016 0 .204 0 .376.016.187.03.265.03.265.171 0 .032 0 .063-.031.188L1.578-.781c-.094.39-.11.469-.906.469-.172 0-.266 0-.266.203C.406 0 .531 0 .546 0c.282 0 .985-.031 1.25-.031.282 0 1 .031 1.282.031.078 0 .188 0 .188-.203 0-.11-.079-.11-.282-.11-.359 0-.64 0-.64-.171 0-.063.015-.11.031-.172l.656-2.64H4.22c.906 0 1.078.562 1.078.905 0 .141-.078.454-.14.688-.063.281-.157.64-.157.844C5 .219 6.203.219 6.328.219c.844 0 1.203-1 1.203-1.14 0-.126-.11-.126-.125-.126-.093 0-.11.063-.125.14-.25.735-.687.907-.906.907-.328 0-.406-.219-.406-.61 0-.312.062-.812.11-1.14.015-.14.03-.328.03-.469 0-.765-.671-1.078-.937-1.172zm0 0"/></symbol><symbol overflow="visible" id="A"><path d="M1.047-2.281c0-.563.047-1.078.312-1.516.235-.375.61-.625 1.063-.625.203 0 .484.047.625.234-.172.016-.328.141-.328.344a.32.32 0 0 0 .328.328c.219 0 .344-.14.344-.343 0-.407-.297-.766-.985-.766-1 0-2.031.922-2.031 2.422C.375-.406 1.219.14 2 .14c.844 0 1.578-.657 1.578-1.563 0-.89-.703-1.547-1.515-1.547-.563 0-.86.375-1.016.688zM2-.078c-.36 0-.625-.203-.781-.516-.094-.203-.157-.562-.157-.969 0-.687.407-1.203.97-1.203.312 0 .53.125.702.375.172.266.172.563.172.97 0 .39 0 .687-.187.968A.815.815 0 0 1 2-.078zm0 0"/></symbol></defs><use xlink:href="#z" x="223.432" y="134.765" width="744.094" height="1052.362"/><use xlink:href="#A" x="230.997" y="136.259" width="744.094" height="1052.362"/></g><g transform="matrix(1.50863 0 0 1.50863 -139.09 305.231)" ns0:text="$R _{\\rm{5}}$"><defs><symbol id="B" overflow="visible"><path d="M3.734-6.125c.063-.234.094-.328.282-.36.093-.015.406-.015.609-.015.703 0 1.813 0 1.813.984 0 .344-.157 1.032-.547 1.422-.266.25-.782.578-1.688.578h-1.11zm1.438 2.734c1.016-.218 2.187-.921 2.187-1.921 0-.86-.89-1.5-2.203-1.5H2.328c-.203 0-.297 0-.297.203 0 .109.094.109.281.109.016 0 .204 0 .376.016.187.03.265.03.265.171 0 .032 0 .063-.031.188L1.578-.781c-.094.39-.11.469-.906.469-.172 0-.266 0-.266.203C.406 0 .531 0 .546 0c.282 0 .985-.031 1.25-.031.282 0 1 .031 1.282.031.078 0 .188 0 .188-.203 0-.11-.079-.11-.282-.11-.359 0-.64 0-.64-.171 0-.063.015-.11.031-.172l.656-2.64H4.22c.906 0 1.078.562 1.078.905 0 .141-.078.454-.14.688-.063.281-.157.64-.157.844C5 .219 6.203.219 6.328.219c.844 0 1.203-1 1.203-1.14 0-.126-.11-.126-.125-.126-.093 0-.11.063-.125.14-.25.735-.687.907-.906.907-.328 0-.406-.219-.406-.61 0-.312.062-.812.11-1.14.015-.14.03-.328.03-.469 0-.765-.671-1.078-.937-1.172zm0 0"/></symbol><symbol id="C" overflow="visible"><path d="M1.078-3.89c.36.093.563.093.672.093.922 0 1.469-.625 1.469-.734 0-.078-.047-.094-.078-.094-.016 0-.032 0-.063.016-.172.062-.531.203-1.047.203-.203 0-.562-.016-1.015-.188-.079-.031-.094-.031-.094-.031-.094 0-.094.078-.094.188v2.046c0 .125 0 .204.11.204.062 0 .078 0 .14-.094.297-.375.734-.438.969-.438.422 0 .61.328.64.39.126.235.172.5.172.907 0 .203 0 .61-.218.922a.984.984 0 0 1-.813.422c-.453 0-.922-.25-1.094-.719.266.016.407-.156.407-.344 0-.296-.266-.343-.36-.343 0 0-.344 0-.344.375 0 .625.579 1.25 1.407 1.25.89 0 1.672-.657 1.672-1.547 0-.782-.594-1.5-1.454-1.5-.312 0-.671.062-.984.328zm0 0"/></symbol></defs><use y="134.765" x="223.432" xlink:href="#B" width="744.094" height="1052.362"/><use y="136.259" x="230.997" xlink:href="#C" width="744.094" height="1052.362"/></g><path d="M151.69 339.776H47.688" fill="none" stroke="teal" stroke-width="2" stroke-linecap="round"/><use height="1052.362" width="744.094" transform="rotate(90 110.918 403.007)" xlink:href="#D" stroke-width="3"/><use height="1052.362" width="744.094" transform="rotate(90 164.347 456.435)" xlink:href="#D" stroke-width="3"/><path d="M47.549 567.8l3.07 5.317 3.069 5.317h-12.28l3.07-5.318z" fill="teal" stroke="teal" stroke-width=".9562134000000001"/><path d="M47.548 498.638v150.169M153.368 522.361v-58.914M153.367 438.717v-39.526M153.404 352.962v-12.774M153.396 648.49v-47.33" fill="none" stroke="teal" stroke-width="2" stroke-linecap="round"/><use height="1052.362" width="744.094" transform="matrix(1 0 0 -1 105.68 833.21)" xlink:href="#D" stroke-width="3"/><use height="1052.362" width="744.094" transform="matrix(1 0 0 -1 105.68 907.159)" xlink:href="#D" stroke-width="3"/><path d="M153.404 570.262v-46.19" fill="none" stroke="teal" stroke-width="2" stroke-linecap="round"/><use height="1052.362" width="744.094" transform="matrix(1 0 0 -1 105.708 1039.08)" xlink:href="#D" stroke-width="3"/><use height="1052.362" width="744.094" transform="matrix(1 0 0 -1 105.716 961.422)" xlink:href="#D" stroke-width="3"/><path d="M425.008 339.776l-5.317 3.07-5.317 3.07v-12.28l5.317 3.07z" fill="teal" stroke="teal" stroke-width=".9562134000000001"/><path d="M471.623 525.392a1.714 1.714 0 1 1 0-3.427 1.714 1.714 0 1 1 0 3.427z" fill="teal" stroke="teal" stroke-width="1.2627" stroke-linecap="round"/><use xlink:href="#D" transform="matrix(1 0 0 -1 424.059 832.798)" width="744.094" height="1052.362" stroke-width="3"/><use xlink:href="#D" transform="matrix(1 0 0 -1 424.059 906.747)" width="744.094" height="1052.362" stroke-width="3"/><path d="M214.439 585.754l5.317 3.07 5.317 3.07v-12.28l-5.318 3.07zM375.42 523.965l5.317 3.07 5.317 3.069v-12.28l-5.317 3.07zM450.848 523.679l5.318 3.07 5.317 3.07v-12.28l-5.318 3.07z" fill="teal" stroke="teal" stroke-width=".9562134000000001"/><use height="744.094" width="1052.362" transform="translate(238.718 154.345)" xlink:href="#D"/><use xlink:href="#D" transform="translate(291.294 123.36)" width="1052.362" height="744.094"/><path d="M47.548 648.807h105.145" fill="none" stroke="teal" stroke-width="2" stroke-linecap="round"/><path d="M94.804 648.807l5.317 3.07 5.317 3.07v-12.28l-5.318 3.07z" fill="teal" stroke="teal" stroke-width=".9562134000000001"/><g ns0:text="$S _{\\rm{2}}$"><path d="M356.04 444.488a.18.18 0 0 0-.189-.165c-.07 0-.07.023-.259.236l-.73.848c-.378-.707-1.156-1.084-2.146-1.084-1.91 0-3.7 1.744-3.7 3.56 0 1.201.777 1.909 1.555 2.12l1.603.425c.566.142 1.39.377 1.39 1.603 0 1.344-1.225 2.758-2.71 2.758-.966 0-2.64-.33-2.64-2.192 0-.354.094-.731.094-.802.024-.07.024-.094.024-.118 0-.141-.095-.165-.165-.165a.214.214 0 0 0-.165.071c-.047.047-.896 3.489-.896 3.536 0 .07.07.141.165.141.07 0 .094-.023.283-.235l.73-.849c.637.872 1.674 1.084 2.546 1.084 2.051 0 3.82-2.003 3.82-3.865 0-1.038-.52-1.556-.732-1.768-.353-.33-.589-.401-1.909-.731-.354-.094-.872-.26-1.014-.283-.4-.141-.919-.566-.919-1.367 0-1.226 1.202-2.499 2.64-2.499 1.226 0 2.145.66 2.145 2.334 0 .471-.047.754-.047.848 0 0 0 .142.165.142s.189-.047.236-.307zm0 0M360.848 455.275h-.354c-.023.236-.14.849-.282.943-.071.07-.873.07-1.038.07h-1.932a58.335 58.335 0 0 1 2.097-1.767c.778-.613 1.51-1.273 1.51-2.263 0-1.273-1.109-2.051-2.452-2.051-1.297 0-2.193.92-2.193 1.886 0 .518.448.589.566.589a.552.552 0 0 0 .542-.566c0-.188-.07-.565-.613-.565.33-.731 1.038-.967 1.533-.967 1.06 0 1.602.825 1.602 1.674 0 .919-.66 1.626-.99 2.003l-2.522 2.523c-.118.094-.118.117-.118.4h4.338zm0 0"/></g><g ns0:text="$S _{\\rm{1}}$"><use height="744.094" width="1052.362" y="134.765" x="223.432" xlink:href="#E" transform="matrix(1.50863 0 0 1.50863 -73.01 251.62)"/><use height="744.094" width="1052.362" y="136.259" x="229.541" xlink:href="#F" transform="matrix(1.50863 0 0 1.50863 -73.01 251.62)"/></g><g stroke="teal" stroke-width="3.702"><path d="M73.076 923.572h452.452" fill="none" stroke-linecap="round" transform="matrix(.2278 0 0 .3203 244.232 43.958)"/></g><g stroke="teal" stroke-width="3.702"><path d="M73.076 923.572h452.452" fill="none" stroke-linecap="round" transform="matrix(.2278 0 0 .3203 352.068 43.958)"/></g><path d="M573.87 408.938l3.069 5.317 3.07 5.317h-12.28l3.07-5.317z" fill="teal" stroke="teal" stroke-width=".9562134000000001"/><path d="M73.076 923.572h452.452" fill="none" stroke-width="1.755" stroke-linecap="round" transform="matrix(.93625 0 0 .3203 505.452 43.958)" stroke="#000"/><path d="M892.938 339.776H787.794" fill="none" stroke="teal" stroke-width="1.913" stroke-linecap="round"/><path d="M845.683 339.776l-5.317 3.07-5.317 3.07v-12.28l5.317 3.07z" fill="teal" stroke="teal" stroke-width=".9562134000000001"/><g stroke="teal"><g fill="none" stroke-width="3.381" stroke-linecap="round"><path d="M893.302 1257.256v-200.939M869.468 1120.08v73.413" transform="matrix(0 -.31944 .25288 0 281.34 775.78)"/></g><g fill="none" stroke-width=".894" stroke-linecap="round"><path d="M554.336 469.03v10.553M548.462 474.307h10.553" stroke-width=".96092484"/></g><path d="M554.336 509v10.552" fill="none" stroke-width=".96087552" stroke-linecap="round"/></g><g stroke="teal" stroke-width="6.244"><g fill="none"><g stroke-width="1.659"><path transform="matrix(-1.20584 0 0 1.60778 1497.666 423.869)" d="M435.827 100.866c0 5.87-6.346 10.63-14.173 10.63-7.828 0-14.174-4.76-14.174-10.63 0-5.87 6.346-10.63 14.174-10.63 7.827 0 14.173 4.76 14.173 10.63z" style="marker:none" color="#000" stroke-width="1.436" stroke-linecap="square" overflow="visible"/><path d="M984.946 586.04H891.31" stroke-width=".9996413599999999" stroke-linecap="round"/><path d="M984.946 594.585v-17.09M985.042 581.669l12.722-8.447v-1.499" stroke-linecap="round" stroke-width="2.00048856"/><path d="M984.894 590.26l12.87 8.598v1.499" stroke-linecap="round" stroke-linejoin="round" stroke-width="2.00048856"/></g><path d="M241.162 980.596l34.74 23.207" marker-end="url(#i)" transform="matrix(.3203 0 0 .3203 907.654 276.18)"/></g><path d="M997.757 571.204l.095-46.954M997.67 648.807l.094-48.45" fill="none" stroke-linecap="round" stroke-width="1.9999531999999998"/></g><path d="M997.804 523.679v-36.183" fill="none" stroke="#000" stroke-width=".961" stroke-linecap="round"/><g fill="none" stroke="teal" stroke-width="6.244"><path d="M997.84 461.861l-12.565-22.215h25.13L997.84 461.86z" stroke-linecap="square" stroke-width="1.9999531999999998"/><path d="M1010.08 463.239H985.6" stroke-linecap="round" stroke-width="1.9999531999999998"/><path d="M695.75 614.612l45.47-45.47M716.5 626.362l45.47-45.47" stroke-width="3.122" stroke-linecap="round" marker-end="url(#i)" transform="rotate(90 494.41 716.643) scale(.3203)"/><g stroke-linecap="round"><path d="M997.84 415.512v24.134M997.804 463.239v24.133" stroke-width="1.9999531999999998"/></g></g><path fill="none" stroke-linecap="round" d="M1006.587 398.666h-18.846v-45.92h18.846z" stroke="teal" stroke-width="1.9999531999999998"/><path d="M679.585 523.964H710.5" fill="none" stroke="teal" stroke-width=".961" stroke-linecap="round"/><g stroke="#000"><g fill="none"><g stroke-width="1.639"><path style="marker:none" d="M435.827 100.866c0 5.87-6.346 10.63-14.173 10.63-7.828 0-14.174-4.76-14.174-10.63 0-5.87 6.346-10.63 14.174-10.63 7.827 0 14.173 4.76 14.173 10.63z" transform="matrix(1.20584 0 0 1.60778 179.77 423.583)" color="#000" stroke-width=".69" stroke-linecap="square" overflow="visible"/><path d="M692.49 585.754h17.09M692.49 594.3v-17.091M692.394 581.383l-12.722-8.447v-1.498" stroke-width=".96105448" stroke-linecap="round"/><path d="M692.542 589.975l-12.87 8.597v8.546" stroke-width=".96105448" stroke-linecap="round" stroke-linejoin="round"/></g><path d="M241.162 980.596l34.74 23.207" stroke-width="3.019" marker-end="url(#i)" transform="matrix(-.3203 0 0 .3203 769.783 275.895)"/></g><path d="M679.68 570.918l-.095-46.954" fill="none" stroke-width=".9608999999999999" stroke-linecap="round"/></g><path d="M679.585 525.678a1.714 1.714 0 1 1 0-3.427 1.714 1.714 0 1 1 0 3.427z" fill="teal" stroke="teal" stroke-width="1.2627" stroke-linecap="round"/><path d="M679.585 415.315v-17.276" fill="none" stroke="teal" stroke-width=".961" stroke-linecap="round"/><g stroke-width="3" fill="none" stroke="teal"><path d="M679.548 461.861l12.566-22.215h-25.13l12.564 22.215z" stroke-linecap="square" stroke-width=".9608999999999999"/><path d="M667.31 463.239h24.477" stroke-linecap="round" stroke-width=".9608999999999999"/><path d="M695.75 614.612l45.47-45.47M716.5 626.362l45.47-45.47" stroke-linecap="round" marker-end="url(#i)" transform="matrix(0 .3203 .3203 0 466.341 222.237)"/><g stroke-linecap="round"><path d="M679.548 415.512v24.134M679.585 463.239v24.133" stroke-width=".9608999999999999"/></g></g><path fill="none" stroke="teal" stroke-width=".961" stroke-linecap="round" d="M688.75 398.039h-18.331v-44.665h18.331zM679.585 522.438v-35.066"/><path d="M73.076 923.572h452.35" fill="none" stroke-width="1.753" stroke-linecap="round" transform="matrix(.9372 0 0 .32072 505.243 352.594)" stroke="#000"/><path d="M679.577 648.59l.095-48.45M709.58 585.754l76.5.095" fill="none" stroke="#000" stroke-width=".961" stroke-linecap="round"/><path d="M891.308 586.04L786.08 523.964" fill="none" stroke="teal" stroke-width=".961"/><path d="M786.08 586.04l105.228-62.076" fill="none" stroke="#000" stroke-width=".961"/><path d="M573.87 490.422v-53.774" fill="none" stroke="#000" stroke-width=".961" stroke-linecap="round"/><path d="M573.869 339.776v150.17" fill="none" stroke="teal" stroke-width="1.913" stroke-linecap="round"/><path d="M573.73 648.682V498.036M997.477 352.746v-12.97M997.84 415.512v-16.846" fill="none" stroke="#000" stroke-width=".961" stroke-linecap="round"/><path d="M679.585 353.374v-13.598" fill="none" stroke="teal" stroke-width=".961" stroke-linecap="round"/><path d="M679.585 341.49a1.714 1.714 0 1 1 0-3.428 1.714 1.714 0 1 1 0 3.428z" fill="teal" stroke="teal" stroke-width="1.2627" stroke-linecap="round"/><g ns0:text="$R _{\\rm{1}}$" fill="teal"><use height="1488.189" width="1052.362" y="134.765" x="223.432" xlink:href="#j" transform="matrix(1.50863 0 0 1.50863 353.869 179.036)"/><use height="1488.189" width="1052.362" y="136.259" x="230.997" xlink:href="#k" transform="matrix(1.50863 0 0 1.50863 353.869 179.036)"/></g><g ns0:text="$R _{\\rm{2}}$" fill="teal"><use height="1488.189" width="1052.362" xlink:href="#l" x="223.432" y="134.765" transform="matrix(1.50863 0 0 1.50863 460.816 179.036)"/><use height="1488.189" width="1052.362" xlink:href="#m" x="230.997" y="136.259" transform="matrix(1.50863 0 0 1.50863 460.816 179.036)"/></g><g ns0:text="$R _{\\rm{3}}$"><use y="134.765" x="223.432" xlink:href="#n" width="1052.362" height="1488.189" transform="matrix(1.50863 0 0 1.50863 566.31 178.93)"/><use y="136.259" x="230.997" xlink:href="#o" width="1052.362" height="1488.189" transform="matrix(1.50863 0 0 1.50863 566.31 178.93)"/></g><g ns0:text="$R _{\\rm{4}}$" fill="teal"><use y="134.765" x="223.432" xlink:href="#p" width="744.094" height="1052.362" transform="matrix(1.50863 0 0 1.50863 672.092 179.036)"/><use y="136.259" x="230.997" xlink:href="#q" width="744.094" height="1052.362" transform="matrix(1.50863 0 0 1.50863 672.092 179.036)"/></g><g ns0:text="$T _{\\rm{2}}$" fill="teal"><use height="1052.362" width="744.094" xlink:href="#r" x="223.432" y="134.765" transform="matrix(1.50863 0 0 1.50863 672.992 386.694)"/><use height="1052.362" width="744.094" xlink:href="#s" x="229.254" y="136.259" transform="matrix(1.50863 0 0 1.50863 672.992 386.694)"/></g><g ns0:text="$T _{\\rm{1}}$"><use height="1052.362" width="744.094" y="134.765" x="223.432" xlink:href="#t" transform="matrix(1.50863 0 0 1.50863 315.556 386.408)"/><use height="1052.362" width="744.094" y="136.259" x="229.254" xlink:href="#u" transform="matrix(1.50863 0 0 1.50863 315.556 386.408)"/></g><g ns0:text="$D _{\\rm{1}}$" fill="teal"><use height="1052.362" width="744.094" xlink:href="#v" x="223.432" y="134.765" transform="matrix(1.50863 0 0 1.50863 357.712 251.455)"/><use height="1052.362" width="744.094" xlink:href="#w" x="231.68" y="136.259" transform="matrix(1.50863 0 0 1.50863 357.712 251.455)"/></g><g ns0:text="$D _{\\rm{2}}$" fill="teal"><use height="1052.362" width="744.094" y="134.765" x="223.432" xlink:href="#x" transform="matrix(1.50863 0 0 1.50863 625.781 251.455)"/><use height="1052.362" width="744.094" y="136.259" x="231.68" xlink:href="#y" transform="matrix(1.50863 0 0 1.50863 625.781 251.455)"/></g><path d="M755.165 523.964h30.915M755.165 514.798v18.331H710.5v-18.331z" fill="none" stroke="teal" stroke-width=".961" stroke-linecap="round"/><path fill="none" stroke="#000" stroke-width=".961" stroke-linecap="round" d="M966.889 514.798v18.331h-44.665v-18.331zM891.308 523.964h30.916M966.889 523.679h30.915"/><g stroke="teal"><g stroke-linecap="round"><path d="M786.08 481.936v-16.562" fill="none" stroke-width=".96077184"/><path d="M785.941 466.86a1.486 1.486 0 1 0 0-2.972 1.486 1.486 0 0 0 0 2.972z" fill="teal" stroke-width="1.262754"/></g><path d="M786.08 437.62a1.486 1.486 0 1 0 0-2.973 1.486 1.486 0 0 0 0 2.972z" fill="teal" stroke-width="1.262754" stroke-linecap="round"/><path d="M786.08 419.572v16.561" fill="none" stroke-width=".96077184" stroke-linecap="round"/><g stroke-width="3.459" stroke-linecap="round"><path d="M783.693 436.56v28.388" fill="#0000de" stroke-width=".96077184"/><path d="M768.958 450.754h14.735" fill="none" stroke-width=".96077184"/></g></g><g stroke="#000" stroke-linecap="round"><path d="M892.206 481.936v-16.562" fill="none" stroke-width=".96077184"/><path d="M892.206 466.86a1.486 1.486 0 1 1 0-2.972 1.486 1.486 0 0 1 0 2.972z" stroke-width="1.262754"/></g><path d="M892.067 437.62a1.486 1.486 0 1 1 0-2.973 1.486 1.486 0 0 1 0 2.972z" stroke="#000" stroke-width="1.262754" stroke-linecap="round"/><path d="M892.067 419.572v16.561" fill="none" stroke="#000" stroke-width=".96077184" stroke-linecap="round"/><g stroke="#000" stroke-width="3.459" stroke-linecap="round"><path d="M899.33 436.56v28.388" fill="#0000de" stroke-width=".96077184"/><path d="M914.065 450.754H899.33" fill="none" stroke-width=".96077184"/></g><path d="M786.08 525.678a1.714 1.714 0 1 1 0-3.427 1.714 1.714 0 1 1 0 3.427z" fill="teal" stroke="teal" stroke-width="1.2627" stroke-linecap="round"/><path d="M892.206 522.25v-40.314" fill="none" stroke="#000" stroke-width=".961" stroke-linecap="round"/><path d="M892.206 525.678a1.714 1.714 0 1 1 0-3.427 1.714 1.714 0 1 1 0 3.427z" stroke="#000" stroke-width="1.2627" stroke-linecap="round"/><path fill="none" stroke="teal" stroke-width=".961" stroke-linecap="round" d="M795.246 398.039h-18.331v-44.665h18.331z"/><path fill="none" stroke="#000" stroke-width=".961" stroke-linecap="round" d="M901.233 398.039h-18.331v-44.665h18.331zM892.067 353.374v-13.598"/><path d="M892.067 341.49a1.714 1.714 0 1 1 0-3.428 1.714 1.714 0 1 1 0 3.428z" fill="teal" stroke="teal" stroke-width="1.2627" stroke-linecap="round"/><path d="M786.08 353.374v-13.598" fill="none" stroke="#000" stroke-width=".961" stroke-linecap="round"/><path d="M786.08 341.49a1.714 1.714 0 1 1 0-3.428 1.714 1.714 0 1 1 0 3.428z" fill="teal" stroke="teal" stroke-width="1.2627" stroke-linecap="round"/><path d="M786.08 419.572v-21.533" fill="none" stroke="teal" stroke-width=".961" stroke-linecap="round"/><path d="M892.067 419.572v-21.533" fill="none" stroke="#000" stroke-width=".961" stroke-linecap="round"/><path d="M786.08 522.25v-40.314" fill="none" stroke="teal" stroke-width=".961" stroke-linecap="round"/><g ns0:text="$R _{\\rm{6}}$"><use height="1052.362" width="744.094" y="134.765" x="223.432" xlink:href="#z" transform="matrix(1.50863 0 0 1.50863 598.769 305.231)"/><use height="1052.362" width="744.094" y="136.259" x="230.997" xlink:href="#A" transform="matrix(1.50863 0 0 1.50863 598.769 305.231)"/></g><g ns0:text="$R _{\\rm{5}}$" fill="teal" stroke="teal"><use height="1052.362" width="744.094" xlink:href="#B" x="223.432" y="134.765" transform="matrix(1.50863 0 0 1.50863 387.092 305.231)"/><use height="1052.362" width="744.094" xlink:href="#C" x="230.997" y="136.259" transform="matrix(1.50863 0 0 1.50863 387.092 305.231)"/></g><path d="M681.298 339.776H573.87" fill="none" stroke="teal" stroke-width="1.913" stroke-linecap="round"/><use xlink:href="#D" transform="rotate(90 374.875 666.963)" width="744.094" height="1052.362" stroke-width="3"/><use xlink:href="#D" transform="rotate(90 426.41 718.498)" width="744.094" height="1052.362" stroke-width="3"/><path d="M573.73 567.8l3.07 5.317 3.069 5.317h-12.28l3.07-5.318z" fill="teal" stroke="teal" stroke-width=".9562134000000001"/><path d="M573.73 498.638v150.169M997.717 648.247v-47.33M997.852 570.44v-46.19" fill="none" stroke="teal" stroke-width="1.913" stroke-linecap="round"/><use xlink:href="#D" transform="matrix(1 0 0 -1 950.03 1038.837)" width="744.094" height="1052.362" stroke-width="3"/><use xlink:href="#D" transform="matrix(1 0 0 -1 950.164 961.6)" width="744.094" height="1052.362" stroke-width="3"/><path d="M997.964 339.776H893.78" fill="none" stroke="teal" stroke-width="1.913" stroke-linecap="round"/><path d="M951.19 339.776l-5.318 3.07-5.317 3.07v-12.28l5.317 3.07z" fill="teal" stroke="teal" stroke-width=".9562134000000001"/><path d="M997.928 521.95v-58.915" fill="none" stroke="teal" stroke-width="1.913" stroke-linecap="round"/><path d="M997.804 525.392a1.714 1.714 0 1 1 0-3.427 1.714 1.714 0 1 1 0 3.427z" fill="teal" stroke="teal" stroke-width="1.2627" stroke-linecap="round"/><path d="M997.928 438.306v-39.527M997.964 352.55v-12.774" fill="none" stroke="teal" stroke-width="1.913" stroke-linecap="round"/><use height="1052.362" width="744.094" transform="matrix(1 0 0 -1 950.24 832.797)" xlink:href="#D" stroke-width="3"/><use height="1052.362" width="744.094" transform="matrix(1 0 0 -1 950.24 906.747)" xlink:href="#D" stroke-width="3"/><path d="M938.013 585.85l-5.318 3.07-5.317 3.069v-12.28l5.318 3.07z" fill="teal" stroke="teal" stroke-width=".9562134000000001"/><g transform="matrix(-1 0 0 1 1677.514 0)"><use height="744.094" width="1052.362" transform="matrix(-1 0 0 1 859.85 154.866)" xlink:href="#D"/><use xlink:href="#D" transform="translate(817.663 123.25)" width="1052.362" height="744.094"/></g><path d="M573.73 648.807h105.144" fill="none" stroke="teal" stroke-width="1.913" stroke-linecap="round"/><path d="M620.985 648.807l5.317 3.07 5.317 3.07v-12.28l-5.318 3.07z" fill="teal" stroke="teal" stroke-width=".9562134000000001"/><g ns0:text="$S _{\\rm{2}}$"><path d="M882.221 444.488a.18.18 0 0 0-.189-.165c-.07 0-.07.023-.259.236l-.73.848c-.378-.707-1.156-1.084-2.146-1.084-1.91 0-3.7 1.744-3.7 3.56 0 1.201.777 1.909 1.555 2.12l1.603.425c.566.142 1.39.377 1.39 1.603 0 1.344-1.225 2.758-2.71 2.758-.966 0-2.64-.33-2.64-2.192 0-.354.094-.731.094-.802.024-.07.024-.094.024-.118 0-.141-.094-.165-.165-.165a.214.214 0 0 0-.165.071c-.047.047-.896 3.489-.896 3.536 0 .07.07.141.165.141.07 0 .094-.023.283-.235l.73-.849c.637.872 1.674 1.084 2.547 1.084 2.05 0 3.818-2.003 3.818-3.865 0-1.038-.518-1.556-.73-1.768-.354-.33-.59-.401-1.91-.731-.353-.094-.872-.26-1.013-.283-.401-.141-.92-.566-.92-1.367 0-1.226 1.202-2.499 2.64-2.499 1.226 0 2.145.66 2.145 2.334 0 .471-.047.754-.047.848 0 0 0 .142.165.142s.189-.047.236-.307zm0 0M887.03 455.275h-.354c-.024.236-.142.849-.283.943-.071.07-.872.07-1.037.07h-1.933a58.335 58.335 0 0 1 2.098-1.767c.777-.613 1.508-1.273 1.508-2.263 0-1.273-1.108-2.051-2.451-2.051-1.297 0-2.193.92-2.193 1.886 0 .518.448.589.566.589a.552.552 0 0 0 .542-.566c0-.188-.07-.565-.613-.565.33-.731 1.038-.967 1.533-.967 1.06 0 1.603.825 1.603 1.674 0 .919-.66 1.626-.99 2.003l-2.523 2.523c-.118.094-.118.117-.118.4h4.338zm0 0"/></g><g ns0:text="$S _{\\rm{1}}$" fill="teal"><use xlink:href="#E" x="223.432" y="134.765" width="1052.362" height="744.094" transform="matrix(1.50863 0 0 1.50863 453.17 251.62)"/><use xlink:href="#F" x="229.541" y="136.259" width="1052.362" height="744.094" transform="matrix(1.50863 0 0 1.50863 453.17 251.62)"/></g><path d="M680.141 648.807H997.67" fill="none" stroke="teal" stroke-width="1.913" stroke-linecap="round"/><path d="M679.492 650.52a1.714 1.714 0 1 1 0-3.427 1.714 1.714 0 1 1 0 3.427z" fill="teal" stroke="teal" stroke-width="1.2627" stroke-linecap="round"/><path d="M833.588 648.807l5.317 3.07 5.318 3.07v-12.28l-5.318 3.07z" fill="teal" stroke="teal" stroke-width=".9562134000000001"/><path d="M786.08 352.962v-12.774" fill="none" stroke="teal" stroke-width="1.913" stroke-linecap="round"/><use height="1052.362" width="744.094" transform="matrix(1 0 0 -1 738.392 906.747)" xlink:href="#D" stroke-width="3"/><use height="1052.362" width="744.094" transform="matrix(1 0 0 -1 738.392 830.88)" xlink:href="#D" stroke-width="3"/><path d="M784.367 339.776h-107.43" fill="none" stroke="teal" stroke-width="1.913" stroke-linecap="round"/><use xlink:href="#D" transform="matrix(1 0 0 -1 631.897 830.88)" width="744.094" height="1052.362" stroke-width="3"/><use xlink:href="#D" transform="matrix(1 0 0 -1 631.897 906.747)" width="744.094" height="1052.362" stroke-width="3"/><path d="M775.864 523.965l-5.317 3.07-5.318 3.069v-12.28l5.318 3.07zM700.435 523.679l-5.317 3.07-5.317 3.07v-12.28l5.317 3.07zM47.688 780.985l3.07 5.317 3.07 5.317h-12.28l3.07-5.317z" fill="teal" stroke="teal" stroke-width=".9562134000000001"/><path d="M73.076 923.572h452.452" fill="none" stroke-width="1.755" stroke-linecap="round" transform="matrix(.93625 0 0 .3203 -20.73 416.006)" stroke="#000"/><path d="M366.757 711.823H261.613" fill="none" stroke="teal" stroke-width="1.913" stroke-linecap="round"/><path d="M319.502 711.824l-5.317 3.07-5.317 3.069v-12.28l5.317 3.07z" fill="teal" stroke="teal" stroke-width=".9562134000000001"/><g stroke="teal"><g fill="none" stroke-width="3.381" stroke-linecap="round"><path d="M893.302 1257.256v-200.939M869.468 1120.08v73.413" transform="matrix(0 -.31944 .25288 0 -244.84 1147.827)"/></g><g fill="none" stroke-width=".894" stroke-linecap="round"><path d="M28.155 841.078v10.553M22.281 846.354h10.553" stroke-width=".96092484"/></g><path d="M28.155 881.047V891.6" fill="none" stroke-width=".96087552" stroke-linecap="round"/></g><g stroke="teal" stroke-width="6.244"><g fill="none"><g stroke-width="1.659"><path style="marker:none" d="M435.827 100.866c0 5.87-6.346 10.63-14.173 10.63-7.828 0-14.174-4.76-14.174-10.63 0-5.87 6.346-10.63 14.174-10.63 7.827 0 14.173 4.76 14.173 10.63z" transform="matrix(-1.20584 0 0 1.60778 971.485 795.916)" color="#000" stroke-width="1.436" stroke-linecap="square" overflow="visible"/><path d="M458.765 958.087h-93.638" stroke-width=".9996413599999999" stroke-linecap="round"/><path d="M458.765 966.633v-17.091M458.861 953.716l12.722-8.447v-1.498" stroke-linecap="round" stroke-width="2.00048856"/><path d="M458.713 962.308l12.87 8.597v1.5" stroke-linecap="round" stroke-linejoin="round" stroke-width="2.00048856"/></g><path d="M241.162 980.596l34.74 23.207" marker-end="url(#i)" transform="matrix(.3203 0 0 .3203 381.473 648.228)"/></g><path d="M471.576 943.251l.095-46.954M471.488 1020.854l.095-48.45" fill="none" stroke-linecap="round" stroke-width="1.9999531999999998"/></g><path d="M471.623 895.726v-36.183" fill="none" stroke="#000" stroke-width=".961" stroke-linecap="round"/><g fill="none" stroke="teal" stroke-width="6.244"><path d="M471.66 833.909l-12.566-22.216h25.13L471.66 833.91z" stroke-linecap="square" stroke-width="1.9999531999999998"/><path d="M483.898 835.286H459.42" stroke-linecap="round" stroke-width="1.9999531999999998"/><path d="M695.75 614.612l45.47-45.47M716.5 626.362l45.47-45.47" stroke-width="3.122" stroke-linecap="round" marker-end="url(#i)" transform="rotate(90 45.294 639.578) scale(.3203)"/><g stroke-linecap="round"><path d="M471.66 787.56v24.133M471.623 835.286v24.134" stroke-width="1.9999531999999998"/></g></g><path fill="none" stroke-linecap="round" d="M480.406 770.713H461.56v-45.92h18.846z" stroke="teal" stroke-width="1.9999531999999998"/><path d="M153.404 896.012h30.915" fill="none" stroke="teal" stroke-width=".961" stroke-linecap="round"/><g stroke="#000"><g fill="none"><g stroke-width="1.639"><path transform="matrix(1.20584 0 0 1.60778 -346.41 795.63)" d="M435.827 100.866c0 5.87-6.346 10.63-14.173 10.63-7.828 0-14.174-4.76-14.174-10.63 0-5.87 6.346-10.63 14.174-10.63 7.827 0 14.173 4.76 14.173 10.63z" style="marker:none" color="#000" stroke-width=".69" stroke-linecap="square" overflow="visible"/><path d="M166.309 957.802h17.09M166.309 966.347v-17.09M166.213 953.43l-12.722-8.446v-1.5" stroke-width=".96105448" stroke-linecap="round"/><path d="M166.36 962.022l-12.87 8.598v8.545" stroke-width=".96105448" stroke-linecap="round" stroke-linejoin="round"/></g><path d="M241.162 980.596l34.74 23.207" stroke-width="3.019" marker-end="url(#i)" transform="matrix(-.3203 0 0 .3203 243.601 647.943)"/></g><path d="M153.498 942.966l-.095-46.954" fill="none" stroke-width=".9608999999999999" stroke-linecap="round"/></g><path d="M153.404 897.725a1.714 1.714 0 1 1 0-3.427 1.714 1.714 0 1 1 0 3.427z" fill="teal" stroke="teal" stroke-width="1.2627" stroke-linecap="round"/><path d="M153.404 787.362v-17.276" fill="none" stroke="teal" stroke-width=".961" stroke-linecap="round"/><g stroke-width="3" fill="none" stroke="teal"><path d="M153.367 833.909l12.566-22.216h-25.131l12.565 22.216z" stroke-linecap="square" stroke-width=".9608999999999999"/><path d="M141.128 835.286h24.478" stroke-linecap="round" stroke-width=".9608999999999999"/><path d="M695.75 614.612l45.47-45.47M716.5 626.362l45.47-45.47" stroke-linecap="round" marker-end="url(#i)" transform="matrix(0 .3203 .3203 0 -59.84 594.284)"/><g stroke-linecap="round"><path d="M153.367 787.56v24.133M153.404 835.286v24.134" stroke-width=".9608999999999999"/></g></g><path fill="none" stroke="teal" stroke-width=".961" stroke-linecap="round" d="M162.569 770.086h-18.331v-44.665h18.331zM153.404 894.485V859.42"/><path d="M73.076 923.572h452.35" fill="none" stroke-width="1.753" stroke-linecap="round" transform="matrix(.9372 0 0 .32072 -20.938 724.642)" stroke="#000"/><path d="M153.396 1020.637l.095-48.45M183.4 957.802l76.5.095" fill="none" stroke="#000" stroke-width=".961" stroke-linecap="round"/><path d="M365.127 958.087L259.9 896.012" fill="none" stroke="teal" stroke-width=".961"/><path d="M259.9 958.087l105.227-62.075" fill="none" stroke="#000" stroke-width=".961"/><path d="M47.688 862.47v-53.774" fill="none" stroke="#000" stroke-width=".961" stroke-linecap="round"/><path d="M47.688 711.823v150.17" fill="none" stroke="teal" stroke-width="1.913" stroke-linecap="round"/><path d="M47.548 1020.73V870.082M471.296 724.793v-12.97M471.66 787.56v-16.846" fill="none" stroke="#000" stroke-width=".961" stroke-linecap="round"/><path d="M153.404 725.42v-13.597" fill="none" stroke="teal" stroke-width=".961" stroke-linecap="round"/><path d="M153.404 713.537a1.714 1.714 0 1 1 0-3.427 1.714 1.714 0 1 1 0 3.427z" fill="teal" stroke="teal" stroke-width="1.2627" stroke-linecap="round"/><g ns0:text="$R _{\\rm{1}}$" fill="teal"><use xlink:href="#j" x="223.432" y="134.765" width="1052.362" height="1488.189" transform="matrix(1.50863 0 0 1.50863 -172.312 551.084)"/><use xlink:href="#k" x="230.997" y="136.259" width="1052.362" height="1488.189" transform="matrix(1.50863 0 0 1.50863 -172.312 551.084)"/></g><g ns0:text="$R _{\\rm{2}}$"><use y="134.765" x="223.432" xlink:href="#l" width="1052.362" height="1488.189" transform="matrix(1.50863 0 0 1.50863 -65.365 551.084)"/><use y="136.259" x="230.997" xlink:href="#m" width="1052.362" height="1488.189" transform="matrix(1.50863 0 0 1.50863 -65.365 551.084)"/></g><g ns0:text="$R _{\\rm{3}}$"><use height="1488.189" width="1052.362" xlink:href="#n" x="223.432" y="134.765" transform="matrix(1.50863 0 0 1.50863 40.13 550.978)"/><use height="1488.189" width="1052.362" xlink:href="#o" x="230.997" y="136.259" transform="matrix(1.50863 0 0 1.50863 40.13 550.978)"/></g><g ns0:text="$R _{\\rm{4}}$" fill="teal"><use height="1052.362" width="744.094" xlink:href="#p" x="223.432" y="134.765" transform="matrix(1.50863 0 0 1.50863 145.911 551.084)"/><use height="1052.362" width="744.094" xlink:href="#q" x="230.997" y="136.259" transform="matrix(1.50863 0 0 1.50863 145.911 551.084)"/></g><g ns0:text="$T _{\\rm{2}}$" fill="teal"><use y="134.765" x="223.432" xlink:href="#r" width="744.094" height="1052.362" transform="matrix(1.50863 0 0 1.50863 146.811 758.741)"/><use y="136.259" x="229.254" xlink:href="#s" width="744.094" height="1052.362" transform="matrix(1.50863 0 0 1.50863 146.811 758.741)"/></g><g ns0:text="$T _{\\rm{1}}$"><use xlink:href="#t" x="223.432" y="134.765" width="744.094" height="1052.362" transform="matrix(1.50863 0 0 1.50863 -210.626 758.456)"/><use xlink:href="#u" x="229.254" y="136.259" width="744.094" height="1052.362" transform="matrix(1.50863 0 0 1.50863 -210.626 758.456)"/></g><g ns0:text="$D _{\\rm{1}}$" fill="teal"><use y="134.765" x="223.432" xlink:href="#v" width="744.094" height="1052.362" transform="matrix(1.50863 0 0 1.50863 -168.469 623.502)"/><use y="136.259" x="231.68" xlink:href="#w" width="744.094" height="1052.362" transform="matrix(1.50863 0 0 1.50863 -168.469 623.502)"/></g><g ns0:text="$D _{\\rm{2}}$" fill="teal"><use xlink:href="#x" x="223.432" y="134.765" width="744.094" height="1052.362" transform="matrix(1.50863 0 0 1.50863 99.6 623.502)"/><use xlink:href="#y" x="231.68" y="136.259" width="744.094" height="1052.362" transform="matrix(1.50863 0 0 1.50863 99.6 623.502)"/></g><path d="M228.984 896.012h30.915M228.984 886.846v18.331h-44.665v-18.331z" fill="none" stroke="teal" stroke-width=".961" stroke-linecap="round"/><path fill="none" stroke="#000" stroke-width=".961" stroke-linecap="round" d="M440.708 886.846v18.331h-44.665v-18.331zM365.127 896.012h30.916M440.708 895.726h30.915"/><g stroke="#000" stroke-linecap="round"><path d="M366.025 853.983V837.42" fill="none" stroke-width=".96077184"/><path d="M366.025 838.907a1.486 1.486 0 1 1 0-2.972 1.486 1.486 0 0 1 0 2.972z" stroke-width="1.262754"/></g><path d="M365.886 809.667a1.486 1.486 0 1 1 0-2.973 1.486 1.486 0 0 1 0 2.973z" stroke="#000" stroke-width="1.262754" stroke-linecap="round"/><path d="M365.886 791.619v16.561" fill="none" stroke="#000" stroke-width=".96077184" stroke-linecap="round"/><g stroke="#000" stroke-width="3.459" stroke-linecap="round"><path d="M373.149 808.606v28.39" fill="#0000de" stroke-width=".96077184"/><path d="M387.884 822.8h-14.735" fill="none" stroke-width=".96077184"/></g><path d="M259.9 897.725a1.714 1.714 0 1 1 0-3.427 1.714 1.714 0 1 1 0 3.427z" fill="teal" stroke="teal" stroke-width="1.2627" stroke-linecap="round"/><path d="M366.025 894.298v-40.315" fill="none" stroke="#000" stroke-width=".961" stroke-linecap="round"/><path d="M366.025 897.725a1.714 1.714 0 1 1 0-3.427 1.714 1.714 0 1 1 0 3.427z" stroke="#000" stroke-width="1.2627" stroke-linecap="round"/><path fill="none" stroke="#000" stroke-width=".961" stroke-linecap="round" d="M269.065 770.086h-18.331v-44.665h18.331zM375.052 770.086h-18.331v-44.665h18.331zM365.886 725.42v-13.597"/><path d="M365.886 713.537a1.714 1.714 0 1 1 0-3.427 1.714 1.714 0 1 1 0 3.427z" fill="teal" stroke="teal" stroke-width="1.2627" stroke-linecap="round"/><path d="M259.9 725.42v-13.597" fill="none" stroke="#000" stroke-width=".961" stroke-linecap="round"/><path d="M259.9 713.537a1.714 1.714 0 1 1 0-3.427 1.714 1.714 0 1 1 0 3.427z" fill="teal" stroke="teal" stroke-width="1.2627" stroke-linecap="round"/><path d="M259.9 791.619v-21.533M365.886 791.619v-21.533M259.9 894.298v-40.315" fill="none" stroke="#000" stroke-width=".961" stroke-linecap="round"/><g ns0:text="$R _{\\rm{6}}$"><use xlink:href="#z" x="223.432" y="134.765" width="744.094" height="1052.362" transform="matrix(1.50863 0 0 1.50863 72.588 677.278)"/><use xlink:href="#A" x="230.997" y="136.259" width="744.094" height="1052.362" transform="matrix(1.50863 0 0 1.50863 72.588 677.278)"/></g><g ns0:text="$R _{\\rm{5}}$" fill="teal" stroke="teal"><use y="134.765" x="223.432" xlink:href="#B" width="744.094" height="1052.362" transform="matrix(1.50863 0 0 1.50863 -139.09 677.278)"/><use y="136.259" x="230.997" xlink:href="#C" width="744.094" height="1052.362" transform="matrix(1.50863 0 0 1.50863 -139.09 677.278)"/></g><path d="M155.117 711.823H47.688" fill="none" stroke="teal" stroke-width="1.913" stroke-linecap="round"/><use height="1052.362" width="744.094" transform="rotate(90 -74.239 589.897)" xlink:href="#D" stroke-width="3"/><use height="1052.362" width="744.094" transform="rotate(90 -22.705 641.43)" xlink:href="#D" stroke-width="3"/><path d="M47.549 939.847l3.07 5.317 3.069 5.317h-12.28l3.07-5.317z" fill="teal" stroke="teal" stroke-width=".9562134000000001"/><path d="M47.548 870.685v150.169M471.536 1020.294v-47.33M471.67 942.488v-46.19" fill="none" stroke="teal" stroke-width="1.913" stroke-linecap="round"/><use height="1052.362" width="744.094" transform="matrix(1 0 0 -1 423.848 1410.884)" xlink:href="#D" stroke-width="3"/><use height="1052.362" width="744.094" transform="matrix(1 0 0 -1 423.983 1333.648)" xlink:href="#D" stroke-width="3"/><path d="M471.783 711.823H367.6" fill="none" stroke="teal" stroke-width="1.913" stroke-linecap="round"/><path d="M425.008 711.824l-5.317 3.07-5.317 3.069v-12.28l5.317 3.07z" fill="teal" stroke="teal" stroke-width=".9562134000000001"/><path d="M471.747 893.996v-58.914" fill="none" stroke="teal" stroke-width="1.913" stroke-linecap="round"/><path d="M471.623 897.44a1.714 1.714 0 1 1 0-3.428 1.714 1.714 0 1 1 0 3.428z" fill="teal" stroke="teal" stroke-width="1.2627" stroke-linecap="round"/><path d="M471.747 810.353v-39.526M471.783 724.597v-12.774" fill="none" stroke="teal" stroke-width="1.913" stroke-linecap="round"/><use xlink:href="#D" transform="matrix(1 0 0 -1 424.059 1204.845)" width="744.094" height="1052.362" stroke-width="3"/><use xlink:href="#D" transform="matrix(1 0 0 -1 424.059 1278.794)" width="744.094" height="1052.362" stroke-width="3"/><path d="M411.831 957.897l-5.317 3.07-5.317 3.07v-12.28l5.318 3.07z" fill="teal" stroke="teal" stroke-width=".9562134000000001"/><g transform="matrix(-1 0 0 1 1151.333 372.047)"><use xlink:href="#D" transform="matrix(-1 0 0 1 859.85 154.866)" width="1052.362" height="744.094"/><use height="744.094" width="1052.362" transform="translate(817.663 123.25)" xlink:href="#D"/></g><path d="M47.548 1020.854h105.145" fill="none" stroke="teal" stroke-width="1.913" stroke-linecap="round"/><path d="M94.803 1020.854l5.318 3.07 5.317 3.07v-12.28l-5.318 3.07z" fill="teal" stroke="teal" stroke-width=".9562134000000001"/><g ns0:text="$S _{\\rm{2}}$"><path d="M356.04 816.535a.18.18 0 0 0-.189-.165c-.07 0-.07.024-.259.236l-.73.849c-.378-.708-1.156-1.085-2.146-1.085-1.91 0-3.7 1.745-3.7 3.56 0 1.202.777 1.909 1.555 2.121l1.603.424c.566.142 1.39.378 1.39 1.603 0 1.344-1.225 2.758-2.71 2.758-.966 0-2.64-.33-2.64-2.192 0-.353.094-.73.094-.801.024-.071.024-.095.024-.118 0-.142-.095-.165-.165-.165a.214.214 0 0 0-.165.07c-.047.048-.896 3.49-.896 3.536 0 .071.07.142.165.142.07 0 .094-.024.283-.236l.73-.849c.637.873 1.674 1.085 2.546 1.085 2.051 0 3.82-2.004 3.82-3.866 0-1.037-.52-1.556-.732-1.768-.353-.33-.589-.4-1.909-.73-.354-.095-.872-.26-1.014-.284-.4-.141-.919-.565-.919-1.367 0-1.226 1.202-2.498 2.64-2.498 1.226 0 2.145.66 2.145 2.333 0 .472-.047.754-.047.849 0 0 0 .141.165.141s.189-.047.236-.306zm0 0M360.848 827.322h-.354c-.023.236-.14.849-.282.943-.071.07-.873.07-1.038.07h-1.932a58.335 58.335 0 0 1 2.097-1.767c.778-.613 1.51-1.273 1.51-2.263 0-1.273-1.109-2.05-2.452-2.05-1.297 0-2.193.919-2.193 1.885 0 .519.448.59.566.59a.552.552 0 0 0 .542-.566c0-.189-.07-.566-.613-.566.33-.73 1.038-.967 1.533-.967 1.06 0 1.602.825 1.602 1.674 0 .92-.66 1.627-.99 2.004l-2.522 2.522c-.118.094-.118.118-.118.4h4.338zm0 0"/></g><g ns0:text="$S _{\\rm{1}}$"><use height="744.094" width="1052.362" y="134.765" x="223.432" xlink:href="#E" transform="matrix(1.50863 0 0 1.50863 -73.01 623.668)"/><use height="744.094" width="1052.362" y="136.259" x="229.541" xlink:href="#F" transform="matrix(1.50863 0 0 1.50863 -73.01 623.668)"/></g><path d="M153.96 1020.854h317.528" fill="none" stroke="teal" stroke-width="1.913" stroke-linecap="round"/><path d="M153.311 1022.568a1.714 1.714 0 1 1 0-3.428 1.714 1.714 0 1 1 0 3.428z" fill="teal" stroke="teal" stroke-width="1.2627" stroke-linecap="round"/><path d="M307.407 1020.854l5.317 3.07 5.317 3.07v-12.28l-5.317 3.07z" fill="teal" stroke="teal" stroke-width=".9562134000000001"/><path d="M258.185 711.823H150.756" fill="none" stroke="teal" stroke-width="1.913" stroke-linecap="round"/><use height="1052.362" width="744.094" transform="matrix(1 0 0 -1 105.716 1202.927)" xlink:href="#D" stroke-width="3"/><use height="1052.362" width="744.094" transform="matrix(1 0 0 -1 105.716 1278.794)" xlink:href="#D" stroke-width="3"/><path d="M249.683 896.012l-5.318 3.07-5.317 3.07v-12.28l5.318 3.07zM174.254 895.726l-5.317 3.07-5.317 3.07v-12.28l5.317 3.07z" fill="teal" stroke="teal" stroke-width=".9562134000000001"/><g stroke="#000" stroke-linecap="round"><path d="M259.9 853.983v-16.562" fill="none" stroke-width=".96077184"/><path d="M259.76 838.908a1.486 1.486 0 1 0 0-2.973 1.486 1.486 0 0 0 0 2.973z" stroke-width="1.262754"/></g><path d="M259.9 809.667a1.486 1.486 0 1 0 0-2.973 1.486 1.486 0 0 0 0 2.973z" stroke="#000" stroke-width="1.262754" stroke-linecap="round"/><path d="M259.9 791.619v16.561" fill="none" stroke="#000" stroke-width=".96077184" stroke-linecap="round"/><g stroke="#000" stroke-width="3.459" stroke-linecap="round"><path d="M252.637 808.606v28.39" fill="#0000de" stroke-width=".96077184"/><path d="M237.902 822.8h14.735" fill="none" stroke-width=".96077184"/></g><path d="M573.87 780.985l3.069 5.317 3.07 5.317h-12.28l3.07-5.317z" fill="teal" stroke="teal" stroke-width=".9562134000000001"/><g stroke="teal" stroke-width="3.702"><path d="M73.076 923.572h452.452" fill="none" stroke-linecap="round" transform="matrix(.2278 0 0 .3203 664.652 416.006)"/></g><path d="M845.683 711.824l-5.317 3.07-5.317 3.069v-12.28l5.317 3.07z" fill="teal" stroke="teal" stroke-width=".9562134000000001"/><g stroke="teal"><g fill="none" stroke-width="3.381" stroke-linecap="round"><path d="M893.302 1257.256v-200.939M869.468 1120.08v73.413" transform="matrix(0 -.31944 .25288 0 281.34 1147.827)"/></g><g fill="none" stroke-width=".894" stroke-linecap="round"><path d="M554.336 841.078v10.553M548.462 846.354h10.553" stroke-width=".96092484"/></g><path d="M554.336 881.047V891.6" fill="none" stroke-width=".96087552" stroke-linecap="round"/></g><g fill="none" stroke="#000"><g stroke-width="1.639"><path transform="matrix(-1.20584 0 0 1.60778 1497.666 795.916)" d="M435.827 100.866c0 5.87-6.346 10.63-14.173 10.63-7.828 0-14.174-4.76-14.174-10.63 0-5.87 6.346-10.63 14.174-10.63 7.827 0 14.173 4.76 14.173 10.63z" style="marker:none" color="#000" stroke-width=".69" stroke-linecap="square" overflow="visible"/><path d="M984.946 958.087H891.31M984.946 966.633v-17.091M985.042 953.716l12.722-8.447v-1.499" stroke-width=".96105448" stroke-linecap="round"/><path d="M984.894 962.308l12.87 8.597v1.5" stroke-width=".96105448" stroke-linecap="round" stroke-linejoin="round"/></g><path d="M241.162 980.596l34.74 23.207" stroke-width="3.019" marker-end="url(#i)" transform="matrix(.3203 0 0 .3203 907.654 648.228)"/></g><path d="M997.757 943.251l.095-46.954M997.67 1020.854l.094-48.45" fill="none" stroke="#000" stroke-width=".9608999999999999" stroke-linecap="round"/><path d="M997.804 895.726v-36.183" fill="none" stroke="teal" stroke-width=".961" stroke-linecap="round"/><g stroke-width="3" fill="none" stroke="teal"><path d="M997.84 833.909l-12.565-22.216h25.13L997.84 833.91z" stroke-linecap="square" stroke-width=".9608999999999999"/><path d="M1010.08 835.286H985.6" stroke-linecap="round" stroke-width=".9608999999999999"/><path d="M695.75 614.612l45.47-45.47M716.5 626.362l45.47-45.47" stroke-linecap="round" marker-end="url(#i)" transform="rotate(90 308.386 902.668) scale(.3203)"/><g stroke-linecap="round"><path d="M997.84 787.56v24.133M997.804 835.286v24.134" stroke-width=".9608999999999999"/></g></g><path fill="none" stroke-width=".9608999999999999" stroke-linecap="round" d="M1006.587 770.713h-18.846v-45.92h18.846z" stroke="teal"/><path d="M679.585 896.012H710.5" fill="none" stroke="#000" stroke-width=".961" stroke-linecap="round"/><path d="M679.585 897.725a1.714 1.714 0 1 1 0-3.427 1.714 1.714 0 1 1 0 3.427z" fill="teal" stroke="teal" stroke-width="1.2627" stroke-linecap="round"/><g stroke="teal" stroke-width="6.244"><g fill="none"><g stroke-width="1.659"><path style="marker:none" d="M435.827 100.866c0 5.87-6.346 10.63-14.173 10.63-7.828 0-14.174-4.76-14.174-10.63 0-5.87 6.346-10.63 14.174-10.63 7.827 0 14.173 4.76 14.173 10.63z" transform="matrix(1.20584 0 0 1.60778 179.77 795.63)" color="#000" stroke-width="1.436" stroke-linecap="square" overflow="visible"/><path d="M692.49 957.802h17.09M692.49 966.347v-17.09M692.394 953.43l-12.722-8.446v-1.5" stroke-linecap="round" stroke-width="2.00048856"/><path d="M692.542 962.022l-12.87 8.598v8.545" stroke-linecap="round" stroke-linejoin="round" stroke-width="2.00048856"/></g><path d="M241.162 980.596l34.74 23.207" marker-end="url(#i)" transform="matrix(-.3203 0 0 .3203 769.783 647.943)"/></g><path d="M679.68 942.966l-.095-46.954" fill="none" stroke-linecap="round" stroke-width="1.9999531999999998"/></g><path d="M679.585 787.362v-17.276" fill="none" stroke="#000" stroke-width=".961" stroke-linecap="round"/><g fill="none" stroke="teal" stroke-width="6.244"><path d="M679.548 833.909l12.566-22.216h-25.13l12.564 22.216z" stroke-linecap="square" stroke-width="1.9999531999999998"/><path d="M667.31 835.286h24.477" stroke-linecap="round" stroke-width="1.9999531999999998"/><path d="M695.75 614.612l45.47-45.47M716.5 626.362l45.47-45.47" stroke-width="3.122" stroke-linecap="round" marker-end="url(#i)" transform="matrix(0 .3203 .3203 0 466.341 594.284)"/><g stroke-linecap="round"><path d="M679.548 787.56v24.133M679.585 835.286v24.134" stroke-width="1.9999531999999998"/></g></g><path fill="none" stroke="teal" stroke-width="2" stroke-linecap="round" d="M688.75 770.086h-18.331v-44.665h18.331z"/><path d="M679.585 894.485V859.42" fill="none" stroke="#000" stroke-width=".961" stroke-linecap="round"/><path d="M73.076 923.572h452.35" fill="none" stroke-width="1.753" stroke-linecap="round" transform="matrix(.9372 0 0 .32072 505.243 724.642)" stroke="#000"/><path d="M679.577 1020.637l.095-48.45" fill="none" stroke="#000" stroke-width=".961" stroke-linecap="round"/><path d="M709.58 957.802l76.5.095" fill="none" stroke="teal" stroke-width=".961" stroke-linecap="round"/><path d="M891.308 958.087L786.08 896.012" fill="none" stroke="#000" stroke-width=".961"/><path d="M786.08 958.087l105.228-62.075" fill="none" stroke="teal" stroke-width=".961"/><path d="M573.87 862.47v-53.774" fill="none" stroke="#000" stroke-width=".961" stroke-linecap="round"/><path d="M573.869 711.823v150.17" fill="none" stroke="teal" stroke-width="2" stroke-linecap="round"/><path d="M573.73 1020.73V870.082" fill="none" stroke="#000" stroke-width=".961" stroke-linecap="round"/><path d="M997.477 724.793v-12.97M997.84 787.56v-16.846" fill="none" stroke="teal" stroke-width=".961" stroke-linecap="round"/><path d="M73.076 923.572h452.452" fill="none" stroke-width="3.541" stroke-linecap="round" transform="matrix(.22986 0 0 .3203 557.072 416.006)" stroke="#000"/><path d="M679.585 713.537a1.714 1.714 0 1 1 0-3.427 1.714 1.714 0 1 1 0 3.427z" fill="teal" stroke="teal" stroke-width="1.2627" stroke-linecap="round"/><path d="M679.585 725.42v-13.597" fill="none" stroke="#000" stroke-width=".961" stroke-linecap="round"/><g ns0:text="$R _{\\rm{1}}$" fill="teal"><use height="1488.189" width="1052.362" y="134.765" x="223.432" xlink:href="#j" transform="matrix(1.50863 0 0 1.50863 353.869 551.084)"/><use height="1488.189" width="1052.362" y="136.259" x="230.997" xlink:href="#k" transform="matrix(1.50863 0 0 1.50863 353.869 551.084)"/></g><g ns0:text="$R _{\\rm{2}}$"><use height="1488.189" width="1052.362" xlink:href="#l" x="223.432" y="134.765" transform="matrix(1.50863 0 0 1.50863 460.816 551.084)"/><use height="1488.189" width="1052.362" xlink:href="#m" x="230.997" y="136.259" transform="matrix(1.50863 0 0 1.50863 460.816 551.084)"/></g><g ns0:text="$R _{\\rm{3}}$" fill="teal"><use y="134.765" x="223.432" xlink:href="#n" width="1052.362" height="1488.189" transform="matrix(1.50863 0 0 1.50863 566.31 550.978)"/><use y="136.259" x="230.997" xlink:href="#o" width="1052.362" height="1488.189" transform="matrix(1.50863 0 0 1.50863 566.31 550.978)"/></g><g ns0:text="$R _{\\rm{4}}$" fill="teal"><use y="134.765" x="223.432" xlink:href="#p" width="744.094" height="1052.362" transform="matrix(1.50863 0 0 1.50863 672.092 551.084)"/><use y="136.259" x="230.997" xlink:href="#q" width="744.094" height="1052.362" transform="matrix(1.50863 0 0 1.50863 672.092 551.084)"/></g><g ns0:text="$T _{\\rm{2}}$"><use height="1052.362" width="744.094" xlink:href="#r" x="223.432" y="134.765" transform="matrix(1.50863 0 0 1.50863 672.992 758.741)"/><use height="1052.362" width="744.094" xlink:href="#s" x="229.254" y="136.259" transform="matrix(1.50863 0 0 1.50863 672.992 758.741)"/></g><g ns0:text="$T _{\\rm{1}}$" fill="teal"><use height="1052.362" width="744.094" y="134.765" x="223.432" xlink:href="#t" transform="matrix(1.50863 0 0 1.50863 315.556 758.456)"/><use height="1052.362" width="744.094" y="136.259" x="229.254" xlink:href="#u" transform="matrix(1.50863 0 0 1.50863 315.556 758.456)"/></g><g ns0:text="$D _{\\rm{1}}$" fill="teal"><use height="1052.362" width="744.094" xlink:href="#v" x="223.432" y="134.765" transform="matrix(1.50863 0 0 1.50863 357.712 623.502)"/><use height="1052.362" width="744.094" xlink:href="#w" x="231.68" y="136.259" transform="matrix(1.50863 0 0 1.50863 357.712 623.502)"/></g><g ns0:text="$D _{\\rm{2}}$" fill="teal"><use height="1052.362" width="744.094" y="134.765" x="223.432" xlink:href="#x" transform="matrix(1.50863 0 0 1.50863 625.781 623.502)"/><use height="1052.362" width="744.094" y="136.259" x="231.68" xlink:href="#y" transform="matrix(1.50863 0 0 1.50863 625.781 623.502)"/></g><path fill="none" stroke="#000" stroke-width=".961" stroke-linecap="round" d="M755.165 886.846v18.331H710.5v-18.331z"/><path fill="none" stroke="teal" stroke-width=".961" stroke-linecap="round" d="M966.889 886.846v18.331h-44.665v-18.331z"/><path d="M755.165 896.012h30.915" fill="none" stroke="#000" stroke-width=".961" stroke-linecap="round"/><path d="M891.308 896.012h30.916M966.889 895.726h30.915" fill="none" stroke="teal" stroke-width=".961" stroke-linecap="round"/><g><g stroke="#000" stroke-linecap="round"><path d="M786.08 853.983V837.42" fill="none" stroke-width=".96077184"/><path d="M785.941 838.907a1.486 1.486 0 1 0 0-2.972 1.486 1.486 0 0 0 0 2.972z" stroke-width="1.262754"/></g><path d="M786.08 809.666a1.486 1.486 0 1 0 0-2.972 1.486 1.486 0 0 0 0 2.972z" stroke="#000" stroke-width="1.262754" stroke-linecap="round"/><path d="M786.08 791.619v16.561" fill="none" stroke="#000" stroke-width=".96077184" stroke-linecap="round"/><g stroke="#000" stroke-width="3.459" stroke-linecap="round"><path d="M778.818 808.606v28.39" fill="#0000de" stroke-width=".96077184"/><path d="M764.083 822.8h14.735" fill="none" stroke-width=".96077184"/></g></g><g stroke="teal"><g stroke-linecap="round"><path d="M892.206 853.983V837.42" fill="none" stroke-width=".96077184"/><path d="M892.206 838.907a1.486 1.486 0 1 1 0-2.972 1.486 1.486 0 0 1 0 2.972z" fill="teal" stroke-width="1.262754"/></g><path d="M892.067 809.666a1.486 1.486 0 1 1 0-2.972 1.486 1.486 0 0 1 0 2.972z" fill="teal" stroke-width="1.262754" stroke-linecap="round"/><path d="M892.067 791.619v16.561" fill="none" stroke-width=".96077184" stroke-linecap="round"/><g stroke-width="3.459" stroke-linecap="round"><path d="M894.517 808.606v28.39" fill="#0000de" stroke-width=".96077184"/><path d="M909.252 822.8h-14.735" fill="none" stroke-width=".96077184"/></g></g><path d="M786.08 897.725a1.714 1.714 0 1 1 0-3.427 1.714 1.714 0 1 1 0 3.427z" stroke="#000" stroke-width="1.2627" stroke-linecap="round"/><path d="M892.206 894.298v-40.315" fill="none" stroke="teal" stroke-width=".961" stroke-linecap="round"/><path d="M892.206 897.725a1.714 1.714 0 1 1 0-3.427 1.714 1.714 0 1 1 0 3.427z" fill="teal" stroke="teal" stroke-width="1.2627" stroke-linecap="round"/><path fill="none" stroke="#000" stroke-width=".961" stroke-linecap="round" d="M795.246 770.086h-18.331v-44.665h18.331z"/><path fill="none" stroke="teal" stroke-width=".961" stroke-linecap="round" d="M901.233 770.086h-18.331v-44.665h18.331zM892.067 725.42v-13.597"/><path d="M892.067 713.537a1.714 1.714 0 1 1 0-3.427 1.714 1.714 0 1 1 0 3.427z" fill="teal" stroke="teal" stroke-width="1.2627" stroke-linecap="round"/><path d="M786.08 725.42v-13.597" fill="none" stroke="#000" stroke-width=".961" stroke-linecap="round"/><path d="M786.08 713.537a1.714 1.714 0 1 1 0-3.427 1.714 1.714 0 1 1 0 3.427z" fill="teal" stroke="teal" stroke-width="1.2627" stroke-linecap="round"/><path d="M786.08 791.619v-21.533" fill="none" stroke="#000" stroke-width=".961" stroke-linecap="round"/><path d="M892.067 791.619v-21.533" fill="none" stroke="teal" stroke-width=".961" stroke-linecap="round"/><path d="M786.08 894.298v-40.315" fill="none" stroke="#000" stroke-width=".961" stroke-linecap="round"/><g ns0:text="$R _{\\rm{6}}$" fill="teal"><use height="1052.362" width="744.094" y="134.765" x="223.432" xlink:href="#z" transform="matrix(1.50863 0 0 1.50863 598.769 677.278)"/><use height="1052.362" width="744.094" y="136.259" x="230.997" xlink:href="#A" transform="matrix(1.50863 0 0 1.50863 598.769 677.278)"/></g><g ns0:text="$R _{\\rm{5}}$"><use height="1052.362" width="744.094" xlink:href="#B" x="223.432" y="134.765" transform="matrix(1.50863 0 0 1.50863 387.092 677.278)"/><use height="1052.362" width="744.094" xlink:href="#C" x="230.997" y="136.259" transform="matrix(1.50863 0 0 1.50863 387.092 677.278)"/></g><path d="M677.87 711.823H573.87" fill="none" stroke="teal" stroke-width="2" stroke-linecap="round"/><use xlink:href="#D" transform="rotate(90 187.985 852.12)" width="744.094" height="1052.362" stroke-width="3"/><use xlink:href="#D" transform="rotate(90 241.414 905.55)" width="744.094" height="1052.362" stroke-width="3"/><path d="M573.73 939.847l3.07 5.317 3.069 5.317h-12.28l3.07-5.317z" fill="teal" stroke="teal" stroke-width=".9562134000000001"/><path d="M573.73 870.685v150.169M679.549 894.408v-58.914M679.549 810.765v-39.527M679.585 725.01v-12.775M679.577 1020.538v-47.331" fill="none" stroke="teal" stroke-width="2" stroke-linecap="round"/><use xlink:href="#D" transform="matrix(1 0 0 -1 631.86 1205.257)" width="744.094" height="1052.362" stroke-width="3"/><use xlink:href="#D" transform="matrix(1 0 0 -1 631.86 1279.206)" width="744.094" height="1052.362" stroke-width="3"/><path d="M679.585 942.31v-46.191" fill="none" stroke="teal" stroke-width="2" stroke-linecap="round"/><use xlink:href="#D" transform="matrix(1 0 0 -1 631.89 1411.127)" width="744.094" height="1052.362" stroke-width="3"/><use xlink:href="#D" transform="matrix(1 0 0 -1 631.897 1333.47)" width="744.094" height="1052.362" stroke-width="3"/><path d="M951.19 711.824l-5.318 3.07-5.317 3.069v-12.28l5.318 3.07z" fill="teal" stroke="teal" stroke-width=".9562134000000001"/><path d="M997.804 897.44a1.714 1.714 0 1 1 0-3.428 1.714 1.714 0 1 1 0 3.428z" fill="teal" stroke="teal" stroke-width="1.2627" stroke-linecap="round"/><use height="1052.362" width="744.094" transform="matrix(1 0 0 -1 950.24 1204.845)" xlink:href="#D" stroke-width="3"/><use height="1052.362" width="744.094" transform="matrix(1 0 0 -1 950.24 1278.794)" xlink:href="#D" stroke-width="3"/><path d="M740.62 957.802l5.317 3.07 5.317 3.069v-12.28l-5.317 3.07zM901.601 896.012l5.317 3.07 5.317 3.069v-12.279l-5.317 3.07zM977.03 895.726l5.317 3.07 5.317 3.07v-12.28l-5.318 3.07z" fill="teal" stroke="teal" stroke-width=".9562134000000001"/><use xlink:href="#D" transform="translate(764.899 526.392)" width="1052.362" height="744.094"/><use height="744.094" width="1052.362" transform="translate(817.475 495.408)" xlink:href="#D"/><path d="M573.73 1020.854h105.144" fill="none" stroke="teal" stroke-width="2" stroke-linecap="round"/><path d="M620.985 1020.854l5.317 3.07 5.317 3.07v-12.28l-5.317 3.07z" fill="teal" stroke="teal" stroke-width=".9562134000000001"/><g ns0:text="$S _{\\rm{2}}$" fill="teal"><path d="M882.221 816.535a.18.18 0 0 0-.189-.165c-.07 0-.07.024-.259.236l-.73.849c-.378-.708-1.156-1.085-2.146-1.085-1.91 0-3.7 1.745-3.7 3.56 0 1.202.777 1.909 1.555 2.121l1.603.424c.566.142 1.39.378 1.39 1.603 0 1.344-1.225 2.758-2.71 2.758-.966 0-2.64-.33-2.64-2.192 0-.354.094-.73.094-.801.024-.071.024-.095.024-.118 0-.142-.094-.165-.165-.165a.214.214 0 0 0-.165.07c-.047.048-.896 3.49-.896 3.536 0 .071.07.142.165.142.07 0 .094-.024.283-.236l.73-.849c.637.873 1.674 1.085 2.547 1.085 2.05 0 3.818-2.004 3.818-3.866 0-1.037-.518-1.556-.73-1.768-.354-.33-.59-.4-1.91-.73-.353-.095-.872-.26-1.013-.284-.401-.141-.92-.565-.92-1.367 0-1.226 1.202-2.499 2.64-2.499 1.226 0 2.145.66 2.145 2.334 0 .472-.047.754-.047.849 0 0 0 .141.165.141s.189-.047.236-.306zm0 0M887.03 827.322h-.354c-.024.236-.142.849-.283.943-.071.07-.872.07-1.037.07h-1.933a58.335 58.335 0 0 1 2.098-1.767c.777-.613 1.508-1.273 1.508-2.263 0-1.273-1.108-2.05-2.451-2.05-1.297 0-2.193.919-2.193 1.885 0 .519.448.59.566.59a.552.552 0 0 0 .542-.566c0-.189-.07-.566-.613-.566.33-.73 1.038-.967 1.533-.967 1.06 0 1.603.825 1.603 1.674 0 .92-.66 1.626-.99 2.004l-2.523 2.522c-.118.094-.118.118-.118.4h4.338zm0 0"/></g><g ns0:text="$S _{\\rm{1}}$"><use xlink:href="#E" x="223.432" y="134.765" width="1052.362" height="744.094" transform="matrix(1.50863 0 0 1.50863 453.17 623.667)"/><use xlink:href="#F" x="229.541" y="136.259" width="1052.362" height="744.094" transform="matrix(1.50863 0 0 1.50863 453.17 623.667)"/></g><g stroke="teal" stroke-width="3.702"><path d="M73.076 923.572h452.452" fill="none" stroke-linecap="round" transform="matrix(.2278 0 0 .3203 770.413 416.006)"/></g><g stroke="teal" stroke-width="3.702"><path d="M73.076 923.572h452.452" fill="none" stroke-linecap="round" transform="matrix(.2278 0 0 .3203 878.249 416.006)"/></g><use xlink:href="#D" transform="matrix(1 0 0 -1 844.518 1278.794)" width="744.094" height="1052.362" stroke-width="3"/><use xlink:href="#D" transform="matrix(1 0 0 -1 844.38 1204.845)" width="744.094" height="1052.362" stroke-width="3"/></g></svg>