<svg xmlns:ns0="http://www.iki.fi/pav/software/textext/" xmlns="http://www.w3.org/2000/svg" xmlns:xlink="http://www.w3.org/1999/xlink" width="1052.362" height="744.094"><title>Astabile Kippschaltung</title><defs><marker id="a" orient="auto" overflow="visible"><path d="M2.308 0l-3.46 2v-4l3.46 2z" fill-rule="evenodd" stroke="#000" stroke-width=".4pt"/></marker></defs><g><path style="marker:none" color="#000" fill="#fff" stroke="#fff" stroke-width="1.5" stroke-linecap="round" stroke-linejoin="round" overflow="visible" d="M158.625 80.925h814.938v549.976H158.625z"/><g stroke="#000" stroke-width="1.899"><path d="M73.076 923.572h452.452" fill="none" stroke-linecap="round" transform="matrix(1.35074 0 0 .4621 156.724 -292.444)"/></g><g stroke="#000" stroke-width="3.255"><g stroke-width="3.658" fill="none" stroke-linecap="round"><path d="M893.302 1257.256v-200.939M869.468 1120.08v73.413" transform="matrix(0 -.46086 .36483 0 -166.806 763.366)"/></g><g fill="none" stroke-linecap="round" stroke-width=".967"><path d="M227.048 320.814v15.225M218.574 328.427H233.8" stroke-width="1.4995462400000001"/></g><path d="M227.048 378.478v15.225" fill="none" stroke-linecap="round" stroke-width="1.5000993"/></g><path d="M713.405 402.128a2.472 2.472 0 1 1 0-4.944 2.472 2.472 0 1 1 0 4.944z" stroke="#000" stroke-width="1.50002895" stroke-linecap="round"/><g fill="none" stroke="#000" stroke-width="3.246"><path d="M867.1 310.471l-18.128-32.05h36.257l-18.128 32.05z" stroke-linecap="square" stroke-width="1.4999766"/><path d="M884.758 312.459h-35.315" stroke-linecap="round" stroke-width="1.4999766"/><path d="M695.75 614.612l45.47-45.47M716.5 626.362l45.47-45.47" stroke-linecap="round" marker-end="url(#a)" transform="rotate(90 604.97 569.73) scale(.4621)"/><g stroke-linecap="round"><path d="M867.1 243.602v34.818M867.049 312.459v34.817" stroke-width="1.4999766"/></g></g><path fill="none" stroke-linecap="round" d="M879.72 219.298h-27.19v-66.25h27.19z" stroke="#000" stroke-width="1.4999766"/><g stroke="#000" stroke-width="3.246"><g fill="none"><g stroke-width=".862"><path style="marker:none" d="M435.827 100.866c0 5.87-6.346 10.63-14.173 10.63-7.828 0-14.174-4.76-14.174-10.63 0-5.87 6.346-10.63 14.174-10.63 7.827 0 14.173 4.76 14.173 10.63z" transform="matrix(-1.73969 0 0 2.31958 1588.207 255.658)" color="#000" stroke-width=".747" stroke-linecap="square" overflow="visible"/><path d="M848.498 489.626H713.405M848.498 501.954v-24.657M848.637 483.32l18.354-12.187v-2.162" stroke-linecap="round" stroke-width="1.4996127799999999"/><path d="M848.423 495.715l18.568 12.403v2.163" stroke-linecap="round" stroke-linejoin="round" stroke-width="1.4996127799999999"/></g><path d="M241.162 980.596l34.74 23.207" marker-end="url(#a)" transform="matrix(.4621 0 0 .4621 736.987 42.587)"/></g><path d="M866.98 468.222l.137-67.742M866.854 580.18l.137-69.9" fill="none" stroke-linecap="round" stroke-width="1.4999766"/></g><path d="M867.049 402.128a2.472 2.472 0 1 1 0-4.944 2.472 2.472 0 1 1 0 4.944z" stroke="#000" stroke-width="1.50002895" stroke-linecap="round"/><g stroke="#000" stroke-width="3.61"><g stroke-width=".802" fill="none" stroke-linecap="round"><path d="M797.04 366.531v66.25M783.79 366.531v66.25M797.084 399.656h69.964M783.748 399.656h-70.343" stroke-width="1.49950742"/></g></g><path fill="none" stroke-linecap="round" d="M727 219.298h-27.19v-66.25H727z" stroke="#000" stroke-width="1.4999766"/><path d="M407.948 402.54a2.472 2.472 0 1 1 0-4.944 2.472 2.472 0 1 1 0 4.944z" stroke="#000" stroke-width="1.50002895" stroke-linecap="round"/><path fill="none" stroke-linecap="round" d="M575.186 219.298h-27.19v-66.25h27.19z" stroke="#000" stroke-width="1.4999766"/><g stroke="#000" stroke-width="3.246"><g fill="none"><g stroke-width=".862"><path transform="matrix(1.73969 0 0 2.31958 -313.142 255.246)" d="M435.827 100.866c0 5.87-6.346 10.63-14.173 10.63-7.828 0-14.174-4.76-14.174-10.63 0-5.87 6.346-10.63 14.174-10.63 7.827 0 14.173 4.76 14.173 10.63z" style="marker:none" color="#000" stroke-width=".747" stroke-linecap="square" overflow="visible"/><path d="M426.566 489.214h24.657M426.566 501.542v-24.657M426.428 482.907l-18.354-12.186v-2.162" stroke-linecap="round" stroke-width="1.4996127799999999"/><path d="M426.642 495.302l-18.568 12.404v12.329" stroke-linecap="round" stroke-linejoin="round" stroke-width="1.4996127799999999"/></g><path d="M241.162 980.596l34.74 23.207" marker-end="url(#a)" transform="matrix(-.4621 0 0 .4621 538.078 42.175)"/></g><path d="M408.085 467.81l-.137-67.742" fill="none" stroke-linecap="round" stroke-width="1.4999766"/></g><path d="M561.59 402.54a2.472 2.472 0 1 1 0-4.944 2.472 2.472 0 1 1 0 4.944z" stroke="#000" stroke-width="1.50002895" stroke-linecap="round"/><g stroke="#000" stroke-width="3.61"><g stroke-width=".802" fill="none" stroke-linecap="round"><path d="M477.956 366.943v66.25M491.206 366.943v66.25M477.913 400.068h-69.965M491.249 400.068h70.342" stroke-width="1.49950742"/></g></g><path d="M407.948 243.317v-24.924" fill="none" stroke="#000" stroke-width="1.5" stroke-linecap="round"/><g fill="none" stroke="#000" stroke-width="3.246"><path d="M407.896 310.471l18.128-32.05h-36.257l18.129 32.05z" stroke-linecap="square" stroke-width="1.4999766"/><path d="M390.238 312.459h35.315" stroke-linecap="round" stroke-width="1.4999766"/><path d="M695.75 614.612l45.47-45.47M716.5 626.362l45.47-45.47" stroke-linecap="round" marker-end="url(#a)" transform="matrix(0 .4621 .4621 0 100.298 -35.239)"/><g stroke-linecap="round"><path d="M407.896 243.602v34.818M407.948 312.459v34.817" stroke-width="1.4999766"/></g></g><path fill="none" stroke="#000" stroke-width="1.5" stroke-linecap="round" d="M421.171 218.393h-26.447v-64.439h26.447zM407.948 397.866v-50.59"/><g stroke="#000" stroke-width="1.896"><path d="M73.076 923.572h452.35" fill="none" stroke-linecap="round" transform="matrix(1.3521 0 0 .46271 156.423 152.83)"/></g><path d="M407.937 579.867l.137-69.9M451.223 489.214l110.368.136" fill="none" stroke="#000" stroke-width="1.5" stroke-linecap="round"/><path d="M713.405 489.626l-151.814-89.558M561.59 489.626l151.815-89.558" fill="none" stroke="#000" stroke-width="1.5"/><path d="M255.23 351.676V134.293M255.229 580V362.66M867.048 399.656v-52.202M713.405 397.184V219.298M561.59 397.596V219.298M561.59 153.049v-18.712M713.405 153.049v-18.712M866.576 153.049v-18.712M867.1 243.602v-24.304" fill="none" stroke="#000" stroke-width="1.5" stroke-linecap="round"/><path d="M561.59 136.809a2.472 2.472 0 1 1 0-4.945 2.472 2.472 0 1 1 0 4.945zM407.948 136.809a2.472 2.472 0 1 1 0-4.945 2.472 2.472 0 1 1 0 4.945zM713.405 136.809a2.472 2.472 0 1 1 0-4.945 2.472 2.472 0 1 1 0 4.945z" stroke="#000" stroke-width="1.50002895" stroke-linecap="round"/><path d="M407.948 153.954v-19.617" fill="none" stroke="#000" stroke-width="1.5" stroke-linecap="round"/><path d="M407.937 582.339a2.472 2.472 0 1 1 0-4.945 2.472 2.472 0 1 1 0 4.945z" stroke="#000" stroke-width="1.50002895" stroke-linecap="round"/><g stroke="#000" stroke-width="3.246" fill="none" stroke-linecap="round"><path d="M461.26 366.943v15.225M452.786 374.556h15.224" stroke-width="1.4999766"/><g><path d="M815.46 366.943v15.225M806.986 374.556h15.225" stroke-width="1.4999766"/></g></g><g ns0:text="$C _{\\rm{1}}$" transform="matrix(2.06343 0 0 2.06343 12.468 79.225)" stroke="#000" stroke-width=".727"><defs><symbol overflow="visible" id="b"><path d="M7.578-6.922c0-.031-.016-.11-.11-.11-.03 0-.046.016-.155.126l-.688.765c-.094-.14-.547-.89-1.656-.89C2.734-7.031.5-4.828.5-2.516.5-.875 1.672.22 3.203.22c.86 0 1.625-.39 2.156-.86.922-.812 1.094-1.718 1.094-1.75 0-.109-.11-.109-.125-.109-.062 0-.11.031-.125.11-.094.28-.328 1-1.016 1.578-.687.546-1.312.718-1.828.718-.89 0-1.953-.515-1.953-2.062 0-.578.203-2.188 1.203-3.36.61-.703 1.547-1.203 2.438-1.203 1.016 0 1.61.766 1.61 1.922 0 .406-.032.406-.032.516 0 .093.11.093.14.093.126 0 .126-.015.188-.203zm0 0" stroke="none"/></symbol><symbol overflow="visible" id="c"><path d="M2.328-4.438c0-.187 0-.187-.203-.187-.453.438-1.078.438-1.36.438v.25c.157 0 .626 0 1-.188v3.547c0 .234 0 .328-.687.328H.812V0c.125 0 .985-.031 1.235-.031.219 0 1.094.031 1.25.031v-.25H3.03c-.703 0-.703-.094-.703-.328zm0 0" stroke="none"/></symbol></defs><use height="1052.362" width="744.094" xlink:href="#b" x="223.432" y="134.765"/><use height="1052.362" width="744.094" xlink:href="#c" x="230.553" y="136.259"/></g><g transform="matrix(2.06343 0 0 2.06343 317.7 79.225)" ns0:text="$C _{\\rm{2}}$" stroke="#000" stroke-width=".727"><defs><symbol id="d" overflow="visible"><path d="M7.578-6.922c0-.031-.016-.11-.11-.11-.03 0-.046.016-.155.126l-.688.765c-.094-.14-.547-.89-1.656-.89C2.734-7.031.5-4.828.5-2.516.5-.875 1.672.22 3.203.22c.86 0 1.625-.39 2.156-.86.922-.812 1.094-1.718 1.094-1.75 0-.109-.11-.109-.125-.109-.062 0-.11.031-.125.11-.094.28-.328 1-1.016 1.578-.687.546-1.312.718-1.828.718-.89 0-1.953-.515-1.953-2.062 0-.578.203-2.188 1.203-3.36.61-.703 1.547-1.203 2.438-1.203 1.016 0 1.61.766 1.61 1.922 0 .406-.032.406-.032.516 0 .093.11.093.14.093.126 0 .126-.015.188-.203zm0 0" stroke="none"/></symbol><symbol id="e" overflow="visible"><path d="M3.516-1.266H3.28c-.015.157-.094.563-.187.625-.047.047-.578.047-.688.047H1.125c.734-.64.984-.844 1.39-1.172.516-.406 1-.843 1-1.5 0-.843-.734-1.359-1.624-1.359-.86 0-1.454.61-1.454 1.25 0 .344.297.39.376.39.156 0 .359-.124.359-.374 0-.125-.047-.375-.406-.375.218-.485.687-.641 1.015-.641.703 0 1.063.547 1.063 1.11 0 .609-.438 1.078-.656 1.328L.516-.266C.437-.203.437-.187.437 0h2.876zm0 0" stroke="none"/></symbol></defs><use height="1052.362" width="744.094" y="134.765" x="223.432" xlink:href="#d"/><use height="1052.362" width="744.094" y="136.259" x="230.553" xlink:href="#e"/></g><g ns0:text="$D _{\\rm{1}}$" transform="matrix(2.06343 0 0 2.06343 -27.917 21.854)" stroke="#000" stroke-width=".727"><defs><symbol overflow="visible" id="f"><path d="M1.578-.781c-.094.39-.11.469-.906.469-.156 0-.266 0-.266.187C.406 0 .484 0 .672 0h3.312c2.063 0 4.032-2.11 4.032-4.281 0-1.407-.844-2.532-2.344-2.532H2.328c-.187 0-.297 0-.297.188 0 .125.078.125.281.125.126 0 .313.016.422.016.172.03.22.046.22.171 0 .032 0 .063-.032.188zm2.156-5.344c.094-.344.11-.375.547-.375h1.063c.968 0 1.797.531 1.797 1.844 0 .484-.188 2.125-1.047 3.218A2.919 2.919 0 0 1 3.797-.313H2.453c-.094-.015-.125-.03-.125-.109 0-.031 0-.047.047-.219zm0 0" stroke="none"/></symbol><symbol overflow="visible" id="g"><path d="M2.328-4.438c0-.187 0-.187-.203-.187-.453.438-1.078.438-1.36.438v.25c.157 0 .626 0 1-.188v3.547c0 .234 0 .328-.687.328H.812V0c.125 0 .985-.031 1.235-.031.219 0 1.094.031 1.25.031v-.25H3.03c-.703 0-.703-.094-.703-.328zm0 0" stroke="none"/></symbol></defs><use height="1052.362" width="744.094" xlink:href="#f" x="223.432" y="134.765"/><use height="1052.362" width="744.094" xlink:href="#g" x="231.68" y="136.259"/></g><g transform="matrix(2.06343 0 0 2.06343 351.914 21.854)" ns0:text="$D _{\\rm{2}}$" stroke="#000" stroke-width=".727"><defs><symbol id="h" overflow="visible"><path d="M1.578-.781c-.094.39-.11.469-.906.469-.156 0-.266 0-.266.187C.406 0 .484 0 .672 0h3.312c2.063 0 4.032-2.11 4.032-4.281 0-1.407-.844-2.532-2.344-2.532H2.328c-.187 0-.297 0-.297.188 0 .125.078.125.281.125.126 0 .313.016.422.016.172.03.22.046.22.171 0 .032 0 .063-.032.188zm2.156-5.344c.094-.344.11-.375.547-.375h1.063c.968 0 1.797.531 1.797 1.844 0 .484-.188 2.125-1.047 3.218A2.919 2.919 0 0 1 3.797-.313H2.453c-.094-.015-.125-.03-.125-.109 0-.031 0-.047.047-.219zm0 0" stroke="none"/></symbol><symbol id="i" overflow="visible"><path d="M3.516-1.266H3.28c-.015.157-.094.563-.187.625-.047.047-.578.047-.688.047H1.125c.734-.64.984-.844 1.39-1.172.516-.406 1-.843 1-1.5 0-.843-.734-1.359-1.624-1.359-.86 0-1.454.61-1.454 1.25 0 .344.297.39.376.39.156 0 .359-.124.359-.374 0-.125-.047-.375-.406-.375.218-.485.687-.641 1.015-.641.703 0 1.063.547 1.063 1.11 0 .609-.438 1.078-.656 1.328L.516-.266C.437-.203.437-.187.437 0h2.876zm0 0" stroke="none"/></symbol></defs><use height="1052.362" width="744.094" y="134.765" x="223.432" xlink:href="#h"/><use height="1052.362" width="744.094" y="136.259" x="231.68" xlink:href="#i"/></g><g transform="matrix(2.06343 0 0 2.06343 -281.8 85.331)" ns0:preamble="/home/waldgeist/data/sphinx/inkscape-preamble.tex" ns0:text="$\\unit[9]{V}$" stroke="#000" stroke-width=".727"><defs><symbol id="j" overflow="visible"><path d="M3.656-3.172v.328c0 2.328-1.031 2.781-1.61 2.781-.171 0-.718-.015-.983-.359.437 0 .515-.281.515-.453 0-.313-.234-.453-.453-.453-.156 0-.453.078-.453.469 0 .671.531 1.078 1.375 1.078 1.297 0 2.515-1.36 2.515-3.5 0-2.688-1.156-3.36-2.046-3.36-.547 0-1.032.188-1.454.625-.421.454-.64.875-.64 1.625 0 1.235.875 2.22 1.984 2.22.61 0 1.016-.423 1.25-1zm-1.234.766c-.156 0-.625 0-.922-.625-.188-.375-.188-.86-.188-1.36 0-.53 0-1 .22-1.375.265-.5.64-.625.984-.625.468 0 .796.344.968.782.11.328.157.953.157 1.406 0 .828-.344 1.797-1.22 1.797zm0 0" stroke="none"/></symbol><symbol id="k" overflow="visible"><path d="M6.188-5.828c.14-.375.406-.656 1.093-.672v-.313c-.312.032-.718.032-.968.032-.297 0-.875-.016-1.141-.032v.313c.516.016.734.266.734.5 0 .078-.031.14-.047.203L4.031-1 2.125-6.031c-.063-.14-.063-.157-.063-.172 0-.297.563-.297.813-.297v-.313c-.36.032-1.047.032-1.422.032-.469 0-.906-.016-1.266-.032v.313c.657 0 .844 0 .985.375L3.484 0c.063.188.11.219.25.219.157 0 .188-.047.235-.188zm0 0" stroke="none"/></symbol></defs><use y="134.765" x="223.432" xlink:href="#j" width="1052.362" height="744.094"/><use y="134.765" x="230.077" xlink:href="#k" width="1052.362" height="744.094"/></g><g transform="matrix(2.06343 0 0 2.06343 -1.643 174.94)" ns0:preamble="/home/waldgeist/data/sphinx/inkscape-preamble.tex" ns0:text="$\\unit[10]{\\mu F}$" stroke="#000" stroke-width=".727"><defs><symbol id="l" overflow="visible"><path d="M2.938-6.375c0-.25 0-.266-.235-.266C2.078-6 1.203-6 .891-6v.313c.203 0 .78 0 1.296-.266v5.172c0 .36-.03.469-.921.469H.953V0c.344-.031 1.203-.031 1.61-.031.39 0 1.265 0 1.609.031v-.313h-.313c-.906 0-.921-.109-.921-.468zm0 0" stroke="none"/></symbol><symbol id="m" overflow="visible"><path d="M4.578-3.188c0-.796-.047-1.593-.39-2.328C3.733-6.484 2.905-6.64 2.5-6.64c-.61 0-1.328.266-1.75 1.188-.313.687-.36 1.469-.36 2.266 0 .75.032 1.64.454 2.406a1.83 1.83 0 0 0 1.64 1c.532 0 1.297-.203 1.735-1.157.312-.687.36-1.468.36-2.25zM2.484 0c-.39 0-.984-.25-1.156-1.203-.11-.594-.11-1.516-.11-2.11 0-.64 0-1.296.079-1.828.187-1.187.937-1.28 1.187-1.28.329 0 .985.187 1.172 1.171.11.563.11 1.313.11 1.938 0 .75 0 1.421-.11 2.062C3.5-.297 2.937 0 2.484 0zm0 0" stroke="none"/></symbol><symbol id="o" overflow="visible"><path d="M5.797-6.781H.328v.312h.234c.766 0 .797.11.797.469v5.219c0 .36-.03.469-.796.469H.328V0c.344-.031 1.125-.031 1.516-.031.406 0 1.312 0 1.672.031v-.313h-.329c-.937 0-.937-.124-.937-.468v-2.453h.844c.969 0 1.062.312 1.062 1.156h.25v-2.64h-.25c0 .843-.093 1.171-1.062 1.171H2.25v-2.531c0-.328.016-.39.484-.39h1.188c1.5 0 1.75.562 1.906 1.937h.25zm0 0" stroke="none"/></symbol><symbol id="n" overflow="visible"><path d="M2.297-3.5c.062-.203.156-.594.156-.64 0-.173-.125-.266-.297-.266-.015 0-.297.015-.39.36L.328 1.718c-.031.125-.031.14-.031.172 0 .14.11.265.281.265.203 0 .328-.187.344-.219.047-.078.172-.609.547-2.14.328.266.781.312.968.312.704 0 1.094-.453 1.329-.734a.904.904 0 0 0 .906.734c.344 0 .578-.234.734-.546.172-.36.297-.97.297-.985 0-.11-.094-.11-.125-.11-.094 0-.11.048-.14.188-.157.64-.344 1.235-.75 1.235-.266 0-.297-.266-.297-.454 0-.218.109-.687.187-1.046l.281-1.079c.032-.14.141-.515.172-.671.047-.235.157-.61.157-.672 0-.172-.141-.266-.297-.266-.047 0-.313.016-.391.344l-.469 1.875c-.11.5-.218.906-.25 1.015-.015.047-.484.954-1.297.954-.5 0-.734-.329-.734-.875 0-.282.063-.563.14-.844zm0 0" stroke="none"/></symbol></defs><use y="134.765" x="223.432" xlink:href="#l" width="1052.362" height="744.094"/><use y="134.765" x="228.413" xlink:href="#m" width="1052.362" height="744.094"/><use y="134.765" x="235.055" xlink:href="#n" width="1052.362" height="744.094"/><g><use y="134.765" x="241.058" xlink:href="#o" width="1052.362" height="744.094"/></g></g><g ns0:text="$R _{\\rm{1}}$ \\\\\n$\\unit[470]{\\Omega}$" ns0:preamble="/home/waldgeist/data/sphinx/inkscape-preamble.tex" transform="matrix(2.06343 0 0 2.06343 -31.25 -97.436)" stroke="#000" stroke-width=".727"><defs><symbol overflow="visible" id="p"><path d="M3.734-6.125c.063-.234.094-.328.282-.36.093-.015.406-.015.609-.015.703 0 1.813 0 1.813.984 0 .344-.157 1.032-.547 1.422-.266.25-.782.578-1.688.578h-1.11zm1.438 2.734c1.016-.218 2.187-.921 2.187-1.921 0-.86-.89-1.5-2.203-1.5H2.328c-.203 0-.297 0-.297.203 0 .109.094.109.281.109.016 0 .204 0 .376.016.187.03.265.03.265.171 0 .032 0 .063-.031.188L1.578-.781c-.094.39-.11.469-.906.469-.172 0-.266 0-.266.203C.406 0 .531 0 .546 0c.282 0 .985-.031 1.25-.031.282 0 1 .031 1.282.031.078 0 .188 0 .188-.203 0-.11-.079-.11-.282-.11-.359 0-.64 0-.64-.171 0-.063.015-.11.031-.172l.656-2.64H4.22c.906 0 1.078.562 1.078.905 0 .141-.078.454-.14.688-.063.281-.157.64-.157.844C5 .219 6.203.219 6.328.219c.844 0 1.203-1 1.203-1.14 0-.126-.11-.126-.125-.126-.093 0-.11.063-.125.14-.25.735-.687.907-.906.907-.328 0-.406-.219-.406-.61 0-.312.062-.812.11-1.14.015-.14.03-.328.03-.469 0-.765-.671-1.078-.937-1.172zm0 0" stroke="none"/></symbol><symbol overflow="visible" id="q"><path d="M2.328-4.438c0-.187 0-.187-.203-.187-.453.438-1.078.438-1.36.438v.25c.157 0 .626 0 1-.188v3.547c0 .234 0 .328-.687.328H.812V0c.125 0 .985-.031 1.235-.031.219 0 1.094.031 1.25.031v-.25H3.03c-.703 0-.703-.094-.703-.328zm0 0" stroke="none"/></symbol><symbol overflow="visible" id="r"><path d="M2.938-1.64v.859c0 .36-.032.469-.766.469h-.203V0c.406-.031.922-.031 1.343-.031.422 0 .938 0 1.36.031v-.313h-.219c-.734 0-.75-.109-.75-.468v-.86h.985v-.312h-.985v-4.531c0-.204 0-.266-.172-.266-.078 0-.11 0-.187.125L.28-1.953v.312zm.046-.313H.563l2.421-3.719zm0 0" stroke="none"/></symbol><symbol overflow="visible" id="s"><path d="M4.75-6.078c.078-.11.078-.125.078-.344H2.406c-1.203 0-1.234-.125-1.265-.312H.89L.562-4.688h.25c.032-.156.11-.78.25-.906.063-.062.844-.062.97-.062h2.062c-.11.156-.89 1.25-1.11 1.578C2.078-2.734 1.75-1.344 1.75-.328c0 .094 0 .547.469.547.453 0 .453-.453.453-.547v-.516c0-.547.031-1.094.11-1.625.046-.234.171-1.094.624-1.703zm0 0" stroke="none"/></symbol><symbol overflow="visible" id="t"><path d="M4.578-3.188c0-.796-.047-1.593-.39-2.328C3.733-6.484 2.905-6.64 2.5-6.64c-.61 0-1.328.266-1.75 1.188-.313.687-.36 1.469-.36 2.266 0 .75.032 1.64.454 2.406a1.83 1.83 0 0 0 1.64 1c.532 0 1.297-.203 1.735-1.157.312-.687.36-1.468.36-2.25zM2.484 0c-.39 0-.984-.25-1.156-1.203-.11-.594-.11-1.516-.11-2.11 0-.64 0-1.296.079-1.828.187-1.187.937-1.28 1.187-1.28.329 0 .985.187 1.172 1.171.11.563.11 1.313.11 1.938 0 .75 0 1.421-.11 2.062C3.5-.297 2.937 0 2.484 0zm0 0" stroke="none"/></symbol><symbol overflow="visible" id="u"><path d="M6.75-1.61H6.5a3.74 3.74 0 0 1-.188.72c-.046.156-.078.25-.656.25H4.86c.141-.563.438-1.047.891-1.704.469-.703.875-1.39.875-2.187 0-1.375-1.344-2.5-3.031-2.5-1.703 0-3.031 1.14-3.031 2.5 0 .797.406 1.484.875 2.187.437.656.75 1.14.89 1.703h-.797c-.578 0-.61-.093-.656-.234-.094-.234-.14-.484-.188-.734h-.25L.766 0h1.593c.22 0 .25 0 .25-.203 0-.703-.312-1.578-.53-2.219-.22-.578-.5-1.36-.5-2.11 0-1.593 1.109-2.28 2.015-2.28.953 0 2.015.718 2.015 2.28 0 .75-.28 1.5-.562 2.313-.156.422-.469 1.328-.469 2.016 0 .203.031.203.25.203h1.594zm0 0" stroke="none"/></symbol></defs><use xlink:href="#p" x="223.432" y="134.765" width="1052.362" height="744.094"/><use xlink:href="#q" x="230.997" y="136.259" width="1052.362" height="744.094"/><use xlink:href="#r" x="223.432" y="146.72" width="1052.362" height="744.094"/><use xlink:href="#s" x="228.413" y="146.72" width="1052.362" height="744.094"/><use xlink:href="#t" x="233.395" y="146.72" width="1052.362" height="744.094"/><g><use xlink:href="#u" x="240.04" y="146.72" width="1052.362" height="744.094"/></g></g><g transform="matrix(2.06343 0 0 2.06343 427.718 -97.436)" ns0:preamble="/home/waldgeist/data/sphinx/inkscape-preamble.tex" ns0:text="$R _{\\rm{4}}$ \\\\\n$\\unit[470]{\\Omega}$" stroke="#000" stroke-width=".727"><defs><symbol id="v" overflow="visible"><path d="M3.734-6.125c.063-.234.094-.328.282-.36.093-.015.406-.015.609-.015.703 0 1.813 0 1.813.984 0 .344-.157 1.032-.547 1.422-.266.25-.782.578-1.688.578h-1.11zm1.438 2.734c1.016-.218 2.187-.921 2.187-1.921 0-.86-.89-1.5-2.203-1.5H2.328c-.203 0-.297 0-.297.203 0 .109.094.109.281.109.016 0 .204 0 .376.016.187.03.265.03.265.171 0 .032 0 .063-.031.188L1.578-.781c-.094.39-.11.469-.906.469-.172 0-.266 0-.266.203C.406 0 .531 0 .546 0c.282 0 .985-.031 1.25-.031.282 0 1 .031 1.282.031.078 0 .188 0 .188-.203 0-.11-.079-.11-.282-.11-.359 0-.64 0-.64-.171 0-.063.015-.11.031-.172l.656-2.64H4.22c.906 0 1.078.562 1.078.905 0 .141-.078.454-.14.688-.063.281-.157.64-.157.844C5 .219 6.203.219 6.328.219c.844 0 1.203-1 1.203-1.14 0-.126-.11-.126-.125-.126-.093 0-.11.063-.125.14-.25.735-.687.907-.906.907-.328 0-.406-.219-.406-.61 0-.312.062-.812.11-1.14.015-.14.03-.328.03-.469 0-.765-.671-1.078-.937-1.172zm0 0" stroke="none"/></symbol><symbol id="w" overflow="visible"><path d="M3.688-1.14v-.25h-.782V-4.5c0-.14 0-.203-.14-.203-.094 0-.125 0-.188.11L.266-1.392v.25h2.062v.563c0 .25 0 .328-.578.328h-.188V0c.36-.016.797-.031 1.047-.031.266 0 .704.015 1.063.031v-.25h-.188c-.578 0-.578-.078-.578-.328v-.563zM2.375-3.939v2.547H.531zm0 0" stroke="none"/></symbol><symbol id="x" overflow="visible"><path d="M2.938-1.64v.859c0 .36-.032.469-.766.469h-.203V0c.406-.031.922-.031 1.343-.031.422 0 .938 0 1.36.031v-.313h-.219c-.734 0-.75-.109-.75-.468v-.86h.985v-.312h-.985v-4.531c0-.204 0-.266-.172-.266-.078 0-.11 0-.187.125L.28-1.953v.312zm.046-.313H.563l2.421-3.719zm0 0" stroke="none"/></symbol><symbol id="y" overflow="visible"><path d="M4.75-6.078c.078-.11.078-.125.078-.344H2.406c-1.203 0-1.234-.125-1.265-.312H.89L.562-4.688h.25c.032-.156.11-.78.25-.906.063-.062.844-.062.97-.062h2.062c-.11.156-.89 1.25-1.11 1.578C2.078-2.734 1.75-1.344 1.75-.328c0 .094 0 .547.469.547.453 0 .453-.453.453-.547v-.516c0-.547.031-1.094.11-1.625.046-.234.171-1.094.624-1.703zm0 0" stroke="none"/></symbol><symbol id="z" overflow="visible"><path d="M4.578-3.188c0-.796-.047-1.593-.39-2.328C3.733-6.484 2.905-6.64 2.5-6.64c-.61 0-1.328.266-1.75 1.188-.313.687-.36 1.469-.36 2.266 0 .75.032 1.64.454 2.406a1.83 1.83 0 0 0 1.64 1c.532 0 1.297-.203 1.735-1.157.312-.687.36-1.468.36-2.25zM2.484 0c-.39 0-.984-.25-1.156-1.203-.11-.594-.11-1.516-.11-2.11 0-.64 0-1.296.079-1.828.187-1.187.937-1.28 1.187-1.28.329 0 .985.187 1.172 1.171.11.563.11 1.313.11 1.938 0 .75 0 1.421-.11 2.062C3.5-.297 2.937 0 2.484 0zm0 0" stroke="none"/></symbol><symbol id="A" overflow="visible"><path d="M6.75-1.61H6.5a3.74 3.74 0 0 1-.188.72c-.046.156-.078.25-.656.25H4.86c.141-.563.438-1.047.891-1.704.469-.703.875-1.39.875-2.187 0-1.375-1.344-2.5-3.031-2.5-1.703 0-3.031 1.14-3.031 2.5 0 .797.406 1.484.875 2.187.437.656.75 1.14.89 1.703h-.797c-.578 0-.61-.093-.656-.234-.094-.234-.14-.484-.188-.734h-.25L.766 0h1.593c.22 0 .25 0 .25-.203 0-.703-.312-1.578-.53-2.219-.22-.578-.5-1.36-.5-2.11 0-1.593 1.109-2.28 2.015-2.28.953 0 2.015.718 2.015 2.28 0 .75-.28 1.5-.562 2.313-.156.422-.469 1.328-.469 2.016 0 .203.031.203.25.203h1.594zm0 0" stroke="none"/></symbol></defs><use y="134.765" x="223.432" xlink:href="#v" width="744.094" height="1052.362"/><use y="136.259" x="230.997" xlink:href="#w" width="744.094" height="1052.362"/><use y="146.72" x="223.432" xlink:href="#x" width="744.094" height="1052.362"/><use y="146.72" x="228.413" xlink:href="#y" width="744.094" height="1052.362"/><use y="146.72" x="233.395" xlink:href="#z" width="744.094" height="1052.362"/><g><use y="146.72" x="240.04" xlink:href="#A" width="744.094" height="1052.362"/></g></g><g transform="matrix(2.06343 0 0 2.06343 274.725 -97.436)" ns0:preamble="/home/waldgeist/data/sphinx/inkscape-preamble.tex" ns0:text="$R _{\\rm{3}}$ \\\\\n$\\unit[47]{k\\Omega}$" stroke="#000" stroke-width=".727"><defs><symbol id="B" overflow="visible"><path d="M3.734-6.125c.063-.234.094-.328.282-.36.093-.015.406-.015.609-.015.703 0 1.813 0 1.813.984 0 .344-.157 1.032-.547 1.422-.266.25-.782.578-1.688.578h-1.11zm1.438 2.734c1.016-.218 2.187-.921 2.187-1.921 0-.86-.89-1.5-2.203-1.5H2.328c-.203 0-.297 0-.297.203 0 .109.094.109.281.109.016 0 .204 0 .376.016.187.03.265.03.265.171 0 .032 0 .063-.031.188L1.578-.781c-.094.39-.11.469-.906.469-.172 0-.266 0-.266.203C.406 0 .531 0 .546 0c.282 0 .985-.031 1.25-.031.282 0 1 .031 1.282.031.078 0 .188 0 .188-.203 0-.11-.079-.11-.282-.11-.359 0-.64 0-.64-.171 0-.063.015-.11.031-.172l.656-2.64H4.22c.906 0 1.078.562 1.078.905 0 .141-.078.454-.14.688-.063.281-.157.64-.157.844C5 .219 6.203.219 6.328.219c.844 0 1.203-1 1.203-1.14 0-.126-.11-.126-.125-.126-.093 0-.11.063-.125.14-.25.735-.687.907-.906.907-.328 0-.406-.219-.406-.61 0-.312.062-.812.11-1.14.015-.14.03-.328.03-.469 0-.765-.671-1.078-.937-1.172zm0 0" stroke="none"/></symbol><symbol id="C" overflow="visible"><path d="M1.906-2.328c.547 0 .938.375.938 1.125 0 .86-.516 1.125-.906 1.125-.282 0-.907-.078-1.188-.5.328 0 .406-.235.406-.39 0-.22-.172-.376-.39-.376a.38.38 0 0 0-.391.407C.375-.281 1.094.14 1.938.14c.968 0 1.64-.657 1.64-1.344 0-.547-.437-1.094-1.203-1.25.719-.266.984-.781.984-1.219 0-.547-.625-.953-1.406-.953-.766 0-1.36.375-1.36.938 0 .234.157.359.36.359.219 0 .36-.156.36-.344 0-.203-.141-.36-.36-.375.25-.297.719-.375.985-.375.312 0 .75.156.75.75 0 .297-.094.625-.282.828-.219.266-.422.281-.765.313-.172.015-.188.015-.22.015-.015 0-.077.016-.077.094 0 .094.062.094.187.094zm0 0" stroke="none"/></symbol><symbol id="D" overflow="visible"><path d="M2.938-1.64v.859c0 .36-.032.469-.766.469h-.203V0c.406-.031.922-.031 1.343-.031.422 0 .938 0 1.36.031v-.313h-.219c-.734 0-.75-.109-.75-.468v-.86h.985v-.312h-.985v-4.531c0-.204 0-.266-.172-.266-.078 0-.11 0-.187.125L.28-1.953v.312zm.046-.313H.563l2.421-3.719zm0 0" stroke="none"/></symbol><symbol id="E" overflow="visible"><path d="M4.75-6.078c.078-.11.078-.125.078-.344H2.406c-1.203 0-1.234-.125-1.265-.312H.89L.562-4.688h.25c.032-.156.11-.78.25-.906.063-.062.844-.062.97-.062h2.062c-.11.156-.89 1.25-1.11 1.578C2.078-2.734 1.75-1.344 1.75-.328c0 .094 0 .547.469.547.453 0 .453-.453.453-.547v-.516c0-.547.031-1.094.11-1.625.046-.234.171-1.094.624-1.703zm0 0" stroke="none"/></symbol><symbol id="F" overflow="visible"><path d="M1.063-.75c0 .438-.11.438-.782.438V0c.328-.016.797-.031 1.078-.031.313 0 .704.015 1.11.031v-.313c-.672 0-.781 0-.781-.437v-1.031l.64-.547c.766 1.047 1.188 1.61 1.188 1.797 0 .187-.172.219-.36.219V0c.266-.016.86-.031 1.078-.031.282 0 .579.015.86.031v-.313c-.375 0-.594 0-.969-.53L2.859-2.626c-.015-.016-.062-.078-.062-.11 0-.03.719-.64.812-.718.625-.5 1.047-.531 1.25-.531v-.313c-.28.031-.406.031-.687.031-.36 0-.984-.015-1.125-.03v.312c.187 0 .297.109.297.25 0 .203-.14.312-.219.39L1.719-2.14v-4.78L.28-6.813v.312c.703 0 .781.063.781.563zm0 0" stroke="none"/></symbol><symbol id="G" overflow="visible"><path d="M6.75-1.61H6.5a3.74 3.74 0 0 1-.188.72c-.046.156-.078.25-.656.25H4.86c.141-.563.438-1.047.891-1.704.469-.703.875-1.39.875-2.187 0-1.375-1.344-2.5-3.031-2.5-1.703 0-3.031 1.14-3.031 2.5 0 .797.406 1.484.875 2.187.437.656.75 1.14.89 1.703h-.797c-.578 0-.61-.093-.656-.234-.094-.234-.14-.484-.188-.734h-.25L.766 0h1.593c.22 0 .25 0 .25-.203 0-.703-.312-1.578-.53-2.219-.22-.578-.5-1.36-.5-2.11 0-1.593 1.109-2.28 2.015-2.28.953 0 2.015.718 2.015 2.28 0 .75-.28 1.5-.562 2.313-.156.422-.469 1.328-.469 2.016 0 .203.031.203.25.203h1.594zm0 0" stroke="none"/></symbol></defs><use y="134.765" x="223.432" xlink:href="#B" width="744.094" height="1052.362"/><use y="136.259" x="230.997" xlink:href="#C" width="744.094" height="1052.362"/><use y="146.72" x="223.432" xlink:href="#D" width="744.094" height="1052.362"/><use y="146.72" x="228.413" xlink:href="#E" width="744.094" height="1052.362"/><g><use y="146.72" x="235.058" xlink:href="#F" width="744.094" height="1052.362"/><use y="146.72" x="240.317" xlink:href="#G" width="744.094" height="1052.362"/></g></g><g ns0:text="$R _{\\rm{2}}$ \\\\\n$\\unit[47]{k\\Omega}$" ns0:preamble="/home/waldgeist/data/sphinx/inkscape-preamble.tex" transform="matrix(2.06343 0 0 2.06343 123.868 -97.436)" stroke="#000" stroke-width=".727"><defs><symbol overflow="visible" id="H"><path d="M3.734-6.125c.063-.234.094-.328.282-.36.093-.015.406-.015.609-.015.703 0 1.813 0 1.813.984 0 .344-.157 1.032-.547 1.422-.266.25-.782.578-1.688.578h-1.11zm1.438 2.734c1.016-.218 2.187-.921 2.187-1.921 0-.86-.89-1.5-2.203-1.5H2.328c-.203 0-.297 0-.297.203 0 .109.094.109.281.109.016 0 .204 0 .376.016.187.03.265.03.265.171 0 .032 0 .063-.031.188L1.578-.781c-.094.39-.11.469-.906.469-.172 0-.266 0-.266.203C.406 0 .531 0 .546 0c.282 0 .985-.031 1.25-.031.282 0 1 .031 1.282.031.078 0 .188 0 .188-.203 0-.11-.079-.11-.282-.11-.359 0-.64 0-.64-.171 0-.063.015-.11.031-.172l.656-2.64H4.22c.906 0 1.078.562 1.078.905 0 .141-.078.454-.14.688-.063.281-.157.64-.157.844C5 .219 6.203.219 6.328.219c.844 0 1.203-1 1.203-1.14 0-.126-.11-.126-.125-.126-.093 0-.11.063-.125.14-.25.735-.687.907-.906.907-.328 0-.406-.219-.406-.61 0-.312.062-.812.11-1.14.015-.14.03-.328.03-.469 0-.765-.671-1.078-.937-1.172zm0 0" stroke="none"/></symbol><symbol overflow="visible" id="I"><path d="M3.516-1.266H3.28c-.015.157-.094.563-.187.625-.047.047-.578.047-.688.047H1.125c.734-.64.984-.844 1.39-1.172.516-.406 1-.843 1-1.5 0-.843-.734-1.359-1.624-1.359-.86 0-1.454.61-1.454 1.25 0 .344.297.39.376.39.156 0 .359-.124.359-.374 0-.125-.047-.375-.406-.375.218-.485.687-.641 1.015-.641.703 0 1.063.547 1.063 1.11 0 .609-.438 1.078-.656 1.328L.516-.266C.437-.203.437-.187.437 0h2.876zm0 0" stroke="none"/></symbol><symbol overflow="visible" id="J"><path d="M2.938-1.64v.859c0 .36-.032.469-.766.469h-.203V0c.406-.031.922-.031 1.343-.031.422 0 .938 0 1.36.031v-.313h-.219c-.734 0-.75-.109-.75-.468v-.86h.985v-.312h-.985v-4.531c0-.204 0-.266-.172-.266-.078 0-.11 0-.187.125L.28-1.953v.312zm.046-.313H.563l2.421-3.719zm0 0" stroke="none"/></symbol><symbol overflow="visible" id="K"><path d="M4.75-6.078c.078-.11.078-.125.078-.344H2.406c-1.203 0-1.234-.125-1.265-.312H.89L.562-4.688h.25c.032-.156.11-.78.25-.906.063-.062.844-.062.97-.062h2.062c-.11.156-.89 1.25-1.11 1.578C2.078-2.734 1.75-1.344 1.75-.328c0 .094 0 .547.469.547.453 0 .453-.453.453-.547v-.516c0-.547.031-1.094.11-1.625.046-.234.171-1.094.624-1.703zm0 0" stroke="none"/></symbol><symbol overflow="visible" id="L"><path d="M1.063-.75c0 .438-.11.438-.782.438V0c.328-.016.797-.031 1.078-.031.313 0 .704.015 1.11.031v-.313c-.672 0-.781 0-.781-.437v-1.031l.64-.547c.766 1.047 1.188 1.61 1.188 1.797 0 .187-.172.219-.36.219V0c.266-.016.86-.031 1.078-.031.282 0 .579.015.86.031v-.313c-.375 0-.594 0-.969-.53L2.859-2.626c-.015-.016-.062-.078-.062-.11 0-.03.719-.64.812-.718.625-.5 1.047-.531 1.25-.531v-.313c-.28.031-.406.031-.687.031-.36 0-.984-.015-1.125-.03v.312c.187 0 .297.109.297.25 0 .203-.14.312-.219.39L1.719-2.14v-4.78L.28-6.813v.312c.703 0 .781.063.781.563zm0 0" stroke="none"/></symbol><symbol overflow="visible" id="M"><path d="M6.75-1.61H6.5a3.74 3.74 0 0 1-.188.72c-.046.156-.078.25-.656.25H4.86c.141-.563.438-1.047.891-1.704.469-.703.875-1.39.875-2.187 0-1.375-1.344-2.5-3.031-2.5-1.703 0-3.031 1.14-3.031 2.5 0 .797.406 1.484.875 2.187.437.656.75 1.14.89 1.703h-.797c-.578 0-.61-.093-.656-.234-.094-.234-.14-.484-.188-.734h-.25L.766 0h1.593c.22 0 .25 0 .25-.203 0-.703-.312-1.578-.53-2.219-.22-.578-.5-1.36-.5-2.11 0-1.593 1.109-2.28 2.015-2.28.953 0 2.015.718 2.015 2.28 0 .75-.28 1.5-.562 2.313-.156.422-.469 1.328-.469 2.016 0 .203.031.203.25.203h1.594zm0 0" stroke="none"/></symbol></defs><use xlink:href="#H" x="223.432" y="134.765" width="744.094" height="1052.362"/><use xlink:href="#I" x="230.997" y="136.259" width="744.094" height="1052.362"/><use xlink:href="#J" x="223.432" y="146.72" width="744.094" height="1052.362"/><use xlink:href="#K" x="228.413" y="146.72" width="744.094" height="1052.362"/><g><use xlink:href="#L" x="235.058" y="146.72" width="744.094" height="1052.362"/><use xlink:href="#M" x="240.317" y="146.72" width="744.094" height="1052.362"/></g></g><g transform="matrix(2.06343 0 0 2.06343 -781.742 204.706)" ns0:preamble="/home/waldgeist/data/sphinx/inkscape-preamble.tex" ns0:text="\\flushright\n$T _{\\rm{1}}$ \\\\\nBN 548" stroke="#000" stroke-width=".727"><defs><symbol id="N" overflow="visible"><path d="M4.25-6.047c.078-.281.11-.344.234-.375.094-.016.422-.016.625-.016 1.016 0 1.454.032 1.454.813 0 .156-.032.547-.079.797 0 .047-.03.156-.03.187 0 .063.03.141.124.141.11 0 .125-.078.156-.234L7-6.47c.016-.047.016-.14.016-.172 0-.109-.094-.109-.266-.109H1.219c-.235 0-.25.016-.328.203l-.594 1.75c0 .016-.063.156-.063.188 0 .046.063.109.125.109.094 0 .11-.063.172-.219.531-1.547.797-1.718 2.266-1.718h.39c.282 0 .282.03.282.125a.775.775 0 0 1-.047.203L2.094-.781C2-.421 1.969-.312.906-.312c-.36 0-.422 0-.422.187C.484 0 .594 0 .656 0c.266 0 .547-.016.813-.016.281 0 .578-.015.86-.015.28 0 .546.015.827.015.281 0 .578.016.86.016.093 0 .218 0 .218-.203 0-.11-.078-.11-.343-.11-.235 0-.375 0-.625-.015-.297-.031-.375-.063-.375-.219 0-.015 0-.062.046-.203zm0 0" stroke="none"/></symbol><symbol id="O" overflow="visible"><path d="M2.328-4.438c0-.187 0-.187-.203-.187-.453.438-1.078.438-1.36.438v.25c.157 0 .626 0 1-.188v3.547c0 .234 0 .328-.687.328H.812V0c.125 0 .985-.031 1.235-.031.219 0 1.094.031 1.25.031v-.25H3.03c-.703 0-.703-.094-.703-.328zm0 0" stroke="none"/></symbol><symbol id="P" overflow="visible"><path d="M2.219-3.656v-2.438c0-.343.015-.406.484-.406h1.235c.968 0 1.312.844 1.312 1.375 0 .64-.484 1.469-1.594 1.469zm2.344.094c.968-.188 1.656-.829 1.656-1.563 0-.86-.922-1.688-2.219-1.688H.36v.313h.234c.765 0 .797.11.797.469v5.25c0 .36-.032.469-.797.469H.359V0h3.907c1.328 0 2.218-.89 2.218-1.828 0-.86-.812-1.61-1.921-1.734zm-.61 3.25h-1.25c-.469 0-.484-.063-.484-.391v-2.719h1.875c.984 0 1.406.922 1.406 1.594 0 .703-.531 1.516-1.547 1.516zm0 0" stroke="none"/></symbol><symbol id="Q" overflow="visible"><path d="M2.313-6.672c-.094-.125-.094-.14-.282-.14H.328v.312h.297c.14 0 .344.016.484.016.235.03.25.046.25.234v5.203c0 .266 0 .734-1.03.734V0c.343-.016.843-.031 1.171-.031.328 0 .813.015 1.156.031v-.313c-1.015 0-1.015-.468-1.015-.734v-5.187c.046.046.046.062.093.125L5.797-.125c.094.11.11.125.172.125.14 0 .14-.063.14-.266v-5.5c0-.265 0-.734 1.032-.734v-.313c-.36.016-.844.032-1.172.032-.328 0-.813-.016-1.157-.032v.313c1.016 0 1.016.469 1.016.734V-1.5zm0 0" stroke="none"/></symbol><symbol id="R" overflow="visible"><path d="M4.469-2c0-1.188-.813-2.188-1.89-2.188-.47 0-.907.157-1.267.516v-1.953c.204.063.532.125.844.125 1.235 0 1.938-.906 1.938-1.031 0-.063-.032-.11-.11-.11 0 0-.03 0-.078.032a3.22 3.22 0 0 1-1.36.296c-.39 0-.858-.078-1.327-.28-.078-.032-.094-.032-.11-.032C1-6.625 1-6.547 1-6.391v2.954c0 .171 0 .25.14.25.079 0 .094-.016.141-.079.11-.156.469-.703 1.282-.703.515 0 .765.453.843.64.156.376.188.75.188 1.25 0 .36 0 .954-.25 1.376-.235.39-.61.64-1.063.64-.719 0-1.297-.53-1.469-1.109.032 0 .063.016.172.016.329 0 .5-.25.5-.485 0-.25-.171-.5-.5-.5-.14 0-.484.079-.484.532C.5-.75 1.188.219 2.297.219 3.453.219 4.469-.734 4.469-2zm0 0" stroke="none"/></symbol><symbol id="S" overflow="visible"><path d="M2.938-1.64v.859c0 .36-.032.469-.766.469h-.203V0c.406-.031.922-.031 1.343-.031.422 0 .938 0 1.36.031v-.313h-.219c-.734 0-.75-.109-.75-.468v-.86h.985v-.312h-.985v-4.531c0-.204 0-.266-.172-.266-.078 0-.11 0-.187.125L.28-1.953v.312zm.046-.313H.563l2.421-3.719zm0 0" stroke="none"/></symbol><symbol id="T" overflow="visible"><path d="M1.625-4.563c-.453-.296-.5-.625-.5-.796 0-.61.656-1.032 1.36-1.032.718 0 1.359.516 1.359 1.235 0 .578-.39 1.047-.985 1.39zm1.453.954c.719-.375 1.203-.891 1.203-1.547 0-.922-.875-1.485-1.781-1.485-1 0-1.813.735-1.813 1.672 0 .172.016.625.438 1.094.11.11.484.36.734.531C1.281-3.047.422-2.5.422-1.5.422-.453 1.438.219 2.484.219c1.125 0 2.079-.828 2.079-1.89 0-.36-.11-.813-.5-1.235-.188-.203-.344-.297-.985-.703zm-1 .421l1.235.782c.28.187.75.484.75 1.094 0 .734-.75 1.25-1.563 1.25C1.64-.063.922-.672.922-1.5c0-.578.312-1.219 1.156-1.688zm0 0" stroke="none"/></symbol></defs><use y="134.765" x="556.852" xlink:href="#N" width="744.094" height="1052.362"/><use y="136.259" x="562.674" xlink:href="#O" width="744.094" height="1052.362"/><use y="146.72" x="534.349" xlink:href="#P" width="744.094" height="1052.362"/><use y="146.72" x="541.406" xlink:href="#Q" width="744.094" height="1052.362"/><g><use y="146.72" x="552.195" xlink:href="#R" width="744.094" height="1052.362"/><use y="146.72" x="557.176" xlink:href="#S" width="744.094" height="1052.362"/><use y="146.72" x="562.158" xlink:href="#T" width="744.094" height="1052.362"/></g></g><g ns0:text="$T _{\\rm{2}}$ \\\\\nBN 548" ns0:preamble="/home/waldgeist/data/sphinx/inkscape-preamble.tex" transform="matrix(2.06343 0 0 2.06343 435.573 207.134)" stroke="#000" stroke-width=".727"><defs><symbol overflow="visible" id="U"><path d="M4.25-6.047c.078-.281.11-.344.234-.375.094-.016.422-.016.625-.016 1.016 0 1.454.032 1.454.813 0 .156-.032.547-.079.797 0 .047-.03.156-.03.187 0 .063.03.141.124.141.11 0 .125-.078.156-.234L7-6.47c.016-.047.016-.14.016-.172 0-.109-.094-.109-.266-.109H1.219c-.235 0-.25.016-.328.203l-.594 1.75c0 .016-.063.156-.063.188 0 .046.063.109.125.109.094 0 .11-.063.172-.219.531-1.547.797-1.718 2.266-1.718h.39c.282 0 .282.03.282.125a.775.775 0 0 1-.047.203L2.094-.781C2-.421 1.969-.312.906-.312c-.36 0-.422 0-.422.187C.484 0 .594 0 .656 0c.266 0 .547-.016.813-.016.281 0 .578-.015.86-.015.28 0 .546.015.827.015.281 0 .578.016.86.016.093 0 .218 0 .218-.203 0-.11-.078-.11-.343-.11-.235 0-.375 0-.625-.015-.297-.031-.375-.063-.375-.219 0-.015 0-.062.046-.203zm0 0" stroke="none"/></symbol><symbol overflow="visible" id="V"><path d="M3.516-1.266H3.28c-.015.157-.094.563-.187.625-.047.047-.578.047-.688.047H1.125c.734-.64.984-.844 1.39-1.172.516-.406 1-.843 1-1.5 0-.843-.734-1.359-1.624-1.359-.86 0-1.454.61-1.454 1.25 0 .344.297.39.376.39.156 0 .359-.124.359-.374 0-.125-.047-.375-.406-.375.218-.485.687-.641 1.015-.641.703 0 1.063.547 1.063 1.11 0 .609-.438 1.078-.656 1.328L.516-.266C.437-.203.437-.187.437 0h2.876zm0 0" stroke="none"/></symbol><symbol overflow="visible" id="W"><path d="M2.219-3.656v-2.438c0-.343.015-.406.484-.406h1.235c.968 0 1.312.844 1.312 1.375 0 .64-.484 1.469-1.594 1.469zm2.344.094c.968-.188 1.656-.829 1.656-1.563 0-.86-.922-1.688-2.219-1.688H.36v.313h.234c.765 0 .797.11.797.469v5.25c0 .36-.032.469-.797.469H.359V0h3.907c1.328 0 2.218-.89 2.218-1.828 0-.86-.812-1.61-1.921-1.734zm-.61 3.25h-1.25c-.469 0-.484-.063-.484-.391v-2.719h1.875c.984 0 1.406.922 1.406 1.594 0 .703-.531 1.516-1.547 1.516zm0 0" stroke="none"/></symbol><symbol overflow="visible" id="X"><path d="M2.313-6.672c-.094-.125-.094-.14-.282-.14H.328v.312h.297c.14 0 .344.016.484.016.235.03.25.046.25.234v5.203c0 .266 0 .734-1.03.734V0c.343-.016.843-.031 1.171-.031.328 0 .813.015 1.156.031v-.313c-1.015 0-1.015-.468-1.015-.734v-5.187c.046.046.046.062.093.125L5.797-.125c.094.11.11.125.172.125.14 0 .14-.063.14-.266v-5.5c0-.265 0-.734 1.032-.734v-.313c-.36.016-.844.032-1.172.032-.328 0-.813-.016-1.157-.032v.313c1.016 0 1.016.469 1.016.734V-1.5zm0 0" stroke="none"/></symbol><symbol overflow="visible" id="Y"><path d="M4.469-2c0-1.188-.813-2.188-1.89-2.188-.47 0-.907.157-1.267.516v-1.953c.204.063.532.125.844.125 1.235 0 1.938-.906 1.938-1.031 0-.063-.032-.11-.11-.11 0 0-.03 0-.078.032a3.22 3.22 0 0 1-1.36.296c-.39 0-.858-.078-1.327-.28-.078-.032-.094-.032-.11-.032C1-6.625 1-6.547 1-6.391v2.954c0 .171 0 .25.14.25.079 0 .094-.016.141-.079.11-.156.469-.703 1.282-.703.515 0 .765.453.843.64.156.376.188.75.188 1.25 0 .36 0 .954-.25 1.376-.235.39-.61.64-1.063.64-.719 0-1.297-.53-1.469-1.109.032 0 .063.016.172.016.329 0 .5-.25.5-.485 0-.25-.171-.5-.5-.5-.14 0-.484.079-.484.532C.5-.75 1.188.219 2.297.219 3.453.219 4.469-.734 4.469-2zm0 0" stroke="none"/></symbol><symbol overflow="visible" id="Z"><path d="M2.938-1.64v.859c0 .36-.032.469-.766.469h-.203V0c.406-.031.922-.031 1.343-.031.422 0 .938 0 1.36.031v-.313h-.219c-.734 0-.75-.109-.75-.468v-.86h.985v-.312h-.985v-4.531c0-.204 0-.266-.172-.266-.078 0-.11 0-.187.125L.28-1.953v.312zm.046-.313H.563l2.421-3.719zm0 0" stroke="none"/></symbol><symbol overflow="visible" id="aa"><path d="M1.625-4.563c-.453-.296-.5-.625-.5-.796 0-.61.656-1.032 1.36-1.032.718 0 1.359.516 1.359 1.235 0 .578-.39 1.047-.985 1.39zm1.453.954c.719-.375 1.203-.891 1.203-1.547 0-.922-.875-1.485-1.781-1.485-1 0-1.813.735-1.813 1.672 0 .172.016.625.438 1.094.11.11.484.36.734.531C1.281-3.047.422-2.5.422-1.5.422-.453 1.438.219 2.484.219c1.125 0 2.079-.828 2.079-1.89 0-.36-.11-.813-.5-1.235-.188-.203-.344-.297-.985-.703zm-1 .421l1.235.782c.28.187.75.484.75 1.094 0 .734-.75 1.25-1.563 1.25C1.64-.063.922-.672.922-1.5c0-.578.312-1.219 1.156-1.688zm0 0" stroke="none"/></symbol></defs><use xlink:href="#U" x="223.432" y="134.765" width="744.094" height="1052.362"/><use xlink:href="#V" x="229.254" y="136.259" width="744.094" height="1052.362"/><use xlink:href="#W" x="223.432" y="146.72" width="744.094" height="1052.362"/><use xlink:href="#X" x="230.489" y="146.72" width="744.094" height="1052.362"/><g><use xlink:href="#Y" x="241.278" y="146.72" width="744.094" height="1052.362"/><use xlink:href="#Z" x="246.259" y="146.72" width="744.094" height="1052.362"/><use xlink:href="#aa" x="251.241" y="146.72" width="744.094" height="1052.362"/></g></g><g ns0:text="$\\unit[10]{\\mu F}$" ns0:preamble="/home/waldgeist/data/sphinx/inkscape-preamble.tex" stroke="#000" stroke-width=".727"><g transform="matrix(2.06343 0 0 2.06343 303.815 174.94)"><use height="744.094" width="1052.362" xlink:href="#l" x="223.432" y="134.765"/><use height="744.094" width="1052.362" xlink:href="#m" x="228.413" y="134.765"/></g><use height="744.094" width="1052.362" xlink:href="#n" x="235.055" y="134.765" transform="matrix(2.06343 0 0 2.06343 303.815 174.94)"/><use height="744.094" width="1052.362" xlink:href="#o" x="241.058" y="134.765" transform="matrix(2.06343 0 0 2.06343 303.815 174.94)"/></g></g></svg>