<svg xmlns:ns0="http://www.iki.fi/pav/software/textext/" xmlns="http://www.w3.org/2000/svg" xmlns:xlink="http://www.w3.org/1999/xlink" width="1052.362" height="744.094"><title>Astabile Kippschaltung (Stromfluss)</title><defs><marker id="i" orient="auto" overflow="visible"><path d="M2.308 0l-3.46 2v-4l3.46 2z" fill-rule="evenodd" stroke="#000" stroke-width=".4pt"/></marker><linearGradient id="d"><stop offset="0" stop-opacity="0"/><stop offset="1" stop-color="#fff"/></linearGradient><linearGradient id="e"><stop offset="0" stop-color="#fff"/><stop offset="1" stop-color="#fff" stop-opacity="0"/></linearGradient><linearGradient id="f"><stop offset="0" stop-color="#1a1a1a" stop-opacity=".828"/><stop offset="1" stop-color="#fff"/></linearGradient><linearGradient id="a"><stop offset="0" stop-opacity="0"/><stop offset="1" stop-color="#fff"/></linearGradient><linearGradient id="b"><stop offset="0" stop-color="#ebebeb"/><stop offset="1" stop-color="#fff" stop-opacity="0"/></linearGradient><linearGradient id="c"><stop offset="0" stop-color="#0e0e0e" stop-opacity=".746"/><stop offset="1" stop-color="#fff"/></linearGradient><pattern id="g" height="5.181" width="30.066" patternUnits="userSpaceOnUse"><path d="M7.597.061C5.079-.187 2.656.302-.01 1.788v1.273c2.783-1.63 5.183-2.009 7.482-1.781 2.298.228 4.497 1.081 6.781 1.938 4.567 1.713 9.551 3.458 15.813-.157l-.004-1.273c-6.44 3.709-10.816 1.982-15.371.273-2.278-.854-4.576-1.75-7.094-2z"/></pattern><pattern xlink:href="#g" id="h" patternTransform="translate(.25)"/></defs><g transform="translate(0 -308.268)"><path style="marker:none" color="#000" fill="#fff" stroke="teal" stroke-width=".5" stroke-linecap="round" stroke-linejoin="round" stroke-dasharray="3,1" overflow="visible" d="M0 680.315h526.181v372.047H0z"/><path style="marker:none" color="#000" fill="#fff" stroke="#fff" stroke-width="2.033" stroke-linecap="round" stroke-linejoin="round" overflow="visible" d="M1646.582-4720.835h3638.472v2466.155H1646.582z"/><g stroke="#000" stroke-width="1.749"><path d="M72.927 923.572h452.6" fill="none" stroke-linecap="round" transform="matrix(.9347 0 0 .31977 528.574 43.503)"/></g><g fill="teal" stroke="teal" stroke-width="2.999"><g stroke-width="3.37" stroke-linecap="round"><path d="M893.302 1257.256v-200.939M869.468 1120.08v73.413" transform="matrix(0 -.31891 .25246 0 304.694 774.113)"/></g><g stroke-linecap="round" stroke-width=".891"><path d="M577.238 467.872v10.536M571.374 473.14h10.536" stroke-width=".9561142800000001"/></g><path d="M577.238 507.775v10.535" stroke-linecap="round" stroke-width=".9564110900000001"/></g><g fill="none" stroke="#000" stroke-width="2.991"><path d="M1020.148 460.715l-12.544-22.18h25.089l-12.545 22.18z" stroke-linecap="square" stroke-width=".9564320700000001"/><path d="M1032.367 462.09h-24.437" stroke-linecap="round" stroke-width=".9564320700000001"/><path d="M695.75 614.612l45.47-45.47M716.5 626.362l45.47-45.47" stroke-linecap="round" marker-end="url(#i)" transform="rotate(90 505.762 727.246) scale(.31977)"/><g stroke-linecap="round"><path d="M1020.148 414.442v24.094M1020.112 462.09v24.094" stroke-width=".9564320700000001"/></g></g><path fill="none" stroke-linecap="round" d="M1028.88 397.624h-18.815V351.78h18.815z" stroke="#000" stroke-width=".9564320700000001"/><g fill="none" stroke="teal" stroke-width="2.991"><g stroke-width=".794"><path transform="matrix(-1.20385 0 0 1.60512 1519.147 422.785)" d="M435.827 100.866c0 5.87-6.346 10.63-14.173 10.63-7.828 0-14.174-4.76-14.174-10.63 0-5.87 6.346-10.63 14.174-10.63 7.827 0 14.173 4.76 14.173 10.63z" style="marker:none" color="#000" stroke-width=".688" stroke-linecap="square" overflow="visible"/><path d="M1007.276 584.688h-93.483M1007.276 593.22v-17.063M1007.372 580.324l12.7-8.433v-1.496" stroke-linecap="round" stroke-width=".9558569000000001"/><path d="M1007.224 588.901l12.848 8.584v1.496" stroke-linecap="round" stroke-linejoin="round" stroke-width=".9558569000000001"/></g><path d="M241.162 980.596l34.74 23.207" marker-end="url(#i)" transform="matrix(.31977 0 0 .31977 930.11 275.341)"/></g><path d="M1020.065 569.877l.095-46.877M1019.978 647.35l.095-48.369" fill="none" stroke="#000" stroke-width=".956" stroke-linecap="round"/><path d="M1020.112 524.14a1.71 1.71 0 1 1 0-3.421 1.71 1.71 0 0 1 0 3.422z" stroke="#000" stroke-width=".95629116" stroke-linecap="round"/><g stroke="#000" stroke-width="3.326"><g stroke-width=".739" fill="none" stroke-linecap="round"><path d="M971.667 499.508v45.844M962.499 499.508v45.844M971.697 522.43h48.415M962.469 522.43h-48.676" stroke-width=".9561329799999999"/></g></g><path fill="none" stroke-linecap="round" d="M923.2 397.624h-18.815V351.78H923.2z" stroke="teal" stroke-width=".9564320700000001"/><path d="M702.419 524.426a1.71 1.71 0 1 1 0-3.422 1.71 1.71 0 0 1 0 3.422z" fill="teal" stroke="teal" stroke-width=".95629116" stroke-linecap="round"/><path fill="none" stroke-linecap="round" d="M818.146 397.624h-18.815V351.78h18.815z" stroke="teal" stroke-width=".9564320700000001"/><g stroke="#000" stroke-width="2.991"><g fill="none"><g stroke-width=".794"><path transform="matrix(1.20385 0 0 1.60512 203.432 422.5)" d="M435.827 100.866c0 5.87-6.346 10.63-14.173 10.63-7.828 0-14.174-4.76-14.174-10.63 0-5.87 6.346-10.63 14.174-10.63 7.827 0 14.173 4.76 14.173 10.63z" style="marker:none" color="#000" stroke-width=".688" stroke-linecap="square" overflow="visible"/><path d="M715.303 584.403h17.062M715.303 592.934v-17.062M715.207 580.039l-12.7-8.433v-1.496" stroke-linecap="round" stroke-width=".9558569000000001"/><path d="M715.355 588.616l-12.85 8.584v8.53" stroke-linecap="round" stroke-linejoin="round" stroke-width=".9558569000000001"/></g><path d="M241.162 980.596l34.74 23.207" marker-end="url(#i)" transform="matrix(-.31977 0 0 .31977 792.468 275.056)"/></g><path d="M702.514 569.591l-.095-46.876" fill="none" stroke-linecap="round" stroke-width=".9564320700000001"/></g><g stroke="teal" stroke-width="3.326"><g stroke-width=".739" fill="none" stroke-linecap="round"><path d="M750.864 499.793v45.844M760.033 499.793v45.844M750.834 522.715h-48.415M760.062 522.715h48.676" stroke-width=".9561329799999999"/></g></g><path d="M702.419 414.245v-17.247" fill="none" stroke="#000" stroke-width=".956" stroke-linecap="round"/><g fill="none" stroke="teal" stroke-width="2.991"><path d="M702.383 460.715l12.544-22.18h-25.089l12.545 22.18z" stroke-linecap="square" stroke-width=".9564320700000001"/><path d="M690.164 462.09h24.437" stroke-linecap="round" stroke-width=".9564320700000001"/><path d="M695.75 614.612l45.47-45.47M716.5 626.362l45.47-45.47" stroke-linecap="round" marker-end="url(#i)" transform="matrix(0 .31977 .31977 0 489.528 221.487)"/><g stroke-linecap="round"><path d="M702.383 414.442v24.094M702.419 462.09v24.094" stroke-width=".9564320700000001"/></g></g><path fill="none" stroke="teal" stroke-width=".956" stroke-linecap="round" d="M711.569 396.998h-18.301v-44.591h18.301z"/><path d="M702.419 521.191v-35.007" fill="none" stroke="#000" stroke-width=".956" stroke-linecap="round"/><g stroke="#000" stroke-width="1.747"><path d="M73.076 923.572h452.35" fill="none" stroke-linecap="round" transform="matrix(.93564 0 0 .3202 528.366 351.628)"/></g><path d="M702.411 647.134l.095-48.37M732.365 584.403l76.373.095" fill="none" stroke="#000" stroke-width=".956" stroke-linecap="round"/><path d="M913.793 584.688l-105.055-61.973" fill="none" stroke="#000" stroke-width=".956"/><path d="M913.793 524.14a1.71 1.71 0 1 1 0-3.421 1.71 1.71 0 0 1 0 3.422z" fill="teal" stroke="teal" stroke-width=".95629116" stroke-linecap="round"/><path d="M808.738 584.688l105.055-61.973" fill="none" stroke="#000" stroke-width=".956"/><path d="M596.739 489.228V338.843M596.739 647.226V496.83M1020.112 522.43v-36.123M913.793 520.719V397.624M808.738 521.004v-123.38" fill="none" stroke="#000" stroke-width=".956" stroke-linecap="round"/><path d="M808.738 524.426a1.71 1.71 0 1 1 0-3.422 1.71 1.71 0 0 1 0 3.422z" fill="teal" stroke="teal" stroke-width=".95629116" stroke-linecap="round"/><path d="M808.738 351.78v-12.949M913.793 351.78v-12.949M1019.785 351.78v-12.949M1020.148 414.442v-16.818" fill="none" stroke="#000" stroke-width=".956" stroke-linecap="round"/><path d="M702.419 340.542a1.71 1.71 0 1 1 0-3.421 1.71 1.71 0 0 1 0 3.421zM913.793 340.542a1.71 1.71 0 1 1 0-3.421 1.71 1.71 0 0 1 0 3.421z" fill="teal" stroke="teal" stroke-width=".95629116" stroke-linecap="round"/><path d="M702.419 352.406v-13.575" fill="none" stroke="#000" stroke-width=".956" stroke-linecap="round"/><g ns0:text="$R _{\\rm{1}}$" fill="teal" stroke="#000" stroke-width=".635"><use xlink:href="#j" x="223.432" y="134.765" width="1052.362" height="1488.189" transform="matrix(1.50613 0 0 1.50613 377.242 178.358)"/><use xlink:href="#k" x="230.997" y="136.259" width="1052.362" height="1488.189" transform="matrix(1.50613 0 0 1.50613 377.242 178.358)"/></g><g ns0:text="$R _{\\rm{2}}$" stroke="#000" stroke-width=".635" fill="teal"><use y="134.765" x="223.432" xlink:href="#l" width="1052.362" height="1488.189" transform="matrix(1.50613 0 0 1.50613 484.266 178.358)"/><use y="136.259" x="230.997" xlink:href="#m" width="1052.362" height="1488.189" transform="matrix(1.50613 0 0 1.50613 484.266 178.358)"/></g><g ns0:text="$R _{\\rm{3}}$" stroke="#000" stroke-width=".635" fill="teal"><use height="1488.189" width="1052.362" xlink:href="#n" x="223.432" y="134.765" transform="matrix(1.50613 0 0 1.50613 589.025 178.252)"/><use height="1488.189" width="1052.362" xlink:href="#o" x="230.997" y="136.259" transform="matrix(1.50613 0 0 1.50613 589.025 178.252)"/></g><g ns0:text="$R _{\\rm{4}}$" stroke="#000" stroke-width=".635"><use height="1052.362" width="744.094" xlink:href="#p" x="223.432" y="134.765" transform="matrix(1.50613 0 0 1.50613 694.94 178.358)"/><use height="1052.362" width="744.094" xlink:href="#q" x="230.997" y="136.259" transform="matrix(1.50613 0 0 1.50613 694.94 178.358)"/></g><g ns0:text="$C _{\\rm{1}}$" fill="teal" stroke="#000" stroke-width=".635"><use y="134.765" x="223.432" xlink:href="#r" width="744.094" height="1052.362" transform="matrix(1.50613 0 0 1.50613 410.838 289.166)"/><use y="136.259" x="230.553" xlink:href="#s" width="744.094" height="1052.362" transform="matrix(1.50613 0 0 1.50613 410.838 289.166)"/></g><g ns0:text="$C _{\\rm{2}}$" stroke="#000" stroke-width=".635"><use xlink:href="#t" x="223.432" y="134.765" width="744.094" height="1052.362" transform="matrix(1.50613 0 0 1.50613 622.047 289.166)"/><use xlink:href="#u" x="230.553" y="136.259" width="744.094" height="1052.362" transform="matrix(1.50613 0 0 1.50613 622.047 289.166)"/></g><g ns0:text="$T _{\\rm{2}}$" fill="teal" stroke="#000" stroke-width=".635"><use y="134.765" x="223.432" xlink:href="#v" width="744.094" height="1052.362" transform="matrix(1.50613 0 0 1.50613 695.838 385.672)"/><use y="136.259" x="229.254" xlink:href="#w" width="744.094" height="1052.362" transform="matrix(1.50613 0 0 1.50613 695.838 385.672)"/></g><g ns0:text="$T _{\\rm{1}}$" stroke="#000" stroke-width=".635"><use xlink:href="#x" x="223.432" y="134.765" width="744.094" height="1052.362" transform="matrix(1.50613 0 0 1.50613 338.992 385.387)"/><use xlink:href="#y" x="229.254" y="136.259" width="744.094" height="1052.362" transform="matrix(1.50613 0 0 1.50613 338.992 385.387)"/></g><g ns0:text="$D _{\\rm{1}}$" fill="teal" stroke="#000" stroke-width=".635"><use y="134.765" x="223.432" xlink:href="#z" width="744.094" height="1052.362" transform="matrix(1.50613 0 0 1.50613 381.079 250.657)"/><use y="136.259" x="231.68" xlink:href="#A" width="744.094" height="1052.362" transform="matrix(1.50613 0 0 1.50613 381.079 250.657)"/></g><g ns0:text="$D _{\\rm{2}}$" stroke="#000" stroke-width=".635"><use xlink:href="#B" x="223.432" y="134.765" width="744.094" height="1052.362" transform="matrix(1.50613 0 0 1.50613 648.704 250.657)"/><use xlink:href="#C" x="231.68" y="136.259" width="744.094" height="1052.362" transform="matrix(1.50613 0 0 1.50613 648.704 250.657)"/></g><path id="E" d="M596.74 408.623l3.069 5.317 3.07 5.317h-12.28l3.07-5.317z" fill="teal" stroke="teal" stroke-width=".9562134000000001"/><path d="M596.739 339.461v148.958M596.739 497.632v149.594" fill="none" stroke="teal" stroke-width="1.913" stroke-linecap="round"/><path d="M808.738 340.542a1.71 1.71 0 1 1 0-3.421 1.71 1.71 0 0 1 0 3.421z" fill="teal" stroke="teal" stroke-width=".95629116" stroke-linecap="round"/><path d="M1019.978 647.226H704.12" fill="none" stroke="teal" stroke-width="1.913" stroke-linecap="round"/><path d="M702.411 648.845a1.71 1.71 0 1 1 0-3.422 1.71 1.71 0 0 1 0 3.422z" fill="teal" stroke="teal" stroke-width=".95629116" stroke-linecap="round"/><path d="M702.383 521.004V462.09M702.383 437.361v-39.526M702.419 351.605v-12.774M1019.978 647.35v-47.33M750.023 522.715H704.13M1007.276 584.688h-93.051" fill="none" stroke="teal" stroke-width="1.913" stroke-linecap="round"/><use xlink:href="#D" transform="translate(571.343 158.489)" width="744.094" height="1052.362" stroke-width="3"/><use xlink:href="#D" transform="rotate(-90 454.004 218.618)" width="744.094" height="1052.362" stroke-width="3"/><use xlink:href="#D" transform="rotate(-90 560.365 112.257)" width="744.094" height="1052.362" stroke-width="3"/><use xlink:href="#D" transform="matrix(0 -1 -1 0 1374.69 610.083)" width="744.094" height="1052.362" stroke-width="3"/><use xlink:href="#D" transform="rotate(90 374.612 688.048)" width="744.094" height="1052.362" stroke-width="3"/><use xlink:href="#D" transform="matrix(1 0 0 -1 676.987 831.538)" width="744.094" height="1052.362" stroke-width="3"/><use xlink:href="#D" transform="matrix(1 0 0 -1 676.987 905.487)" width="744.094" height="1052.362" stroke-width="3"/><path d="M913.793 584.688L809.42 522.715" fill="none" stroke="teal" stroke-width="1.913" stroke-linecap="round"/><use xlink:href="#D" transform="matrix(1 0 0 -1 994.582 1037.625)" width="744.094" height="1052.362" stroke-width="3"/><path d="M807.347 522.715h-46.246M701.914 338.831H596.74" fill="none" stroke="teal" stroke-width="1.913" stroke-linecap="round"/><use height="1052.362" width="744.094" transform="rotate(90 607.52 533.496)" xlink:href="#E" stroke-width="3"/><path d="M701.914 647.226H596.74" fill="none" stroke="teal" stroke-width="1.913" stroke-linecap="round"/><use height="1052.362" width="744.094" transform="rotate(90 636.094 562.07)" xlink:href="#E" stroke-width="3"/><use height="1052.362" width="744.094" transform="translate(238.388 122.57)" xlink:href="#E" stroke-width="3"/><use height="1052.362" width="744.094" transform="translate(290.613 153.276)" xlink:href="#E" stroke-width="3"/><g stroke="#000" stroke-width="1.749"><path d="M72.927 923.572h452.6" fill="none" stroke-linecap="round" transform="matrix(.9347 0 0 .31977 528.574 417.95)"/></g><g fill="teal" stroke="teal" stroke-width="2.999"><g stroke-width="3.37" stroke-linecap="round"><path d="M893.302 1257.256v-200.939M869.468 1120.08v73.413" transform="matrix(0 -.31891 .25246 0 304.694 1148.561)"/></g><g stroke-linecap="round" stroke-width=".891"><path d="M577.238 842.32v10.535M571.374 847.588h10.536" stroke-width=".9561142800000001"/></g><path d="M577.238 882.222v10.536" stroke-linecap="round" stroke-width=".9564110900000001"/></g><g fill="none" stroke="teal" stroke-width="2.991"><path d="M1020.148 835.162l-12.544-22.178h25.089l-12.545 22.178z" stroke-linecap="square" stroke-width=".9564320700000001"/><path d="M1032.367 836.538h-24.437" stroke-linecap="round" stroke-width=".9564320700000001"/><path d="M695.75 614.612l45.47-45.47M716.5 626.362l45.47-45.47" stroke-linecap="round" marker-end="url(#i)" transform="rotate(90 318.538 914.47) scale(.31977)"/><g stroke-linecap="round"><path d="M1020.148 788.89v24.094M1020.112 836.538v24.093" stroke-width=".9564320700000001"/></g></g><path fill="none" stroke-linecap="round" d="M1028.88 772.072h-18.815v-45.844h18.815z" stroke="teal" stroke-width=".9564320700000001"/><g fill="none" stroke="#000" stroke-width="2.991"><g stroke-width=".794"><path style="marker:none" d="M435.827 100.866c0 5.87-6.346 10.63-14.173 10.63-7.828 0-14.174-4.76-14.174-10.63 0-5.87 6.346-10.63 14.174-10.63 7.827 0 14.173 4.76 14.173 10.63z" transform="matrix(-1.20385 0 0 1.60512 1519.147 797.233)" color="#000" stroke-width=".688" stroke-linecap="square" overflow="visible"/><path d="M1007.276 959.136h-93.483M1007.276 967.667v-17.062M1007.372 954.772l12.7-8.433v-1.496" stroke-linecap="round" stroke-width=".9558569000000001"/><path d="M1007.224 963.35l12.848 8.583v1.496" stroke-linecap="round" stroke-linejoin="round" stroke-width=".9558569000000001"/></g><path d="M241.162 980.596l34.74 23.207" marker-end="url(#i)" transform="matrix(.31977 0 0 .31977 930.11 649.79)"/></g><path d="M1020.065 944.324l.095-46.876M1019.978 1021.799l.095-48.37" fill="none" stroke="#000" stroke-width=".956" stroke-linecap="round"/><g stroke="teal" stroke-width="3.326"><g stroke-width=".739" fill="none" stroke-linecap="round"><path d="M971.667 873.955V919.8M962.499 873.955V919.8M971.697 896.878h48.415M962.469 896.878h-48.676" stroke-width=".9561329799999999"/></g></g><path fill="none" stroke-linecap="round" d="M923.2 772.072h-18.815v-45.844H923.2zM818.146 772.072h-18.815v-45.844h18.815z" stroke="#000" stroke-width=".9564320700000001"/><g stroke="teal" stroke-width="2.991"><path d="M702.514 944.04l-.095-46.877" fill="none" stroke="#000" stroke-linecap="round" stroke-width=".9564320700000001"/><g fill="none"><g stroke-width=".794"><path style="marker:none" d="M435.827 100.866c0 5.87-6.346 10.63-14.173 10.63-7.828 0-14.174-4.76-14.174-10.63 0-5.87 6.346-10.63 14.174-10.63 7.827 0 14.173 4.76 14.173 10.63z" transform="matrix(1.20385 0 0 1.60512 203.432 796.947)" color="#000" stroke-width=".688" stroke-linecap="square" overflow="visible"/><path d="M715.303 958.85h17.062M715.303 967.382v-17.063M715.207 954.487l-12.7-8.433v-1.497" stroke-linecap="round" stroke-width=".9558569000000001"/><path d="M715.355 963.064l-12.85 8.583v8.532" stroke-linecap="round" stroke-linejoin="round" stroke-width=".9558569000000001"/></g><path d="M241.162 980.596l34.74 23.207" marker-end="url(#i)" transform="matrix(-.31977 0 0 .31977 792.468 649.504)"/></g></g><path d="M702.419 898.874a1.71 1.71 0 1 1 0-3.422 1.71 1.71 0 0 1 0 3.422z" stroke="#000" stroke-width=".95629116" stroke-linecap="round"/><g stroke="#000" stroke-width="3.326"><g stroke-width=".739" fill="none" stroke-linecap="round"><path d="M750.864 874.24v45.845M760.033 874.24v45.845M750.834 897.163h-48.415M760.062 897.163h48.676" stroke-width=".9561329799999999"/></g></g><path d="M702.419 788.693v-17.247" fill="none" stroke="#000" stroke-width=".956" stroke-linecap="round"/><g fill="none" stroke="#000" stroke-width="2.991"><path d="M702.383 835.162l12.544-22.178h-25.089l12.545 22.178z" stroke-linecap="square" stroke-width=".9564320700000001"/><path d="M690.164 836.538h24.437" stroke-linecap="round" stroke-width=".9564320700000001"/><path d="M695.75 614.612l45.47-45.47M716.5 626.362l45.47-45.47" stroke-linecap="round" marker-end="url(#i)" transform="matrix(0 .31977 .31977 0 489.528 595.934)"/><g stroke-linecap="round"><path d="M702.383 788.89v24.094M702.419 836.538v24.093" stroke-width=".9564320700000001"/></g></g><path fill="none" stroke="#000" stroke-width=".956" stroke-linecap="round" d="M711.569 771.446h-18.301v-44.591h18.301zM702.419 895.64V860.63"/><g stroke="#000" stroke-width="1.747"><path d="M73.076 923.572h452.35" fill="none" stroke-linecap="round" transform="matrix(.93564 0 0 .3202 528.366 726.076)"/></g><path d="M702.411 1021.582l.095-48.37M732.365 958.85l76.373.095" fill="none" stroke="#000" stroke-width=".956" stroke-linecap="round"/><path d="M913.793 959.136l-105.055-61.973M808.738 959.136l105.055-61.973" fill="none" stroke="#000" stroke-width=".956"/><path d="M596.739 863.676V713.291M596.739 1021.674V871.277M1020.112 896.878v-36.124M913.793 895.167V772.072" fill="none" stroke="#000" stroke-width=".956" stroke-linecap="round"/><path d="M913.793 898.588a1.71 1.71 0 1 1 0-3.421 1.71 1.71 0 0 1 0 3.421z" fill="teal" stroke="teal" stroke-width=".95629116" stroke-linecap="round"/><path d="M808.738 895.452v-123.38" fill="none" stroke="#000" stroke-width=".956" stroke-linecap="round"/><path d="M808.738 898.874a1.71 1.71 0 1 1 0-3.422 1.71 1.71 0 0 1 0 3.422z" stroke="#000" stroke-width=".95629116" stroke-linecap="round"/><path d="M808.738 726.228v-12.949M913.793 726.228v-12.949M1019.785 726.228v-12.949M1020.148 788.89v-16.818" fill="none" stroke="#000" stroke-width=".956" stroke-linecap="round"/><path d="M913.793 714.99a1.71 1.71 0 1 1 0-3.422 1.71 1.71 0 0 1 0 3.422z" stroke="teal" stroke-width=".95629116" stroke-linecap="round"/><path d="M702.419 726.854V713.28" fill="none" stroke="#000" stroke-width=".956" stroke-linecap="round"/><path d="M702.419 714.99a1.71 1.71 0 1 1 0-3.422 1.71 1.71 0 0 1 0 3.422z" fill="teal" stroke="teal" stroke-width=".95629116" stroke-linecap="round"/><g ns0:text="$R _{\\rm{1}}$" stroke="#000" stroke-width=".635"><use height="1488.189" width="1052.362" y="134.765" x="223.432" xlink:href="#j" transform="matrix(1.50613 0 0 1.50613 377.242 552.805)"/><use height="1488.189" width="1052.362" y="136.259" x="230.997" xlink:href="#k" transform="matrix(1.50613 0 0 1.50613 377.242 552.805)"/></g><g ns0:text="$R _{\\rm{2}}$" stroke="#000" stroke-width=".635"><use height="1488.189" width="1052.362" xlink:href="#l" x="223.432" y="134.765" transform="matrix(1.50613 0 0 1.50613 484.266 552.805)"/><use height="1488.189" width="1052.362" xlink:href="#m" x="230.997" y="136.259" transform="matrix(1.50613 0 0 1.50613 484.266 552.805)"/></g><g ns0:text="$R _{\\rm{3}}$" stroke="#000" stroke-width=".635"><use y="134.765" x="223.432" xlink:href="#n" width="1052.362" height="1488.189" transform="matrix(1.50613 0 0 1.50613 589.025 552.7)"/><use y="136.259" x="230.997" xlink:href="#o" width="1052.362" height="1488.189" transform="matrix(1.50613 0 0 1.50613 589.025 552.7)"/></g><g ns0:text="$R _{\\rm{4}}$" fill="teal" stroke="#000" stroke-width=".635"><use y="134.765" x="223.432" xlink:href="#p" width="744.094" height="1052.362" transform="matrix(1.50613 0 0 1.50613 694.94 552.805)"/><use y="136.259" x="230.997" xlink:href="#q" width="744.094" height="1052.362" transform="matrix(1.50613 0 0 1.50613 694.94 552.805)"/></g><g ns0:text="$C _{\\rm{1}}$" stroke="#000" stroke-width=".635"><use height="1052.362" width="744.094" xlink:href="#r" x="223.432" y="134.765" transform="matrix(1.50613 0 0 1.50613 410.838 663.614)"/><use height="1052.362" width="744.094" xlink:href="#s" x="230.553" y="136.259" transform="matrix(1.50613 0 0 1.50613 410.838 663.614)"/></g><g ns0:text="$C _{\\rm{2}}$" fill="teal" stroke="#000" stroke-width=".635"><use height="1052.362" width="744.094" y="134.765" x="223.432" xlink:href="#t" transform="matrix(1.50613 0 0 1.50613 622.047 663.614)"/><use height="1052.362" width="744.094" y="136.259" x="230.553" xlink:href="#u" transform="matrix(1.50613 0 0 1.50613 622.047 663.614)"/></g><g ns0:text="$T _{\\rm{2}}$" stroke="#000" stroke-width=".635"><use height="1052.362" width="744.094" xlink:href="#v" x="223.432" y="134.765" transform="matrix(1.50613 0 0 1.50613 695.838 760.12)"/><use height="1052.362" width="744.094" xlink:href="#w" x="229.254" y="136.259" transform="matrix(1.50613 0 0 1.50613 695.838 760.12)"/></g><g ns0:text="$T _{\\rm{1}}$" fill="teal" stroke="teal" stroke-width=".635"><use height="1052.362" width="744.094" y="134.765" x="223.432" xlink:href="#x" transform="matrix(1.50613 0 0 1.50613 338.992 759.834)"/><use height="1052.362" width="744.094" y="136.259" x="229.254" xlink:href="#y" transform="matrix(1.50613 0 0 1.50613 338.992 759.834)"/></g><g ns0:text="$D _{\\rm{1}}$" stroke="#000" stroke-width=".635"><use height="1052.362" width="744.094" xlink:href="#z" x="223.432" y="134.765" transform="matrix(1.50613 0 0 1.50613 381.079 625.104)"/><use height="1052.362" width="744.094" xlink:href="#A" x="231.68" y="136.259" transform="matrix(1.50613 0 0 1.50613 381.079 625.104)"/></g><g ns0:text="$D _{\\rm{2}}$" fill="teal" stroke="#000" stroke-width=".635"><use height="1052.362" width="744.094" y="134.765" x="223.432" xlink:href="#B" transform="matrix(1.50613 0 0 1.50613 648.704 625.104)"/><use height="1052.362" width="744.094" y="136.259" x="231.68" xlink:href="#C" transform="matrix(1.50613 0 0 1.50613 648.704 625.104)"/></g><path d="M596.74 783.07l3.069 5.318 3.07 5.317h-12.28l3.07-5.317z" id="F" fill="teal" stroke="teal" stroke-width=".9562134000000001"/><path d="M596.739 713.909v148.958M596.739 872.08v149.594" fill="none" stroke="teal" stroke-width="1.913" stroke-linecap="round"/><path d="M808.738 714.99a1.71 1.71 0 1 1 0-3.422 1.71 1.71 0 0 1 0 3.422z" fill="teal" stroke="teal" stroke-width=".95629116" stroke-linecap="round"/><path d="M1019.978 1021.674H704.12" fill="none" stroke="#000" stroke-width=".956" stroke-linecap="round"/><path d="M702.411 1023.292a1.71 1.71 0 1 1 0-3.421 1.71 1.71 0 0 1 0 3.421z" fill="teal" stroke="teal" stroke-width=".95629116" stroke-linecap="round"/><path d="M1019.785 895.452v-58.914M1019.785 811.809v-39.527M1019.785 726.053v-12.774M702.459 1021.799v-47.331M808.738 959.136h-93.05" fill="none" stroke="teal" stroke-width="1.913" stroke-linecap="round"/><use height="1052.362" width="744.094" transform="translate(571.343 532.937)" xlink:href="#D" stroke-width="3"/><use height="1052.362" width="744.094" transform="rotate(-90 641.228 405.841)" xlink:href="#D" stroke-width="3"/><use height="1052.362" width="744.094" transform="rotate(-90 666.402 318.13)" xlink:href="#D" stroke-width="3"/><use height="1052.362" width="744.094" transform="rotate(90 187.389 875.272)" xlink:href="#D" stroke-width="3"/><use height="1052.362" width="744.094" transform="matrix(1 0 0 -1 994.39 1205.986)" xlink:href="#D" stroke-width="3"/><use height="1052.362" width="744.094" transform="matrix(1 0 0 -1 994.39 1279.935)" xlink:href="#D" stroke-width="3"/><use height="1052.362" width="744.094" transform="matrix(1 0 0 -1 677.063 1412.073)" xlink:href="#D" stroke-width="3"/><path d="M701.914 713.28H596.74M701.914 1021.674H596.74M972.668 897.163h45.893" fill="none" stroke="teal" stroke-width="1.913" stroke-linecap="round"/><path d="M1020.112 898.588a1.71 1.71 0 1 1 0-3.421 1.71 1.71 0 0 1 0 3.421z" fill="teal" stroke="teal" stroke-width=".95629116" stroke-linecap="round"/><path d="M915.344 897.163h46.245" fill="none" stroke="teal" stroke-width="1.913" stroke-linecap="round"/><use xlink:href="#E" transform="matrix(0 1 1 0 581.674 300.424)" width="744.094" height="1052.362" stroke-width="3"/><use xlink:href="#E" transform="matrix(0 1 1 0 524.527 300.424)" width="744.094" height="1052.362" stroke-width="3"/><path d="M809.42 959.136l104.373-61.973" fill="none" stroke="teal" stroke-width="1.913" stroke-linecap="round"/><use xlink:href="#E" transform="matrix(-1 0 0 1 1484.421 496.954)" width="744.094" height="1052.362" stroke-width="3"/><use xlink:href="#E" transform="matrix(-1 0 0 1 1431.993 528.084)" width="744.094" height="1052.362" stroke-width="3"/><path d="M805.883 713.28H700.708M915.625 713.28H810.449M1019.785 713.28H914.61" fill="none" stroke="teal" stroke-width="1.913" stroke-linecap="round"/><use height="1052.362" width="744.094" transform="rotate(90 819.522 936.063)" xlink:href="#F" stroke-width="3"/><use height="1052.362" width="744.094" transform="rotate(90 767.442 883.982)" xlink:href="#F" stroke-width="3"/><use height="1052.362" width="744.094" transform="rotate(90 712.572 829.112)" xlink:href="#F" stroke-width="3"/><g transform="translate(22.581 -1.2)"><g stroke="#000" stroke-width="1.749"><path d="M72.927 923.572h452.6" fill="none" stroke-linecap="round" transform="matrix(.9347 0 0 .31977 -42.77 417.95)"/></g><g fill="teal" stroke="teal" stroke-width="2.999"><g stroke-width="3.37" stroke-linecap="round"><path d="M893.302 1257.256v-200.939M869.468 1120.08v73.413" transform="matrix(0 -.31891 .25246 0 -266.649 1148.561)"/></g><g stroke-linecap="round" stroke-width=".891"><path d="M5.894 842.32v10.535M.03 847.588h10.536" stroke-width=".9561142800000001"/></g><path d="M5.894 882.222v10.536" stroke-linecap="round" stroke-width=".9564110900000001"/></g><g fill="none" stroke="teal" stroke-width="2.991"><path d="M448.805 835.162l-12.545-22.178h25.09l-12.545 22.178z" stroke-linecap="square" stroke-width=".9564320700000001"/><path d="M461.024 836.538h-24.438" stroke-linecap="round" stroke-width=".9564320700000001"/><path d="M695.75 614.612l45.47-45.47M716.5 626.362l45.47-45.47" stroke-linecap="round" marker-end="url(#i)" transform="rotate(90 32.865 628.799) scale(.31977)"/><g stroke-linecap="round"><path d="M448.805 788.89v24.094M448.769 836.538v24.093" stroke-width=".9564320700000001"/></g></g><path fill="none" stroke-linecap="round" d="M457.537 772.072h-18.815v-45.844h18.815z" stroke="teal" stroke-width=".9564320700000001"/><g stroke="teal" stroke-width="2.991"><g fill="none"><g stroke-width=".794"><path transform="matrix(-1.20385 0 0 1.60512 947.803 797.233)" d="M435.827 100.866c0 5.87-6.346 10.63-14.173 10.63-7.828 0-14.174-4.76-14.174-10.63 0-5.87 6.346-10.63 14.174-10.63 7.827 0 14.173 4.76 14.173 10.63z" style="marker:none" color="#000" stroke-width=".688" stroke-linecap="square" overflow="visible"/><path d="M435.932 959.136H342.45" stroke="#000" stroke-linecap="round" stroke-width=".9558569000000001"/><path d="M435.932 967.667v-17.062M436.028 954.772l12.7-8.433v-1.496" stroke-linecap="round" stroke-width=".9558569000000001"/><path d="M435.88 963.35l12.85 8.583v1.496" stroke-linecap="round" stroke-linejoin="round" stroke-width=".9558569000000001"/></g><path d="M241.162 980.596l34.74 23.207" marker-end="url(#i)" transform="matrix(.31977 0 0 .31977 358.767 649.79)"/></g><path d="M448.721 944.324l.095-46.876M448.634 1021.799l.095-48.37" fill="none" stroke-linecap="round" stroke-width=".9564320700000001"/></g><g stroke="teal" stroke-width="3.326"><g stroke-width=".739" fill="none" stroke-linecap="round"><path d="M400.324 873.955V919.8M391.155 873.955V919.8M400.354 896.878h48.415M391.125 896.878H342.45" stroke-width=".9561329799999999"/></g></g><path fill="none" stroke-linecap="round" d="M351.857 772.072h-18.815v-45.844h18.815z" stroke="teal" stroke-width=".9564320700000001"/><path d="M131.076 898.874a1.71 1.71 0 1 1 0-3.422 1.71 1.71 0 0 1 0 3.422z" stroke="#000" stroke-width=".95629116" stroke-linecap="round"/><path fill="none" stroke-linecap="round" d="M246.803 772.072h-18.815v-45.844h18.815z" stroke="#000" stroke-width=".9564320700000001"/><g stroke="#000" stroke-width="2.991"><g fill="none"><g stroke-width=".794"><path style="marker:none" d="M435.827 100.866c0 5.87-6.346 10.63-14.173 10.63-7.828 0-14.174-4.76-14.174-10.63 0-5.87 6.346-10.63 14.174-10.63 7.827 0 14.173 4.76 14.173 10.63z" transform="matrix(1.20385 0 0 1.60512 -367.912 796.947)" color="#000" stroke-width=".688" stroke-linecap="square" overflow="visible"/><path d="M143.96 958.85h17.062M143.96 967.382v-17.063M143.863 954.487l-12.7-8.433v-1.497" stroke-linecap="round" stroke-width=".9558569000000001"/><path d="M144.011 963.064l-12.848 8.583v8.532" stroke-linecap="round" stroke-linejoin="round" stroke-width=".9558569000000001"/></g><path d="M241.162 980.596l34.74 23.207" marker-end="url(#i)" transform="matrix(-.31977 0 0 .31977 221.124 649.504)"/></g><path d="M131.17 944.04l-.095-46.877" fill="none" stroke-linecap="round" stroke-width=".9564320700000001"/></g><g stroke="#000" stroke-width="3.326"><g stroke-width=".739" fill="none" stroke-linecap="round"><path d="M179.52 874.24v45.845M188.69 874.24v45.845M179.49 897.163h-48.414M188.719 897.163h48.676" stroke-width=".9561329799999999"/></g></g><path d="M131.076 788.693v-17.247" fill="none" stroke="#000" stroke-width=".956" stroke-linecap="round"/><g fill="none" stroke="#000" stroke-width="2.991"><path d="M131.04 835.162l12.544-22.178h-25.09l12.545 22.178z" stroke-linecap="square" stroke-width=".9564320700000001"/><path d="M118.82 836.538h24.438" stroke-linecap="round" stroke-width=".9564320700000001"/><path d="M695.75 614.612l45.47-45.47M716.5 626.362l45.47-45.47" stroke-linecap="round" marker-end="url(#i)" transform="matrix(0 .31977 .31977 0 -81.815 595.934)"/><g stroke-linecap="round"><path d="M131.04 788.89v24.094M131.076 836.538v24.093" stroke-width=".9564320700000001"/></g></g><path fill="none" stroke="#000" stroke-width=".956" stroke-linecap="round" d="M140.226 771.446h-18.301v-44.591h18.301zM131.076 895.64V860.63"/><g stroke="#000" stroke-width="1.747"><path d="M73.076 923.572h452.35" fill="none" stroke-linecap="round" transform="matrix(.93564 0 0 .3202 -42.977 726.076)"/></g><path d="M131.068 1021.582l.095-48.37M161.022 958.85l76.373.095" fill="none" stroke="#000" stroke-width=".956" stroke-linecap="round"/><path d="M342.45 959.136l-105.055-61.973" fill="none" stroke="#000" stroke-width=".956"/><path d="M237.395 898.874a1.71 1.71 0 1 1 0-3.422 1.71 1.71 0 0 1 0 3.422z" stroke="#000" stroke-width=".95629116" stroke-linecap="round"/><path d="M237.395 959.136l105.054-61.973" fill="none" stroke="#000" stroke-width=".956"/><path d="M342.45 898.588a1.71 1.71 0 1 1 0-3.421 1.71 1.71 0 0 1 0 3.421z" fill="teal" stroke="teal" stroke-width=".95629116" stroke-linecap="round"/><path d="M25.396 863.676V713.291M25.396 1021.674V871.277M448.769 896.878v-36.124M342.45 895.167V772.072M237.395 895.452v-123.38M237.395 726.228v-12.949M342.45 726.228v-12.949M448.442 726.228v-12.949M448.805 788.89v-16.818" fill="none" stroke="#000" stroke-width=".956" stroke-linecap="round"/><path d="M131.076 714.99a1.71 1.71 0 1 1 0-3.422 1.71 1.71 0 0 1 0 3.422zM342.45 714.99a1.71 1.71 0 1 1 0-3.422 1.71 1.71 0 0 1 0 3.422z" fill="teal" stroke="teal" stroke-width=".95629116" stroke-linecap="round"/><path d="M131.076 726.854V713.28" fill="none" stroke="#000" stroke-width=".956" stroke-linecap="round"/><g ns0:text="$R _{\\rm{1}}$" stroke="#000" stroke-width=".635"><use height="1488.189" width="1052.362" y="134.765" x="223.432" xlink:href="#j" transform="matrix(1.50613 0 0 1.50613 -194.102 552.805)"/><use height="1488.189" width="1052.362" y="136.259" x="230.997" xlink:href="#k" transform="matrix(1.50613 0 0 1.50613 -194.102 552.805)"/></g><g ns0:text="$R _{\\rm{2}}$" stroke="#000" stroke-width=".635"><use height="1488.189" width="1052.362" xlink:href="#l" x="223.432" y="134.765" transform="matrix(1.50613 0 0 1.50613 -87.077 552.805)"/><use height="1488.189" width="1052.362" xlink:href="#m" x="230.997" y="136.259" transform="matrix(1.50613 0 0 1.50613 -87.077 552.805)"/></g><g ns0:text="$R _{\\rm{3}}$" fill="teal" stroke="#000" stroke-width=".635"><use y="134.765" x="223.432" xlink:href="#n" width="1052.362" height="1488.189" transform="matrix(1.50613 0 0 1.50613 17.681 552.7)"/><use y="136.259" x="230.997" xlink:href="#o" width="1052.362" height="1488.189" transform="matrix(1.50613 0 0 1.50613 17.681 552.7)"/></g><g ns0:text="$R _{\\rm{4}}$" fill="teal" stroke="#000" stroke-width=".635"><use y="134.765" x="223.432" xlink:href="#p" width="744.094" height="1052.362" transform="matrix(1.50613 0 0 1.50613 123.596 552.805)"/><use y="136.259" x="230.997" xlink:href="#q" width="744.094" height="1052.362" transform="matrix(1.50613 0 0 1.50613 123.596 552.805)"/></g><g ns0:text="$C _{\\rm{1}}$" stroke="#000" stroke-width=".635"><use height="1052.362" width="744.094" xlink:href="#r" x="223.432" y="134.765" transform="matrix(1.50613 0 0 1.50613 -160.505 663.614)"/><use height="1052.362" width="744.094" xlink:href="#s" x="230.553" y="136.259" transform="matrix(1.50613 0 0 1.50613 -160.505 663.614)"/></g><g ns0:text="$C _{\\rm{2}}$" fill="teal" stroke="#000" stroke-width=".635"><use height="1052.362" width="744.094" y="134.765" x="223.432" xlink:href="#t" transform="matrix(1.50613 0 0 1.50613 50.704 663.614)"/><use height="1052.362" width="744.094" y="136.259" x="230.553" xlink:href="#u" transform="matrix(1.50613 0 0 1.50613 50.704 663.614)"/></g><g ns0:text="$T _{\\rm{2}}$" fill="teal" stroke="#000" stroke-width=".635"><use height="1052.362" width="744.094" xlink:href="#v" x="223.432" y="134.765" transform="matrix(1.50613 0 0 1.50613 124.494 760.12)"/><use height="1052.362" width="744.094" xlink:href="#w" x="229.254" y="136.259" transform="matrix(1.50613 0 0 1.50613 124.494 760.12)"/></g><g ns0:text="$T _{\\rm{1}}$" stroke="#000" stroke-width=".635"><use height="1052.362" width="744.094" y="134.765" x="223.432" xlink:href="#x" transform="matrix(1.50613 0 0 1.50613 -232.352 759.834)"/><use height="1052.362" width="744.094" y="136.259" x="229.254" xlink:href="#y" transform="matrix(1.50613 0 0 1.50613 -232.352 759.834)"/></g><g ns0:text="$D _{\\rm{1}}$" stroke="#000" stroke-width=".635"><use height="1052.362" width="744.094" xlink:href="#z" x="223.432" y="134.765" transform="matrix(1.50613 0 0 1.50613 -190.265 625.104)"/><use height="1052.362" width="744.094" xlink:href="#A" x="231.68" y="136.259" transform="matrix(1.50613 0 0 1.50613 -190.265 625.104)"/></g><g ns0:text="$D _{\\rm{2}}$" fill="teal" stroke="#000" stroke-width=".635"><use height="1052.362" width="744.094" y="134.765" x="223.432" xlink:href="#B" transform="matrix(1.50613 0 0 1.50613 77.361 625.104)"/><use height="1052.362" width="744.094" y="136.259" x="231.68" xlink:href="#C" transform="matrix(1.50613 0 0 1.50613 77.361 625.104)"/></g><path d="M235.684 713.28H25.396" fill="none" stroke="teal" stroke-width="1.913" stroke-linecap="round"/><path d="M25.396 783.07l3.07 5.318 3.069 5.317h-12.28l3.07-5.317z" id="G" fill="teal" stroke="teal" stroke-width=".9562134000000001"/><path d="M25.395 713.909v148.958M25.395 872.08v149.594M342.45 772.79v124.373M342.45 714.99v10.457" fill="none" stroke="teal" stroke-width="1.913" stroke-linecap="round"/><path d="M237.395 714.99a1.71 1.71 0 1 1 0-3.422 1.71 1.71 0 0 1 0 3.422z" fill="teal" stroke="teal" stroke-width=".95629116" stroke-linecap="round"/><path d="M129.36 1021.674H25.395" fill="none" stroke="teal" stroke-width="1.913" stroke-linecap="round"/><path d="M131.068 1023.292a1.71 1.71 0 1 1 0-3.421 1.71 1.71 0 0 1 0 3.421z" fill="teal" stroke="teal" stroke-width=".95629116" stroke-linecap="round"/><path d="M448.769 895.452v-58.914M448.805 811.809v-38.936M448.442 725.428v-12.149M448.682 1021.582V974.25" fill="none" stroke="teal" stroke-width="1.913" stroke-linecap="round"/><use height="1052.362" width="744.094" transform="translate(0 532.937)" xlink:href="#D" stroke-width="3"/><use height="1052.362" width="744.094" transform="rotate(-90 355.254 691.816)" xlink:href="#D" stroke-width="3"/><use height="1052.362" width="744.094" transform="matrix(1 0 0 -1 317.054 1248.916)" xlink:href="#D" stroke-width="3"/><path d="M389.894 897.163H344M447.218 897.163H400.72" fill="none" stroke="teal" stroke-width="1.913" stroke-linecap="round"/><use height="1052.362" width="744.094" transform="matrix(0 -1 -1 0 780.887 922.558)" xlink:href="#D" stroke-width="3"/><use height="1052.362" width="744.094" transform="rotate(-90 466.293 456.265)" xlink:href="#D" stroke-width="3"/><use height="1052.362" width="744.094" transform="rotate(90 -98.283 589.6)" xlink:href="#D" stroke-width="3"/><use height="1052.362" width="744.094" transform="rotate(90 -44.854 643.03)" xlink:href="#D" stroke-width="3"/><use height="1052.362" width="744.094" transform="matrix(1 0 0 -1 423.41 1205.986)" xlink:href="#D" stroke-width="3"/><use height="1052.362" width="744.094" transform="matrix(1 0 0 -1 423.373 1279.935)" xlink:href="#D" stroke-width="3"/><path d="M448.769 943.354v-46.191" fill="none" stroke="teal" stroke-width="1.913" stroke-linecap="round"/><path d="M448.769 898.588a1.71 1.71 0 1 1 0-3.421 1.71 1.71 0 0 1 0 3.421z" fill="teal" stroke="teal" stroke-width=".95629116" stroke-linecap="round"/><use height="1052.362" width="744.094" transform="matrix(1 0 0 -1 423.286 1411.856)" xlink:href="#D" stroke-width="3"/><use height="1052.362" width="744.094" transform="matrix(1 0 0 -1 423.373 1334.198)" xlink:href="#D" stroke-width="3"/><path d="M448.634 1021.798H131.595M340.738 713.28H235.594M448.343 713.28H344.16" fill="none" stroke="teal" stroke-width="1.913" stroke-linecap="round"/><use xlink:href="#G" transform="rotate(90 194.335 882.219)" width="744.094" height="1052.362" stroke-width="3"/><use xlink:href="#G" transform="rotate(90 248.378 936.261)" width="744.094" height="1052.362" stroke-width="3"/><use xlink:href="#G" transform="rotate(-90 274.46 772.733)" width="744.094" height="1052.362"/></g><g fill="none" stroke="#f0f"><path d="M861.606 1087.955h52.527M809.08 1087.955h52.526"/></g><use height="1052.362" width="744.094" transform="rotate(90 428.041 741.477)" xlink:href="#D" stroke-width="3"/><path d="M808.635 338.831H702.522" fill="none" stroke="teal" stroke-width="1.913" stroke-linecap="round"/><use xlink:href="#D" transform="rotate(90 480.885 794.32)" width="744.094" height="1052.362" stroke-width="3"/><path d="M913.853 338.831H808.678" fill="none" stroke="teal" stroke-width="1.913" stroke-linecap="round"/><path d="M756.211 1173.492h105.054" fill="none" stroke="#000"/><path d="M808.738 521.004V398.101M808.775 351.306v-12.685" fill="none" stroke="teal" stroke-width="1.913" stroke-linecap="round"/><use height="1052.362" width="744.094" transform="matrix(1 0 0 -1 783.343 873.492)" xlink:href="#D" stroke-width="3"/><path d="M913.757 521.346V398.443M913.793 351.295v-12.332" fill="none" stroke="teal" stroke-width="1.913" stroke-linecap="round"/><use xlink:href="#D" transform="matrix(1 0 0 -1 888.361 873.834)" width="744.094" height="1052.362" stroke-width="3"/><g stroke="#000" stroke-width="1.749"><path d="M72.927 923.572h452.6" fill="none" stroke-linecap="round" transform="matrix(.9347 0 0 .31977 -42.77 -338.497)"/></g><g fill="teal" stroke="teal"><g stroke-width="3.37" stroke-linecap="round"><path d="M893.302 1257.256v-200.939M869.468 1120.08v73.413" transform="matrix(0 -.31891 .25246 0 -266.649 392.113)"/></g><g stroke-linecap="round" stroke-width=".891"><path d="M5.894 85.872v10.536M.03 91.14h10.536" stroke-width=".9561142800000001"/></g><path d="M5.894 125.775v10.535" stroke-width=".956" stroke-linecap="round"/></g><g fill="none" stroke="#000" stroke-width="2.991"><path d="M448.805 78.715L436.26 56.536h25.09l-12.545 22.179z" stroke-linecap="square" stroke-width=".9564320700000001"/><path d="M461.024 80.09h-24.438" stroke-linecap="round" stroke-width=".9564320700000001"/><path d="M695.75 614.612l45.47-45.47M716.5 626.362l45.47-45.47" stroke-linecap="round" marker-end="url(#i)" transform="rotate(90 411.089 250.573) scale(.31977)"/><g stroke-linecap="round"><path d="M448.805 32.442v24.094M448.769 80.09v24.094" stroke-width=".9564320700000001"/></g></g><path fill="none" stroke-linecap="round" d="M457.537 15.624h-18.815V-30.22h18.815z" stroke="#000" stroke-width=".9564320700000001"/><g stroke="#000" stroke-width="2.991"><g fill="none"><g stroke-width=".794"><path style="marker:none" d="M435.827 100.866c0 5.87-6.346 10.63-14.173 10.63-7.828 0-14.174-4.76-14.174-10.63 0-5.87 6.346-10.63 14.174-10.63 7.827 0 14.173 4.76 14.173 10.63z" transform="matrix(-1.20385 0 0 1.60512 947.803 40.785)" color="#000" stroke-width=".688" stroke-linecap="square" overflow="visible"/><path d="M435.932 202.688H342.45M435.932 211.22v-17.063M436.028 198.324l12.7-8.433v-1.496" stroke-linecap="round" stroke-width=".9558569000000001"/><path d="M435.88 206.901l12.85 8.584v1.496" stroke-linecap="round" stroke-linejoin="round" stroke-width=".9558569000000001"/></g><path d="M241.162 980.596l34.74 23.207" marker-end="url(#i)" transform="matrix(.31977 0 0 .31977 358.767 -106.659)"/></g><path d="M448.721 187.877l.095-46.877M448.634 265.35l.095-48.369" fill="none" stroke-linecap="round" stroke-width=".9564320700000001"/></g><path d="M448.769 142.14a1.71 1.71 0 1 1 0-3.421 1.71 1.71 0 0 1 0 3.422z" stroke="#000" stroke-width=".95629116" stroke-linecap="round"/><g stroke="#000" stroke-width="3.326"><g stroke-width=".739" fill="none" stroke-linecap="round"><path d="M400.324 117.508v45.844" stroke-width=".9561329799999999"/><path d="M391.155 117.508v45.844" stroke="teal" stroke-width=".9561329799999999"/><path d="M400.354 140.43h48.415M391.125 140.43H342.45" stroke-width=".9561329799999999"/></g></g><path d="M342.45 142.14a1.71 1.71 0 1 1 0-3.421 1.71 1.71 0 0 1 0 3.422z" fill="teal" stroke="teal" stroke-width=".95629116" stroke-linecap="round"/><path fill="none" stroke-linecap="round" d="M351.857 15.624h-18.815V-30.22h18.815z" stroke="teal" stroke-width=".9564320700000001"/><path d="M131.076 142.426a1.71 1.71 0 1 1 0-3.422 1.71 1.71 0 0 1 0 3.422z" stroke="#000" stroke-width=".95629116" stroke-linecap="round"/><path fill="none" stroke-linecap="round" d="M246.803 15.624h-18.815V-30.22h18.815z" stroke="teal" stroke-width=".9564320700000001"/><g stroke="#000" stroke-width="2.991"><g fill="none"><g stroke-width=".794"><path transform="matrix(1.20385 0 0 1.60512 -367.912 40.5)" d="M435.827 100.866c0 5.87-6.346 10.63-14.173 10.63-7.828 0-14.174-4.76-14.174-10.63 0-5.87 6.346-10.63 14.174-10.63 7.827 0 14.173 4.76 14.173 10.63z" style="marker:none" color="#000" stroke-width=".688" stroke-linecap="square" overflow="visible"/><path d="M143.96 202.403h17.062M143.96 210.934v-17.062M143.863 198.039l-12.7-8.433v-1.496" stroke-linecap="round" stroke-width=".9558569000000001"/><path d="M144.011 206.616l-12.848 8.584v8.53" stroke-linecap="round" stroke-linejoin="round" stroke-width=".9558569000000001"/></g><path d="M241.162 980.596l34.74 23.207" marker-end="url(#i)" transform="matrix(-.31977 0 0 .31977 221.124 -106.944)"/></g><path d="M131.17 187.591l-.095-46.876" fill="none" stroke-linecap="round" stroke-width=".9564320700000001"/></g><g stroke="teal" stroke-width="3.326"><g stroke-width=".739" stroke-linecap="round"><path d="M179.52 117.793v45.844" stroke="#000" stroke-width=".9561329799999999"/><path d="M188.69 117.793v45.844" fill="none" stroke-width=".9561329799999999"/><path d="M179.49 140.715h-48.414" fill="none" stroke="#000" stroke-width=".9561329799999999"/><path d="M188.719 140.715h48.676" fill="none" stroke-width=".9561329799999999"/></g></g><path d="M131.076 32.245V14.998" fill="none" stroke="#000" stroke-width=".956" stroke-linecap="round"/><g fill="none" stroke="#000" stroke-width="2.991"><path d="M131.04 78.715l12.544-22.179h-25.09l12.545 22.179z" stroke-linecap="square" stroke-width=".9564320700000001"/><path d="M118.82 80.09h24.438" stroke-linecap="round" stroke-width=".9564320700000001"/><path d="M695.75 614.612l45.47-45.47M716.5 626.362l45.47-45.47" stroke-linecap="round" marker-end="url(#i)" transform="matrix(0 .31977 .31977 0 -81.815 -160.513)"/><g stroke-linecap="round"><path d="M131.04 32.442v24.094M131.076 80.09v24.094" stroke-width=".9564320700000001"/></g></g><path fill="none" stroke="#000" stroke-width=".956" stroke-linecap="round" d="M140.226 14.998h-18.301v-44.591h18.301zM131.076 139.191v-35.007M131.068 265.134l.095-48.37M161.022 202.403l76.373.095"/><path d="M342.45 202.688l-105.055-61.973" fill="none" stroke="#000" stroke-width=".956"/><path d="M237.395 142.426a1.71 1.71 0 1 1 0-3.422 1.71 1.71 0 0 1 0 3.422z" fill="teal" stroke="teal" stroke-width=".95629116" stroke-linecap="round"/><path d="M237.395 202.688l105.054-61.973" fill="none" stroke="#000" stroke-width=".956"/><path d="M25.396 107.228V-43.157M25.396 265.226V114.83M448.769 140.43v-36.123M342.45 138.719V15.624M237.395 139.004V15.624M237.395-30.22v-12.949M342.45-30.22v-12.949M448.442-30.22v-12.949M448.805 32.442V15.624" fill="none" stroke="#000" stroke-width=".956" stroke-linecap="round"/><path d="M131.076-41.458a1.71 1.71 0 1 1 0-3.421 1.71 1.71 0 0 1 0 3.421z" fill="teal" stroke="teal" stroke-width=".95629116" stroke-linecap="round"/><path d="M342.45-41.458a1.71 1.71 0 1 1 0-3.421 1.71 1.71 0 0 1 0 3.421z" stroke="#000" stroke-width=".95629116" stroke-linecap="round"/><path d="M131.076-29.594v-13.575" fill="none" stroke="#000" stroke-width=".956" stroke-linecap="round"/><g ns0:text="$R _{\\rm{1}}$" stroke="#000" stroke-width=".635"><use xlink:href="#j" x="223.432" y="134.765" width="1052.362" height="1488.189" transform="matrix(1.50613 0 0 1.50613 -194.102 -203.642)"/><use xlink:href="#k" x="230.997" y="136.259" width="1052.362" height="1488.189" transform="matrix(1.50613 0 0 1.50613 -194.102 -203.642)"/></g><g ns0:text="$R _{\\rm{2}}$" fill="teal" stroke="#000" stroke-width=".635"><use y="134.765" x="223.432" xlink:href="#l" width="1052.362" height="1488.189" transform="matrix(1.50613 0 0 1.50613 -87.077 -203.642)"/><use y="136.259" x="230.997" xlink:href="#m" width="1052.362" height="1488.189" transform="matrix(1.50613 0 0 1.50613 -87.077 -203.642)"/></g><g ns0:text="$R _{\\rm{3}}$" fill="teal" stroke="#000" stroke-width=".635"><use height="1488.189" width="1052.362" xlink:href="#n" x="223.432" y="134.765" transform="matrix(1.50613 0 0 1.50613 17.681 -203.748)"/><use height="1488.189" width="1052.362" xlink:href="#o" x="230.997" y="136.259" transform="matrix(1.50613 0 0 1.50613 17.681 -203.748)"/></g><g ns0:text="$R _{\\rm{4}}$" stroke="#000" stroke-width=".635"><use height="1052.362" width="744.094" xlink:href="#p" x="223.432" y="134.765" transform="matrix(1.50613 0 0 1.50613 123.596 -203.642)"/><use height="1052.362" width="744.094" xlink:href="#q" x="230.997" y="136.259" transform="matrix(1.50613 0 0 1.50613 123.596 -203.642)"/></g><g ns0:text="$C _{\\rm{1}}$" stroke="#000" stroke-width=".635"><use y="134.765" x="223.432" xlink:href="#r" width="744.094" height="1052.362" transform="matrix(1.50613 0 0 1.50613 -160.505 -92.834)"/><use y="136.259" x="230.553" xlink:href="#s" width="744.094" height="1052.362" transform="matrix(1.50613 0 0 1.50613 -160.505 -92.834)"/></g><g ns0:text="$C _{\\rm{2}}$" stroke="#000" stroke-width=".635"><use xlink:href="#t" x="223.432" y="134.765" width="744.094" height="1052.362" transform="matrix(1.50613 0 0 1.50613 50.704 -92.834)"/><use xlink:href="#u" x="230.553" y="136.259" width="744.094" height="1052.362" transform="matrix(1.50613 0 0 1.50613 50.704 -92.834)"/></g><g ns0:text="$T _{\\rm{2}}$" stroke="#000" stroke-width=".635"><use y="134.765" x="223.432" xlink:href="#v" width="744.094" height="1052.362" transform="matrix(1.50613 0 0 1.50613 124.494 3.672)"/><use y="136.259" x="229.254" xlink:href="#w" width="744.094" height="1052.362" transform="matrix(1.50613 0 0 1.50613 124.494 3.672)"/></g><g ns0:text="$T _{\\rm{1}}$" stroke="#000" stroke-width=".635"><use xlink:href="#x" x="223.432" y="134.765" width="744.094" height="1052.362" transform="matrix(1.50613 0 0 1.50613 -232.352 3.387)"/><use xlink:href="#y" x="229.254" y="136.259" width="744.094" height="1052.362" transform="matrix(1.50613 0 0 1.50613 -232.352 3.387)"/></g><g ns0:text="$D _{\\rm{1}}$" stroke="#000" stroke-width=".635"><use y="134.765" x="223.432" xlink:href="#z" width="744.094" height="1052.362" transform="matrix(1.50613 0 0 1.50613 -190.265 -131.343)"/><use y="136.259" x="231.68" xlink:href="#A" width="744.094" height="1052.362" transform="matrix(1.50613 0 0 1.50613 -190.265 -131.343)"/></g><g ns0:text="$D _{\\rm{2}}$" stroke="#000" stroke-width=".635"><use xlink:href="#B" x="223.432" y="134.765" width="744.094" height="1052.362" transform="matrix(1.50613 0 0 1.50613 77.361 -131.343)"/><use xlink:href="#C" x="231.68" y="136.259" width="744.094" height="1052.362" transform="matrix(1.50613 0 0 1.50613 77.361 -131.343)"/></g><path d="M235.684-43.169H25.396" fill="none" stroke="teal" stroke-width="1.913" stroke-linecap="round"/><path d="M25.396 26.623l3.07 5.317 3.069 5.317h-12.28l3.07-5.317z" fill="teal" stroke="teal" stroke-width=".9562134000000001"/><path d="M25.395-42.539v148.958M237.395 16.342v124.373M237.395-41.458V-31" fill="none" stroke="teal" stroke-width="1.913" stroke-linecap="round"/><path d="M237.395-41.458a1.71 1.71 0 1 1 0-3.421 1.71 1.71 0 0 1 0 3.421z" fill="teal" stroke="teal" stroke-width=".95629116" stroke-linecap="round"/><g transform="translate(22.581 1.262)"><g stroke="#000" stroke-width="1.749"><path d="M72.927 923.572h452.6" fill="none" stroke-linecap="round" transform="matrix(.9347 0 0 .31977 -42.77 43.503)"/></g><g fill="teal" stroke="teal" stroke-width="2.999"><g stroke-width="3.37" stroke-linecap="round"><path d="M893.302 1257.256v-200.939M869.468 1120.08v73.413" transform="matrix(0 -.31891 .25246 0 -266.649 774.113)"/></g><g stroke-linecap="round" stroke-width=".891"><path d="M5.894 467.872v10.536M.03 473.14h10.536" stroke-width=".9561142800000001"/></g><path d="M5.894 507.775v10.535" stroke-linecap="round" stroke-width=".9564110900000001"/></g><g fill="none" stroke="#000" stroke-width="2.991"><path d="M448.805 460.715l-12.545-22.18h25.09l-12.545 22.18z" stroke-linecap="square" stroke-width=".9564320700000001"/><path d="M461.024 462.09h-24.438" stroke-linecap="round" stroke-width=".9564320700000001"/><path d="M695.75 614.612l45.47-45.47M716.5 626.362l45.47-45.47" stroke-linecap="round" marker-end="url(#i)" transform="rotate(90 220.089 441.574) scale(.31977)"/><g stroke-linecap="round"><path d="M448.805 414.442v24.094M448.769 462.09v24.094" stroke-width=".9564320700000001"/></g></g><path fill="none" stroke-linecap="round" d="M457.537 397.624h-18.815V351.78h18.815z" stroke="#000" stroke-width=".9564320700000001"/><g stroke="#000" stroke-width="2.991"><g fill="none"><g stroke-width=".794"><path style="marker:none" d="M435.827 100.866c0 5.87-6.346 10.63-14.173 10.63-7.828 0-14.174-4.76-14.174-10.63 0-5.87 6.346-10.63 14.174-10.63 7.827 0 14.173 4.76 14.173 10.63z" transform="matrix(-1.20385 0 0 1.60512 947.803 422.785)" color="#000" stroke-width=".688" stroke-linecap="square" overflow="visible"/><path d="M435.932 584.688H342.45M435.932 593.22v-17.063M436.028 580.324l12.7-8.433v-1.496" stroke-linecap="round" stroke-width=".9558569000000001"/><path d="M435.88 588.901l12.85 8.584v1.496" stroke-linecap="round" stroke-linejoin="round" stroke-width=".9558569000000001"/></g><path d="M241.162 980.596l34.74 23.207" marker-end="url(#i)" transform="matrix(.31977 0 0 .31977 358.767 275.341)"/></g><path d="M448.721 569.877l.095-46.877M448.634 647.35l.095-48.369" fill="none" stroke-linecap="round" stroke-width=".9564320700000001"/></g><path d="M448.769 524.14a1.71 1.71 0 1 1 0-3.421 1.71 1.71 0 0 1 0 3.422z" stroke="#000" stroke-width=".95629116" stroke-linecap="round"/><g stroke="#000" stroke-width="3.326"><g stroke-width=".739" fill="none" stroke-linecap="round"><path d="M400.324 499.508v45.844M391.155 499.508v45.844M400.354 522.43h48.415M391.125 522.43H342.45" stroke-width=".9561329799999999"/></g></g><path d="M342.45 524.14a1.71 1.71 0 1 1 0-3.421 1.71 1.71 0 0 1 0 3.422z" fill="teal" stroke="teal" stroke-width=".95629116" stroke-linecap="round"/><path fill="none" stroke-linecap="round" d="M351.857 397.624h-18.815V351.78h18.815z" stroke="teal" stroke-width=".9564320700000001"/><path d="M131.076 524.426a1.71 1.71 0 1 1 0-3.422 1.71 1.71 0 0 1 0 3.422z" fill="teal" stroke="teal" stroke-width=".95629116" stroke-linecap="round"/><path fill="none" stroke-linecap="round" d="M246.803 397.624h-18.815V351.78h18.815z" stroke="teal" stroke-width=".9564320700000001"/><g stroke="teal" stroke-width="2.991"><g fill="none"><g stroke-width=".794"><path transform="matrix(1.20385 0 0 1.60512 -367.912 422.5)" d="M435.827 100.866c0 5.87-6.346 10.63-14.173 10.63-7.828 0-14.174-4.76-14.174-10.63 0-5.87 6.346-10.63 14.174-10.63 7.827 0 14.173 4.76 14.173 10.63z" style="marker:none" color="#000" stroke-width=".688" stroke-linecap="square" overflow="visible"/><path d="M143.96 584.403h17.062M143.96 592.934v-17.062M143.863 580.039l-12.7-8.433v-1.496" stroke-linecap="round" stroke-width=".9558569000000001"/><path d="M144.011 588.616l-12.848 8.584v8.53" stroke-linecap="round" stroke-linejoin="round" stroke-width=".9558569000000001"/></g><path d="M241.162 980.596l34.74 23.207" marker-end="url(#i)" transform="matrix(-.31977 0 0 .31977 221.124 275.056)"/></g><path d="M131.17 569.591l-.095-46.876" fill="none" stroke-linecap="round" stroke-width=".9564320700000001"/></g><g stroke="teal" stroke-width="3.326"><g stroke-width=".739" fill="none" stroke-linecap="round"><path d="M179.52 499.793v45.844M188.69 499.793v45.844M179.49 522.715h-48.414M188.719 522.715h48.676" stroke-width=".9561329799999999"/></g></g><path d="M131.076 414.245v-17.247" fill="none" stroke="#000" stroke-width=".956" stroke-linecap="round"/><g fill="none" stroke="teal" stroke-width="2.991"><path d="M131.04 460.715l12.544-22.18h-25.09l12.545 22.18z" stroke-linecap="square" stroke-width=".9564320700000001"/><path d="M118.82 462.09h24.438" stroke-linecap="round" stroke-width=".9564320700000001"/><path d="M695.75 614.612l45.47-45.47M716.5 626.362l45.47-45.47" stroke-linecap="round" marker-end="url(#i)" transform="matrix(0 .31977 .31977 0 -81.815 221.487)"/><g stroke-linecap="round"><path d="M131.04 414.442v24.094M131.076 462.09v24.094" stroke-width=".9564320700000001"/></g></g><path fill="none" stroke="teal" stroke-width=".956" stroke-linecap="round" d="M140.226 396.998h-18.301v-44.591h18.301z"/><path d="M131.076 521.191v-35.007" fill="none" stroke="#000" stroke-width=".956" stroke-linecap="round"/><g stroke="#000" stroke-width="1.747"><path d="M73.076 923.572h452.35" fill="none" stroke-linecap="round" transform="matrix(.93564 0 0 .3202 -42.977 351.628)"/></g><path d="M131.068 647.134l.095-48.37M161.022 584.403l76.373.095" fill="none" stroke="#000" stroke-width=".956" stroke-linecap="round"/><path d="M342.45 584.688l-105.055-61.973" fill="none" stroke="#000" stroke-width=".956"/><path d="M237.395 524.426a1.71 1.71 0 1 1 0-3.422 1.71 1.71 0 0 1 0 3.422z" fill="teal" stroke="teal" stroke-width=".95629116" stroke-linecap="round"/><path d="M237.395 584.688l105.054-61.973" fill="none" stroke="#000" stroke-width=".956"/><path d="M25.396 489.228V338.843M25.396 647.226V496.83M448.769 522.43v-36.123M342.45 520.719V397.624M237.395 521.004v-123.38M237.395 351.78v-12.949M342.45 351.78v-12.949M448.442 351.78v-12.949M448.805 414.442v-16.818" fill="none" stroke="#000" stroke-width=".956" stroke-linecap="round"/><path d="M131.076 340.542a1.71 1.71 0 1 1 0-3.421 1.71 1.71 0 0 1 0 3.421z" fill="teal" stroke="teal" stroke-width=".95629116" stroke-linecap="round"/><path d="M342.45 340.542a1.71 1.71 0 1 1 0-3.421 1.71 1.71 0 0 1 0 3.421z" stroke="#000" stroke-width=".95629116" stroke-linecap="round"/><path d="M131.076 352.406v-13.575" fill="none" stroke="#000" stroke-width=".956" stroke-linecap="round"/><g ns0:text="$R _{\\rm{1}}$" transform="matrix(1.50613 0 0 1.50613 -194.102 178.358)" fill="teal" stroke="#000" stroke-width=".635"><defs><symbol overflow="visible" id="j"><path d="M3.734-6.125c.063-.234.094-.328.282-.36.093-.015.406-.015.609-.015.703 0 1.813 0 1.813.984 0 .344-.157 1.032-.547 1.422-.266.25-.782.578-1.688.578h-1.11zm1.438 2.734c1.016-.218 2.187-.921 2.187-1.921 0-.86-.89-1.5-2.203-1.5H2.328c-.203 0-.297 0-.297.203 0 .109.094.109.281.109.016 0 .204 0 .376.016.187.03.265.03.265.171 0 .032 0 .063-.031.188L1.578-.781c-.094.39-.11.469-.906.469-.172 0-.266 0-.266.203C.406 0 .531 0 .546 0c.282 0 .985-.031 1.25-.031.282 0 1 .031 1.282.031.078 0 .188 0 .188-.203 0-.11-.079-.11-.282-.11-.359 0-.64 0-.64-.171 0-.063.015-.11.031-.172l.656-2.64H4.22c.906 0 1.078.562 1.078.905 0 .141-.078.454-.14.688-.063.281-.157.64-.157.844C5 .219 6.203.219 6.328.219c.844 0 1.203-1 1.203-1.14 0-.126-.11-.126-.125-.126-.093 0-.11.063-.125.14-.25.735-.687.907-.906.907-.328 0-.406-.219-.406-.61 0-.312.062-.812.11-1.14.015-.14.03-.328.03-.469 0-.765-.671-1.078-.937-1.172zm0 0" stroke="none"/></symbol><symbol overflow="visible" id="k"><path d="M2.328-4.438c0-.187 0-.187-.203-.187-.453.438-1.078.438-1.36.438v.25c.157 0 .626 0 1-.188v3.547c0 .234 0 .328-.687.328H.812V0c.125 0 .985-.031 1.235-.031.219 0 1.094.031 1.25.031v-.25H3.03c-.703 0-.703-.094-.703-.328zm0 0" stroke="none"/></symbol></defs><use xlink:href="#j" x="223.432" y="134.765" width="1052.362" height="1488.189"/><use xlink:href="#k" x="230.997" y="136.259" width="1052.362" height="1488.189"/></g><g transform="matrix(1.50613 0 0 1.50613 -87.077 178.358)" ns0:text="$R _{\\rm{2}}$" fill="teal" stroke="#000" stroke-width=".635"><defs><symbol id="l" overflow="visible"><path d="M3.734-6.125c.063-.234.094-.328.282-.36.093-.015.406-.015.609-.015.703 0 1.813 0 1.813.984 0 .344-.157 1.032-.547 1.422-.266.25-.782.578-1.688.578h-1.11zm1.438 2.734c1.016-.218 2.187-.921 2.187-1.921 0-.86-.89-1.5-2.203-1.5H2.328c-.203 0-.297 0-.297.203 0 .109.094.109.281.109.016 0 .204 0 .376.016.187.03.265.03.265.171 0 .032 0 .063-.031.188L1.578-.781c-.094.39-.11.469-.906.469-.172 0-.266 0-.266.203C.406 0 .531 0 .546 0c.282 0 .985-.031 1.25-.031.282 0 1 .031 1.282.031.078 0 .188 0 .188-.203 0-.11-.079-.11-.282-.11-.359 0-.64 0-.64-.171 0-.063.015-.11.031-.172l.656-2.64H4.22c.906 0 1.078.562 1.078.905 0 .141-.078.454-.14.688-.063.281-.157.64-.157.844C5 .219 6.203.219 6.328.219c.844 0 1.203-1 1.203-1.14 0-.126-.11-.126-.125-.126-.093 0-.11.063-.125.14-.25.735-.687.907-.906.907-.328 0-.406-.219-.406-.61 0-.312.062-.812.11-1.14.015-.14.03-.328.03-.469 0-.765-.671-1.078-.937-1.172zm0 0" stroke="none"/></symbol><symbol id="m" overflow="visible"><path d="M3.516-1.266H3.28c-.015.157-.094.563-.187.625-.047.047-.578.047-.688.047H1.125c.734-.64.984-.844 1.39-1.172.516-.406 1-.843 1-1.5 0-.843-.734-1.359-1.624-1.359-.86 0-1.454.61-1.454 1.25 0 .344.297.39.376.39.156 0 .359-.124.359-.374 0-.125-.047-.375-.406-.375.218-.485.687-.641 1.015-.641.703 0 1.063.547 1.063 1.11 0 .609-.438 1.078-.656 1.328L.516-.266C.437-.203.437-.187.437 0h2.876zm0 0" stroke="none"/></symbol></defs><use y="134.765" x="223.432" xlink:href="#l" width="1052.362" height="1488.189"/><use y="136.259" x="230.997" xlink:href="#m" width="1052.362" height="1488.189"/></g><g ns0:text="$R _{\\rm{3}}$" transform="matrix(1.50613 0 0 1.50613 17.681 178.252)" fill="teal" stroke="#000" stroke-width=".635"><defs><symbol overflow="visible" id="n"><path d="M3.734-6.125c.063-.234.094-.328.282-.36.093-.015.406-.015.609-.015.703 0 1.813 0 1.813.984 0 .344-.157 1.032-.547 1.422-.266.25-.782.578-1.688.578h-1.11zm1.438 2.734c1.016-.218 2.187-.921 2.187-1.921 0-.86-.89-1.5-2.203-1.5H2.328c-.203 0-.297 0-.297.203 0 .109.094.109.281.109.016 0 .204 0 .376.016.187.03.265.03.265.171 0 .032 0 .063-.031.188L1.578-.781c-.094.39-.11.469-.906.469-.172 0-.266 0-.266.203C.406 0 .531 0 .546 0c.282 0 .985-.031 1.25-.031.282 0 1 .031 1.282.031.078 0 .188 0 .188-.203 0-.11-.079-.11-.282-.11-.359 0-.64 0-.64-.171 0-.063.015-.11.031-.172l.656-2.64H4.22c.906 0 1.078.562 1.078.905 0 .141-.078.454-.14.688-.063.281-.157.64-.157.844C5 .219 6.203.219 6.328.219c.844 0 1.203-1 1.203-1.14 0-.126-.11-.126-.125-.126-.093 0-.11.063-.125.14-.25.735-.687.907-.906.907-.328 0-.406-.219-.406-.61 0-.312.062-.812.11-1.14.015-.14.03-.328.03-.469 0-.765-.671-1.078-.937-1.172zm0 0" stroke="none"/></symbol><symbol overflow="visible" id="o"><path d="M1.906-2.328c.547 0 .938.375.938 1.125 0 .86-.516 1.125-.906 1.125-.282 0-.907-.078-1.188-.5.328 0 .406-.235.406-.39 0-.22-.172-.376-.39-.376a.38.38 0 0 0-.391.407C.375-.281 1.094.14 1.938.14c.968 0 1.64-.657 1.64-1.344 0-.547-.437-1.094-1.203-1.25.719-.266.984-.781.984-1.219 0-.547-.625-.953-1.406-.953-.766 0-1.36.375-1.36.938 0 .234.157.359.36.359.219 0 .36-.156.36-.344 0-.203-.141-.36-.36-.375.25-.297.719-.375.985-.375.312 0 .75.156.75.75 0 .297-.094.625-.282.828-.219.266-.422.281-.765.313-.172.015-.188.015-.22.015-.015 0-.077.016-.077.094 0 .094.062.094.187.094zm0 0" stroke="none"/></symbol></defs><use height="1488.189" width="1052.362" xlink:href="#n" x="223.432" y="134.765"/><use height="1488.189" width="1052.362" xlink:href="#o" x="230.997" y="136.259"/></g><g ns0:text="$R _{\\rm{4}}$" transform="matrix(1.50613 0 0 1.50613 123.596 178.358)" stroke="#000" stroke-width=".635"><defs><symbol overflow="visible" id="p"><path d="M3.734-6.125c.063-.234.094-.328.282-.36.093-.015.406-.015.609-.015.703 0 1.813 0 1.813.984 0 .344-.157 1.032-.547 1.422-.266.25-.782.578-1.688.578h-1.11zm1.438 2.734c1.016-.218 2.187-.921 2.187-1.921 0-.86-.89-1.5-2.203-1.5H2.328c-.203 0-.297 0-.297.203 0 .109.094.109.281.109.016 0 .204 0 .376.016.187.03.265.03.265.171 0 .032 0 .063-.031.188L1.578-.781c-.094.39-.11.469-.906.469-.172 0-.266 0-.266.203C.406 0 .531 0 .546 0c.282 0 .985-.031 1.25-.031.282 0 1 .031 1.282.031.078 0 .188 0 .188-.203 0-.11-.079-.11-.282-.11-.359 0-.64 0-.64-.171 0-.063.015-.11.031-.172l.656-2.64H4.22c.906 0 1.078.562 1.078.905 0 .141-.078.454-.14.688-.063.281-.157.64-.157.844C5 .219 6.203.219 6.328.219c.844 0 1.203-1 1.203-1.14 0-.126-.11-.126-.125-.126-.093 0-.11.063-.125.14-.25.735-.687.907-.906.907-.328 0-.406-.219-.406-.61 0-.312.062-.812.11-1.14.015-.14.03-.328.03-.469 0-.765-.671-1.078-.937-1.172zm0 0" stroke="none"/></symbol><symbol overflow="visible" id="q"><path d="M3.688-1.14v-.25h-.782V-4.5c0-.14 0-.203-.14-.203-.094 0-.125 0-.188.11L.266-1.392v.25h2.062v.563c0 .25 0 .328-.578.328h-.188V0c.36-.016.797-.031 1.047-.031.266 0 .704.015 1.063.031v-.25h-.188c-.578 0-.578-.078-.578-.328v-.563zM2.375-3.939v2.547H.531zm0 0" stroke="none"/></symbol></defs><use height="1052.362" width="744.094" xlink:href="#p" x="223.432" y="134.765"/><use height="1052.362" width="744.094" xlink:href="#q" x="230.997" y="136.259"/></g><g transform="matrix(1.50613 0 0 1.50613 -160.505 289.166)" ns0:text="$C _{\\rm{1}}$" fill="teal" stroke="#000" stroke-width=".635"><defs><symbol id="r" overflow="visible"><path d="M7.578-6.922c0-.031-.016-.11-.11-.11-.03 0-.046.016-.155.126l-.688.765c-.094-.14-.547-.89-1.656-.89C2.734-7.031.5-4.828.5-2.516.5-.875 1.672.22 3.203.22c.86 0 1.625-.39 2.156-.86.922-.812 1.094-1.718 1.094-1.75 0-.109-.11-.109-.125-.109-.062 0-.11.031-.125.11-.094.28-.328 1-1.016 1.578-.687.546-1.312.718-1.828.718-.89 0-1.953-.515-1.953-2.062 0-.578.203-2.188 1.203-3.36.61-.703 1.547-1.203 2.438-1.203 1.016 0 1.61.766 1.61 1.922 0 .406-.032.406-.032.516 0 .093.11.093.14.093.126 0 .126-.015.188-.203zm0 0" stroke="none"/></symbol><symbol id="s" overflow="visible"><path d="M2.328-4.438c0-.187 0-.187-.203-.187-.453.438-1.078.438-1.36.438v.25c.157 0 .626 0 1-.188v3.547c0 .234 0 .328-.687.328H.812V0c.125 0 .985-.031 1.235-.031.219 0 1.094.031 1.25.031v-.25H3.03c-.703 0-.703-.094-.703-.328zm0 0" stroke="none"/></symbol></defs><use y="134.765" x="223.432" xlink:href="#r" width="744.094" height="1052.362"/><use y="136.259" x="230.553" xlink:href="#s" width="744.094" height="1052.362"/></g><g ns0:text="$C _{\\rm{2}}$" transform="matrix(1.50613 0 0 1.50613 50.704 289.166)" stroke="#000" stroke-width=".635"><defs><symbol overflow="visible" id="t"><path d="M7.578-6.922c0-.031-.016-.11-.11-.11-.03 0-.046.016-.155.126l-.688.765c-.094-.14-.547-.89-1.656-.89C2.734-7.031.5-4.828.5-2.516.5-.875 1.672.22 3.203.22c.86 0 1.625-.39 2.156-.86.922-.812 1.094-1.718 1.094-1.75 0-.109-.11-.109-.125-.109-.062 0-.11.031-.125.11-.094.28-.328 1-1.016 1.578-.687.546-1.312.718-1.828.718-.89 0-1.953-.515-1.953-2.062 0-.578.203-2.188 1.203-3.36.61-.703 1.547-1.203 2.438-1.203 1.016 0 1.61.766 1.61 1.922 0 .406-.032.406-.032.516 0 .093.11.093.14.093.126 0 .126-.015.188-.203zm0 0" stroke="none"/></symbol><symbol overflow="visible" id="u"><path d="M3.516-1.266H3.28c-.015.157-.094.563-.187.625-.047.047-.578.047-.688.047H1.125c.734-.64.984-.844 1.39-1.172.516-.406 1-.843 1-1.5 0-.843-.734-1.359-1.624-1.359-.86 0-1.454.61-1.454 1.25 0 .344.297.39.376.39.156 0 .359-.124.359-.374 0-.125-.047-.375-.406-.375.218-.485.687-.641 1.015-.641.703 0 1.063.547 1.063 1.11 0 .609-.438 1.078-.656 1.328L.516-.266C.437-.203.437-.187.437 0h2.876zm0 0" stroke="none"/></symbol></defs><use xlink:href="#t" x="223.432" y="134.765" width="744.094" height="1052.362"/><use xlink:href="#u" x="230.553" y="136.259" width="744.094" height="1052.362"/></g><g transform="matrix(1.50613 0 0 1.50613 124.494 385.672)" ns0:text="$T _{\\rm{2}}$" stroke="#000" stroke-width=".635"><defs><symbol id="v" overflow="visible"><path d="M4.25-6.047c.078-.281.11-.344.234-.375.094-.016.422-.016.625-.016 1.016 0 1.454.032 1.454.813 0 .156-.032.547-.079.797 0 .047-.03.156-.03.187 0 .063.03.141.124.141.11 0 .125-.078.156-.234L7-6.47c.016-.047.016-.14.016-.172 0-.109-.094-.109-.266-.109H1.219c-.235 0-.25.016-.328.203l-.594 1.75c0 .016-.063.156-.063.188 0 .046.063.109.125.109.094 0 .11-.063.172-.219.531-1.547.797-1.718 2.266-1.718h.39c.282 0 .282.03.282.125a.775.775 0 0 1-.047.203L2.094-.781C2-.421 1.969-.312.906-.312c-.36 0-.422 0-.422.187C.484 0 .594 0 .656 0c.266 0 .547-.016.813-.016.281 0 .578-.015.86-.015.28 0 .546.015.827.015.281 0 .578.016.86.016.093 0 .218 0 .218-.203 0-.11-.078-.11-.343-.11-.235 0-.375 0-.625-.015-.297-.031-.375-.063-.375-.219 0-.015 0-.062.046-.203zm0 0" stroke="none"/></symbol><symbol id="w" overflow="visible"><path d="M3.516-1.266H3.28c-.015.157-.094.563-.187.625-.047.047-.578.047-.688.047H1.125c.734-.64.984-.844 1.39-1.172.516-.406 1-.843 1-1.5 0-.843-.734-1.359-1.624-1.359-.86 0-1.454.61-1.454 1.25 0 .344.297.39.376.39.156 0 .359-.124.359-.374 0-.125-.047-.375-.406-.375.218-.485.687-.641 1.015-.641.703 0 1.063.547 1.063 1.11 0 .609-.438 1.078-.656 1.328L.516-.266C.437-.203.437-.187.437 0h2.876zm0 0" stroke="none"/></symbol></defs><use y="134.765" x="223.432" xlink:href="#v" width="744.094" height="1052.362"/><use y="136.259" x="229.254" xlink:href="#w" width="744.094" height="1052.362"/></g><g ns0:text="$T _{\\rm{1}}$" transform="matrix(1.50613 0 0 1.50613 -232.352 385.387)" fill="teal" stroke="#000" stroke-width=".635"><defs><symbol overflow="visible" id="x"><path d="M4.25-6.047c.078-.281.11-.344.234-.375.094-.016.422-.016.625-.016 1.016 0 1.454.032 1.454.813 0 .156-.032.547-.079.797 0 .047-.03.156-.03.187 0 .063.03.141.124.141.11 0 .125-.078.156-.234L7-6.47c.016-.047.016-.14.016-.172 0-.109-.094-.109-.266-.109H1.219c-.235 0-.25.016-.328.203l-.594 1.75c0 .016-.063.156-.063.188 0 .046.063.109.125.109.094 0 .11-.063.172-.219.531-1.547.797-1.718 2.266-1.718h.39c.282 0 .282.03.282.125a.775.775 0 0 1-.047.203L2.094-.781C2-.421 1.969-.312.906-.312c-.36 0-.422 0-.422.187C.484 0 .594 0 .656 0c.266 0 .547-.016.813-.016.281 0 .578-.015.86-.015.28 0 .546.015.827.015.281 0 .578.016.86.016.093 0 .218 0 .218-.203 0-.11-.078-.11-.343-.11-.235 0-.375 0-.625-.015-.297-.031-.375-.063-.375-.219 0-.015 0-.062.046-.203zm0 0" stroke="none"/></symbol><symbol overflow="visible" id="y"><path d="M2.328-4.438c0-.187 0-.187-.203-.187-.453.438-1.078.438-1.36.438v.25c.157 0 .626 0 1-.188v3.547c0 .234 0 .328-.687.328H.812V0c.125 0 .985-.031 1.235-.031.219 0 1.094.031 1.25.031v-.25H3.03c-.703 0-.703-.094-.703-.328zm0 0" stroke="none"/></symbol></defs><use xlink:href="#x" x="223.432" y="134.765" width="744.094" height="1052.362"/><use xlink:href="#y" x="229.254" y="136.259" width="744.094" height="1052.362"/></g><g transform="matrix(1.50613 0 0 1.50613 -190.265 250.657)" ns0:text="$D _{\\rm{1}}$" fill="teal" stroke="#000" stroke-width=".635"><defs><symbol id="z" overflow="visible"><path d="M1.578-.781c-.094.39-.11.469-.906.469-.156 0-.266 0-.266.187C.406 0 .484 0 .672 0h3.312c2.063 0 4.032-2.11 4.032-4.281 0-1.407-.844-2.532-2.344-2.532H2.328c-.187 0-.297 0-.297.188 0 .125.078.125.281.125.126 0 .313.016.422.016.172.03.22.046.22.171 0 .032 0 .063-.032.188zm2.156-5.344c.094-.344.11-.375.547-.375h1.063c.968 0 1.797.531 1.797 1.844 0 .484-.188 2.125-1.047 3.218A2.919 2.919 0 0 1 3.797-.313H2.453c-.094-.015-.125-.03-.125-.109 0-.031 0-.047.047-.219zm0 0" stroke="none"/></symbol><symbol id="A" overflow="visible"><path d="M2.328-4.438c0-.187 0-.187-.203-.187-.453.438-1.078.438-1.36.438v.25c.157 0 .626 0 1-.188v3.547c0 .234 0 .328-.687.328H.812V0c.125 0 .985-.031 1.235-.031.219 0 1.094.031 1.25.031v-.25H3.03c-.703 0-.703-.094-.703-.328zm0 0" stroke="none"/></symbol></defs><use y="134.765" x="223.432" xlink:href="#z" width="744.094" height="1052.362"/><use y="136.259" x="231.68" xlink:href="#A" width="744.094" height="1052.362"/></g><g ns0:text="$D _{\\rm{2}}$" transform="matrix(1.50613 0 0 1.50613 77.361 250.657)" stroke="#000" stroke-width=".635"><defs><symbol overflow="visible" id="B"><path d="M1.578-.781c-.094.39-.11.469-.906.469-.156 0-.266 0-.266.187C.406 0 .484 0 .672 0h3.312c2.063 0 4.032-2.11 4.032-4.281 0-1.407-.844-2.532-2.344-2.532H2.328c-.187 0-.297 0-.297.188 0 .125.078.125.281.125.126 0 .313.016.422.016.172.03.22.046.22.171 0 .032 0 .063-.032.188zm2.156-5.344c.094-.344.11-.375.547-.375h1.063c.968 0 1.797.531 1.797 1.844 0 .484-.188 2.125-1.047 3.218A2.919 2.919 0 0 1 3.797-.313H2.453c-.094-.015-.125-.03-.125-.109 0-.031 0-.047.047-.219zm0 0" stroke="none"/></symbol><symbol overflow="visible" id="C"><path d="M3.516-1.266H3.28c-.015.157-.094.563-.187.625-.047.047-.578.047-.688.047H1.125c.734-.64.984-.844 1.39-1.172.516-.406 1-.843 1-1.5 0-.843-.734-1.359-1.624-1.359-.86 0-1.454.61-1.454 1.25 0 .344.297.39.376.39.156 0 .359-.124.359-.374 0-.125-.047-.375-.406-.375.218-.485.687-.641 1.015-.641.703 0 1.063.547 1.063 1.11 0 .609-.438 1.078-.656 1.328L.516-.266C.437-.203.437-.187.437 0h2.876zm0 0" stroke="none"/></symbol></defs><use xlink:href="#B" x="223.432" y="134.765" width="744.094" height="1052.362"/><use xlink:href="#C" x="231.68" y="136.259" width="744.094" height="1052.362"/></g><path d="M235.684 338.831H25.396" fill="none" stroke="teal" stroke-width="1.913" stroke-linecap="round"/><path id="D" d="M25.396 408.623l3.07 5.317 3.069 5.317h-12.28l3.07-5.317z" fill="teal" stroke="teal" stroke-width=".9562134000000001"/><path d="M25.395 339.461v148.958M25.395 497.632v149.594M237.395 398.342v124.373M237.395 340.542V351" fill="none" stroke="teal" stroke-width="1.913" stroke-linecap="round"/><path d="M237.395 340.542a1.71 1.71 0 1 1 0-3.421 1.71 1.71 0 0 1 0 3.421z" fill="teal" stroke="teal" stroke-width=".95629116" stroke-linecap="round"/><path d="M129.36 647.226H25.395" fill="none" stroke="teal" stroke-width="1.913" stroke-linecap="round"/><path d="M131.068 648.845a1.71 1.71 0 1 1 0-3.422 1.71 1.71 0 0 1 0 3.422z" fill="teal" stroke="teal" stroke-width=".95629116" stroke-linecap="round"/><path d="M131.04 521.004V462.09M131.04 437.361v-39.526M131.076 351.605v-12.774M131.068 647.134v-47.33M178.68 522.715h-45.894M236.004 522.715h-46.498" fill="none" stroke="teal" stroke-width="1.913" stroke-linecap="round"/><use xlink:href="#D" transform="translate(0 158.489)" width="744.094" height="1052.362" stroke-width="3"/><use xlink:href="#D" transform="rotate(-90 168.03 504.592)" width="744.094" height="1052.362" stroke-width="3"/><use xlink:href="#D" transform="matrix(0 -1 -1 0 569.673 548.11)" width="744.094" height="1052.362" stroke-width="3"/><use xlink:href="#D" transform="matrix(1 0 0 -1 212 874.468)" width="744.094" height="1052.362" stroke-width="3"/><use xlink:href="#D" transform="rotate(90 88.94 402.377)" width="744.094" height="1052.362" stroke-width="3"/><use xlink:href="#D" transform="rotate(90 142.37 455.806)" width="744.094" height="1052.362" stroke-width="3"/><use xlink:href="#D" transform="matrix(1 0 0 -1 105.644 831.538)" width="744.094" height="1052.362" stroke-width="3"/><use xlink:href="#D" transform="matrix(1 0 0 -1 105.644 905.487)" width="744.094" height="1052.362" stroke-width="3"/><path d="M131.076 568.906v-46.191" fill="none" stroke="teal" stroke-width="1.913" stroke-linecap="round"/><use xlink:href="#D" transform="matrix(1 0 0 -1 105.672 1037.408)" width="744.094" height="1052.362" stroke-width="3"/><use xlink:href="#D" transform="matrix(1 0 0 -1 105.68 959.75)" width="744.094" height="1052.362" stroke-width="3"/><path d="M344.16 338.831H238.153M237.879 584.403h-76.857M342.45 397.624v124.373M342.45 522.43l-104.571 61.973M342.45 339.825v10.457" fill="none" stroke="teal" stroke-width="1.913" stroke-linecap="round"/><use height="1052.362" width="744.094" transform="matrix(1 0 0 -1 317.054 873.75)" xlink:href="#D" stroke-width="3"/><use xlink:href="#D" transform="translate(290.79 122.496)" width="1052.362" height="744.094"/><use xlink:href="#D" transform="translate(238.219 153.509)" width="1052.362" height="744.094"/><use xlink:href="#D" transform="rotate(-90 197.654 412.144)" width="1052.362" height="744.094"/><path d="M390.374 522.715h-47.925" fill="none" stroke="teal" stroke-width="1.913" stroke-linecap="round"/><use height="1052.362" width="744.094" transform="rotate(90 195.83 509.266)" xlink:href="#D" stroke-width="3"/></g><g stroke="#000" stroke-width="1.747"><path d="M73.076 923.572h452.35" fill="none" stroke-linecap="round" transform="matrix(.93564 0 0 .3202 -42.977 -30.372)"/></g><path d="M131.068 266.845a1.71 1.71 0 1 1 0-3.422 1.71 1.71 0 1 1 0 3.422z" stroke="#000" stroke-width=".95629116" stroke-linecap="round"/><path d="M236.004 140.715h-46.498" fill="none" stroke="teal" stroke-width="1.913" stroke-linecap="round"/><use xlink:href="#D" transform="matrix(1 0 0 -1 212 492.468)" width="744.094" height="1052.362" stroke-width="3"/><use xlink:href="#D" transform="rotate(-90 -17.537 183.648)" width="744.094" height="1052.362" stroke-width="3"/><use xlink:href="#D" transform="rotate(90 279.94 211.377)" width="744.094" height="1052.362" stroke-width="3"/><use xlink:href="#D" transform="rotate(90 333.37 264.806)" width="744.094" height="1052.362" stroke-width="3"/><path d="M344.16-43.169H238.153M342.45 15.624v124.373M342.45-42.175v10.457" fill="none" stroke="teal" stroke-width="1.913" stroke-linecap="round"/><use height="1052.362" width="744.094" transform="matrix(1 0 0 -1 317.054 491.75)" xlink:href="#D" stroke-width="3"/><path d="M390.374 140.715h-47.925" fill="none" stroke="teal" stroke-width="1.913" stroke-linecap="round"/><use xlink:href="#D" transform="rotate(90 332.516 447.836)" width="1052.362" height="744.094"/><use height="1052.362" width="744.094" transform="rotate(90 386.83 318.266)" xlink:href="#D" stroke-width="3"/><g stroke="#000" stroke-width="1.749"><path d="M72.927 923.572h452.6" fill="none" stroke-linecap="round" transform="matrix(.9347 0 0 .31977 528.574 -339.991)"/></g><g fill="teal" stroke="teal" stroke-width="2.999"><g stroke-width="3.37" stroke-linecap="round"><path d="M893.302 1257.256v-200.939M869.468 1120.08v73.413" transform="matrix(0 -.31891 .25246 0 304.694 390.62)"/></g><g stroke-linecap="round" stroke-width=".891"><path d="M577.238 84.378v10.536M571.374 89.646h10.536" stroke-width=".9561142800000001"/></g><path d="M577.238 124.28v10.536" stroke-linecap="round" stroke-width=".9564110900000001"/></g><g fill="none" stroke="#000" stroke-width="2.991"><path d="M1020.148 77.22l-12.544-22.178h25.089l-12.545 22.179z" stroke-linecap="square" stroke-width=".9564320700000001"/><path d="M1032.367 78.596h-24.437" stroke-linecap="round" stroke-width=".9564320700000001"/><path d="M695.75 614.612l45.47-45.47M716.5 626.362l45.47-45.47" stroke-linecap="round" marker-end="url(#i)" transform="rotate(90 697.51 535.497) scale(.31977)"/><g stroke-linecap="round"><path d="M1020.148 30.948v24.094M1020.112 78.596v24.094" stroke-width=".9564320700000001"/></g></g><path fill="none" stroke-linecap="round" d="M1028.88 14.13h-18.815v-45.844h18.815z" stroke="#000" stroke-width=".9564320700000001"/><g stroke="#000" stroke-width="2.991"><g fill="none"><g stroke-width=".794"><path transform="matrix(-1.20385 0 0 1.60512 1519.147 39.291)" d="M435.827 100.866c0 5.87-6.346 10.63-14.173 10.63-7.828 0-14.174-4.76-14.174-10.63 0-5.87 6.346-10.63 14.174-10.63 7.827 0 14.173 4.76 14.173 10.63z" style="marker:none" color="#000" stroke-width=".688" stroke-linecap="square" overflow="visible"/><path d="M1007.276 201.194h-93.483M1007.276 209.725v-17.062M1007.372 196.83l12.7-8.433v-1.496" stroke-linecap="round" stroke-width=".9558569000000001"/><path d="M1007.224 205.408l12.848 8.583v1.496" stroke-linecap="round" stroke-linejoin="round" stroke-width=".9558569000000001"/></g><path d="M241.162 980.596l34.74 23.207" marker-end="url(#i)" transform="matrix(.31977 0 0 .31977 930.11 -108.152)"/></g><path d="M1020.065 186.383l.095-46.877M1019.978 263.857l.094-48.37" fill="none" stroke-linecap="round" stroke-width=".9564320700000001"/></g><path d="M1020.112 140.647a1.71 1.71 0 1 1 0-3.422 1.71 1.71 0 0 1 0 3.422z" stroke="#000" stroke-width=".95629116" stroke-linecap="round"/><g stroke="#000" stroke-width="3.326"><g stroke-width=".739" fill="none" stroke-linecap="round"><path d="M971.667 116.014v45.844" stroke-width=".9561329799999999"/><path d="M962.499 116.014v45.844" stroke="teal" stroke-width=".9561329799999999"/><path d="M971.697 138.936h48.415M962.469 138.936h-48.676" stroke-width=".9561329799999999"/></g></g><path d="M913.793 140.647a1.71 1.71 0 1 1 0-3.422 1.71 1.71 0 0 1 0 3.422z" fill="teal" stroke="teal" stroke-width=".95629116" stroke-linecap="round"/><path fill="none" stroke-linecap="round" d="M923.2 14.13h-18.815v-45.844H923.2z" stroke="teal" stroke-width=".9564320700000001"/><path d="M702.419 140.932a1.71 1.71 0 1 1 0-3.422 1.71 1.71 0 0 1 0 3.422z" stroke="#000" stroke-width=".95629116" stroke-linecap="round"/><path fill="none" stroke-linecap="round" d="M818.146 14.13h-18.815v-45.844h18.815z" stroke="teal" stroke-width=".9564320700000001"/><g stroke="#000" stroke-width="2.991"><g fill="none"><g stroke-width=".794"><path style="marker:none" d="M435.827 100.866c0 5.87-6.346 10.63-14.173 10.63-7.828 0-14.174-4.76-14.174-10.63 0-5.87 6.346-10.63 14.174-10.63 7.827 0 14.173 4.76 14.173 10.63z" transform="matrix(1.20385 0 0 1.60512 203.432 39.006)" color="#000" stroke="teal" stroke-width=".688" stroke-linecap="square" overflow="visible"/><path d="M715.303 200.909h17.062M715.303 209.44v-17.062" stroke="teal" stroke-linecap="round" stroke-width=".9558569000000001"/><path d="M715.207 196.545l-12.7-8.433v-1.496" stroke-linecap="round" stroke-width=".9558569000000001"/><path d="M715.355 205.122l-12.85 8.584v8.531" stroke-linecap="round" stroke-linejoin="round" stroke-width=".9558569000000001"/></g><path d="M241.162 980.596l34.74 23.207" stroke="teal" marker-end="url(#i)" transform="matrix(-.31977 0 0 .31977 792.468 -108.438)"/></g><path d="M702.514 186.098l-.095-46.877" fill="none" stroke-linecap="round" stroke-width=".9564320700000001"/></g><g stroke="teal" stroke-width="3.326"><g stroke-width=".739" stroke-linecap="round"><path d="M750.864 116.299v45.844" stroke="#000" stroke-width=".9561329799999999"/><path d="M760.033 116.299v45.844" fill="none" stroke-width=".9561329799999999"/><path d="M750.834 139.221h-48.415" fill="none" stroke="#000" stroke-width=".9561329799999999"/><path d="M760.062 139.221h48.676" fill="none" stroke-width=".9561329799999999"/></g></g><path d="M702.419 30.751V13.504" fill="none" stroke="#000" stroke-width=".956" stroke-linecap="round"/><g fill="none" stroke="#000" stroke-width="2.991"><path d="M702.383 77.22l12.544-22.178h-25.089l12.545 22.179z" stroke-linecap="square" stroke-width=".9564320700000001"/><path d="M690.164 78.596h24.437" stroke-linecap="round" stroke-width=".9564320700000001"/><path d="M695.75 614.612l45.47-45.47M716.5 626.362l45.47-45.47" stroke-linecap="round" marker-end="url(#i)" transform="matrix(0 .31977 .31977 0 489.528 -162.007)"/><g stroke-linecap="round"><path d="M702.383 30.948v24.094M702.419 78.596v24.094" stroke-width=".9564320700000001"/></g></g><path fill="none" stroke="#000" stroke-width=".956" stroke-linecap="round" d="M711.569 13.504h-18.301v-44.591h18.301zM702.419 137.697V102.69"/><g stroke="#000" stroke-width="1.747"><path d="M73.076 923.572h452.35" fill="none" stroke-linecap="round" transform="matrix(.93564 0 0 .3202 528.366 -31.865)"/></g><path d="M702.411 263.64l.095-48.37M732.365 200.909l76.373.095" fill="none" stroke="#000" stroke-width=".956" stroke-linecap="round"/><path d="M913.793 201.194l-105.055-61.973" fill="none" stroke="#000" stroke-width=".956"/><path d="M808.738 140.932a1.71 1.71 0 1 1 0-3.422 1.71 1.71 0 0 1 0 3.422z" fill="teal" stroke="teal" stroke-width=".95629116" stroke-linecap="round"/><path d="M808.738 201.194l105.055-61.973" fill="none" stroke="#000" stroke-width=".956"/><path d="M596.739 105.734V-44.65M596.739 263.733V113.336M1020.112 138.936v-36.123M913.793 137.225V14.13M808.738 137.51V14.13M808.738-31.714v-12.948M913.793-31.714v-12.948M1019.785-31.714v-12.948M1020.148 30.948V14.13" fill="none" stroke="#000" stroke-width=".956" stroke-linecap="round"/><path d="M702.419-42.952a1.71 1.71 0 1 1 0-3.421 1.71 1.71 0 0 1 0 3.421z" fill="teal" stroke="teal" stroke-width=".95629116" stroke-linecap="round"/><path d="M913.793-42.952a1.71 1.71 0 1 1 0-3.421 1.71 1.71 0 0 1 0 3.421z" stroke="#000" stroke-width=".95629116" stroke-linecap="round"/><path d="M702.419-31.087v-13.575" fill="none" stroke="#000" stroke-width=".956" stroke-linecap="round"/><g ns0:text="$R _{\\rm{1}}$" stroke="#000" stroke-width=".635"><use height="1488.189" width="1052.362" y="134.765" x="223.432" xlink:href="#j" transform="matrix(1.50613 0 0 1.50613 377.242 -205.136)"/><use height="1488.189" width="1052.362" y="136.259" x="230.997" xlink:href="#k" transform="matrix(1.50613 0 0 1.50613 377.242 -205.136)"/></g><g ns0:text="$R _{\\rm{2}}$" fill="teal" stroke="#000" stroke-width=".635"><use height="1488.189" width="1052.362" xlink:href="#l" x="223.432" y="134.765" transform="matrix(1.50613 0 0 1.50613 484.266 -205.136)"/><use height="1488.189" width="1052.362" xlink:href="#m" x="230.997" y="136.259" transform="matrix(1.50613 0 0 1.50613 484.266 -205.136)"/></g><g ns0:text="$R _{\\rm{3}}$" fill="teal" stroke="#000" stroke-width=".635"><use y="134.765" x="223.432" xlink:href="#n" width="1052.362" height="1488.189" transform="matrix(1.50613 0 0 1.50613 589.025 -205.242)"/><use y="136.259" x="230.997" xlink:href="#o" width="1052.362" height="1488.189" transform="matrix(1.50613 0 0 1.50613 589.025 -205.242)"/></g><g ns0:text="$R _{\\rm{4}}$" stroke="#000" stroke-width=".635"><use y="134.765" x="223.432" xlink:href="#p" width="744.094" height="1052.362" transform="matrix(1.50613 0 0 1.50613 694.94 -205.136)"/><use y="136.259" x="230.997" xlink:href="#q" width="744.094" height="1052.362" transform="matrix(1.50613 0 0 1.50613 694.94 -205.136)"/></g><g ns0:text="$C _{\\rm{1}}$" stroke="#000" stroke-width=".635"><use height="1052.362" width="744.094" xlink:href="#r" x="223.432" y="134.765" transform="matrix(1.50613 0 0 1.50613 410.839 -94.328)"/><use height="1052.362" width="744.094" xlink:href="#s" x="230.553" y="136.259" transform="matrix(1.50613 0 0 1.50613 410.839 -94.328)"/></g><g ns0:text="$C _{\\rm{2}}$" stroke="#000" stroke-width=".635"><use height="1052.362" width="744.094" y="134.765" x="223.432" xlink:href="#t" transform="matrix(1.50613 0 0 1.50613 622.048 -94.328)"/><use height="1052.362" width="744.094" y="136.259" x="230.553" xlink:href="#u" transform="matrix(1.50613 0 0 1.50613 622.048 -94.328)"/></g><g ns0:text="$T _{\\rm{2}}$" stroke="#000" stroke-width=".635"><use height="1052.362" width="744.094" xlink:href="#v" x="223.432" y="134.765" transform="matrix(1.50613 0 0 1.50613 695.838 2.178)"/><use height="1052.362" width="744.094" xlink:href="#w" x="229.254" y="136.259" transform="matrix(1.50613 0 0 1.50613 695.838 2.178)"/></g><g ns0:text="$T _{\\rm{1}}$" fill="teal" stroke="#000" stroke-width=".635"><use height="1052.362" width="744.094" y="134.765" x="223.432" xlink:href="#x" transform="matrix(1.50613 0 0 1.50613 338.992 1.893)"/><use height="1052.362" width="744.094" y="136.259" x="229.254" xlink:href="#y" transform="matrix(1.50613 0 0 1.50613 338.992 1.893)"/></g><g ns0:text="$D _{\\rm{1}}$" stroke="#000" stroke-width=".635"><use height="1052.362" width="744.094" xlink:href="#z" x="223.432" y="134.765" transform="matrix(1.50613 0 0 1.50613 381.079 -132.837)"/><use height="1052.362" width="744.094" xlink:href="#A" x="231.68" y="136.259" transform="matrix(1.50613 0 0 1.50613 381.079 -132.837)"/></g><g ns0:text="$D _{\\rm{2}}$" stroke="#000" stroke-width=".635"><use height="1052.362" width="744.094" y="134.765" x="223.432" xlink:href="#B" transform="matrix(1.50613 0 0 1.50613 648.704 -132.837)"/><use height="1052.362" width="744.094" y="136.259" x="231.68" xlink:href="#C" transform="matrix(1.50613 0 0 1.50613 648.704 -132.837)"/></g><path d="M807.028-44.663h-210.29" fill="none" stroke="teal" stroke-width="1.913" stroke-linecap="round"/><path d="M596.74 25.129l3.069 5.317 3.07 5.317h-12.28l3.07-5.317z" fill="teal" stroke="teal" stroke-width=".9562134000000001"/><path d="M596.739-44.033v148.958M808.738 14.848V139.22M808.738-42.952v10.458" fill="none" stroke="teal" stroke-width="1.913" stroke-linecap="round"/><path d="M808.738-42.952a1.71 1.71 0 1 1 0-3.421 1.71 1.71 0 0 1 0 3.421z" fill="teal" stroke="teal" stroke-width=".95629116" stroke-linecap="round"/><path d="M702.411 265.35a1.71 1.71 0 1 1 0-3.42 1.71 1.71 0 0 1 0 3.42z" stroke="#000" stroke-width=".95629116" stroke-linecap="round"/><path d="M807.347 139.221H760.85" fill="none" stroke="teal" stroke-width="1.913" stroke-linecap="round"/><use height="1052.362" width="744.094" transform="matrix(1 0 0 -1 783.343 490.974)" xlink:href="#D" stroke-width="3"/><use height="1052.362" width="744.094" transform="rotate(-90 267.387 -102.77)" xlink:href="#D" stroke-width="3"/><use height="1052.362" width="744.094" transform="rotate(90 566.36 496.301)" xlink:href="#D" stroke-width="3"/><use height="1052.362" width="744.094" transform="rotate(90 619.788 549.73)" xlink:href="#D" stroke-width="3"/><path d="M915.503-44.662H809.497M913.793 14.13v124.374M913.793-43.67v10.458" fill="none" stroke="teal" stroke-width="1.913" stroke-linecap="round"/><use xlink:href="#D" transform="matrix(1 0 0 -1 888.397 490.257)" width="744.094" height="1052.362" stroke-width="3"/><path d="M961.717 139.221h-47.924" fill="none" stroke="teal" stroke-width="1.913" stroke-linecap="round"/><use xlink:href="#D" transform="rotate(90 673.249 603.191)" width="744.094" height="1052.362" stroke-width="3"/><path d="M809.08 201.194l104.372-61.973" fill="none" stroke="teal" stroke-width="1.913" stroke-linecap="round"/><use height="1052.362" width="744.094" transform="matrix(-1 0 0 1 1484.08 -260.988)" xlink:href="#E" stroke-width="3"/><use height="1052.362" width="744.094" transform="matrix(-1 0 0 1 1431.652 -229.858)" xlink:href="#E" stroke-width="3"/><path d="M809.08 201.194h-81.123" fill="none" stroke="teal" stroke-width="1.913" stroke-linecap="round"/><use xlink:href="#D" transform="rotate(-90 290.584 -63.994)" width="744.094" height="1052.362" stroke-width="3"/><path d="M596.74 183.936l3.069 5.317 3.07 5.318h-12.28l3.07-5.318z" fill="teal" stroke="teal" stroke-width=".9562134000000001"/><path d="M596.739 114.774v148.959M596.739 263.733h106.007" fill="none" stroke="teal" stroke-width="1.913" stroke-linecap="round"/><use height="1052.362" width="744.094" transform="matrix(0 1 1 0 235.802 238.337)" xlink:href="#D" stroke-width="3"/><path d="M702.506 243.918l-3.07-5.317-3.07-5.317h12.28l-3.07 5.317z" fill="teal" stroke="teal" stroke-width=".9562134000000001"/><path d="M702.506 261.932V215.27" fill="none" stroke="teal" stroke-width="1.913" stroke-linecap="round"/><g stroke-linecap="round" fill="teal" stroke="teal" stroke-width=".891"><path d="M170.533 117.793v10.535M164.67 123.06h10.535" stroke-width=".9561142800000001"/></g></g></svg>