<svg xmlns:ns0="http://www.iki.fi/pav/software/textext/" xmlns="http://www.w3.org/2000/svg" xmlns:xlink="http://www.w3.org/1999/xlink" width="1488.189" height="1052.362"><title>Monostabile Kippschaltung</title><defs><marker id="a" orient="auto" overflow="visible"><path d="M2.308 0l-3.46 2v-4l3.46 2z" fill-rule="evenodd" stroke="#000" stroke-width=".4pt"/></marker><symbol id="b" overflow="visible"><path d="M6.438-6.922a.12.12 0 0 0-.125-.11c-.047 0-.047.016-.172.157l-.485.563c-.25-.47-.765-.72-1.422-.72-1.265 0-2.453 1.157-2.453 2.36 0 .797.516 1.266 1.032 1.406l1.062.282c.375.093.922.25.922 1.062 0 .89-.813 1.828-1.797 1.828-.64 0-1.75-.218-1.75-1.453 0-.234.063-.484.063-.531.015-.047.015-.063.015-.078 0-.094-.062-.11-.11-.11a.142.142 0 0 0-.109.047C1.08-2.188.516.094.516.125c0 .047.046.094.109.094.047 0 .063-.016.188-.157L1.296-.5c.422.578 1.11.719 1.687.719 1.36 0 2.532-1.328 2.532-2.563 0-.687-.344-1.031-.485-1.172-.234-.218-.39-.265-1.265-.484-.235-.063-.579-.172-.672-.188a.928.928 0 0 1-.61-.906c0-.812.797-1.656 1.75-1.656.813 0 1.422.438 1.422 1.547 0 .312-.031.5-.031.562 0 0 0 .094.11.094.109 0 .124-.031.156-.203zm0 0"/></symbol><symbol id="c" overflow="visible"><path d="M2.328-4.438c0-.187 0-.187-.203-.187-.453.438-1.078.438-1.36.438v.25c.157 0 .626 0 1-.188v3.547c0 .234 0 .328-.687.328H.812V0c.125 0 .985-.031 1.235-.031.219 0 1.094.031 1.25.031v-.25H3.03c-.703 0-.703-.094-.703-.328zm0 0"/></symbol></defs><g><path style="marker:none" color="#000" fill="#fff" stroke="#fff" stroke-width="3" stroke-linecap="round" stroke-linejoin="round" overflow="visible" d="M-60.593-16.877h1609.375v1086.116H-60.593z"/><g stroke-width=".891" fill="none" stroke="#000" stroke-linecap="round"><path d="M71.805 124.752l-.297 58.524M71.37 349.125l.138-60.552-35.914-105.297" stroke-width="2.9986872300000003"/></g><path d="M71.508 283.223a5.35 5.35 0 1 1 0 10.7 5.35 5.35 0 1 1 0-10.7z" stroke="#000" stroke-width="3.9423000000000004" stroke-linecap="round"/><path d="M73.076 923.572h452.452" fill="none" stroke-width="1.755" stroke-linecap="round" transform="matrix(2.92306 0 0 1 -141.8 -876.892)" stroke="#000"/><g fill="none" stroke="#000" stroke-width="3.381" stroke-linecap="round"><path d="M893.302 1257.256v-200.939M869.468 1120.08v73.413" transform="matrix(0 -.99732 .78952 0 -841.932 1407.924)"/></g><g fill="none" stroke="#000" stroke-width=".894" stroke-linecap="round"><path d="M10.384 450.225v32.947M-7.953 466.699h32.947" stroke-width="3.00009414"/></g><path d="M10.384 575.011v32.948" fill="none" stroke="#000" stroke-width="2.99993856" stroke-linecap="round"/><g stroke-width="3" fill="none" stroke="#000"><path d="M1395.484 427.842l-39.23-69.359h78.46l-39.23 69.36z" stroke-linecap="square"/><path d="M1433.695 432.143h-76.422" stroke-linecap="round"/><path d="M695.75 614.612l45.47-45.47M716.5 626.362l45.47-45.47" stroke-linecap="round" marker-end="url(#a)" transform="rotate(90 1190.713 870.425)"/><g stroke-linecap="round"><path d="M1395.484 283.136v75.347M1395.371 432.143v75.347"/></g></g><path fill="none" stroke="#000" stroke-width="3" stroke-linecap="round" d="M1422.792 230.54h-58.84V87.175h58.84z"/><g fill="none" stroke="#000"><g stroke-width="1.639"><path style="marker:none" d="M435.827 100.866c0 5.87-6.346 10.63-14.173 10.63-7.828 0-14.174-4.76-14.174-10.63 0-5.87 6.346-10.63 14.174-10.63 7.827 0 14.173 4.76 14.173 10.63z" transform="matrix(-3.76475 0 0 5.01966 2955.987 309.225)" color="#000" stroke-width=".69" stroke-linecap="square" overflow="visible"/><path d="M1355.228 815.54H1062.88M1355.228 842.22v-53.36M1355.528 801.893l39.718-26.372v-4.68" stroke-width="3.00050575" stroke-linecap="round"/><path d="M1355.065 828.716l40.182 26.843v4.68" stroke-width="3.00050575" stroke-linecap="round" stroke-linejoin="round"/></g><path d="M241.162 980.596l34.74 23.207" stroke-width="3.019" marker-end="url(#a)" transform="translate(1113.912 -151.87)"/></g><path d="M1395.223 769.22l.296-146.595M1394.95 1011.504l.297-151.266" fill="none" stroke="#000" stroke-width="3" stroke-linecap="round"/><path d="M1395.371 626.192a5.35 5.35 0 1 1 0-10.7 5.35 5.35 0 1 1 0 10.7zM401.859 627.084a5.35 5.35 0 1 1 0-10.7 5.35 5.35 0 1 1 0 10.7z" stroke="#000" stroke-width="3.9423000000000004" stroke-linecap="round"/><path fill="none" stroke="#000" stroke-width="3" stroke-linecap="round" d="M763.77 230.54h-58.84V87.175h58.84z"/><g fill="none" stroke="#000"><g stroke-width="1.639"><path transform="matrix(3.76475 0 0 5.01966 -1158.609 308.334)" d="M435.827 100.866c0 5.87-6.346 10.63-14.173 10.63-7.828 0-14.174-4.76-14.174-10.63 0-5.87 6.346-10.63 14.174-10.63 7.827 0 14.173 4.76 14.173 10.63z" style="marker:none" color="#000" stroke-width=".69" stroke-linecap="square" overflow="visible"/><path d="M442.15 814.648h53.359M442.15 841.327V787.97M441.85 801.001l-39.718-26.372v-4.68" stroke-width="3.00050575" stroke-linecap="round"/><path d="M442.313 827.825l-40.182 26.842v26.68" stroke-width="3.00050575" stroke-linecap="round" stroke-linejoin="round"/></g><path d="M241.162 980.596l34.74 23.207" stroke-width="3.019" marker-end="url(#a)" transform="matrix(-1 0 0 1 683.466 -152.762)"/></g><path d="M402.155 768.329l-.296-146.596" fill="none" stroke="#000" stroke-width="3" stroke-linecap="round"/><path d="M734.349 627.084a5.35 5.35 0 1 1 0-10.7 5.35 5.35 0 1 1 0 10.7z" stroke="#000" stroke-width="3.9423000000000004" stroke-linecap="round"/><path d="M401.859 282.518v-53.936" fill="none" stroke="#000" stroke-width="3" stroke-linecap="round"/><g stroke-width="3" fill="none" stroke="#000"><path d="M401.746 427.842l39.23-69.359h-78.46l39.23 69.36z" stroke-linecap="square"/><path d="M363.535 432.143h76.422" stroke-linecap="round"/><path d="M695.75 614.612l45.47-45.47M716.5 626.362l45.47-45.47" stroke-linecap="round" marker-end="url(#a)" transform="matrix(0 1 1 0 -263.908 -320.288)"/><g stroke-linecap="round"><path d="M401.746 283.136v75.347M401.859 432.143v75.347"/></g></g><path fill="none" stroke="#000" stroke-width="3" stroke-linecap="round" d="M430.475 228.582h-57.233V89.133h57.233zM401.859 616.969V507.49"/><path d="M73.076 923.572h452.35" fill="none" stroke-width="1.753" stroke-linecap="round" transform="matrix(2.926 0 0 1.00133 -142.451 86.7)" stroke="#000"/><path d="M401.835 1010.825l.296-151.265M495.509 814.648l238.84.296" fill="none" stroke="#000" stroke-width="3" stroke-linecap="round"/><path d="M1062.881 815.54L734.35 621.733M734.349 815.54l328.532-194.698" fill="none" stroke="#000" stroke-width="3"/><path d="M71.37 517.012V349.125M71.369 1011.114V540.783M1395.371 620.842V507.875M734.349 87.174V46.68M1394.349 87.174V46.68M1395.484 283.136V230.54" fill="none" stroke="#000" stroke-width="3" stroke-linecap="round"/><path d="M734.349 52.03a5.35 5.35 0 1 1 0-10.7 5.35 5.35 0 1 1 0 10.7zM401.859 52.03a5.35 5.35 0 1 1 0-10.7 5.35 5.35 0 1 1 0 10.7z" stroke="#000" stroke-width="3.9423000000000004" stroke-linecap="round"/><path d="M401.859 89.133V46.68M71.805 124.752V46.68" fill="none" stroke="#000" stroke-width="3" stroke-linecap="round"/><use height="744.094" width="1052.362" xlink:href="#b" x="223.432" y="134.765" transform="translate(-121.733 -228.551) scale(4.71008)"/><use height="744.094" width="1052.362" xlink:href="#c" x="229.541" y="136.259" transform="translate(-121.733 -228.551) scale(4.71008)"/><g ns0:text="$R _{\\rm{1}}$" transform="translate(-615.058 -455.164) scale(4.71008)"><defs><symbol overflow="visible" id="d"><path d="M3.734-6.125c.063-.234.094-.328.282-.36.093-.015.406-.015.609-.015.703 0 1.813 0 1.813.984 0 .344-.157 1.032-.547 1.422-.266.25-.782.578-1.688.578h-1.11zm1.438 2.734c1.016-.218 2.187-.921 2.187-1.921 0-.86-.89-1.5-2.203-1.5H2.328c-.203 0-.297 0-.297.203 0 .109.094.109.281.109.016 0 .204 0 .376.016.187.03.265.03.265.171 0 .032 0 .063-.031.188L1.578-.781c-.094.39-.11.469-.906.469-.172 0-.266 0-.266.203C.406 0 .531 0 .546 0c.282 0 .985-.031 1.25-.031.282 0 1 .031 1.282.031.078 0 .188 0 .188-.203 0-.11-.079-.11-.282-.11-.359 0-.64 0-.64-.171 0-.063.015-.11.031-.172l.656-2.64H4.22c.906 0 1.078.562 1.078.905 0 .141-.078.454-.14.688-.063.281-.157.64-.157.844C5 .219 6.203.219 6.328.219c.844 0 1.203-1 1.203-1.14 0-.126-.11-.126-.125-.126-.093 0-.11.063-.125.14-.25.735-.687.907-.906.907-.328 0-.406-.219-.406-.61 0-.312.062-.812.11-1.14.015-.14.03-.328.03-.469 0-.765-.671-1.078-.937-1.172zm0 0"/></symbol><symbol overflow="visible" id="e"><path d="M2.328-4.438c0-.187 0-.187-.203-.187-.453.438-1.078.438-1.36.438v.25c.157 0 .626 0 1-.188v3.547c0 .234 0 .328-.687.328H.812V0c.125 0 .985-.031 1.235-.031.219 0 1.094.031 1.25.031v-.25H3.03c-.703 0-.703-.094-.703-.328zm0 0"/></symbol></defs><use xlink:href="#d" x="223.432" y="134.765" width="1052.362" height="1488.189"/><use xlink:href="#e" x="230.997" y="136.259" width="1052.362" height="1488.189"/></g><g transform="translate(-280.363 -455.164) scale(4.71008)" ns0:text="$R _{\\rm{2}}$"><defs><symbol id="f" overflow="visible"><path d="M3.734-6.125c.063-.234.094-.328.282-.36.093-.015.406-.015.609-.015.703 0 1.813 0 1.813.984 0 .344-.157 1.032-.547 1.422-.266.25-.782.578-1.688.578h-1.11zm1.438 2.734c1.016-.218 2.187-.921 2.187-1.921 0-.86-.89-1.5-2.203-1.5H2.328c-.203 0-.297 0-.297.203 0 .109.094.109.281.109.016 0 .204 0 .376.016.187.03.265.03.265.171 0 .032 0 .063-.031.188L1.578-.781c-.094.39-.11.469-.906.469-.172 0-.266 0-.266.203C.406 0 .531 0 .546 0c.282 0 .985-.031 1.25-.031.282 0 1 .031 1.282.031.078 0 .188 0 .188-.203 0-.11-.079-.11-.282-.11-.359 0-.64 0-.64-.171 0-.063.015-.11.031-.172l.656-2.64H4.22c.906 0 1.078.562 1.078.905 0 .141-.078.454-.14.688-.063.281-.157.64-.157.844C5 .219 6.203.219 6.328.219c.844 0 1.203-1 1.203-1.14 0-.126-.11-.126-.125-.126-.093 0-.11.063-.125.14-.25.735-.687.907-.906.907-.328 0-.406-.219-.406-.61 0-.312.062-.812.11-1.14.015-.14.03-.328.03-.469 0-.765-.671-1.078-.937-1.172zm0 0"/></symbol><symbol id="g" overflow="visible"><path d="M3.516-1.266H3.28c-.015.157-.094.563-.187.625-.047.047-.578.047-.688.047H1.125c.734-.64.984-.844 1.39-1.172.516-.406 1-.843 1-1.5 0-.843-.734-1.359-1.624-1.359-.86 0-1.454.61-1.454 1.25 0 .344.297.39.376.39.156 0 .359-.124.359-.374 0-.125-.047-.375-.406-.375.218-.485.687-.641 1.015-.641.703 0 1.063.547 1.063 1.11 0 .609-.438 1.078-.656 1.328L.516-.266C.437-.203.437-.187.437 0h2.876zm0 0"/></symbol></defs><use y="134.765" x="223.432" xlink:href="#f" width="1052.362" height="1488.189"/><use y="136.259" x="230.997" xlink:href="#g" width="1052.362" height="1488.189"/></g><g ns0:text="$R _{\\rm{3}}$" transform="translate(47.244 -463.703) scale(4.71008)"><defs><symbol overflow="visible" id="h"><path d="M3.734-6.125c.063-.234.094-.328.282-.36.093-.015.406-.015.609-.015.703 0 1.813 0 1.813.984 0 .344-.157 1.032-.547 1.422-.266.25-.782.578-1.688.578h-1.11zm1.438 2.734c1.016-.218 2.187-.921 2.187-1.921 0-.86-.89-1.5-2.203-1.5H2.328c-.203 0-.297 0-.297.203 0 .109.094.109.281.109.016 0 .204 0 .376.016.187.03.265.03.265.171 0 .032 0 .063-.031.188L1.578-.781c-.094.39-.11.469-.906.469-.172 0-.266 0-.266.203C.406 0 .531 0 .546 0c.282 0 .985-.031 1.25-.031.282 0 1 .031 1.282.031.078 0 .188 0 .188-.203 0-.11-.079-.11-.282-.11-.359 0-.64 0-.64-.171 0-.063.015-.11.031-.172l.656-2.64H4.22c.906 0 1.078.562 1.078.905 0 .141-.078.454-.14.688-.063.281-.157.64-.157.844C5 .219 6.203.219 6.328.219c.844 0 1.203-1 1.203-1.14 0-.126-.11-.126-.125-.126-.093 0-.11.063-.125.14-.25.735-.687.907-.906.907-.328 0-.406-.219-.406-.61 0-.312.062-.812.11-1.14.015-.14.03-.328.03-.469 0-.765-.671-1.078-.937-1.172zm0 0"/></symbol><symbol overflow="visible" id="i"><path d="M1.906-2.328c.547 0 .938.375.938 1.125 0 .86-.516 1.125-.906 1.125-.282 0-.907-.078-1.188-.5.328 0 .406-.235.406-.39 0-.22-.172-.376-.39-.376a.38.38 0 0 0-.391.407C.375-.281 1.094.14 1.938.14c.968 0 1.64-.657 1.64-1.344 0-.547-.437-1.094-1.203-1.25.719-.266.984-.781.984-1.219 0-.547-.625-.953-1.406-.953-.766 0-1.36.375-1.36.938 0 .234.157.359.36.359.219 0 .36-.156.36-.344 0-.203-.141-.36-.36-.375.25-.297.719-.375.985-.375.312 0 .75.156.75.75 0 .297-.094.625-.282.828-.219.266-.422.281-.765.313-.172.015-.188.015-.22.015-.015 0-.077.016-.077.094 0 .094.062.094.187.094zm0 0"/></symbol></defs><use height="1488.189" width="1052.362" xlink:href="#h" x="223.432" y="134.765"/><use height="1488.189" width="1052.362" xlink:href="#i" x="230.997" y="136.259"/></g><g ns0:text="$R _{\\rm{4}}$" transform="translate(378.468 -455.164) scale(4.71008)"><defs><symbol overflow="visible" id="j"><path d="M3.734-6.125c.063-.234.094-.328.282-.36.093-.015.406-.015.609-.015.703 0 1.813 0 1.813.984 0 .344-.157 1.032-.547 1.422-.266.25-.782.578-1.688.578h-1.11zm1.438 2.734c1.016-.218 2.187-.921 2.187-1.921 0-.86-.89-1.5-2.203-1.5H2.328c-.203 0-.297 0-.297.203 0 .109.094.109.281.109.016 0 .204 0 .376.016.187.03.265.03.265.171 0 .032 0 .063-.031.188L1.578-.781c-.094.39-.11.469-.906.469-.172 0-.266 0-.266.203C.406 0 .531 0 .546 0c.282 0 .985-.031 1.25-.031.282 0 1 .031 1.282.031.078 0 .188 0 .188-.203 0-.11-.079-.11-.282-.11-.359 0-.64 0-.64-.171 0-.063.015-.11.031-.172l.656-2.64H4.22c.906 0 1.078.562 1.078.905 0 .141-.078.454-.14.688-.063.281-.157.64-.157.844C5 .219 6.203.219 6.328.219c.844 0 1.203-1 1.203-1.14 0-.126-.11-.126-.125-.126-.093 0-.11.063-.125.14-.25.735-.687.907-.906.907-.328 0-.406-.219-.406-.61 0-.312.062-.812.11-1.14.015-.14.03-.328.03-.469 0-.765-.671-1.078-.937-1.172zm0 0"/></symbol><symbol overflow="visible" id="k"><path d="M3.688-1.14v-.25h-.782V-4.5c0-.14 0-.203-.14-.203-.094 0-.125 0-.188.11L.266-1.392v.25h2.062v.563c0 .25 0 .328-.578.328h-.188V0c.36-.016.797-.031 1.047-.031.266 0 .704.015 1.063.031v-.25h-.188c-.578 0-.578-.078-.578-.328v-.563zM2.375-3.939v2.547H.531zm0 0"/></symbol></defs><use height="1052.362" width="744.094" xlink:href="#j" x="223.432" y="134.765"/><use height="1052.362" width="744.094" xlink:href="#k" x="230.997" y="136.259"/></g><g stroke-width=".741" fill="none" stroke="#000" stroke-linecap="round"><path d="M582.849 550.05v143.367M554.175 550.05v143.367M582.942 621.733h151.407M554.082 621.733H401.859" stroke-width="2.9981823299999997"/></g><g ns0:text="$C _{\\rm{1}}$" transform="translate(-509.992 -107.746) scale(4.71008)"><defs><symbol overflow="visible" id="l"><path d="M7.578-6.922c0-.031-.016-.11-.11-.11-.03 0-.046.016-.155.126l-.688.765c-.094-.14-.547-.89-1.656-.89C2.734-7.031.5-4.828.5-2.516.5-.875 1.672.22 3.203.22c.86 0 1.625-.39 2.156-.86.922-.812 1.094-1.718 1.094-1.75 0-.109-.11-.109-.125-.109-.062 0-.11.031-.125.11-.094.28-.328 1-1.016 1.578-.687.546-1.312.718-1.828.718-.89 0-1.953-.515-1.953-2.062 0-.578.203-2.188 1.203-3.36.61-.703 1.547-1.203 2.438-1.203 1.016 0 1.61.766 1.61 1.922 0 .406-.032.406-.032.516 0 .093.11.093.14.093.126 0 .126-.015.188-.203zm0 0"/></symbol><symbol overflow="visible" id="m"><path d="M2.328-4.438c0-.187 0-.187-.203-.187-.453.438-1.078.438-1.36.438v.25c.157 0 .626 0 1-.188v3.547c0 .234 0 .328-.687.328H.812V0c.125 0 .985-.031 1.235-.031.219 0 1.094.031 1.25.031v-.25H3.03c-.703 0-.703-.094-.703-.328zm0 0"/></symbol></defs><use height="1052.362" width="744.094" xlink:href="#l" x="223.432" y="134.765"/><use height="1052.362" width="744.094" xlink:href="#m" x="230.553" y="136.259"/></g><g transform="translate(381.277 193.163) scale(4.71008)" ns0:text="$T _{\\rm{2}}$"><defs><symbol id="n" overflow="visible"><path d="M4.25-6.047c.078-.281.11-.344.234-.375.094-.016.422-.016.625-.016 1.016 0 1.454.032 1.454.813 0 .156-.032.547-.079.797 0 .047-.03.156-.03.187 0 .063.03.141.124.141.11 0 .125-.078.156-.234L7-6.47c.016-.047.016-.14.016-.172 0-.109-.094-.109-.266-.109H1.219c-.235 0-.25.016-.328.203l-.594 1.75c0 .016-.063.156-.063.188 0 .046.063.109.125.109.094 0 .11-.063.172-.219.531-1.547.797-1.718 2.266-1.718h.39c.282 0 .282.03.282.125a.775.775 0 0 1-.047.203L2.094-.781C2-.421 1.969-.312.906-.312c-.36 0-.422 0-.422.187C.484 0 .594 0 .656 0c.266 0 .547-.016.813-.016.281 0 .578-.015.86-.015.28 0 .546.015.827.015.281 0 .578.016.86.016.093 0 .218 0 .218-.203 0-.11-.078-.11-.343-.11-.235 0-.375 0-.625-.015-.297-.031-.375-.063-.375-.219 0-.015 0-.062.046-.203zm0 0"/></symbol><symbol id="o" overflow="visible"><path d="M3.516-1.266H3.28c-.015.157-.094.563-.187.625-.047.047-.578.047-.688.047H1.125c.734-.64.984-.844 1.39-1.172.516-.406 1-.843 1-1.5 0-.843-.734-1.359-1.624-1.359-.86 0-1.454.61-1.454 1.25 0 .344.297.39.376.39.156 0 .359-.124.359-.374 0-.125-.047-.375-.406-.375.218-.485.687-.641 1.015-.641.703 0 1.063.547 1.063 1.11 0 .609-.438 1.078-.656 1.328L.516-.266C.437-.203.437-.187.437 0h2.876zm0 0"/></symbol></defs><use y="134.765" x="223.432" xlink:href="#n" width="744.094" height="1052.362"/><use y="136.259" x="229.254" xlink:href="#o" width="744.094" height="1052.362"/></g><g ns0:text="$T _{\\rm{1}}$" transform="translate(-734.675 192.27) scale(4.71008)"><defs><symbol overflow="visible" id="p"><path d="M4.25-6.047c.078-.281.11-.344.234-.375.094-.016.422-.016.625-.016 1.016 0 1.454.032 1.454.813 0 .156-.032.547-.079.797 0 .047-.03.156-.03.187 0 .063.03.141.124.141.11 0 .125-.078.156-.234L7-6.47c.016-.047.016-.14.016-.172 0-.109-.094-.109-.266-.109H1.219c-.235 0-.25.016-.328.203l-.594 1.75c0 .016-.063.156-.063.188 0 .046.063.109.125.109.094 0 .11-.063.172-.219.531-1.547.797-1.718 2.266-1.718h.39c.282 0 .282.03.282.125a.775.775 0 0 1-.047.203L2.094-.781C2-.421 1.969-.312.906-.312c-.36 0-.422 0-.422.187C.484 0 .594 0 .656 0c.266 0 .547-.016.813-.016.281 0 .578-.015.86-.015.28 0 .546.015.827.015.281 0 .578.016.86.016.093 0 .218 0 .218-.203 0-.11-.078-.11-.343-.11-.235 0-.375 0-.625-.015-.297-.031-.375-.063-.375-.219 0-.015 0-.062.046-.203zm0 0"/></symbol><symbol overflow="visible" id="q"><path d="M2.328-4.438c0-.187 0-.187-.203-.187-.453.438-1.078.438-1.36.438v.25c.157 0 .626 0 1-.188v3.547c0 .234 0 .328-.687.328H.812V0c.125 0 .985-.031 1.235-.031.219 0 1.094.031 1.25.031v-.25H3.03c-.703 0-.703-.094-.703-.328zm0 0"/></symbol></defs><use xlink:href="#p" x="223.432" y="134.765" width="744.094" height="1052.362"/><use xlink:href="#q" x="229.254" y="136.259" width="744.094" height="1052.362"/></g><g transform="translate(-603.058 -229.066) scale(4.71008)" ns0:text="$D _{\\rm{1}}$"><defs><symbol id="r" overflow="visible"><path d="M1.578-.781c-.094.39-.11.469-.906.469-.156 0-.266 0-.266.187C.406 0 .484 0 .672 0h3.312c2.063 0 4.032-2.11 4.032-4.281 0-1.407-.844-2.532-2.344-2.532H2.328c-.187 0-.297 0-.297.188 0 .125.078.125.281.125.126 0 .313.016.422.016.172.03.22.046.22.171 0 .032 0 .063-.032.188zm2.156-5.344c.094-.344.11-.375.547-.375h1.063c.968 0 1.797.531 1.797 1.844 0 .484-.188 2.125-1.047 3.218A2.919 2.919 0 0 1 3.797-.313H2.453c-.094-.015-.125-.03-.125-.109 0-.031 0-.047.047-.219zm0 0"/></symbol><symbol id="s" overflow="visible"><path d="M2.328-4.438c0-.187 0-.187-.203-.187-.453.438-1.078.438-1.36.438v.25c.157 0 .626 0 1-.188v3.547c0 .234 0 .328-.687.328H.812V0c.125 0 .985-.031 1.235-.031.219 0 1.094.031 1.25.031v-.25H3.03c-.703 0-.703-.094-.703-.328zm0 0"/></symbol></defs><use y="134.765" x="223.432" xlink:href="#r" width="744.094" height="1052.362"/><use y="136.259" x="231.68" xlink:href="#s" width="744.094" height="1052.362"/></g><g ns0:text="$D _{\\rm{2}}$" transform="translate(233.88 -229.066) scale(4.71008)"><defs><symbol overflow="visible" id="t"><path d="M1.578-.781c-.094.39-.11.469-.906.469-.156 0-.266 0-.266.187C.406 0 .484 0 .672 0h3.312c2.063 0 4.032-2.11 4.032-4.281 0-1.407-.844-2.532-2.344-2.532H2.328c-.187 0-.297 0-.297.188 0 .125.078.125.281.125.126 0 .313.016.422.016.172.03.22.046.22.171 0 .032 0 .063-.032.188zm2.156-5.344c.094-.344.11-.375.547-.375h1.063c.968 0 1.797.531 1.797 1.844 0 .484-.188 2.125-1.047 3.218A2.919 2.919 0 0 1 3.797-.313H2.453c-.094-.015-.125-.03-.125-.109 0-.031 0-.047.047-.219zm0 0"/></symbol><symbol overflow="visible" id="u"><path d="M3.516-1.266H3.28c-.015.157-.094.563-.187.625-.047.047-.578.047-.688.047H1.125c.734-.64.984-.844 1.39-1.172.516-.406 1-.843 1-1.5 0-.843-.734-1.359-1.624-1.359-.86 0-1.454.61-1.454 1.25 0 .344.297.39.376.39.156 0 .359-.124.359-.374 0-.125-.047-.375-.406-.375.218-.485.687-.641 1.015-.641.703 0 1.063.547 1.063 1.11 0 .609-.438 1.078-.656 1.328L.516-.266C.437-.203.437-.187.437 0h2.876zm0 0"/></symbol></defs><use xlink:href="#t" x="223.432" y="134.765" width="744.094" height="1052.362"/><use xlink:href="#u" x="231.68" y="136.259" width="744.094" height="1052.362"/></g><path d="M71.508 177.925a5.35 5.35 0 1 1 0 10.7 5.35 5.35 0 1 1 0-10.7z" stroke="#000" stroke-width="3.9423000000000004" stroke-linecap="round"/><g><path d="M1062.881 295.81v-65.27" fill="none" stroke="#000" stroke-width="3" stroke-linecap="round"/><g stroke="#000" stroke-linecap="round"><path d="M1062.448 490.516v-51.707" fill="none" stroke-width="2.99961021"/><path d="M1062.448 443.449a4.64 4.64 0 1 0 0-9.28 4.64 4.64 0 0 0 0 9.28z" stroke-width="3.9425025"/></g><path d="M1062.881 352.156a4.64 4.64 0 1 0 0-9.28 4.64 4.64 0 0 0 0 9.28z" stroke="#000" stroke-width="3.9425025" stroke-linecap="round"/><path d="M1062.881 295.81v51.706" fill="none" stroke="#000" stroke-width="2.99961021" stroke-linecap="round"/><g stroke="#000" stroke-width="3.459" stroke-linecap="round"><path d="M1040.207 348.846v88.633" fill="#0000de" stroke-width="2.99961021"/><path d="M994.203 393.163h46.004" fill="none" stroke-width="2.99961021"/></g><path d="M1062.448 616.4V490.516" fill="none" stroke="#000" stroke-width="3" stroke-linecap="round"/></g><g><path fill="none" stroke="#000" stroke-width="3" stroke-linecap="round" d="M1092.302 230.54h-58.84V87.175h58.84z"/></g><path d="M1062.881 626.192a5.35 5.35 0 1 1 0-10.7 5.35 5.35 0 1 1 0 10.7zM1062.881 52.03a5.35 5.35 0 1 1 0-10.7 5.35 5.35 0 1 1 0 10.7z" stroke="#000" stroke-width="3.9423000000000004" stroke-linecap="round"/><path d="M734.349 620.842V230.54M1062.881 87.174V46.68" fill="none" stroke="#000" stroke-width="3" stroke-linecap="round"/><g><path d="M1062.881 620.842h96.464M1298.907 620.842h96.464M1159.346 648.566v-57.233h139.449v57.233z" fill="none" stroke="#000" stroke-width="3" stroke-linecap="round"/><g ns0:text="$R _{\\rm{5}}$" transform="translate(149.635 -68.375) scale(4.71008)"><defs><symbol overflow="visible" id="v"><path d="M3.734-6.125c.063-.234.094-.328.282-.36.093-.015.406-.015.609-.015.703 0 1.813 0 1.813.984 0 .344-.157 1.032-.547 1.422-.266.25-.782.578-1.688.578h-1.11zm1.438 2.734c1.016-.218 2.187-.921 2.187-1.921 0-.86-.89-1.5-2.203-1.5H2.328c-.203 0-.297 0-.297.203 0 .109.094.109.281.109.016 0 .204 0 .376.016.187.03.265.03.265.171 0 .032 0 .063-.031.188L1.578-.781c-.094.39-.11.469-.906.469-.172 0-.266 0-.266.203C.406 0 .531 0 .546 0c.282 0 .985-.031 1.25-.031.282 0 1 .031 1.282.031.078 0 .188 0 .188-.203 0-.11-.079-.11-.282-.11-.359 0-.64 0-.64-.171 0-.063.015-.11.031-.172l.656-2.64H4.22c.906 0 1.078.562 1.078.905 0 .141-.078.454-.14.688-.063.281-.157.64-.157.844C5 .219 6.203.219 6.328.219c.844 0 1.203-1 1.203-1.14 0-.126-.11-.126-.125-.126-.093 0-.11.063-.125.14-.25.735-.687.907-.906.907-.328 0-.406-.219-.406-.61 0-.312.062-.812.11-1.14.015-.14.03-.328.03-.469 0-.765-.671-1.078-.937-1.172zm0 0"/></symbol><symbol overflow="visible" id="w"><path d="M1.078-3.89c.36.093.563.093.672.093.922 0 1.469-.625 1.469-.734 0-.078-.047-.094-.078-.094-.016 0-.032 0-.063.016-.172.062-.531.203-1.047.203-.203 0-.562-.016-1.015-.188-.079-.031-.094-.031-.094-.031-.094 0-.094.078-.094.188v2.046c0 .125 0 .204.11.204.062 0 .078 0 .14-.094.297-.375.734-.438.969-.438.422 0 .61.328.64.39.126.235.172.5.172.907 0 .203 0 .61-.218.922a.984.984 0 0 1-.813.422c-.453 0-.922-.25-1.094-.719.266.016.407-.156.407-.344 0-.296-.266-.343-.36-.343 0 0-.344 0-.344.375 0 .625.579 1.25 1.407 1.25.89 0 1.672-.657 1.672-1.547 0-.782-.594-1.5-1.454-1.5-.312 0-.671.062-.984.328zm0 0"/></symbol></defs><use height="1052.362" width="744.094" xlink:href="#v" x="223.432" y="134.765"/><use height="1052.362" width="744.094" xlink:href="#w" x="230.997" y="136.259"/></g></g><g ns0:text="$S_{\\rm{0}}$" transform="matrix(4.70274 0 0 4.70274 -963.754 -384.136)"><defs><symbol overflow="visible" id="x"><path d="M6.438-6.922a.12.12 0 0 0-.125-.11c-.047 0-.047.016-.172.157l-.485.563c-.25-.47-.765-.72-1.422-.72-1.265 0-2.453 1.157-2.453 2.36 0 .797.516 1.266 1.032 1.406l1.062.282c.375.093.922.25.922 1.062 0 .89-.813 1.828-1.797 1.828-.64 0-1.75-.218-1.75-1.453 0-.234.063-.484.063-.531.015-.047.015-.063.015-.078 0-.094-.062-.11-.11-.11a.142.142 0 0 0-.109.047C1.08-2.188.516.094.516.125c0 .047.046.094.109.094.047 0 .063-.016.188-.157L1.296-.5c.422.578 1.11.719 1.687.719 1.36 0 2.532-1.328 2.532-2.563 0-.687-.344-1.031-.485-1.172-.234-.218-.39-.265-1.265-.484-.235-.063-.579-.172-.672-.188a.928.928 0 0 1-.61-.906c0-.812.797-1.656 1.75-1.656.813 0 1.422.438 1.422 1.547 0 .312-.031.5-.031.562 0 0 0 .094.11.094.109 0 .124-.031.156-.203zm0 0"/></symbol><symbol overflow="visible" id="y"><path d="M3.594-2.219c0-.765-.094-1.328-.406-1.812-.22-.313-.657-.594-1.204-.594C.36-4.625.36-2.719.36-2.219c0 .5 0 2.36 1.625 2.36 1.61 0 1.61-1.86 1.61-2.36zM1.984-.063c-.328 0-.75-.187-.89-.75C1-1.219 1-1.796 1-2.313c0-.515 0-1.046.094-1.421.156-.547.593-.704.89-.704.375 0 .735.235.86.641.11.375.125.875.125 1.485 0 .515 0 1.03-.094 1.468-.14.64-.61.781-.89.781zm0 0"/></symbol></defs><use xlink:href="#x" x="223.432" y="134.765" width="744.094" height="1052.362"/><use xlink:href="#y" x="229.541" y="136.259" width="744.094" height="1052.362"/></g><path d="M401.835 1016.175a5.35 5.35 0 1 1 0-10.7 5.35 5.35 0 1 1 0 10.7z" stroke="#000" stroke-width="3.9423000000000004" stroke-linecap="round"/><g fill="none" stroke="#000" stroke-width="3" stroke-linecap="round"><path d="M518.863 550.05v32.947M500.526 566.524h32.948"/></g></g></svg>