<svg xmlns:ns0="http://www.iki.fi/pav/software/textext/" xmlns="http://www.w3.org/2000/svg" xmlns:xlink="http://www.w3.org/1999/xlink" width="1052.362" height="744.094"><title>Monostabile Kippschaltung (Stromfluss)</title><defs><marker id="q" orient="auto" overflow="visible"><path d="M2.308 0l-3.46 2v-4l3.46 2z" fill-rule="evenodd" stroke="#000" stroke-width=".4pt"/></marker><symbol id="r" overflow="visible"><path d="M6.438-6.922a.12.12 0 0 0-.125-.11c-.047 0-.047.016-.172.157l-.485.563c-.25-.47-.765-.72-1.422-.72-1.265 0-2.453 1.157-2.453 2.36 0 .797.516 1.266 1.032 1.406l1.062.282c.375.093.922.25.922 1.062 0 .89-.813 1.828-1.797 1.828-.64 0-1.75-.218-1.75-1.453 0-.234.063-.484.063-.531.015-.047.015-.063.015-.078 0-.094-.062-.11-.11-.11a.142.142 0 0 0-.109.047C1.08-2.188.516.094.516.125c0 .047.046.094.109.094.047 0 .063-.016.188-.157L1.296-.5c.422.578 1.11.719 1.687.719 1.36 0 2.532-1.328 2.532-2.563 0-.687-.344-1.031-.485-1.172-.234-.218-.39-.265-1.265-.484-.235-.063-.579-.172-.672-.188a.928.928 0 0 1-.61-.906c0-.812.797-1.656 1.75-1.656.813 0 1.422.438 1.422 1.547 0 .312-.031.5-.031.562 0 0 0 .094.11.094.109 0 .124-.031.156-.203zm0 0"/></symbol><symbol id="s" overflow="visible"><path d="M2.328-4.438c0-.187 0-.187-.203-.187-.453.438-1.078.438-1.36.438v.25c.157 0 .626 0 1-.188v3.547c0 .234 0 .328-.687.328H.812V0c.125 0 .985-.031 1.235-.031.219 0 1.094.031 1.25.031v-.25H3.03c-.703 0-.703-.094-.703-.328zm0 0"/></symbol><linearGradient id="d"><stop offset="0" stop-opacity="0"/><stop offset="1" stop-color="#fff"/></linearGradient><linearGradient id="e"><stop offset="0" stop-color="#fff"/><stop offset="1" stop-color="#fff" stop-opacity="0"/></linearGradient><linearGradient id="f"><stop offset="0" stop-color="#1a1a1a" stop-opacity=".828"/><stop offset="1" stop-color="#fff"/></linearGradient><linearGradient id="a"><stop offset="0" stop-opacity="0"/><stop offset="1" stop-color="#fff"/></linearGradient><linearGradient id="b"><stop offset="0" stop-color="#ebebeb"/><stop offset="1" stop-color="#fff" stop-opacity="0"/></linearGradient><linearGradient id="c"><stop offset="0" stop-color="#0e0e0e" stop-opacity=".746"/><stop offset="1" stop-color="#fff"/></linearGradient><pattern id="g" height="5.181" width="30.066" patternUnits="userSpaceOnUse"><path d="M7.597.061C5.079-.187 2.656.302-.01 1.788v1.273c2.783-1.63 5.183-2.009 7.482-1.781 2.298.228 4.497 1.081 6.781 1.938 4.567 1.713 9.551 3.458 15.813-.157l-.004-1.273c-6.44 3.709-10.816 1.982-15.371.273-2.278-.854-4.576-1.75-7.094-2z"/></pattern><pattern xlink:href="#g" id="h" patternTransform="translate(.25)"/><pattern patternTransform="translate(.25)" id="j" xlink:href="#i"/><pattern patternUnits="userSpaceOnUse" width="30.066" height="5.181" id="i"><path d="M7.597.061C5.079-.187 2.656.302-.01 1.788v1.273c2.783-1.63 5.183-2.009 7.482-1.781 2.298.228 4.497 1.081 6.781 1.938 4.567 1.713 9.551 3.458 15.813-.157l-.004-1.273c-6.44 3.709-10.816 1.982-15.371.273-2.278-.854-4.576-1.75-7.094-2z"/></pattern><linearGradient id="k"><stop offset="0" stop-color="#0e0e0e" stop-opacity=".746"/><stop offset="1" stop-color="#fff"/></linearGradient><linearGradient id="l"><stop offset="0" stop-color="#ebebeb"/><stop offset="1" stop-color="#fff" stop-opacity="0"/></linearGradient><linearGradient id="m"><stop offset="0" stop-opacity="0"/><stop offset="1" stop-color="#fff"/></linearGradient><linearGradient id="n"><stop offset="0" stop-color="#1a1a1a" stop-opacity=".828"/><stop offset="1" stop-color="#fff"/></linearGradient><linearGradient id="o"><stop offset="0" stop-color="#fff"/><stop offset="1" stop-color="#fff" stop-opacity="0"/></linearGradient><linearGradient id="p"><stop offset="0" stop-opacity="0"/><stop offset="1" stop-color="#fff"/></linearGradient></defs><path style="marker:none" color="#000" fill="#fff" stroke="#fff" stroke-width="2.033" stroke-linecap="round" stroke-linejoin="round" overflow="visible" d="M1646.582-5029.103h3638.472v2466.155H1646.582z"/><g><path style="marker:none" color="#000" fill="#fff" stroke="#fff" stroke-linecap="round" stroke-linejoin="round" overflow="visible" d="M0 0h1052.362v372.047H0z"/><path d="M47.688 100.67l3.07 5.317 3.07 5.317h-12.28l3.07-5.317z" fill="teal" stroke="teal" stroke-width=".9562134000000001"/><path d="M73.076 923.572h452.452" fill="none" stroke-width="1.755" stroke-linecap="round" transform="matrix(.93625 0 0 .3203 -20.73 -264.31)" stroke="#000"/><path d="M366.757 31.508H261.613" fill="none" stroke="teal" stroke-width="1.913" stroke-linecap="round"/><path d="M319.502 31.509l-5.317 3.07-5.317 3.069v-12.28l5.317 3.07z" fill="teal" stroke="teal" stroke-width=".9562134000000001"/><g stroke="teal" stroke-width="6.261"><g stroke-width="7.037" fill="none" stroke-linecap="round"><path d="M893.302 1257.256v-200.939M869.468 1120.08v73.413" transform="matrix(0 -.31944 .25288 0 -244.84 467.512)"/></g><g fill="none" stroke-linecap="round" stroke-width="1.861"><path d="M28.155 160.763v10.553M22.281 166.04h10.553" stroke-width="2.00031446"/></g><path d="M28.155 200.732v10.553" fill="none" stroke-linecap="round" stroke-width="2.0000138400000003"/></g><g stroke="teal" stroke-width="6.244"><g fill="none"><g stroke-width="1.659"><path style="marker:none" d="M435.827 100.866c0 5.87-6.346 10.63-14.173 10.63-7.828 0-14.174-4.76-14.174-10.63 0-5.87 6.346-10.63 14.174-10.63 7.827 0 14.173 4.76 14.173 10.63z" transform="matrix(-1.20584 0 0 1.60778 971.485 115.601)" color="#000" stroke-width="1.436" stroke-linecap="square" overflow="visible"/><path d="M458.765 277.772h-93.638" stroke-width=".9996413599999999" stroke-linecap="round"/><path d="M458.765 286.318v-17.091M458.861 273.401l12.722-8.447v-1.498" stroke-linecap="round" stroke-width="2.00048856"/><path d="M458.713 281.993l12.87 8.597v1.5" stroke-linecap="round" stroke-linejoin="round" stroke-width="2.00048856"/></g><path d="M241.162 980.596l34.74 23.207" marker-end="url(#q)" transform="matrix(.3203 0 0 .3203 381.473 -32.087)"/></g><path d="M471.576 262.936l.095-46.954M471.488 340.539l.095-48.45" fill="none" stroke-linecap="round" stroke-width="1.9999531999999998"/></g><path d="M471.623 215.41v-36.182" fill="none" stroke="#000" stroke-width=".961" stroke-linecap="round"/><g fill="none" stroke="teal" stroke-width="6.244"><path d="M471.66 153.594l-12.566-22.216h25.13l-12.565 22.216z" stroke-linecap="square" stroke-width="1.9999531999999998"/><path d="M483.898 154.971H459.42" stroke-linecap="round" stroke-width="1.9999531999999998"/><path d="M695.75 614.612l45.47-45.47M716.5 626.362l45.47-45.47" stroke-width="3.122" stroke-linecap="round" marker-end="url(#q)" transform="rotate(90 385.451 299.418) scale(.3203)"/><g stroke-linecap="round"><path d="M471.66 107.245v24.133M471.623 154.971v24.134" stroke-width="1.9999531999999998"/></g></g><path fill="none" stroke-linecap="round" d="M480.406 90.398H461.56v-45.92h18.846z" stroke="teal" stroke-width="1.9999531999999998"/><g stroke="#000"><g fill="none"><g stroke-width="1.639"><path transform="matrix(1.20584 0 0 1.60778 -346.41 115.315)" d="M435.827 100.866c0 5.87-6.346 10.63-14.173 10.63-7.828 0-14.174-4.76-14.174-10.63 0-5.87 6.346-10.63 14.174-10.63 7.827 0 14.173 4.76 14.173 10.63z" style="marker:none" color="#000" stroke-width=".69" stroke-linecap="square" overflow="visible"/><path d="M166.309 277.487h17.09M166.309 286.032v-17.09M166.213 273.116l-12.722-8.447v-1.5" stroke-width=".96105448" stroke-linecap="round"/><path d="M166.36 281.707l-12.87 8.598v8.545" stroke-width=".96105448" stroke-linecap="round" stroke-linejoin="round"/></g><path d="M241.162 980.596l34.74 23.207" stroke-width="3.019" marker-end="url(#q)" transform="matrix(-.3203 0 0 .3203 243.601 -32.372)"/></g><path d="M153.498 262.65l-.095-46.953" fill="none" stroke-width=".9608999999999999" stroke-linecap="round"/></g><path d="M153.404 217.41a1.714 1.714 0 1 1 0-3.427 1.714 1.714 0 0 1 0 3.427z" fill="teal" stroke="teal" stroke-width="1.2627" stroke-linecap="round"/><path d="M153.404 107.047V89.77" fill="none" stroke="teal" stroke-width=".961" stroke-linecap="round"/><g stroke-width="3" fill="none" stroke="teal"><path d="M153.367 153.594l12.566-22.216h-25.131l12.565 22.216z" stroke-linecap="square" stroke-width=".9608999999999999"/><path d="M141.128 154.971h24.478" stroke-linecap="round" stroke-width=".9608999999999999"/><path d="M695.75 614.612l45.47-45.47M716.5 626.362l45.47-45.47" stroke-linecap="round" marker-end="url(#q)" transform="matrix(0 .3203 .3203 0 -59.84 -86.03)"/><g stroke-linecap="round"><path d="M153.367 107.245v24.133M153.404 154.971v24.134" stroke-width=".9608999999999999"/></g></g><path fill="none" stroke="teal" stroke-width=".961" stroke-linecap="round" d="M162.569 89.771h-18.331V45.106h18.331zM153.404 214.17v-35.065"/><path d="M73.076 923.572h452.35" fill="none" stroke-width="1.753" stroke-linecap="round" transform="matrix(.9372 0 0 .32072 -20.938 44.327)" stroke="#000"/><path d="M153.396 340.322l.095-48.45M183.4 277.487l76.5.095" fill="none" stroke="#000" stroke-width=".961" stroke-linecap="round"/><path d="M365.127 277.772L259.9 215.697" fill="none" stroke="teal" stroke-width=".961"/><path d="M259.9 277.772l105.227-62.075" fill="none" stroke="#000" stroke-width=".961"/><path d="M47.688 182.154v-53.773" fill="none" stroke="#000" stroke-width=".961" stroke-linecap="round"/><path d="M47.688 31.508v150.17" fill="none" stroke="teal" stroke-width="1.913" stroke-linecap="round"/><path d="M47.548 340.414V189.768M471.296 44.478v-12.97M471.66 107.245V90.399" fill="none" stroke="#000" stroke-width=".961" stroke-linecap="round"/><path d="M153.404 45.106V31.508" fill="none" stroke="teal" stroke-width=".961" stroke-linecap="round"/><path d="M153.404 33.222a1.714 1.714 0 1 1 0-3.427 1.714 1.714 0 0 1 0 3.427z" fill="teal" stroke="teal" stroke-width="1.2627" stroke-linecap="round"/><g ns0:text="$R _{\\rm{1}}$" fill="teal"><path d="M170.397 64.839c.094-.354.142-.495.424-.542.142-.024.613-.024.92-.024 1.06 0 2.734 0 2.734 1.485 0 .519-.236 1.556-.825 2.145-.4.377-1.179.872-2.546.872h-1.673zm2.169 4.125c1.532-.33 3.3-1.39 3.3-2.9 0-1.296-1.344-2.262-3.324-2.262h-4.266c-.307 0-.448 0-.448.306 0 .165.141.165.424.165.024 0 .306 0 .566.024.283.047.4.047.4.259 0 .047 0 .094-.047.283l-2.027 8.061c-.141.59-.165.708-1.367.708-.26 0-.4 0-.4.306 0 .165.188.165.211.165.425 0 1.485-.047 1.886-.047.424 0 1.509.047 1.933.047.118 0 .283 0 .283-.306 0-.165-.118-.165-.424-.165-.543 0-.967 0-.967-.26 0-.094.024-.165.047-.259l.99-3.984h1.792c1.367 0 1.626.849 1.626 1.367 0 .213-.118.684-.212 1.038-.094.424-.236.966-.236 1.273 0 1.626 1.816 1.626 2.004 1.626 1.273 0 1.815-1.509 1.815-1.72 0-.19-.165-.19-.188-.19-.142 0-.165.095-.189.213-.377 1.108-1.037 1.367-1.367 1.367-.495 0-.613-.33-.613-.92 0-.47.094-1.225.165-1.72.024-.212.047-.495.047-.707 0-1.155-1.014-1.627-1.414-1.768zm0 0M179.688 69.638c0-.282 0-.282-.306-.282-.684.66-1.627.66-2.05.66v.377c.235 0 .942 0 1.508-.283v5.35c0 .354 0 .496-1.037.496h-.401v.377c.188 0 1.485-.047 1.862-.047.33 0 1.65.047 1.886.047v-.377h-.4c-1.062 0-1.062-.142-1.062-.495zm0 0"/></g><g ns0:text="$R _{\\rm{2}}$" fill="teal"><path d="M277.344 64.839c.095-.354.142-.495.425-.542.141-.024.613-.024.92-.024 1.06 0 2.734 0 2.734 1.485 0 .519-.236 1.556-.826 2.145-.4.377-1.178.872-2.545.872h-1.674zm2.17 4.125c1.531-.33 3.3-1.39 3.3-2.9 0-1.296-1.344-2.262-3.324-2.262h-4.267c-.306 0-.448 0-.448.306 0 .165.142.165.424.165.024 0 .307 0 .566.024.283.047.4.047.4.259 0 .047 0 .094-.046.283l-2.027 8.061c-.142.59-.165.708-1.368.708-.259 0-.4 0-.4.306 0 .165.188.165.212.165.424 0 1.485-.047 1.886-.047.424 0 1.508.047 1.932.047.118 0 .283 0 .283-.306 0-.165-.118-.165-.424-.165-.542 0-.966 0-.966-.26 0-.094.023-.165.047-.259l.99-3.984h1.791c1.367 0 1.627.849 1.627 1.367 0 .213-.118.684-.212 1.038-.095.424-.236.966-.236 1.273 0 1.626 1.815 1.626 2.003 1.626 1.273 0 1.816-1.509 1.816-1.72 0-.19-.165-.19-.189-.19-.141 0-.165.095-.189.213-.377 1.108-1.037 1.367-1.367 1.367-.495 0-.613-.33-.613-.92 0-.47.095-1.225.165-1.72.024-.212.047-.495.047-.707 0-1.155-1.013-1.627-1.414-1.768zm0 0M288.427 74.424h-.353c-.024.235-.142.848-.283.942-.07.071-.872.071-1.037.071h-1.933a58.335 58.335 0 0 1 2.098-1.768c.777-.613 1.508-1.273 1.508-2.263 0-1.273-1.108-2.05-2.451-2.05-1.297 0-2.193.919-2.193 1.885 0 .519.448.59.566.59a.552.552 0 0 0 .542-.566c0-.189-.07-.566-.613-.566.33-.73 1.038-.966 1.533-.966 1.06 0 1.603.825 1.603 1.673 0 .92-.66 1.627-.99 2.004l-2.523 2.522c-.118.094-.118.118-.118.4h4.338zm0 0"/></g><g ns0:text="$R _{\\rm{3}}$"><path d="M382.839 64.733c.094-.354.141-.495.424-.543.142-.023.613-.023.92-.023 1.06 0 2.734 0 2.734 1.485 0 .519-.236 1.556-.825 2.145-.4.377-1.179.872-2.546.872h-1.674zm2.169 4.125c1.532-.33 3.3-1.391 3.3-2.9 0-1.296-1.344-2.263-3.324-2.263h-4.267c-.306 0-.447 0-.447.307 0 .165.14.165.424.165.023 0 .306 0 .566.023.282.048.4.048.4.26 0 .047 0 .094-.047.283l-2.027 8.061c-.142.59-.165.708-1.367.708-.26 0-.401 0-.401.306 0 .165.189.165.212.165.424 0 1.485-.047 1.886-.047.424 0 1.509.047 1.933.047.118 0 .283 0 .283-.306 0-.165-.118-.165-.425-.165-.542 0-.966 0-.966-.26 0-.094.024-.165.047-.26l.99-3.983h1.792c1.367 0 1.626.849 1.626 1.367 0 .213-.118.684-.212 1.038-.094.424-.236.966-.236 1.272 0 1.627 1.815 1.627 2.004 1.627 1.273 0 1.815-1.509 1.815-1.72 0-.19-.165-.19-.189-.19-.141 0-.165.095-.188.213-.377 1.108-1.037 1.367-1.367 1.367-.495 0-.613-.33-.613-.92 0-.47.094-1.225.165-1.72.023-.212.047-.495.047-.707 0-1.155-1.014-1.627-1.414-1.768zm0 0M391.494 72.715c.825 0 1.414.565 1.414 1.697 0 1.296-.778 1.697-1.367 1.697-.424 0-1.367-.118-1.792-.754.495 0 .613-.354.613-.59 0-.33-.26-.565-.59-.565-.282 0-.588.188-.588.613 0 .99 1.084 1.626 2.357 1.626 1.461 0 2.475-.99 2.475-2.027 0-.825-.66-1.65-1.815-1.886 1.084-.4 1.485-1.179 1.485-1.839 0-.825-.943-1.438-2.122-1.438-1.155 0-2.05.566-2.05 1.415 0 .353.235.542.542.542.33 0 .542-.236.542-.519 0-.306-.212-.542-.542-.565.377-.448 1.084-.566 1.485-.566.471 0 1.131.236 1.131 1.131 0 .448-.141.943-.424 1.25-.33.4-.636.424-1.155.471-.26.024-.283.024-.33.024-.024 0-.118.023-.118.141 0 .142.094.142.283.142zm0 0"/></g><g ns0:text="$R _{\\rm{4}}$" fill="teal"><path d="M488.62 64.839c.095-.354.142-.495.425-.542.142-.024.613-.024.92-.024 1.06 0 2.734 0 2.734 1.485 0 .519-.236 1.556-.825 2.145-.4.377-1.179.872-2.546.872h-1.674zm2.17 4.125c1.532-.33 3.3-1.39 3.3-2.9 0-1.296-1.344-2.262-3.324-2.262h-4.267c-.306 0-.447 0-.447.306 0 .165.141.165.424.165.023 0 .306 0 .566.024.282.047.4.047.4.259 0 .047 0 .094-.047.283l-2.027 8.061c-.141.59-.165.708-1.367.708-.26 0-.401 0-.401.306 0 .165.189.165.212.165.424 0 1.485-.047 1.886-.047.424 0 1.509.047 1.933.047.118 0 .283 0 .283-.306 0-.165-.118-.165-.425-.165-.542 0-.966 0-.966-.26 0-.094.024-.165.047-.259l.99-3.984h1.792c1.367 0 1.626.849 1.626 1.367 0 .213-.118.684-.212 1.038-.094.424-.236.966-.236 1.273 0 1.626 1.815 1.626 2.004 1.626 1.273 0 1.815-1.509 1.815-1.72 0-.19-.165-.19-.189-.19-.141 0-.165.095-.188.213-.377 1.108-1.037 1.367-1.367 1.367-.495 0-.613-.33-.613-.92 0-.47.094-1.225.165-1.72.023-.212.047-.495.047-.707 0-1.155-1.014-1.627-1.414-1.768zm0 0M499.963 74.612v-.377h-1.179v-4.69c0-.213 0-.307-.212-.307-.141 0-.188 0-.283.165l-3.488 4.832v.377h3.111v.849c0 .377 0 .495-.872.495h-.283v.377a44.376 44.376 0 0 1 1.58-.047c.4 0 1.06.023 1.602.047v-.377h-.283c-.872 0-.872-.118-.872-.495v-.849zm-1.98-4.22v3.843H495.2zm0 0"/></g><g ns0:text="$T _{\\rm{2}}$" fill="teal"><path d="M490.299 272.614c.118-.424.165-.518.353-.566.142-.023.637-.023.943-.023 1.532 0 2.192.047 2.192 1.226 0 .235-.047.825-.117 1.202 0 .07-.048.235-.048.283 0 .094.048.212.189.212.165 0 .189-.118.236-.354l.4-2.616c.024-.071.024-.212.024-.26 0-.165-.141-.165-.4-.165h-8.345c-.354 0-.377.024-.495.307l-.896 2.64c0 .023-.094.236-.094.283 0 .07.094.165.188.165.142 0 .165-.095.26-.33.8-2.334 1.202-2.593 3.417-2.593h.59c.424 0 .424.047.424.188 0 .071-.047.26-.07.307l-2.004 8.038c-.142.542-.189.707-1.792.707-.542 0-.636 0-.636.283 0 .189.165.189.26.189.4 0 .824-.024 1.225-.024.424 0 .872-.024 1.296-.024.425 0 .825.024 1.25.024.424 0 .872.024 1.296.024.142 0 .33 0 .33-.307 0-.165-.118-.165-.518-.165-.354 0-.566 0-.943-.023-.448-.048-.566-.095-.566-.33 0-.024 0-.095.07-.307zm0 0M497.974 282.081h-.354c-.023.236-.141.849-.282.943-.071.07-.873.07-1.038.07h-1.933a58.335 58.335 0 0 1 2.098-1.767c.778-.613 1.509-1.273 1.509-2.263 0-1.273-1.108-2.05-2.452-2.05-1.296 0-2.192.918-2.192 1.885 0 .518.448.59.566.59a.552.552 0 0 0 .542-.567c0-.188-.07-.565-.613-.565.33-.731 1.037-.967 1.532-.967 1.061 0 1.603.825 1.603 1.674 0 .92-.66 1.626-.99 2.004l-2.522 2.522c-.118.094-.118.118-.118.4h4.338zm0 0"/></g><g ns0:text="$T _{\\rm{1}}$"><path d="M132.862 272.328c.118-.424.165-.518.353-.565.142-.024.637-.024.943-.024 1.533 0 2.193.047 2.193 1.226 0 .236-.048.825-.118 1.202 0 .07-.047.236-.047.283 0 .094.047.212.188.212.165 0 .189-.118.236-.353l.4-2.617c.024-.07.024-.212.024-.26 0-.164-.141-.164-.4-.164h-8.345c-.354 0-.377.023-.495.306l-.896 2.64c0 .024-.094.236-.094.283 0 .07.094.165.188.165.142 0 .165-.094.26-.33.801-2.334 1.202-2.593 3.418-2.593h.589c.424 0 .424.047.424.189 0 .07-.047.26-.07.306l-2.004 8.038c-.142.543-.189.708-1.792.708-.542 0-.636 0-.636.282 0 .189.165.189.26.189.4 0 .824-.024 1.225-.024.424 0 .872-.023 1.296-.023.425 0 .825.023 1.25.023.424 0 .872.024 1.296.024.142 0 .33 0 .33-.306 0-.165-.118-.165-.518-.165-.354 0-.566 0-.943-.024-.448-.047-.566-.094-.566-.33 0-.024 0-.094.07-.307zm0 0M138.746 277.01c0-.283 0-.283-.307-.283-.683.66-1.626.66-2.05.66v.378c.235 0 .942 0 1.508-.283v5.35c0 .354 0 .496-1.037.496h-.4v.377c.188 0 1.484-.047 1.861-.047.33 0 1.65.047 1.886.047v-.377h-.4c-1.061 0-1.061-.142-1.061-.495zm0 0"/></g><g ns0:text="$D _{\\rm{1}}$" fill="teal"><path d="M170.988 145.32c-.142.588-.165.706-1.368.706-.235 0-.4 0-.4.283 0 .189.118.189.4.189h4.998c3.111 0 6.081-3.183 6.081-6.46 0-2.12-1.272-3.818-3.535-3.818h-5.045c-.283 0-.448 0-.448.283 0 .189.118.189.425.189.188 0 .471.023.636.023.26.047.33.07.33.26 0 .047 0 .094-.047.282zm3.253-8.063c.141-.518.165-.565.825-.565h1.603c1.461 0 2.71.801 2.71 2.781 0 .73-.282 3.206-1.579 4.856-.424.566-1.603 1.697-3.465 1.697h-2.027c-.142-.023-.189-.047-.189-.165 0-.047 0-.07.07-.33zm0 0M184.562 142.057c0-.283 0-.283-.306-.283-.684.66-1.627.66-2.05.66v.377c.235 0 .942 0 1.508-.282v5.35c0 .354 0 .495-1.037.495h-.401v.378c.188 0 1.485-.048 1.862-.048.33 0 1.65.048 1.886.048v-.378h-.401c-1.06 0-1.06-.141-1.06-.495zm0 0"/></g><g ns0:text="$D _{\\rm{2}}$" fill="teal"><path d="M439.057 145.32c-.142.588-.165.706-1.368.706-.235 0-.4 0-.4.283 0 .189.118.189.4.189h4.998c3.111 0 6.081-3.183 6.081-6.46 0-2.12-1.272-3.818-3.535-3.818h-5.045c-.283 0-.448 0-.448.283 0 .189.118.189.425.189.188 0 .471.023.636.023.26.047.33.07.33.26 0 .047 0 .094-.047.282zm3.253-8.063c.141-.518.165-.565.825-.565h1.603c1.461 0 2.71.801 2.71 2.781 0 .73-.282 3.206-1.579 4.856-.424.566-1.603 1.697-3.465 1.697h-2.027c-.142-.023-.189-.047-.189-.165 0-.047 0-.07.07-.33zm0 0M454.423 146.842h-.354c-.023.236-.141.849-.283.943-.07.07-.872.07-1.037.07h-1.933a58.335 58.335 0 0 1 2.098-1.767c.778-.613 1.509-1.273 1.509-2.263 0-1.273-1.108-2.05-2.452-2.05-1.296 0-2.192.919-2.192 1.885 0 .519.448.59.566.59a.552.552 0 0 0 .542-.566c0-.189-.07-.566-.613-.566.33-.73 1.037-.967 1.532-.967 1.061 0 1.603.825 1.603 1.674 0 .92-.66 1.626-.99 2.004l-2.522 2.522c-.118.094-.118.118-.118.4h4.337zm0 0"/></g><path fill="none" stroke="#000" stroke-width=".961" stroke-linecap="round" d="M440.708 206.531v18.331h-44.665v-18.331zM365.127 215.697h30.916M440.708 215.41h30.915"/><g stroke="#000" stroke-linecap="round"><path d="M366.025 173.668v-16.562" fill="none" stroke-width=".96077184"/><path d="M366.025 158.592a1.486 1.486 0 1 1 0-2.972 1.486 1.486 0 0 1 0 2.972z" stroke-width="1.262754"/></g><path d="M365.886 129.351a1.486 1.486 0 1 1 0-2.972 1.486 1.486 0 0 1 0 2.972z" stroke="#000" stroke-width="1.262754" stroke-linecap="round"/><path d="M365.886 111.304v16.561" fill="none" stroke="#000" stroke-width=".96077184" stroke-linecap="round"/><g stroke="#000" stroke-width="3.459" stroke-linecap="round"><path d="M373.149 128.291v28.39" fill="#0000de" stroke-width=".96077184"/><path d="M387.884 142.486h-14.735" fill="none" stroke-width=".96077184"/></g><path d="M259.9 217.41a1.714 1.714 0 1 1 0-3.427 1.714 1.714 0 0 1 0 3.427z" fill="teal" stroke="teal" stroke-width="1.2627" stroke-linecap="round"/><path d="M366.025 213.983v-40.315" fill="none" stroke="#000" stroke-width=".961" stroke-linecap="round"/><path d="M366.025 217.41a1.714 1.714 0 1 1 0-3.427 1.714 1.714 0 0 1 0 3.427z" stroke="#000" stroke-width="1.2627" stroke-linecap="round"/><path fill="none" stroke="teal" stroke-width=".961" stroke-linecap="round" d="M269.065 89.771h-18.331V45.106h18.331z"/><path fill="none" stroke="#000" stroke-width=".961" stroke-linecap="round" d="M375.052 89.771h-18.331V45.106h18.331zM365.886 45.106V31.508"/><path d="M365.886 33.222a1.714 1.714 0 1 1 0-3.427 1.714 1.714 0 0 1 0 3.427z" fill="teal" stroke="teal" stroke-width="1.2627" stroke-linecap="round"/><path d="M259.9 45.106V31.508" fill="none" stroke="teal" stroke-width=".961" stroke-linecap="round"/><path d="M259.9 33.222a1.714 1.714 0 1 1 0-3.427 1.714 1.714 0 0 1 0 3.427z" fill="teal" stroke="teal" stroke-width="1.2627" stroke-linecap="round"/><path d="M365.886 111.304V89.77" fill="none" stroke="#000" stroke-width=".961" stroke-linecap="round"/><path d="M259.9 213.983V89.904" fill="none" stroke="teal" stroke-width=".961" stroke-linecap="round"/><path d="M155.117 31.508H47.688" fill="none" stroke="teal" stroke-width="1.913" stroke-linecap="round"/><path d="M106.72 31.509l-5.317 3.07-5.318 3.069v-12.28l5.318 3.07zM211.88 31.509l-5.317 3.07-5.317 3.069v-12.28l5.317 3.07zM47.549 259.532l3.07 5.317 3.069 5.317h-12.28l3.07-5.317z" fill="teal" stroke="teal" stroke-width=".9562134000000001"/><path d="M47.548 190.37v150.169M471.536 339.98v-47.331M471.67 262.173v-46.19" fill="none" stroke="teal" stroke-width="1.913" stroke-linecap="round"/><path d="M471.536 321.631l3.07-5.317 3.07-5.317h-12.28l3.07 5.317zM471.67 244.395l3.07-5.317 3.07-5.317h-12.279l3.07 5.317z" fill="teal" stroke="teal" stroke-width=".9562134000000001"/><path d="M471.783 31.508H367.6" fill="none" stroke="teal" stroke-width="1.913" stroke-linecap="round"/><path d="M425.008 31.509l-5.317 3.07-5.317 3.069v-12.28l5.317 3.07z" fill="teal" stroke="teal" stroke-width=".9562134000000001"/><path d="M471.747 213.681v-58.914" fill="none" stroke="teal" stroke-width="1.913" stroke-linecap="round"/><path d="M471.623 217.125a1.714 1.714 0 1 1 0-3.428 1.714 1.714 0 0 1 0 3.428z" fill="teal" stroke="teal" stroke-width="1.2627" stroke-linecap="round"/><path d="M471.747 130.038V90.512M471.783 44.282V31.508" fill="none" stroke="teal" stroke-width="1.913" stroke-linecap="round"/><path d="M471.747 115.592l3.07-5.317 3.07-5.317h-12.28l3.07 5.317zM471.747 189.541l3.07-5.317 3.07-5.317h-12.28l3.07 5.317zM411.831 277.582l-5.317 3.07-5.317 3.069v-12.279l5.318 3.07z" fill="teal" stroke="teal" stroke-width=".9562134000000001"/><g fill="teal" stroke="teal" stroke-width="1.635"><path d="M339.17 255.536l3.07 5.317 3.07 5.317h-12.28l3.07-5.317zM285.982 223.92l-3.07 5.317-3.07 5.317h12.28l-3.07-5.317z" stroke-width=".9562134000000001"/></g><path d="M47.548 340.539h105.145" fill="none" stroke="teal" stroke-width="1.913" stroke-linecap="round"/><path d="M94.803 340.54l5.318 3.069 5.317 3.07v-12.28l-5.318 3.07z" fill="teal" stroke="teal" stroke-width=".9562134000000001"/><g ns0:text="$S _{\\rm{1}}$"><use height="744.094" width="1052.362" y="134.765" x="223.432" xlink:href="#r" transform="matrix(1.50863 0 0 1.50863 9.417 -56.648)"/><use height="744.094" width="1052.362" y="136.259" x="229.541" xlink:href="#s" transform="matrix(1.50863 0 0 1.50863 9.417 -56.648)"/></g><path d="M153.96 340.539h317.528" fill="none" stroke="teal" stroke-width="1.913" stroke-linecap="round"/><path d="M153.311 342.253a1.714 1.714 0 1 1 0-3.428 1.714 1.714 0 0 1 0 3.428z" fill="teal" stroke="teal" stroke-width="1.2627" stroke-linecap="round"/><path d="M307.407 340.54l5.317 3.069 5.317 3.07v-12.28l-5.317 3.07z" fill="teal" stroke="teal" stroke-width=".9562134000000001"/><path d="M260.278 31.508h-107.43" fill="none" stroke="teal" stroke-width="1.913" stroke-linecap="round"/><path d="M259.9 157.26l3.07-5.316 3.069-5.317h-12.28l3.07 5.317zM573.87 100.67l3.069 5.317 3.07 5.317h-12.28l3.07-5.317z" fill="teal" stroke="teal" stroke-width=".9562134000000001"/><g stroke="teal" stroke-width="3.702"><path d="M73.076 923.572h452.452" fill="none" stroke-linecap="round" transform="matrix(.2278 0 0 .3203 664.652 -264.31)"/></g><path d="M845.683 31.509l-5.317 3.07-5.317 3.069v-12.28l5.317 3.07z" fill="teal" stroke="teal" stroke-width=".9562134000000001"/><g stroke="teal"><g fill="none" stroke-width="3.381" stroke-linecap="round"><path d="M893.302 1257.256v-200.939M869.468 1120.08v73.413" transform="matrix(0 -.31944 .25288 0 281.34 467.512)"/></g><g fill="none" stroke-width=".894" stroke-linecap="round"><path d="M554.336 160.763v10.553M548.462 166.04h10.553" stroke-width=".96092484"/></g><path d="M554.336 200.732v10.553" fill="none" stroke-width=".96087552" stroke-linecap="round"/></g><g fill="none" stroke="#000"><g stroke-width="1.639"><path transform="matrix(-1.20584 0 0 1.60778 1497.666 115.601)" d="M435.827 100.866c0 5.87-6.346 10.63-14.173 10.63-7.828 0-14.174-4.76-14.174-10.63 0-5.87 6.346-10.63 14.174-10.63 7.827 0 14.173 4.76 14.173 10.63z" style="marker:none" color="#000" stroke-width=".69" stroke-linecap="square" overflow="visible"/><path d="M984.946 277.772H891.31M984.946 286.318v-17.091M985.042 273.401l12.722-8.447v-1.499" stroke-width=".96105448" stroke-linecap="round"/><path d="M984.894 281.993l12.87 8.597v1.5" stroke-width=".96105448" stroke-linecap="round" stroke-linejoin="round"/></g><path d="M241.162 980.596l34.74 23.207" stroke-width="3.019" marker-end="url(#q)" transform="matrix(.3203 0 0 .3203 907.654 -32.087)"/></g><path d="M997.757 262.936l.095-46.954M997.67 340.539l.094-48.45" fill="none" stroke="#000" stroke-width=".9608999999999999" stroke-linecap="round"/><path d="M997.804 215.41v-36.182" fill="none" stroke="teal" stroke-width=".961" stroke-linecap="round"/><g stroke-width="3" fill="none" stroke="teal"><path d="M997.84 153.594l-12.565-22.216h25.13l-12.565 22.216z" stroke-linecap="square" stroke-width=".9608999999999999"/><path d="M1010.08 154.971H985.6" stroke-linecap="round" stroke-width=".9608999999999999"/><path d="M695.75 614.612l45.47-45.47M716.5 626.362l45.47-45.47" stroke-linecap="round" marker-end="url(#q)" transform="rotate(90 648.544 562.508) scale(.3203)"/><g stroke-linecap="round"><path d="M997.84 107.245v24.133M997.804 154.971v24.134" stroke-width=".9608999999999999"/></g></g><path fill="none" stroke-width=".9608999999999999" stroke-linecap="round" d="M1006.587 90.398h-18.846v-45.92h18.846z" stroke="teal"/><path d="M679.585 217.41a1.714 1.714 0 1 1 0-3.427 1.714 1.714 0 0 1 0 3.427z" fill="teal" stroke="teal" stroke-width="1.2627" stroke-linecap="round"/><g stroke="teal" stroke-width="6.244"><g fill="none"><g stroke-width="1.659"><path style="marker:none" d="M435.827 100.866c0 5.87-6.346 10.63-14.173 10.63-7.828 0-14.174-4.76-14.174-10.63 0-5.87 6.346-10.63 14.174-10.63 7.827 0 14.173 4.76 14.173 10.63z" transform="matrix(1.20584 0 0 1.60778 179.77 115.315)" color="#000" stroke-width="1.436" stroke-linecap="square" overflow="visible"/><path d="M692.49 277.487h17.09M692.49 286.032v-17.09M692.394 273.116l-12.722-8.447v-1.5" stroke-linecap="round" stroke-width="2.00048856"/><path d="M692.542 281.707l-12.87 8.598v8.545" stroke-linecap="round" stroke-linejoin="round" stroke-width="2.00048856"/></g><path d="M241.162 980.596l34.74 23.207" marker-end="url(#q)" transform="matrix(-.3203 0 0 .3203 769.783 -32.372)"/></g><path d="M679.68 262.65l-.095-46.953" fill="none" stroke-linecap="round" stroke-width="1.9999531999999998"/></g><path d="M679.585 107.047V89.77" fill="none" stroke="#000" stroke-width=".961" stroke-linecap="round"/><g fill="none" stroke="teal" stroke-width="6.244"><path d="M679.548 153.594l12.566-22.216h-25.13l12.564 22.216z" stroke-linecap="square" stroke-width="1.9999531999999998"/><path d="M667.31 154.971h24.477" stroke-linecap="round" stroke-width="1.9999531999999998"/><path d="M695.75 614.612l45.47-45.47M716.5 626.362l45.47-45.47" stroke-width="3.122" stroke-linecap="round" marker-end="url(#q)" transform="matrix(0 .3203 .3203 0 466.341 -86.03)"/><g stroke-linecap="round"><path d="M679.548 107.245v24.133M679.585 154.971v24.134" stroke-width="1.9999531999999998"/></g></g><path fill="none" stroke="teal" stroke-width="2" stroke-linecap="round" d="M688.75 89.771h-18.331V45.106h18.331z"/><path d="M679.585 214.17v-35.065" fill="none" stroke="#000" stroke-width=".961" stroke-linecap="round"/><path d="M73.076 923.572h452.35" fill="none" stroke-width="1.753" stroke-linecap="round" transform="matrix(.9372 0 0 .32072 505.243 44.327)" stroke="#000"/><path d="M679.577 340.322l.095-48.45" fill="none" stroke="#000" stroke-width=".961" stroke-linecap="round"/><path d="M709.58 277.487l76.5.095" fill="none" stroke="teal" stroke-width=".961" stroke-linecap="round"/><path d="M891.308 277.772L786.08 215.697" fill="none" stroke="#000" stroke-width=".961"/><path d="M786.08 277.772l105.228-62.075" fill="none" stroke="teal" stroke-width=".961"/><path d="M573.87 182.154v-53.773" fill="none" stroke="#000" stroke-width=".961" stroke-linecap="round"/><path d="M573.869 31.508v150.17" fill="none" stroke="teal" stroke-width="2" stroke-linecap="round"/><path d="M573.73 340.414V189.768" fill="none" stroke="#000" stroke-width=".961" stroke-linecap="round"/><path d="M997.477 44.478v-12.97M997.84 107.245V90.399" fill="none" stroke="teal" stroke-width=".961" stroke-linecap="round"/><path d="M73.076 923.572h452.452" fill="none" stroke-width="3.541" stroke-linecap="round" transform="matrix(.22986 0 0 .3203 557.072 -264.31)" stroke="#000"/><path d="M679.585 33.222a1.714 1.714 0 1 1 0-3.427 1.714 1.714 0 0 1 0 3.427z" fill="teal" stroke="teal" stroke-width="1.2627" stroke-linecap="round"/><path d="M679.585 45.106V31.508" fill="none" stroke="#000" stroke-width=".961" stroke-linecap="round"/><g ns0:text="$R _{\\rm{1}}$" fill="teal"><path d="M696.578 64.839c.094-.354.142-.495.424-.542.142-.024.613-.024.92-.024 1.06 0 2.734 0 2.734 1.485 0 .519-.236 1.556-.825 2.145-.4.377-1.178.872-2.546.872h-1.673zm2.169 4.125c1.532-.33 3.3-1.39 3.3-2.9 0-1.296-1.344-2.263-3.324-2.263h-4.266c-.307 0-.448 0-.448.307 0 .165.141.165.424.165.024 0 .307 0 .566.024.283.047.4.047.4.259 0 .047 0 .094-.047.283l-2.027 8.061c-.141.59-.165.708-1.367.708-.26 0-.4 0-.4.306 0 .165.188.165.211.165.425 0 1.485-.047 1.886-.047.425 0 1.509.047 1.933.047.118 0 .283 0 .283-.306 0-.165-.118-.165-.424-.165-.542 0-.967 0-.967-.26 0-.094.024-.165.047-.259l.99-3.984h1.792c1.367 0 1.626.849 1.626 1.367 0 .213-.117.684-.212 1.038-.094.424-.235.966-.235 1.273 0 1.626 1.815 1.626 2.003 1.626 1.273 0 1.815-1.509 1.815-1.72 0-.19-.165-.19-.188-.19-.142 0-.165.095-.189.213-.377 1.108-1.037 1.367-1.367 1.367-.495 0-.613-.33-.613-.92 0-.47.094-1.225.165-1.72.024-.212.047-.495.047-.707 0-1.155-1.013-1.627-1.414-1.768zm0 0M705.87 69.638c0-.282 0-.282-.307-.282-.684.66-1.627.66-2.05.66v.377c.235 0 .942 0 1.508-.283v5.35c0 .354 0 .496-1.037.496h-.401v.377c.188 0 1.485-.047 1.862-.047.33 0 1.65.047 1.886.047v-.377h-.4c-1.062 0-1.062-.142-1.062-.495zm0 0"/></g><g ns0:text="$R _{\\rm{2}}$" fill="teal"><path d="M803.526 64.839c.094-.354.141-.495.424-.542.141-.024.613-.024.92-.024 1.06 0 2.734 0 2.734 1.485 0 .519-.236 1.556-.825 2.145-.401.377-1.18.872-2.546.872h-1.674zm2.168 4.125c1.532-.33 3.3-1.39 3.3-2.9 0-1.296-1.343-2.263-3.323-2.263h-4.267c-.306 0-.448 0-.448.307 0 .165.142.165.425.165.023 0 .306 0 .565.024.283.047.401.047.401.259 0 .047 0 .094-.047.283l-2.027 8.061c-.142.59-.165.708-1.368.708-.259 0-.4 0-.4.306 0 .165.188.165.212.165.424 0 1.485-.047 1.886-.047.424 0 1.508.047 1.933.047.117 0 .282 0 .282-.306 0-.165-.117-.165-.424-.165-.542 0-.966 0-.966-.26 0-.094.023-.165.047-.259l.99-3.984h1.791c1.368 0 1.627.849 1.627 1.367 0 .213-.118.684-.212 1.038-.095.424-.236.966-.236 1.273 0 1.626 1.815 1.626 2.004 1.626 1.272 0 1.815-1.509 1.815-1.72 0-.19-.165-.19-.189-.19-.141 0-.165.095-.188.213-.378 1.108-1.038 1.367-1.368 1.367-.495 0-.613-.33-.613-.92 0-.47.095-1.225.165-1.72.024-.212.048-.495.048-.707 0-1.155-1.014-1.627-1.415-1.768zm0 0M814.608 74.424h-.353c-.024.235-.142.848-.283.942-.07.071-.872.071-1.037.071h-1.933a58.335 58.335 0 0 1 2.098-1.768c.778-.613 1.508-1.273 1.508-2.263 0-1.273-1.108-2.05-2.451-2.05-1.297 0-2.192.919-2.192 1.885 0 .519.447.59.565.59a.552.552 0 0 0 .542-.566c0-.189-.07-.566-.612-.566.33-.73 1.037-.966 1.532-.966 1.06 0 1.603.825 1.603 1.673 0 .92-.66 1.627-.99 2.004l-2.523 2.522c-.117.094-.117.118-.117.4h4.337zm0 0"/></g><g ns0:text="$R _{\\rm{3}}$" fill="teal"><path d="M909.02 64.733c.094-.354.141-.495.424-.543.142-.023.613-.023.92-.023 1.06 0 2.734 0 2.734 1.485 0 .519-.236 1.556-.825 2.145-.4.377-1.179.872-2.546.872h-1.673zm2.169 4.125c1.532-.33 3.3-1.391 3.3-2.9 0-1.296-1.344-2.263-3.324-2.263h-4.267c-.306 0-.447 0-.447.307 0 .165.141.165.424.165.023 0 .306 0 .566.023.282.048.4.048.4.26 0 .047 0 .094-.047.283l-2.027 8.061c-.141.59-.165.707-1.367.707-.26 0-.4 0-.4.307 0 .165.188.165.211.165.425 0 1.485-.047 1.886-.047.424 0 1.509.047 1.933.047.118 0 .283 0 .283-.307 0-.165-.118-.165-.424-.165-.543 0-.967 0-.967-.259 0-.094.024-.165.047-.26l.99-3.983h1.792c1.367 0 1.626.849 1.626 1.367 0 .213-.118.684-.212 1.038-.094.424-.236.966-.236 1.272 0 1.627 1.815 1.627 2.004 1.627 1.273 0 1.815-1.509 1.815-1.72 0-.19-.165-.19-.189-.19-.141 0-.165.095-.188.213-.377 1.108-1.037 1.367-1.367 1.367-.495 0-.613-.33-.613-.92 0-.47.094-1.225.165-1.72.023-.212.047-.495.047-.707 0-1.155-1.014-1.627-1.414-1.768zm0 0M917.675 72.715c.825 0 1.414.565 1.414 1.697 0 1.296-.778 1.697-1.367 1.697-.424 0-1.367-.118-1.792-.754.495 0 .613-.354.613-.59 0-.33-.259-.565-.589-.565-.283 0-.59.188-.59.612 0 .99 1.085 1.627 2.358 1.627 1.461 0 2.475-.99 2.475-2.027 0-.825-.66-1.65-1.815-1.886 1.084-.4 1.485-1.179 1.485-1.839 0-.825-.943-1.438-2.122-1.438-1.155 0-2.05.566-2.05 1.415 0 .353.235.542.542.542.33 0 .542-.236.542-.519 0-.306-.212-.542-.542-.565.377-.448 1.084-.566 1.485-.566.471 0 1.131.236 1.131 1.131 0 .448-.141.943-.424 1.25-.33.4-.636.424-1.155.471-.26.024-.283.024-.33.024-.024 0-.118.023-.118.141 0 .142.094.142.283.142zm0 0"/></g><g ns0:text="$R _{\\rm{4}}$" fill="teal"><path d="M1014.802 64.839c.094-.354.141-.495.424-.542.142-.024.613-.024.92-.024 1.06 0 2.734 0 2.734 1.485 0 .519-.236 1.556-.825 2.145-.4.377-1.179.872-2.546.872h-1.673zm2.169 4.125c1.532-.33 3.3-1.39 3.3-2.9 0-1.296-1.344-2.263-3.324-2.263h-4.267c-.306 0-.447 0-.447.307 0 .165.141.165.424.165.023 0 .306 0 .566.024.283.047.4.047.4.259 0 .047 0 .094-.047.283l-2.027 8.061c-.141.59-.165.708-1.367.708-.26 0-.4 0-.4.306 0 .165.188.165.211.165.425 0 1.485-.047 1.886-.047.424 0 1.509.047 1.933.047.118 0 .283 0 .283-.306 0-.165-.118-.165-.424-.165-.543 0-.967 0-.967-.26 0-.094.024-.165.047-.259l.99-3.984h1.792c1.367 0 1.626.849 1.626 1.367 0 .213-.118.684-.212 1.038-.094.424-.236.966-.236 1.273 0 1.626 1.815 1.626 2.004 1.626 1.273 0 1.815-1.509 1.815-1.72 0-.19-.165-.19-.189-.19-.14 0-.165.095-.188.213-.377 1.108-1.037 1.367-1.367 1.367-.495 0-.613-.33-.613-.92 0-.47.094-1.225.165-1.72.023-.212.047-.495.047-.707 0-1.155-1.014-1.627-1.414-1.768zm0 0M1026.144 74.612v-.377h-1.179v-4.69c0-.213 0-.307-.212-.307-.141 0-.188 0-.283.165l-3.488 4.832v.377h3.111v.849c0 .377 0 .495-.872.495h-.283v.377a44.376 44.376 0 0 1 1.58-.047c.4 0 1.06.023 1.602.047v-.377h-.282c-.873 0-.873-.118-.873-.495v-.849zm-1.98-4.22v3.843h-2.782zm0 0"/></g><g ns0:text="$T _{\\rm{2}}$"><path d="M1016.48 272.614c.118-.424.165-.518.353-.566.142-.023.637-.023.943-.023 1.532 0 2.192.047 2.192 1.226 0 .235-.047.825-.117 1.202 0 .07-.048.235-.048.283 0 .094.048.212.19.212.164 0 .188-.118.235-.354l.4-2.616c.024-.071.024-.213.024-.26 0-.165-.141-.165-.4-.165h-8.345c-.354 0-.377.024-.495.307l-.896 2.64c0 .023-.094.236-.094.283 0 .07.094.165.188.165.142 0 .165-.095.26-.33.801-2.334 1.202-2.593 3.418-2.593h.589c.424 0 .424.047.424.188 0 .071-.047.26-.07.307l-2.004 8.038c-.142.542-.189.707-1.792.707-.542 0-.636 0-.636.283 0 .189.165.189.26.189.4 0 .824-.024 1.225-.024.424 0 .872-.024 1.296-.024.425 0 .825.024 1.25.024.424 0 .872.024 1.296.024.142 0 .33 0 .33-.307 0-.165-.118-.165-.518-.165-.354 0-.566 0-.943-.023-.448-.048-.566-.095-.566-.33 0-.024 0-.095.07-.307zm0 0M1024.155 282.081h-.353c-.024.236-.142.849-.283.943-.071.07-.873.07-1.038.07h-1.932a58.335 58.335 0 0 1 2.097-1.767c.778-.613 1.51-1.273 1.51-2.263 0-1.273-1.109-2.05-2.452-2.05-1.297 0-2.193.918-2.193 1.885 0 .518.448.59.566.59a.552.552 0 0 0 .542-.567c0-.188-.07-.565-.613-.565.33-.731 1.038-.967 1.533-.967 1.06 0 1.602.825 1.602 1.674 0 .92-.66 1.626-.99 2.004l-2.522 2.522c-.118.094-.118.118-.118.4h4.338zm0 0"/></g><g ns0:text="$T _{\\rm{1}}$" fill="teal"><path d="M659.043 272.328c.118-.424.165-.518.354-.565.141-.024.636-.024.942-.024 1.533 0 2.193.047 2.193 1.226 0 .236-.047.825-.118 1.202 0 .07-.047.236-.047.283 0 .094.047.212.188.212.165 0 .189-.118.236-.353l.4-2.617c.024-.07.024-.212.024-.26 0-.164-.141-.164-.4-.164h-8.345c-.354 0-.377.023-.495.306l-.896 2.64c0 .024-.094.236-.094.283 0 .07.094.165.188.165.142 0 .165-.094.26-.33.801-2.334 1.202-2.593 3.418-2.593h.589c.424 0 .424.047.424.189 0 .07-.047.259-.07.306l-2.004 8.038c-.141.542-.189.708-1.792.708-.542 0-.636 0-.636.282 0 .189.165.189.26.189.4 0 .824-.024 1.225-.024.424 0 .872-.023 1.297-.023.424 0 .825.023 1.249.023.424 0 .872.024 1.296.024.142 0 .33 0 .33-.306 0-.165-.117-.165-.518-.165-.354 0-.566 0-.943-.024-.448-.047-.566-.094-.566-.33 0-.024 0-.094.07-.307zm0 0M664.927 277.01c0-.283 0-.283-.307-.283-.683.66-1.626.66-2.05.66v.378c.235 0 .942 0 1.508-.283v5.35c0 .354 0 .496-1.037.496h-.4v.377c.188 0 1.484-.047 1.861-.047.33 0 1.65.047 1.886.047v-.377h-.4c-1.061 0-1.061-.142-1.061-.495zm0 0"/></g><g ns0:text="$D _{\\rm{1}}$" fill="teal"><path d="M697.169 145.32c-.142.588-.165.706-1.367.706-.236 0-.401 0-.401.283 0 .189.118.189.4.189h4.998c3.111 0 6.082-3.183 6.082-6.46 0-2.12-1.273-3.818-3.536-3.818H698.3c-.283 0-.448 0-.448.283 0 .189.118.189.425.189.188 0 .471.023.636.023.26.047.33.07.33.26 0 .047 0 .094-.047.282zm3.253-8.063c.141-.518.165-.565.825-.565h1.603c1.461 0 2.71.801 2.71 2.781 0 .73-.282 3.206-1.579 4.856-.424.566-1.603 1.697-3.465 1.697h-2.027c-.142-.023-.189-.047-.189-.165 0-.047 0-.07.071-.33zm0 0M710.743 142.057c0-.283 0-.283-.306-.283-.684.66-1.627.66-2.05.66v.377c.235 0 .942 0 1.508-.283v5.351c0 .354 0 .495-1.037.495h-.401v.378c.188 0 1.485-.048 1.862-.048.33 0 1.65.048 1.886.048v-.378h-.4c-1.062 0-1.062-.141-1.062-.495zm0 0"/></g><g ns0:text="$D _{\\rm{2}}$" fill="teal"><path d="M965.238 145.32c-.142.588-.165.706-1.367.706-.236 0-.401 0-.401.283 0 .189.118.189.4.189h4.998c3.111 0 6.082-3.183 6.082-6.46 0-2.12-1.273-3.818-3.536-3.818h-5.045c-.283 0-.448 0-.448.283 0 .189.118.189.425.189.188 0 .471.023.636.023.26.047.33.07.33.26 0 .047 0 .094-.047.282zm3.253-8.063c.141-.518.165-.565.825-.565h1.603c1.461 0 2.71.801 2.71 2.781 0 .73-.282 3.206-1.579 4.856-.424.566-1.603 1.697-3.465 1.697h-2.027c-.142-.023-.189-.047-.189-.165 0-.047 0-.07.07-.33zm0 0M980.604 146.842h-.354c-.023.236-.141.849-.283.943-.07.07-.872.07-1.037.07h-1.933a58.335 58.335 0 0 1 2.098-1.767c.778-.613 1.509-1.273 1.509-2.263 0-1.273-1.108-2.05-2.452-2.05-1.296 0-2.192.919-2.192 1.885 0 .519.448.59.566.59a.552.552 0 0 0 .542-.566c0-.189-.07-.566-.613-.566.33-.73 1.037-.967 1.532-.967 1.061 0 1.603.825 1.603 1.674 0 .92-.66 1.626-.99 2.004l-2.522 2.522c-.118.094-.118.118-.118.4h4.337zm0 0"/></g><path fill="none" stroke="teal" stroke-width=".961" stroke-linecap="round" d="M966.889 206.531v18.331h-44.665v-18.331zM891.308 215.697h30.916M966.889 215.41h30.915"/><g stroke="teal"><g stroke-linecap="round"><path d="M892.206 173.668v-16.562" fill="none" stroke-width=".96077184"/><path d="M892.206 158.592a1.486 1.486 0 1 1 0-2.972 1.486 1.486 0 0 1 0 2.972z" fill="teal" stroke-width="1.262754"/></g><path d="M892.067 129.351a1.486 1.486 0 1 1 0-2.972 1.486 1.486 0 0 1 0 2.972z" fill="teal" stroke-width="1.262754" stroke-linecap="round"/><path d="M892.067 111.304v16.561" fill="none" stroke-width=".96077184" stroke-linecap="round"/><g stroke-width="3.459" stroke-linecap="round"><path d="M894.517 128.291v28.39" fill="#0000de" stroke-width=".96077184"/><path d="M909.252 142.486h-14.735" fill="none" stroke-width=".96077184"/></g></g><path d="M786.08 217.41a1.714 1.714 0 1 1 0-3.427 1.714 1.714 0 0 1 0 3.427z" fill="teal" stroke="teal" stroke-width="1.2627" stroke-linecap="round"/><path d="M892.206 213.983v-40.315" fill="none" stroke="teal" stroke-width=".961" stroke-linecap="round"/><path d="M892.206 217.41a1.714 1.714 0 1 1 0-3.427 1.714 1.714 0 0 1 0 3.427z" fill="teal" stroke="teal" stroke-width="1.2627" stroke-linecap="round"/><path fill="none" stroke="teal" stroke-width=".961" stroke-linecap="round" d="M795.246 89.771h-18.331V45.106h18.331zM901.233 89.771h-18.331V45.106h18.331zM892.067 45.106V31.508"/><path d="M892.067 33.222a1.714 1.714 0 1 1 0-3.427 1.714 1.714 0 0 1 0 3.427z" fill="teal" stroke="teal" stroke-width="1.2627" stroke-linecap="round"/><path d="M786.08 45.106V31.508" fill="none" stroke="teal" stroke-width=".961" stroke-linecap="round"/><path d="M786.08 33.222a1.714 1.714 0 1 1 0-3.427 1.714 1.714 0 0 1 0 3.427z" fill="teal" stroke="teal" stroke-width="1.2627" stroke-linecap="round"/><path d="M786.08 215.42V89.772M892.067 111.304V89.77" fill="none" stroke="teal" stroke-width=".961" stroke-linecap="round"/><g ns0:text="$R _{\\rm{6}}$" fill="teal"><path d="M941.478 191.033c.095-.353.142-.495.425-.542.141-.023.613-.023.919-.023 1.06 0 2.734 0 2.734 1.485 0 .518-.235 1.555-.825 2.145-.4.377-1.178.872-2.546.872h-1.673zm2.169 4.125c1.532-.33 3.3-1.39 3.3-2.899 0-1.296-1.344-2.263-3.324-2.263h-4.266c-.307 0-.448 0-.448.307 0 .165.141.165.424.165.024 0 .307 0 .566.023.283.047.4.047.4.26 0 .047 0 .094-.046.282l-2.028 8.062c-.141.59-.165.707-1.367.707-.26 0-.4 0-.4.307 0 .165.188.165.212.165.424 0 1.485-.048 1.885-.048.425 0 1.509.048 1.933.048.118 0 .283 0 .283-.307 0-.165-.118-.165-.424-.165-.542 0-.967 0-.967-.26 0-.093.024-.164.048-.258l.99-3.984h1.791c1.367 0 1.627.848 1.627 1.367 0 .212-.118.684-.213 1.037-.094.425-.235.967-.235 1.273 0 1.627 1.815 1.627 2.003 1.627 1.273 0 1.815-1.509 1.815-1.721 0-.189-.165-.189-.188-.189-.142 0-.165.095-.189.212-.377 1.108-1.037 1.368-1.367 1.368-.495 0-.613-.33-.613-.92 0-.471.094-1.225.165-1.72.024-.213.047-.495.047-.708 0-1.155-1.013-1.626-1.414-1.768zm0 0M948.837 199.086c0-.849.07-1.627.471-2.287.354-.565.92-.942 1.603-.942.306 0 .73.07.943.353-.26.024-.495.212-.495.519 0 .259.188.495.495.495.33 0 .518-.212.518-.519 0-.613-.447-1.155-1.485-1.155-1.508 0-3.064 1.39-3.064 3.654 0 2.71 1.273 3.536 2.452 3.536 1.272 0 2.38-.99 2.38-2.358 0-1.343-1.06-2.333-2.286-2.333-.849 0-1.297.566-1.532 1.037zm1.438 3.324c-.543 0-.943-.307-1.18-.778-.14-.307-.235-.849-.235-1.462 0-1.037.613-1.815 1.462-1.815.471 0 .801.189 1.06.566.26.4.26.849.26 1.461 0 .59 0 1.038-.283 1.462-.236.353-.59.566-1.084.566zm0 0"/></g><path d="M677.87 31.508H573.87" fill="none" stroke="teal" stroke-width="2" stroke-linecap="round"/><path d="M631.168 31.509l-5.317 3.07-5.317 3.069v-12.28l5.317 3.07zM738.026 31.509l-5.317 3.07-5.317 3.069v-12.28l5.317 3.07zM573.73 259.532l3.07 5.317 3.069 5.317h-12.28l3.07-5.317z" fill="teal" stroke="teal" stroke-width=".9562134000000001"/><path d="M573.73 190.37v150.169M679.549 214.093V155.18M679.549 130.45V90.923M679.585 44.694V31.92M679.577 340.223v-47.331" fill="none" stroke="teal" stroke-width="2" stroke-linecap="round"/><path d="M679.549 116.004l3.07-5.317 3.069-5.317h-12.279l3.07 5.317zM679.549 189.953l3.07-5.317 3.07-5.317h-12.28l3.07 5.317z" fill="teal" stroke="teal" stroke-width=".9562134000000001"/><path d="M679.585 261.995v-46.191" fill="none" stroke="teal" stroke-width="2" stroke-linecap="round"/><path d="M679.577 321.874l3.07-5.317 3.07-5.317h-12.28l3.07 5.317zM679.585 244.216l3.07-5.317 3.07-5.317h-12.28l3.07 5.317z" fill="teal" stroke="teal" stroke-width=".9562134000000001"/><path d="M997.804 217.125a1.714 1.714 0 1 1 0-3.428 1.714 1.714 0 0 1 0 3.428z" fill="teal" stroke="teal" stroke-width="1.2627" stroke-linecap="round"/><path d="M740.62 277.487l5.317 3.07 5.317 3.069v-12.28l-5.317 3.07zM812.587 255.015l3.07 5.317 3.069 5.318h-12.28l3.07-5.318zM865.164 224.03l3.07 5.318 3.069 5.317h-12.28l3.07-5.318z" fill="teal" stroke="teal" stroke-width=".9562134000000001"/><path d="M573.73 340.539h105.144" fill="none" stroke="teal" stroke-width="2" stroke-linecap="round"/><path d="M620.985 340.54l5.317 3.069 5.317 3.07v-12.28l-5.317 3.07z" fill="teal" stroke="teal" stroke-width=".9562134000000001"/><g ns0:text="$S _{\\rm{1}}$" fill="teal"><use xlink:href="#r" x="223.432" y="134.765" width="1052.362" height="744.094" transform="matrix(1.50863 0 0 1.50863 535.598 -56.648)"/><use xlink:href="#s" x="229.541" y="136.259" width="1052.362" height="744.094" transform="matrix(1.50863 0 0 1.50863 535.598 -56.648)"/></g><g stroke="teal" stroke-width="3.702"><path d="M73.076 923.572h452.452" fill="none" stroke-linecap="round" transform="matrix(.2278 0 0 .3203 770.413 -264.31)"/></g><g stroke="teal" stroke-width="3.702"><path d="M73.076 923.572h452.452" fill="none" stroke-linecap="round" transform="matrix(.2278 0 0 .3203 878.249 -264.31)"/></g><path d="M892.206 189.541l3.07-5.317 3.07-5.317h-12.28l3.07 5.317zM892.068 115.592l3.07-5.317 3.069-5.317h-12.28l3.07 5.317z" fill="teal" stroke="teal" stroke-width=".9562134000000001"/><g transform="matrix(1.50863 0 0 1.50863 72.635 -3.037)" ns0:text="$R _{\\rm{5}}$" stroke="teal"><defs><symbol id="t" overflow="visible"><path d="M3.734-6.125c.063-.234.094-.328.282-.36.093-.015.406-.015.609-.015.703 0 1.813 0 1.813.984 0 .344-.157 1.032-.547 1.422-.266.25-.782.578-1.688.578h-1.11zm1.438 2.734c1.016-.218 2.187-.921 2.187-1.921 0-.86-.89-1.5-2.203-1.5H2.328c-.203 0-.297 0-.297.203 0 .109.094.109.281.109.016 0 .204 0 .376.016.187.03.265.03.265.171 0 .032 0 .063-.031.188L1.578-.781c-.094.39-.11.469-.906.469-.172 0-.266 0-.266.203C.406 0 .531 0 .546 0c.282 0 .985-.031 1.25-.031.282 0 1 .031 1.282.031.078 0 .188 0 .188-.203 0-.11-.079-.11-.282-.11-.359 0-.64 0-.64-.171 0-.063.015-.11.031-.172l.656-2.64H4.22c.906 0 1.078.562 1.078.905 0 .141-.078.454-.14.688-.063.281-.157.64-.157.844C5 .219 6.203.219 6.328.219c.844 0 1.203-1 1.203-1.14 0-.126-.11-.126-.125-.126-.093 0-.11.063-.125.14-.25.735-.687.907-.906.907-.328 0-.406-.219-.406-.61 0-.312.062-.812.11-1.14.015-.14.03-.328.03-.469 0-.765-.671-1.078-.937-1.172zm0 0" stroke="none"/></symbol><symbol id="u" overflow="visible"><path d="M1.078-3.89c.36.093.563.093.672.093.922 0 1.469-.625 1.469-.734 0-.078-.047-.094-.078-.094-.016 0-.032 0-.063.016-.172.062-.531.203-1.047.203-.203 0-.562-.016-1.015-.188-.079-.031-.094-.031-.094-.031-.094 0-.094.078-.094.188v2.046c0 .125 0 .204.11.204.062 0 .078 0 .14-.094.297-.375.734-.438.969-.438.422 0 .61.328.64.39.126.235.172.5.172.907 0 .203 0 .61-.218.922a.984.984 0 0 1-.813.422c-.453 0-.922-.25-1.094-.719.266.016.407-.156.407-.344 0-.296-.266-.343-.36-.343 0 0-.344 0-.344.375 0 .625.579 1.25 1.407 1.25.89 0 1.672-.657 1.672-1.547 0-.782-.594-1.5-1.454-1.5-.312 0-.671.062-.984.328zm0 0" stroke="none"/></symbol></defs><use y="134.765" x="223.432" xlink:href="#t" width="744.094" height="1052.362"/><use y="136.259" x="230.997" xlink:href="#u" width="744.094" height="1052.362"/></g><g><g stroke="teal" stroke-width="3.326"><g stroke-width=".739" fill="none" stroke-linecap="round"><path d="M201.848 192.775v45.844" stroke-width="2.00024572"/><path d="M211.017 192.775v45.844M201.818 215.697h-48.415M211.047 215.697h48.676" stroke-width=".9561329799999999"/></g></g><g ns0:text="$C _{\\rm{1}}$" fill="teal" stroke="#000" stroke-width=".635"><path d="M209.755 174.696c0-.047-.024-.165-.165-.165-.047 0-.07.024-.235.189l-1.036 1.153c-.14-.212-.823-1.342-2.494-1.342-3.365 0-6.73 3.319-6.73 6.802 0 2.47 1.764 4.118 4.07 4.118 1.295 0 2.448-.588 3.248-1.294 1.389-1.224 1.648-2.589 1.648-2.636 0-.165-.165-.165-.189-.165-.094 0-.164.047-.188.165-.141.423-.494 1.506-1.53 2.377-1.035.823-1.976 1.082-2.753 1.082-1.341 0-2.942-.776-2.942-3.106 0-.87.306-3.295 1.812-5.06.918-1.059 2.33-1.812 3.672-1.812 1.53 0 2.424 1.153 2.424 2.895 0 .612-.048.612-.048.776 0 .142.165.142.212.142.189 0 .189-.024.283-.306zm0 0M212.573 180.688c0-.282 0-.282-.306-.282-.682.659-1.624.659-2.047.659v.376c.235 0 .941 0 1.506-.282v5.342c0 .353 0 .494-1.036.494h-.4v.377c.188 0 1.483-.047 1.86-.047.329 0 1.647.047 1.882.047v-.377h-.4c-1.059 0-1.059-.141-1.059-.494zm0 0" stroke="none"/></g><g fill="teal" stroke="teal" stroke-width=".956" stroke-linecap="round"><path d="M190.62 192.775v10.535M184.757 198.042h10.536"/></g></g><g><g stroke="teal" stroke-width="3.326"><g stroke-width=".739" fill="none" stroke-linecap="round"><path d="M728.03 192.882v45.844" stroke-width="2.00024572"/><path d="M737.198 192.882v45.844" stroke-width=".9561329799999999"/><path d="M728 215.804h-48.415" stroke-width="2.00024572"/><path d="M737.228 215.804h48.676" stroke-width=".9561329799999999"/></g></g><g ns0:text="$C _{\\rm{1}}$" fill="teal" stroke="#000" stroke-width=".635"><path d="M735.936 174.803c0-.047-.023-.164-.165-.164-.047 0-.07.023-.235.188l-1.035 1.153c-.142-.212-.824-1.341-2.495-1.341-3.365 0-6.73 3.318-6.73 6.8 0 2.472 1.765 4.12 4.07 4.12 1.295 0 2.448-.59 3.248-1.295 1.389-1.224 1.648-2.589 1.648-2.636 0-.165-.165-.165-.189-.165-.094 0-.164.047-.188.165-.141.424-.494 1.506-1.53 2.377-1.035.824-1.976 1.082-2.753 1.082-1.341 0-2.942-.776-2.942-3.106 0-.87.306-3.295 1.813-5.06.917-1.059 2.33-1.812 3.67-1.812 1.53 0 2.425 1.153 2.425 2.895 0 .612-.047.612-.047.777 0 .14.164.14.211.14.189 0 .189-.023.283-.305zm0 0M738.754 180.795c0-.282 0-.282-.306-.282-.682.659-1.624.659-2.047.659v.376c.235 0 .941 0 1.506-.282v5.342c0 .353 0 .494-1.036.494h-.4v.377c.189 0 1.483-.047 1.86-.047.329 0 1.647.047 1.882.047v-.377h-.4c-1.059 0-1.059-.14-1.059-.494zm0 0" stroke="none"/></g><g fill="teal" stroke="teal" stroke-width=".956" stroke-linecap="round"><path d="M716.802 192.882v10.535M710.938 198.15h10.536"/></g></g><path d="M698.475 215.804l5.317 3.07 5.317 3.07v-12.28l-5.317 3.07zM786.08 157.913l3.07-5.317 3.07-5.317h-12.28l3.07 5.317zM756.249 215.804l5.317 3.07 5.317 3.07v-12.28l-5.317 3.07zM997.805 189.953l3.07-5.317 3.069-5.317h-12.28l3.07 5.317zM997.84 116.004l3.07-5.317 3.07-5.317H991.7l3.07 5.317zM951.747 31.509l-5.317 3.07-5.317 3.069v-12.28l5.317 3.07z" fill="teal" stroke="teal" stroke-width=".9562134000000001"/><g fill="teal" stroke="teal" stroke-width="1.635"><path d="M901.525 215.84l5.317 3.07 5.317 3.069v-12.28l-5.317 3.07zM976.953 215.554l5.318 3.07 5.317 3.07v-12.28l-5.318 3.07z" stroke-width=".9562134000000001"/></g></g></svg>