<svg xmlns="http://www.w3.org/2000/svg" xmlns:xlink="http://www.w3.org/1999/xlink" width="744.094" height="1052.362"><title>Die Knotenregel</title><defs><linearGradient id="d"><stop offset="0" stop-opacity="0"/><stop offset="1" stop-color="#fff"/></linearGradient><linearGradient id="e"><stop offset="0" stop-color="#fff"/><stop offset="1" stop-color="#fff" stop-opacity="0"/></linearGradient><linearGradient id="f"><stop offset="0" stop-color="#1a1a1a" stop-opacity=".828"/><stop offset="1" stop-color="#fff"/></linearGradient><linearGradient id="a"><stop offset="0" stop-opacity="0"/><stop offset="1" stop-color="#fff"/></linearGradient><linearGradient id="b"><stop offset="0" stop-color="#ebebeb"/><stop offset="1" stop-color="#fff" stop-opacity="0"/></linearGradient><linearGradient id="c"><stop offset="0" stop-color="#0e0e0e" stop-opacity=".746"/><stop offset="1" stop-color="#fff"/></linearGradient><pattern patternUnits="userSpaceOnUse" width="30.066" height="5.181" id="g"><path d="M7.597.061C5.079-.187 2.656.302-.01 1.788v1.273c2.783-1.63 5.183-2.009 7.482-1.781 2.298.228 4.497 1.081 6.781 1.938 4.567 1.713 9.551 3.458 15.813-.157l-.004-1.273c-6.44 3.709-10.816 1.982-15.371.273-2.278-.854-4.576-1.75-7.094-2z"/></pattern><pattern patternTransform="translate(.25)" id="h" xlink:href="#g"/></defs><path fill="#fff" stroke="#fff" stroke-width="1.5" stroke-linecap="round" stroke-linejoin="bevel" d="M3.645 286.775H740.45v478.812H3.645z"/><g transform="translate(-24.83 504.402)"><path d="M140.878 21.779h512" fill="#0000de" stroke="#000" stroke-width="3" stroke-linecap="round"/><path d="M-172.815 683.252h628.37" fill="none" stroke="#000" stroke-width="3.908" stroke-linecap="round" transform="matrix(0 -.58942 1 0 -286.375 105.105)"/><circle transform="translate(230.738 63) scale(.78846)" cx="210.714" cy="-52.281" r="6.786" stroke="#000" stroke-width="5" stroke-linecap="round"/></g><g stroke="teal"><path d="M127.784 526.181h166.03" fill="navy" stroke-width="14.945"/><path d="M310 526.181l-4.64 2.68-4.64 2.678v-5.358l.001-5.358 4.64 2.68z" fill="green" stroke-width="14.953841"/></g><g fill="navy" stroke="teal"><path d="M372.047 479.286v-34.774" stroke-width="14.945"/><path d="M372.048 428.325l2.678 4.64 2.679 4.64h-10.716l2.68-4.64z" stroke-width="14.953841"/></g><g stroke="teal"><path d="M372.047 573.076v34.775" fill="navy" stroke-width="14.945"/><path d="M372.047 624.037l-2.679-4.64-2.679-4.64h10.716l-2.679 4.64z" fill="green" stroke-width="14.953841"/></g><g stroke="teal"><path d="M418.942 526.181h34.775" fill="navy" stroke-width="14.945"/><path d="M469.903 526.181l-4.64 2.68-4.64 2.678v-10.716l4.64 2.68z" fill="green" stroke-width="14.953841"/></g></svg>