<svg xmlns="http://www.w3.org/2000/svg" xmlns:xlink="http://www.w3.org/1999/xlink" width="744.094" height="1052.362"><title>Beispiel zur Knotenregel</title><defs><linearGradient id="d"><stop offset="0" stop-opacity="0"/><stop offset="1" stop-color="#fff"/></linearGradient><linearGradient id="e"><stop offset="0" stop-color="#fff"/><stop offset="1" stop-color="#fff" stop-opacity="0"/></linearGradient><linearGradient id="f"><stop offset="0" stop-color="#1a1a1a" stop-opacity=".828"/><stop offset="1" stop-color="#fff"/></linearGradient><linearGradient id="a"><stop offset="0" stop-opacity="0"/><stop offset="1" stop-color="#fff"/></linearGradient><linearGradient id="b"><stop offset="0" stop-color="#ebebeb"/><stop offset="1" stop-color="#fff" stop-opacity="0"/></linearGradient><linearGradient id="c"><stop offset="0" stop-color="#0e0e0e" stop-opacity=".746"/><stop offset="1" stop-color="#fff"/></linearGradient><pattern patternUnits="userSpaceOnUse" width="30.066" height="5.181" id="g"><path d="M7.597.061C5.079-.187 2.656.302-.01 1.788v1.273c2.783-1.63 5.183-2.009 7.482-1.781 2.298.228 4.497 1.081 6.781 1.938 4.567 1.713 9.551 3.458 15.813-.157l-.004-1.273c-6.44 3.709-10.816 1.982-15.371.273-2.278-.854-4.576-1.75-7.094-2z"/></pattern><pattern patternTransform="translate(.25)" id="h" xlink:href="#g"/></defs><path fill="#fff" stroke="#fff" stroke-width="1.5" stroke-linecap="round" stroke-linejoin="bevel" d="M3.645 286.775H740.45v478.812H3.645z"/><path d="M-172.815 683.252h628.37" fill="none" stroke="#000" stroke-width="3.908" stroke-linecap="round" transform="matrix(0 -.58942 1 0 -311.205 473.507)"/><circle cx="372.047" cy="390.181" r="5.35" stroke="#000" stroke-width="3.942" stroke-linecap="round"/><g stroke="teal"><path d="M127.784 390.181h166.03" fill="navy" stroke-width="14.945"/><path d="M310 390.181l-4.64 2.68-4.64 2.678v-5.358l.001-5.358 4.64 2.68z" fill="green" stroke-width="14.953841"/></g><g fill="navy" stroke="teal"><path d="M372.047 343.286v-34.774" stroke-width="14.945"/><path d="M372.048 292.325l2.678 4.64 2.679 4.64h-10.716l2.68-4.64z" stroke-width="14.953841"/></g><g stroke="teal"><path d="M372.047 437.076v34.775" fill="navy" stroke-width="14.945"/><path d="M372.047 488.037l-2.679-4.64-2.679-4.64h10.716l-2.679 4.64z" fill="green" stroke-width="14.953841"/></g><g stroke="teal"><path d="M418.942 390.181h34.775" fill="navy" stroke-width="14.945"/><path d="M469.903 390.181l-4.64 2.68-4.64 2.678v-10.716l4.64 2.68z" fill="green" stroke-width="14.953841"/></g><path transform="matrix(.3253 0 0 .32468 -62.6 816.09)" fill="#fff" stroke-linecap="round" d="M1240.493-425.174h59.901v145.952h-59.901z" stroke="#000" stroke-width="3.077"/><path transform="matrix(.3253 0 0 .32468 45.086 816.09)" fill="#fff" stroke-linecap="round" d="M1240.493-425.174h59.901v145.952h-59.901z" stroke="#000" stroke-width="3.077"/><path transform="matrix(.3253 0 0 .32468 -8.756 941.552)" fill="#fff" stroke-linecap="round" d="M1240.493-425.174h59.901v145.952h-59.901z" stroke="#000" stroke-width="3.077"/><g stroke="#000" stroke-width="3.187"><path d="M173.774 768.204v31.698M173.774 729.036v31.505" fill="none" stroke-linecap="round" stroke-width="1.00011247"/><g stroke-width="3.582" fill="none" stroke-linecap="round"><path d="M893.302 1257.256v-200.939M869.468 1120.08v73.413" transform="matrix(0 -.31381 .24842 0 -113.6 1040.95)"/></g><g fill="none" stroke-linecap="round" stroke-width=".947"><path d="M154.585 739.605v10.367M148.815 744.788h10.367" stroke-width=".9999562399999999"/></g><path d="M154.585 778.87v10.366" fill="none" stroke-linecap="round" stroke-width="1.00011247"/></g><path d="M173.774 729.036v-94.758M173.774 894.66v-94.758M458.366 634.278H173.774M458.366 678.044v-43.766M350.68 678.044v-43.766M404.524 894.66v-43.766M404.524 894.66h-230.75M350.68 764.469v-39.037M458.366 764.469v-39.037M404.524 803.506v-37.919M458.366 764.469H350.681" fill="none" stroke="#000" stroke-linecap="round" stroke-linejoin="round"/></svg>