<svg xmlns="http://www.w3.org/2000/svg" xmlns:xlink="http://www.w3.org/1999/xlink" width="1052.362" height="744.094"><title>Kondensator-Grundfunktion</title><defs><marker orient="auto" id="b" overflow="visible"><path d="M2.308 0l-3.46 2v-4l3.46 2z" fill-rule="evenodd" stroke="#000" stroke-width=".4pt"/></marker></defs><path style="marker:none" color="#000" fill="#fff" stroke="#fff" stroke-linecap="round" stroke-linejoin="round" overflow="visible" d="M12.013 44.758h1028.335v654.58H12.013z"/><path d="M73.112 921.76h65.204" fill="none" stroke-width="2.725" stroke-linecap="round" transform="matrix(1.21226 0 0 1 39.831 -748.348)" stroke="#000"/><g stroke-width=".667" fill="none" stroke="#000" stroke-linecap="round"><path d="M594.856 392.79h-159.45M594.856 424.68h-159.45M515.13 392.686v-96.259M515.13 424.784v96.259" stroke-width="3.0015266800000004"/></g><path d="M128.462 263.268v-89.856" fill="none" stroke="#000" stroke-width="3" stroke-linecap="round"/><path d="M402.22 172.912h225.822" fill="#0000de" stroke="#000" stroke-width="3" stroke-linecap="round"/><path d="M-68.184 683.252H141.37" fill="none" stroke="#000" stroke-width="3.908" stroke-linecap="round" transform="matrix(0 -.58942 1 0 -168.121 256.238)"/><path d="M520.481 172.912a5.35 5.35 0 1 1-10.7 0 5.35 5.35 0 0 1 10.7 0z" stroke="#000" stroke-width="3.9423000000000004" stroke-linecap="round"/><path d="M130.106 983.155h112.373" fill="none" stroke="#000" stroke-width="2.983" stroke-linecap="round" transform="matrix(0 1.01138 1 0 -854.692 399.318)"/><g fill="none" stroke="#000" stroke-width="3.069" stroke-linecap="round"><path d="M129.568 921.26h60.911M-96.255 921.26h225.823" transform="matrix(-.95543 0 0 1 310.254 -276.702)"/></g><path d="M402.22 644.558h225.822" fill="#0000de" stroke="#000" stroke-width="3" stroke-linecap="round"/><path d="M-68.184 683.252H141.37" fill="none" stroke="#000" stroke-width="3.908" stroke-linecap="round" transform="matrix(0 .58942 1 0 -168.121 561.232)"/><path d="M520.481 644.558a5.35 5.35 0 1 0-10.7 0 5.35 5.35 0 0 0 10.7 0z" stroke="#000" stroke-width="3.9423000000000004" stroke-linecap="round"/><g><path d="M171.483 921.26h113.542" fill="none" stroke="#000" stroke-width="3.399" stroke-linecap="round" transform="matrix(0 -.77878 -1 0 1824.036 394.383)"/></g><g fill="none" stroke="#000" stroke-width="3.334" stroke-linecap="round"><path d="M129.568 921.26h112.911M-96.255 921.26h225.823" transform="matrix(-.80978 0 0 1 824.396 -276.702)"/></g><g><path d="M902.777 644.558v-87.924" fill="none" stroke="#000" stroke-width="3" stroke-linecap="round"/></g><g><path d="M-96.363 920.76H75.87" fill="none" stroke="#000" stroke-width="3.332" stroke-linecap="round" transform="matrix(-.8108 0 0 1 824.645 -748.348)"/></g><g><path d="M128.462 531.24v101.007M128.462 406.424V506.82" fill="none" stroke="#000" stroke-width="3" stroke-linecap="round"/><g fill="none" stroke="#000" stroke-width="3.372" stroke-linecap="round"><path d="M893.302 1257.256v-200.939M869.468 1120.08v73.413" transform="matrix(0 -1 .79163 0 -787.289 1400.372)"/></g><g fill="none" stroke="#000" stroke-linecap="round" stroke-width=".892"><path d="M67.313 440.104v33.036M48.927 456.622h33.036" stroke-width="3.00141052"/></g><path d="M67.313 565.225v33.036" fill="none" stroke="#000" stroke-width="3" stroke-linecap="round"/></g><g><g transform="matrix(0 2.05598 -1 0 1824.037 51.715)"><path id="a" d="M101.713 921.26H76.566" fill="none" stroke="#000" stroke-width="2.092" stroke-linecap="round"/><use height="262.205" width="372.047" transform="translate(169.02)" xlink:href="#a" stroke-width="3" stroke-linecap="round"/></g><path fill="none" stroke="#000" stroke-width="3" stroke-linecap="round" d="M932.197 406.635h-58.84V263.268h58.84z"/><g><g transform="rotate(90 882.114 686.317)" stroke-width="3"><path d="M748.13 665.654l-69.359 39.23v-78.46l69.36 39.23z" fill="none" stroke="#000" stroke-linecap="square"/><path d="M752.431 627.443v76.422" fill="none" stroke="#000" stroke-linecap="round"/><path d="M695.75 614.612l45.47-45.47" id="c" fill="none" stroke="#000" stroke-linecap="round" marker-end="url(#b)"/><use xlink:href="#c" transform="translate(20.75 11.75)" width="744.094" height="1052.362" stroke-linecap="round"/></g><path d="M902.777 407.627v75.347" fill="none" stroke-width="3" stroke-linecap="round" stroke="#000"/></g></g><g><g stroke="#000" stroke-linecap="round"><path d="M432.032 172.912h-59.625" fill="none" stroke-width="3"/><path d="M377.757 172.912a5.35 5.35 0 1 1-10.7 0 5.35 5.35 0 0 1 10.7 0z" stroke-width="3.9423000000000004"/></g><path d="M272.482 173.412a5.35 5.35 0 1 1-10.7 0 5.35 5.35 0 0 1 10.7 0z" stroke="#000" stroke-width="3.9423000000000004" stroke-linecap="round"/><path d="M207.507 173.412h59.625" fill="none" stroke="#000" stroke-width="3" stroke-linecap="round"/><g stroke="#000" stroke-width="3" stroke-linecap="round"><path d="M268.666 147.265h102.207" fill="#0000de"/><path d="M319.77 94.215v53.05" fill="none"/></g></g><g><g stroke="#000" stroke-linecap="round"><path d="M822.755 172.412H763.13" fill="none" stroke-width="3"/><path d="M768.48 172.412a5.35 5.35 0 1 1-10.7 0 5.35 5.35 0 0 1 10.7 0z" stroke-width="3.9423000000000004"/></g><path d="M663.205 172.912a5.35 5.35 0 1 1-10.7 0 5.35 5.35 0 0 1 10.7 0z" stroke="#000" stroke-width="3.9423000000000004" stroke-linecap="round"/><path d="M598.23 172.912h59.625" fill="none" stroke="#000" stroke-width="3" stroke-linecap="round"/><g stroke="#000" stroke-width="3" stroke-linecap="round"><path d="M659.389 146.765h102.207" fill="#0000de"/><path d="M709.442 93.715v53.05" fill="none"/></g></g><path fill="none" stroke="#000" stroke-width="3" stroke-linecap="round" d="M157.882 406.635h-58.84V263.268h58.84z"/></svg>