<svg xmlns:ns0="http://www.iki.fi/pav/software/textext/" xmlns="http://www.w3.org/2000/svg" xmlns:xlink="http://www.w3.org/1999/xlink" width="1052.362" height="744.094"><title>LED mit Vorwiderstand</title><defs><marker id="b" orient="auto" overflow="visible"><path d="M2.308 0l-3.46 2v-4l3.46 2z" fill-rule="evenodd" stroke="#000" stroke-width=".4pt"/></marker></defs><g><path style="marker:none" color="#000" fill="#fff" stroke="#fff" stroke-linecap="round" stroke-linejoin="round" overflow="visible" d="M12.013 44.758h1028.335v654.58H12.013z"/><path d="M119.568 983.155H240.58" fill="none" stroke="#000" stroke-width="2.988" stroke-linecap="round" transform="matrix(0 -1.00826 1 0 -741.78 378.542)"/><path d="M119.568 983.155h122.911" fill="none" stroke="#000" stroke-width="2.983" stroke-linecap="round" transform="matrix(0 1.01138 1 0 -741.78 362.88)"/><g fill="none" stroke="#000" stroke-width="3.069" stroke-linecap="round"><path d="M129.568 921.26h60.911M-96.255 921.26h225.823" transform="matrix(-.95543 0 0 1 423.166 -313.14)"/></g><path d="M171.483 921.26h113.542" fill="none" stroke="#000" stroke-width="3.399" stroke-linecap="round" transform="matrix(0 -.77878 -1 0 1711.125 357.945)"/><g fill="none" stroke="#000" stroke-width="3.334" stroke-linecap="round"><path d="M129.568 921.26h112.911M-96.255 921.26h225.823" transform="matrix(-.80978 0 0 1 711.485 -313.14)"/></g><path d="M789.865 608.12v-87.924" fill="none" stroke="#000" stroke-width="3" stroke-linecap="round"/><path d="M-96.363 920.76h69.291m0 0H6.252m0 0H75.87" fill="none" stroke="#000" stroke-width="3.085" stroke-linecap="round" transform="matrix(-.9456 0 0 1 313.117 -784.785)"/><path d="M241.374 382.802v101.007M241.374 257.986v100.396" fill="none" stroke="#000" stroke-width="3" stroke-linecap="round"/><g fill="none" stroke="#000" stroke-width="3.372" stroke-linecap="round"><path d="M893.302 1257.256v-200.939M869.468 1120.08v73.413" transform="matrix(0 -1 .79163 0 -674.377 1251.935)"/></g><g fill="none" stroke="#000" stroke-linecap="round" stroke-width=".892"><path d="M180.225 291.666v33.036M161.839 308.184h33.035" stroke-width="3.00141052"/></g><path d="M180.225 416.788v33.035" fill="none" stroke="#000" stroke-width="3" stroke-linecap="round"/><g transform="matrix(0 2.05598 -1 0 1711.125 15.277)"><path id="a" d="M101.713 921.26H76.566" fill="none" stroke="#000" stroke-width="2.092" stroke-linecap="round"/><use height="262.205" width="372.047" transform="translate(169.02)" xlink:href="#a" stroke-width="3" stroke-linecap="round"/></g><path fill="none" stroke="#000" stroke-width="3" stroke-linecap="round" d="M819.286 370.198h-58.84V226.83h58.84z"/><g><g transform="rotate(90 843.877 611.642)" stroke-width="3"><path d="M748.13 665.654l-69.359 39.23v-78.46l69.36 39.23z" fill="none" stroke="#000" stroke-linecap="square"/><path d="M752.431 627.443v76.422" fill="none" stroke="#000" stroke-linecap="round"/><path d="M695.75 614.612l45.47-45.47" id="c" fill="none" stroke="#000" stroke-linecap="round" marker-end="url(#b)"/><use xlink:href="#c" transform="translate(20.75 11.75)" width="744.094" height="1052.362" stroke-linecap="round"/></g><path d="M789.865 371.189v75.347" fill="none" stroke-width="3" stroke-linecap="round" stroke="#000"/></g><g><g stroke="#000" stroke-linecap="round"><path d="M627.98 135.474h-59.625" fill="none" stroke-width="3"/><path d="M573.705 135.474a5.35 5.35 0 1 1-10.7 0 5.35 5.35 0 0 1 10.7 0z" stroke-width="3.9423000000000004"/></g><path d="M468.43 135.974a5.35 5.35 0 1 1-10.7 0 5.35 5.35 0 0 1 10.7 0z" stroke="#000" stroke-width="3.9423000000000004" stroke-linecap="round"/><path d="M403.455 135.974h59.625" fill="none" stroke="#000" stroke-width="3" stroke-linecap="round"/><g stroke="#000" stroke-width="3" stroke-linecap="round"><path d="M464.614 109.828H566.82" fill="#0000de"/><path d="M515.717 56.778v53.05" fill="none"/></g></g><g><path d="M-96.363 920.76h69.291m0 0H6.252m0 0H75.87" fill="none" stroke="#000" stroke-width="3.094" stroke-linecap="round" transform="matrix(-.93991 0 0 1 699.292 -785.286)"/></g><g transform="matrix(5.38006 0 0 5.38006 -526.147 -412.223)" ns0:text="$R _{\\rm{1}}$" ns0:preamble="/home/waldgeist/data/sphinx/inkscape-preamble.tex"><defs><symbol overflow="visible" id="d"><path d="M3.734-6.125c.063-.234.094-.328.282-.36.093-.015.406-.015.609-.015.703 0 1.813 0 1.813.984 0 .344-.157 1.032-.547 1.422-.266.25-.782.578-1.688.578h-1.11zm1.438 2.734c1.016-.218 2.187-.921 2.187-1.921 0-.86-.89-1.5-2.203-1.5H2.328c-.203 0-.297 0-.297.203 0 .109.094.109.281.109.016 0 .204 0 .376.016.187.03.265.03.265.171 0 .032 0 .063-.031.188L1.578-.781c-.094.39-.11.469-.906.469-.172 0-.266 0-.266.203C.406 0 .531 0 .546 0c.282 0 .985-.031 1.25-.031.282 0 1 .031 1.282.031.078 0 .188 0 .188-.203 0-.11-.079-.11-.282-.11-.359 0-.64 0-.64-.171 0-.063.015-.11.031-.172l.656-2.64H4.22c.906 0 1.078.562 1.078.905 0 .141-.078.454-.14.688-.063.281-.157.64-.157.844C5 .219 6.203.219 6.328.219c.844 0 1.203-1 1.203-1.14 0-.126-.11-.126-.125-.126-.093 0-.11.063-.125.14-.25.735-.687.907-.906.907-.328 0-.406-.219-.406-.61 0-.312.062-.812.11-1.14.015-.14.03-.328.03-.469 0-.765-.671-1.078-.937-1.172zm0 0"/></symbol><symbol overflow="visible" id="e"><path d="M2.328-4.438c0-.187 0-.187-.203-.187-.453.438-1.078.438-1.36.438v.25c.157 0 .626 0 1-.188v3.547c0 .234 0 .328-.687.328H.812V0c.125 0 .985-.031 1.235-.031.219 0 1.094.031 1.25.031v-.25H3.03c-.703 0-.703-.094-.703-.328zm0 0"/></symbol></defs><use height="744.094" width="1052.362" xlink:href="#d" x="223.432" y="134.765"/><use height="744.094" width="1052.362" xlink:href="#e" x="230.997" y="136.259"/></g><g transform="matrix(5.38006 0 0 5.38006 -529.821 -229.521)" ns0:preamble="/home/waldgeist/data/sphinx/inkscape-preamble.tex" ns0:text="$D _{\\rm{1}}$"><defs><symbol id="f" overflow="visible"><path d="M1.578-.781c-.094.39-.11.469-.906.469-.156 0-.266 0-.266.187C.406 0 .484 0 .672 0h3.312c2.063 0 4.032-2.11 4.032-4.281 0-1.407-.844-2.532-2.344-2.532H2.328c-.187 0-.297 0-.297.188 0 .125.078.125.281.125.126 0 .313.016.422.016.172.03.22.046.22.171 0 .032 0 .063-.032.188zm2.156-5.344c.094-.344.11-.375.547-.375h1.063c.968 0 1.797.531 1.797 1.844 0 .484-.188 2.125-1.047 3.218A2.919 2.919 0 0 1 3.797-.313H2.453c-.094-.015-.125-.03-.125-.109 0-.031 0-.047.047-.219zm0 0"/></symbol><symbol id="g" overflow="visible"><path d="M2.328-4.438c0-.187 0-.187-.203-.187-.453.438-1.078.438-1.36.438v.25c.157 0 .626 0 1-.188v3.547c0 .234 0 .328-.687.328H.812V0c.125 0 .985-.031 1.235-.031.219 0 1.094.031 1.25.031v-.25H3.03c-.703 0-.703-.094-.703-.328zm0 0"/></symbol></defs><use height="744.094" width="1052.362" y="134.765" x="223.432" xlink:href="#f"/><use height="744.094" width="1052.362" y="136.259" x="231.68" xlink:href="#g"/></g><g ns0:text="$S _{\\rm{1}}$" ns0:preamble="/home/waldgeist/data/sphinx/inkscape-preamble.tex" transform="matrix(5.38006 0 0 5.38006 -707.05 -529.973)"><defs><symbol overflow="visible" id="h"><path d="M6.438-6.922a.12.12 0 0 0-.125-.11c-.047 0-.047.016-.172.157l-.485.563c-.25-.47-.765-.72-1.422-.72-1.265 0-2.453 1.157-2.453 2.36 0 .797.516 1.266 1.032 1.406l1.062.282c.375.093.922.25.922 1.062 0 .89-.813 1.828-1.797 1.828-.64 0-1.75-.218-1.75-1.453 0-.234.063-.484.063-.531.015-.047.015-.063.015-.078 0-.094-.062-.11-.11-.11a.142.142 0 0 0-.109.047C1.08-2.188.516.094.516.125c0 .047.046.094.109.094.047 0 .063-.016.188-.157L1.296-.5c.422.578 1.11.719 1.687.719 1.36 0 2.532-1.328 2.532-2.563 0-.687-.344-1.031-.485-1.172-.234-.218-.39-.265-1.265-.484-.235-.063-.579-.172-.672-.188a.928.928 0 0 1-.61-.906c0-.812.797-1.656 1.75-1.656.813 0 1.422.438 1.422 1.547 0 .312-.031.5-.031.562 0 0 0 .094.11.094.109 0 .124-.031.156-.203zm0 0"/></symbol><symbol overflow="visible" id="i"><path d="M2.328-4.438c0-.187 0-.187-.203-.187-.453.438-1.078.438-1.36.438v.25c.157 0 .626 0 1-.188v3.547c0 .234 0 .328-.687.328H.812V0c.125 0 .985-.031 1.235-.031.219 0 1.094.031 1.25.031v-.25H3.03c-.703 0-.703-.094-.703-.328zm0 0"/></symbol></defs><use height="744.094" width="1052.362" xlink:href="#h" x="223.432" y="134.765"/><use height="744.094" width="1052.362" xlink:href="#i" x="229.541" y="136.259"/></g></g></svg>