<svg xmlns="http://www.w3.org/2000/svg" xmlns:xlink="http://www.w3.org/1999/xlink" width="1052.362" height="744.094"><title>ODER-Schaltung</title><defs><marker id="b" orient="auto" overflow="visible"><path d="M2.308 0l-3.46 2v-4l3.46 2z" fill-rule="evenodd" stroke="#000" stroke-width=".4pt"/></marker></defs><g transform="translate(0 -308.268)"><path style="marker:none" color="#000" overflow="visible" fill="#fff" stroke="#fff" stroke-width=".867" stroke-linecap="round" stroke-linejoin="round" d="M57.183 319.732h937.996v721.166H57.183z"/><path d="M-193.22 921.26h383.7" fill="none" stroke="#000" stroke-width="2.257" stroke-linecap="round" transform="matrix(-.63906 0 0 .69107 281.082 373.385)"/><path d="M159.355 716.023v69.804M159.355 629.767v69.38" fill="none" stroke="#000" stroke-width="2.07321" stroke-linecap="round"/><g fill="none" stroke="#000" stroke-width="3.372" stroke-linecap="round"><path d="M893.302 1257.256v-200.939M869.468 1120.08v73.413" transform="matrix(0 -.69107 .54707 0 -473.492 1316.654)"/></g><g fill="none" stroke="#000" stroke-linecap="round" stroke-width=".892"><path d="M117.097 653.043v22.83M104.39 664.458h22.83" stroke-width="2.07418544"/></g><path d="M117.097 739.51v22.83" fill="none" stroke="#000" stroke-width="2.07321" stroke-linecap="round"/><g transform="matrix(0 1.42083 .69107 0 -110.43 303.725)"><path d="M101.713 921.26H74.272" id="a" fill="none" stroke="#000" stroke-width="2.092" stroke-linecap="round"/><use xlink:href="#a" transform="translate(169.02)" width="372.047" height="262.205" stroke-width="3" stroke-linecap="round"/></g><path fill="none" stroke="#000" stroke-width="2.07321" stroke-linecap="round" d="M505.893 549h40.662v-99.077h-40.662z"/><g transform="matrix(0 .69107 .69107 0 66.212 132.677)" stroke-width="3"><path d="M748.13 665.654l-69.359 39.23v-78.46l69.36 39.23z" fill="none" stroke="#000" stroke-linecap="square"/><path d="M752.431 627.443v76.422" fill="none" stroke="#000" stroke-linecap="round"/><path id="c" d="M695.75 614.612l45.47-45.47" fill="none" stroke="#000" stroke-linecap="round" marker-end="url(#b)"/><use height="1052.362" width="744.094" transform="translate(20.75 11.75)" xlink:href="#c" stroke-linecap="round"/></g><path d="M526.224 549.685v52.07" fill="none" stroke-width="2.07321" stroke-linecap="round" stroke="#000"/><g fill="none" stroke="#000"><g transform="matrix(2.6017 0 0 2.6017 -769.79 425.387)" stroke-width="1.639"><ellipse style="marker:none" transform="matrix(-1 0 0 1.33333 895.968 -4.01)" cx="421.654" cy="100.866" rx="14.173" ry="10.63" color="#000" overflow="visible" stroke-width=".69" stroke-linecap="square"/><path d="M470.772 130.478h-14.174M470.772 137.565v-14.173M470.851 126.853l10.55-7.004v-7.087" stroke-width=".797" stroke-linecap="round"/><path d="M470.728 133.978l10.674 7.13v7.087" stroke-width=".797" stroke-linecap="round" stroke-linejoin="round"/></g><path d="M241.162 980.596l34.74 23.207" stroke-width="3.019" marker-end="url(#b)" transform="matrix(.69107 0 0 .69107 288.252 96.306)"/></g><g transform="matrix(0 -.69107 -.69107 0 739.852 2011.687)" stroke="#000" stroke-linecap="round"><g transform="translate(1550.675 43.72)"><g stroke-width=".891" fill="none"><path d="M253.536-86.061l-59.626.14M26.959-86.061l61.654.14 105.297-35.915" stroke-width="2.9986872300000003"/></g><circle transform="translate(-77.527 -44.7) scale(.78846)" cx="210.714" cy="-52.281" r="6.786" stroke-width="5"/></g><circle transform="translate(1578.446 -.98) scale(.78846)" cx="210.714" cy="-52.281" r="6.786" stroke-width="5"/></g><g fill="none" stroke="#000"><g transform="matrix(-2.6017 0 0 2.6017 1822.24 425.386)" stroke-width="1.639"><ellipse style="marker:none" transform="matrix(-1 0 0 1.33333 895.968 -4.01)" cx="421.654" cy="100.866" rx="14.173" ry="10.63" color="#000" overflow="visible" stroke-width=".69" stroke-linecap="square"/><path d="M470.772 130.478h-14.174M470.772 137.565v-14.173M470.851 126.853l10.55-7.004v-7.087" stroke-width=".797" stroke-linecap="round"/><path d="M470.728 133.978l10.674 7.13v7.087" stroke-width=".797" stroke-linecap="round" stroke-linejoin="round"/></g><path d="M241.162 980.596l34.74 23.207" stroke-width="3.019" marker-end="url(#b)" transform="matrix(-.69107 0 0 .69107 764.197 96.305)"/></g><path fill="none" stroke="#000" stroke-width="2.07321" stroke-linecap="round" d="M634.306 786.174v-40.662h99.076v40.662z"/><g transform="matrix(.69107 0 0 .69107 109.264 332.69)" stroke="#000" stroke-width="2.171"><circle transform="rotate(-90 919.131 98.938) scale(.78846)" cx="210.714" cy="-52.281" r="6.786" stroke-width="2.753" stroke-linecap="round"/><path d="M954.676 851.931H251.89M779.06 851.931l-.177 127.753" fill="none" stroke-linecap="round"/><g transform="rotate(-90 1361.898 1067.668)" stroke-linecap="round"><g transform="translate(1550.675 43.72)"><g stroke-width=".645" fill="none"><path d="M253.536-86.061l-59.626.14M26.959-86.061l61.654.14 105.297-35.915" stroke-width="2.17076685"/></g><circle transform="translate(-77.527 -44.7) scale(.78846)" cx="210.714" cy="-52.281" r="6.786" stroke-width="2.753"/></g><circle transform="translate(1578.446 -.98) scale(.78846)" cx="210.714" cy="-52.281" r="6.786" stroke-width="2.753"/></g></g><g transform="rotate(-90 462.823 476.152) scale(.69107)" stroke-width="3" stroke-linecap="round"><path fill="none" stroke="#000" d="M222.539 480.987h58.84v143.367h-58.84z"/><use height="262.205" width="372.047" transform="matrix(0 -1.88412 1 0 -669.3 620.924)" xlink:href="#a"/></g><circle transform="rotate(-90)" cx="-405.555" cy="526.229" r="3.697" stroke="#000" stroke-width="2.724" stroke-linecap="round"/><path d="M526.229 405.555h366.778" fill="none" stroke="#000" stroke-width="1.5" stroke-linecap="round"/><circle transform="rotate(-90)" cx="-832.828" cy="526.225" r="3.697" stroke="#000" stroke-width="2.724" stroke-linecap="round"/><path d="M569.668 832.828h-86.994M482.674 832.828v-21.882M569.775 832.827v-21.881M526.225 696.878v-46.983M482.674 718.76v-21.882M569.775 718.76v-21.882M569.667 696.878h-86.993" fill="none" stroke="#000" stroke-width="2.073" stroke-linecap="round"/><circle transform="rotate(-90)" cx="-696.878" cy="526.225" r="3.697" stroke="#000" stroke-width="2.724" stroke-linecap="round"/><path d="M404.783 877.13l-.122 132.91M647.557 1010.04h245.45M893.007 1010.04V405.554" fill="none" stroke="#000" stroke-width="1.5" stroke-linecap="round"/><g><path d="M-383.533 728.937h189.965" fill="none" stroke="#000" stroke-width="2.257" stroke-linecap="round" transform="matrix(-.63906 0 0 .69107 281.082 373.385)"/></g><g><g transform="matrix(0 -.69107 -.69107 0 739.852 2011.687)" stroke="#000" stroke-linecap="round"><g transform="translate(1550.675 43.72)"><g stroke-width=".645" fill="none"><path d="M253.536-86.061l-59.626.14M26.959-86.061l61.654.14 105.297-35.915" stroke-width="2.17076685"/></g><circle transform="translate(-77.527 -44.7) scale(.78846)" cx="210.714" cy="-52.281" r="6.786" stroke-width="5"/></g><circle transform="translate(1578.446 -.98) scale(.78846)" cx="210.714" cy="-52.281" r="6.786" stroke-width="5"/></g></g><circle transform="rotate(-90)" cx="-405.555" cy="526.229" r="3.697" stroke="#000" stroke-width="2.724" stroke-linecap="round"/><use xlink:href="#a" transform="matrix(-1.30206 0 0 -.69107 865.818 1401.506)" width="372.047" height="262.205" stroke-width="3" stroke-linecap="round"/><circle transform="rotate(-90)" cx="-832.828" cy="526.225" r="3.697" stroke="#000" stroke-width="2.724" stroke-linecap="round"/><path d="M482.674 832.828v-21.882" fill="none" stroke="#000" stroke-width="2.073" stroke-linecap="round"/><path d="M526.225 696.878v-46.983" fill="none" stroke="#000" stroke-width="1.5" stroke-linecap="round"/><path d="M482.674 718.76v-21.882M569.775 718.76v-21.882" fill="none" stroke="#000" stroke-width="2.073" stroke-linecap="round"/><circle transform="rotate(-90)" cx="-696.878" cy="526.225" r="3.697" stroke="#000" stroke-width="2.724" stroke-linecap="round"/><path d="M526.225 832.828l-.122 44.303M159.355 405.555h370.571M159.355 1010.04V785.826M159.355 629.767V405.555" fill="none" stroke="#000" stroke-width="1.5" stroke-linecap="round"/></g></svg>