<svg xmlns="http://www.w3.org/2000/svg" xmlns:xlink="http://www.w3.org/1999/xlink" width="1052.362" height="744.094"><title>ODER-Schaltung (mechanisch)</title><defs><marker orient="auto" id="b" overflow="visible"><path d="M2.308 0l-3.46 2v-4l3.46 2z" fill-rule="evenodd" stroke="#000" stroke-width=".4pt"/></marker></defs><path style="marker:none" color="#000" fill="#fff" stroke="#fff" stroke-linecap="round" stroke-linejoin="round" overflow="visible" d="M138.668 820.66h1028.335v654.578H138.668z"/><g><path style="marker:none" color="#000" fill="#fff" stroke="#fff" stroke-linecap="round" stroke-linejoin="round" overflow="visible" d="M12.013 32.884h1028.335v678.327H12.013z"/><path d="M241.374 324.365V203.353" fill="none" stroke="#000" stroke-width="3" stroke-linecap="round"/><path d="M119.568 983.155h122.911" fill="none" stroke="#000" stroke-width="2.983" stroke-linecap="round" transform="matrix(0 1.01138 1 0 -741.78 429.26)"/><path d="M171.483 921.26h113.542" fill="none" stroke="#000" stroke-width="3.399" stroke-linecap="round" transform="matrix(0 -.77878 -1 0 1711.125 424.324)"/><g fill="none" stroke="#000" stroke-linecap="round"><g stroke-width="3.069"><path d="M129.568 921.26h60.911M-96.255 921.26h225.823" transform="matrix(-.95543 0 0 1 423.166 -246.76)"/></g><g stroke-width="3.334"><path d="M129.568 921.26h112.911M-96.255 921.26h225.823" transform="matrix(-.80978 0 0 1 711.485 -246.76)"/></g></g><path d="M789.865 674.499v-87.924M241.374 449.18v101.008M241.374 324.365v100.396" fill="none" stroke="#000" stroke-width="3" stroke-linecap="round"/><g fill="none" stroke="#000" stroke-width="3.372" stroke-linecap="round"><path d="M893.302 1257.256v-200.939M869.468 1120.08v73.413" transform="matrix(0 -1 .79163 0 -674.377 1318.314)"/></g><g fill="none" stroke="#000" stroke-linecap="round" stroke-width=".892"><path d="M180.225 358.045v33.036M161.839 374.563h33.035" stroke-width="3.00141052"/></g><path d="M180.225 483.167v33.035" fill="none" stroke="#000" stroke-width="3" stroke-linecap="round"/><g><g transform="matrix(0 2.05598 -1 0 1711.125 81.656)"><path id="a" d="M101.713 921.26H76.566" fill="none" stroke="#000" stroke-width="2.092" stroke-linecap="round"/><use height="262.205" width="372.047" transform="translate(169.02)" xlink:href="#a" stroke-width="3" stroke-linecap="round"/></g><path fill="none" stroke="#000" stroke-width="3" stroke-linecap="round" d="M819.286 436.576h-58.84V293.21h58.84z"/><g><g transform="rotate(90 810.688 644.831)" stroke-width="3"><path d="M748.13 665.654l-69.359 39.23v-78.46l69.36 39.23z" fill="none" stroke="#000" stroke-linecap="square"/><path d="M752.431 627.443v76.422" fill="none" stroke="#000" stroke-linecap="round"/><path d="M695.75 614.612l45.47-45.47" id="c" fill="none" stroke="#000" stroke-linecap="round" marker-end="url(#b)"/><use xlink:href="#c" transform="translate(20.75 11.75)" width="744.094" height="1052.362" stroke-linecap="round"/></g><path d="M789.865 437.568v75.347" fill="none" stroke-width="3" stroke-linecap="round" stroke="#000"/></g></g><path d="M789.865 202.415l-162.3-.3M403.04 203.53l-161.666-.177" fill="none" stroke="#000" stroke-width="3" stroke-linecap="round"/><g><path d="M407.365 203.53a5.35 5.35 0 1 1-10.701 0 5.35 5.35 0 0 1 10.7 0z" stroke="#000" stroke-width="3.9423000000000004" stroke-linecap="round"/><path d="M402.014 301.688V105.371" fill="none" stroke="#000" stroke-width="3" stroke-linecap="round"/><path d="M633.942 203.53a5.35 5.35 0 1 1-10.7 0 5.35 5.35 0 0 1 10.7 0z" stroke="#000" stroke-width="3.9423000000000004" stroke-linecap="round"/><path d="M628.591 301.688V105.371" fill="none" stroke="#000" stroke-width="3" stroke-linecap="round"/><g stroke="#000" stroke-linecap="round"><g stroke-width=".891" fill="none"><path d="M628.591 105.37l-59.625.14M402.014 105.37l61.654.14 105.298-35.915" stroke-width="2.9986872300000003"/></g><path d="M469.019 105.51a5.35 5.35 0 1 1-10.701 0 5.35 5.35 0 0 1 10.7 0zM574.316 105.51a5.35 5.35 0 1 1-10.7 0 5.35 5.35 0 0 1 10.7 0z" stroke-width="3.9423000000000004"/></g><g stroke="#000" stroke-linecap="round"><g stroke-width=".891" fill="none"><path d="M628.591 301.688l-59.625.14M402.014 301.688l61.654.14 105.298-35.915" stroke-width="2.9986872300000003"/></g><path d="M469.019 301.828a5.35 5.35 0 1 1-10.701 0 5.35 5.35 0 0 1 10.7 0zM574.316 301.828a5.35 5.35 0 1 1-10.7 0 5.35 5.35 0 0 1 10.7 0z" stroke-width="3.9423000000000004"/></g></g></g></svg>