<svg xmlns="http://www.w3.org/2000/svg" xmlns:xlink="http://www.w3.org/1999/xlink" width="1052.362" height="744.094"><title>NICHT-Schaltung (mechanisch)</title><defs><marker orient="auto" id="a" overflow="visible"><path d="M2.308 0l-3.46 2v-4l3.46 2z" fill-rule="evenodd" stroke="#000" stroke-width=".4pt"/></marker></defs><g><path style="marker:none" color="#000" fill="#fff" stroke="#fff" stroke-linecap="round" stroke-linejoin="round" overflow="visible" d="M12.013 80.38h1028.335v583.335H12.013z"/><g stroke="#000" stroke-width="2.725" fill="none" stroke-linecap="round"><path d="M73.112 921.76l30.398-.14M73.112 921.76h452.452" transform="matrix(1.21226 0 0 1 150.754 -788.126)"/></g><path d="M239.385 254.645V133.633" fill="none" stroke="#000" stroke-width="3" stroke-linecap="round"/><path d="M119.568 983.155h122.911" fill="none" stroke="#000" stroke-width="2.983" stroke-linecap="round" transform="matrix(0 1.01138 1 0 -743.77 359.54)"/><g fill="none" stroke="#000" stroke-width="3.069" stroke-linecap="round"><path d="M129.568 921.26h60.694M-96.255 921.26h225.823" transform="matrix(-.95543 0 0 1 421.177 -316.48)"/></g><g fill="none" stroke="#000" stroke-width="3.334" stroke-linecap="round"><path d="M129.568 921.26h112.911M-96.255 921.26h225.823" transform="matrix(-.80978 0 0 1 709.496 -316.48)"/></g><path d="M129.568 985.26h87.924" fill="none" stroke="#000" stroke-width="3.24" stroke-linecap="round" transform="matrix(0 -.85717 -1 0 1772.701 715.84)"/><path d="M239.385 379.46v101.008M239.385 254.645v100.396" fill="none" stroke="#000" stroke-width="3" stroke-linecap="round"/><g fill="none" stroke="#000" stroke-width="3.372" stroke-linecap="round"><path d="M893.302 1257.256v-200.939M869.468 1120.08v73.413" transform="matrix(0 -1 .79163 0 -676.366 1248.594)"/></g><g fill="none" stroke="#000" stroke-linecap="round" stroke-width=".892"><path d="M178.236 288.325v33.036M159.85 304.843h33.036" stroke-width="3.00141052"/></g><path d="M178.236 413.447v33.035" fill="none" stroke="#000" stroke-width="3" stroke-linecap="round"/><g><g transform="rotate(90 838.274 615.256)" stroke-width="3"><path d="M748.13 665.654l-69.359 39.23v-78.46l69.36 39.23z" fill="none" stroke="#000" stroke-linecap="square"/><path d="M752.431 627.443v76.422" fill="none" stroke="#000" stroke-linecap="round"/><path id="b" d="M695.75 614.612l45.47-45.47" fill="none" stroke="#000" stroke-linecap="round" marker-end="url(#a)"/><use height="1052.362" width="744.094" transform="translate(20.75 11.75)" xlink:href="#b" stroke-linecap="round"/></g><path d="M787.877 380.407v75.347" fill="none" stroke-width="3" stroke-linecap="round" stroke="#000"/></g><g stroke="#000" stroke-linecap="round"><g stroke-width=".891" fill="none"><path d="M965.847 604.779l.296-58.523M966.283 380.407l-.14 60.551 35.915 105.298" stroke-width="2.9986872300000003"/></g><path d="M966.143 446.308a5.35 5.35 0 1 1 0-10.7 5.35 5.35 0 0 1 0 10.7z" stroke-width="3.9423000000000004"/></g><path d="M966.143 552.708a5.35 5.35 0 1 1 0-10.7 5.35 5.35 0 0 1 0 10.7z" stroke="#000" stroke-width="3.9423000000000004" stroke-linecap="round"/><g fill="none" stroke="#000" stroke-width="3" stroke-linecap="round"><path d="M787.877 185.336v-51.703M817.297 328.703h-58.84V185.336h58.84zM787.877 380.407v-51.704"/></g><path d="M787.877 385.757a5.35 5.35 0 1 1 0-10.7 5.35 5.35 0 0 1 0 10.7zM787.441 610.13a5.35 5.35 0 1 1 0-10.701 5.35 5.35 0 0 1 0 10.7z" stroke="#000" stroke-width="3.9423000000000004" stroke-linecap="round"/><g><path d="M171.483 921.26h112.258" fill="none" stroke="#000" stroke-width="2.38" stroke-linecap="round" transform="matrix(1.58925 0 0 -1 515.347 1301.666)"/><path d="M171.483 921.26h112.258" fill="none" stroke="#000" stroke-width="2.38" stroke-linecap="round" transform="matrix(1.58925 0 0 -1 514.911 1526.039)"/></g></g></svg>