<svg xmlns="http://www.w3.org/2000/svg" xmlns:xlink="http://www.w3.org/1999/xlink" width="1052.362" height="744.094"><title>UND-Schaltung (mechanisch)</title><defs><marker orient="auto" id="b" overflow="visible"><path d="M2.308 0l-3.46 2v-4l3.46 2z" fill-rule="evenodd" stroke="#000" stroke-width=".4pt"/></marker></defs><path style="marker:none" color="#000" fill="#fff" stroke="#fff" stroke-linecap="round" stroke-linejoin="round" overflow="visible" d="M12.013 5.321h1028.335v654.58H12.013z"/><g stroke="#000" stroke-width="2.725" fill="none" stroke-linecap="round"><path d="M73.112 921.76l30.398-.14M73.112 921.76l30.398-.14" transform="matrix(1.21226 0 0 1 152.742 -784.785)"/></g><path d="M241.374 257.986V136.974" fill="none" stroke="#000" stroke-width="3" stroke-linecap="round"/><path d="M119.568 983.155h122.911" fill="none" stroke="#000" stroke-width="2.983" stroke-linecap="round" transform="matrix(0 1.01138 1 0 -741.78 362.88)"/><g fill="none" stroke="#000" stroke-width="3.069" stroke-linecap="round"><path d="M129.568 921.26h60.911M-96.255 921.26h225.823" transform="matrix(-.95543 0 0 1 423.166 -313.14)"/></g><path d="M171.483 921.26h112.258" fill="none" stroke="#000" stroke-width="3.399" stroke-linecap="round" transform="matrix(0 -.77878 -1 0 1711.125 357.945)"/><g fill="none" stroke="#000" stroke-width="3.334" stroke-linecap="round"><path d="M129.568 921.26h112.911M-96.255 921.26h225.823" transform="matrix(-.80978 0 0 1 711.485 -313.14)"/></g><path d="M789.865 608.12v-87.924M241.374 382.802v101.007M241.374 257.986v100.396" fill="none" stroke="#000" stroke-width="3" stroke-linecap="round"/><g fill="none" stroke="#000" stroke-width="3.372" stroke-linecap="round"><path d="M893.302 1257.256v-200.939M869.468 1120.08v73.413" transform="matrix(0 -1 .79163 0 -674.377 1251.935)"/></g><g fill="none" stroke="#000" stroke-linecap="round" stroke-width=".892"><path d="M180.225 291.666v33.036M161.839 308.184h33.035" stroke-width="3.00141052"/></g><path d="M180.225 416.788v33.035" fill="none" stroke="#000" stroke-width="3" stroke-linecap="round"/><g><g transform="matrix(0 2.05598 -1 0 1711.125 15.277)"><path d="M101.713 921.26H76.566" id="a" fill="none" stroke="#000" stroke-width="2.092" stroke-linecap="round"/><use xlink:href="#a" transform="translate(169.02)" width="372.047" height="262.205" stroke-width="3" stroke-linecap="round"/></g><path fill="none" stroke="#000" stroke-width="3" stroke-linecap="round" d="M819.286 370.198h-58.84V226.83h58.84z"/><g><g transform="rotate(90 843.877 611.642)" stroke-width="3"><path d="M748.13 665.654l-69.359 39.23v-78.46l69.36 39.23z" fill="none" stroke="#000" stroke-linecap="square"/><path d="M752.431 627.443v76.422" fill="none" stroke="#000" stroke-linecap="round"/><path id="c" d="M695.75 614.612l45.47-45.47" fill="none" stroke="#000" stroke-linecap="round" marker-end="url(#b)"/><use height="1052.362" width="744.094" transform="translate(20.75 11.75)" xlink:href="#c" stroke-linecap="round"/></g><path d="M789.865 371.189v75.347" fill="none" stroke-width="3" stroke-linecap="round" stroke="#000"/></g></g><g><g stroke="#000" stroke-linecap="round"><g stroke-width=".891" fill="none"><path d="M503.775 136.835l-59.626.14M277.198 136.835l61.654.14 105.297-35.915" stroke-width="2.9986872300000003"/></g><path d="M344.202 136.974a5.35 5.35 0 1 1-10.7 0 5.35 5.35 0 0 1 10.7 0zM449.5 136.974a5.35 5.35 0 1 1-10.7 0 5.35 5.35 0 0 1 10.7 0z" stroke-width="3.9423000000000004"/></g></g><g><g stroke="#000" stroke-linecap="round"><g stroke-width=".891" fill="none"><path d="M754.752 136.974h-59.625M528.841 136.835l58.96.14 107.326-35.776" stroke-width="2.9986872300000003"/></g><path d="M595.18 136.974a5.35 5.35 0 1 1-10.701 0 5.35 5.35 0 0 1 10.7 0zM700.477 136.974a5.35 5.35 0 1 1-10.7 0 5.35 5.35 0 0 1 10.7 0z" stroke-width="3.9423000000000004"/></g></g><g><path d="M73.112 921.55h30.398" fill="none" stroke-width="3.304" stroke-linecap="round" transform="matrix(.82462 0 0 1 443.485 -784.716)" stroke="#000"/></g><g><path d="M73.112 921.62h30.398" fill="none" stroke-width="2.725" stroke-linecap="round" transform="matrix(1.21226 0 0 1 664.384 -784.646)" stroke="#000"/></g></svg>