<svg xmlns:ns0="http://www.iki.fi/pav/software/textext/" xmlns="http://www.w3.org/2000/svg" xmlns:xlink="http://www.w3.org/1999/xlink" width="1052.362" height="744.094"><title>XODER-Schaltung (mechanisch)</title><defs><marker id="b" orient="auto" overflow="visible"><path d="M2.308 0l-3.46 2v-4l3.46 2z" fill-rule="evenodd" stroke="#000" stroke-width=".4pt"/></marker></defs><path style="marker:none" color="#000" fill="#fff" stroke="#fff" stroke-linecap="round" stroke-linejoin="round" overflow="visible" d="M138.668 820.66h1028.335v654.578H138.668z"/><g><path style="marker:none" color="#000" fill="#fff" stroke="#fff" stroke-linecap="round" stroke-linejoin="round" overflow="visible" d="M12.013 32.884h1028.335v678.327H12.013z"/><path d="M241.374 257.486V136.474" fill="none" stroke="#000" stroke-width="3" stroke-linecap="round"/><path d="M119.568 983.155h122.911" fill="none" stroke="#000" stroke-width="2.983" stroke-linecap="round" transform="matrix(0 1.01138 1 0 -741.78 362.38)"/><g fill="none" stroke="#000" stroke-linecap="round"><g stroke-width="3.069"><path d="M129.568 921.26h60.911M-96.255 921.26h225.823" transform="matrix(-.95543 0 0 1 423.166 -313.64)"/></g><g stroke-width="3.334"><path d="M129.568 921.26h112.911M-96.255 921.26h225.823" transform="matrix(-.80978 0 0 1 711.485 -313.64)"/></g></g><path d="M241.374 382.302v101.007M241.374 257.486v100.396" fill="none" stroke="#000" stroke-width="3" stroke-linecap="round"/><g fill="none" stroke="#000" stroke-width="3.372" stroke-linecap="round"><path d="M893.302 1257.256v-200.939M869.468 1120.08v73.413" transform="matrix(0 -1 .79163 0 -674.377 1251.435)"/></g><g fill="none" stroke="#000" stroke-linecap="round" stroke-width=".892"><path d="M180.225 291.166v33.036M161.839 307.684h33.035" stroke-width="3.00141052"/></g><path d="M180.225 416.288v33.035" fill="none" stroke="#000" stroke-width="3" stroke-linecap="round"/><g transform="matrix(0 2.05598 -1 0 1447.125 14.777)"><path id="a" d="M101.713 921.26H59.236" fill="none" stroke="#000" stroke-width="2.092" stroke-linecap="round"/><use height="262.205" width="372.047" transform="translate(186.35 -.316)" xlink:href="#a" stroke-width="3" stroke-linecap="round"/></g><path fill="none" stroke="#000" stroke-width="3" stroke-linecap="round" d="M555.6 369.698h-58.84V226.33h58.84z"/><g transform="rotate(90 712.127 479.392)" stroke-width="3"><path d="M748.13 665.338l-69.359 39.23v-78.46l69.36 39.23z" fill="none" stroke="#000" stroke-linecap="square"/><path d="M752.431 627.443v76.422" fill="none" stroke="#000" stroke-linecap="round"/><path d="M695.75 614.612l45.47-45.47" id="c" fill="none" stroke="#000" stroke-linecap="round" marker-end="url(#b)"/><use xlink:href="#c" transform="translate(20.75 11.75)" width="744.094" height="1052.362" stroke-linecap="round"/></g><path d="M525.865 370.689v75.347M789.865 136.65l-548.491-.176M789.43 607.62l.139-61.654-35.915-105.297" fill="none" stroke-width="3" stroke-linecap="round" stroke="#000"/><path d="M789.569 540.616a5.35 5.35 0 1 1 0 10.7 5.35 5.35 0 1 1 0-10.7zM825.78 435.318a5.35 5.35 0 1 1 0 10.7 5.35 5.35 0 1 1 0-10.7zM753.654 435.318a5.35 5.35 0 1 1 0 10.7 5.35 5.35 0 1 1 0-10.7z" stroke="#000" stroke-width="3.9423000000000004" stroke-linecap="round"/><path d="M789.865 136.65l-.139 61.655 35.915 105.297" fill="none" stroke="#000" stroke-width="3" stroke-linecap="round"/><path d="M790.195 205.031a5.35 5.35 0 1 1 0-10.7 5.35 5.35 0 1 1 0 10.7z" stroke="#000" stroke-width="3.9423000000000004" stroke-linecap="round"/><g stroke="#000" stroke-width="5" stroke-linecap="round"><path d="M754.316 309.526a5.35 5.35 0 1 1 0-10.7 5.35 5.35 0 0 1 0 10.7zM826.075 309.526a5.35 5.35 0 1 1 0-10.7 5.35 5.35 0 0 1 0 10.7z" stroke-width="3.9423000000000004"/></g><g ns0:text="$0$" transform="matrix(3.80348 0 0 3.80348 -33.194 -169.6)"><defs><symbol id="d" overflow="visible"><path d="M4.578-3.188c0-.796-.047-1.593-.39-2.328C3.733-6.484 2.905-6.64 2.5-6.64c-.61 0-1.328.266-1.75 1.188-.313.687-.36 1.469-.36 2.266 0 .75.032 1.64.454 2.406a1.83 1.83 0 0 0 1.64 1c.532 0 1.297-.203 1.735-1.157.312-.687.36-1.468.36-2.25zM2.484 0c-.39 0-.984-.25-1.156-1.203-.11-.594-.11-1.516-.11-2.11 0-.64 0-1.296.079-1.828.187-1.187.937-1.28 1.187-1.28.329 0 .985.187 1.172 1.171.11.563.11 1.313.11 1.938 0 .75 0 1.421-.11 2.062C3.5-.297 2.937 0 2.484 0zm0 0"/></symbol></defs><use y="134.765" x="223.432" xlink:href="#d" width="1052.362" height="744.094"/></g><g ns0:text="$1$" transform="matrix(3.80348 0 0 3.80348 -105.132 -169.184)"><defs><symbol overflow="visible" id="e"><path d="M2.938-6.375c0-.25 0-.266-.235-.266C2.078-6 1.203-6 .891-6v.313c.203 0 .78 0 1.296-.266v5.172c0 .36-.03.469-.921.469H.953V0c.344-.031 1.203-.031 1.61-.031.39 0 1.265 0 1.609.031v-.313h-.313c-.906 0-.921-.109-.921-.468zm0 0"/></symbol></defs><use height="744.094" width="1052.362" xlink:href="#e" x="223.432" y="134.765"/></g><g ns0:text="$0$"><use height="744.094" width="1052.362" xlink:href="#d" x="223.432" y="134.765" transform="matrix(3.80348 0 0 3.80348 -104.954 -85.583)"/></g><g ns0:text="$1$"><use y="134.765" x="223.432" xlink:href="#e" width="1052.362" height="744.094" transform="matrix(3.80348 0 0 3.80348 -33.373 -85.867)"/></g><path d="M754.316 304.176H683.74M757.859 440.701h-73.7" fill="none" stroke="#000" stroke-width="3" stroke-linecap="round"/><g fill="none" stroke="#000" stroke-width="2.972" stroke-linecap="round"><path d="M683.741 304.176l.136 136.525M896.513 304.176l.136 136.525"/></g><path d="M896.215 303.602H825.64M896.354 440.668H825.78" fill="none" stroke="#000" stroke-width="3" stroke-linecap="round"/></g></svg>