<svg xmlns:ns0="http://www.iki.fi/pav/software/textext/" xmlns="http://www.w3.org/2000/svg" xmlns:xlink="http://www.w3.org/1999/xlink" width="1052.362" height="744.094"><title>XNODER-Schaltung (mechanisch)</title><defs><marker id="b" orient="auto" overflow="visible"><path d="M2.308 0l-3.46 2v-4l3.46 2z" fill-rule="evenodd" stroke="#000" stroke-width=".4pt"/></marker></defs><g transform="matrix(3.80348 0 0 3.80348 -385.24 -400.359)" ns0:text="$0$"><defs><symbol overflow="visible" id="d"><path d="M4.578-3.188c0-.796-.047-1.593-.39-2.328C3.733-6.484 2.905-6.64 2.5-6.64c-.61 0-1.328.266-1.75 1.188-.313.687-.36 1.469-.36 2.266 0 .75.032 1.64.454 2.406a1.83 1.83 0 0 0 1.64 1c.532 0 1.297-.203 1.735-1.157.312-.687.36-1.468.36-2.25zM2.484 0c-.39 0-.984-.25-1.156-1.203-.11-.594-.11-1.516-.11-2.11 0-.64 0-1.296.079-1.828.187-1.187.937-1.28 1.187-1.28.329 0 .985.187 1.172 1.171.11.563.11 1.313.11 1.938 0 .75 0 1.421-.11 2.062C3.5-.297 2.937 0 2.484 0zm0 0"/></symbol></defs></g><g transform="matrix(3.80348 0 0 3.80348 -385.418 -328.183)" ns0:text="$1$"><defs><symbol id="e" overflow="visible"><path d="M2.938-6.375c0-.25 0-.266-.235-.266C2.078-6 1.203-6 .891-6v.313c.203 0 .78 0 1.296-.266v5.172c0 .36-.03.469-.921.469H.953V0c.344-.031 1.203-.031 1.61-.031.39 0 1.265 0 1.609.031v-.313h-.313c-.906 0-.921-.109-.921-.468zm0 0"/></symbol></defs></g><g><path style="marker:none" color="#000" fill="#fff" stroke="#fff" stroke-linecap="round" stroke-linejoin="round" overflow="visible" d="M12.013 32.884h1028.335v678.327H12.013z"/><g transform="translate(0 -254.753)"><path d="M241.374 565.754V444.742" fill="none" stroke="#000" stroke-width="3" stroke-linecap="round"/><path d="M119.568 983.155H242.3" fill="none" stroke="#000" stroke-width="2.981" stroke-linecap="round" transform="matrix(0 1.01286 1 0 -741.78 670.472)"/><path d="M-96.255 921.26h225.823" fill="none" stroke="#000" stroke-width="1.926" stroke-linecap="round" transform="matrix(-2.42693 0 0 1 555.826 -5.372)"/><path d="M241.374 690.57v101.007M241.374 565.754V666.15" fill="none" stroke="#000" stroke-width="3" stroke-linecap="round"/><g fill="none" stroke="#000" stroke-width="3.372" stroke-linecap="round"><path d="M893.302 1257.256v-200.939M869.468 1120.08v73.413" transform="matrix(0 -1 .79163 0 -674.377 1559.702)"/></g><g fill="none" stroke="#000" stroke-linecap="round" stroke-width=".892"><path d="M180.225 599.434v33.036M161.839 615.952h33.035" stroke-width="3.00141052"/></g><path d="M180.225 724.555v33.036" fill="none" stroke="#000" stroke-width="3" stroke-linecap="round"/><g transform="matrix(0 2.05598 -1 0 1711.125 323.13)"><path d="M101.713 921.26H59.236" id="a" fill="none" stroke="#000" stroke-width="2.092" stroke-linecap="round"/><use xlink:href="#a" transform="translate(186.35 -.316)" width="372.047" height="262.205" stroke-width="3" stroke-linecap="round"/></g><path fill="none" stroke="#000" stroke-width="3" stroke-linecap="round" d="M819.6 678.05h-58.84V534.683h58.84z"/><g transform="rotate(90 689.95 765.568)" stroke-width="3"><path d="M748.13 665.338l-69.359 39.23v-78.46l69.36 39.23z" fill="none" stroke="#000" stroke-linecap="square"/><path d="M752.431 627.443v76.422" fill="none" stroke="#000" stroke-linecap="round"/><path id="c" d="M695.75 614.612l45.47-45.47" fill="none" stroke="#000" stroke-linecap="round" marker-end="url(#b)"/><use height="1052.362" width="744.094" transform="translate(20.75 11.75)" xlink:href="#c" stroke-linecap="round"/></g><path d="M789.865 679.042v75.347M337.651 444.24l-96.277-.175M750.886 444.918l-61.654-.139-105.297 35.915" fill="none" stroke-width="3" stroke-linecap="round" stroke="#000"/><path d="M683.882 444.78a5.35 5.35 0 1 1 10.7 0 5.35 5.35 0 0 1-10.7 0zM578.585 408.568a5.35 5.35 0 1 1 10.7 0 5.35 5.35 0 0 1-10.7 0zM578.585 480.694a5.35 5.35 0 1 1 10.7 0 5.35 5.35 0 0 1-10.7 0z" stroke="#000" stroke-width="3.9423000000000004" stroke-linecap="round"/><path d="M280.49 444.257l61.655-.14 105.297 35.915" fill="none" stroke="#000" stroke-width="3" stroke-linecap="round"/><path d="M348.297 444.153a5.35 5.35 0 1 1-10.7 0 5.35 5.35 0 0 1 10.7 0z" stroke="#000" stroke-width="3.9423000000000004" stroke-linecap="round"/><g stroke="#000" stroke-width="5" stroke-linecap="round"><path d="M452.793 480.032a5.35 5.35 0 1 1-10.701 0 5.35 5.35 0 0 1 10.7 0zM452.793 408.273a5.35 5.35 0 1 1-10.701 0 5.35 5.35 0 0 1 10.7 0z" stroke-width="3.9423000000000004"/></g><use y="134.765" x="223.432" xlink:href="#d" width="1052.362" height="744.094" transform="matrix(3.80348 0 0 3.80348 -385.573 -20.331)"/><use height="744.094" width="1052.362" xlink:href="#e" x="223.432" y="134.765" transform="matrix(3.80348 0 0 3.80348 -385.751 -91.675)"/><use height="744.094" width="1052.362" xlink:href="#d" x="223.432" y="134.765" transform="matrix(3.80348 0 0 3.80348 -301.556 -20.331)"/><use y="134.765" x="223.432" xlink:href="#e" width="1052.362" height="744.094" transform="matrix(3.80348 0 0 3.80348 -302.434 -91.675)"/><path d="M447.442 480.032v70.575M583.968 476.49v73.7" fill="none" stroke="#000" stroke-width="3" stroke-linecap="round"/><g fill="none" stroke="#000" stroke-width="2.972" stroke-linecap="round"><path d="M447.442 550.607l136.526-.136M447.442 337.835l136.526-.136"/></g><path d="M446.869 338.133v70.574M583.935 337.994v70.574M789.865 445.095l-38.979-.177" fill="none" stroke="#000" stroke-width="3" stroke-linecap="round"/></g></g></svg>