<svg xmlns="http://www.w3.org/2000/svg" xmlns:xlink="http://www.w3.org/1999/xlink" width="744.094" height="1052.362"><title>Die Maschenregel</title><defs><linearGradient id="d"><stop offset="0" stop-opacity="0"/><stop offset="1" stop-color="#fff"/></linearGradient><linearGradient id="e"><stop offset="0" stop-color="#fff"/><stop offset="1" stop-color="#fff" stop-opacity="0"/></linearGradient><linearGradient id="f"><stop offset="0" stop-color="#1a1a1a" stop-opacity=".828"/><stop offset="1" stop-color="#fff"/></linearGradient><linearGradient id="a"><stop offset="0" stop-opacity="0"/><stop offset="1" stop-color="#fff"/></linearGradient><linearGradient id="b"><stop offset="0" stop-color="#ebebeb"/><stop offset="1" stop-color="#fff" stop-opacity="0"/></linearGradient><linearGradient id="c"><stop offset="0" stop-color="#0e0e0e" stop-opacity=".746"/><stop offset="1" stop-color="#fff"/></linearGradient><pattern id="g" height="5.181" width="30.066" patternUnits="userSpaceOnUse"><path d="M7.597.061C5.079-.187 2.656.302-.01 1.788v1.273c2.783-1.63 5.183-2.009 7.482-1.781 2.298.228 4.497 1.081 6.781 1.938 4.567 1.713 9.551 3.458 15.813-.157l-.004-1.273c-6.44 3.709-10.816 1.982-15.371.273-2.278-.854-4.576-1.75-7.094-2z"/></pattern><pattern xlink:href="#g" id="h" patternTransform="translate(.25)"/></defs><path fill="#fff" stroke="#fff" stroke-width="1.5" stroke-linecap="round" stroke-linejoin="bevel" d="M3.645 221.721H740.45v608.92H3.645z"/><path fill="#fff" stroke="#fff" stroke-width="3" stroke-linecap="round" stroke-linejoin="round" d="M11.423 208.468h721.249v635.426H11.423z"/><g fill="#ca7900"><path style="text-indent:0;text-align:start;line-height:normal;text-transform:none;block-progression:tb;marker:none;-inkscape-font-specification:Sans" d="M77.055 422.479V616.34s-7.333 13.566-7.391 13.543l-7.39-13.543V422.479z" font-weight="400" color="#000" overflow="visible" font-family="Sans"/><path d="M-707.107 1620.068l-5.249-9.091-5.249-9.092h20.996l-5.249 9.091z" transform="matrix(-.51037 .00002 .00002 .522 -291.257 -230.971)" stroke="#ca7900" stroke-width="28.972" stroke-linecap="square"/></g><path d="M197.049 538.085v101.008M197.049 413.27v100.395" fill="none" stroke="#000" stroke-width="3" stroke-linecap="round"/><g fill="none" stroke="#000" stroke-width="3.372" stroke-linecap="round"><path d="M893.302 1257.256v-200.939M869.468 1120.08v73.413" transform="matrix(0 -1 .79163 0 -718.702 1407.218)"/></g><g fill="maroon" stroke="#000" stroke-width=".892"><path d="M135.9 446.95v33.035M117.514 463.467h33.036" stroke-width="3.00141052"/></g><path d="M152.418 588.589h-33.036" fill="none" stroke="#000" stroke-width="3"/><g transform="translate(210.846 -579.495)"><path fill="none" stroke="#000" stroke-width="2.99991366" stroke-linecap="round" d="M257.707 891.84v58.84H114.34v-58.84z"/><path d="M114.34 921.26H76.566" id="i" fill="none" stroke="#000" stroke-width="3" stroke-linecap="square"/><use xlink:href="#i" transform="translate(181.141)" width="372.047" height="262.205" stroke-width="3" stroke-linecap="square"/></g><g transform="translate(210.846 -579.495)"><path fill="none" stroke="#000" stroke-width="2.99991366" stroke-linecap="round" d="M257.707 891.84v58.84H114.34v-58.84z"/><path d="M114.34 921.26H76.566" fill="none" stroke="#000" stroke-width="3" stroke-linecap="round"/><use height="262.205" width="372.047" transform="translate(181.141)" xlink:href="#i" stroke-width="3" stroke-linecap="round"/></g><path d="M197.049 431.962V341.6l90.362.173" fill="none" stroke="#000" stroke-width="3" stroke-linecap="round"/><g transform="translate(210.846 -210.662)"><path fill="none" stroke="#000" stroke-width="2.99991366" stroke-linecap="round" d="M257.707 891.84v58.84H114.34v-58.84z"/><path d="M114.34 921.26H76.566" fill="none" stroke="#000" stroke-width="3" stroke-linecap="square"/><use height="262.205" width="372.047" transform="translate(181.141)" xlink:href="#i" stroke-width="3" stroke-linecap="square"/></g><g transform="translate(210.846 -210.662)"><path fill="none" stroke="#000" stroke-width="2.99991366" stroke-linecap="round" d="M257.707 891.84v58.84H114.34v-58.84z"/><path d="M114.34 921.26H76.566" fill="none" stroke="#000" stroke-width="3" stroke-linecap="round"/><use xlink:href="#i" transform="translate(181.141)" width="372.047" height="262.205" stroke-width="3" stroke-linecap="round"/></g><g transform="rotate(90 588.896 929.053)"><path fill="none" stroke="#000" stroke-width="2.99991366" stroke-linecap="round" d="M257.707 891.84v58.84H114.34v-58.84z"/><path d="M114.34 921.26H76.566" fill="none" stroke="#000" stroke-width="3" stroke-linecap="square"/><use xlink:href="#i" transform="translate(181.141)" width="372.047" height="262.205" stroke-width="3" stroke-linecap="square"/></g><g transform="rotate(90 588.896 929.053)"><path d="M114.34 921.26H76.566" fill="none" stroke="#000" stroke-width="3" stroke-linecap="round"/><use height="262.205" width="372.047" transform="translate(181.141)" xlink:href="#i" stroke-width="3" stroke-linecap="round"/></g><path d="M596.69 431.954v-90.362l-90.363.173M596.69 620.408v90.362l-90.363-.173M197.049 620.408v90.362l90.362-.173" fill="none" stroke="#000" stroke-width="3" stroke-linecap="round"/><g><path d="M357.302 257.185h64.62s14.522 7.332 14.514 7.39l-14.514 7.391h-64.62z" style="text-indent:0;text-align:start;line-height:normal;text-transform:none;block-progression:tb;marker:none;-inkscape-font-specification:Sans" font-weight="400" color="#000" fill="#ca7900" overflow="visible" font-family="Sans"/><path d="M-707.107 1620.068l-5.249-9.091-5.249-9.092h20.996l-5.249 9.091z" transform="matrix(.00002 .51037 .522 -.00002 -424.466 625.465)" fill="#ca7900" stroke="#ca7900" stroke-width="28.972" stroke-linecap="square"/></g><g><path style="text-indent:0;text-align:start;line-height:normal;text-transform:none;block-progression:tb;marker:none;-inkscape-font-specification:Sans" d="M436.436 780.444h-64.62s-14.521 7.332-14.514 7.39l14.514 7.391h64.62z" font-weight="400" color="#000" fill="#ca7900" overflow="visible" font-family="Sans"/><path transform="matrix(-.00002 .51037 -.522 -.00002 1218.204 1148.724)" d="M-707.107 1620.068l-5.249-9.091-5.249-9.092h20.996l-5.249 9.091z" fill="#ca7900" stroke="#ca7900" stroke-width="28.972" stroke-linecap="square"/></g><g><path style="text-indent:0;text-align:start;line-height:normal;text-transform:none;block-progression:tb;marker:none;-inkscape-font-specification:Sans" d="M681.804 487.255v64.62s-7.332 14.522-7.39 14.514l-7.39-14.514v-64.62z" font-weight="400" color="#000" fill="#ca7900" overflow="visible" font-family="Sans"/><path transform="matrix(-.51037 .00002 .00002 .522 313.524 -294.513)" d="M-707.107 1620.068l-5.249-9.091-5.249-9.092h20.996l-5.249 9.091z" fill="#ca7900" stroke="#ca7900" stroke-width="28.972" stroke-linecap="square"/></g></svg>