<svg xmlns:ns0="http://www.iki.fi/pav/software/textext/" xmlns="http://www.w3.org/2000/svg" xmlns:xlink="http://www.w3.org/1999/xlink" height="744.094" width="1052.362"><title>Masse-Anschluss</title><path style="marker:none" color="#000" fill="#fff" stroke="#fff" stroke-linecap="round" stroke-linejoin="round" overflow="visible" d="M151.96 111.257h748.947v521.58H151.96z"/><path d="M112.537 983.155h70.868" fill="none" stroke="#000" stroke-width="3.213" stroke-linecap="round" transform="matrix(0 -1.1974 .72831 0 -522.17 384.081)"/><path d="M119.568 983.155h122.911" fill="none" stroke="#000" stroke-width="4.25" stroke-linecap="round" transform="matrix(0 .68424 .72831 0 -522.17 323.566)"/><path d="M-96.363 920.76H75.87" fill="none" stroke="#000" stroke-width="3.21" stroke-linecap="round" transform="matrix(-1.19942 0 0 .72831 285.992 -506.127)"/><path d="M193.872 331.814v73.565M193.872 240.91v73.12" fill="none" stroke="#000" stroke-width="2.99990889" stroke-linecap="round"/><g fill="none" stroke="#000" stroke-width="4.63" stroke-linecap="round"><path d="M893.302 1257.256v-200.939M869.468 1120.08v73.413" transform="matrix(0 -.72831 .57655 0 -473.079 964.813)"/></g><g fill="none" stroke="#000" stroke-width="1.224" stroke-linecap="round"><path d="M149.337 265.44v24.06M135.946 277.47h24.06" stroke-width="2.9995711199999997"/></g><path d="M149.337 356.567v24.06" fill="none" stroke="#000" stroke-width="2.99990889" stroke-linecap="round"/><g transform="matrix(0 1.4974 -.72831 0 1072.736 146.657)"><path id="a" d="M82.997 921.537h-6.483" fill="none" stroke="#000" stroke-width="2.873" stroke-linecap="round"/><use height="262.205" width="372.047" transform="matrix(1.78923 0 0 1 15.828 0)" xlink:href="#a" stroke-width="3" stroke-linecap="round"/></g><path fill="none" stroke="#000" stroke-width="3" stroke-linecap="round" d="M422.998 375.352h-42.854V270.936h42.854zM401.571 261.229v-96.757M401.571 489.48v-96.757"/><g transform="matrix(3.15938 0 0 3.15938 -1319.48 -94.227)" ns0:text="\\begin{flushright}\n$R _{\\rm{1}}$\n\\end{flushright}"><defs><symbol id="b" overflow="visible"><path d="M3.734-6.125c.063-.234.094-.328.282-.36.093-.015.406-.015.609-.015.703 0 1.813 0 1.813.984 0 .344-.157 1.032-.547 1.422-.266.25-.782.578-1.688.578h-1.11zm1.438 2.734c1.016-.218 2.187-.921 2.187-1.921 0-.86-.89-1.5-2.203-1.5H2.328c-.203 0-.297 0-.297.203 0 .109.094.109.281.109.016 0 .204 0 .376.016.187.03.265.03.265.171 0 .032 0 .063-.031.188L1.578-.781c-.094.39-.11.469-.906.469-.172 0-.266 0-.266.203C.406 0 .531 0 .546 0c.282 0 .985-.031 1.25-.031.282 0 1 .031 1.282.031.078 0 .188 0 .188-.203 0-.11-.079-.11-.282-.11-.359 0-.64 0-.64-.171 0-.063.015-.11.031-.172l.656-2.64H4.22c.906 0 1.078.562 1.078.905 0 .141-.078.454-.14.688-.063.281-.157.64-.157.844C5 .219 6.203.219 6.328.219c.844 0 1.203-1 1.203-1.14 0-.126-.11-.126-.125-.126-.093 0-.11.063-.125.14-.25.735-.687.907-.906.907-.328 0-.406-.219-.406-.61 0-.312.062-.812.11-1.14.015-.14.03-.328.03-.469 0-.765-.671-1.078-.937-1.172zm0 0"/></symbol><symbol id="c" overflow="visible"><path d="M2.328-4.438c0-.187 0-.187-.203-.187-.453.438-1.078.438-1.36.438v.25c.157 0 .626 0 1-.188v3.547c0 .234 0 .328-.687.328H.812V0c.125 0 .985-.031 1.235-.031.219 0 1.094.031 1.25.031v-.25H3.03c-.703 0-.703-.094-.703-.328zm0 0"/></symbol></defs><use y="134.765" x="555.109" xlink:href="#b" width="1052.362" height="744.094"/><use y="136.259" x="562.674" xlink:href="#c" width="1052.362" height="744.094"/></g><g><path d="M-96.363 920.76H75.87" fill="none" stroke="#000" stroke-width="3.21" stroke-linecap="round" transform="matrix(-1.19942 0 0 .72831 285.992 -181.118)"/></g><g><g stroke-width="1.013" fill="none" stroke="#000" stroke-linecap="round"><path d="M10.727 6.762V19.97M2.42 27.988h16.747M27.54 19.913H-6.183M-1.67 23.95h25.12" transform="matrix(2.0167 0 0 4.3483 172.238 460.077)"/></g></g><path style="marker:none" d="M526.433 151.324v441.447" color="#000" fill="none" stroke="gray" stroke-width="2" stroke-linecap="round" stroke-linejoin="round" overflow="visible"/><g><path d="M112.537 983.155h70.868" fill="none" stroke="#000" stroke-width="3.213" stroke-linecap="round" transform="matrix(0 -1.1974 .72831 0 -72.603 381.925)"/><path d="M119.568 983.155h122.911" fill="none" stroke="#000" stroke-width="4.25" stroke-linecap="round" transform="matrix(0 .68424 .72831 0 -72.603 321.41)"/><path d="M-96.363 920.76H75.87" fill="none" stroke="#000" stroke-width="3.21" stroke-linecap="round" transform="matrix(-1.19942 0 0 .72831 735.559 -508.283)"/><path d="M643.439 329.659v73.565M643.439 238.755v73.119" fill="none" stroke="#000" stroke-width="2.99990889" stroke-linecap="round"/><g fill="none" stroke="#000" stroke-width="4.63" stroke-linecap="round"><path d="M893.302 1257.256v-200.939M869.468 1120.08v73.413" transform="matrix(0 -.72831 .57655 0 -23.512 962.657)"/></g><g fill="none" stroke="#000" stroke-width="1.224" stroke-linecap="round"><path d="M598.903 263.284v24.06M585.513 275.314h24.06" stroke-width="2.9995711199999997"/></g><path d="M598.903 354.411v24.06" fill="none" stroke="#000" stroke-width="2.99990889" stroke-linecap="round"/><g transform="matrix(0 1.4974 -.72831 0 1522.303 144.502)"><path d="M82.997 921.537h-6.483" fill="none" stroke="#000" stroke-width="2.873" stroke-linecap="round"/><use height="262.205" width="372.047" transform="matrix(1.78923 0 0 1 15.828 0)" xlink:href="#a" stroke-width="3" stroke-linecap="round"/></g><path fill="none" stroke="#000" stroke-width="2.9999966099999997" stroke-linecap="round" d="M872.565 373.197h-42.854V268.782h42.854zM851.138 259.073v-96.757M851.138 487.324v-96.757"/><g ns0:text="\\begin{flushright}\n$R _{\\rm{1}}$\n\\end{flushright}"><use y="134.765" x="555.109" xlink:href="#b" width="1052.362" height="744.094" transform="matrix(3.15938 0 0 3.15938 -869.914 -96.383)"/><use y="136.259" x="562.674" xlink:href="#c" width="1052.362" height="744.094" transform="matrix(3.15938 0 0 3.15938 -869.914 -96.383)"/></g><g><g stroke-width="1.013" fill="none" stroke="#000" stroke-linecap="round"><path d="M10.727 6.762V19.97M2.42 27.988h16.747M27.54 19.913H-6.183M-1.67 23.95h25.12" transform="matrix(2.0167 0 0 4.3483 621.805 457.921)"/></g></g><g><g stroke-width="1.013" fill="none" stroke="#000" stroke-linecap="round"><path d="M10.727 6.762V19.97M2.42 27.988h16.747M27.54 19.913H-6.183M-1.67 23.95h25.12" transform="matrix(2.0167 0 0 4.3483 829.505 457.92)"/></g></g></g></svg>