<svg xmlns:ns0="http://www.iki.fi/pav/software/textext/" xmlns="http://www.w3.org/2000/svg" xmlns:xlink="http://www.w3.org/1999/xlink" width="744.094" height="1052.362"><title>Mess-Schaltung fuer Spannungen</title><defs><linearGradient id="d"><stop offset="0" stop-opacity="0"/><stop offset="1" stop-color="#fff"/></linearGradient><linearGradient id="e"><stop offset="0" stop-color="#fff"/><stop offset="1" stop-color="#fff" stop-opacity="0"/></linearGradient><linearGradient id="f"><stop offset="0" stop-color="#1a1a1a" stop-opacity=".828"/><stop offset="1" stop-color="#fff"/></linearGradient><linearGradient id="a"><stop offset="0" stop-opacity="0"/><stop offset="1" stop-color="#fff"/></linearGradient><linearGradient id="b"><stop offset="0" stop-color="#ebebeb"/><stop offset="1" stop-color="#fff" stop-opacity="0"/></linearGradient><linearGradient id="c"><stop offset="0" stop-color="#0e0e0e" stop-opacity=".746"/><stop offset="1" stop-color="#fff"/></linearGradient><pattern patternUnits="userSpaceOnUse" width="30.066" height="5.181" id="g"><path d="M7.597.061C5.079-.187 2.656.302-.01 1.788v1.273c2.783-1.63 5.183-2.009 7.482-1.781 2.298.228 4.497 1.081 6.781 1.938 4.567 1.713 9.551 3.458 15.813-.157l-.004-1.273c-6.44 3.709-10.816 1.982-15.371.273-2.278-.854-4.576-1.75-7.094-2z"/></pattern><pattern patternTransform="translate(.25)" id="h" xlink:href="#g"/><linearGradient id="i"><stop offset="0" stop-color="#858585"/><stop offset="1" stop-color="#cecece"/></linearGradient><linearGradient id="k"><stop offset="0"/><stop offset="1" stop-color="#ddd" stop-opacity=".992"/></linearGradient><linearGradient id="l"><stop offset="0"/><stop offset="1" stop-color="#ddd" stop-opacity=".992"/></linearGradient><linearGradient id="j"><stop offset="0" stop-color="#858585"/><stop offset="1" stop-color="#cecece"/></linearGradient></defs><rect ry="0" rx="0" y="423.295" x="135.011" height="205.771" width="474.073" style="marker:none" color="#000" overflow="visible" fill="#fff" stroke="#fff" stroke-linecap="round" stroke-linejoin="bevel"/><g stroke="#000" stroke-width="3.187"><path d="M244.855 529.917v31.697M244.855 490.748v31.505" fill="none" stroke-linecap="round" stroke-width="1.00011247"/><g stroke-width="3.582" fill="none" stroke-linecap="round"><path d="M893.302 1257.256v-200.939M869.468 1120.08v73.413" transform="matrix(0 -.31381 -.24842 0 532.23 802.662)"/></g><g fill="none" stroke-linecap="round" stroke-width=".947"><path d="M264.044 501.317v10.367M269.814 506.5h-10.367" stroke-width=".9999562399999999"/></g><path d="M264.044 540.582v10.367" fill="none" stroke-linecap="round" stroke-width="1.00011247"/></g><path d="M463.383 456.51H244.855M244.855 490.748v-34.237M244.855 595.851v-34.237M463.383 595.851H244.855M508.169 595.851h-44.786M439.383 595.851v-45.087" fill="none" stroke="#000" stroke-linecap="round"/><ellipse style="marker:none" transform="matrix(-1.13232 0 0 1.50976 985.616 373.898)" cx="421.654" cy="100.866" rx="14.173" ry="10.63" color="#000" overflow="visible" fill="#fff" stroke="#000" stroke-width=".765" stroke-linecap="square"/><text y="706.065" x="119.253" style="line-height:125%;-inkscape-font-specification:Arial" font-weight="400" font-size="66.318" font-family="Arial" letter-spacing="0" word-spacing="0" transform="matrix(.30077 0 0 .30077 465.649 320.68)"><tspan y="706.065" x="119.253">V</tspan></text><path d="M508.169 542.23v53.622M439.383 456.504V490" fill="none" stroke="#000" stroke-linecap="round"/><g stroke="#000" stroke-width="3.077" stroke-linecap="round"><path d="M248.22 1270.444h-38.435m-145.806 0H25.357" fill="none" transform="matrix(0 .32468 -.3253 0 852.663 481.768)"/><path transform="matrix(-.3253 0 0 -.32468 852.663 481.768)" fill="#fff" d="M1240.493-209.764h59.901v145.952h-59.901z"/></g><circle transform="rotate(-90)" cx="-595.851" cy="439.383" r="1.677" stroke="#000" stroke-linecap="round"/><circle transform="rotate(-90)" cx="-456.511" cy="439.383" r="1.677" stroke="#000" stroke-linecap="round"/><g transform="matrix(1.5003 0 0 1.5003 227.286 405.04)" ns0:preamble="/home/waldgeist/data/homepage/inkscape-preamble.tex" ns0:text="$R _{\\rm{L}}$" stroke-width=".667"><defs><symbol id="m" overflow="visible"><path d="M3.734-6.125c.063-.234.094-.328.282-.36.093-.015.406-.015.609-.015.703 0 1.813 0 1.813.984 0 .344-.157 1.032-.547 1.422-.266.25-.782.578-1.688.578h-1.11zm1.438 2.734c1.016-.218 2.187-.921 2.187-1.921 0-.86-.89-1.5-2.203-1.5H2.328c-.203 0-.297 0-.297.203 0 .109.094.109.281.109.016 0 .204 0 .376.016.187.03.265.03.265.171 0 .032 0 .063-.031.188L1.578-.781c-.094.39-.11.469-.906.469-.172 0-.266 0-.266.203C.406 0 .531 0 .546 0c.282 0 .985-.031 1.25-.031.282 0 1 .031 1.282.031.078 0 .188 0 .188-.203 0-.11-.079-.11-.282-.11-.359 0-.64 0-.64-.171 0-.063.015-.11.031-.172l.656-2.64H4.22c.906 0 1.078.562 1.078.905 0 .141-.078.454-.14.688-.063.281-.157.64-.157.844C5 .219 6.203.219 6.328.219c.844 0 1.203-1 1.203-1.14 0-.126-.11-.126-.125-.126-.093 0-.11.063-.125.14-.25.735-.687.907-.906.907-.328 0-.406-.219-.406-.61 0-.312.062-.812.11-1.14.015-.14.03-.328.03-.469 0-.765-.671-1.078-.937-1.172zm0 0"/></symbol><symbol id="n" overflow="visible"><path d="M4.531-1.828h-.234c-.078.672-.172 1.578-1.5 1.578h-.688c-.328 0-.343-.063-.343-.266v-3.671c0-.235 0-.329.656-.329h.25v-.25c-.156.016-1.047.032-1.219.032-.266 0-1.062-.032-1.062-.032v.25h.171c.532 0 .547.079.547.329v3.625c0 .234-.015.312-.546.312H.39V0h3.937zm0 0"/></symbol></defs><use y="83.403" x="118.801" xlink:href="#m" width="1052.362" height="744.094"/><use y="84.898" x="126.366" xlink:href="#n" width="1052.362" height="744.094"/></g><path d="M508.169 456.51v53.622M508.169 456.51h-44.786" fill="none" stroke="#000" stroke-linecap="round"/></svg>