<svg xmlns:ns0="http://www.iki.fi/pav/software/textext/" xmlns="http://www.w3.org/2000/svg" xmlns:xlink="http://www.w3.org/1999/xlink" width="744.094" height="1052.362"><title>Mess-Schaltung fuer Stromstaerken</title><defs><linearGradient id="d"><stop offset="0" stop-opacity="0"/><stop offset="1" stop-color="#fff"/></linearGradient><linearGradient id="e"><stop offset="0" stop-color="#fff"/><stop offset="1" stop-color="#fff" stop-opacity="0"/></linearGradient><linearGradient id="f"><stop offset="0" stop-color="#1a1a1a" stop-opacity=".828"/><stop offset="1" stop-color="#fff"/></linearGradient><linearGradient id="a"><stop offset="0" stop-opacity="0"/><stop offset="1" stop-color="#fff"/></linearGradient><linearGradient id="b"><stop offset="0" stop-color="#ebebeb"/><stop offset="1" stop-color="#fff" stop-opacity="0"/></linearGradient><linearGradient id="c"><stop offset="0" stop-color="#0e0e0e" stop-opacity=".746"/><stop offset="1" stop-color="#fff"/></linearGradient><pattern id="g" height="5.181" width="30.066" patternUnits="userSpaceOnUse"><path d="M7.597.061C5.079-.187 2.656.302-.01 1.788v1.273c2.783-1.63 5.183-2.009 7.482-1.781 2.298.228 4.497 1.081 6.781 1.938 4.567 1.713 9.551 3.458 15.813-.157l-.004-1.273c-6.44 3.709-10.816 1.982-15.371.273-2.278-.854-4.576-1.75-7.094-2z"/></pattern><pattern xlink:href="#g" id="h" patternTransform="translate(.25)"/><linearGradient id="i"><stop offset="0" stop-color="#858585"/><stop offset="1" stop-color="#cecece"/></linearGradient><linearGradient id="k"><stop offset="0"/><stop offset="1" stop-color="#ddd" stop-opacity=".992"/></linearGradient><linearGradient id="l"><stop offset="0"/><stop offset="1" stop-color="#ddd" stop-opacity=".992"/></linearGradient><linearGradient id="j"><stop offset="0" stop-color="#858585"/><stop offset="1" stop-color="#cecece"/></linearGradient></defs><rect style="marker:none" width="534" height="231.98" x="105.047" y="410.191" rx="0" ry="0" color="#000" overflow="visible" fill="#fff" stroke="#fff" stroke-linecap="round" stroke-linejoin="bevel"/><ellipse ry="16.049" rx="16.049" cy="560.079" cx="-491.257" transform="scale(-1 1)" style="marker:none" color="#000" overflow="visible" fill="#fff" stroke="#000" stroke-linecap="square"/><path fill="#fff" stroke="#000" stroke-linecap="round" d="M481.514 476.157H501v47.388h-19.486z"/><path d="M247.512 529.917v31.697M247.512 490.748v31.505" fill="none" stroke="#000" stroke-linecap="round"/><g stroke="#000"><g stroke-width="3.582" fill="none" stroke-linecap="round"><path d="M893.302 1257.256v-200.939M869.468 1120.08v73.413" transform="matrix(0 -.31381 .24842 0 -39.863 802.662)"/></g><g fill="none" stroke-linecap="round" stroke-width=".947"><path d="M228.323 501.317v10.367M222.553 506.5h10.367" stroke-width=".9999562399999999"/></g><path d="M228.323 540.582v10.367" fill="none" stroke-linecap="round"/></g><path d="M491.257 445.122H247.512M247.512 490.677v-45.555M247.512 607.24v-45.555M491.27 607.24H247.511M491.257 607.24v-31.112" fill="none" stroke="#000" stroke-linecap="round"/><text y="706.065" x="119.253" style="line-height:125%;-inkscape-font-specification:Arial" font-weight="400" font-size="66.318" font-family="Arial" letter-spacing="0" word-spacing="0" transform="matrix(.30077 0 0 .30077 448.737 354.578)"><tspan y="706.065" x="119.253">A</tspan></text><g transform="matrix(1.5003 0 0 1.5003 168.685 301.652)" ns0:text="$R _{\\rm{L}}$" stroke-width=".667"><defs><symbol id="m" overflow="visible"><path d="M3.734-6.125c.063-.234.094-.328.282-.36.093-.015.406-.015.609-.015.703 0 1.813 0 1.813.984 0 .344-.157 1.032-.547 1.422-.266.25-.782.578-1.688.578h-1.11zm1.438 2.734c1.016-.218 2.187-.921 2.187-1.921 0-.86-.89-1.5-2.203-1.5H2.328c-.203 0-.297 0-.297.203 0 .109.094.109.281.109.016 0 .204 0 .376.016.187.03.265.03.265.171 0 .032 0 .063-.031.188L1.578-.781c-.094.39-.11.469-.906.469-.172 0-.266 0-.266.203C.406 0 .531 0 .546 0c.282 0 .985-.031 1.25-.031.282 0 1 .031 1.282.031.078 0 .188 0 .188-.203 0-.11-.079-.11-.282-.11-.359 0-.64 0-.64-.171 0-.063.015-.11.031-.172l.656-2.64H4.22c.906 0 1.078.562 1.078.905 0 .141-.078.454-.14.688-.063.281-.157.64-.157.844C5 .219 6.203.219 6.328.219c.844 0 1.203-1 1.203-1.14 0-.126-.11-.126-.125-.126-.093 0-.11.063-.125.14-.25.735-.687.907-.906.907-.328 0-.406-.219-.406-.61 0-.312.062-.812.11-1.14.015-.14.03-.328.03-.469 0-.765-.671-1.078-.937-1.172zm0 0"/></symbol><symbol id="n" overflow="visible"><path d="M4.531-1.828h-.234c-.078.672-.172 1.578-1.5 1.578h-.688c-.328 0-.343-.063-.343-.266v-3.671c0-.235 0-.329.656-.329h.25v-.25c-.156.016-1.047.032-1.219.032-.266 0-1.062-.032-1.062-.032v.25h.171c.532 0 .547.079.547.329v3.625c0 .234-.015.312-.546.312H.39V0h3.937zm0 0"/></symbol></defs><use y="134.765" x="223.432" xlink:href="#m" width="1052.362" height="744.094"/><use y="136.259" x="230.997" xlink:href="#n" width="1052.362" height="744.094"/></g><path d="M491.257 544.03v-20.485M491.257 476.157v-31.035" fill="none" stroke="#000" stroke-linecap="round"/></svg>