<svg xmlns:ns0="http://www.iki.fi/pav/software/textext/" xmlns="http://www.w3.org/2000/svg" xmlns:xlink="http://www.w3.org/1999/xlink" width="744.094" height="1052.362"><title>Reihenschaltung von Widerstaenden</title><defs><linearGradient id="d"><stop offset="0" stop-opacity="0"/><stop offset="1" stop-color="#fff"/></linearGradient><linearGradient id="e"><stop offset="0" stop-color="#fff"/><stop offset="1" stop-color="#fff" stop-opacity="0"/></linearGradient><linearGradient id="f"><stop offset="0" stop-color="#1a1a1a" stop-opacity=".828"/><stop offset="1" stop-color="#fff"/></linearGradient><linearGradient id="a"><stop offset="0" stop-opacity="0"/><stop offset="1" stop-color="#fff"/></linearGradient><linearGradient id="b"><stop offset="0" stop-color="#ebebeb"/><stop offset="1" stop-color="#fff" stop-opacity="0"/></linearGradient><linearGradient id="c"><stop offset="0" stop-color="#0e0e0e" stop-opacity=".746"/><stop offset="1" stop-color="#fff"/></linearGradient><pattern id="g" height="5.181" width="30.066" patternUnits="userSpaceOnUse"><path d="M7.597.061C5.079-.187 2.656.302-.01 1.788v1.273c2.783-1.63 5.183-2.009 7.482-1.781 2.298.228 4.497 1.081 6.781 1.938 4.567 1.713 9.551 3.458 15.813-.157l-.004-1.273c-6.44 3.709-10.816 1.982-15.371.273-2.278-.854-4.576-1.75-7.094-2z"/></pattern><pattern xlink:href="#g" id="h" patternTransform="translate(.25)"/><linearGradient id="i"><stop offset="0" stop-color="#858585"/><stop offset="1" stop-color="#cecece"/></linearGradient><linearGradient id="k"><stop offset="0"/><stop offset="1" stop-color="#ddd" stop-opacity=".992"/></linearGradient><linearGradient id="l"><stop offset="0"/><stop offset="1" stop-color="#ddd" stop-opacity=".992"/></linearGradient><linearGradient id="j"><stop offset="0" stop-color="#858585"/><stop offset="1" stop-color="#cecece"/></linearGradient></defs><rect style="marker:none" width="534" height="247.206" x="105.047" y="402.578" rx="0" ry="0" color="#000" overflow="visible" fill="#fff" stroke="#fff" stroke-linecap="round" stroke-linejoin="bevel"/><g stroke="#000" stroke-width="3.187"><path d="M216.25 541.196v31.697M216.25 502.027v31.506" fill="none" stroke-linecap="round" stroke-width="1.00011247"/><g stroke-width="3.582" fill="none" stroke-linecap="round"><path d="M893.302 1257.256v-200.939M869.468 1120.08v73.413" transform="matrix(0 -.31381 .24842 0 -71.124 813.941)"/></g><g fill="none" stroke-linecap="round" stroke-width=".947"><path d="M197.061 512.596v10.367M191.291 517.78h10.367" stroke-width=".9999562399999999"/></g><path d="M197.061 551.861v10.367" fill="none" stroke-linecap="round" stroke-width="1.00011247"/></g><g ns0:text="$R _{\\rm{1}}$" ns0:preamble="/home/waldgeist/data/sphinx/inkscape-preamble.tex" transform="matrix(1.5003 0 0 1.5003 29.797 305.301)" stroke-width=".667"><defs><symbol overflow="visible" id="m"><path d="M3.734-6.125c.063-.234.094-.328.282-.36.093-.015.406-.015.609-.015.703 0 1.813 0 1.813.984 0 .344-.157 1.032-.547 1.422-.266.25-.782.578-1.688.578h-1.11zm1.438 2.734c1.016-.218 2.187-.921 2.187-1.921 0-.86-.89-1.5-2.203-1.5H2.328c-.203 0-.297 0-.297.203 0 .109.094.109.281.109.016 0 .204 0 .376.016.187.03.265.03.265.171 0 .032 0 .063-.031.188L1.578-.781c-.094.39-.11.469-.906.469-.172 0-.266 0-.266.203C.406 0 .531 0 .546 0c.282 0 .985-.031 1.25-.031.282 0 1 .031 1.282.031.078 0 .188 0 .188-.203 0-.11-.079-.11-.282-.11-.359 0-.64 0-.64-.171 0-.063.015-.11.031-.172l.656-2.64H4.22c.906 0 1.078.562 1.078.905 0 .141-.078.454-.14.688-.063.281-.157.64-.157.844C5 .219 6.203.219 6.328.219c.844 0 1.203-1 1.203-1.14 0-.126-.11-.126-.125-.126-.093 0-.11.063-.125.14-.25.735-.687.907-.906.907-.328 0-.406-.219-.406-.61 0-.312.062-.812.11-1.14.015-.14.03-.328.03-.469 0-.765-.671-1.078-.937-1.172zm0 0"/></symbol><symbol overflow="visible" id="n"><path d="M2.328-4.438c0-.187 0-.187-.203-.187-.453.438-1.078.438-1.36.438v.25c.157 0 .626 0 1-.188v3.547c0 .234 0 .328-.687.328H.812V0c.125 0 .985-.031 1.235-.031.219 0 1.094.031 1.25.031v-.25H3.03c-.703 0-.703-.094-.703-.328zm0 0"/></symbol></defs><use height="744.094" width="1052.362" xlink:href="#m" x="223.432" y="134.765"/><use height="744.094" width="1052.362" xlink:href="#n" x="230.997" y="136.259"/></g><g transform="matrix(1.5003 0 0 1.5003 169.578 305.301)" ns0:preamble="/home/waldgeist/data/sphinx/inkscape-preamble.tex" ns0:text="$R _{\\rm{3}}$" stroke-width=".667"><defs><symbol id="o" overflow="visible"><path d="M3.734-6.125c.063-.234.094-.328.282-.36.093-.015.406-.015.609-.015.703 0 1.813 0 1.813.984 0 .344-.157 1.032-.547 1.422-.266.25-.782.578-1.688.578h-1.11zm1.438 2.734c1.016-.218 2.187-.921 2.187-1.921 0-.86-.89-1.5-2.203-1.5H2.328c-.203 0-.297 0-.297.203 0 .109.094.109.281.109.016 0 .204 0 .376.016.187.03.265.03.265.171 0 .032 0 .063-.031.188L1.578-.781c-.094.39-.11.469-.906.469-.172 0-.266 0-.266.203C.406 0 .531 0 .546 0c.282 0 .985-.031 1.25-.031.282 0 1 .031 1.282.031.078 0 .188 0 .188-.203 0-.11-.079-.11-.282-.11-.359 0-.64 0-.64-.171 0-.063.015-.11.031-.172l.656-2.64H4.22c.906 0 1.078.562 1.078.905 0 .141-.078.454-.14.688-.063.281-.157.64-.157.844C5 .219 6.203.219 6.328.219c.844 0 1.203-1 1.203-1.14 0-.126-.11-.126-.125-.126-.093 0-.11.063-.125.14-.25.735-.687.907-.906.907-.328 0-.406-.219-.406-.61 0-.312.062-.812.11-1.14.015-.14.03-.328.03-.469 0-.765-.671-1.078-.937-1.172zm0 0"/></symbol><symbol id="p" overflow="visible"><path d="M1.906-2.328c.547 0 .938.375.938 1.125 0 .86-.516 1.125-.906 1.125-.282 0-.907-.078-1.188-.5.328 0 .406-.235.406-.39 0-.22-.172-.376-.39-.376a.38.38 0 0 0-.391.407C.375-.281 1.094.14 1.938.14c.968 0 1.64-.657 1.64-1.344 0-.547-.437-1.094-1.203-1.25.719-.266.984-.781.984-1.219 0-.547-.625-.953-1.406-.953-.766 0-1.36.375-1.36.938 0 .234.157.359.36.359.219 0 .36-.156.36-.344 0-.203-.141-.36-.36-.375.25-.297.719-.375.985-.375.312 0 .75.156.75.75 0 .297-.094.625-.282.828-.219.266-.422.281-.765.313-.172.015-.188.015-.22.015-.015 0-.077.016-.077.094 0 .094.062.094.187.094zm0 0"/></symbol></defs><use height="744.094" width="1052.362" y="134.765" x="223.432" xlink:href="#o"/><use height="744.094" width="1052.362" y="136.259" x="230.997" xlink:href="#p"/></g><g ns0:text="$R _{\\rm{2}}$" ns0:preamble="/home/waldgeist/data/sphinx/inkscape-preamble.tex" transform="matrix(1.5003 0 0 1.5003 100.096 305.301)" stroke-width=".667"><defs><symbol overflow="visible" id="q"><path d="M3.734-6.125c.063-.234.094-.328.282-.36.093-.015.406-.015.609-.015.703 0 1.813 0 1.813.984 0 .344-.157 1.032-.547 1.422-.266.25-.782.578-1.688.578h-1.11zm1.438 2.734c1.016-.218 2.187-.921 2.187-1.921 0-.86-.89-1.5-2.203-1.5H2.328c-.203 0-.297 0-.297.203 0 .109.094.109.281.109.016 0 .204 0 .376.016.187.03.265.03.265.171 0 .032 0 .063-.031.188L1.578-.781c-.094.39-.11.469-.906.469-.172 0-.266 0-.266.203C.406 0 .531 0 .546 0c.282 0 .985-.031 1.25-.031.282 0 1 .031 1.282.031.078 0 .188 0 .188-.203 0-.11-.079-.11-.282-.11-.359 0-.64 0-.64-.171 0-.063.015-.11.031-.172l.656-2.64H4.22c.906 0 1.078.562 1.078.905 0 .141-.078.454-.14.688-.063.281-.157.64-.157.844C5 .219 6.203.219 6.328.219c.844 0 1.203-1 1.203-1.14 0-.126-.11-.126-.125-.126-.093 0-.11.063-.125.14-.25.735-.687.907-.906.907-.328 0-.406-.219-.406-.61 0-.312.062-.812.11-1.14.015-.14.03-.328.03-.469 0-.765-.671-1.078-.937-1.172zm0 0"/></symbol><symbol overflow="visible" id="r"><path d="M3.516-1.266H3.28c-.015.157-.094.563-.187.625-.047.047-.578.047-.688.047H1.125c.734-.64.984-.844 1.39-1.172.516-.406 1-.843 1-1.5 0-.843-.734-1.359-1.624-1.359-.86 0-1.454.61-1.454 1.25 0 .344.297.39.376.39.156 0 .359-.124.359-.374 0-.125-.047-.375-.406-.375.218-.485.687-.641 1.015-.641.703 0 1.063.547 1.063 1.11 0 .609-.438 1.078-.656 1.328L.516-.266C.437-.203.437-.187.437 0h2.876zm0 0"/></symbol></defs><use height="744.094" width="1052.362" xlink:href="#q" x="223.432" y="134.765"/><use height="744.094" width="1052.362" xlink:href="#r" x="230.997" y="136.259"/></g><g transform="matrix(-.3134 0 0 -.3134 833.708 605.321)" stroke="#000" stroke-width="3.191" stroke-linecap="round"><g transform="translate(1550.675 43.72)"><g stroke-width=".948" fill="none"><path d="M253.536-86.061H193.91M26.959-86.061h59.625l107.326-35.775" stroke-width="3.19052244"/></g><circle transform="translate(-77.527 -44.84) scale(.78846)" cx="210.714" cy="-52.281" r="6.786" stroke-width="4.047"/></g><circle transform="translate(1578.446 -1.12) scale(.78846)" cx="210.714" cy="-52.281" r="6.786" stroke-width="4.047"/></g><path d="M287.26 456.472h-71.01M536.684 456.472H513.61M216.25 502.027v-45.555M216.25 618.59v-45.555M285.287 618.59h-69.05M536.655 618.59H336.637" fill="none" stroke="#000" stroke-linecap="round"/><g stroke="#000" stroke-width="3.077" fill="none" stroke-linecap="round"><path d="M248.22 1270.444h-38.435m-145.806 0H25.357" transform="matrix(0 .32468 -.3253 0 812.22 459.087)"/><path transform="matrix(-.3253 0 0 -.32468 812.22 459.087)" d="M1240.493-209.764h59.901v145.952h-59.901z"/></g><path d="M398.94 589.689V607.6M398.94 539.68v17.911" fill="none" stroke="#000" stroke-width="1.00006025" stroke-linecap="round"/><ellipse transform="matrix(0 -1.13232 -1.50976 0 551.224 1051.087)" style="marker:none" cx="421.654" cy="100.866" rx="14.173" ry="10.63" color="#000" overflow="visible" fill="none" stroke="#000" stroke-width=".765" stroke-linecap="square"/><text style="line-height:125%;-inkscape-font-specification:Arial" x="-705.369" y="164.183" transform="matrix(.30077 0 0 .30077 604.442 531.12)" font-weight="400" font-size="66.318" font-family="Arial" letter-spacing="0" word-spacing="0"><tspan x="-705.369" y="164.183">A</tspan></text><g stroke="#000" stroke-width="3.077" fill="none" stroke-linecap="round"><path d="M248.22 1270.444h-38.435m-145.806 0H25.357" transform="matrix(0 .32468 -.3253 0 881.092 459.087)"/><path transform="matrix(-.3253 0 0 -.32468 881.092 459.087)" d="M1240.493-209.764h59.901v145.952h-59.901z"/></g><path d="M467.812 589.689V607.6M467.812 539.68v17.911" fill="none" stroke="#000" stroke-width="1.00006025" stroke-linecap="round"/><ellipse style="marker:none" transform="matrix(0 -1.13232 -1.50976 0 620.096 1051.087)" cx="421.654" cy="100.866" rx="14.173" ry="10.63" color="#000" overflow="visible" fill="none" stroke="#000" stroke-width=".765" stroke-linecap="square"/><text y="164.183" x="-705.369" style="line-height:125%;-inkscape-font-specification:Arial" transform="matrix(.30077 0 0 .30077 673.314 531.12)" font-weight="400" font-size="66.318" font-family="Arial" letter-spacing="0" word-spacing="0"><tspan y="164.183" x="-705.369">A</tspan></text><path d="M513.609 456.472H304.734" fill="none" stroke="#000" stroke-linecap="round"/><g ns0:text="$I _{\\rm{1}}$" ns0:preamble="/home/waldgeist/data/sphinx/inkscape-preamble.tex" transform="matrix(1.5003 0 0 1.5003 33.647 375.441)" stroke-width=".667"><defs><symbol overflow="visible" id="s"><path d="M3.734-6.047c.079-.36.11-.453.907-.453.234 0 .312 0 .312-.188 0-.125-.11-.125-.14-.125-.297 0-1.032.032-1.329.032-.296 0-1.015-.032-1.328-.032-.062 0-.187 0-.187.204 0 .109.078.109.281.109.406 0 .688 0 .688.188 0 .046 0 .078-.032.156L1.562-.781c-.093.375-.109.469-.906.469-.234 0-.312 0-.312.203 0 .109.11.109.14.109C.781 0 1.5-.031 1.797-.031c.297 0 1.031.031 1.328.031.078 0 .203 0 .203-.188 0-.124-.078-.124-.297-.124-.187 0-.234 0-.422-.016-.218-.016-.25-.063-.25-.172 0-.078.016-.156.032-.234zm0 0"/></symbol><symbol overflow="visible" id="t"><path d="M2.328-4.438c0-.187 0-.187-.203-.187-.453.438-1.078.438-1.36.438v.25c.157 0 .626 0 1-.188v3.547c0 .234 0 .328-.687.328H.812V0c.125 0 .985-.031 1.235-.031.219 0 1.094.031 1.25.031v-.25H3.03c-.703 0-.703-.094-.703-.328zm0 0"/></symbol></defs><use height="744.094" width="1052.362" xlink:href="#s" x="223.432" y="134.765"/><use height="744.094" width="1052.362" xlink:href="#t" x="227.812" y="136.259"/></g><g transform="matrix(1.5003 0 0 1.5003 101.366 375.441)" ns0:preamble="/home/waldgeist/data/sphinx/inkscape-preamble.tex" ns0:text="$I _{\\rm{2}}$" stroke-width=".667"><defs><symbol id="u" overflow="visible"><path d="M3.734-6.047c.079-.36.11-.453.907-.453.234 0 .312 0 .312-.188 0-.125-.11-.125-.14-.125-.297 0-1.032.032-1.329.032-.296 0-1.015-.032-1.328-.032-.062 0-.187 0-.187.204 0 .109.078.109.281.109.406 0 .688 0 .688.188 0 .046 0 .078-.032.156L1.562-.781c-.093.375-.109.469-.906.469-.234 0-.312 0-.312.203 0 .109.11.109.14.109C.781 0 1.5-.031 1.797-.031c.297 0 1.031.031 1.328.031.078 0 .203 0 .203-.188 0-.124-.078-.124-.297-.124-.187 0-.234 0-.422-.016-.218-.016-.25-.063-.25-.172 0-.078.016-.156.032-.234zm0 0"/></symbol><symbol id="v" overflow="visible"><path d="M3.516-1.266H3.28c-.015.157-.094.563-.187.625-.047.047-.578.047-.688.047H1.125c.734-.64.984-.844 1.39-1.172.516-.406 1-.843 1-1.5 0-.843-.734-1.359-1.624-1.359-.86 0-1.454.61-1.454 1.25 0 .344.297.39.376.39.156 0 .359-.124.359-.374 0-.125-.047-.375-.406-.375.218-.485.687-.641 1.015-.641.703 0 1.063.547 1.063 1.11 0 .609-.438 1.078-.656 1.328L.516-.266C.437-.203.437-.187.437 0h2.876zm0 0"/></symbol></defs><use height="744.094" width="1052.362" y="134.765" x="223.432" xlink:href="#u"/><use height="744.094" width="1052.362" y="136.259" x="227.812" xlink:href="#v"/></g><g ns0:text="$I _{\\rm{3}}$" ns0:preamble="/home/waldgeist/data/sphinx/inkscape-preamble.tex" transform="matrix(1.5003 0 0 1.5003 170.615 375.336)" stroke-width=".667"><defs><symbol overflow="visible" id="w"><path d="M3.734-6.047c.079-.36.11-.453.907-.453.234 0 .312 0 .312-.188 0-.125-.11-.125-.14-.125-.297 0-1.032.032-1.329.032-.296 0-1.015-.032-1.328-.032-.062 0-.187 0-.187.204 0 .109.078.109.281.109.406 0 .688 0 .688.188 0 .046 0 .078-.032.156L1.562-.781c-.093.375-.109.469-.906.469-.234 0-.312 0-.312.203 0 .109.11.109.14.109C.781 0 1.5-.031 1.797-.031c.297 0 1.031.031 1.328.031.078 0 .203 0 .203-.188 0-.124-.078-.124-.297-.124-.187 0-.234 0-.422-.016-.218-.016-.25-.063-.25-.172 0-.078.016-.156.032-.234zm0 0"/></symbol><symbol overflow="visible" id="x"><path d="M1.906-2.328c.547 0 .938.375.938 1.125 0 .86-.516 1.125-.906 1.125-.282 0-.907-.078-1.188-.5.328 0 .406-.235.406-.39 0-.22-.172-.376-.39-.376a.38.38 0 0 0-.391.407C.375-.281 1.094.14 1.938.14c.968 0 1.64-.657 1.64-1.344 0-.547-.437-1.094-1.203-1.25.719-.266.984-.781.984-1.219 0-.547-.625-.953-1.406-.953-.766 0-1.36.375-1.36.938 0 .234.157.359.36.359.219 0 .36-.156.36-.344 0-.203-.141-.36-.36-.375.25-.297.719-.375.985-.375.312 0 .75.156.75.75 0 .297-.094.625-.282.828-.219.266-.422.281-.765.313-.172.015-.188.015-.22.015-.015 0-.077.016-.077.094 0 .094.062.094.187.094zm0 0"/></symbol></defs><use height="744.094" width="1052.362" xlink:href="#w" x="223.432" y="134.765"/><use height="744.094" width="1052.362" xlink:href="#x" x="227.812" y="136.259"/></g><ellipse style="marker:none" transform="matrix(-1.13232 0 0 1.50976 781.228 304.189)" cx="421.654" cy="100.866" rx="14.173" ry="10.63" color="#000" overflow="visible" fill="#fff" stroke="#000" stroke-width=".765" stroke-linecap="square"/><text y="706.065" x="119.253" style="line-height:125%;-inkscape-font-specification:Arial" font-weight="400" font-size="66.318" font-family="Arial" letter-spacing="0" word-spacing="0" transform="matrix(.30077 0 0 .30077 261.262 250.971)"><tspan y="706.065" x="119.253">A</tspan></text><g transform="matrix(1.5003 0 0 1.5003 -44.392 230.09)" ns0:preamble="/home/waldgeist/data/sphinx/inkscape-preamble.tex" ns0:text="$I _{\\rm{Ges}}$" stroke-width=".667"><defs><symbol id="y" overflow="visible"><path d="M3.734-6.047c.079-.36.11-.453.907-.453.234 0 .312 0 .312-.188 0-.125-.11-.125-.14-.125-.297 0-1.032.032-1.329.032-.296 0-1.015-.032-1.328-.032-.062 0-.187 0-.187.204 0 .109.078.109.281.109.406 0 .688 0 .688.188 0 .046 0 .078-.032.156L1.562-.781c-.093.375-.109.469-.906.469-.234 0-.312 0-.312.203 0 .109.11.109.14.109C.781 0 1.5-.031 1.797-.031c.297 0 1.031.031 1.328.031.078 0 .203 0 .203-.188 0-.124-.078-.124-.297-.124-.187 0-.234 0-.422-.016-.218-.016-.25-.063-.25-.172 0-.078.016-.156.032-.234zm0 0"/></symbol><symbol id="z" overflow="visible"><path d="M5.188-1.36c0-.312.078-.312.546-.312v-.25c-.062 0-.562.031-.906.031-.375 0-.89 0-1.266-.03v.25h.266c.703 0 .703.093.703.312v.453c0 .156 0 .422-.406.625-.328.172-.719.172-.813.172-.796 0-2.078-.454-2.078-2.282 0-1.843 1.329-2.25 2.016-2.25.672 0 1.516.454 1.688 1.657.015.078.078.078.125.078.125 0 .125-.047.125-.188v-1.625c0-.125 0-.187-.094-.187-.032 0-.063 0-.125.093l-.36.532a1.994 1.994 0 0 0-1.453-.625C1.703-4.906.484-3.781.484-2.391.484-1 1.672.141 3.172.141c.39 0 1.156-.078 1.484-.563.125.188.375.422.453.422.079 0 .079-.078.079-.188zm0 0"/></symbol><symbol id="A" overflow="visible"><path d="M3.063-1.594c.156 0 .203 0 .203-.14 0-.625-.344-1.375-1.391-1.375a1.59 1.59 0 0 0-1.61 1.578c0 .89.782 1.593 1.704 1.593.937 0 1.297-.75 1.297-.906 0-.015-.016-.094-.125-.094-.094 0-.11.047-.125.11-.22.562-.75.672-1 .672-.329 0-.641-.14-.844-.406-.266-.329-.266-.75-.266-1.032zM.905-1.766c.078-.984.703-1.14.969-1.14.86 0 .89.969.906 1.14zm0 0"/></symbol><symbol id="B" overflow="visible"><path d="M2.64-2.922c0-.125 0-.187-.093-.187-.031 0-.047 0-.14.078-.016.015-.079.078-.126.11-.219-.142-.469-.188-.734-.188-1 0-1.234.53-1.234.875 0 .218.093.406.265.546.266.22.531.266.969.344.344.063.906.157.906.625 0 .266-.187.594-.86.594-.671 0-.905-.438-1.03-.906C.53-1.125.53-1.156.438-1.156c-.126 0-.126.047-.126.187v.86c0 .109 0 .171.094.171.063 0 .203-.14.344-.296.297.296.672.296.844.296.906 0 1.25-.484 1.25-.968a.823.823 0 0 0-.313-.64c-.265-.25-.578-.313-.828-.345-.547-.109-1-.187-1-.562 0-.219.188-.485.844-.485.812 0 .844.563.86.766 0 .078.093.078.109.078.125 0 .125-.047.125-.187zm0 0"/></symbol></defs><use y="134.765" x="223.432" xlink:href="#y" width="1052.362" height="744.094"/><use y="136.259" x="227.812" xlink:href="#z" width="1052.362" height="744.094"/><use y="136.259" x="233.976" xlink:href="#A" width="1052.362" height="744.094"/><use y="136.259" x="237.518" xlink:href="#B" width="1052.362" height="744.094"/></g><g stroke="#000" stroke-width="3.077" fill="none" stroke-linecap="round"><path d="M248.22 1270.444h-38.435m-145.806 0H25.357" transform="matrix(0 .32468 -.3253 0 949.964 459.087)"/><path transform="matrix(-.3253 0 0 -.32468 949.964 459.087)" d="M1240.493-209.764h59.901v145.952h-59.901z"/></g><path d="M536.684 589.689V607.6M536.684 539.68v17.911" fill="none" stroke="#000" stroke-width="1.00006025" stroke-linecap="round"/><ellipse ry="10.63" rx="14.173" cy="100.866" cx="421.654" transform="matrix(0 -1.13232 -1.50976 0 688.968 1051.087)" style="marker:none" color="#000" overflow="visible" fill="none" stroke="#000" stroke-width=".765" stroke-linecap="square"/><text transform="matrix(.30077 0 0 .30077 742.185 531.12)" style="line-height:125%;-inkscape-font-specification:Arial" x="-705.369" y="164.183" font-weight="400" font-size="66.318" font-family="Arial" letter-spacing="0" word-spacing="0"><tspan x="-705.369" y="164.183">A</tspan></text><circle transform="rotate(-90)" cx="-456.472" cy="398.941" r="1.677" stroke="#000" stroke-linecap="round"/><path d="M398.94 456.472v10.848M467.812 456.472v10.848M536.684 456.472v10.848M536.684 607.6v10.848M467.812 607.6v10.848M398.94 607.6v10.848" fill="none" stroke="#000" stroke-linecap="round"/><circle r="1.677" cy="467.812" cx="-456.472" transform="rotate(-90)" stroke="#000" stroke-linecap="round"/><circle transform="rotate(-90)" cx="-618.448" cy="467.812" r="1.677" stroke="#000" stroke-linecap="round"/><circle r="1.677" cy="398.941" cx="-618.448" transform="rotate(-90)" stroke="#000" stroke-linecap="round"/></svg>