<svg xmlns:ns0="http://www.iki.fi/pav/software/textext/" xmlns="http://www.w3.org/2000/svg" xmlns:xlink="http://www.w3.org/1999/xlink" width="1052.362" height="744.094"><title>Reihenschaltung von Widerstaenden</title><defs><linearGradient id="d"><stop offset="0" stop-opacity="0"/><stop offset="1" stop-color="#fff"/></linearGradient><linearGradient id="e"><stop offset="0" stop-color="#fff"/><stop offset="1" stop-color="#fff" stop-opacity="0"/></linearGradient><linearGradient id="f"><stop offset="0" stop-color="#1a1a1a" stop-opacity=".828"/><stop offset="1" stop-color="#fff"/></linearGradient><linearGradient id="a"><stop offset="0" stop-opacity="0"/><stop offset="1" stop-color="#fff"/></linearGradient><linearGradient id="b"><stop offset="0" stop-color="#ebebeb"/><stop offset="1" stop-color="#fff" stop-opacity="0"/></linearGradient><linearGradient id="c"><stop offset="0" stop-color="#0e0e0e" stop-opacity=".746"/><stop offset="1" stop-color="#fff"/></linearGradient><pattern id="g" height="5.181" width="30.066" patternUnits="userSpaceOnUse"><path d="M7.597.061C5.079-.187 2.656.302-.01 1.788v1.273c2.783-1.63 5.183-2.009 7.482-1.781 2.298.228 4.497 1.081 6.781 1.938 4.567 1.713 9.551 3.458 15.813-.157l-.004-1.273c-6.44 3.709-10.816 1.982-15.371.273-2.278-.854-4.576-1.75-7.094-2z"/></pattern><pattern xlink:href="#g" id="h" patternTransform="translate(.25)"/><linearGradient id="i"><stop offset="0" stop-color="#858585"/><stop offset="1" stop-color="#cecece"/></linearGradient><linearGradient id="k"><stop offset="0"/><stop offset="1" stop-color="#ddd" stop-opacity=".992"/></linearGradient><linearGradient id="l"><stop offset="0"/><stop offset="1" stop-color="#ddd" stop-opacity=".992"/></linearGradient><linearGradient id="j"><stop offset="0" stop-color="#858585"/><stop offset="1" stop-color="#cecece"/></linearGradient></defs><g transform="translate(0 -308.268)"><rect ry="0" rx="0" y="497.315" x="259.181" height="366" width="534" style="marker:none" color="#000" fill="#fff" stroke="#fff" stroke-linecap="round" stroke-linejoin="bevel" overflow="visible"/><g stroke="#000" stroke-width="3.187"><path d="M535.516 800.241h31.698M496.347 800.241h31.506" fill="none" stroke-linecap="round" stroke-width="1.00011247"/><g stroke-width="3.582" fill="none" stroke-linecap="round"><path d="M893.302 1257.256v-200.939M869.468 1120.08v73.413" transform="matrix(-.31381 0 0 .24842 808.261 512.867)"/></g><g fill="none" stroke-linecap="round" stroke-width=".947"><path d="M506.917 781.052h10.367M512.1 775.282v10.367" stroke-width=".9999562399999999"/></g><path d="M546.181 781.052h10.367" fill="none" stroke-linecap="round" stroke-width="1.00011247"/></g><g stroke="#000" stroke-width="3.077" fill="none" stroke-linecap="round"><path d="M248.22 1270.444h-38.435m-145.806 0H25.357" transform="matrix(.32468 0 0 .3253 369.453 224.843)"/><path transform="matrix(0 .3253 -.32468 0 369.453 224.843)" d="M1240.493-209.764h59.901v145.952h-59.901z"/></g><g ns0:text="$R _{\\rm{1}}$" ns0:preamble="/home/waldgeist/data/sphinx/inkscape-preamble.tex" transform="matrix(1.5003 0 0 1.5003 73.272 418.962)" stroke-width=".667"><defs><symbol overflow="visible" id="m"><path d="M3.734-6.125c.063-.234.094-.328.282-.36.093-.015.406-.015.609-.015.703 0 1.813 0 1.813.984 0 .344-.157 1.032-.547 1.422-.266.25-.782.578-1.688.578h-1.11zm1.438 2.734c1.016-.218 2.187-.921 2.187-1.921 0-.86-.89-1.5-2.203-1.5H2.328c-.203 0-.297 0-.297.203 0 .109.094.109.281.109.016 0 .204 0 .376.016.187.03.265.03.265.171 0 .032 0 .063-.031.188L1.578-.781c-.094.39-.11.469-.906.469-.172 0-.266 0-.266.203C.406 0 .531 0 .546 0c.282 0 .985-.031 1.25-.031.282 0 1 .031 1.282.031.078 0 .188 0 .188-.203 0-.11-.079-.11-.282-.11-.359 0-.64 0-.64-.171 0-.063.015-.11.031-.172l.656-2.64H4.22c.906 0 1.078.562 1.078.905 0 .141-.078.454-.14.688-.063.281-.157.64-.157.844C5 .219 6.203.219 6.328.219c.844 0 1.203-1 1.203-1.14 0-.126-.11-.126-.125-.126-.093 0-.11.063-.125.14-.25.735-.687.907-.906.907-.328 0-.406-.219-.406-.61 0-.312.062-.812.11-1.14.015-.14.03-.328.03-.469 0-.765-.671-1.078-.937-1.172zm0 0"/></symbol><symbol overflow="visible" id="n"><path d="M2.328-4.438c0-.187 0-.187-.203-.187-.453.438-1.078.438-1.36.438v.25c.157 0 .626 0 1-.188v3.547c0 .234 0 .328-.687.328H.812V0c.125 0 .985-.031 1.235-.031.219 0 1.094.031 1.25.031v-.25H3.03c-.703 0-.703-.094-.703-.328zm0 0"/></symbol></defs><use height="744.094" width="1052.362" xlink:href="#m" x="223.432" y="134.765"/><use height="744.094" width="1052.362" xlink:href="#n" x="230.997" y="136.259"/></g><g stroke="#000" stroke-width="3.077" fill="none" stroke-linecap="round"><path d="M248.22 1270.444h-38.435m-145.806 0H25.357" transform="matrix(.32468 0 0 .3253 487.368 224.843)"/><path transform="matrix(0 .3253 -.32468 0 487.368 224.843)" d="M1240.493-209.764h59.901v145.952h-59.901z"/></g><path d="M495.6 638.123h-45.554M613.516 638.123H567.96" fill="none" stroke="#000" stroke-linecap="round"/><g stroke="#000" stroke-width="3.077" fill="none" stroke-linecap="round"><path d="M248.22 1270.444h-38.435m-145.806 0H25.357" transform="matrix(.32468 0 0 .3253 605.283 224.843)"/><path transform="matrix(0 .3253 -.32468 0 605.283 224.843)" d="M1240.493-209.764h59.901v145.952h-59.901z"/></g><g transform="matrix(1.5003 0 0 1.5003 305.816 418.962)" ns0:preamble="/home/waldgeist/data/sphinx/inkscape-preamble.tex" ns0:text="$R _{\\rm{3}}$" stroke-width=".667"><defs><symbol id="o" overflow="visible"><path d="M3.734-6.125c.063-.234.094-.328.282-.36.093-.015.406-.015.609-.015.703 0 1.813 0 1.813.984 0 .344-.157 1.032-.547 1.422-.266.25-.782.578-1.688.578h-1.11zm1.438 2.734c1.016-.218 2.187-.921 2.187-1.921 0-.86-.89-1.5-2.203-1.5H2.328c-.203 0-.297 0-.297.203 0 .109.094.109.281.109.016 0 .204 0 .376.016.187.03.265.03.265.171 0 .032 0 .063-.031.188L1.578-.781c-.094.39-.11.469-.906.469-.172 0-.266 0-.266.203C.406 0 .531 0 .546 0c.282 0 .985-.031 1.25-.031.282 0 1 .031 1.282.031.078 0 .188 0 .188-.203 0-.11-.079-.11-.282-.11-.359 0-.64 0-.64-.171 0-.063.015-.11.031-.172l.656-2.64H4.22c.906 0 1.078.562 1.078.905 0 .141-.078.454-.14.688-.063.281-.157.64-.157.844C5 .219 6.203.219 6.328.219c.844 0 1.203-1 1.203-1.14 0-.126-.11-.126-.125-.126-.093 0-.11.063-.125.14-.25.735-.687.907-.906.907-.328 0-.406-.219-.406-.61 0-.312.062-.812.11-1.14.015-.14.03-.328.03-.469 0-.765-.671-1.078-.937-1.172zm0 0"/></symbol><symbol id="p" overflow="visible"><path d="M1.906-2.328c.547 0 .938.375.938 1.125 0 .86-.516 1.125-.906 1.125-.282 0-.907-.078-1.188-.5.328 0 .406-.235.406-.39 0-.22-.172-.376-.39-.376a.38.38 0 0 0-.391.407C.375-.281 1.094.14 1.938.14c.968 0 1.64-.657 1.64-1.344 0-.547-.437-1.094-1.203-1.25.719-.266.984-.781.984-1.219 0-.547-.625-.953-1.406-.953-.766 0-1.36.375-1.36.938 0 .234.157.359.36.359.219 0 .36-.156.36-.344 0-.203-.141-.36-.36-.375.25-.297.719-.375.985-.375.312 0 .75.156.75.75 0 .297-.094.625-.282.828-.219.266-.422.281-.765.313-.172.015-.188.015-.22.015-.015 0-.077.016-.077.094 0 .094.062.094.187.094zm0 0"/></symbol></defs><use height="744.094" width="1052.362" y="134.765" x="223.432" xlink:href="#o"/><use height="744.094" width="1052.362" y="136.259" x="230.997" xlink:href="#p"/></g><g ns0:text="$R _{\\rm{2}}$" ns0:preamble="/home/waldgeist/data/sphinx/inkscape-preamble.tex" transform="matrix(1.5003 0 0 1.5003 187.948 418.962)" stroke-width=".667"><defs><symbol overflow="visible" id="q"><path d="M3.734-6.125c.063-.234.094-.328.282-.36.093-.015.406-.015.609-.015.703 0 1.813 0 1.813.984 0 .344-.157 1.032-.547 1.422-.266.25-.782.578-1.688.578h-1.11zm1.438 2.734c1.016-.218 2.187-.921 2.187-1.921 0-.86-.89-1.5-2.203-1.5H2.328c-.203 0-.297 0-.297.203 0 .109.094.109.281.109.016 0 .204 0 .376.016.187.03.265.03.265.171 0 .032 0 .063-.031.188L1.578-.781c-.094.39-.11.469-.906.469-.172 0-.266 0-.266.203C.406 0 .531 0 .546 0c.282 0 .985-.031 1.25-.031.282 0 1 .031 1.282.031.078 0 .188 0 .188-.203 0-.11-.079-.11-.282-.11-.359 0-.64 0-.64-.171 0-.063.015-.11.031-.172l.656-2.64H4.22c.906 0 1.078.562 1.078.905 0 .141-.078.454-.14.688-.063.281-.157.64-.157.844C5 .219 6.203.219 6.328.219c.844 0 1.203-1 1.203-1.14 0-.126-.11-.126-.125-.126-.093 0-.11.063-.125.14-.25.735-.687.907-.906.907-.328 0-.406-.219-.406-.61 0-.312.062-.812.11-1.14.015-.14.03-.328.03-.469 0-.765-.671-1.078-.937-1.172zm0 0"/></symbol><symbol overflow="visible" id="r"><path d="M3.516-1.266H3.28c-.015.157-.094.563-.187.625-.047.047-.578.047-.688.047H1.125c.734-.64.984-.844 1.39-1.172.516-.406 1-.843 1-1.5 0-.843-.734-1.359-1.624-1.359-.86 0-1.454.61-1.454 1.25 0 .344.297.39.376.39.156 0 .359-.124.359-.374 0-.125-.047-.375-.406-.375.218-.485.687-.641 1.015-.641.703 0 1.063.547 1.063 1.11 0 .609-.438 1.078-.656 1.328L.516-.266C.437-.203.437-.187.437 0h2.876zm0 0"/></symbol></defs><use height="744.094" width="1052.362" xlink:href="#q" x="223.432" y="134.765"/><use height="744.094" width="1052.362" xlink:href="#r" x="230.997" y="136.259"/></g><g stroke="#000" stroke-width="3.191" stroke-linecap="round"><g stroke-width=".948" fill="none"><path d="M354.908 683.678v18.686M354.908 754.686V736l-11.212-33.636" stroke-width=".99989352"/></g><path d="M354.908 733.687a1.677 1.677 0 1 1 0 3.354 1.677 1.677 0 0 1 0-3.354zM354.908 700.688a1.677 1.677 0 1 1 0 3.353 1.677 1.677 0 0 1 0-3.353z" stroke-width="1.0000136999999998"/></g><path d="M377.686 638.123h-22.778M708.653 638.123h-22.778M354.908 683.678v-45.555M354.908 800.241v-45.555M496.347 800.241H354.895M708.666 800.241H567.214M708.653 800.241V638.123" fill="none" stroke="#000" stroke-linecap="round"/><path d="M493.924 636.446a1.677 1.677 0 1 1 0 3.354 1.677 1.677 0 0 1 0-3.354zM376.01 636.446a1.677 1.677 0 1 1 0 3.354 1.677 1.677 0 0 1 0-3.354zM451.722 636.446a1.677 1.677 0 1 1 0 3.354 1.677 1.677 0 0 1 0-3.354zM569.637 636.446a1.677 1.677 0 1 1 0 3.354 1.677 1.677 0 0 1 0-3.354zM611.839 636.446a1.677 1.677 0 1 1 0 3.354 1.677 1.677 0 0 1 0-3.354zM687.552 636.446a1.677 1.677 0 1 1 0 3.354 1.677 1.677 0 0 1 0-3.354z" stroke="#000" stroke-width="1.0000136999999998" stroke-linecap="round"/><path d="M376.01 638.123v-69.407M451.722 638.123v-69.407M493.924 638.123v-69.407M569.637 638.123v-69.407M611.839 638.123v-69.407M687.552 638.123v-69.407" fill="none" stroke="#000" stroke-width="1.234" stroke-linecap="round"/><path d="M430.054 568.716h21.596" fill="none" stroke="#000" stroke-width="1.0933815199999999" stroke-linecap="round"/><path d="M376.01 568.716h21.668" fill="none" stroke="#000" stroke-width="1.0952018" stroke-linecap="round"/><path style="marker:none" d="M435.827 100.866c0 5.87-6.346 10.63-14.173 10.63-7.828 0-14.174-4.76-14.174-10.63 0-5.87 6.346-10.63 14.174-10.63 7.827 0 14.173 4.76 14.173 10.63z" transform="matrix(-1.14215 0 0 1.52287 895.46 415.11)" color="#000" fill="none" stroke="#000" stroke-width=".758" stroke-linecap="square" overflow="visible"/><text y="706.065" x="119.253" style="line-height:125%;-inkscape-font-specification:Arial" font-size="66.318" font-weight="400" letter-spacing="0" word-spacing="0" font-family="Arial" transform="translate(370.977 361.43) scale(.30338)"><tspan y="706.065" x="119.253">V</tspan></text><path d="M547.969 568.716h21.668" fill="none" stroke="#000" stroke-width=".9999404799999999" stroke-linecap="round"/><path d="M493.924 568.716h21.669" fill="none" stroke="#000" stroke-width="1.09186462" stroke-linecap="round"/><path transform="matrix(-1.14215 0 0 1.52287 1013.374 415.11)" d="M435.827 100.866c0 5.87-6.346 10.63-14.173 10.63-7.828 0-14.174-4.76-14.174-10.63 0-5.87 6.346-10.63 14.174-10.63 7.827 0 14.173 4.76 14.173 10.63z" style="marker:none" color="#000" fill="none" stroke="#000" stroke-width=".758" stroke-linecap="square" overflow="visible"/><text style="line-height:125%;-inkscape-font-specification:Arial" x="119.253" y="706.065" font-size="66.318" font-weight="400" letter-spacing="0" word-spacing="0" font-family="Arial" transform="translate(488.892 361.43) scale(.30338)"><tspan x="119.253" y="706.065">V</tspan></text><g><path d="M665.883 568.716h21.669M611.839 568.716h21.668" fill="none" stroke="#000" stroke-width=".9999404799999999" stroke-linecap="round"/><path style="marker:none" d="M435.827 100.866c0 5.87-6.346 10.63-14.173 10.63-7.828 0-14.174-4.76-14.174-10.63 0-5.87 6.346-10.63 14.174-10.63 7.827 0 14.173 4.76 14.173 10.63z" transform="matrix(-1.14215 0 0 1.52287 1131.289 415.11)" color="#000" fill="none" stroke="#000" stroke-width=".758" stroke-linecap="square" overflow="visible"/><text y="706.065" x="119.253" style="line-height:125%;-inkscape-font-specification:Arial" font-size="66.318" font-weight="400" letter-spacing="0" word-spacing="0" font-family="Arial" transform="translate(606.806 361.43) scale(.30338)"><tspan y="706.065" x="119.253">V</tspan></text></g><g transform="matrix(1.5003 0 0 1.5003 75.272 342.962)" ns0:preamble="/home/waldgeist/data/sphinx/inkscape-preamble.tex" ns0:text="$U _{\\rm{1}}$" stroke-width=".667"><defs><symbol id="s" overflow="visible"><path d="M6.328-5.766c.11-.406.281-.703 1.078-.734.047 0 .172-.016.172-.203 0 0 0-.11-.125-.11-.328 0-.687.032-1.016.032-.343 0-.718-.032-1.046-.032-.063 0-.172 0-.172.204 0 .109.093.109.172.109.578.016.687.219.687.438 0 .03-.031.187-.031.203L5.14-2.297C4.812-.953 3.656-.094 2.656-.094c-.672 0-1.203-.437-1.203-1.297 0-.015 0-.328.11-.765l.953-3.89c.093-.36.109-.454.843-.454.266 0 .344 0 .344-.203 0-.11-.11-.11-.14-.11-.282 0-1 .032-1.282.032-.281 0-1-.032-1.281-.032-.078 0-.188 0-.188.204 0 .109.079.109.282.109.015 0 .203 0 .375.016.172.03.265.03.265.171 0 .047-.109.47-.171.704l-.22.875C1.25-4.344.782-2.47.735-2.266c-.062.266-.062.422-.062.579 0 1.203.906 1.906 1.953 1.906 1.25 0 2.484-1.125 2.813-2.438zm0 0"/></symbol><symbol id="t" overflow="visible"><path d="M2.328-4.438c0-.187 0-.187-.203-.187-.453.438-1.078.438-1.36.438v.25c.157 0 .626 0 1-.188v3.547c0 .234 0 .328-.687.328H.812V0c.125 0 .985-.031 1.235-.031.219 0 1.094.031 1.25.031v-.25H3.03c-.703 0-.703-.094-.703-.328zm0 0"/></symbol></defs><use y="134.765" x="223.432" xlink:href="#s" width="1052.362" height="744.094"/><use y="136.259" x="230.234" xlink:href="#t" width="1052.362" height="744.094"/></g><g ns0:text="$U _{\\rm{2}}$" ns0:preamble="/home/waldgeist/data/sphinx/inkscape-preamble.tex" transform="matrix(1.5003 0 0 1.5003 190.321 342.962)" stroke-width=".667"><defs><symbol overflow="visible" id="u"><path d="M6.328-5.766c.11-.406.281-.703 1.078-.734.047 0 .172-.016.172-.203 0 0 0-.11-.125-.11-.328 0-.687.032-1.016.032-.343 0-.718-.032-1.046-.032-.063 0-.172 0-.172.204 0 .109.093.109.172.109.578.016.687.219.687.438 0 .03-.031.187-.031.203L5.14-2.297C4.812-.953 3.656-.094 2.656-.094c-.672 0-1.203-.437-1.203-1.297 0-.015 0-.328.11-.765l.953-3.89c.093-.36.109-.454.843-.454.266 0 .344 0 .344-.203 0-.11-.11-.11-.14-.11-.282 0-1 .032-1.282.032-.281 0-1-.032-1.281-.032-.078 0-.188 0-.188.204 0 .109.079.109.282.109.015 0 .203 0 .375.016.172.03.265.03.265.171 0 .047-.109.47-.171.704l-.22.875C1.25-4.344.782-2.47.735-2.266c-.062.266-.062.422-.062.579 0 1.203.906 1.906 1.953 1.906 1.25 0 2.484-1.125 2.813-2.438zm0 0"/></symbol><symbol overflow="visible" id="v"><path d="M3.516-1.266H3.28c-.015.157-.094.563-.187.625-.047.047-.578.047-.688.047H1.125c.734-.64.984-.844 1.39-1.172.516-.406 1-.843 1-1.5 0-.843-.734-1.359-1.624-1.359-.86 0-1.454.61-1.454 1.25 0 .344.297.39.376.39.156 0 .359-.124.359-.374 0-.125-.047-.375-.406-.375.218-.485.687-.641 1.015-.641.703 0 1.063.547 1.063 1.11 0 .609-.438 1.078-.656 1.328L.516-.266C.437-.203.437-.187.437 0h2.876zm0 0"/></symbol></defs><use xlink:href="#u" x="223.432" y="134.765" width="1052.362" height="744.094"/><use xlink:href="#v" x="230.234" y="136.259" width="1052.362" height="744.094"/></g><g transform="matrix(1.5003 0 0 1.5003 308.189 342.962)" ns0:preamble="/home/waldgeist/data/sphinx/inkscape-preamble.tex" ns0:text="$U _{\\rm{3}}$" stroke-width=".667"><defs><symbol id="w" overflow="visible"><path d="M6.328-5.766c.11-.406.281-.703 1.078-.734.047 0 .172-.016.172-.203 0 0 0-.11-.125-.11-.328 0-.687.032-1.016.032-.343 0-.718-.032-1.046-.032-.063 0-.172 0-.172.204 0 .109.093.109.172.109.578.016.687.219.687.438 0 .03-.031.187-.031.203L5.14-2.297C4.812-.953 3.656-.094 2.656-.094c-.672 0-1.203-.437-1.203-1.297 0-.015 0-.328.11-.765l.953-3.89c.093-.36.109-.454.843-.454.266 0 .344 0 .344-.203 0-.11-.11-.11-.14-.11-.282 0-1 .032-1.282.032-.281 0-1-.032-1.281-.032-.078 0-.188 0-.188.204 0 .109.079.109.282.109.015 0 .203 0 .375.016.172.03.265.03.265.171 0 .047-.109.47-.171.704l-.22.875C1.25-4.344.782-2.47.735-2.266c-.062.266-.062.422-.062.579 0 1.203.906 1.906 1.953 1.906 1.25 0 2.484-1.125 2.813-2.438zm0 0"/></symbol><symbol id="x" overflow="visible"><path d="M1.906-2.328c.547 0 .938.375.938 1.125 0 .86-.516 1.125-.906 1.125-.282 0-.907-.078-1.188-.5.328 0 .406-.235.406-.39 0-.22-.172-.376-.39-.376a.38.38 0 0 0-.391.407C.375-.281 1.094.14 1.938.14c.968 0 1.64-.657 1.64-1.344 0-.547-.437-1.094-1.203-1.25.719-.266.984-.781.984-1.219 0-.547-.625-.953-1.406-.953-.766 0-1.36.375-1.36.938 0 .234.157.359.36.359.219 0 .36-.156.36-.344 0-.203-.141-.36-.36-.375.25-.297.719-.375.985-.375.312 0 .75.156.75.75 0 .297-.094.625-.282.828-.219.266-.422.281-.765.313-.172.015-.188.015-.22.015-.015 0-.077.016-.077.094 0 .094.062.094.187.094zm0 0"/></symbol></defs><use y="134.765" x="223.432" xlink:href="#w" width="1052.362" height="744.094"/><use y="136.259" x="230.234" xlink:href="#x" width="1052.362" height="744.094"/></g></g></svg>