<svg xmlns="http://www.w3.org/2000/svg" xmlns:xlink="http://www.w3.org/1999/xlink" width="1052.362" height="744.094"><title>Parallelschaltung von Widerstaenden</title><defs><linearGradient id="d"><stop offset="0" stop-opacity="0"/><stop offset="1" stop-color="#fff"/></linearGradient><linearGradient id="e"><stop offset="0" stop-color="#fff"/><stop offset="1" stop-color="#fff" stop-opacity="0"/></linearGradient><linearGradient id="f"><stop offset="0" stop-color="#1a1a1a" stop-opacity=".828"/><stop offset="1" stop-color="#fff"/></linearGradient><linearGradient id="a"><stop offset="0" stop-opacity="0"/><stop offset="1" stop-color="#fff"/></linearGradient><linearGradient id="b"><stop offset="0" stop-color="#ebebeb"/><stop offset="1" stop-color="#fff" stop-opacity="0"/></linearGradient><linearGradient id="c"><stop offset="0" stop-color="#0e0e0e" stop-opacity=".746"/><stop offset="1" stop-color="#fff"/></linearGradient><pattern patternUnits="userSpaceOnUse" width="30.066" height="5.181" id="g"><path d="M7.597.061C5.079-.187 2.656.302-.01 1.788v1.273c2.783-1.63 5.183-2.009 7.482-1.781 2.298.228 4.497 1.081 6.781 1.938 4.567 1.713 9.551 3.458 15.813-.157l-.004-1.273c-6.44 3.709-10.816 1.982-15.371.273-2.278-.854-4.576-1.75-7.094-2z"/></pattern><pattern patternTransform="translate(.25)" id="h" xlink:href="#g"/><symbol id="q" overflow="visible"><path d="M3.734-6.125c.063-.234.094-.328.282-.36.093-.015.406-.015.609-.015.703 0 1.813 0 1.813.984 0 .344-.157 1.032-.547 1.422-.266.25-.782.578-1.688.578h-1.11zm1.438 2.734c1.016-.218 2.187-.921 2.187-1.921 0-.86-.89-1.5-2.203-1.5H2.328c-.203 0-.297 0-.297.203 0 .109.094.109.281.109.016 0 .204 0 .376.016.187.03.265.03.265.171 0 .032 0 .063-.031.188L1.578-.781c-.094.39-.11.469-.906.469-.172 0-.266 0-.266.203C.406 0 .531 0 .546 0c.282 0 .985-.031 1.25-.031.282 0 1 .031 1.282.031.078 0 .188 0 .188-.203 0-.11-.079-.11-.282-.11-.359 0-.64 0-.64-.171 0-.063.015-.11.031-.172l.656-2.64H4.22c.906 0 1.078.562 1.078.905 0 .141-.078.454-.14.688-.063.281-.157.64-.157.844C5 .219 6.203.219 6.328.219c.844 0 1.203-1 1.203-1.14 0-.126-.11-.126-.125-.126-.093 0-.11.063-.125.14-.25.735-.687.907-.906.907-.328 0-.406-.219-.406-.61 0-.312.062-.812.11-1.14.015-.14.03-.328.03-.469 0-.765-.671-1.078-.937-1.172zm0 0"/></symbol><symbol id="r" overflow="visible"><path d="M2.328-4.438c0-.187 0-.187-.203-.187-.453.438-1.078.438-1.36.438v.25c.157 0 .626 0 1-.188v3.547c0 .234 0 .328-.687.328H.812V0c.125 0 .985-.031 1.235-.031.219 0 1.094.031 1.25.031v-.25H3.03c-.703 0-.703-.094-.703-.328zm0 0"/></symbol><symbol id="s" overflow="visible"><path d="M3.734-6.125c.063-.234.094-.328.282-.36.093-.015.406-.015.609-.015.703 0 1.813 0 1.813.984 0 .344-.157 1.032-.547 1.422-.266.25-.782.578-1.688.578h-1.11zm1.438 2.734c1.016-.218 2.187-.921 2.187-1.921 0-.86-.89-1.5-2.203-1.5H2.328c-.203 0-.297 0-.297.203 0 .109.094.109.281.109.016 0 .204 0 .376.016.187.03.265.03.265.171 0 .032 0 .063-.031.188L1.578-.781c-.094.39-.11.469-.906.469-.172 0-.266 0-.266.203C.406 0 .531 0 .546 0c.282 0 .985-.031 1.25-.031.282 0 1 .031 1.282.031.078 0 .188 0 .188-.203 0-.11-.079-.11-.282-.11-.359 0-.64 0-.64-.171 0-.063.015-.11.031-.172l.656-2.64H4.22c.906 0 1.078.562 1.078.905 0 .141-.078.454-.14.688-.063.281-.157.64-.157.844C5 .219 6.203.219 6.328.219c.844 0 1.203-1 1.203-1.14 0-.126-.11-.126-.125-.126-.093 0-.11.063-.125.14-.25.735-.687.907-.906.907-.328 0-.406-.219-.406-.61 0-.312.062-.812.11-1.14.015-.14.03-.328.03-.469 0-.765-.671-1.078-.937-1.172zm0 0"/></symbol><symbol id="t" overflow="visible"><path d="M3.516-1.266H3.28c-.015.157-.094.563-.187.625-.047.047-.578.047-.688.047H1.125c.734-.64.984-.844 1.39-1.172.516-.406 1-.843 1-1.5 0-.843-.734-1.359-1.624-1.359-.86 0-1.454.61-1.454 1.25 0 .344.297.39.376.39.156 0 .359-.124.359-.374 0-.125-.047-.375-.406-.375.218-.485.687-.641 1.015-.641.703 0 1.063.547 1.063 1.11 0 .609-.438 1.078-.656 1.328L.516-.266C.437-.203.437-.187.437 0h2.876zm0 0"/></symbol><symbol overflow="visible" id="u"><path d="M3.734-6.125c.063-.234.094-.328.282-.36.093-.015.406-.015.609-.015.703 0 1.813 0 1.813.984 0 .344-.157 1.032-.547 1.422-.266.25-.782.578-1.688.578h-1.11zm1.438 2.734c1.016-.218 2.187-.921 2.187-1.921 0-.86-.89-1.5-2.203-1.5H2.328c-.203 0-.297 0-.297.203 0 .109.094.109.281.109.016 0 .204 0 .376.016.187.03.265.03.265.171 0 .032 0 .063-.031.188L1.578-.781c-.094.39-.11.469-.906.469-.172 0-.266 0-.266.203C.406 0 .531 0 .546 0c.282 0 .985-.031 1.25-.031.282 0 1 .031 1.282.031.078 0 .188 0 .188-.203 0-.11-.079-.11-.282-.11-.359 0-.64 0-.64-.171 0-.063.015-.11.031-.172l.656-2.64H4.22c.906 0 1.078.562 1.078.905 0 .141-.078.454-.14.688-.063.281-.157.64-.157.844C5 .219 6.203.219 6.328.219c.844 0 1.203-1 1.203-1.14 0-.126-.11-.126-.125-.126-.093 0-.11.063-.125.14-.25.735-.687.907-.906.907-.328 0-.406-.219-.406-.61 0-.312.062-.812.11-1.14.015-.14.03-.328.03-.469 0-.765-.671-1.078-.937-1.172zm0 0"/></symbol><symbol overflow="visible" id="v"><path d="M1.906-2.328c.547 0 .938.375.938 1.125 0 .86-.516 1.125-.906 1.125-.282 0-.907-.078-1.188-.5.328 0 .406-.235.406-.39 0-.22-.172-.376-.39-.376a.38.38 0 0 0-.391.407C.375-.281 1.094.14 1.938.14c.968 0 1.64-.657 1.64-1.344 0-.547-.437-1.094-1.203-1.25.719-.266.984-.781.984-1.219 0-.547-.625-.953-1.406-.953-.766 0-1.36.375-1.36.938 0 .234.157.359.36.359.219 0 .36-.156.36-.344 0-.203-.141-.36-.36-.375.25-.297.719-.375.985-.375.312 0 .75.156.75.75 0 .297-.094.625-.282.828-.219.266-.422.281-.765.313-.172.015-.188.015-.22.015-.015 0-.077.016-.077.094 0 .094.062.094.187.094zm0 0"/></symbol><pattern xlink:href="#i" id="j" patternTransform="translate(.25)"/><pattern id="i" height="5.181" width="30.066" patternUnits="userSpaceOnUse"><path d="M7.597.061C5.079-.187 2.656.302-.01 1.788v1.273c2.783-1.63 5.183-2.009 7.482-1.781 2.298.228 4.497 1.081 6.781 1.938 4.567 1.713 9.551 3.458 15.813-.157l-.004-1.273c-6.44 3.709-10.816 1.982-15.371.273-2.278-.854-4.576-1.75-7.094-2z"/></pattern><linearGradient id="k"><stop offset="0" stop-color="#0e0e0e" stop-opacity=".746"/><stop offset="1" stop-color="#fff"/></linearGradient><linearGradient id="l"><stop offset="0" stop-color="#ebebeb"/><stop offset="1" stop-color="#fff" stop-opacity="0"/></linearGradient><linearGradient id="m"><stop offset="0" stop-opacity="0"/><stop offset="1" stop-color="#fff"/></linearGradient><linearGradient id="n"><stop offset="0" stop-color="#1a1a1a" stop-opacity=".828"/><stop offset="1" stop-color="#fff"/></linearGradient><linearGradient id="o"><stop offset="0" stop-color="#fff"/><stop offset="1" stop-color="#fff" stop-opacity="0"/></linearGradient><linearGradient id="p"><stop offset="0" stop-opacity="0"/><stop offset="1" stop-color="#fff"/></linearGradient></defs><g transform="translate(0 -308.268)"><path fill="#fff" stroke="#fff" stroke-width="1.5" stroke-linecap="round" stroke-linejoin="bevel" d="M99.293 405.903h853.776v492.254H99.293z"/><g fill="none" stroke="#000" stroke-linecap="round"><path stroke-width="2.99991366" d="M674.345 580.347h58.84v143.367h-58.84z"/><path d="M703.766 723.714v39.275M703.766 541.072v39.275" stroke-width="3"/></g><path fill="none" stroke="#000" stroke-width="2.99991366" stroke-linecap="round" d="M525.045 580.347h58.84v143.367h-58.84z"/><path d="M554.466 723.714v39.275M554.466 541.072v39.275" fill="none" stroke="#000" stroke-width="3" stroke-linecap="round"/><path fill="none" stroke="#000" stroke-width="2.99991366" stroke-linecap="round" d="M373.763 580.347h58.84v143.367h-58.84z"/><path d="M403.184 723.714v39.275M403.184 541.072v39.275M554.466 816.163v-53.174M554.466 541.072v-53.174M403.184 816.163v-53.174M703.766 816.163v-53.174M554.466 869.337v-53.174M554.466 487.898v-53.174M403.184 541.073v-53.175M703.766 541.072v-53.174M403.184 816.163h300.582M403.184 487.898h300.582" fill="none" stroke="#000" stroke-width="3" stroke-linecap="round"/><circle transform="rotate(-90)" cx="-816.163" cy="553.475" r="5.35" stroke="#000" stroke-width="3.942" stroke-linecap="round"/><circle transform="rotate(-90)" cx="-487.898" cy="553.475" r="5.35" stroke="#000" stroke-width="3.942" stroke-linecap="round"/><g><use height="744.094" width="1052.362" xlink:href="#q" x="223.432" y="134.765" transform="translate(-945.906 -98.525) scale(5.59685)"/><use height="744.094" width="1052.362" xlink:href="#r" x="230.997" y="136.259" transform="translate(-945.906 -98.525) scale(5.59685)"/></g><g><use xlink:href="#s" x="223.432" y="134.765" width="1052.362" height="744.094" transform="translate(-795.97 -98.732) scale(5.59685)"/><use xlink:href="#t" x="230.997" y="136.259" width="1052.362" height="744.094" transform="translate(-795.97 -98.732) scale(5.59685)"/></g><g><use y="134.765" x="223.432" xlink:href="#u" width="1052.362" height="744.094" transform="translate(-644.752 -98.094) scale(5.59685)"/><use y="136.259" x="230.997" xlink:href="#v" width="1052.362" height="744.094" transform="translate(-644.752 -98.094) scale(5.59685)"/></g></g></svg>