<svg xmlns:ns0="http://www.iki.fi/pav/software/textext/" xmlns="http://www.w3.org/2000/svg" xmlns:xlink="http://www.w3.org/1999/xlink" width="744.094" height="1052.362"><title>Parallelschaltung von Kondensatoren</title><defs><linearGradient id="d"><stop offset="0" stop-opacity="0"/><stop offset="1" stop-color="#fff"/></linearGradient><linearGradient id="e"><stop offset="0" stop-color="#fff"/><stop offset="1" stop-color="#fff" stop-opacity="0"/></linearGradient><linearGradient id="f"><stop offset="0" stop-color="#1a1a1a" stop-opacity=".828"/><stop offset="1" stop-color="#fff"/></linearGradient><linearGradient id="a"><stop offset="0" stop-opacity="0"/><stop offset="1" stop-color="#fff"/></linearGradient><linearGradient id="b"><stop offset="0" stop-color="#ebebeb"/><stop offset="1" stop-color="#fff" stop-opacity="0"/></linearGradient><linearGradient id="c"><stop offset="0" stop-color="#0e0e0e" stop-opacity=".746"/><stop offset="1" stop-color="#fff"/></linearGradient><pattern patternUnits="userSpaceOnUse" width="30.066" height="5.181" id="g"><path d="M7.597.061C5.079-.187 2.656.302-.01 1.788v1.273c2.783-1.63 5.183-2.009 7.482-1.781 2.298.228 4.497 1.081 6.781 1.938 4.567 1.713 9.551 3.458 15.813-.157l-.004-1.273c-6.44 3.709-10.816 1.982-15.371.273-2.278-.854-4.576-1.75-7.094-2z"/></pattern><pattern patternTransform="translate(.25)" id="h" xlink:href="#g"/><symbol overflow="visible" id="m"><path d="M7.578-6.922c0-.031-.016-.11-.11-.11-.03 0-.046.016-.155.126l-.688.765c-.094-.14-.547-.89-1.656-.89C2.734-7.031.5-4.828.5-2.516.5-.875 1.672.22 3.203.22c.86 0 1.625-.39 2.156-.86.922-.812 1.094-1.718 1.094-1.75 0-.109-.11-.109-.125-.109-.062 0-.11.031-.125.11-.094.28-.328 1-1.016 1.578-.687.546-1.312.718-1.828.718-.89 0-1.953-.515-1.953-2.062 0-.578.203-2.188 1.203-3.36.61-.703 1.547-1.203 2.438-1.203 1.016 0 1.61.766 1.61 1.922 0 .406-.032.406-.032.516 0 .093.11.093.14.093.126 0 .126-.015.188-.203zm0 0"/></symbol><symbol overflow="visible" id="n"><path d="M1.906-2.328c.547 0 .938.375.938 1.125 0 .86-.516 1.125-.906 1.125-.282 0-.907-.078-1.188-.5.328 0 .406-.235.406-.39 0-.22-.172-.376-.39-.376a.38.38 0 0 0-.391.407C.375-.281 1.094.14 1.938.14c.968 0 1.64-.657 1.64-1.344 0-.547-.437-1.094-1.203-1.25.719-.266.984-.781.984-1.219 0-.547-.625-.953-1.406-.953-.766 0-1.36.375-1.36.938 0 .234.157.359.36.359.219 0 .36-.156.36-.344 0-.203-.141-.36-.36-.375.25-.297.719-.375.985-.375.312 0 .75.156.75.75 0 .297-.094.625-.282.828-.219.266-.422.281-.765.313-.172.015-.188.015-.22.015-.015 0-.077.016-.077.094 0 .094.062.094.187.094zm0 0"/></symbol><symbol id="k" overflow="visible"><path d="M7.578-6.922c0-.031-.016-.11-.11-.11-.03 0-.046.016-.155.126l-.688.765c-.094-.14-.547-.89-1.656-.89C2.734-7.031.5-4.828.5-2.516.5-.875 1.672.22 3.203.22c.86 0 1.625-.39 2.156-.86.922-.812 1.094-1.718 1.094-1.75 0-.109-.11-.109-.125-.109-.062 0-.11.031-.125.11-.094.28-.328 1-1.016 1.578-.687.546-1.312.718-1.828.718-.89 0-1.953-.515-1.953-2.062 0-.578.203-2.188 1.203-3.36.61-.703 1.547-1.203 2.438-1.203 1.016 0 1.61.766 1.61 1.922 0 .406-.032.406-.032.516 0 .093.11.093.14.093.126 0 .126-.015.188-.203zm0 0"/></symbol><symbol id="l" overflow="visible"><path d="M2.328-4.438c0-.187 0-.187-.203-.187-.453.438-1.078.438-1.36.438v.25c.157 0 .626 0 1-.188v3.547c0 .234 0 .328-.687.328H.812V0c.125 0 .985-.031 1.235-.031.219 0 1.094.031 1.25.031v-.25H3.03c-.703 0-.703-.094-.703-.328zm0 0"/></symbol><symbol overflow="visible" id="i"><path d="M7.578-6.922c0-.031-.016-.11-.11-.11-.03 0-.046.016-.155.126l-.688.765c-.094-.14-.547-.89-1.656-.89C2.734-7.031.5-4.828.5-2.516.5-.875 1.672.22 3.203.22c.86 0 1.625-.39 2.156-.86.922-.812 1.094-1.718 1.094-1.75 0-.109-.11-.109-.125-.109-.062 0-.11.031-.125.11-.094.28-.328 1-1.016 1.578-.687.546-1.312.718-1.828.718-.89 0-1.953-.515-1.953-2.062 0-.578.203-2.188 1.203-3.36.61-.703 1.547-1.203 2.438-1.203 1.016 0 1.61.766 1.61 1.922 0 .406-.032.406-.032.516 0 .093.11.093.14.093.126 0 .126-.015.188-.203zm0 0"/></symbol><symbol overflow="visible" id="j"><path d="M3.516-1.266H3.28c-.015.157-.094.563-.187.625-.047.047-.578.047-.688.047H1.125c.734-.64.984-.844 1.39-1.172.516-.406 1-.843 1-1.5 0-.843-.734-1.359-1.624-1.359-.86 0-1.454.61-1.454 1.25 0 .344.297.39.376.39.156 0 .359-.124.359-.374 0-.125-.047-.375-.406-.375.218-.485.687-.641 1.015-.641.703 0 1.063.547 1.063 1.11 0 .609-.438 1.078-.656 1.328L.516-.266C.437-.203.437-.187.437 0h2.876zm0 0"/></symbol></defs><path fill="#fff" stroke="#fff" stroke-width="1.5" stroke-linecap="round" stroke-linejoin="bevel" d="M41.348 715.449V336.914h661.398v378.535z"/><g ns0:text="$U _{\\rm{2}}$" ns0:preamble="/home/waldgeist/data/sphinx/test.tex"><use height="744.094" width="1052.362" xlink:href="#textext-0dcaac7d-0" x="223.432" y="134.765" transform="translate(-760.714 -237.18) scale(5.65723)"/><use height="744.094" width="1052.362" xlink:href="#textext-0dcaac7d-1" x="230.234" y="136.259" transform="translate(-760.714 -237.18) scale(5.65723)"/></g><path d="M396.075 642.243v45.442M396.075 410.119v29.435M614.95 410.119H396.076" fill="none" stroke="#000" stroke-width="3" stroke-linecap="round"/><ellipse transform="rotate(-90)" cx="-410.119" cy="396.075" rx="4.01" ry="4.01" stroke="#000" stroke-width="3.942" stroke-linecap="round"/><ellipse transform="rotate(-90)" cx="-638.233" cy="396.075" rx="4.01" ry="4.01" stroke="#000" stroke-width="3.942" stroke-linecap="round"/><path d="M396.075 608.799v29.434M614.95 608.799v29.434M614.95 410.119v29.435M177.199 606.679v31.554M177.199 410.119v29.435M396.075 410.119H177.199M396.075 638.233H177.199M614.95 638.233H396.076M396.075 364.677v45.442" fill="none" stroke="#000" stroke-width="3" stroke-linecap="round"/><g stroke-width=".889" fill="none" stroke="#000" stroke-linecap="round"><path d="M21.26 3.543v35.433M28.346 3.543v35.433M21.237 21.26H-.153M28.37 21.26h21.39" transform="matrix(0 -3.3726 3.37311 0 324.363 607.827)"/></g><use xlink:href="#i" x="223.432" y="134.765" width="744.094" height="1052.362" transform="matrix(4.24052 0 0 4.23987 -663.567 -44.712)"/><use xlink:href="#j" x="230.553" y="136.259" width="744.094" height="1052.362" transform="matrix(4.24052 0 0 4.23987 -663.567 -44.712)"/><g stroke-width=".889" fill="none" stroke="#000" stroke-linecap="round"><path d="M21.26 3.543v35.433M28.346 3.543v35.433M21.237 21.26H-.153M28.37 21.26h21.39" transform="matrix(0 -3.3726 3.37311 0 105.487 607.827)"/></g><use y="134.765" x="223.432" xlink:href="#k" width="744.094" height="1052.362" transform="matrix(4.24052 0 0 4.23987 -881.725 -44.657)"/><use y="136.259" x="230.553" xlink:href="#l" width="744.094" height="1052.362" transform="matrix(4.24052 0 0 4.23987 -881.725 -44.657)"/><g stroke-width=".889" fill="none" stroke="#000" stroke-linecap="round"><path d="M21.26 3.543v35.433M28.346 3.543v35.433M21.237 21.26H-.153M28.37 21.26h21.39" transform="matrix(0 -3.3726 3.37311 0 543.239 607.827)"/></g><g><use xlink:href="#m" x="223.432" y="134.765" width="744.094" height="1052.362" transform="matrix(4.24052 0 0 4.23987 -445.611 -45.392)"/><use xlink:href="#n" x="230.553" y="136.259" width="744.094" height="1052.362" transform="matrix(4.24052 0 0 4.23987 -445.611 -45.392)"/></g></svg>