<svg xmlns:ns0="http://www.iki.fi/pav/software/textext/" xmlns="http://www.w3.org/2000/svg" xmlns:xlink="http://www.w3.org/1999/xlink" width="744.094" height="1052.362"><title>Parallelschaltung von Stromquellen</title><defs><linearGradient id="d"><stop offset="0" stop-opacity="0"/><stop offset="1" stop-color="#fff"/></linearGradient><linearGradient id="e"><stop offset="0" stop-color="#fff"/><stop offset="1" stop-color="#fff" stop-opacity="0"/></linearGradient><linearGradient id="f"><stop offset="0" stop-color="#1a1a1a" stop-opacity=".828"/><stop offset="1" stop-color="#fff"/></linearGradient><linearGradient id="a"><stop offset="0" stop-opacity="0"/><stop offset="1" stop-color="#fff"/></linearGradient><linearGradient id="b"><stop offset="0" stop-color="#ebebeb"/><stop offset="1" stop-color="#fff" stop-opacity="0"/></linearGradient><linearGradient id="c"><stop offset="0" stop-color="#0e0e0e" stop-opacity=".746"/><stop offset="1" stop-color="#fff"/></linearGradient><pattern id="g" height="5.181" width="30.066" patternUnits="userSpaceOnUse"><path d="M7.597.061C5.079-.187 2.656.302-.01 1.788v1.273c2.783-1.63 5.183-2.009 7.482-1.781 2.298.228 4.497 1.081 6.781 1.938 4.567 1.713 9.551 3.458 15.813-.157l-.004-1.273c-6.44 3.709-10.816 1.982-15.371.273-2.278-.854-4.576-1.75-7.094-2z"/></pattern><pattern xlink:href="#g" id="h" patternTransform="translate(.25)"/></defs><path fill="#fff" stroke="#fff" stroke-width="1.5" stroke-linecap="round" stroke-linejoin="bevel" d="M41.348 715.449V336.914h661.398v378.535z"/><g ns0:preamble="/home/waldgeist/data/sphinx/test.tex" ns0:text="$U _{\\rm{2}}$"><use y="134.765" x="223.432" xlink:href="#textext-0dcaac7d-0" width="1052.362" height="744.094" transform="translate(-760.714 -237.18) scale(5.65723)"/><use y="136.259" x="230.234" xlink:href="#textext-0dcaac7d-1" width="1052.362" height="744.094" transform="translate(-760.714 -237.18) scale(5.65723)"/></g><path d="M395.604 642.246v45.442M395.604 410.117v29.435M614.48 410.117H395.604" fill="none" stroke="#000" stroke-width="3" stroke-linecap="round"/><path d="M869.133 1157.314H768.125M993.948 1157.314H893.553" fill="none" stroke="#000" stroke-width="4.003" stroke-linecap="round" transform="matrix(0 -.74948 .74958 0 -690.776 1184.491)"/><g fill="none" stroke="#000" stroke-width="4.499" stroke-linecap="round"><path d="M893.302 1257.256v-200.939M869.468 1120.08v73.413" transform="matrix(0 -.74948 .59339 0 -509.707 1184.491)"/></g><g fill="none" stroke="#000" stroke-width="1.19" stroke-linecap="round"><path d="M56.34 10.468v9.818M61.803 15.377h-9.818" transform="matrix(-2.52218 0 0 2.52184 272.98 438.395)"/></g><path d="M835.147 1096.165h-33.036" fill="none" stroke="#000" stroke-width="4.003" stroke-linecap="round" transform="matrix(0 -.74948 .74958 0 -690.776 1184.491)"/><path d="M869.133 1157.314H768.125M993.948 1157.314H893.553" fill="none" stroke="#000" stroke-width="4.003" stroke-linecap="round" transform="matrix(0 -.74948 .74958 0 -471.9 1184.491)"/><g fill="none" stroke="#000" stroke-width="4.499" stroke-linecap="round"><path d="M893.302 1257.256v-200.939M869.468 1120.08v73.413" transform="matrix(0 -.74948 .59339 0 -290.83 1184.491)"/></g><g fill="none" stroke="#000" stroke-width="1.19" stroke-linecap="round"><path d="M56.34 10.468v9.818M61.803 15.377h-9.818" transform="matrix(-2.52218 0 0 2.52184 491.855 438.395)"/></g><path d="M835.147 1096.165h-33.036" fill="none" stroke="#000" stroke-width="4.003" stroke-linecap="round" transform="matrix(0 -.74948 .74958 0 -471.9 1184.491)"/><g ns0:text="$U _{\\rm{2}}$" ns0:preamble="/home/waldgeist/data/sphinx/test.tex" transform="matrix(4.24052 0 0 4.23995 -663.425 -41.106)"><defs><symbol overflow="visible" id="i"><path d="M6.328-5.766c.11-.406.281-.703 1.078-.734.047 0 .172-.016.172-.203 0 0 0-.11-.125-.11-.328 0-.687.032-1.016.032-.343 0-.718-.032-1.046-.032-.063 0-.172 0-.172.204 0 .109.093.109.172.109.578.016.687.219.687.438 0 .03-.031.187-.031.203L5.14-2.297C4.812-.953 3.656-.094 2.656-.094c-.672 0-1.203-.437-1.203-1.297 0-.015 0-.328.11-.765l.953-3.89c.093-.36.109-.454.843-.454.266 0 .344 0 .344-.203 0-.11-.11-.11-.14-.11-.282 0-1 .032-1.282.032-.281 0-1-.032-1.281-.032-.078 0-.188 0-.188.204 0 .109.079.109.282.109.015 0 .203 0 .375.016.172.03.265.03.265.171 0 .047-.109.47-.171.704l-.22.875C1.25-4.344.782-2.47.735-2.266c-.062.266-.062.422-.062.579 0 1.203.906 1.906 1.953 1.906 1.25 0 2.484-1.125 2.813-2.438zm0 0"/></symbol><symbol overflow="visible" id="j"><path d="M3.516-1.266H3.28c-.015.157-.094.563-.187.625-.047.047-.578.047-.688.047H1.125c.734-.64.984-.844 1.39-1.172.516-.406 1-.843 1-1.5 0-.843-.734-1.359-1.624-1.359-.86 0-1.454.61-1.454 1.25 0 .344.297.39.376.39.156 0 .359-.124.359-.374 0-.125-.047-.375-.406-.375.218-.485.687-.641 1.015-.641.703 0 1.063.547 1.063 1.11 0 .609-.438 1.078-.656 1.328L.516-.266C.437-.203.437-.187.437 0h2.876zm0 0"/></symbol></defs><use xlink:href="#i" x="223.432" y="134.765" width="1052.362" height="744.094"/><use xlink:href="#j" x="230.234" y="136.259" width="1052.362" height="744.094"/></g><path d="M869.133 1157.314H768.125M993.948 1157.314H893.553" fill="none" stroke="#000" stroke-width="4.003" stroke-linecap="round" transform="matrix(0 -.74948 .74958 0 -253.014 1184.491)"/><g fill="none" stroke="#000" stroke-width="4.499" stroke-linecap="round"><path d="M893.302 1257.256v-200.939M869.468 1120.08v73.413" transform="matrix(0 -.74948 .59339 0 -71.944 1184.491)"/></g><g fill="none" stroke="#000" stroke-width="1.19" stroke-linecap="round"><path d="M56.34 10.468v9.818M61.803 15.377h-9.818" transform="matrix(-2.52218 0 0 2.52184 710.741 438.395)"/></g><path d="M835.147 1096.165h-33.036" fill="none" stroke="#000" stroke-width="4.003" stroke-linecap="round" transform="matrix(0 -.74948 .74958 0 -253.014 1184.491)"/><g transform="matrix(4.24052 0 0 4.23995 -444.9 -41.304)" ns0:preamble="/home/waldgeist/data/sphinx/test.tex" ns0:text="$U _{\\rm{3}}$"><defs><symbol id="k" overflow="visible"><path d="M6.328-5.766c.11-.406.281-.703 1.078-.734.047 0 .172-.016.172-.203 0 0 0-.11-.125-.11-.328 0-.687.032-1.016.032-.343 0-.718-.032-1.046-.032-.063 0-.172 0-.172.204 0 .109.093.109.172.109.578.016.687.219.687.438 0 .03-.031.187-.031.203L5.14-2.297C4.812-.953 3.656-.094 2.656-.094c-.672 0-1.203-.437-1.203-1.297 0-.015 0-.328.11-.765l.953-3.89c.093-.36.109-.454.843-.454.266 0 .344 0 .344-.203 0-.11-.11-.11-.14-.11-.282 0-1 .032-1.282.032-.281 0-1-.032-1.281-.032-.078 0-.188 0-.188.204 0 .109.079.109.282.109.015 0 .203 0 .375.016.172.03.265.03.265.171 0 .047-.109.47-.171.704l-.22.875C1.25-4.344.782-2.47.735-2.266c-.062.266-.062.422-.062.579 0 1.203.906 1.906 1.953 1.906 1.25 0 2.484-1.125 2.813-2.438zm0 0"/></symbol><symbol id="l" overflow="visible"><path d="M1.906-2.328c.547 0 .938.375.938 1.125 0 .86-.516 1.125-.906 1.125-.282 0-.907-.078-1.188-.5.328 0 .406-.235.406-.39 0-.22-.172-.376-.39-.376a.38.38 0 0 0-.391.407C.375-.281 1.094.14 1.938.14c.968 0 1.64-.657 1.64-1.344 0-.547-.437-1.094-1.203-1.25.719-.266.984-.781.984-1.219 0-.547-.625-.953-1.406-.953-.766 0-1.36.375-1.36.938 0 .234.157.359.36.359.219 0 .36-.156.36-.344 0-.203-.141-.36-.36-.375.25-.297.719-.375.985-.375.312 0 .75.156.75.75 0 .297-.094.625-.282.828-.219.266-.422.281-.765.313-.172.015-.188.015-.22.015-.015 0-.077.016-.077.094 0 .094.062.094.187.094zm0 0"/></symbol></defs><use y="134.765" x="223.432" xlink:href="#k" width="1052.362" height="744.094"/><use y="136.259" x="230.234" xlink:href="#l" width="1052.362" height="744.094"/></g><ellipse transform="rotate(-90)" cx="-410.117" cy="395.604" rx="4.01" ry="4.01" stroke="#000" stroke-width="3.942" stroke-linecap="round"/><ellipse transform="rotate(-90)" cx="-638.236" cy="395.604" rx="4.01" ry="4.01" stroke="#000" stroke-width="3.942" stroke-linecap="round"/><path d="M395.604 608.8v29.436M614.48 608.8v29.436M614.48 410.117v29.435" fill="none" stroke="#000" stroke-width="3" stroke-linecap="round"/><g transform="matrix(4.24052 0 0 4.23995 -881.673 -41.063)" ns0:preamble="/home/waldgeist/data/sphinx/test.tex" ns0:text="$U _{\\rm{1}}$"><defs><symbol id="m" overflow="visible"><path d="M6.328-5.766c.11-.406.281-.703 1.078-.734.047 0 .172-.016.172-.203 0 0 0-.11-.125-.11-.328 0-.687.032-1.016.032-.343 0-.718-.032-1.046-.032-.063 0-.172 0-.172.204 0 .109.093.109.172.109.578.016.687.219.687.438 0 .03-.031.187-.031.203L5.14-2.297C4.812-.953 3.656-.094 2.656-.094c-.672 0-1.203-.437-1.203-1.297 0-.015 0-.328.11-.765l.953-3.89c.093-.36.109-.454.843-.454.266 0 .344 0 .344-.203 0-.11-.11-.11-.14-.11-.282 0-1 .032-1.282.032-.281 0-1-.032-1.281-.032-.078 0-.188 0-.188.204 0 .109.079.109.282.109.015 0 .203 0 .375.016.172.03.265.03.265.171 0 .047-.109.47-.171.704l-.22.875C1.25-4.344.782-2.47.735-2.266c-.062.266-.062.422-.062.579 0 1.203.906 1.906 1.953 1.906 1.25 0 2.484-1.125 2.813-2.438zm0 0"/></symbol><symbol id="n" overflow="visible"><path d="M2.328-4.438c0-.187 0-.187-.203-.187-.453.438-1.078.438-1.36.438v.25c.157 0 .626 0 1-.188v3.547c0 .234 0 .328-.687.328H.812V0c.125 0 .985-.031 1.235-.031.219 0 1.094.031 1.25.031v-.25H3.03c-.703 0-.703-.094-.703-.328zm0 0"/></symbol></defs><use y="134.765" x="223.432" xlink:href="#m" width="1052.362" height="744.094"/><use y="136.259" x="230.234" xlink:href="#n" width="1052.362" height="744.094"/></g><path d="M176.728 606.68v31.556M176.728 410.117v29.435M395.604 410.117H176.728M395.604 638.236H176.728M614.48 638.236H395.604M395.604 364.674v45.443" fill="none" stroke="#000" stroke-width="3" stroke-linecap="round"/></svg>