<svg xmlns:ns0="http://www.iki.fi/pav/software/textext/" xmlns="http://www.w3.org/2000/svg" xmlns:xlink="http://www.w3.org/1999/xlink" width="1052.362" height="1488.189"><title>Schaltplan-Konventionen fuer Stromstaerken und Spannungen</title><path fill="#fff" stroke="#fff" stroke-width="3" stroke-linecap="round" stroke-linejoin="round" d="M21.105 422.866h1010.153v642.457H21.105z"/><path d="M249.638 790.881v101.008M249.638 666.066V766.46" fill="none" stroke="#000" stroke-width="3"/><g fill="none" stroke="#000" stroke-width="3.372"><path d="M893.302 1257.256v-200.939M869.468 1120.08v73.413" transform="matrix(0 -1 .79163 0 -666.113 1660.014)"/></g><g fill="none" stroke="#000" stroke-width=".892"><path d="M188.49 699.746v33.035M170.103 716.264h33.036" stroke-width="3.00141052"/></g><path d="M188.49 824.867v33.036" fill="none" stroke="#000" stroke-width="3"/><g transform="translate(191.495 295.496)"><circle r="5.35" cy="233.779" cx="396.878" stroke="#000" stroke-width="3.942" stroke-linecap="round"/></g><g stroke-width="8.138" fill="none" stroke="#000"><path stroke-linejoin="round" stroke-dashoffset="4" d="M927.298 706.22v145.514h-58.205V706.22z" stroke-width="2.99991094"/><path d="M898.195 851.734v40.48" stroke-width="2.99991094"/></g><g fill="none" stroke="#000" stroke-width="3" stroke-linecap="round" stroke-linejoin="round"><path d="M249.638 665.37V528.577M898.195 529.275V706.22M898.195 852.43v174.735"/></g><g transform="matrix(1 0 0 -1 191.495 1049.762)"><circle r="6.786" cy="-52.281" cx="210.714" transform="translate(230.738 63) scale(.78846)" stroke="#000" stroke-width="5" stroke-linecap="round"/></g><path d="M588.372 529.275V706.22" fill="none" stroke="#000" stroke-width="3" stroke-linecap="round"/><g stroke-width="8.138" fill="none" stroke="#000"><path stroke-linejoin="round" stroke-dashoffset="4" d="M617.475 706.22v145.514H559.27V706.22z" stroke-width="2.99991094"/><path d="M588.372 851.734v40.48" stroke-width="2.99991094"/></g><path d="M249.638 1027.983V891.89" fill="none" stroke="#000" stroke-width="3" stroke-linecap="square"/><path d="M249.638 529.275h647.838M249.638 1027.983h648.557M588.372 851.734v176.25" fill="none" stroke="#000" stroke-width="3" stroke-linecap="round" stroke-linejoin="round"/><path d="M342.644 529.275h63.294" fill="navy" stroke="teal" stroke-width="14.945"/><path d="M415.218 529.275l-4.64 2.679-4.64 2.678v-10.715l4.64 2.679z" fill="green" stroke="teal" stroke-width="14.953841"/><g stroke="teal"><path d="M721.78 529.275h34.774" fill="navy" stroke-width="14.945"/><path d="M765.834 529.275l-4.64 2.679-4.64 2.678v-10.715l4.64 2.679z" fill="green" stroke-width="14.953841"/></g><g stroke="teal"><path d="M588.372 592.231v34.775" fill="navy" stroke-width="14.945"/><path d="M588.372 636.286l-2.679-4.64-2.678-4.64h10.715l-2.679 4.64z" fill="green" stroke-width="14.953841"/></g><g fill="#ca7900"><path d="M138.178 679.275v193.861s-7.332 13.566-7.39 13.543l-7.391-13.543v-193.86z" style="line-height:normal;-inkscape-font-specification:Sans;text-indent:0;text-align:start;text-decoration-line:none;text-transform:none;block-progression:tb;marker:none" color="#000" font-weight="400" font-family="Sans" overflow="visible"/><path transform="matrix(-.51037 .00002 .00002 .522 -230.134 25.825)" d="M-707.107 1620.068l-5.249-9.091-5.249-9.092h20.996l-5.249 9.091z" stroke="#ca7900" stroke-width="28.972" stroke-linecap="square"/></g><g transform="matrix(5.06354 0 0 5.06354 28.134 370.126)" ns0:text="$R_1$" ns0:preamble="/home/waldgeist/data/homepage/inkscape-preamble.tex"><defs><symbol overflow="visible" id="a"><path d="M3.734-6.125c.063-.234.094-.328.282-.36.093-.015.406-.015.609-.015.703 0 1.813 0 1.813.984 0 .344-.157 1.032-.547 1.422-.266.25-.782.578-1.688.578h-1.11zm1.438 2.734c1.016-.218 2.187-.921 2.187-1.921 0-.86-.89-1.5-2.203-1.5H2.328c-.203 0-.297 0-.297.203 0 .109.094.109.281.109.016 0 .204 0 .376.016.187.03.265.03.265.171 0 .032 0 .063-.031.188L1.578-.781c-.094.39-.11.469-.906.469-.172 0-.266 0-.266.203C.406 0 .531 0 .546 0c.282 0 .985-.031 1.25-.031.282 0 1 .031 1.282.031.078 0 .188 0 .188-.203 0-.11-.079-.11-.282-.11-.359 0-.64 0-.64-.171 0-.063.015-.11.031-.172l.656-2.64H4.22c.906 0 1.078.562 1.078.905 0 .141-.078.454-.14.688-.063.281-.157.64-.157.844C5 .219 6.203.219 6.328.219c.844 0 1.203-1 1.203-1.14 0-.126-.11-.126-.125-.126-.093 0-.11.063-.125.14-.25.735-.687.907-.906.907-.328 0-.406-.219-.406-.61 0-.312.062-.812.11-1.14.015-.14.03-.328.03-.469 0-.765-.671-1.078-.937-1.172zm0 0"/></symbol><symbol overflow="visible" id="b"><path d="M2.328-4.438c0-.187 0-.187-.203-.187-.453.438-1.078.438-1.36.438v.25c.157 0 .626 0 1-.188v3.547c0 .234 0 .328-.687.328H.812V0c.125 0 .985-.031 1.235-.031.219 0 1.094.031 1.25.031v-.25H3.03c-.703 0-.703-.094-.703-.328zm0 0"/></symbol></defs><use height="100%" width="100%" xlink:href="#a" x="118.801" y="83.403"/><use height="100%" width="100%" xlink:href="#b" x="126.366" y="84.898"/></g><g transform="matrix(5.06354 0 0 5.06354 340.429 370.126)" ns0:preamble="/home/waldgeist/data/homepage/inkscape-preamble.tex" ns0:text="$R_2$"><defs><symbol id="c" overflow="visible"><path d="M3.734-6.125c.063-.234.094-.328.282-.36.093-.015.406-.015.609-.015.703 0 1.813 0 1.813.984 0 .344-.157 1.032-.547 1.422-.266.25-.782.578-1.688.578h-1.11zm1.438 2.734c1.016-.218 2.187-.921 2.187-1.921 0-.86-.89-1.5-2.203-1.5H2.328c-.203 0-.297 0-.297.203 0 .109.094.109.281.109.016 0 .204 0 .376.016.187.03.265.03.265.171 0 .032 0 .063-.031.188L1.578-.781c-.094.39-.11.469-.906.469-.172 0-.266 0-.266.203C.406 0 .531 0 .546 0c.282 0 .985-.031 1.25-.031.282 0 1 .031 1.282.031.078 0 .188 0 .188-.203 0-.11-.079-.11-.282-.11-.359 0-.64 0-.64-.171 0-.063.015-.11.031-.172l.656-2.64H4.22c.906 0 1.078.562 1.078.905 0 .141-.078.454-.14.688-.063.281-.157.64-.157.844C5 .219 6.203.219 6.328.219c.844 0 1.203-1 1.203-1.14 0-.126-.11-.126-.125-.126-.093 0-.11.063-.125.14-.25.735-.687.907-.906.907-.328 0-.406-.219-.406-.61 0-.312.062-.812.11-1.14.015-.14.03-.328.03-.469 0-.765-.671-1.078-.937-1.172zm0 0"/></symbol><symbol id="d" overflow="visible"><path d="M3.516-1.266H3.28c-.015.157-.094.563-.187.625-.047.047-.578.047-.688.047H1.125c.734-.64.984-.844 1.39-1.172.516-.406 1-.843 1-1.5 0-.843-.734-1.359-1.624-1.359-.86 0-1.454.61-1.454 1.25 0 .344.297.39.376.39.156 0 .359-.124.359-.374 0-.125-.047-.375-.406-.375.218-.485.687-.641 1.015-.641.703 0 1.063.547 1.063 1.11 0 .609-.438 1.078-.656 1.328L.516-.266C.437-.203.437-.187.437 0h2.876zm0 0"/></symbol></defs><use y="83.403" x="118.801" xlink:href="#c" width="100%" height="100%"/><use y="84.898" x="126.366" xlink:href="#d" width="100%" height="100%"/></g><g ns0:text="$U_0$" ns0:preamble="/home/waldgeist/data/homepage/inkscape-preamble.tex" transform="matrix(5.06354 0 0 5.06354 -550.683 364.09)" fill="#ca7900"><defs><symbol overflow="visible" id="e"><path d="M6.328-5.766c.11-.406.281-.703 1.078-.734.047 0 .172-.016.172-.203 0 0 0-.11-.125-.11-.328 0-.687.032-1.016.032-.343 0-.718-.032-1.046-.032-.063 0-.172 0-.172.204 0 .109.093.109.172.109.578.016.687.219.687.438 0 .03-.031.187-.031.203L5.14-2.297C4.812-.953 3.656-.094 2.656-.094c-.672 0-1.203-.437-1.203-1.297 0-.015 0-.328.11-.765l.953-3.89c.093-.36.109-.454.843-.454.266 0 .344 0 .344-.203 0-.11-.11-.11-.14-.11-.282 0-1 .032-1.282.032-.281 0-1-.032-1.281-.032-.078 0-.188 0-.188.204 0 .109.079.109.282.109.015 0 .203 0 .375.016.172.03.265.03.265.171 0 .047-.109.47-.171.704l-.22.875C1.25-4.344.782-2.47.735-2.266c-.062.266-.062.422-.062.579 0 1.203.906 1.906 1.953 1.906 1.25 0 2.484-1.125 2.813-2.438zm0 0"/></symbol><symbol overflow="visible" id="f"><path d="M3.594-2.219c0-.765-.094-1.328-.406-1.812-.22-.313-.657-.594-1.204-.594C.36-4.625.36-2.719.36-2.219c0 .5 0 2.36 1.625 2.36 1.61 0 1.61-1.86 1.61-2.36zM1.984-.063c-.328 0-.75-.187-.89-.75C1-1.219 1-1.796 1-2.313c0-.515 0-1.046.094-1.421.156-.547.593-.704.89-.704.375 0 .735.235.86.641.11.375.125.875.125 1.485 0 .515 0 1.03-.094 1.468-.14.64-.61.781-.89.781zm0 0"/></symbol></defs><use xlink:href="#e" x="118.801" y="83.403" width="100%" height="100%"/><use xlink:href="#f" x="125.603" y="84.898" width="100%" height="100%"/></g><g transform="matrix(5.06354 0 0 5.06354 -252.607 65.065)" ns0:preamble="/home/waldgeist/data/homepage/inkscape-preamble.tex" ns0:text="$I_{\\mathrm{ges}}$" fill="teal"><defs><symbol id="g" overflow="visible"><path d="M3.734-6.047c.079-.36.11-.453.907-.453.234 0 .312 0 .312-.188 0-.125-.11-.125-.14-.125-.297 0-1.032.032-1.329.032-.296 0-1.015-.032-1.328-.032-.062 0-.187 0-.187.204 0 .109.078.109.281.109.406 0 .688 0 .688.188 0 .046 0 .078-.032.156L1.562-.781c-.093.375-.109.469-.906.469-.234 0-.312 0-.312.203 0 .109.11.109.14.109C.781 0 1.5-.031 1.797-.031c.297 0 1.031.031 1.328.031.078 0 .203 0 .203-.188 0-.124-.078-.124-.297-.124-.187 0-.234 0-.422-.016-.218-.016-.25-.063-.25-.172 0-.078.016-.156.032-.234zm0 0"/></symbol><symbol id="h" overflow="visible"><path d="M1-1.234c.11.062.36.203.766.203C2.484-1.031 3-1.5 3-2.047c0-.281-.125-.484-.297-.672.328-.219.594-.234.719-.234-.031.031-.063.062-.063.172 0 .14.094.219.22.219.093 0 .218-.063.218-.22 0-.171-.125-.359-.406-.359-.11 0-.485.016-.813.313-.203-.14-.5-.25-.812-.25-.72 0-1.235.484-1.235 1.031 0 .266.14.516.328.703-.046.063-.203.297-.203.563 0 .094.016.422.297.625C.641-.063.266.172.266.53c0 .516.765.89 1.718.89.875 0 1.704-.343 1.704-.905a.87.87 0 0 0-.47-.782c-.405-.218-.827-.218-1.5-.218-.155 0-.405 0-.452-.016a.45.45 0 0 1-.36-.453c0-.172.063-.235.094-.281zm.766 0c-.672 0-.672-.672-.672-.813 0-.11 0-.39.125-.578a.778.778 0 0 1 .547-.234c.687 0 .687.671.687.812 0 .11 0 .39-.14.563a.727.727 0 0 1-.547.25zm0 1.218c.625 0 1.5 0 1.5.547 0 .375-.563.688-1.282.688C1.25 1.219.704.89.704.53c0-.25.218-.547.655-.547zm0 0"/></symbol><symbol id="i" overflow="visible"><path d="M3.063-1.594c.156 0 .203 0 .203-.14 0-.625-.344-1.375-1.391-1.375a1.59 1.59 0 0 0-1.61 1.578c0 .89.782 1.593 1.704 1.593.937 0 1.297-.75 1.297-.906 0-.015-.016-.094-.125-.094-.094 0-.11.047-.125.11-.22.562-.75.672-1 .672-.329 0-.641-.14-.844-.406-.266-.329-.266-.75-.266-1.032zM.905-1.766c.078-.984.703-1.14.969-1.14.86 0 .89.969.906 1.14zm0 0"/></symbol><symbol id="j" overflow="visible"><path d="M2.64-2.922c0-.125 0-.187-.093-.187-.031 0-.047 0-.14.078-.016.015-.079.078-.126.11-.219-.142-.469-.188-.734-.188-1 0-1.234.53-1.234.875 0 .218.093.406.265.546.266.22.531.266.969.344.344.063.906.157.906.625 0 .266-.187.594-.86.594-.671 0-.905-.438-1.03-.906C.53-1.125.53-1.156.438-1.156c-.126 0-.126.047-.126.187v.86c0 .109 0 .171.094.171.063 0 .203-.14.344-.296.297.296.672.296.844.296.906 0 1.25-.484 1.25-.968a.823.823 0 0 0-.313-.64c-.265-.25-.578-.313-.828-.345-.547-.109-1-.187-1-.562 0-.219.188-.485.844-.485.812 0 .844.563.86.766 0 .078.093.078.109.078.125 0 .125-.047.125-.187zm0 0"/></symbol></defs><use y="83.403" x="118.801" xlink:href="#g" width="100%" height="100%"/><use y="84.898" x="123.181" xlink:href="#h" width="100%" height="100%"/><use y="84.898" x="127.153" xlink:href="#i" width="100%" height="100%"/><use y="84.898" x="130.695" xlink:href="#j" width="100%" height="100%"/></g><g ns0:text="$I_1$" ns0:preamble="/home/waldgeist/data/homepage/inkscape-preamble.tex" transform="matrix(5.06354 0 0 5.06354 11.223 211.961)" fill="teal"><defs><symbol overflow="visible" id="k"><path d="M3.734-6.047c.079-.36.11-.453.907-.453.234 0 .312 0 .312-.188 0-.125-.11-.125-.14-.125-.297 0-1.032.032-1.329.032-.296 0-1.015-.032-1.328-.032-.062 0-.187 0-.187.204 0 .109.078.109.281.109.406 0 .688 0 .688.188 0 .046 0 .078-.032.156L1.562-.781c-.093.375-.109.469-.906.469-.234 0-.312 0-.312.203 0 .109.11.109.14.109C.781 0 1.5-.031 1.797-.031c.297 0 1.031.031 1.328.031.078 0 .203 0 .203-.188 0-.124-.078-.124-.297-.124-.187 0-.234 0-.422-.016-.218-.016-.25-.063-.25-.172 0-.078.016-.156.032-.234zm0 0"/></symbol><symbol overflow="visible" id="l"><path d="M2.328-4.438c0-.187 0-.187-.203-.187-.453.438-1.078.438-1.36.438v.25c.157 0 .626 0 1-.188v3.547c0 .234 0 .328-.687.328H.812V0c.125 0 .985-.031 1.235-.031.219 0 1.094.031 1.25.031v-.25H3.03c-.703 0-.703-.094-.703-.328zm0 0"/></symbol></defs><use height="100%" width="100%" xlink:href="#k" x="118.801" y="83.403"/><use height="100%" width="100%" xlink:href="#l" x="123.181" y="84.898"/></g><g transform="matrix(5.06354 0 0 5.06354 125.429 76.641)" ns0:preamble="/home/waldgeist/data/homepage/inkscape-preamble.tex" ns0:text="$I_2$" fill="teal"><defs><symbol id="m" overflow="visible"><path d="M3.734-6.047c.079-.36.11-.453.907-.453.234 0 .312 0 .312-.188 0-.125-.11-.125-.14-.125-.297 0-1.032.032-1.329.032-.296 0-1.015-.032-1.328-.032-.062 0-.187 0-.187.204 0 .109.078.109.281.109.406 0 .688 0 .688.188 0 .046 0 .078-.032.156L1.562-.781c-.093.375-.109.469-.906.469-.234 0-.312 0-.312.203 0 .109.11.109.14.109C.781 0 1.5-.031 1.797-.031c.297 0 1.031.031 1.328.031.078 0 .203 0 .203-.188 0-.124-.078-.124-.297-.124-.187 0-.234 0-.422-.016-.218-.016-.25-.063-.25-.172 0-.078.016-.156.032-.234zm0 0"/></symbol><symbol id="n" overflow="visible"><path d="M3.516-1.266H3.28c-.015.157-.094.563-.187.625-.047.047-.578.047-.688.047H1.125c.734-.64.984-.844 1.39-1.172.516-.406 1-.843 1-1.5 0-.843-.734-1.359-1.624-1.359-.86 0-1.454.61-1.454 1.25 0 .344.297.39.376.39.156 0 .359-.124.359-.374 0-.125-.047-.375-.406-.375.218-.485.687-.641 1.015-.641.703 0 1.063.547 1.063 1.11 0 .609-.438 1.078-.656 1.328L.516-.266C.437-.203.437-.187.437 0h2.876zm0 0"/></symbol></defs><use y="83.403" x="118.801" xlink:href="#m" width="100%" height="100%"/><use y="84.898" x="123.181" xlink:href="#n" width="100%" height="100%"/></g><g fill="#ca7900"><path style="line-height:normal;-inkscape-font-specification:Sans;text-indent:0;text-align:start;text-decoration-line:none;text-transform:none;block-progression:tb;marker:none" d="M526.077 675.275v193.861s-7.333 13.566-7.391 13.543l-7.39-13.543v-193.86z" color="#000" font-weight="400" font-family="Sans" overflow="visible"/><path d="M-707.107 1620.068l-5.249-9.091-5.249-9.092h20.996l-5.249 9.091z" transform="matrix(-.51037 .00002 .00002 .522 157.765 21.825)" stroke="#ca7900" stroke-width="28.972" stroke-linecap="square"/></g><g fill="#ca7900"><path d="M841.061 675.275v193.861s-7.332 13.566-7.39 13.543l-7.39-13.543v-193.86z" style="line-height:normal;-inkscape-font-specification:Sans;text-indent:0;text-align:start;text-decoration-line:none;text-transform:none;block-progression:tb;marker:none" color="#000" font-weight="400" font-family="Sans" overflow="visible"/><path transform="matrix(-.51037 .00002 .00002 .522 472.75 21.825)" d="M-707.107 1620.068l-5.249-9.091-5.249-9.092h20.996l-5.249 9.091z" stroke="#ca7900" stroke-width="28.972" stroke-linecap="square"/></g><g ns0:text="$U_1$" ns0:preamble="/home/waldgeist/data/homepage/inkscape-preamble.tex" transform="matrix(5.06354 0 0 5.06354 -150.683 364.09)" fill="#ca7900"><defs><symbol overflow="visible" id="o"><path d="M6.328-5.766c.11-.406.281-.703 1.078-.734.047 0 .172-.016.172-.203 0 0 0-.11-.125-.11-.328 0-.687.032-1.016.032-.343 0-.718-.032-1.046-.032-.063 0-.172 0-.172.204 0 .109.093.109.172.109.578.016.687.219.687.438 0 .03-.031.187-.031.203L5.14-2.297C4.812-.953 3.656-.094 2.656-.094c-.672 0-1.203-.437-1.203-1.297 0-.015 0-.328.11-.765l.953-3.89c.093-.36.109-.454.843-.454.266 0 .344 0 .344-.203 0-.11-.11-.11-.14-.11-.282 0-1 .032-1.282.032-.281 0-1-.032-1.281-.032-.078 0-.188 0-.188.204 0 .109.079.109.282.109.015 0 .203 0 .375.016.172.03.265.03.265.171 0 .047-.109.47-.171.704l-.22.875C1.25-4.344.782-2.47.735-2.266c-.062.266-.062.422-.062.579 0 1.203.906 1.906 1.953 1.906 1.25 0 2.484-1.125 2.813-2.438zm0 0"/></symbol><symbol overflow="visible" id="p"><path d="M2.328-4.438c0-.187 0-.187-.203-.187-.453.438-1.078.438-1.36.438v.25c.157 0 .626 0 1-.188v3.547c0 .234 0 .328-.687.328H.812V0c.125 0 .985-.031 1.235-.031.219 0 1.094.031 1.25.031v-.25H3.03c-.703 0-.703-.094-.703-.328zm0 0"/></symbol></defs><use xlink:href="#o" x="118.801" y="83.403" width="100%" height="100%"/><use xlink:href="#p" x="125.603" y="84.898" width="100%" height="100%"/></g><g transform="matrix(5.06354 0 0 5.06354 156.363 364.09)" ns0:preamble="/home/waldgeist/data/homepage/inkscape-preamble.tex" ns0:text="$U_2$" fill="#ca7900"><defs><symbol id="q" overflow="visible"><path d="M6.328-5.766c.11-.406.281-.703 1.078-.734.047 0 .172-.016.172-.203 0 0 0-.11-.125-.11-.328 0-.687.032-1.016.032-.343 0-.718-.032-1.046-.032-.063 0-.172 0-.172.204 0 .109.093.109.172.109.578.016.687.219.687.438 0 .03-.031.187-.031.203L5.14-2.297C4.812-.953 3.656-.094 2.656-.094c-.672 0-1.203-.437-1.203-1.297 0-.015 0-.328.11-.765l.953-3.89c.093-.36.109-.454.843-.454.266 0 .344 0 .344-.203 0-.11-.11-.11-.14-.11-.282 0-1 .032-1.282.032-.281 0-1-.032-1.281-.032-.078 0-.188 0-.188.204 0 .109.079.109.282.109.015 0 .203 0 .375.016.172.03.265.03.265.171 0 .047-.109.47-.171.704l-.22.875C1.25-4.344.782-2.47.735-2.266c-.062.266-.062.422-.062.579 0 1.203.906 1.906 1.953 1.906 1.25 0 2.484-1.125 2.813-2.438zm0 0"/></symbol><symbol id="r" overflow="visible"><path d="M3.516-1.266H3.28c-.015.157-.094.563-.187.625-.047.047-.578.047-.688.047H1.125c.734-.64.984-.844 1.39-1.172.516-.406 1-.843 1-1.5 0-.843-.734-1.359-1.624-1.359-.86 0-1.454.61-1.454 1.25 0 .344.297.39.376.39.156 0 .359-.124.359-.374 0-.125-.047-.375-.406-.375.218-.485.687-.641 1.015-.641.703 0 1.063.547 1.063 1.11 0 .609-.438 1.078-.656 1.328L.516-.266C.437-.203.437-.187.437 0h2.876zm0 0"/></symbol></defs><use y="83.403" x="118.801" xlink:href="#q" width="100%" height="100%"/><use y="84.898" x="125.603" xlink:href="#r" width="100%" height="100%"/></g></svg>