<svg xmlns:ns0="http://www.iki.fi/pav/software/textext/" xmlns="http://www.w3.org/2000/svg" xmlns:xlink="http://www.w3.org/1999/xlink" width="1052.362" height="744.094"><title>Stern- und Dreieck-Schaltung</title><g transform="translate(0 -308.268)"><path fill="#fff" stroke="#fff" stroke-width="1.5" stroke-linecap="round" stroke-linejoin="round" d="M32.512 943.405V417.224h987.339v526.181z"/><path style="marker:none" color="#000" overflow="visible" fill="#fff" stroke="#fff" stroke-linecap="round" stroke-linejoin="round" d="M1246.582-122.206h378.931v600.775h-378.931z"/><path style="marker:none" d="M526.181 459.592v441.446" color="#000" overflow="visible" fill="none" stroke="gray" stroke-width="2" stroke-linecap="round" stroke-linejoin="round"/><g><g transform="matrix(3.15938 0 0 3.15938 -1642.45 233.927)" ns0:text="\\begin{flushright}\n$R _{\\rm{1}}$\n\\end{flushright}"><defs><symbol id="a" overflow="visible"><path d="M3.734-6.125c.063-.234.094-.328.282-.36.093-.015.406-.015.609-.015.703 0 1.813 0 1.813.984 0 .344-.157 1.032-.547 1.422-.266.25-.782.578-1.688.578h-1.11zm1.438 2.734c1.016-.218 2.187-.921 2.187-1.921 0-.86-.89-1.5-2.203-1.5H2.328c-.203 0-.297 0-.297.203 0 .109.094.109.281.109.016 0 .204 0 .376.016.187.03.265.03.265.171 0 .032 0 .063-.031.188L1.578-.781c-.094.39-.11.469-.906.469-.172 0-.266 0-.266.203C.406 0 .531 0 .546 0c.282 0 .985-.031 1.25-.031.282 0 1 .031 1.282.031.078 0 .188 0 .188-.203 0-.11-.079-.11-.282-.11-.359 0-.64 0-.64-.171 0-.063.015-.11.031-.172l.656-2.64H4.22c.906 0 1.078.562 1.078.905 0 .141-.078.454-.14.688-.063.281-.157.64-.157.844C5 .219 6.203.219 6.328.219c.844 0 1.203-1 1.203-1.14 0-.126-.11-.126-.125-.126-.093 0-.11.063-.125.14-.25.735-.687.907-.906.907-.328 0-.406-.219-.406-.61 0-.312.062-.812.11-1.14.015-.14.03-.328.03-.469 0-.765-.671-1.078-.937-1.172zm0 0"/></symbol><symbol id="b" overflow="visible"><path d="M2.328-4.438c0-.187 0-.187-.203-.187-.453.438-1.078.438-1.36.438v.25c.157 0 .626 0 1-.188v3.547c0 .234 0 .328-.687.328H.812V0c.125 0 .985-.031 1.235-.031.219 0 1.094.031 1.25.031v-.25H3.03c-.703 0-.703-.094-.703-.328zm0 0"/></symbol></defs><use y="134.765" x="555.109" xlink:href="#a" width="1052.362" height="744.094"/><use y="136.259" x="562.674" xlink:href="#b" width="1052.362" height="744.094"/></g><g ns0:text="\\begin{flushright}\n$R _{\\rm{2}}$\n\\end{flushright}" ns0:preamble="/home/waldgeist/data/homepage/inkscape-preamble.tex" transform="matrix(3.15938 0 0 3.15938 -1708.997 396.199)"><defs><symbol overflow="visible" id="c"><path d="M3.734-6.125c.063-.234.094-.328.282-.36.093-.015.406-.015.609-.015.703 0 1.813 0 1.813.984 0 .344-.157 1.032-.547 1.422-.266.25-.782.578-1.688.578h-1.11zm1.438 2.734c1.016-.218 2.187-.921 2.187-1.921 0-.86-.89-1.5-2.203-1.5H2.328c-.203 0-.297 0-.297.203 0 .109.094.109.281.109.016 0 .204 0 .376.016.187.03.265.03.265.171 0 .032 0 .063-.031.188L1.578-.781c-.094.39-.11.469-.906.469-.172 0-.266 0-.266.203C.406 0 .531 0 .546 0c.282 0 .985-.031 1.25-.031.282 0 1 .031 1.282.031.078 0 .188 0 .188-.203 0-.11-.079-.11-.282-.11-.359 0-.64 0-.64-.171 0-.063.015-.11.031-.172l.656-2.64H4.22c.906 0 1.078.562 1.078.905 0 .141-.078.454-.14.688-.063.281-.157.64-.157.844C5 .219 6.203.219 6.328.219c.844 0 1.203-1 1.203-1.14 0-.126-.11-.126-.125-.126-.093 0-.11.063-.125.14-.25.735-.687.907-.906.907-.328 0-.406-.219-.406-.61 0-.312.062-.812.11-1.14.015-.14.03-.328.03-.469 0-.765-.671-1.078-.937-1.172zm0 0"/></symbol><symbol overflow="visible" id="d"><path d="M3.516-1.266H3.28c-.015.157-.094.563-.187.625-.047.047-.578.047-.688.047H1.125c.734-.64.984-.844 1.39-1.172.516-.406 1-.843 1-1.5 0-.843-.734-1.359-1.624-1.359-.86 0-1.454.61-1.454 1.25 0 .344.297.39.376.39.156 0 .359-.124.359-.374 0-.125-.047-.375-.406-.375.218-.485.687-.641 1.015-.641.703 0 1.063.547 1.063 1.11 0 .609-.438 1.078-.656 1.328L.516-.266C.437-.203.437-.187.437 0h2.876zm0 0"/></symbol></defs><use height="744.094" width="1052.362" xlink:href="#c" x="661.165" y="83.403"/><use height="744.094" width="1052.362" xlink:href="#d" x="668.729" y="84.898"/></g><path fill="none" stroke="#000" stroke-width="3" stroke-linecap="round" d="M166.289 727.495l-37.113-21.427 52.208-90.427 37.113 21.427zM397.001 706.069l-37.112 21.427-52.208-90.427 37.112-21.427zM263.078 517.79v-41.255M315.298 803.92v42.854H210.882V803.92z"/><circle r="5.35" cy="263.078" cx="-517.79" transform="rotate(-90)" stroke="#000" stroke-width="3.942" stroke-linecap="round"/><g transform="matrix(3.15938 0 0 3.15938 -1844.022 616.948)" ns0:preamble="/home/waldgeist/data/homepage/inkscape-preamble.tex" ns0:text="\\begin{flushright}\n$R _{\\rm{3}}$\n\\end{flushright}"><defs><symbol id="e" overflow="visible"><path d="M3.734-6.125c.063-.234.094-.328.282-.36.093-.015.406-.015.609-.015.703 0 1.813 0 1.813.984 0 .344-.157 1.032-.547 1.422-.266.25-.782.578-1.688.578h-1.11zm1.438 2.734c1.016-.218 2.187-.921 2.187-1.921 0-.86-.89-1.5-2.203-1.5H2.328c-.203 0-.297 0-.297.203 0 .109.094.109.281.109.016 0 .204 0 .376.016.187.03.265.03.265.171 0 .032 0 .063-.031.188L1.578-.781c-.094.39-.11.469-.906.469-.172 0-.266 0-.266.203C.406 0 .531 0 .546 0c.282 0 .985-.031 1.25-.031.282 0 1 .031 1.282.031.078 0 .188 0 .188-.203 0-.11-.079-.11-.282-.11-.359 0-.64 0-.64-.171 0-.063.015-.11.031-.172l.656-2.64H4.22c.906 0 1.078.562 1.078.905 0 .141-.078.454-.14.688-.063.281-.157.64-.157.844C5 .219 6.203.219 6.328.219c.844 0 1.203-1 1.203-1.14 0-.126-.11-.126-.125-.126-.093 0-.11.063-.125.14-.25.735-.687.907-.906.907-.328 0-.406-.219-.406-.61 0-.312.062-.812.11-1.14.015-.14.03-.328.03-.469 0-.765-.671-1.078-.937-1.172zm0 0"/></symbol><symbol id="f" overflow="visible"><path d="M1.906-2.328c.547 0 .938.375.938 1.125 0 .86-.516 1.125-.906 1.125-.282 0-.907-.078-1.188-.5.328 0 .406-.235.406-.39 0-.22-.172-.376-.39-.376a.38.38 0 0 0-.391.407C.375-.281 1.094.14 1.938.14c.968 0 1.64-.657 1.64-1.344 0-.547-.437-1.094-1.203-1.25.719-.266.984-.781.984-1.219 0-.547-.625-.953-1.406-.953-.766 0-1.36.375-1.36.938 0 .234.157.359.36.359.219 0 .36-.156.36-.344 0-.203-.141-.36-.36-.375.25-.297.719-.375.985-.375.312 0 .75.156.75.75 0 .297-.094.625-.282.828-.219.266-.422.281-.765.313-.172.015-.188.015-.22.015-.015 0-.077.016-.077.094 0 .094.062.094.187.094zm0 0"/></symbol></defs><use y="83.403" x="661.165" xlink:href="#e" width="100%" height="100%"/><use y="84.898" x="668.729" xlink:href="#f" width="100%" height="100%"/></g><path d="M210.883 825.347H84.982M441.2 825.347H315.297M84.982 825.347l62.698-108.595M441.2 825.347L378.5 716.75" fill="none" stroke="#000" stroke-width="3" stroke-linecap="round"/><circle transform="rotate(-90)" cx="-825.347" cy="84.982" r="5.35" stroke="#000" stroke-width="3.942" stroke-linecap="round"/><circle r="5.35" cy="441.199" cx="-825.347" transform="rotate(-90)" stroke="#000" stroke-width="3.942" stroke-linecap="round"/><path d="M199.94 626.356l63.138-108.566M326.238 626.356l-63.16-108.566M64.354 861.076l20.628-35.729M461.827 861.076l-20.628-35.729" fill="none" stroke="#000" stroke-width="3" stroke-linecap="round"/></g><path fill="none" stroke="#000" stroke-width="3" stroke-linecap="round" d="M718.964 825.178l-37.113-21.427 52.208-90.427 37.113 21.427zM899.914 803.75L862.8 825.177l-52.208-90.427 37.113-21.427zM790.324 523.48v-35.434M768.91 523.48h42.854v104.416H768.91z"/><circle r="5.35" cy="790.324" cx="-657.301" transform="rotate(-90)" stroke="#000" stroke-width="3.942" stroke-linecap="round"/><path d="M751.79 723.561l38.534-66.26M829.15 724.037l-38.826-66.736M665.654 872.587l33.856-58.641M915.014 872.587L881.43 814.42M790.337 663.33v-35.435" fill="none" stroke="#000" stroke-width="3" stroke-linecap="round"/><g transform="matrix(3.15938 0 0 3.15938 -1270.482 320.364)" ns0:preamble="/home/waldgeist/data/homepage/inkscape-preamble.tex" ns0:text="\\begin{flushright}\n$R _{\\rm{3}}^{*}$\n\\end{flushright}"><defs><symbol id="g" overflow="visible"><path d="M3.734-6.125c.063-.234.094-.328.282-.36.093-.015.406-.015.609-.015.703 0 1.813 0 1.813.984 0 .344-.157 1.032-.547 1.422-.266.25-.782.578-1.688.578h-1.11zm1.438 2.734c1.016-.218 2.187-.921 2.187-1.921 0-.86-.89-1.5-2.203-1.5H2.328c-.203 0-.297 0-.297.203 0 .109.094.109.281.109.016 0 .204 0 .376.016.187.03.265.03.265.171 0 .032 0 .063-.031.188L1.578-.781c-.094.39-.11.469-.906.469-.172 0-.266 0-.266.203C.406 0 .531 0 .546 0c.282 0 .985-.031 1.25-.031.282 0 1 .031 1.282.031.078 0 .188 0 .188-.203 0-.11-.079-.11-.282-.11-.359 0-.64 0-.64-.171 0-.063.015-.11.031-.172l.656-2.64H4.22c.906 0 1.078.562 1.078.905 0 .141-.078.454-.14.688-.063.281-.157.64-.157.844C5 .219 6.203.219 6.328.219c.844 0 1.203-1 1.203-1.14 0-.126-.11-.126-.125-.126-.093 0-.11.063-.125.14-.25.735-.687.907-.906.907-.328 0-.406-.219-.406-.61 0-.312.062-.812.11-1.14.015-.14.03-.328.03-.469 0-.765-.671-1.078-.937-1.172zm0 0"/></symbol><symbol id="h" overflow="visible"><path d="M2.25-1.734c.578-.25.828-.344 1-.438.14-.047.203-.078.203-.219a.223.223 0 0 0-.219-.218c-.046 0-.062 0-.14.062l-.953.64.109-1.03c.016-.126 0-.297-.219-.297-.078 0-.219.046-.219.203 0 .062.032.265.047.344.016.109.063.624.079.78l-.954-.64c-.062-.031-.078-.062-.14-.062-.14 0-.219.109-.219.218 0 .141.078.188.14.204l1.047.453c-.562.25-.828.343-1 .421-.125.063-.187.094-.187.22 0 .124.078.218.219.218.047 0 .062 0 .14-.063l.954-.625-.125 1.11c0 .156.14.219.218.219.094 0 .219-.063.219-.22 0-.062-.031-.265-.031-.327-.016-.125-.063-.625-.078-.781l.828.546c.187.141.203.141.265.141a.214.214 0 0 0 .22-.219c0-.14-.095-.172-.157-.203zm0 0"/></symbol><symbol id="i" overflow="visible"><path d="M1.906-2.328c.547 0 .938.375.938 1.125 0 .86-.516 1.125-.906 1.125-.282 0-.907-.078-1.188-.5.328 0 .406-.235.406-.39 0-.22-.172-.376-.39-.376a.38.38 0 0 0-.391.407C.375-.281 1.094.14 1.938.14c.968 0 1.64-.657 1.64-1.344 0-.547-.437-1.094-1.203-1.25.719-.266.984-.781.984-1.219 0-.547-.625-.953-1.406-.953-.766 0-1.36.375-1.36.938 0 .234.157.359.36.359.219 0 .36-.156.36-.344 0-.203-.141-.36-.36-.375.25-.297.719-.375.985-.375.312 0 .75.156.75.75 0 .297-.094.625-.282.828-.219.266-.422.281-.765.313-.172.015-.188.015-.22.015-.015 0-.077.016-.077.094 0 .094.062.094.187.094zm0 0"/></symbol></defs><use y="83.403" x="660.977" xlink:href="#g"/><use y="79.788" x="668.619" xlink:href="#h"/><use y="85.876" x="668.542" xlink:href="#i"/></g><g ns0:text="\\begin{flushright}\n$R _{\\rm{2}}^{*}$\n\\end{flushright}" ns0:preamble="/home/waldgeist/data/homepage/inkscape-preamble.tex" transform="matrix(3.15938 0 0 3.15938 -1428.635 494.988)"><defs><symbol overflow="visible" id="j"><path d="M3.734-6.125c.063-.234.094-.328.282-.36.093-.015.406-.015.609-.015.703 0 1.813 0 1.813.984 0 .344-.157 1.032-.547 1.422-.266.25-.782.578-1.688.578h-1.11zm1.438 2.734c1.016-.218 2.187-.921 2.187-1.921 0-.86-.89-1.5-2.203-1.5H2.328c-.203 0-.297 0-.297.203 0 .109.094.109.281.109.016 0 .204 0 .376.016.187.03.265.03.265.171 0 .032 0 .063-.031.188L1.578-.781c-.094.39-.11.469-.906.469-.172 0-.266 0-.266.203C.406 0 .531 0 .546 0c.282 0 .985-.031 1.25-.031.282 0 1 .031 1.282.031.078 0 .188 0 .188-.203 0-.11-.079-.11-.282-.11-.359 0-.64 0-.64-.171 0-.063.015-.11.031-.172l.656-2.64H4.22c.906 0 1.078.562 1.078.905 0 .141-.078.454-.14.688-.063.281-.157.64-.157.844C5 .219 6.203.219 6.328.219c.844 0 1.203-1 1.203-1.14 0-.126-.11-.126-.125-.126-.093 0-.11.063-.125.14-.25.735-.687.907-.906.907-.328 0-.406-.219-.406-.61 0-.312.062-.812.11-1.14.015-.14.03-.328.03-.469 0-.765-.671-1.078-.937-1.172zm0 0"/></symbol><symbol overflow="visible" id="k"><path d="M2.25-1.734c.578-.25.828-.344 1-.438.14-.047.203-.078.203-.219a.223.223 0 0 0-.219-.218c-.046 0-.062 0-.14.062l-.953.64.109-1.03c.016-.126 0-.297-.219-.297-.078 0-.219.046-.219.203 0 .062.032.265.047.344.016.109.063.624.079.78l-.954-.64c-.062-.031-.078-.062-.14-.062-.14 0-.219.109-.219.218 0 .141.078.188.14.204l1.047.453c-.562.25-.828.343-1 .421-.125.063-.187.094-.187.22 0 .124.078.218.219.218.047 0 .062 0 .14-.063l.954-.625-.125 1.11c0 .156.14.219.218.219.094 0 .219-.063.219-.22 0-.062-.031-.265-.031-.327-.016-.125-.063-.625-.078-.781l.828.546c.187.141.203.141.265.141a.214.214 0 0 0 .22-.219c0-.14-.095-.172-.157-.203zm0 0"/></symbol><symbol overflow="visible" id="l"><path d="M3.516-1.266H3.28c-.015.157-.094.563-.187.625-.047.047-.578.047-.688.047H1.125c.734-.64.984-.844 1.39-1.172.516-.406 1-.843 1-1.5 0-.843-.734-1.359-1.624-1.359-.86 0-1.454.61-1.454 1.25 0 .344.297.39.376.39.156 0 .359-.124.359-.374 0-.125-.047-.375-.406-.375.218-.485.687-.641 1.015-.641.703 0 1.063.547 1.063 1.11 0 .609-.438 1.078-.656 1.328L.516-.266C.437-.203.437-.187.437 0h2.876zm0 0"/></symbol></defs><use xlink:href="#j" x="660.977" y="83.403"/><use xlink:href="#k" x="668.619" y="79.788"/><use xlink:href="#l" x="668.542" y="85.876"/></g><g transform="matrix(3.15938 0 0 3.15938 -1208.09 494.988)" ns0:preamble="/home/waldgeist/data/homepage/inkscape-preamble.tex" ns0:text="\\begin{flushright}\n$R _{\\rm{1}}^{*}$\n\\end{flushright}"><defs><symbol id="m" overflow="visible"><path d="M3.734-6.125c.063-.234.094-.328.282-.36.093-.015.406-.015.609-.015.703 0 1.813 0 1.813.984 0 .344-.157 1.032-.547 1.422-.266.25-.782.578-1.688.578h-1.11zm1.438 2.734c1.016-.218 2.187-.921 2.187-1.921 0-.86-.89-1.5-2.203-1.5H2.328c-.203 0-.297 0-.297.203 0 .109.094.109.281.109.016 0 .204 0 .376.016.187.03.265.03.265.171 0 .032 0 .063-.031.188L1.578-.781c-.094.39-.11.469-.906.469-.172 0-.266 0-.266.203C.406 0 .531 0 .546 0c.282 0 .985-.031 1.25-.031.282 0 1 .031 1.282.031.078 0 .188 0 .188-.203 0-.11-.079-.11-.282-.11-.359 0-.64 0-.64-.171 0-.063.015-.11.031-.172l.656-2.64H4.22c.906 0 1.078.562 1.078.905 0 .141-.078.454-.14.688-.063.281-.157.64-.157.844C5 .219 6.203.219 6.328.219c.844 0 1.203-1 1.203-1.14 0-.126-.11-.126-.125-.126-.093 0-.11.063-.125.14-.25.735-.687.907-.906.907-.328 0-.406-.219-.406-.61 0-.312.062-.812.11-1.14.015-.14.03-.328.03-.469 0-.765-.671-1.078-.937-1.172zm0 0"/></symbol><symbol id="n" overflow="visible"><path d="M2.25-1.734c.578-.25.828-.344 1-.438.14-.047.203-.078.203-.219a.223.223 0 0 0-.219-.218c-.046 0-.062 0-.14.062l-.953.64.109-1.03c.016-.126 0-.297-.219-.297-.078 0-.219.046-.219.203 0 .062.032.265.047.344.016.109.063.624.079.78l-.954-.64c-.062-.031-.078-.062-.14-.062-.14 0-.219.109-.219.218 0 .141.078.188.14.204l1.047.453c-.562.25-.828.343-1 .421-.125.063-.187.094-.187.22 0 .124.078.218.219.218.047 0 .062 0 .14-.063l.954-.625-.125 1.11c0 .156.14.219.218.219.094 0 .219-.063.219-.22 0-.062-.031-.265-.031-.327-.016-.125-.063-.625-.078-.781l.828.546c.187.141.203.141.265.141a.214.214 0 0 0 .22-.219c0-.14-.095-.172-.157-.203zm0 0"/></symbol><symbol id="o" overflow="visible"><path d="M2.328-4.438c0-.187 0-.187-.203-.187-.453.438-1.078.438-1.36.438v.25c.157 0 .626 0 1-.188v3.547c0 .234 0 .328-.687.328H.812V0c.125 0 .985-.031 1.235-.031.219 0 1.094.031 1.25.031v-.25H3.03c-.703 0-.703-.094-.703-.328zm0 0"/></symbol></defs><use y="83.403" x="660.977" xlink:href="#m" width="100%" height="100%"/><use y="79.788" x="668.619" xlink:href="#n" width="100%" height="100%"/><use y="85.876" x="668.542" xlink:href="#o" width="100%" height="100%"/></g></g></svg>