<svg xmlns:ns0="http://www.iki.fi/pav/software/textext/" xmlns="http://www.w3.org/2000/svg" xmlns:xlink="http://www.w3.org/1999/xlink" width="1052.362" height="744.094"><title>Reihenschaltung von Widerstaenden</title><defs><linearGradient id="d"><stop offset="0" stop-opacity="0"/><stop offset="1" stop-color="#fff"/></linearGradient><linearGradient id="e"><stop offset="0" stop-color="#fff"/><stop offset="1" stop-color="#fff" stop-opacity="0"/></linearGradient><linearGradient id="f"><stop offset="0" stop-color="#1a1a1a" stop-opacity=".828"/><stop offset="1" stop-color="#fff"/></linearGradient><linearGradient id="a"><stop offset="0" stop-opacity="0"/><stop offset="1" stop-color="#fff"/></linearGradient><linearGradient id="b"><stop offset="0" stop-color="#ebebeb"/><stop offset="1" stop-color="#fff" stop-opacity="0"/></linearGradient><linearGradient id="c"><stop offset="0" stop-color="#0e0e0e" stop-opacity=".746"/><stop offset="1" stop-color="#fff"/></linearGradient><pattern patternUnits="userSpaceOnUse" width="30.066" height="5.181" id="g"><path d="M7.597.061C5.079-.187 2.656.302-.01 1.788v1.273c2.783-1.63 5.183-2.009 7.482-1.781 2.298.228 4.497 1.081 6.781 1.938 4.567 1.713 9.551 3.458 15.813-.157l-.004-1.273c-6.44 3.709-10.816 1.982-15.371.273-2.278-.854-4.576-1.75-7.094-2z"/></pattern><pattern patternTransform="translate(.25)" id="h" xlink:href="#g"/><linearGradient id="i"><stop offset="0" stop-color="#858585"/><stop offset="1" stop-color="#cecece"/></linearGradient><linearGradient id="k"><stop offset="0"/><stop offset="1" stop-color="#ddd" stop-opacity=".992"/></linearGradient><linearGradient id="l"><stop offset="0"/><stop offset="1" stop-color="#ddd" stop-opacity=".992"/></linearGradient><linearGradient id="j"><stop offset="0" stop-color="#858585"/><stop offset="1" stop-color="#cecece"/></linearGradient></defs><g transform="translate(0 -308.268)"><rect style="marker:none" width="534" height="366" x="259.181" y="497.315" rx="0" ry="0" color="#000" fill="#fff" stroke="#fff" stroke-linecap="round" stroke-linejoin="bevel" overflow="visible"/><g stroke="#000" stroke-width="3.187"><path d="M530.446 807.264h31.697M491.277 807.264h31.506" fill="none" stroke-linecap="round" stroke-width="1.00011247"/><g stroke-width="3.582" fill="none" stroke-linecap="round"><path d="M893.302 1257.256v-200.939M869.468 1120.08v73.413" transform="matrix(-.31381 0 0 .24842 803.19 519.89)"/></g><g fill="none" stroke-linecap="round" stroke-width=".947"><path d="M501.846 788.075h10.367M507.03 782.305v10.367" stroke-width=".9999562399999999"/></g><path d="M541.11 788.075h10.368" fill="none" stroke-linecap="round" stroke-width="1.00011247"/></g><path d="M398.42 725.018h-48.582M590.528 683.895H534.14M349.838 807.135V560.526M491.277 807.264H349.825M703.595 807.264H562.143M703.582 807.264V560.512" fill="none" stroke="#000" stroke-linecap="round"/><path d="M349.838 641.096a1.677 1.677 0 1 1 0 3.353 1.677 1.677 0 0 1 0-3.353zM349.838 723.342a1.677 1.677 0 1 1 0 3.353 1.677 1.677 0 0 1 0-3.353zM534.141 682.219a1.677 1.677 0 1 1 0 3.353 1.677 1.677 0 0 1 0-3.353zM703.582 682.211a1.677 1.677 0 1 1 0 3.354 1.677 1.677 0 0 1 0-3.354z" stroke="#000" stroke-width="1.0000136999999998" stroke-linecap="round"/><path d="M637.011 683.895h17.912M587.002 683.895h17.912" fill="none" stroke="#000" stroke-width="1.00006025" stroke-linecap="round"/><path style="marker:none" d="M435.827 100.866c0 5.87-6.346 10.63-14.173 10.63-7.828 0-14.174-4.76-14.174-10.63 0-5.87 6.346-10.63 14.174-10.63 7.827 0 14.173 4.76 14.173 10.63z" transform="matrix(-1.13232 0 0 1.50976 1098.41 531.612)" color="#000" fill="none" stroke="#000" stroke-width=".765" stroke-linecap="square" overflow="visible"/><text y="706.065" x="119.253" style="line-height:125%;-inkscape-font-specification:Arial" font-size="66.318" font-weight="400" letter-spacing="0" word-spacing="0" font-family="Arial" transform="matrix(.30077 0 0 .30077 578.443 478.394)"><tspan y="706.065" x="119.253">A</tspan></text><path d="M516.23 725.018h17.911M466.22 725.018h17.912" fill="none" stroke="#000" stroke-width="1.00006025" stroke-linecap="round"/><path transform="matrix(-1.13232 0 0 1.50976 977.628 572.735)" d="M435.827 100.866c0 5.87-6.346 10.63-14.173 10.63-7.828 0-14.174-4.76-14.174-10.63 0-5.87 6.346-10.63 14.174-10.63 7.827 0 14.173 4.76 14.173 10.63z" style="marker:none" color="#000" fill="none" stroke="#000" stroke-width=".765" stroke-linecap="square" overflow="visible"/><text style="line-height:125%;-inkscape-font-specification:Arial" x="119.253" y="706.065" font-size="66.318" font-weight="400" letter-spacing="0" word-spacing="0" font-family="Arial" transform="matrix(.30077 0 0 .30077 457.661 519.517)"><tspan x="119.253" y="706.065">A</tspan></text><path d="M398.42 642.772h-48.582M398.42 560.526h-48.582M703.505 683.895h-48.582" fill="none" stroke="#000" stroke-linecap="round"/><g transform="matrix(1.5003 0 0 1.5003 -19.441 485.644)" ns0:preamble="/home/waldgeist/data/sphinx/inkscape-preamble.tex" ns0:text="$I _{\\rm{1}}$" stroke-width=".667"><defs><symbol id="m" overflow="visible"><path d="M3.734-6.047c.079-.36.11-.453.907-.453.234 0 .312 0 .312-.188 0-.125-.11-.125-.14-.125-.297 0-1.032.032-1.329.032-.296 0-1.015-.032-1.328-.032-.062 0-.187 0-.187.204 0 .109.078.109.281.109.406 0 .688 0 .688.188 0 .046 0 .078-.032.156L1.562-.781c-.093.375-.109.469-.906.469-.234 0-.312 0-.312.203 0 .109.11.109.14.109C.781 0 1.5-.031 1.797-.031c.297 0 1.031.031 1.328.031.078 0 .203 0 .203-.188 0-.124-.078-.124-.297-.124-.187 0-.234 0-.422-.016-.218-.016-.25-.063-.25-.172 0-.078.016-.156.032-.234zm0 0"/></symbol><symbol id="n" overflow="visible"><path d="M2.328-4.438c0-.187 0-.187-.203-.187-.453.438-1.078.438-1.36.438v.25c.157 0 .626 0 1-.188v3.547c0 .234 0 .328-.687.328H.812V0c.125 0 .985-.031 1.235-.031.219 0 1.094.031 1.25.031v-.25H3.03c-.703 0-.703-.094-.703-.328zm0 0"/></symbol></defs><use y="134.765" x="223.432" xlink:href="#m" width="1052.362" height="744.094"/><use y="136.259" x="227.812" xlink:href="#n" width="1052.362" height="744.094"/></g><g ns0:text="$I _{\\rm{2}}$" ns0:preamble="/home/waldgeist/data/sphinx/inkscape-preamble.tex" transform="matrix(1.5003 0 0 1.5003 160 499.256)" stroke-width=".667"><defs><symbol overflow="visible" id="o"><path d="M3.734-6.047c.079-.36.11-.453.907-.453.234 0 .312 0 .312-.188 0-.125-.11-.125-.14-.125-.297 0-1.032.032-1.329.032-.296 0-1.015-.032-1.328-.032-.062 0-.187 0-.187.204 0 .109.078.109.281.109.406 0 .688 0 .688.188 0 .046 0 .078-.032.156L1.562-.781c-.093.375-.109.469-.906.469-.234 0-.312 0-.312.203 0 .109.11.109.14.109C.781 0 1.5-.031 1.797-.031c.297 0 1.031.031 1.328.031.078 0 .203 0 .203-.188 0-.124-.078-.124-.297-.124-.187 0-.234 0-.422-.016-.218-.016-.25-.063-.25-.172 0-.078.016-.156.032-.234zm0 0"/></symbol><symbol overflow="visible" id="p"><path d="M3.516-1.266H3.28c-.015.157-.094.563-.187.625-.047.047-.578.047-.688.047H1.125c.734-.64.984-.844 1.39-1.172.516-.406 1-.843 1-1.5 0-.843-.734-1.359-1.624-1.359-.86 0-1.454.61-1.454 1.25 0 .344.297.39.376.39.156 0 .359-.124.359-.374 0-.125-.047-.375-.406-.375.218-.485.687-.641 1.015-.641.703 0 1.063.547 1.063 1.11 0 .609-.438 1.078-.656 1.328L.516-.266C.437-.203.437-.187.437 0h2.876zm0 0"/></symbol></defs><use xlink:href="#o" x="223.432" y="134.765" width="1052.362" height="744.094"/><use xlink:href="#p" x="227.812" y="136.259" width="1052.362" height="744.094"/></g><g transform="matrix(1.5003 0 0 1.5003 159.246 417.939)" ns0:preamble="/home/waldgeist/data/sphinx/inkscape-preamble.tex" ns0:text="$I _{\\rm{3}}$" stroke-width=".667"><defs><symbol id="q" overflow="visible"><path d="M3.734-6.047c.079-.36.11-.453.907-.453.234 0 .312 0 .312-.188 0-.125-.11-.125-.14-.125-.297 0-1.032.032-1.329.032-.296 0-1.015-.032-1.328-.032-.062 0-.187 0-.187.204 0 .109.078.109.281.109.406 0 .688 0 .688.188 0 .046 0 .078-.032.156L1.562-.781c-.093.375-.109.469-.906.469-.234 0-.312 0-.312.203 0 .109.11.109.14.109C.781 0 1.5-.031 1.797-.031c.297 0 1.031.031 1.328.031.078 0 .203 0 .203-.188 0-.124-.078-.124-.297-.124-.187 0-.234 0-.422-.016-.218-.016-.25-.063-.25-.172 0-.078.016-.156.032-.234zm0 0"/></symbol><symbol id="r" overflow="visible"><path d="M1.906-2.328c.547 0 .938.375.938 1.125 0 .86-.516 1.125-.906 1.125-.282 0-.907-.078-1.188-.5.328 0 .406-.235.406-.39 0-.22-.172-.376-.39-.376a.38.38 0 0 0-.391.407C.375-.281 1.094.14 1.938.14c.968 0 1.64-.657 1.64-1.344 0-.547-.437-1.094-1.203-1.25.719-.266.984-.781.984-1.219 0-.547-.625-.953-1.406-.953-.766 0-1.36.375-1.36.938 0 .234.157.359.36.359.219 0 .36-.156.36-.344 0-.203-.141-.36-.36-.375.25-.297.719-.375.985-.375.312 0 .75.156.75.75 0 .297-.094.625-.282.828-.219.266-.422.281-.765.313-.172.015-.188.015-.22.015-.015 0-.077.016-.077.094 0 .094.062.094.187.094zm0 0"/></symbol></defs><use y="134.765" x="223.432" xlink:href="#q" width="1052.362" height="744.094"/><use y="136.259" x="227.812" xlink:href="#r" width="1052.362" height="744.094"/></g><path transform="matrix(-1.13232 0 0 1.50976 1181.03 595.922)" d="M435.827 100.866c0 5.87-6.346 10.63-14.173 10.63-7.828 0-14.174-4.76-14.174-10.63 0-5.87 6.346-10.63 14.174-10.63 7.827 0 14.173 4.76 14.173 10.63z" style="marker:none" color="#000" fill="#fff" stroke="#000" stroke-width=".765" stroke-linecap="square" overflow="visible"/><text style="line-height:125%;-inkscape-font-specification:Arial" x="119.253" y="706.065" font-size="66.318" font-weight="400" letter-spacing="0" word-spacing="0" font-family="Arial" transform="matrix(.30077 0 0 .30077 661.063 542.704)"><tspan x="119.253" y="706.065">A</tspan></text><path transform="matrix(-1.13032 0 0 1.5071 908.925 573.003)" d="M435.827 100.866c0 5.87-6.346 10.63-14.173 10.63-7.828 0-14.174-4.76-14.174-10.63 0-5.87 6.346-10.63 14.174-10.63 7.827 0 14.173 4.76 14.173 10.63z" style="marker:none" color="#000" fill="none" stroke="#000" stroke-width=".766" stroke-linecap="square" overflow="visible"/><path d="M421.002 736.337l22.637-22.637M443.639 736.337L421.002 713.7" fill="none" stroke="#000" stroke-width="1.00009944"/><path d="M448.34 725.018h17.88M398.42 725.018h17.88" fill="none" stroke="#000" stroke-width="1.00009944" stroke-linecap="round"/><g><path d="M516.23 642.772h17.911M466.22 642.772h17.912" fill="none" stroke="#000" stroke-width="1.00006025" stroke-linecap="round"/><path style="marker:none" d="M435.827 100.866c0 5.87-6.346 10.63-14.173 10.63-7.828 0-14.174-4.76-14.174-10.63 0-5.87 6.346-10.63 14.174-10.63 7.827 0 14.173 4.76 14.173 10.63z" transform="matrix(-1.13232 0 0 1.50976 977.628 490.489)" color="#000" fill="none" stroke="#000" stroke-width=".765" stroke-linecap="square" overflow="visible"/><text y="706.065" x="119.253" style="line-height:125%;-inkscape-font-specification:Arial" font-size="66.318" font-weight="400" letter-spacing="0" word-spacing="0" font-family="Arial" transform="matrix(.30077 0 0 .30077 457.661 437.271)"><tspan y="706.065" x="119.253">A</tspan></text></g><g><path style="marker:none" d="M435.827 100.866c0 5.87-6.346 10.63-14.173 10.63-7.828 0-14.174-4.76-14.174-10.63 0-5.87 6.346-10.63 14.174-10.63 7.827 0 14.173 4.76 14.173 10.63z" transform="matrix(-1.13032 0 0 1.5071 908.925 490.758)" color="#000" fill="none" stroke="#000" stroke-width=".766" stroke-linecap="square" overflow="visible"/><path d="M421.002 654.09l22.637-22.636M443.639 654.09l-22.637-22.636" fill="none" stroke="#000" stroke-width="1.00009944"/><path d="M448.34 642.772h17.88M398.42 642.772h17.88" fill="none" stroke="#000" stroke-width="1.00009944" stroke-linecap="round"/></g><path d="M447.002 560.526H398.42" fill="none" stroke="#000" stroke-linecap="round"/><g><path d="M600.95 560.526h17.912M550.941 560.526h17.912" fill="none" stroke="#000" stroke-width="1.00006025" stroke-linecap="round"/><path style="marker:none" d="M435.827 100.866c0 5.87-6.346 10.63-14.173 10.63-7.828 0-14.174-4.76-14.174-10.63 0-5.87 6.346-10.63 14.174-10.63 7.827 0 14.173 4.76 14.173 10.63z" transform="matrix(-1.13232 0 0 1.50976 1062.348 408.243)" color="#000" fill="none" stroke="#000" stroke-width=".765" stroke-linecap="square" overflow="visible"/><text y="706.065" x="119.253" style="line-height:125%;-inkscape-font-specification:Arial" font-size="66.318" font-weight="400" letter-spacing="0" word-spacing="0" font-family="Arial" transform="matrix(.30077 0 0 .30077 542.382 355.025)"><tspan y="706.065" x="119.253">A</tspan></text><g><path style="marker:none" d="M435.827 100.866c0 5.87-6.346 10.63-14.173 10.63-7.828 0-14.174-4.76-14.174-10.63 0-5.87 6.346-10.63 14.174-10.63 7.827 0 14.173 4.76 14.173 10.63z" transform="matrix(-1.13032 0 0 1.5071 945.064 408.512)" color="#000" fill="none" stroke="#000" stroke-width=".766" stroke-linecap="square" overflow="visible"/><path d="M457.14 571.845l22.637-22.637M479.777 571.845l-22.637-22.637" fill="none" stroke="#000" stroke-width="1.00009944"/><path d="M484.48 560.526h17.88M434.558 560.526h17.88" fill="none" stroke="#000" stroke-width="1.00009944" stroke-linecap="round"/></g></g><path d="M534.141 725.018v-82.246M550.941 560.526H502.36M703.582 560.526h-84.72" fill="none" stroke="#000" stroke-linecap="round"/><g><path style="marker:none" d="M435.827 100.866c0 5.87-6.346 10.63-14.173 10.63-7.828 0-14.174-4.76-14.174-10.63 0-5.87 6.346-10.63 14.174-10.63 7.827 0 14.173 4.76 14.173 10.63z" transform="matrix(-1.13232 0 0 1.50976 827.285 531.612)" color="#000" fill="#fff" stroke="#000" stroke-width=".765" stroke-linecap="square" overflow="visible"/><text y="706.065" x="119.253" style="line-height:125%;-inkscape-font-specification:Arial" font-size="66.318" font-weight="400" letter-spacing="0" word-spacing="0" font-family="Arial" transform="matrix(.30077 0 0 .30077 307.318 478.394)"><tspan y="706.065" x="119.253">A</tspan></text></g><g transform="matrix(1.5003 0 0 1.5003 280.379 459.175)" ns0:preamble="/home/waldgeist/data/sphinx/inkscape-preamble.tex" ns0:text="$I _{\\rm{4}}$" stroke-width=".667"><defs><symbol id="s" overflow="visible"><path d="M3.734-6.047c.079-.36.11-.453.907-.453.234 0 .312 0 .312-.188 0-.125-.11-.125-.14-.125-.297 0-1.032.032-1.329.032-.296 0-1.015-.032-1.328-.032-.062 0-.187 0-.187.204 0 .109.078.109.281.109.406 0 .688 0 .688.188 0 .046 0 .078-.032.156L1.562-.781c-.093.375-.109.469-.906.469-.234 0-.312 0-.312.203 0 .109.11.109.14.109C.781 0 1.5-.031 1.797-.031c.297 0 1.031.031 1.328.031.078 0 .203 0 .203-.188 0-.124-.078-.124-.297-.124-.187 0-.234 0-.422-.016-.218-.016-.25-.063-.25-.172 0-.078.016-.156.032-.234zm0 0"/></symbol><symbol id="t" overflow="visible"><path d="M3.688-1.14v-.25h-.782V-4.5c0-.14 0-.203-.14-.203-.094 0-.125 0-.188.11L.266-1.392v.25h2.062v.563c0 .25 0 .328-.578.328h-.188V0c.36-.016.797-.031 1.047-.031.266 0 .704.015 1.063.031v-.25h-.188c-.578 0-.578-.078-.578-.328v-.563zM2.375-3.939v2.547H.531zm0 0"/></symbol></defs><use height="744.094" width="1052.362" y="134.765" x="223.432" xlink:href="#s"/><use height="744.094" width="1052.362" y="136.259" x="227.812" xlink:href="#t"/></g><g ns0:text="$I _{\\rm{5}}$" ns0:preamble="/home/waldgeist/data/sphinx/inkscape-preamble.tex" transform="matrix(1.5003 0 0 1.5003 245.246 335.939)" stroke-width=".667"><defs><symbol overflow="visible" id="u"><path d="M3.734-6.047c.079-.36.11-.453.907-.453.234 0 .312 0 .312-.188 0-.125-.11-.125-.14-.125-.297 0-1.032.032-1.329.032-.296 0-1.015-.032-1.328-.032-.062 0-.187 0-.187.204 0 .109.078.109.281.109.406 0 .688 0 .688.188 0 .046 0 .078-.032.156L1.562-.781c-.093.375-.109.469-.906.469-.234 0-.312 0-.312.203 0 .109.11.109.14.109C.781 0 1.5-.031 1.797-.031c.297 0 1.031.031 1.328.031.078 0 .203 0 .203-.188 0-.124-.078-.124-.297-.124-.187 0-.234 0-.422-.016-.218-.016-.25-.063-.25-.172 0-.078.016-.156.032-.234zm0 0"/></symbol><symbol overflow="visible" id="v"><path d="M1.078-3.89c.36.093.563.093.672.093.922 0 1.469-.625 1.469-.734 0-.078-.047-.094-.078-.094-.016 0-.032 0-.063.016-.172.062-.531.203-1.047.203-.203 0-.562-.016-1.015-.188-.079-.031-.094-.031-.094-.031-.094 0-.094.078-.094.188v2.046c0 .125 0 .204.11.204.062 0 .078 0 .14-.094.297-.375.734-.438.969-.438.422 0 .61.328.64.39.126.235.172.5.172.907 0 .203 0 .61-.218.922a.984.984 0 0 1-.813.422c-.453 0-.922-.25-1.094-.719.266.016.407-.156.407-.344 0-.296-.266-.343-.36-.343 0 0-.344 0-.344.375 0 .625.579 1.25 1.407 1.25.89 0 1.672-.657 1.672-1.547 0-.782-.594-1.5-1.454-1.5-.312 0-.671.062-.984.328zm0 0"/></symbol></defs><use xlink:href="#u" x="223.432" y="134.765" width="1052.362" height="744.094"/><use xlink:href="#v" x="227.812" y="136.259" width="1052.362" height="744.094"/></g><g transform="matrix(1.5003 0 0 1.5003 388.917 549.9)" ns0:preamble="/home/waldgeist/data/sphinx/inkscape-preamble.tex" ns0:text="$I _{\\rm{6}}$" stroke-width=".667"><defs><symbol id="w" overflow="visible"><path d="M3.734-6.047c.079-.36.11-.453.907-.453.234 0 .312 0 .312-.188 0-.125-.11-.125-.14-.125-.297 0-1.032.032-1.329.032-.296 0-1.015-.032-1.328-.032-.062 0-.187 0-.187.204 0 .109.078.109.281.109.406 0 .688 0 .688.188 0 .046 0 .078-.032.156L1.562-.781c-.093.375-.109.469-.906.469-.234 0-.312 0-.312.203 0 .109.11.109.14.109C.781 0 1.5-.031 1.797-.031c.297 0 1.031.031 1.328.031.078 0 .203 0 .203-.188 0-.124-.078-.124-.297-.124-.187 0-.234 0-.422-.016-.218-.016-.25-.063-.25-.172 0-.078.016-.156.032-.234zm0 0"/></symbol><symbol id="x" overflow="visible"><path d="M1.047-2.281c0-.563.047-1.078.312-1.516.235-.375.61-.625 1.063-.625.203 0 .484.047.625.234-.172.016-.328.141-.328.344a.32.32 0 0 0 .328.328c.219 0 .344-.14.344-.343 0-.407-.297-.766-.985-.766-1 0-2.031.922-2.031 2.422C.375-.406 1.219.14 2 .14c.844 0 1.578-.657 1.578-1.563 0-.89-.703-1.547-1.515-1.547-.563 0-.86.375-1.016.688zM2-.078c-.36 0-.625-.203-.781-.516-.094-.203-.157-.562-.157-.969 0-.687.407-1.203.97-1.203.312 0 .53.125.702.375.172.266.172.563.172.97 0 .39 0 .687-.187.968A.815.815 0 0 1 2-.078zm0 0"/></symbol></defs><use y="134.765" x="223.432" xlink:href="#w" width="1052.362" height="744.094"/><use y="136.259" x="227.812" xlink:href="#x" width="1052.362" height="744.094"/></g></g></svg>