<svg xmlns:ns0="http://www.iki.fi/pav/software/textext/" xmlns="http://www.w3.org/2000/svg" xmlns:xlink="http://www.w3.org/1999/xlink" width="1052.362" height="1488.189"><title>Emitterschaltung</title><defs><marker orient="auto" id="a" overflow="visible"><path d="M2.308 0l-3.46 2v-4l3.46 2z" fill-rule="evenodd" stroke="#000" stroke-width=".4pt"/></marker></defs><g ns0:text="$R _{\\rm{1}}$"><use y="134.765" x="223.432" xlink:href="#textext-09109483-0" width="1052.362" height="744.094" transform="translate(-541.591 484.046) scale(4.71008)"/><use y="136.259" x="230.997" xlink:href="#textext-09109483-1" width="1052.362" height="744.094" transform="translate(-541.591 484.046) scale(4.71008)"/></g><g><path style="marker:none" color="#000" fill="#fff" stroke="#fff" stroke-linecap="round" stroke-linejoin="round" overflow="visible" d="M13.296 244.086h1025.77v1000.018H13.296z"/><g stroke="#000" stroke-width="1.562" fill="none" stroke-linecap="round"><path d="M73.112 921.76l30.398-.14M73.112 921.76h98.084" transform="matrix(3.68761 0 0 1 -28.235 -591.63)"/></g><path d="M119.568 983.155H240.58" fill="none" stroke="#000" stroke-width="1.891" stroke-linecap="round" transform="matrix(0 -2.51767 1 0 -741.78 935.83)"/><path d="M119.568 983.155h122.911" fill="none" stroke="#000" stroke-width="1.917" stroke-linecap="round" transform="matrix(0 2.44887 1 0 -741.78 564.261)"/><g fill="none" stroke="#000" stroke-width="2.171" stroke-linecap="round"><path d="M129.568 921.26h60.911M-96.255 921.26h225.823" transform="matrix(-1.91016 0 0 1 605.36 236.924)"/></g><path d="M129.568 985.26h87.924" fill="none" stroke="#000" stroke-width="3.24" stroke-linecap="round" transform="matrix(0 -.85717 -1 0 1774.69 912.336)"/><path d="M241.374 756.06v101.008M241.374 631.245V731.64" fill="none" stroke="#000" stroke-width="3" stroke-linecap="round"/><g fill="none" stroke="#000" stroke-width="3.372" stroke-linecap="round"><path d="M893.302 1257.256v-200.939M869.468 1120.08v73.413" transform="matrix(0 -1 .79163 0 -674.377 1625.193)"/></g><g fill="none" stroke="#000" stroke-linecap="round" stroke-width=".892"><path d="M180.225 664.925v33.036M161.839 681.443h33.035" stroke-width="3.00141052"/></g><path d="M180.225 790.046v33.036" fill="none" stroke="#000" stroke-width="3" stroke-linecap="round"/><g transform="rotate(90 741.02 714.499)" stroke-width="3"><path d="M748.13 665.654l-69.359 39.23v-78.46l69.36 39.23z" fill="none" stroke="#000" stroke-linecap="square"/><path d="M752.431 627.443v76.422" fill="none" stroke="#000" stroke-linecap="round"/><path d="M695.75 614.612l45.47-45.47" id="b" fill="none" stroke="#000" stroke-linecap="round" marker-end="url(#a)"/><use xlink:href="#b" transform="translate(20.75 11.75)" width="744.094" height="1052.362" stroke-linecap="round"/></g><path d="M789.865 576.902v75.348" fill="none" stroke-width="3" stroke-linecap="round" stroke="#000"/><g stroke="#000" stroke-linecap="round"><g stroke-width=".891" fill="none"><path d="M608.854 335.462l-.297 62.231M608.418 563.543l.14-60.552-35.915-105.298" stroke-width="2.9986872300000003"/></g><path d="M608.557 497.64a5.35 5.35 0 1 1 0 10.701 5.35 5.35 0 0 1 0-10.7z" stroke-width="3.9423000000000004"/></g><path d="M608.418 335.48a5.35 5.35 0 1 1 0-10.701 5.35 5.35 0 1 1 0 10.7z" stroke="#000" stroke-width="3.9423000000000004" stroke-linecap="round"/><g fill="none" stroke="#000" stroke-width="3" stroke-linecap="round"><path d="M789.865 381.832V330.13M819.286 525.199h-58.84V381.832h58.84zM789.865 576.902V525.2"/></g><g stroke="#000" stroke-width="2.174" fill="none" stroke-linecap="round"><path d="M73.112 921.76l30.398-.14M73.112 921.76h98.084" transform="matrix(1.9043 0 0 1 463.858 -591.195)"/></g><g fill="none" stroke="#000" stroke-width="3" stroke-linecap="round"><path d="M608.418 615.246v-51.703M637.839 758.612h-58.84V615.245h58.84zM608.418 810.316v-51.703"/></g><g fill="none" stroke="#000"><g stroke-width="1.639"><path transform="matrix(-3.76475 0 0 5.01966 2350.17 361.659)" d="M435.827 100.866c0 5.87-6.346 10.63-14.173 10.63-7.828 0-14.174-4.76-14.174-10.63 0-5.87 6.346-10.63 14.174-10.63 7.827 0 14.173 4.76 14.173 10.63z" style="marker:none" color="#000" stroke-width=".69" stroke-linecap="square" overflow="visible"/><path d="M749.411 867.973h-53.358M749.411 894.653v-53.36M749.711 854.326l39.719-26.372v-26.68" stroke-width="3.00050575" stroke-linecap="round"/><path d="M749.248 881.15l40.182 26.842v26.68" stroke-width="3.00050575" stroke-linecap="round" stroke-linejoin="round"/></g><path d="M241.162 980.596l34.74 23.207" stroke-width="3.019" marker-end="url(#a)" transform="translate(508.096 -99.437)"/></g><g fill="none" stroke="#000" stroke-width="6.69" stroke-linecap="round"><path d="M129.568 921.26h60.911M-96.255 921.26h225.823" transform="matrix(0 -.20108 1 0 -312.842 848.618)"/></g><path d="M129.568 985.26h87.924" fill="none" stroke="#000" stroke-width="1.882" stroke-linecap="round" transform="matrix(0 -2.54211 -1 0 1774.69 1487.56)"/><g><path d="M129.568 985.26h87.924" fill="none" stroke="#000" stroke-width="3.005" stroke-linecap="round" transform="matrix(.9967 0 0 -1 479.277 1853.233)"/></g><g transform="translate(-367.67 64.7) scale(4.71008)" ns0:text="$D _{\\rm{1}}$"><defs><symbol id="c" overflow="visible"><path d="M1.578-.781c-.094.39-.11.469-.906.469-.156 0-.266 0-.266.187C.406 0 .484 0 .672 0h3.312c2.063 0 4.032-2.11 4.032-4.281 0-1.407-.844-2.532-2.344-2.532H2.328c-.187 0-.297 0-.297.188 0 .125.078.125.281.125.126 0 .313.016.422.016.172.03.22.046.22.171 0 .032 0 .063-.032.188zm2.156-5.344c.094-.344.11-.375.547-.375h1.063c.968 0 1.797.531 1.797 1.844 0 .484-.188 2.125-1.047 3.218A2.919 2.919 0 0 1 3.797-.313H2.453c-.094-.015-.125-.03-.125-.109 0-.031 0-.047.047-.219zm0 0"/></symbol><symbol id="d" overflow="visible"><path d="M2.328-4.438c0-.187 0-.187-.203-.187-.453.438-1.078.438-1.36.438v.25c.157 0 .626 0 1-.188v3.547c0 .234 0 .328-.687.328H.812V0c.125 0 .985-.031 1.235-.031.219 0 1.094.031 1.25.031v-.25H3.03c-.703 0-.703-.094-.703-.328zm0 0"/></symbol></defs><use y="134.765" x="223.432" xlink:href="#c" width="1052.362" height="744.094"/><use y="136.259" x="231.68" xlink:href="#d" width="1052.362" height="744.094"/></g><g ns0:text="$T _{\\rm{1}}$" transform="translate(-217.94 245.597) scale(4.71008)"><defs><symbol overflow="visible" id="e"><path d="M4.25-6.047c.078-.281.11-.344.234-.375.094-.016.422-.016.625-.016 1.016 0 1.454.032 1.454.813 0 .156-.032.547-.079.797 0 .047-.03.156-.03.187 0 .063.03.141.124.141.11 0 .125-.078.156-.234L7-6.47c.016-.047.016-.14.016-.172 0-.109-.094-.109-.266-.109H1.219c-.235 0-.25.016-.328.203l-.594 1.75c0 .016-.063.156-.063.188 0 .046.063.109.125.109.094 0 .11-.063.172-.219.531-1.547.797-1.718 2.266-1.718h.39c.282 0 .282.03.282.125a.775.775 0 0 1-.047.203L2.094-.781C2-.421 1.969-.312.906-.312c-.36 0-.422 0-.422.187C.484 0 .594 0 .656 0c.266 0 .547-.016.813-.016.281 0 .578-.015.86-.015.28 0 .546.015.827.015.281 0 .578.016.86.016.093 0 .218 0 .218-.203 0-.11-.078-.11-.343-.11-.235 0-.375 0-.625-.015-.297-.031-.375-.063-.375-.219 0-.015 0-.062.046-.203zm0 0"/></symbol><symbol overflow="visible" id="f"><path d="M2.328-4.438c0-.187 0-.187-.203-.187-.453.438-1.078.438-1.36.438v.25c.157 0 .626 0 1-.188v3.547c0 .234 0 .328-.687.328H.812V0c.125 0 .985-.031 1.235-.031.219 0 1.094.031 1.25.031v-.25H3.03c-.703 0-.703-.094-.703-.328zm0 0"/></symbol></defs><use height="744.094" width="1052.362" xlink:href="#e" x="223.432" y="134.765"/><use height="744.094" width="1052.362" xlink:href="#f" x="229.254" y="136.259"/></g><g transform="translate(-546.281 -168.713) scale(4.71008)" ns0:text="$S _{\\rm{1}}$"><defs><symbol id="g" overflow="visible"><path d="M6.438-6.922a.12.12 0 0 0-.125-.11c-.047 0-.047.016-.172.157l-.485.563c-.25-.47-.765-.72-1.422-.72-1.265 0-2.453 1.157-2.453 2.36 0 .797.516 1.266 1.032 1.406l1.062.282c.375.093.922.25.922 1.062 0 .89-.813 1.828-1.797 1.828-.64 0-1.75-.218-1.75-1.453 0-.234.063-.484.063-.531.015-.047.015-.063.015-.078 0-.094-.062-.11-.11-.11a.142.142 0 0 0-.109.047C1.08-2.188.516.094.516.125c0 .047.046.094.109.094.047 0 .063-.016.188-.157L1.296-.5c.422.578 1.11.719 1.687.719 1.36 0 2.532-1.328 2.532-2.563 0-.687-.344-1.031-.485-1.172-.234-.218-.39-.265-1.265-.484-.235-.063-.579-.172-.672-.188a.928.928 0 0 1-.61-.906c0-.812.797-1.656 1.75-1.656.813 0 1.422.438 1.422 1.547 0 .312-.031.5-.031.562 0 0 0 .094.11.094.109 0 .124-.031.156-.203zm0 0"/></symbol><symbol id="h" overflow="visible"><path d="M2.328-4.438c0-.187 0-.187-.203-.187-.453.438-1.078.438-1.36.438v.25c.157 0 .626 0 1-.188v3.547c0 .234 0 .328-.687.328H.812V0c.125 0 .985-.031 1.235-.031.219 0 1.094.031 1.25.031v-.25H3.03c-.703 0-.703-.094-.703-.328zm0 0"/></symbol></defs><use y="134.765" x="223.432" xlink:href="#g" width="1052.362" height="744.094"/><use y="136.259" x="229.541" xlink:href="#h" width="1052.362" height="744.094"/></g><g fill="none" stroke="#000" stroke-width="3" stroke-linecap="round"><path d="M608.418 939.234v-51.703M637.839 1082.6h-58.84V939.235h58.84zM608.418 1138.502v-55.901"/></g><g fill="none" stroke="#000" stroke-width="6.69" stroke-linecap="round"><path d="M129.568 921.26h60.911M32.307 921.26h97.26" transform="matrix(0 -.20108 1 0 -312.842 894.027)"/></g><path d="M608.418 1152.71a5.35 5.35 0 1 1 0 10.7 5.35 5.35 0 1 1 0-10.7zM608.418 862.623a5.35 5.35 0 1 1 0 10.7 5.35 5.35 0 1 1 0-10.7z" stroke="#000" stroke-width="3.9423000000000004" stroke-linecap="round"/><path d="M608.418 1158.06v-19.558" fill="none" stroke="#000" stroke-width="3" stroke-linecap="round"/><g ns0:text="$R _{\\rm{1}}$" transform="translate(-217.94 -168.713) scale(4.71008)"><defs><symbol overflow="visible" id="i"><path d="M3.734-6.125c.063-.234.094-.328.282-.36.093-.015.406-.015.609-.015.703 0 1.813 0 1.813.984 0 .344-.157 1.032-.547 1.422-.266.25-.782.578-1.688.578h-1.11zm1.438 2.734c1.016-.218 2.187-.921 2.187-1.921 0-.86-.89-1.5-2.203-1.5H2.328c-.203 0-.297 0-.297.203 0 .109.094.109.281.109.016 0 .204 0 .376.016.187.03.265.03.265.171 0 .032 0 .063-.031.188L1.578-.781c-.094.39-.11.469-.906.469-.172 0-.266 0-.266.203C.406 0 .531 0 .546 0c.282 0 .985-.031 1.25-.031.282 0 1 .031 1.282.031.078 0 .188 0 .188-.203 0-.11-.079-.11-.282-.11-.359 0-.64 0-.64-.171 0-.063.015-.11.031-.172l.656-2.64H4.22c.906 0 1.078.562 1.078.905 0 .141-.078.454-.14.688-.063.281-.157.64-.157.844C5 .219 6.203.219 6.328.219c.844 0 1.203-1 1.203-1.14 0-.126-.11-.126-.125-.126-.093 0-.11.063-.125.14-.25.735-.687.907-.906.907-.328 0-.406-.219-.406-.61 0-.312.062-.812.11-1.14.015-.14.03-.328.03-.469 0-.765-.671-1.078-.937-1.172zm0 0"/></symbol><symbol overflow="visible" id="j"><path d="M2.328-4.438c0-.187 0-.187-.203-.187-.453.438-1.078.438-1.36.438v.25c.157 0 .626 0 1-.188v3.547c0 .234 0 .328-.687.328H.812V0c.125 0 .985-.031 1.235-.031.219 0 1.094.031 1.25.031v-.25H3.03c-.703 0-.703-.094-.703-.328zm0 0"/></symbol></defs><use xlink:href="#i" x="223.432" y="134.765" width="1052.362" height="1488.189"/><use xlink:href="#j" x="230.997" y="136.259" width="1052.362" height="1488.189"/></g><g transform="translate(-541.189 64.7) scale(4.71008)" ns0:text="$R _{\\rm{2}}$"><defs><symbol id="k" overflow="visible"><path d="M3.734-6.125c.063-.234.094-.328.282-.36.093-.015.406-.015.609-.015.703 0 1.813 0 1.813.984 0 .344-.157 1.032-.547 1.422-.266.25-.782.578-1.688.578h-1.11zm1.438 2.734c1.016-.218 2.187-.921 2.187-1.921 0-.86-.89-1.5-2.203-1.5H2.328c-.203 0-.297 0-.297.203 0 .109.094.109.281.109.016 0 .204 0 .376.016.187.03.265.03.265.171 0 .032 0 .063-.031.188L1.578-.781c-.094.39-.11.469-.906.469-.172 0-.266 0-.266.203C.406 0 .531 0 .546 0c.282 0 .985-.031 1.25-.031.282 0 1 .031 1.282.031.078 0 .188 0 .188-.203 0-.11-.079-.11-.282-.11-.359 0-.64 0-.64-.171 0-.063.015-.11.031-.172l.656-2.64H4.22c.906 0 1.078.562 1.078.905 0 .141-.078.454-.14.688-.063.281-.157.64-.157.844C5 .219 6.203.219 6.328.219c.844 0 1.203-1 1.203-1.14 0-.126-.11-.126-.125-.126-.093 0-.11.063-.125.14-.25.735-.687.907-.906.907-.328 0-.406-.219-.406-.61 0-.312.062-.812.11-1.14.015-.14.03-.328.03-.469 0-.765-.671-1.078-.937-1.172zm0 0"/></symbol><symbol id="l" overflow="visible"><path d="M3.516-1.266H3.28c-.015.157-.094.563-.187.625-.047.047-.578.047-.688.047H1.125c.734-.64.984-.844 1.39-1.172.516-.406 1-.843 1-1.5 0-.843-.734-1.359-1.624-1.359-.86 0-1.454.61-1.454 1.25 0 .344.297.39.376.39.156 0 .359-.124.359-.374 0-.125-.047-.375-.406-.375.218-.485.687-.641 1.015-.641.703 0 1.063.547 1.063 1.11 0 .609-.438 1.078-.656 1.328L.516-.266C.437-.203.437-.187.437 0h2.876zm0 0"/></symbol></defs><use y="134.765" x="223.432" xlink:href="#k" width="1052.362" height="1488.189"/><use y="136.259" x="230.997" xlink:href="#l" width="1052.362" height="1488.189"/></g><g ns0:text="$R _{\\rm{3}}$" transform="translate(-541.189 390.456) scale(4.71008)"><defs><symbol overflow="visible" id="m"><path d="M3.734-6.125c.063-.234.094-.328.282-.36.093-.015.406-.015.609-.015.703 0 1.813 0 1.813.984 0 .344-.157 1.032-.547 1.422-.266.25-.782.578-1.688.578h-1.11zm1.438 2.734c1.016-.218 2.187-.921 2.187-1.921 0-.86-.89-1.5-2.203-1.5H2.328c-.203 0-.297 0-.297.203 0 .109.094.109.281.109.016 0 .204 0 .376.016.187.03.265.03.265.171 0 .032 0 .063-.031.188L1.578-.781c-.094.39-.11.469-.906.469-.172 0-.266 0-.266.203C.406 0 .531 0 .546 0c.282 0 .985-.031 1.25-.031.282 0 1 .031 1.282.031.078 0 .188 0 .188-.203 0-.11-.079-.11-.282-.11-.359 0-.64 0-.64-.171 0-.063.015-.11.031-.172l.656-2.64H4.22c.906 0 1.078.562 1.078.905 0 .141-.078.454-.14.688-.063.281-.157.64-.157.844C5 .219 6.203.219 6.328.219c.844 0 1.203-1 1.203-1.14 0-.126-.11-.126-.125-.126-.093 0-.11.063-.125.14-.25.735-.687.907-.906.907-.328 0-.406-.219-.406-.61 0-.312.062-.812.11-1.14.015-.14.03-.328.03-.469 0-.765-.671-1.078-.937-1.172zm0 0"/></symbol><symbol overflow="visible" id="n"><path d="M1.906-2.328c.547 0 .938.375.938 1.125 0 .86-.516 1.125-.906 1.125-.282 0-.907-.078-1.188-.5.328 0 .406-.235.406-.39 0-.22-.172-.376-.39-.376a.38.38 0 0 0-.391.407C.375-.281 1.094.14 1.938.14c.968 0 1.64-.657 1.64-1.344 0-.547-.437-1.094-1.203-1.25.719-.266.984-.781.984-1.219 0-.547-.625-.953-1.406-.953-.766 0-1.36.375-1.36.938 0 .234.157.359.36.359.219 0 .36-.156.36-.344 0-.203-.141-.36-.36-.375.25-.297.719-.375.985-.375.312 0 .75.156.75.75 0 .297-.094.625-.282.828-.219.266-.422.281-.765.313-.172.015-.188.015-.22.015-.015 0-.077.016-.077.094 0 .094.062.094.187.094zm0 0"/></symbol></defs><use height="1488.189" width="1052.362" xlink:href="#m" x="223.432" y="134.765"/><use height="1488.189" width="1052.362" xlink:href="#n" x="230.997" y="136.259"/></g><path d="M404.411 1158.184V330.129" fill="none" stroke="#000"/></g></svg>