<svg xmlns:ns0="http://www.iki.fi/pav/software/textext/" xmlns="http://www.w3.org/2000/svg" xmlns:xlink="http://www.w3.org/1999/xlink" width="1052.362" height="1488.189"><title>Kollektorschaltung</title><defs><marker orient="auto" id="a" overflow="visible"><path d="M2.308 0l-3.46 2v-4l3.46 2z" fill-rule="evenodd" stroke="#000" stroke-width=".4pt"/></marker></defs><g ns0:text="$R _{\\rm{1}}$"><use y="134.765" x="223.432" xlink:href="#textext-09109483-0" width="1052.362" height="744.094" transform="translate(-541.591 484.046) scale(4.71008)"/><use y="136.259" x="230.997" xlink:href="#textext-09109483-1" width="1052.362" height="744.094" transform="translate(-541.591 484.046) scale(4.71008)"/></g><g><path style="marker:none" color="#000" fill="#fff" stroke="#fff" stroke-linecap="round" stroke-linejoin="round" overflow="visible" d="M13.296 244.086h1025.77v1000.018H13.296z"/><g stroke="#000" stroke-width="3.564" fill="none" stroke-linecap="round"><path d="M73.112 921.76l30.398-.14M73.112 921.76h98.084" transform="matrix(.7084 0 0 1 189.582 -591.63)"/></g><path d="M119.568 983.155H240.58" fill="none" stroke="#000" stroke-width="1.903" stroke-linecap="round" transform="matrix(0 -2.48428 1 0 -741.78 927.798)"/><path d="M119.568 983.155h122.911" fill="none" stroke="#000" stroke-width="1.918" stroke-linecap="round" transform="matrix(0 2.4472 1 0 -741.78 564.461)"/><g fill="none" stroke="#000" stroke-width="2.171" stroke-linecap="round"><path d="M129.568 921.26h60.911M-96.255 921.26h225.823" transform="matrix(-1.91016 0 0 1 605.36 236.924)"/></g><path d="M129.568 985.26h87.924" fill="none" stroke="#000" stroke-width="2.099" stroke-linecap="round" transform="matrix(0 -2.04313 -1 0 1774.69 774.928)"/><path d="M241.374 756.06v101.008M241.374 631.245V731.64" fill="none" stroke="#000" stroke-width="3" stroke-linecap="round"/><g fill="none" stroke="#000" stroke-width="3.372" stroke-linecap="round"><path d="M893.302 1257.256v-200.939M869.468 1120.08v73.413" transform="matrix(0 -1 .79163 0 -674.377 1625.193)"/></g><g fill="none" stroke="#000" stroke-linecap="round" stroke-width=".892"><path d="M180.225 664.925v33.036M161.839 681.443h33.035" stroke-width="3.00141052"/></g><path d="M180.225 790.046v33.036" fill="none" stroke="#000" stroke-width="3" stroke-linecap="round"/><g stroke="#000" stroke-linecap="round"><g stroke-width=".891" fill="none"><path d="M538.936 330.565l-62.231-.297M310.856 330.13l60.551.138 105.298-35.914" stroke-width="2.9986872300000003"/></g><path d="M376.758 330.268a5.35 5.35 0 1 1-10.7 0 5.35 5.35 0 0 1 10.7 0z" stroke-width="3.9423000000000004"/></g><path d="M608.418 335.48a5.35 5.35 0 1 1 0-10.701 5.35 5.35 0 1 1 0 10.7z" stroke="#000" stroke-width="3.9423000000000004" stroke-linecap="round"/><g stroke="#000" stroke-width="1.877" fill="none" stroke-linecap="round"><path d="M73.112 921.76l30.398-.14M73.112 921.76h98.084" transform="matrix(2.55388 0 0 1 352.217 -591.195)"/></g><g fill="none" stroke="#000" stroke-width="3" stroke-linecap="round"><path d="M608.418 381.832V330.13M637.839 525.199h-58.84V381.832h58.84zM608.418 576.902V525.2"/></g><g fill="none" stroke="#000"><g stroke-width="1.639"><path style="marker:none" d="M435.827 100.866c0 5.87-6.346 10.63-14.173 10.63-7.828 0-14.174-4.76-14.174-10.63 0-5.87 6.346-10.63 14.174-10.63 7.827 0 14.173 4.76 14.173 10.63z" transform="matrix(-3.76475 0 0 5.01966 2350.17 70.588)" color="#000" stroke-width=".69" stroke-linecap="square" overflow="visible"/><path d="M749.411 576.902h-53.358M749.411 603.582v-53.359M749.711 563.255l39.719-26.372v-26.679" stroke-width="3.00050575" stroke-linecap="round"/><path d="M749.248 590.079l40.182 26.842v26.68" stroke-width="3.00050575" stroke-linecap="round" stroke-linejoin="round"/></g><path d="M241.162 980.596l34.74 23.207" stroke-width="3.019" marker-end="url(#a)" transform="translate(508.096 -390.508)"/></g><g fill="none" stroke="#000" stroke-width="4.992" stroke-linecap="round"><path d="M129.568 921.26h60.911M-96.255 921.26h225.823" transform="matrix(0 -.36112 1 0 -312.842 651.04)"/></g><path d="M129.568 985.26h87.924" fill="none" stroke="#000" stroke-width="3.259" stroke-linecap="round" transform="matrix(0 -.84738 -1 0 1774.69 1267.976)"/><path d="M129.568 985.26h87.924" fill="none" stroke="#000" stroke-width="3.005" stroke-linecap="round" transform="matrix(.9967 0 0 -1 479.277 1562.162)"/><g transform="translate(-217.94 -45.474) scale(4.71008)" ns0:text="$T _{\\rm{1}}$"><defs><symbol id="b" overflow="visible"><path d="M4.25-6.047c.078-.281.11-.344.234-.375.094-.016.422-.016.625-.016 1.016 0 1.454.032 1.454.813 0 .156-.032.547-.079.797 0 .047-.03.156-.03.187 0 .063.03.141.124.141.11 0 .125-.078.156-.234L7-6.47c.016-.047.016-.14.016-.172 0-.109-.094-.109-.266-.109H1.219c-.235 0-.25.016-.328.203l-.594 1.75c0 .016-.063.156-.063.188 0 .046.063.109.125.109.094 0 .11-.063.172-.219.531-1.547.797-1.718 2.266-1.718h.39c.282 0 .282.03.282.125a.775.775 0 0 1-.047.203L2.094-.781C2-.421 1.969-.312.906-.312c-.36 0-.422 0-.422.187C.484 0 .594 0 .656 0c.266 0 .547-.016.813-.016.281 0 .578-.015.86-.015.28 0 .546.015.827.015.281 0 .578.016.86.016.093 0 .218 0 .218-.203 0-.11-.078-.11-.343-.11-.235 0-.375 0-.625-.015-.297-.031-.375-.063-.375-.219 0-.015 0-.062.046-.203zm0 0"/></symbol><symbol id="c" overflow="visible"><path d="M2.328-4.438c0-.187 0-.187-.203-.187-.453.438-1.078.438-1.36.438v.25c.157 0 .626 0 1-.188v3.547c0 .234 0 .328-.687.328H.812V0c.125 0 .985-.031 1.235-.031.219 0 1.094.031 1.25.031v-.25H3.03c-.703 0-.703-.094-.703-.328zm0 0"/></symbol></defs><use y="134.765" x="223.432" xlink:href="#b" width="1052.362" height="744.094"/><use y="136.259" x="229.254" xlink:href="#c" width="1052.362" height="744.094"/></g><g ns0:text="$S _{\\rm{1}}$" transform="translate(-650.853 -255.123) scale(4.71008)"><defs><symbol overflow="visible" id="d"><path d="M6.438-6.922a.12.12 0 0 0-.125-.11c-.047 0-.047.016-.172.157l-.485.563c-.25-.47-.765-.72-1.422-.72-1.265 0-2.453 1.157-2.453 2.36 0 .797.516 1.266 1.032 1.406l1.062.282c.375.093.922.25.922 1.062 0 .89-.813 1.828-1.797 1.828-.64 0-1.75-.218-1.75-1.453 0-.234.063-.484.063-.531.015-.047.015-.063.015-.078 0-.094-.062-.11-.11-.11a.142.142 0 0 0-.109.047C1.08-2.188.516.094.516.125c0 .047.046.094.109.094.047 0 .063-.016.188-.157L1.296-.5c.422.578 1.11.719 1.687.719 1.36 0 2.532-1.328 2.532-2.563 0-.687-.344-1.031-.485-1.172-.234-.218-.39-.265-1.265-.484-.235-.063-.579-.172-.672-.188a.928.928 0 0 1-.61-.906c0-.812.797-1.656 1.75-1.656.813 0 1.422.438 1.422 1.547 0 .312-.031.5-.031.562 0 0 0 .094.11.094.109 0 .124-.031.156-.203zm0 0"/></symbol><symbol overflow="visible" id="e"><path d="M2.328-4.438c0-.187 0-.187-.203-.187-.453.438-1.078.438-1.36.438v.25c.157 0 .626 0 1-.188v3.547c0 .234 0 .328-.687.328H.812V0c.125 0 .985-.031 1.235-.031.219 0 1.094.031 1.25.031v-.25H3.03c-.703 0-.703-.094-.703-.328zm0 0"/></symbol></defs><use height="744.094" width="1052.362" xlink:href="#d" x="223.432" y="134.765"/><use height="744.094" width="1052.362" xlink:href="#e" x="229.541" y="136.259"/></g><g fill="none" stroke="#000" stroke-width="3" stroke-linecap="round"><path d="M608.418 737.503v-51.704M637.839 880.87h-58.84V737.501h58.84zM608.418 936.77v-55.9"/></g><g fill="none" stroke="#000" stroke-width="2.501" stroke-linecap="round"><path d="M129.568 921.26h60.911M32.307 921.26h97.26" transform="matrix(0 -1.43853 1 0 -312.842 1204.658)"/></g><path d="M608.418 1152.71a5.35 5.35 0 1 1 0 10.7 5.35 5.35 0 1 1 0-10.7zM608.418 571.552a5.35 5.35 0 1 1 0 10.7 5.35 5.35 0 1 1 0-10.7z" stroke="#000" stroke-width="3.9423000000000004" stroke-linecap="round"/><g ns0:text="$R _{\\rm{2}}$" transform="translate(-541.189 -168.713) scale(4.71008)"><defs><symbol overflow="visible" id="f"><path d="M3.734-6.125c.063-.234.094-.328.282-.36.093-.015.406-.015.609-.015.703 0 1.813 0 1.813.984 0 .344-.157 1.032-.547 1.422-.266.25-.782.578-1.688.578h-1.11zm1.438 2.734c1.016-.218 2.187-.921 2.187-1.921 0-.86-.89-1.5-2.203-1.5H2.328c-.203 0-.297 0-.297.203 0 .109.094.109.281.109.016 0 .204 0 .376.016.187.03.265.03.265.171 0 .032 0 .063-.031.188L1.578-.781c-.094.39-.11.469-.906.469-.172 0-.266 0-.266.203C.406 0 .531 0 .546 0c.282 0 .985-.031 1.25-.031.282 0 1 .031 1.282.031.078 0 .188 0 .188-.203 0-.11-.079-.11-.282-.11-.359 0-.64 0-.64-.171 0-.063.015-.11.031-.172l.656-2.64H4.22c.906 0 1.078.562 1.078.905 0 .141-.078.454-.14.688-.063.281-.157.64-.157.844C5 .219 6.203.219 6.328.219c.844 0 1.203-1 1.203-1.14 0-.126-.11-.126-.125-.126-.093 0-.11.063-.125.14-.25.735-.687.907-.906.907-.328 0-.406-.219-.406-.61 0-.312.062-.812.11-1.14.015-.14.03-.328.03-.469 0-.765-.671-1.078-.937-1.172zm0 0"/></symbol><symbol overflow="visible" id="g"><path d="M3.516-1.266H3.28c-.015.157-.094.563-.187.625-.047.047-.578.047-.688.047H1.125c.734-.64.984-.844 1.39-1.172.516-.406 1-.843 1-1.5 0-.843-.734-1.359-1.624-1.359-.86 0-1.454.61-1.454 1.25 0 .344.297.39.376.39.156 0 .359-.124.359-.374 0-.125-.047-.375-.406-.375.218-.485.687-.641 1.015-.641.703 0 1.063.547 1.063 1.11 0 .609-.438 1.078-.656 1.328L.516-.266C.437-.203.437-.187.437 0h2.876zm0 0"/></symbol></defs><use height="1488.189" width="1052.362" xlink:href="#f" x="223.432" y="134.765"/><use height="1488.189" width="1052.362" xlink:href="#g" x="230.997" y="136.259"/></g><g transform="translate(-541.189 188.725) scale(4.71008)" ns0:text="$R _{\\rm{3}}$"><defs><symbol id="h" overflow="visible"><path d="M3.734-6.125c.063-.234.094-.328.282-.36.093-.015.406-.015.609-.015.703 0 1.813 0 1.813.984 0 .344-.157 1.032-.547 1.422-.266.25-.782.578-1.688.578h-1.11zm1.438 2.734c1.016-.218 2.187-.921 2.187-1.921 0-.86-.89-1.5-2.203-1.5H2.328c-.203 0-.297 0-.297.203 0 .109.094.109.281.109.016 0 .204 0 .376.016.187.03.265.03.265.171 0 .032 0 .063-.031.188L1.578-.781c-.094.39-.11.469-.906.469-.172 0-.266 0-.266.203C.406 0 .531 0 .546 0c.282 0 .985-.031 1.25-.031.282 0 1 .031 1.282.031.078 0 .188 0 .188-.203 0-.11-.079-.11-.282-.11-.359 0-.64 0-.64-.171 0-.063.015-.11.031-.172l.656-2.64H4.22c.906 0 1.078.562 1.078.905 0 .141-.078.454-.14.688-.063.281-.157.64-.157.844C5 .219 6.203.219 6.328.219c.844 0 1.203-1 1.203-1.14 0-.126-.11-.126-.125-.126-.093 0-.11.063-.125.14-.25.735-.687.907-.906.907-.328 0-.406-.219-.406-.61 0-.312.062-.812.11-1.14.015-.14.03-.328.03-.469 0-.765-.671-1.078-.937-1.172zm0 0"/></symbol><symbol id="i" overflow="visible"><path d="M1.906-2.328c.547 0 .938.375.938 1.125 0 .86-.516 1.125-.906 1.125-.282 0-.907-.078-1.188-.5.328 0 .406-.235.406-.39 0-.22-.172-.376-.39-.376a.38.38 0 0 0-.391.407C.375-.281 1.094.14 1.938.14c.968 0 1.64-.657 1.64-1.344 0-.547-.437-1.094-1.203-1.25.719-.266.984-.781.984-1.219 0-.547-.625-.953-1.406-.953-.766 0-1.36.375-1.36.938 0 .234.157.359.36.359.219 0 .36-.156.36-.344 0-.203-.141-.36-.36-.375.25-.297.719-.375.985-.375.312 0 .75.156.75.75 0 .297-.094.625-.282.828-.219.266-.422.281-.765.313-.172.015-.188.015-.22.015-.015 0-.077.016-.077.094 0 .094.062.094.187.094zm0 0"/></symbol></defs><use y="134.765" x="223.432" xlink:href="#h" width="1052.362" height="1488.189"/><use y="136.259" x="230.997" xlink:href="#i" width="1052.362" height="1488.189"/></g><g><g stroke="#000"><g stroke-width="3" fill="none"><path d="M789.43 1079.378l-39.23-69.359h78.46l-39.23 69.36z" stroke-linecap="square"/><path d="M827.641 1083.679H751.22" stroke-linecap="round"/><path d="M695.75 614.612l45.47-45.47M716.5 626.362l45.47-45.47" stroke-linecap="round" marker-end="url(#a)" transform="rotate(90 561.918 893.166)"/></g><path d="M789.43 934.672v75.347" fill="none" stroke-width="3" stroke-linecap="round"/></g></g><g fill="none" stroke="#000" stroke-width="3" stroke-linecap="round"><path d="M789.43 739.602v-51.704M818.85 882.968h-58.84V739.601h58.84zM789.43 934.672v-51.703"/></g><g ns0:text="$D _{\\rm{1}}$"><path d="M691.712 1053.544c-.442 1.84-.515 2.208-4.269 2.208-.736 0-1.25 0-1.25.883 0 .589.367.589 1.25.589h15.602c9.715 0 18.988-9.936 18.988-20.165 0-6.624-3.974-11.923-11.04-11.923h-15.749c-.883 0-1.398 0-1.398.884 0 .588.368.588 1.325.588.588 0 1.472.074 1.987.074.81.147 1.03.22 1.03.81 0 .147 0 .294-.147.883zm10.156-25.17c.441-1.619.515-1.766 2.576-1.766h5.004c4.563 0 8.464 2.503 8.464 8.685 0 2.28-.884 10.008-4.931 15.16-1.325 1.766-5.005 5.299-10.819 5.299H695.833c-.442-.074-.589-.147-.589-.515 0-.147 0-.221.221-1.03zm0 0M734.093 1043.36c0-.883 0-.883-.957-.883-2.134 2.06-5.078 2.06-6.403 2.06v1.178c.736 0 2.944 0 4.71-.883v16.706c0 1.104 0 1.545-3.238 1.545h-1.25v1.178c.588 0 4.636-.148 5.813-.148 1.03 0 5.152.148 5.888.148v-1.178h-1.251c-3.312 0-3.312-.441-3.312-1.545zm0 0"/></g><g ns0:text="$R _{\\rm{1}}$"><path d="M851.598 794.961c.294-1.104.441-1.545 1.325-1.693.441-.073 1.913-.073 2.87-.073 3.312 0 8.537 0 8.537 4.636 0 1.62-.736 4.858-2.576 6.697-1.251 1.178-3.68 2.723-7.948 2.723h-5.225zm6.77 12.88c4.784-1.031 10.304-4.343 10.304-9.053 0-4.048-4.195-7.065-10.377-7.065h-13.32c-.957 0-1.399 0-1.399.957 0 .515.442.515 1.325.515.073 0 .956 0 1.766.073.883.148 1.251.148 1.251.81 0 .147 0 .294-.147.883l-6.33 25.17c-.44 1.84-.514 2.207-4.268 2.207-.81 0-1.25 0-1.25.957 0 .515.588.515.662.515 1.324 0 4.636-.147 5.887-.147 1.325 0 4.71.147 6.035.147.368 0 .883 0 .883-.956 0-.516-.368-.516-1.325-.516-1.692 0-3.017 0-3.017-.81 0-.293.074-.514.147-.809l3.091-12.437h5.593c4.269 0 5.078 2.65 5.078 4.268 0 .663-.368 2.135-.662 3.238-.294 1.325-.736 3.018-.736 3.975 0 5.078 5.667 5.078 6.256 5.078 3.974 0 5.666-4.71 5.666-5.373 0-.589-.515-.589-.588-.589-.442 0-.515.295-.589.663-1.178 3.459-3.238 4.268-4.269 4.268-1.545 0-1.913-1.03-1.913-2.87 0-1.472.294-3.827.515-5.372.074-.663.147-1.546.147-2.208 0-3.606-3.164-5.078-4.415-5.52zm0 0M880.606 809.946c0-.883 0-.883-.957-.883-2.134 2.06-5.078 2.06-6.402 2.06v1.178c.735 0 2.943 0 4.71-.883v16.706c0 1.104 0 1.546-3.239 1.546h-1.25v1.177c.588 0 4.636-.147 5.813-.147 1.03 0 5.152.147 5.888.147v-1.177h-1.251c-3.312 0-3.312-.442-3.312-1.546zm0 0"/></g><g fill="none" stroke="#000" stroke-width="7.125" stroke-linecap="round"><path d="M129.568 921.26h60.911M-96.255 921.26h225.823" transform="matrix(0 -.17729 1 0 -131.83 671.246)"/></g></g></svg>