<svg xmlns:ns0="http://www.iki.fi/pav/software/textext/" xmlns="http://www.w3.org/2000/svg" xmlns:xlink="http://www.w3.org/1999/xlink" width="1052.362" height="744.094"><title>Vampirblick-Schaltung</title><defs><marker orient="auto" id="i" overflow="visible"><path d="M-2.308 0l3.46-2v4l-3.46-2z" fill-rule="evenodd" stroke="#000" stroke-width=".4pt"/></marker><marker id="j" orient="auto" overflow="visible"><path d="M2.308 0l-3.46 2v-4l3.46 2z" fill-rule="evenodd" stroke="#000" stroke-width=".4pt"/></marker></defs><g transform="translate(0 -308.268)"><path style="marker:none" color="#000" fill="#fff" stroke="#fff" stroke-width="1.314" stroke-linecap="round" stroke-linejoin="round" overflow="visible" d="M75.085 408.122h902.192v544.387H75.085z"/><g stroke="#000" stroke-width="1.896"><path d="M73.076 923.572h452.452" fill="none" stroke-linecap="round" transform="matrix(1.42833 0 0 .43809 88.21 40.346)"/></g><g stroke="#000" stroke-width="3.433"><g stroke-width="3.859" fill="none" stroke-linecap="round"><path d="M893.302 1257.256v-200.939M869.468 1120.08v73.413" transform="matrix(0 .43692 -.34588 0 592.465 319.285)"/></g><g fill="none" stroke-linecap="round" stroke-width="1.02"><path d="M219.075 738.842V724.41M227.108 731.625h-14.434" stroke-width="1.4995428"/></g><path d="M219.075 684.175V669.74" fill="none" stroke-linecap="round" stroke-width="1.4999463599999998"/></g><path d="M664.728 734.83a2.344 2.344 0 1 1 0-4.688 2.344 2.344 0 1 1 0 4.688z" stroke="#000" stroke-width="1.50015906" stroke-linecap="round"/><path fill="none" stroke-linecap="round" d="M822.401 667.5h-25.777v-62.808h25.777z" stroke="#000" stroke-width="1.5000201599999998"/><path d="M810.388 734.83a2.344 2.344 0 1 1 0-4.688 2.344 2.344 0 1 1 0 4.688z" stroke="#000" stroke-width="1.50015906" stroke-linecap="round"/><g stroke="#000" stroke-width="3.808"><g stroke-width=".846" fill="none" stroke-linecap="round"><path d="M744.018 701.083v62.807M731.456 701.083v62.807M744.059 732.486h66.33M731.416 732.486h-66.688" stroke-width="1.4995942199999999"/></g></g><path fill="none" stroke-linecap="round" d="M677.617 667.5H651.84v-62.808h25.777z" stroke="#000" stroke-width="1.5000201599999998"/><path d="M375.142 735.22a2.344 2.344 0 1 1 0-4.687 2.344 2.344 0 1 1 0 4.688z" stroke="#000" stroke-width="1.50015906" stroke-linecap="round"/><path fill="none" stroke-linecap="round" d="M533.69 667.5h-25.777v-62.808h25.778z" stroke="#000" stroke-width="1.5000201599999998"/><path d="M520.802 735.22a2.344 2.344 0 1 1 0-4.687 2.344 2.344 0 1 1 0 4.688z" stroke="#000" stroke-width="1.50015906" stroke-linecap="round"/><g stroke="#000" stroke-width="3.808"><g stroke-width=".846" fill="none" stroke-linecap="round"><path d="M441.512 701.473v62.808M454.074 701.473v62.808M441.471 732.877h-66.33M454.115 732.877h66.687" stroke-width="1.4995942199999999"/></g></g><path d="M375.142 605.55v-22.159M387.678 666.642h-25.073v-61.091h25.073zM375.142 730.142v-62.85" fill="none" stroke="#000" stroke-width="1.5" stroke-linecap="round"/><g stroke="#000" stroke-width="1.938"><path d="M73.076 923.572h452.35" fill="none" stroke-linecap="round" transform="matrix(1.36538 0 0 .43867 92.75 510.485)"/></g><path d="M375.131 915.334l.13-65.524M416.169 829.39l104.633.13" fill="none" stroke="#000" stroke-width="1.5" stroke-linecap="round"/><path d="M664.728 829.781l-143.926-96.52M520.802 829.781l143.926-96.52" fill="none" stroke="#000" stroke-width="1.5"/><path d="M192.358 699V444.933M192.358 915.462V709.917M810.388 732.365v-64.192M520.802 729.806v-61.633" fill="none" stroke="#000" stroke-width="1.5" stroke-linecap="round"/><path d="M520.802 447.64a2.344 2.344 0 1 1 0-4.688 2.344 2.344 0 1 1 0 4.688zM345.814 464.655a2.344 2.344 0 1 1 0-4.688 2.344 2.344 0 1 1 0 4.688zM664.728 447.64a2.344 2.344 0 1 1 0-4.688 2.344 2.344 0 1 1 0 4.688z" stroke="#000" stroke-width="1.50015906" stroke-linecap="round"/><g ns0:text="$C _{\\rm{1}}$" transform="matrix(2.06343 0 0 2.06343 -24.33 412.91)" stroke="#000" stroke-width=".727"><defs><symbol overflow="visible" id="a"><path d="M7.578-6.922c0-.031-.016-.11-.11-.11-.03 0-.046.016-.155.126l-.688.765c-.094-.14-.547-.89-1.656-.89C2.734-7.031.5-4.828.5-2.516.5-.875 1.672.22 3.203.22c.86 0 1.625-.39 2.156-.86.922-.812 1.094-1.718 1.094-1.75 0-.109-.11-.109-.125-.109-.062 0-.11.031-.125.11-.094.28-.328 1-1.016 1.578-.687.546-1.312.718-1.828.718-.89 0-1.953-.515-1.953-2.062 0-.578.203-2.188 1.203-3.36.61-.703 1.547-1.203 2.438-1.203 1.016 0 1.61.766 1.61 1.922 0 .406-.032.406-.032.516 0 .093.11.093.14.093.126 0 .126-.015.188-.203zm0 0" stroke="none"/></symbol><symbol overflow="visible" id="b"><path d="M2.328-4.438c0-.187 0-.187-.203-.187-.453.438-1.078.438-1.36.438v.25c.157 0 .626 0 1-.188v3.547c0 .234 0 .328-.687.328H.812V0c.125 0 .985-.031 1.235-.031.219 0 1.094.031 1.25.031v-.25H3.03c-.703 0-.703-.094-.703-.328zm0 0" stroke="none"/></symbol></defs><use height="1052.362" width="744.094" xlink:href="#a" x="223.432" y="134.765"/><use height="1052.362" width="744.094" xlink:href="#b" x="230.553" y="136.259"/></g><g transform="matrix(2.06343 0 0 2.06343 265.031 412.91)" ns0:text="$C _{\\rm{2}}$" stroke="#000" stroke-width=".727"><defs><symbol id="c" overflow="visible"><path d="M7.578-6.922c0-.031-.016-.11-.11-.11-.03 0-.046.016-.155.126l-.688.765c-.094-.14-.547-.89-1.656-.89C2.734-7.031.5-4.828.5-2.516.5-.875 1.672.22 3.203.22c.86 0 1.625-.39 2.156-.86.922-.812 1.094-1.718 1.094-1.75 0-.109-.11-.109-.125-.109-.062 0-.11.031-.125.11-.094.28-.328 1-1.016 1.578-.687.546-1.312.718-1.828.718-.89 0-1.953-.515-1.953-2.062 0-.578.203-2.188 1.203-3.36.61-.703 1.547-1.203 2.438-1.203 1.016 0 1.61.766 1.61 1.922 0 .406-.032.406-.032.516 0 .093.11.093.14.093.126 0 .126-.015.188-.203zm0 0" stroke="none"/></symbol><symbol id="d" overflow="visible"><path d="M3.516-1.266H3.28c-.015.157-.094.563-.187.625-.047.047-.578.047-.688.047H1.125c.734-.64.984-.844 1.39-1.172.516-.406 1-.843 1-1.5 0-.843-.734-1.359-1.624-1.359-.86 0-1.454.61-1.454 1.25 0 .344.297.39.376.39.156 0 .359-.124.359-.374 0-.125-.047-.375-.406-.375.218-.485.687-.641 1.015-.641.703 0 1.063.547 1.063 1.11 0 .609-.438 1.078-.656 1.328L.516-.266C.437-.203.437-.187.437 0h2.876zm0 0" stroke="none"/></symbol></defs><use height="1052.362" width="744.094" y="134.765" x="223.432" xlink:href="#c"/><use height="1052.362" width="744.094" y="136.259" x="230.553" xlink:href="#d"/></g><g ns0:text="$D _{\\rm{1}}$" transform="matrix(2.06343 0 0 2.06343 -22.736 238.23)" stroke="#000" stroke-width=".727"><defs><symbol overflow="visible" id="e"><path d="M1.578-.781c-.094.39-.11.469-.906.469-.156 0-.266 0-.266.187C.406 0 .484 0 .672 0h3.312c2.063 0 4.032-2.11 4.032-4.281 0-1.407-.844-2.532-2.344-2.532H2.328c-.187 0-.297 0-.297.188 0 .125.078.125.281.125.126 0 .313.016.422.016.172.03.22.046.22.171 0 .032 0 .063-.032.188zm2.156-5.344c.094-.344.11-.375.547-.375h1.063c.968 0 1.797.531 1.797 1.844 0 .484-.188 2.125-1.047 3.218A2.919 2.919 0 0 1 3.797-.313H2.453c-.094-.015-.125-.03-.125-.109 0-.031 0-.047.047-.219zm0 0" stroke="none"/></symbol><symbol overflow="visible" id="f"><path d="M2.328-4.438c0-.187 0-.187-.203-.187-.453.438-1.078.438-1.36.438v.25c.157 0 .626 0 1-.188v3.547c0 .234 0 .328-.687.328H.812V0c.125 0 .985-.031 1.235-.031.219 0 1.094.031 1.25.031v-.25H3.03c-.703 0-.703-.094-.703-.328zm0 0" stroke="none"/></symbol></defs><use height="1052.362" width="744.094" xlink:href="#e" x="223.432" y="134.765"/><use height="1052.362" width="744.094" xlink:href="#f" x="231.68" y="136.259"/></g><g transform="matrix(2.06343 0 0 2.06343 260.095 238.23)" ns0:text="$D _{\\rm{2}}$" stroke="#000" stroke-width=".727"><defs><symbol id="g" overflow="visible"><path d="M1.578-.781c-.094.39-.11.469-.906.469-.156 0-.266 0-.266.187C.406 0 .484 0 .672 0h3.312c2.063 0 4.032-2.11 4.032-4.281 0-1.407-.844-2.532-2.344-2.532H2.328c-.187 0-.297 0-.297.188 0 .125.078.125.281.125.126 0 .313.016.422.016.172.03.22.046.22.171 0 .032 0 .063-.032.188zm2.156-5.344c.094-.344.11-.375.547-.375h1.063c.968 0 1.797.531 1.797 1.844 0 .484-.188 2.125-1.047 3.218A2.919 2.919 0 0 1 3.797-.313H2.453c-.094-.015-.125-.03-.125-.109 0-.031 0-.047.047-.219zm0 0" stroke="none"/></symbol><symbol id="h" overflow="visible"><path d="M3.516-1.266H3.28c-.015.157-.094.563-.187.625-.047.047-.578.047-.688.047H1.125c.734-.64.984-.844 1.39-1.172.516-.406 1-.843 1-1.5 0-.843-.734-1.359-1.624-1.359-.86 0-1.454.61-1.454 1.25 0 .344.297.39.376.39.156 0 .359-.124.359-.374 0-.125-.047-.375-.406-.375.218-.485.687-.641 1.015-.641.703 0 1.063.547 1.063 1.11 0 .609-.438 1.078-.656 1.328L.516-.266C.437-.203.437-.187.437 0h2.876zm0 0" stroke="none"/></symbol></defs><use height="1052.362" width="744.094" y="134.765" x="223.432" xlink:href="#g"/><use height="1052.362" width="744.094" y="136.259" x="231.68" xlink:href="#h"/></g><path d="M375.131 917.677a2.344 2.344 0 1 1 0-4.687 2.344 2.344 0 1 1 0 4.687z" stroke="#000" stroke-width="1.50015906" stroke-linecap="round"/><g stroke="#000" stroke-width="3.424" fill="none" stroke-linecap="round"><path d="M425.683 701.473v14.434M417.65 708.69h14.434" stroke-width="1.5000201599999998"/><g><path d="M761.48 701.473v14.434M753.447 708.69h14.433" stroke-width="1.5000201599999998"/></g></g><g stroke-width=".919" fill="none" stroke="#000"><path transform="matrix(1.63143 0 0 -2.17523 -301.073 1049.189)" d="M435.827 100.866c0 5.87-6.346 10.63-14.173 10.63-7.828 0-14.174-4.76-14.174-10.63 0-5.87 6.346-10.63 14.174-10.63 7.827 0 14.173 4.76 14.173 10.63z" style="marker:none" color="#000" stroke-width=".796" stroke-linecap="square" overflow="visible"/><path d="M392.603 829.781h23.122M392.603 818.22v23.123" stroke-linecap="round" stroke-width="1.49928417"/><path d="M473.032 125.406l8.37-5.558v-7.086" stroke-linecap="round" marker-start="url(#i)" transform="matrix(-1.63143 0 0 -1.63143 1160.632 1042.647)"/><path d="M392.674 824.071L375.26 812.44v-11.56" stroke-linecap="round" stroke-width="1.49928417"/></g><path d="M810.204 915.63v-65.82" fill="none" stroke="#000" stroke-width="1.5" stroke-linecap="round"/><g stroke-width=".919" fill="none" stroke="#000"><path style="marker:none" d="M435.827 100.866c0 5.87-6.346 10.63-14.173 10.63-7.828 0-14.174-4.76-14.174-10.63 0-5.87 6.346-10.63 14.174-10.63 7.827 0 14.173 4.76 14.173 10.63z" transform="matrix(-1.63143 0 0 -2.17523 1486.538 1049.189)" color="#000" stroke-width=".796" stroke-linecap="square" overflow="visible"/><path d="M792.862 829.781H769.74M792.862 818.22v23.123" stroke-linecap="round" stroke-width="1.49928417"/><path d="M473.032 125.406l8.37-5.558v-7.086" stroke-linecap="round" marker-start="url(#i)" transform="matrix(1.63143 0 0 -1.63143 24.834 1042.647)"/><path d="M792.792 824.071l17.412-11.632v-11.56" stroke-linecap="round" stroke-width="1.49928417"/></g><path d="M810.204 813.27v-79.895M664.728 829.781H775.52M375.27 811.496l.112-77.58M664.728 732.365v-64.193" fill="none" stroke="#000" stroke-width="1.5" stroke-linecap="round"/><path fill="none" stroke-linecap="round" d="M881.337 667.5H855.56v-62.808h25.777zM329.447 667.5H303.67v-62.808h25.777z" stroke="#000" stroke-width="1.5000201599999998"/><path d="M372.798 732.877h-56.24M316.558 732.877v-64.704M810.388 732.486h58.06M868.448 732.365v-64.192M345.814 462.31v-17.473" fill="none" stroke="#000" stroke-width="1.5" stroke-linecap="round"/><g stroke="#000" stroke-width="3.424"><g fill="none"><path d="M375.142 497.204l-17.187 30.385h34.373l-17.186-30.385z" stroke-linecap="square" stroke-width="1.5000201599999998"/><path d="M391.882 495.32h-33.48" stroke-linecap="round" stroke-width="1.5000201599999998"/><path d="M695.75 614.612l45.47-45.47M716.5 626.362l45.47-45.47" stroke-linecap="round" marker-end="url(#j)" transform="matrix(0 -.43809 -.43809 0 666.757 824.951)"/><g stroke-linecap="round"><path d="M375.142 560.598v-33.009M375.092 495.32v-33.01" stroke-width="1.5000201599999998"/></g></g><g fill="none"><path d="M316.558 495.94l17.186 30.385h-34.373l17.187-30.385z" stroke-linecap="square" stroke-width="1.5000201599999998"/><path d="M299.818 494.056h33.48" stroke-linecap="round" stroke-width="1.5000201599999998"/><path d="M695.75 614.612l45.47-45.47M716.5 626.362l45.47-45.47" stroke-linecap="round" marker-end="url(#j)" transform="rotate(-90 424.315 399.374) scale(.43809)"/><g stroke-linecap="round"><path d="M316.558 559.334v-33.009M316.607 494.056v-31.699" stroke-width="1.5000201599999998"/></g></g></g><path d="M316.558 604.692v-45.358" fill="none" stroke="#000" stroke-width="1.5" stroke-linecap="round"/><rect style="marker:none" width="169.419" height="84.366" x="261.14" y="468.639" rx="15.071" ry="15.071" color="#000" fill="none" stroke="#000" stroke-width="1.5" stroke-linecap="round" stroke-linejoin="bevel" stroke-dasharray="1.5,4.5" overflow="visible"/><path d="M345.814 447.181a2.344 2.344 0 1 1 0-4.688 2.344 2.344 0 1 1 0 4.688z" stroke="#000" stroke-width="1.50015906" stroke-linecap="round"/><path d="M520.802 604.692v-159.74M664.728 604.692v-159.74M868.096 604.145v-43.57M809.562 462.31h58.485M838.804 462.31V445" fill="none" stroke="#000" stroke-width="1.5" stroke-linecap="round"/><g stroke="#000" stroke-width="3.424"><g fill="none"><path d="M868.096 497.204l-17.186 30.385h34.373l-17.187-30.385z" stroke-linecap="square" stroke-width="1.5000201599999998"/><path d="M884.836 495.32h-33.48" stroke-linecap="round" stroke-width="1.5000201599999998"/><path d="M695.75 614.612l45.47-45.47M716.5 626.362l45.47-45.47" stroke-linecap="round" marker-end="url(#j)" transform="matrix(0 -.43809 -.43809 0 1159.712 824.951)"/><g stroke-linecap="round"><path d="M868.096 560.598v-33.009M868.047 495.32v-33.01" stroke-width="1.5000201599999998"/></g></g><g fill="none"><path d="M809.512 495.94l17.187 30.385h-34.373l17.186-30.385z" stroke-linecap="square" stroke-width="1.5000201599999998"/><path d="M792.772 494.056h33.48" stroke-linecap="round" stroke-width="1.5000201599999998"/><path d="M695.75 614.612l45.47-45.47M716.5 626.362l45.47-45.47" stroke-linecap="round" marker-end="url(#j)" transform="rotate(-90 670.793 152.896) scale(.43809)"/><g stroke-linecap="round"><path d="M809.512 559.334v-33.009M809.562 494.056v-31.699" stroke-width="1.5000201599999998"/></g></g></g><path d="M809.512 604.692v-21.165" fill="none" stroke="#000" stroke-width="1.5" stroke-linecap="round"/><rect ry="15.071" rx="15.071" y="468.639" x="754.095" height="84.366" width="169.419" style="marker:none" color="#000" fill="none" stroke="#000" stroke-width="1.5" stroke-linecap="round" stroke-linejoin="bevel" stroke-dasharray="1.5,4.5" overflow="visible"/><path d="M838.804 447.344a2.344 2.344 0 1 1 0-4.688 2.344 2.344 0 1 1 0 4.688z" stroke="#000" stroke-width="1.50015906" stroke-linecap="round"/><g stroke="#000" stroke-width="2.349"><path d="M73.076 923.572h452.452" fill="none" stroke-linecap="round" transform="matrix(.93047 0 0 .43809 320.525 165.407)"/></g><path d="M375.142 583.391l13.378-13.378M809.512 570.013v-10.666" fill="none" stroke="#000" stroke-width="1.5" stroke-linecap="round"/><g stroke="#000" stroke-width="2.349"><path d="M73.076 923.572h452.452" fill="none" stroke-linecap="round" transform="matrix(.93047 0 0 .43809 320.525 178.785)"/></g><path d="M388.52 583.391l-13.378-13.378M375.142 570.013v-9.415" fill="none" stroke="#000" stroke-width="1.5" stroke-linecap="round"/><g ns0:text="$T _{\\rm{2}}$ \\\\\nBN 558" ns0:preamble="/home/waldgeist/data/sphinx/inkscape-preamble.tex" transform="matrix(2.06343 0 0 2.06343 366.125 546.107)" stroke="#000" stroke-width=".727"><defs><symbol overflow="visible" id="k"><path d="M4.25-6.047c.078-.281.11-.344.234-.375.094-.016.422-.016.625-.016 1.016 0 1.454.032 1.454.813 0 .156-.032.547-.079.797 0 .047-.03.156-.03.187 0 .063.03.141.124.141.11 0 .125-.078.156-.234L7-6.47c.016-.047.016-.14.016-.172 0-.109-.094-.109-.266-.109H1.219c-.235 0-.25.016-.328.203l-.594 1.75c0 .016-.063.156-.063.188 0 .046.063.109.125.109.094 0 .11-.063.172-.219.531-1.547.797-1.718 2.266-1.718h.39c.282 0 .282.03.282.125a.775.775 0 0 1-.047.203L2.094-.781C2-.421 1.969-.312.906-.312c-.36 0-.422 0-.422.187C.484 0 .594 0 .656 0c.266 0 .547-.016.813-.016.281 0 .578-.015.86-.015.28 0 .546.015.827.015.281 0 .578.016.86.016.093 0 .218 0 .218-.203 0-.11-.078-.11-.343-.11-.235 0-.375 0-.625-.015-.297-.031-.375-.063-.375-.219 0-.015 0-.062.046-.203zm0 0" stroke="none"/></symbol><symbol overflow="visible" id="l"><path d="M3.516-1.266H3.28c-.015.157-.094.563-.187.625-.047.047-.578.047-.688.047H1.125c.734-.64.984-.844 1.39-1.172.516-.406 1-.843 1-1.5 0-.843-.734-1.359-1.624-1.359-.86 0-1.454.61-1.454 1.25 0 .344.297.39.376.39.156 0 .359-.124.359-.374 0-.125-.047-.375-.406-.375.218-.485.687-.641 1.015-.641.703 0 1.063.547 1.063 1.11 0 .609-.438 1.078-.656 1.328L.516-.266C.437-.203.437-.187.437 0h2.876zm0 0" stroke="none"/></symbol><symbol overflow="visible" id="m"><path d="M2.219-3.656v-2.438c0-.343.015-.406.484-.406h1.235c.968 0 1.312.844 1.312 1.375 0 .64-.484 1.469-1.594 1.469zm2.344.094c.968-.188 1.656-.829 1.656-1.563 0-.86-.922-1.688-2.219-1.688H.36v.313h.234c.765 0 .797.11.797.469v5.25c0 .36-.032.469-.797.469H.359V0h3.907c1.328 0 2.218-.89 2.218-1.828 0-.86-.812-1.61-1.921-1.734zm-.61 3.25h-1.25c-.469 0-.484-.063-.484-.391v-2.719h1.875c.984 0 1.406.922 1.406 1.594 0 .703-.531 1.516-1.547 1.516zm0 0" stroke="none"/></symbol><symbol overflow="visible" id="n"><path d="M2.313-6.672c-.094-.125-.094-.14-.282-.14H.328v.312h.297c.14 0 .344.016.484.016.235.03.25.046.25.234v5.203c0 .266 0 .734-1.03.734V0c.343-.016.843-.031 1.171-.031.328 0 .813.015 1.156.031v-.313c-1.015 0-1.015-.468-1.015-.734v-5.187c.046.046.046.062.093.125L5.797-.125c.094.11.11.125.172.125.14 0 .14-.063.14-.266v-5.5c0-.265 0-.734 1.032-.734v-.313c-.36.016-.844.032-1.172.032-.328 0-.813-.016-1.157-.032v.313c1.016 0 1.016.469 1.016.734V-1.5zm0 0" stroke="none"/></symbol><symbol overflow="visible" id="o"><path d="M4.469-2c0-1.188-.813-2.188-1.89-2.188-.47 0-.907.157-1.267.516v-1.953c.204.063.532.125.844.125 1.235 0 1.938-.906 1.938-1.031 0-.063-.032-.11-.11-.11 0 0-.03 0-.078.032a3.22 3.22 0 0 1-1.36.296c-.39 0-.858-.078-1.327-.28-.078-.032-.094-.032-.11-.032C1-6.625 1-6.547 1-6.391v2.954c0 .171 0 .25.14.25.079 0 .094-.016.141-.079.11-.156.469-.703 1.282-.703.515 0 .765.453.843.64.156.376.188.75.188 1.25 0 .36 0 .954-.25 1.376-.235.39-.61.64-1.063.64-.719 0-1.297-.53-1.469-1.109.032 0 .063.016.172.016.329 0 .5-.25.5-.485 0-.25-.171-.5-.5-.5-.14 0-.484.079-.484.532C.5-.75 1.188.219 2.297.219 3.453.219 4.469-.734 4.469-2zm0 0" stroke="none"/></symbol><symbol overflow="visible" id="p"><path d="M1.625-4.563c-.453-.296-.5-.625-.5-.796 0-.61.656-1.032 1.36-1.032.718 0 1.359.516 1.359 1.235 0 .578-.39 1.047-.985 1.39zm1.453.954c.719-.375 1.203-.891 1.203-1.547 0-.922-.875-1.485-1.781-1.485-1 0-1.813.735-1.813 1.672 0 .172.016.625.438 1.094.11.11.484.36.734.531C1.281-3.047.422-2.5.422-1.5.422-.453 1.438.219 2.484.219c1.125 0 2.079-.828 2.079-1.89 0-.36-.11-.813-.5-1.235-.188-.203-.344-.297-.985-.703zm-1 .421l1.235.782c.28.187.75.484.75 1.094 0 .734-.75 1.25-1.563 1.25C1.64-.063.922-.672.922-1.5c0-.578.312-1.219 1.156-1.688zm0 0" stroke="none"/></symbol></defs><use height="744.094" width="1052.362" xlink:href="#k" x="223.432" y="134.765"/><use height="744.094" width="1052.362" xlink:href="#l" x="229.254" y="136.259"/><use height="744.094" width="1052.362" xlink:href="#m" x="223.432" y="146.72"/><use height="744.094" width="1052.362" xlink:href="#n" x="230.489" y="146.72"/><g><use height="744.094" width="1052.362" xlink:href="#o" x="241.278" y="146.72"/><use height="744.094" width="1052.362" xlink:href="#o" x="246.259" y="146.72"/><use height="744.094" width="1052.362" xlink:href="#p" x="251.241" y="146.72"/></g></g><g transform="matrix(2.06343 0 0 2.06343 -810.476 546.107)" ns0:preamble="/home/waldgeist/data/sphinx/inkscape-preamble.tex" ns0:text="\\flushright\n$T _{\\rm{1}}$ \\\\\nBN 558" stroke="#000" stroke-width=".727"><defs><symbol id="q" overflow="visible"><path d="M4.25-6.047c.078-.281.11-.344.234-.375.094-.016.422-.016.625-.016 1.016 0 1.454.032 1.454.813 0 .156-.032.547-.079.797 0 .047-.03.156-.03.187 0 .063.03.141.124.141.11 0 .125-.078.156-.234L7-6.47c.016-.047.016-.14.016-.172 0-.109-.094-.109-.266-.109H1.219c-.235 0-.25.016-.328.203l-.594 1.75c0 .016-.063.156-.063.188 0 .046.063.109.125.109.094 0 .11-.063.172-.219.531-1.547.797-1.718 2.266-1.718h.39c.282 0 .282.03.282.125a.775.775 0 0 1-.047.203L2.094-.781C2-.421 1.969-.312.906-.312c-.36 0-.422 0-.422.187C.484 0 .594 0 .656 0c.266 0 .547-.016.813-.016.281 0 .578-.015.86-.015.28 0 .546.015.827.015.281 0 .578.016.86.016.093 0 .218 0 .218-.203 0-.11-.078-.11-.343-.11-.235 0-.375 0-.625-.015-.297-.031-.375-.063-.375-.219 0-.015 0-.062.046-.203zm0 0" stroke="none"/></symbol><symbol id="r" overflow="visible"><path d="M2.328-4.438c0-.187 0-.187-.203-.187-.453.438-1.078.438-1.36.438v.25c.157 0 .626 0 1-.188v3.547c0 .234 0 .328-.687.328H.812V0c.125 0 .985-.031 1.235-.031.219 0 1.094.031 1.25.031v-.25H3.03c-.703 0-.703-.094-.703-.328zm0 0" stroke="none"/></symbol><symbol id="s" overflow="visible"><path d="M2.219-3.656v-2.438c0-.343.015-.406.484-.406h1.235c.968 0 1.312.844 1.312 1.375 0 .64-.484 1.469-1.594 1.469zm2.344.094c.968-.188 1.656-.829 1.656-1.563 0-.86-.922-1.688-2.219-1.688H.36v.313h.234c.765 0 .797.11.797.469v5.25c0 .36-.032.469-.797.469H.359V0h3.907c1.328 0 2.218-.89 2.218-1.828 0-.86-.812-1.61-1.921-1.734zm-.61 3.25h-1.25c-.469 0-.484-.063-.484-.391v-2.719h1.875c.984 0 1.406.922 1.406 1.594 0 .703-.531 1.516-1.547 1.516zm0 0" stroke="none"/></symbol><symbol id="t" overflow="visible"><path d="M2.313-6.672c-.094-.125-.094-.14-.282-.14H.328v.312h.297c.14 0 .344.016.484.016.235.03.25.046.25.234v5.203c0 .266 0 .734-1.03.734V0c.343-.016.843-.031 1.171-.031.328 0 .813.015 1.156.031v-.313c-1.015 0-1.015-.468-1.015-.734v-5.187c.046.046.046.062.093.125L5.797-.125c.094.11.11.125.172.125.14 0 .14-.063.14-.266v-5.5c0-.265 0-.734 1.032-.734v-.313c-.36.016-.844.032-1.172.032-.328 0-.813-.016-1.157-.032v.313c1.016 0 1.016.469 1.016.734V-1.5zm0 0" stroke="none"/></symbol><symbol id="u" overflow="visible"><path d="M4.469-2c0-1.188-.813-2.188-1.89-2.188-.47 0-.907.157-1.267.516v-1.953c.204.063.532.125.844.125 1.235 0 1.938-.906 1.938-1.031 0-.063-.032-.11-.11-.11 0 0-.03 0-.078.032a3.22 3.22 0 0 1-1.36.296c-.39 0-.858-.078-1.327-.28-.078-.032-.094-.032-.11-.032C1-6.625 1-6.547 1-6.391v2.954c0 .171 0 .25.14.25.079 0 .094-.016.141-.079.11-.156.469-.703 1.282-.703.515 0 .765.453.843.64.156.376.188.75.188 1.25 0 .36 0 .954-.25 1.376-.235.39-.61.64-1.063.64-.719 0-1.297-.53-1.469-1.109.032 0 .063.016.172.016.329 0 .5-.25.5-.485 0-.25-.171-.5-.5-.5-.14 0-.484.079-.484.532C.5-.75 1.188.219 2.297.219 3.453.219 4.469-.734 4.469-2zm0 0" stroke="none"/></symbol><symbol id="v" overflow="visible"><path d="M1.625-4.563c-.453-.296-.5-.625-.5-.796 0-.61.656-1.032 1.36-1.032.718 0 1.359.516 1.359 1.235 0 .578-.39 1.047-.985 1.39zm1.453.954c.719-.375 1.203-.891 1.203-1.547 0-.922-.875-1.485-1.781-1.485-1 0-1.813.735-1.813 1.672 0 .172.016.625.438 1.094.11.11.484.36.734.531C1.281-3.047.422-2.5.422-1.5.422-.453 1.438.219 2.484.219c1.125 0 2.079-.828 2.079-1.89 0-.36-.11-.813-.5-1.235-.188-.203-.344-.297-.985-.703zm-1 .421l1.235.782c.28.187.75.484.75 1.094 0 .734-.75 1.25-1.563 1.25C1.64-.063.922-.672.922-1.5c0-.578.312-1.219 1.156-1.688zm0 0" stroke="none"/></symbol></defs><use y="134.765" x="556.852" xlink:href="#q" width="1052.362" height="744.094"/><use y="136.259" x="562.674" xlink:href="#r" width="1052.362" height="744.094"/><use y="146.72" x="534.349" xlink:href="#s" width="1052.362" height="744.094"/><use y="146.72" x="541.406" xlink:href="#t" width="1052.362" height="744.094"/><g><use y="146.72" x="552.195" xlink:href="#u" width="1052.362" height="744.094"/><use y="146.72" x="557.176" xlink:href="#u" width="1052.362" height="744.094"/><use y="146.72" x="562.158" xlink:href="#v" width="1052.362" height="744.094"/></g></g><g ns0:text="\\flushright\n$R _{\\rm{1}}$ \\\\\n$\\unit[220]{\\Omega}$" ns0:preamble="/home/waldgeist/data/sphinx/inkscape-preamble.tex" transform="matrix(2.06343 0 0 2.06343 -873.334 352.486)" stroke="#000" stroke-width=".727"><defs><symbol overflow="visible" id="w"><path d="M3.734-6.125c.063-.234.094-.328.282-.36.093-.015.406-.015.609-.015.703 0 1.813 0 1.813.984 0 .344-.157 1.032-.547 1.422-.266.25-.782.578-1.688.578h-1.11zm1.438 2.734c1.016-.218 2.187-.921 2.187-1.921 0-.86-.89-1.5-2.203-1.5H2.328c-.203 0-.297 0-.297.203 0 .109.094.109.281.109.016 0 .204 0 .376.016.187.03.265.03.265.171 0 .032 0 .063-.031.188L1.578-.781c-.094.39-.11.469-.906.469-.172 0-.266 0-.266.203C.406 0 .531 0 .546 0c.282 0 .985-.031 1.25-.031.282 0 1 .031 1.282.031.078 0 .188 0 .188-.203 0-.11-.079-.11-.282-.11-.359 0-.64 0-.64-.171 0-.063.015-.11.031-.172l.656-2.64H4.22c.906 0 1.078.562 1.078.905 0 .141-.078.454-.14.688-.063.281-.157.64-.157.844C5 .219 6.203.219 6.328.219c.844 0 1.203-1 1.203-1.14 0-.126-.11-.126-.125-.126-.093 0-.11.063-.125.14-.25.735-.687.907-.906.907-.328 0-.406-.219-.406-.61 0-.312.062-.812.11-1.14.015-.14.03-.328.03-.469 0-.765-.671-1.078-.937-1.172zm0 0" stroke="none"/></symbol><symbol overflow="visible" id="x"><path d="M2.328-4.438c0-.187 0-.187-.203-.187-.453.438-1.078.438-1.36.438v.25c.157 0 .626 0 1-.188v3.547c0 .234 0 .328-.687.328H.812V0c.125 0 .985-.031 1.235-.031.219 0 1.094.031 1.25.031v-.25H3.03c-.703 0-.703-.094-.703-.328zm0 0" stroke="none"/></symbol><symbol overflow="visible" id="y"><path d="M1.266-.766l1.062-1.03c1.547-1.376 2.14-1.907 2.14-2.907 0-1.14-.89-1.938-2.109-1.938C1.234-6.64.5-5.719.5-4.828c0 .547.5.547.531.547.172 0 .516-.11.516-.532a.513.513 0 0 0-.531-.515c-.079 0-.094 0-.125.016.218-.657.765-1.016 1.343-1.016.907 0 1.329.812 1.329 1.625 0 .797-.485 1.578-1.047 2.203L.609-.375C.5-.265.5-.235.5 0h3.703l.266-1.734h-.235C4.172-1.438 4.11-1 4-.844c-.063.078-.719.078-.938.078zm0 0" stroke="none"/></symbol><symbol overflow="visible" id="z"><path d="M4.578-3.188c0-.796-.047-1.593-.39-2.328C3.733-6.484 2.905-6.64 2.5-6.64c-.61 0-1.328.266-1.75 1.188-.313.687-.36 1.469-.36 2.266 0 .75.032 1.64.454 2.406a1.83 1.83 0 0 0 1.64 1c.532 0 1.297-.203 1.735-1.157.312-.687.36-1.468.36-2.25zM2.484 0c-.39 0-.984-.25-1.156-1.203-.11-.594-.11-1.516-.11-2.11 0-.64 0-1.296.079-1.828.187-1.187.937-1.28 1.187-1.28.329 0 .985.187 1.172 1.171.11.563.11 1.313.11 1.938 0 .75 0 1.421-.11 2.062C3.5-.297 2.937 0 2.484 0zm0 0" stroke="none"/></symbol><symbol overflow="visible" id="A"><path d="M6.75-1.61H6.5a3.74 3.74 0 0 1-.188.72c-.046.156-.078.25-.656.25H4.86c.141-.563.438-1.047.891-1.704.469-.703.875-1.39.875-2.187 0-1.375-1.344-2.5-3.031-2.5-1.703 0-3.031 1.14-3.031 2.5 0 .797.406 1.484.875 2.187.437.656.75 1.14.89 1.703h-.797c-.578 0-.61-.093-.656-.234-.094-.234-.14-.484-.188-.734h-.25L.766 0h1.593c.22 0 .25 0 .25-.203 0-.703-.312-1.578-.53-2.219-.22-.578-.5-1.36-.5-2.11 0-1.593 1.109-2.28 2.015-2.28.953 0 2.015.718 2.015 2.28 0 .75-.28 1.5-.562 2.313-.156.422-.469 1.328-.469 2.016 0 .203.031.203.25.203h1.594zm0 0" stroke="none"/></symbol></defs><use height="744.094" width="1052.362" xlink:href="#w" x="555.109" y="134.765"/><use height="744.094" width="1052.362" xlink:href="#x" x="562.674" y="136.259"/><use height="744.094" width="1052.362" xlink:href="#y" x="543.344" y="146.72"/><use height="744.094" width="1052.362" xlink:href="#y" x="548.325" y="146.72"/><use height="744.094" width="1052.362" xlink:href="#z" x="553.307" y="146.72"/><g><use height="744.094" width="1052.362" xlink:href="#A" x="559.952" y="146.72"/></g></g><g transform="matrix(2.06343 0 0 2.06343 -68.018 352.486)" ns0:preamble="/home/waldgeist/data/sphinx/inkscape-preamble.tex" ns0:text="$R _{\\rm{2}}$ \\\\\n$\\unit[220]{\\Omega}$" stroke="#000" stroke-width=".727"><defs><symbol id="B" overflow="visible"><path d="M3.734-6.125c.063-.234.094-.328.282-.36.093-.015.406-.015.609-.015.703 0 1.813 0 1.813.984 0 .344-.157 1.032-.547 1.422-.266.25-.782.578-1.688.578h-1.11zm1.438 2.734c1.016-.218 2.187-.921 2.187-1.921 0-.86-.89-1.5-2.203-1.5H2.328c-.203 0-.297 0-.297.203 0 .109.094.109.281.109.016 0 .204 0 .376.016.187.03.265.03.265.171 0 .032 0 .063-.031.188L1.578-.781c-.094.39-.11.469-.906.469-.172 0-.266 0-.266.203C.406 0 .531 0 .546 0c.282 0 .985-.031 1.25-.031.282 0 1 .031 1.282.031.078 0 .188 0 .188-.203 0-.11-.079-.11-.282-.11-.359 0-.64 0-.64-.171 0-.063.015-.11.031-.172l.656-2.64H4.22c.906 0 1.078.562 1.078.905 0 .141-.078.454-.14.688-.063.281-.157.64-.157.844C5 .219 6.203.219 6.328.219c.844 0 1.203-1 1.203-1.14 0-.126-.11-.126-.125-.126-.093 0-.11.063-.125.14-.25.735-.687.907-.906.907-.328 0-.406-.219-.406-.61 0-.312.062-.812.11-1.14.015-.14.03-.328.03-.469 0-.765-.671-1.078-.937-1.172zm0 0" stroke="none"/></symbol><symbol id="C" overflow="visible"><path d="M3.516-1.266H3.28c-.015.157-.094.563-.187.625-.047.047-.578.047-.688.047H1.125c.734-.64.984-.844 1.39-1.172.516-.406 1-.843 1-1.5 0-.843-.734-1.359-1.624-1.359-.86 0-1.454.61-1.454 1.25 0 .344.297.39.376.39.156 0 .359-.124.359-.374 0-.125-.047-.375-.406-.375.218-.485.687-.641 1.015-.641.703 0 1.063.547 1.063 1.11 0 .609-.438 1.078-.656 1.328L.516-.266C.437-.203.437-.187.437 0h2.876zm0 0" stroke="none"/></symbol><symbol id="D" overflow="visible"><path d="M1.266-.766l1.062-1.03c1.547-1.376 2.14-1.907 2.14-2.907 0-1.14-.89-1.938-2.109-1.938C1.234-6.64.5-5.719.5-4.828c0 .547.5.547.531.547.172 0 .516-.11.516-.532a.513.513 0 0 0-.531-.515c-.079 0-.094 0-.125.016.218-.657.765-1.016 1.343-1.016.907 0 1.329.812 1.329 1.625 0 .797-.485 1.578-1.047 2.203L.609-.375C.5-.265.5-.235.5 0h3.703l.266-1.734h-.235C4.172-1.438 4.11-1 4-.844c-.063.078-.719.078-.938.078zm0 0" stroke="none"/></symbol><symbol id="E" overflow="visible"><path d="M4.578-3.188c0-.796-.047-1.593-.39-2.328C3.733-6.484 2.905-6.64 2.5-6.64c-.61 0-1.328.266-1.75 1.188-.313.687-.36 1.469-.36 2.266 0 .75.032 1.64.454 2.406a1.83 1.83 0 0 0 1.64 1c.532 0 1.297-.203 1.735-1.157.312-.687.36-1.468.36-2.25zM2.484 0c-.39 0-.984-.25-1.156-1.203-.11-.594-.11-1.516-.11-2.11 0-.64 0-1.296.079-1.828.187-1.187.937-1.28 1.187-1.28.329 0 .985.187 1.172 1.171.11.563.11 1.313.11 1.938 0 .75 0 1.421-.11 2.062C3.5-.297 2.937 0 2.484 0zm0 0" stroke="none"/></symbol><symbol id="F" overflow="visible"><path d="M6.75-1.61H6.5a3.74 3.74 0 0 1-.188.72c-.046.156-.078.25-.656.25H4.86c.141-.563.438-1.047.891-1.704.469-.703.875-1.39.875-2.187 0-1.375-1.344-2.5-3.031-2.5-1.703 0-3.031 1.14-3.031 2.5 0 .797.406 1.484.875 2.187.437.656.75 1.14.89 1.703h-.797c-.578 0-.61-.093-.656-.234-.094-.234-.14-.484-.188-.734h-.25L.766 0h1.593c.22 0 .25 0 .25-.203 0-.703-.312-1.578-.53-2.219-.22-.578-.5-1.36-.5-2.11 0-1.593 1.109-2.28 2.015-2.28.953 0 2.015.718 2.015 2.28 0 .75-.28 1.5-.562 2.313-.156.422-.469 1.328-.469 2.016 0 .203.031.203.25.203h1.594zm0 0" stroke="none"/></symbol></defs><use y="134.765" x="223.432" xlink:href="#B" width="1052.362" height="744.094"/><use y="136.259" x="230.997" xlink:href="#C" width="1052.362" height="744.094"/><use y="146.72" x="223.432" xlink:href="#D" width="1052.362" height="744.094"/><use y="146.72" x="228.413" xlink:href="#D" width="1052.362" height="744.094"/><use y="146.72" x="233.395" xlink:href="#E" width="1052.362" height="744.094"/><g><use y="146.72" x="240.04" xlink:href="#F" width="1052.362" height="744.094"/></g></g><g transform="matrix(2.06343 0 0 2.06343 -343.62 437.016)" ns0:preamble="/home/waldgeist/data/sphinx/inkscape-preamble.tex" ns0:text="$\\unit[9]{V}$" stroke="#000" stroke-width=".727"><defs><symbol id="G" overflow="visible"><path d="M3.656-3.172v.328c0 2.328-1.031 2.781-1.61 2.781-.171 0-.718-.015-.983-.359.437 0 .515-.281.515-.453 0-.313-.234-.453-.453-.453-.156 0-.453.078-.453.469 0 .671.531 1.078 1.375 1.078 1.297 0 2.515-1.36 2.515-3.5 0-2.688-1.156-3.36-2.046-3.36-.547 0-1.032.188-1.454.625-.421.454-.64.875-.64 1.625 0 1.235.875 2.22 1.984 2.22.61 0 1.016-.423 1.25-1zm-1.234.766c-.156 0-.625 0-.922-.625-.188-.375-.188-.86-.188-1.36 0-.53 0-1 .22-1.375.265-.5.64-.625.984-.625.468 0 .796.344.968.782.11.328.157.953.157 1.406 0 .828-.344 1.797-1.22 1.797zm0 0" stroke="none"/></symbol><symbol id="H" overflow="visible"><path d="M6.188-5.828c.14-.375.406-.656 1.093-.672v-.313c-.312.032-.718.032-.968.032-.297 0-.875-.016-1.141-.032v.313c.516.016.734.266.734.5 0 .078-.031.14-.047.203L4.031-1 2.125-6.031c-.063-.14-.063-.157-.063-.172 0-.297.563-.297.813-.297v-.313c-.36.032-1.047.032-1.422.032-.469 0-.906-.016-1.266-.032v.313c.657 0 .844 0 .985.375L3.484 0c.063.188.11.219.25.219.157 0 .188-.047.235-.188zm0 0" stroke="none"/></symbol></defs><use y="134.765" x="223.432" xlink:href="#G" width="1052.362" height="744.094"/><use y="134.765" x="230.077" xlink:href="#H" width="1052.362" height="744.094"/></g><g ns0:text="\\flushright\n$R _{\\rm{5}}$ \\\\\n$\\unit[220]{\\Omega}$" ns0:preamble="/home/waldgeist/data/sphinx/inkscape-preamble.tex" transform="matrix(2.06343 0 0 2.06343 -379.334 352.486)" stroke="#000" stroke-width=".727"><defs><symbol overflow="visible" id="I"><path d="M3.734-6.125c.063-.234.094-.328.282-.36.093-.015.406-.015.609-.015.703 0 1.813 0 1.813.984 0 .344-.157 1.032-.547 1.422-.266.25-.782.578-1.688.578h-1.11zm1.438 2.734c1.016-.218 2.187-.921 2.187-1.921 0-.86-.89-1.5-2.203-1.5H2.328c-.203 0-.297 0-.297.203 0 .109.094.109.281.109.016 0 .204 0 .376.016.187.03.265.03.265.171 0 .032 0 .063-.031.188L1.578-.781c-.094.39-.11.469-.906.469-.172 0-.266 0-.266.203C.406 0 .531 0 .546 0c.282 0 .985-.031 1.25-.031.282 0 1 .031 1.282.031.078 0 .188 0 .188-.203 0-.11-.079-.11-.282-.11-.359 0-.64 0-.64-.171 0-.063.015-.11.031-.172l.656-2.64H4.22c.906 0 1.078.562 1.078.905 0 .141-.078.454-.14.688-.063.281-.157.64-.157.844C5 .219 6.203.219 6.328.219c.844 0 1.203-1 1.203-1.14 0-.126-.11-.126-.125-.126-.093 0-.11.063-.125.14-.25.735-.687.907-.906.907-.328 0-.406-.219-.406-.61 0-.312.062-.812.11-1.14.015-.14.03-.328.03-.469 0-.765-.671-1.078-.937-1.172zm0 0" stroke="none"/></symbol><symbol overflow="visible" id="J"><path d="M1.078-3.89c.36.093.563.093.672.093.922 0 1.469-.625 1.469-.734 0-.078-.047-.094-.078-.094-.016 0-.032 0-.063.016-.172.062-.531.203-1.047.203-.203 0-.562-.016-1.015-.188-.079-.031-.094-.031-.094-.031-.094 0-.094.078-.094.188v2.046c0 .125 0 .204.11.204.062 0 .078 0 .14-.094.297-.375.734-.438.969-.438.422 0 .61.328.64.39.126.235.172.5.172.907 0 .203 0 .61-.218.922a.984.984 0 0 1-.813.422c-.453 0-.922-.25-1.094-.719.266.016.407-.156.407-.344 0-.296-.266-.343-.36-.343 0 0-.344 0-.344.375 0 .625.579 1.25 1.407 1.25.89 0 1.672-.657 1.672-1.547 0-.782-.594-1.5-1.454-1.5-.312 0-.671.062-.984.328zm0 0" stroke="none"/></symbol><symbol overflow="visible" id="K"><path d="M1.266-.766l1.062-1.03c1.547-1.376 2.14-1.907 2.14-2.907 0-1.14-.89-1.938-2.109-1.938C1.234-6.64.5-5.719.5-4.828c0 .547.5.547.531.547.172 0 .516-.11.516-.532a.513.513 0 0 0-.531-.515c-.079 0-.094 0-.125.016.218-.657.765-1.016 1.343-1.016.907 0 1.329.812 1.329 1.625 0 .797-.485 1.578-1.047 2.203L.609-.375C.5-.265.5-.235.5 0h3.703l.266-1.734h-.235C4.172-1.438 4.11-1 4-.844c-.063.078-.719.078-.938.078zm0 0" stroke="none"/></symbol><symbol overflow="visible" id="L"><path d="M4.578-3.188c0-.796-.047-1.593-.39-2.328C3.733-6.484 2.905-6.64 2.5-6.64c-.61 0-1.328.266-1.75 1.188-.313.687-.36 1.469-.36 2.266 0 .75.032 1.64.454 2.406a1.83 1.83 0 0 0 1.64 1c.532 0 1.297-.203 1.735-1.157.312-.687.36-1.468.36-2.25zM2.484 0c-.39 0-.984-.25-1.156-1.203-.11-.594-.11-1.516-.11-2.11 0-.64 0-1.296.079-1.828.187-1.187.937-1.28 1.187-1.28.329 0 .985.187 1.172 1.171.11.563.11 1.313.11 1.938 0 .75 0 1.421-.11 2.062C3.5-.297 2.937 0 2.484 0zm0 0" stroke="none"/></symbol><symbol overflow="visible" id="M"><path d="M6.75-1.61H6.5a3.74 3.74 0 0 1-.188.72c-.046.156-.078.25-.656.25H4.86c.141-.563.438-1.047.891-1.704.469-.703.875-1.39.875-2.187 0-1.375-1.344-2.5-3.031-2.5-1.703 0-3.031 1.14-3.031 2.5 0 .797.406 1.484.875 2.187.437.656.75 1.14.89 1.703h-.797c-.578 0-.61-.093-.656-.234-.094-.234-.14-.484-.188-.734h-.25L.766 0h1.593c.22 0 .25 0 .25-.203 0-.703-.312-1.578-.53-2.219-.22-.578-.5-1.36-.5-2.11 0-1.593 1.109-2.28 2.015-2.28.953 0 2.015.718 2.015 2.28 0 .75-.28 1.5-.562 2.313-.156.422-.469 1.328-.469 2.016 0 .203.031.203.25.203h1.594zm0 0" stroke="none"/></symbol></defs><use height="744.094" width="1052.362" xlink:href="#I" x="555.109" y="134.765"/><use height="744.094" width="1052.362" xlink:href="#J" x="562.674" y="136.259"/><use height="744.094" width="1052.362" xlink:href="#K" x="543.344" y="146.72"/><use height="744.094" width="1052.362" xlink:href="#K" x="548.325" y="146.72"/><use height="744.094" width="1052.362" xlink:href="#L" x="553.307" y="146.72"/><g><use height="744.094" width="1052.362" xlink:href="#M" x="559.952" y="146.72"/></g></g><g transform="matrix(2.06343 0 0 2.06343 424.84 352.486)" ns0:preamble="/home/waldgeist/data/sphinx/inkscape-preamble.tex" ns0:text="$R _{\\rm{6}}$ \\\\\n$\\unit[220]{\\Omega}$" stroke="#000" stroke-width=".727"><defs><symbol id="N" overflow="visible"><path d="M3.734-6.125c.063-.234.094-.328.282-.36.093-.015.406-.015.609-.015.703 0 1.813 0 1.813.984 0 .344-.157 1.032-.547 1.422-.266.25-.782.578-1.688.578h-1.11zm1.438 2.734c1.016-.218 2.187-.921 2.187-1.921 0-.86-.89-1.5-2.203-1.5H2.328c-.203 0-.297 0-.297.203 0 .109.094.109.281.109.016 0 .204 0 .376.016.187.03.265.03.265.171 0 .032 0 .063-.031.188L1.578-.781c-.094.39-.11.469-.906.469-.172 0-.266 0-.266.203C.406 0 .531 0 .546 0c.282 0 .985-.031 1.25-.031.282 0 1 .031 1.282.031.078 0 .188 0 .188-.203 0-.11-.079-.11-.282-.11-.359 0-.64 0-.64-.171 0-.063.015-.11.031-.172l.656-2.64H4.22c.906 0 1.078.562 1.078.905 0 .141-.078.454-.14.688-.063.281-.157.64-.157.844C5 .219 6.203.219 6.328.219c.844 0 1.203-1 1.203-1.14 0-.126-.11-.126-.125-.126-.093 0-.11.063-.125.14-.25.735-.687.907-.906.907-.328 0-.406-.219-.406-.61 0-.312.062-.812.11-1.14.015-.14.03-.328.03-.469 0-.765-.671-1.078-.937-1.172zm0 0" stroke="none"/></symbol><symbol id="O" overflow="visible"><path d="M1.047-2.281c0-.563.047-1.078.312-1.516.235-.375.61-.625 1.063-.625.203 0 .484.047.625.234-.172.016-.328.141-.328.344a.32.32 0 0 0 .328.328c.219 0 .344-.14.344-.343 0-.407-.297-.766-.985-.766-1 0-2.031.922-2.031 2.422C.375-.406 1.219.14 2 .14c.844 0 1.578-.657 1.578-1.563 0-.89-.703-1.547-1.515-1.547-.563 0-.86.375-1.016.688zM2-.078c-.36 0-.625-.203-.781-.516-.094-.203-.157-.562-.157-.969 0-.687.407-1.203.97-1.203.312 0 .53.125.702.375.172.266.172.563.172.97 0 .39 0 .687-.187.968A.815.815 0 0 1 2-.078zm0 0" stroke="none"/></symbol><symbol id="P" overflow="visible"><path d="M1.266-.766l1.062-1.03c1.547-1.376 2.14-1.907 2.14-2.907 0-1.14-.89-1.938-2.109-1.938C1.234-6.64.5-5.719.5-4.828c0 .547.5.547.531.547.172 0 .516-.11.516-.532a.513.513 0 0 0-.531-.515c-.079 0-.094 0-.125.016.218-.657.765-1.016 1.343-1.016.907 0 1.329.812 1.329 1.625 0 .797-.485 1.578-1.047 2.203L.609-.375C.5-.265.5-.235.5 0h3.703l.266-1.734h-.235C4.172-1.438 4.11-1 4-.844c-.063.078-.719.078-.938.078zm0 0" stroke="none"/></symbol><symbol id="Q" overflow="visible"><path d="M4.578-3.188c0-.796-.047-1.593-.39-2.328C3.733-6.484 2.905-6.64 2.5-6.64c-.61 0-1.328.266-1.75 1.188-.313.687-.36 1.469-.36 2.266 0 .75.032 1.64.454 2.406a1.83 1.83 0 0 0 1.64 1c.532 0 1.297-.203 1.735-1.157.312-.687.36-1.468.36-2.25zM2.484 0c-.39 0-.984-.25-1.156-1.203-.11-.594-.11-1.516-.11-2.11 0-.64 0-1.296.079-1.828.187-1.187.937-1.28 1.187-1.28.329 0 .985.187 1.172 1.171.11.563.11 1.313.11 1.938 0 .75 0 1.421-.11 2.062C3.5-.297 2.937 0 2.484 0zm0 0" stroke="none"/></symbol><symbol id="R" overflow="visible"><path d="M6.75-1.61H6.5a3.74 3.74 0 0 1-.188.72c-.046.156-.078.25-.656.25H4.86c.141-.563.438-1.047.891-1.704.469-.703.875-1.39.875-2.187 0-1.375-1.344-2.5-3.031-2.5-1.703 0-3.031 1.14-3.031 2.5 0 .797.406 1.484.875 2.187.437.656.75 1.14.89 1.703h-.797c-.578 0-.61-.093-.656-.234-.094-.234-.14-.484-.188-.734h-.25L.766 0h1.593c.22 0 .25 0 .25-.203 0-.703-.312-1.578-.53-2.219-.22-.578-.5-1.36-.5-2.11 0-1.593 1.109-2.28 2.015-2.28.953 0 2.015.718 2.015 2.28 0 .75-.28 1.5-.562 2.313-.156.422-.469 1.328-.469 2.016 0 .203.031.203.25.203h1.594zm0 0" stroke="none"/></symbol></defs><use y="134.765" x="223.432" xlink:href="#N" width="1052.362" height="744.094"/><use y="136.259" x="230.997" xlink:href="#O" width="1052.362" height="744.094"/><use y="146.72" x="223.432" xlink:href="#P" width="1052.362" height="744.094"/><use y="146.72" x="228.413" xlink:href="#P" width="1052.362" height="744.094"/><use y="146.72" x="233.395" xlink:href="#Q" width="1052.362" height="744.094"/><g><use y="146.72" x="240.04" xlink:href="#R" width="1052.362" height="744.094"/></g></g><g transform="matrix(2.06343 0 0 2.06343 76.36 352.712)" ns0:preamble="/home/waldgeist/data/sphinx/inkscape-preamble.tex" ns0:text="$R _{\\rm{3}}$ \\\\\n$\\unit[22]{k\\Omega}$" stroke="#000" stroke-width=".727"><defs><symbol id="S" overflow="visible"><path d="M3.734-6.125c.063-.234.094-.328.282-.36.093-.015.406-.015.609-.015.703 0 1.813 0 1.813.984 0 .344-.157 1.032-.547 1.422-.266.25-.782.578-1.688.578h-1.11zm1.438 2.734c1.016-.218 2.187-.921 2.187-1.921 0-.86-.89-1.5-2.203-1.5H2.328c-.203 0-.297 0-.297.203 0 .109.094.109.281.109.016 0 .204 0 .376.016.187.03.265.03.265.171 0 .032 0 .063-.031.188L1.578-.781c-.094.39-.11.469-.906.469-.172 0-.266 0-.266.203C.406 0 .531 0 .546 0c.282 0 .985-.031 1.25-.031.282 0 1 .031 1.282.031.078 0 .188 0 .188-.203 0-.11-.079-.11-.282-.11-.359 0-.64 0-.64-.171 0-.063.015-.11.031-.172l.656-2.64H4.22c.906 0 1.078.562 1.078.905 0 .141-.078.454-.14.688-.063.281-.157.64-.157.844C5 .219 6.203.219 6.328.219c.844 0 1.203-1 1.203-1.14 0-.126-.11-.126-.125-.126-.093 0-.11.063-.125.14-.25.735-.687.907-.906.907-.328 0-.406-.219-.406-.61 0-.312.062-.812.11-1.14.015-.14.03-.328.03-.469 0-.765-.671-1.078-.937-1.172zm0 0" stroke="none"/></symbol><symbol id="T" overflow="visible"><path d="M1.906-2.328c.547 0 .938.375.938 1.125 0 .86-.516 1.125-.906 1.125-.282 0-.907-.078-1.188-.5.328 0 .406-.235.406-.39 0-.22-.172-.376-.39-.376a.38.38 0 0 0-.391.407C.375-.281 1.094.14 1.938.14c.968 0 1.64-.657 1.64-1.344 0-.547-.437-1.094-1.203-1.25.719-.266.984-.781.984-1.219 0-.547-.625-.953-1.406-.953-.766 0-1.36.375-1.36.938 0 .234.157.359.36.359.219 0 .36-.156.36-.344 0-.203-.141-.36-.36-.375.25-.297.719-.375.985-.375.312 0 .75.156.75.75 0 .297-.094.625-.282.828-.219.266-.422.281-.765.313-.172.015-.188.015-.22.015-.015 0-.077.016-.077.094 0 .094.062.094.187.094zm0 0" stroke="none"/></symbol><symbol id="U" overflow="visible"><path d="M1.266-.766l1.062-1.03c1.547-1.376 2.14-1.907 2.14-2.907 0-1.14-.89-1.938-2.109-1.938C1.234-6.64.5-5.719.5-4.828c0 .547.5.547.531.547.172 0 .516-.11.516-.532a.513.513 0 0 0-.531-.515c-.079 0-.094 0-.125.016.218-.657.765-1.016 1.343-1.016.907 0 1.329.812 1.329 1.625 0 .797-.485 1.578-1.047 2.203L.609-.375C.5-.265.5-.235.5 0h3.703l.266-1.734h-.235C4.172-1.438 4.11-1 4-.844c-.063.078-.719.078-.938.078zm0 0" stroke="none"/></symbol><symbol id="V" overflow="visible"><path d="M1.063-.75c0 .438-.11.438-.782.438V0c.328-.016.797-.031 1.078-.031.313 0 .704.015 1.11.031v-.313c-.672 0-.781 0-.781-.437v-1.031l.64-.547c.766 1.047 1.188 1.61 1.188 1.797 0 .187-.172.219-.36.219V0c.266-.016.86-.031 1.078-.031.282 0 .579.015.86.031v-.313c-.375 0-.594 0-.969-.53L2.859-2.626c-.015-.016-.062-.078-.062-.11 0-.03.719-.64.812-.718.625-.5 1.047-.531 1.25-.531v-.313c-.28.031-.406.031-.687.031-.36 0-.984-.015-1.125-.03v.312c.187 0 .297.109.297.25 0 .203-.14.312-.219.39L1.719-2.14v-4.78L.28-6.813v.312c.703 0 .781.063.781.563zm0 0" stroke="none"/></symbol><symbol id="W" overflow="visible"><path d="M6.75-1.61H6.5a3.74 3.74 0 0 1-.188.72c-.046.156-.078.25-.656.25H4.86c.141-.563.438-1.047.891-1.704.469-.703.875-1.39.875-2.187 0-1.375-1.344-2.5-3.031-2.5-1.703 0-3.031 1.14-3.031 2.5 0 .797.406 1.484.875 2.187.437.656.75 1.14.89 1.703h-.797c-.578 0-.61-.093-.656-.234-.094-.234-.14-.484-.188-.734h-.25L.766 0h1.593c.22 0 .25 0 .25-.203 0-.703-.312-1.578-.53-2.219-.22-.578-.5-1.36-.5-2.11 0-1.593 1.109-2.28 2.015-2.28.953 0 2.015.718 2.015 2.28 0 .75-.28 1.5-.562 2.313-.156.422-.469 1.328-.469 2.016 0 .203.031.203.25.203h1.594zm0 0" stroke="none"/></symbol></defs><use y="134.765" x="223.432" xlink:href="#S" width="1052.362" height="744.094"/><use y="136.259" x="230.997" xlink:href="#T" width="1052.362" height="744.094"/><use y="146.72" x="223.432" xlink:href="#U" width="1052.362" height="744.094"/><use y="146.72" x="228.413" xlink:href="#U" width="1052.362" height="744.094"/><g><use y="146.72" x="235.058" xlink:href="#V" width="1052.362" height="744.094"/><use y="146.72" x="240.317" xlink:href="#W" width="1052.362" height="744.094"/></g></g><g ns0:text="\\flushright\n$R _{\\rm{4}}$ \\\\\n$\\unit[22]{k\\Omega}$" ns0:preamble="/home/waldgeist/data/sphinx/inkscape-preamble.tex" transform="matrix(2.06343 0 0 2.06343 -522.106 352.712)" stroke="#000" stroke-width=".727"><defs><symbol overflow="visible" id="X"><path d="M3.734-6.125c.063-.234.094-.328.282-.36.093-.015.406-.015.609-.015.703 0 1.813 0 1.813.984 0 .344-.157 1.032-.547 1.422-.266.25-.782.578-1.688.578h-1.11zm1.438 2.734c1.016-.218 2.187-.921 2.187-1.921 0-.86-.89-1.5-2.203-1.5H2.328c-.203 0-.297 0-.297.203 0 .109.094.109.281.109.016 0 .204 0 .376.016.187.03.265.03.265.171 0 .032 0 .063-.031.188L1.578-.781c-.094.39-.11.469-.906.469-.172 0-.266 0-.266.203C.406 0 .531 0 .546 0c.282 0 .985-.031 1.25-.031.282 0 1 .031 1.282.031.078 0 .188 0 .188-.203 0-.11-.079-.11-.282-.11-.359 0-.64 0-.64-.171 0-.063.015-.11.031-.172l.656-2.64H4.22c.906 0 1.078.562 1.078.905 0 .141-.078.454-.14.688-.063.281-.157.64-.157.844C5 .219 6.203.219 6.328.219c.844 0 1.203-1 1.203-1.14 0-.126-.11-.126-.125-.126-.093 0-.11.063-.125.14-.25.735-.687.907-.906.907-.328 0-.406-.219-.406-.61 0-.312.062-.812.11-1.14.015-.14.03-.328.03-.469 0-.765-.671-1.078-.937-1.172zm0 0" stroke="none"/></symbol><symbol overflow="visible" id="Y"><path d="M3.688-1.14v-.25h-.782V-4.5c0-.14 0-.203-.14-.203-.094 0-.125 0-.188.11L.266-1.392v.25h2.062v.563c0 .25 0 .328-.578.328h-.188V0c.36-.016.797-.031 1.047-.031.266 0 .704.015 1.063.031v-.25h-.188c-.578 0-.578-.078-.578-.328v-.563zM2.375-3.939v2.547H.531zm0 0" stroke="none"/></symbol><symbol overflow="visible" id="Z"><path d="M1.266-.766l1.062-1.03c1.547-1.376 2.14-1.907 2.14-2.907 0-1.14-.89-1.938-2.109-1.938C1.234-6.64.5-5.719.5-4.828c0 .547.5.547.531.547.172 0 .516-.11.516-.532a.513.513 0 0 0-.531-.515c-.079 0-.094 0-.125.016.218-.657.765-1.016 1.343-1.016.907 0 1.329.812 1.329 1.625 0 .797-.485 1.578-1.047 2.203L.609-.375C.5-.265.5-.235.5 0h3.703l.266-1.734h-.235C4.172-1.438 4.11-1 4-.844c-.063.078-.719.078-.938.078zm0 0" stroke="none"/></symbol><symbol overflow="visible" id="aa"><path d="M1.063-.75c0 .438-.11.438-.782.438V0c.328-.016.797-.031 1.078-.031.313 0 .704.015 1.11.031v-.313c-.672 0-.781 0-.781-.437v-1.031l.64-.547c.766 1.047 1.188 1.61 1.188 1.797 0 .187-.172.219-.36.219V0c.266-.016.86-.031 1.078-.031.282 0 .579.015.86.031v-.313c-.375 0-.594 0-.969-.53L2.859-2.626c-.015-.016-.062-.078-.062-.11 0-.03.719-.64.812-.718.625-.5 1.047-.531 1.25-.531v-.313c-.28.031-.406.031-.687.031-.36 0-.984-.015-1.125-.03v.312c.187 0 .297.109.297.25 0 .203-.14.312-.219.39L1.719-2.14v-4.78L.28-6.813v.312c.703 0 .781.063.781.563zm0 0" stroke="none"/></symbol><symbol overflow="visible" id="ab"><path d="M6.75-1.61H6.5a3.74 3.74 0 0 1-.188.72c-.046.156-.078.25-.656.25H4.86c.141-.563.438-1.047.891-1.704.469-.703.875-1.39.875-2.187 0-1.375-1.344-2.5-3.031-2.5-1.703 0-3.031 1.14-3.031 2.5 0 .797.406 1.484.875 2.187.437.656.75 1.14.89 1.703h-.797c-.578 0-.61-.093-.656-.234-.094-.234-.14-.484-.188-.734h-.25L.766 0h1.593c.22 0 .25 0 .25-.203 0-.703-.312-1.578-.53-2.219-.22-.578-.5-1.36-.5-2.11 0-1.593 1.109-2.28 2.015-2.28.953 0 2.015.718 2.015 2.28 0 .75-.28 1.5-.562 2.313-.156.422-.469 1.328-.469 2.016 0 .203.031.203.25.203h1.594zm0 0" stroke="none"/></symbol></defs><use height="744.094" width="1052.362" xlink:href="#X" x="555.109" y="134.765"/><use height="744.094" width="1052.362" xlink:href="#Y" x="562.674" y="136.259"/><use height="744.094" width="1052.362" xlink:href="#Z" x="543.067" y="146.72"/><use height="744.094" width="1052.362" xlink:href="#Z" x="548.048" y="146.72"/><g><use height="744.094" width="1052.362" xlink:href="#aa" x="554.693" y="146.72"/><use height="744.094" width="1052.362" xlink:href="#ab" x="559.952" y="146.72"/></g></g><g transform="matrix(2.06343 0 0 2.06343 -38.44 508.624)" ns0:preamble="/home/waldgeist/data/sphinx/inkscape-preamble.tex" ns0:text="$\\unit[10]{\\mu F}$" stroke="#000" stroke-width=".727"><defs><symbol id="ac" overflow="visible"><path d="M2.938-6.375c0-.25 0-.266-.235-.266C2.078-6 1.203-6 .891-6v.313c.203 0 .78 0 1.296-.266v5.172c0 .36-.03.469-.921.469H.953V0c.344-.031 1.203-.031 1.61-.031.39 0 1.265 0 1.609.031v-.313h-.313c-.906 0-.921-.109-.921-.468zm0 0" stroke="none"/></symbol><symbol id="ad" overflow="visible"><path d="M4.578-3.188c0-.796-.047-1.593-.39-2.328C3.733-6.484 2.905-6.64 2.5-6.64c-.61 0-1.328.266-1.75 1.188-.313.687-.36 1.469-.36 2.266 0 .75.032 1.64.454 2.406a1.83 1.83 0 0 0 1.64 1c.532 0 1.297-.203 1.735-1.157.312-.687.36-1.468.36-2.25zM2.484 0c-.39 0-.984-.25-1.156-1.203-.11-.594-.11-1.516-.11-2.11 0-.64 0-1.296.079-1.828.187-1.187.937-1.28 1.187-1.28.329 0 .985.187 1.172 1.171.11.563.11 1.313.11 1.938 0 .75 0 1.421-.11 2.062C3.5-.297 2.937 0 2.484 0zm0 0" stroke="none"/></symbol><symbol id="af" overflow="visible"><path d="M5.797-6.781H.328v.312h.234c.766 0 .797.11.797.469v5.219c0 .36-.03.469-.796.469H.328V0c.344-.031 1.125-.031 1.516-.031.406 0 1.312 0 1.672.031v-.313h-.329c-.937 0-.937-.124-.937-.468v-2.453h.844c.969 0 1.062.312 1.062 1.156h.25v-2.64h-.25c0 .843-.093 1.171-1.062 1.171H2.25v-2.531c0-.328.016-.39.484-.39h1.188c1.5 0 1.75.562 1.906 1.937h.25zm0 0" stroke="none"/></symbol><symbol id="ae" overflow="visible"><path d="M2.297-3.5c.062-.203.156-.594.156-.64 0-.173-.125-.266-.297-.266-.015 0-.297.015-.39.36L.328 1.718c-.031.125-.031.14-.031.172 0 .14.11.265.281.265.203 0 .328-.187.344-.219.047-.078.172-.609.547-2.14.328.266.781.312.968.312.704 0 1.094-.453 1.329-.734a.904.904 0 0 0 .906.734c.344 0 .578-.234.734-.546.172-.36.297-.97.297-.985 0-.11-.094-.11-.125-.11-.094 0-.11.048-.14.188-.157.64-.344 1.235-.75 1.235-.266 0-.297-.266-.297-.454 0-.218.109-.687.187-1.046l.281-1.079c.032-.14.141-.515.172-.671.047-.235.157-.61.157-.672 0-.172-.141-.266-.297-.266-.047 0-.313.016-.391.344l-.469 1.875c-.11.5-.218.906-.25 1.015-.015.047-.484.954-1.297.954-.5 0-.734-.329-.734-.875 0-.282.063-.563.14-.844zm0 0" stroke="none"/></symbol></defs><use y="134.765" x="223.432" xlink:href="#ac" width="1052.362" height="744.094"/><use y="134.765" x="228.413" xlink:href="#ad" width="1052.362" height="744.094"/><use y="134.765" x="235.055" xlink:href="#ae" width="1052.362" height="744.094"/><g><use y="134.765" x="241.058" xlink:href="#af" width="1052.362" height="744.094"/></g></g><g ns0:text="$\\unit[100]{\\mu F}$" ns0:preamble="/home/waldgeist/data/sphinx/inkscape-preamble.tex" transform="matrix(2.06343 0 0 2.06343 246.007 508.624)" stroke="#000" stroke-width=".727"><defs><symbol overflow="visible" id="ag"><path d="M2.938-6.375c0-.25 0-.266-.235-.266C2.078-6 1.203-6 .891-6v.313c.203 0 .78 0 1.296-.266v5.172c0 .36-.03.469-.921.469H.953V0c.344-.031 1.203-.031 1.61-.031.39 0 1.265 0 1.609.031v-.313h-.313c-.906 0-.921-.109-.921-.468zm0 0" stroke="none"/></symbol><symbol overflow="visible" id="ah"><path d="M4.578-3.188c0-.796-.047-1.593-.39-2.328C3.733-6.484 2.905-6.64 2.5-6.64c-.61 0-1.328.266-1.75 1.188-.313.687-.36 1.469-.36 2.266 0 .75.032 1.64.454 2.406a1.83 1.83 0 0 0 1.64 1c.532 0 1.297-.203 1.735-1.157.312-.687.36-1.468.36-2.25zM2.484 0c-.39 0-.984-.25-1.156-1.203-.11-.594-.11-1.516-.11-2.11 0-.64 0-1.296.079-1.828.187-1.187.937-1.28 1.187-1.28.329 0 .985.187 1.172 1.171.11.563.11 1.313.11 1.938 0 .75 0 1.421-.11 2.062C3.5-.297 2.937 0 2.484 0zm0 0" stroke="none"/></symbol><symbol overflow="visible" id="aj"><path d="M5.797-6.781H.328v.312h.234c.766 0 .797.11.797.469v5.219c0 .36-.03.469-.796.469H.328V0c.344-.031 1.125-.031 1.516-.031.406 0 1.312 0 1.672.031v-.313h-.329c-.937 0-.937-.124-.937-.468v-2.453h.844c.969 0 1.062.312 1.062 1.156h.25v-2.64h-.25c0 .843-.093 1.171-1.062 1.171H2.25v-2.531c0-.328.016-.39.484-.39h1.188c1.5 0 1.75.562 1.906 1.937h.25zm0 0" stroke="none"/></symbol><symbol overflow="visible" id="ai"><path d="M2.297-3.5c.062-.203.156-.594.156-.64 0-.173-.125-.266-.297-.266-.015 0-.297.015-.39.36L.328 1.718c-.031.125-.031.14-.031.172 0 .14.11.265.281.265.203 0 .328-.187.344-.219.047-.078.172-.609.547-2.14.328.266.781.312.968.312.704 0 1.094-.453 1.329-.734a.904.904 0 0 0 .906.734c.344 0 .578-.234.734-.546.172-.36.297-.97.297-.985 0-.11-.094-.11-.125-.11-.094 0-.11.048-.14.188-.157.64-.344 1.235-.75 1.235-.266 0-.297-.266-.297-.454 0-.218.109-.687.187-1.046l.281-1.079c.032-.14.141-.515.172-.671.047-.235.157-.61.157-.672 0-.172-.141-.266-.297-.266-.047 0-.313.016-.391.344l-.469 1.875c-.11.5-.218.906-.25 1.015-.015.047-.484.954-1.297.954-.5 0-.734-.329-.734-.875 0-.282.063-.563.14-.844zm0 0" stroke="none"/></symbol></defs><use height="744.094" width="1052.362" xlink:href="#ag" x="223.432" y="134.765"/><use height="744.094" width="1052.362" xlink:href="#ah" x="228.413" y="134.765"/><use height="744.094" width="1052.362" xlink:href="#ah" x="233.395" y="134.765"/><g><use height="744.094" width="1052.362" xlink:href="#ai" x="240.037" y="134.765"/></g><g><use height="744.094" width="1052.362" xlink:href="#aj" x="246.039" y="134.765"/></g></g><path d="M838.804 464.654a2.344 2.344 0 1 1 0-4.687 2.344 2.344 0 1 1 0 4.687z" stroke="#000" stroke-width="1.50015906" stroke-linecap="round"/><path d="M316.536 462.31h58.556" fill="none" stroke="#000" stroke-width="1.5" stroke-linecap="round"/></g></svg>