<svg xmlns="http://www.w3.org/2000/svg" width="1052.362" height="1488.189"><title>Schaltplan Kirchhoffsche Regeln 1</title><defs><marker orient="auto" id="a" overflow="visible"><path d="M-2.308 0l3.46-2v4l-3.46-2z" fill-rule="evenodd" stroke="#000" stroke-width=".4pt"/></marker></defs><path d="M240.016 755.998v101.008M240.016 631.183v100.396" fill="none" stroke="#000" stroke-width="3"/><g fill="none" stroke="#000" stroke-width="3.372"><path d="M893.302 1257.256v-200.939M869.468 1120.08v73.413" transform="matrix(0 -1 .79163 0 -675.735 1625.131)"/></g><g fill="none" stroke="#000" stroke-width=".892"><path d="M178.867 664.863V697.9M160.48 681.38h33.036" stroke-width="3.00141052"/></g><path d="M178.867 789.984v33.036" fill="none" stroke="#000" stroke-width="3"/><path d="M240.016 282.392h225.823" fill="none" stroke="#000" stroke-width="3" stroke-linecap="square"/><path d="M578.75 348.944h225.823" fill="#0000de" stroke="#000" stroke-width="3" stroke-linecap="square"/><path d="M141.37 683.252h112.912" fill="none" stroke="#000" stroke-width="3.908" stroke-linecap="square" transform="matrix(0 -.58942 1 0 8.41 432.27)"/><path d="M697.012 348.944a5.35 5.35 0 1 1-10.7 0 5.35 5.35 0 0 1 10.7 0z" stroke="#000" stroke-width="3.9423000000000004" stroke-linecap="round"/><g stroke-width="8.138" fill="none" stroke="#000"><path d="M804.573 461.855v40.416" stroke-width="2.99991094"/><path stroke-linejoin="round" stroke-dashoffset="4" d="M833.676 501.605v145.514H775.47V501.605z" stroke-width="2.99991094"/><path d="M804.573 647.119v40.48" stroke-width="2.99991094"/><path d="M400.315 136.727V5.57h307.187" marker-start="url(#a)" transform="rotate(90 233.573 660.366) scale(.36863)"/></g><path d="M240.016 631.183V282.392M465.839 282.392H691.66" fill="none" stroke="#000" stroke-width="3" stroke-linecap="square"/><path d="M578.75 913.422h225.823" fill="#0000de" stroke="#000" stroke-width="3" stroke-linecap="square"/><path d="M141.37 683.252h112.912" fill="none" stroke="#000" stroke-width="3.908" stroke-linecap="square" transform="matrix(0 .58942 1 0 8.409 830.096)"/><path d="M697.012 913.422a5.35 5.35 0 1 0-10.7 0 5.35 5.35 0 0 0 10.7 0z" stroke="#000" stroke-width="3.9423000000000004" stroke-linecap="round"/><path d="M804.573 348.944v112.911M578.75 348.944v112.911" fill="none" stroke="#000" stroke-width="3" stroke-linecap="square"/><g stroke-width="8.138" fill="none" stroke="#000"><path d="M578.75 461.855v40.416" stroke-width="2.99991094"/><path stroke-linejoin="round" stroke-dashoffset="4" d="M607.853 501.605v145.514h-58.206V501.605z" stroke-width="2.99991094"/><path d="M578.75 647.119v40.48" stroke-width="2.99991094"/><path d="M400.315 136.727V5.57h307.187" marker-start="url(#a)" transform="rotate(90 120.66 547.454) scale(.36863)"/></g><path d="M578.75 747.152v-59.553M578.75 913.422V853.87" fill="none" stroke="#000" stroke-width="3" stroke-linecap="square"/><path style="marker:none" d="M435.827 100.866c0 5.87-6.346 10.63-14.173 10.63-7.828 0-14.174-4.76-14.174-10.63 0-5.87 6.346-10.63 14.174-10.63 7.827 0 14.173 4.76 14.173 10.63z" transform="matrix(0 3.76475 5.01966 0 72.437 -786.91)" color="#000" fill="none" stroke="#000" stroke-width=".69" stroke-linecap="square" overflow="visible"/><text transform="translate(-104.502 941.88)" y="-118.557" x="661.136" style="line-height:125%;-inkscape-font-specification:Arial" font-size="66.318" font-weight="400" letter-spacing="0" word-spacing="0" font-family="Arial"><tspan y="-118.557" x="661.136">A</tspan></text><g><path d="M804.573 747.152v-59.553M804.573 913.422V853.87" fill="none" stroke="#000" stroke-width="3" stroke-linecap="square"/><path transform="matrix(0 3.76475 5.01966 0 298.26 -786.91)" d="M435.827 100.866c0 5.87-6.346 10.63-14.173 10.63-7.828 0-14.174-4.76-14.174-10.63 0-5.87 6.346-10.63 14.174-10.63 7.827 0 14.173 4.76 14.173 10.63z" style="marker:none" color="#000" fill="none" stroke="#000" stroke-width=".69" stroke-linecap="square" overflow="visible"/><text style="line-height:125%;-inkscape-font-specification:Arial" x="661.136" y="-118.557" transform="translate(121.32 941.88)" font-size="66.318" font-weight="400" letter-spacing="0" word-spacing="0" font-family="Arial"><tspan x="661.136" y="-118.557">A</tspan></text></g><g><path d="M691.661 1039.527v-59.553M691.661 1205.797v-59.553" fill="none" stroke="#000" stroke-width="3" stroke-linecap="square"/><path style="marker:none" d="M435.827 100.866c0 5.87-6.346 10.63-14.173 10.63-7.828 0-14.174-4.76-14.174-10.63 0-5.87 6.346-10.63 14.174-10.63 7.827 0 14.173 4.76 14.173 10.63z" transform="matrix(0 3.76475 5.01966 0 185.348 -494.536)" color="#000" fill="none" stroke="#000" stroke-width=".69" stroke-linecap="square" overflow="visible"/><text transform="translate(8.409 1234.256)" y="-118.557" x="661.136" style="line-height:125%;-inkscape-font-specification:Arial" font-size="66.318" font-weight="400" letter-spacing="0" word-spacing="0" font-family="Arial"><tspan y="-118.557" x="661.136">A</tspan></text></g><g><path d="M465.839 1205.797H691.66" fill="none" stroke="#000" stroke-width="3" stroke-linecap="square"/></g><g><path d="M240.016 1185.683V857.006" fill="none" stroke="#000" stroke-width="3" stroke-linecap="square"/></g><g><path d="M240.016 1205.797v-20.114" fill="none" stroke="#000" stroke-width="3" stroke-linecap="square"/></g><g><path d="M240.016 1205.797h225.823" fill="none" stroke="#000" stroke-width="3" stroke-linecap="square"/></g></svg>