<svg xmlns:ns0="http://www.iki.fi/pav/software/textext/" xmlns="http://www.w3.org/2000/svg" xmlns:xlink="http://www.w3.org/1999/xlink" width="1052.362" height="744.094"><title>Wheatstonesche Messbruecke</title><defs><marker id="m" orient="auto" overflow="visible"><path d="M-2.308 0l3.46-2v4l-3.46-2z" fill-rule="evenodd" stroke="#000" stroke-width=".4pt"/></marker><linearGradient id="d"><stop offset="0" stop-opacity="0"/><stop offset="1" stop-color="#fff"/></linearGradient><linearGradient id="e"><stop offset="0" stop-color="#fff"/><stop offset="1" stop-color="#fff" stop-opacity="0"/></linearGradient><linearGradient id="f"><stop offset="0" stop-color="#1a1a1a" stop-opacity=".828"/><stop offset="1" stop-color="#fff"/></linearGradient><linearGradient id="a"><stop offset="0" stop-opacity="0"/><stop offset="1" stop-color="#fff"/></linearGradient><linearGradient id="b"><stop offset="0" stop-color="#ebebeb"/><stop offset="1" stop-color="#fff" stop-opacity="0"/></linearGradient><linearGradient id="c"><stop offset="0" stop-color="#0e0e0e" stop-opacity=".746"/><stop offset="1" stop-color="#fff"/></linearGradient><pattern id="g" height="5.181" width="30.066" patternUnits="userSpaceOnUse"><path d="M7.597.061C5.079-.187 2.656.302-.01 1.788v1.273c2.783-1.63 5.183-2.009 7.482-1.781 2.298.228 4.497 1.081 6.781 1.938 4.567 1.713 9.551 3.458 15.813-.157l-.004-1.273c-6.44 3.709-10.816 1.982-15.371.273-2.278-.854-4.576-1.75-7.094-2z"/></pattern><pattern xlink:href="#g" id="h" patternTransform="translate(.25)"/><linearGradient id="i"><stop offset="0" stop-color="#858585"/><stop offset="1" stop-color="#cecece"/></linearGradient><linearGradient id="k"><stop offset="0"/><stop offset="1" stop-color="#ddd" stop-opacity=".992"/></linearGradient><linearGradient id="l"><stop offset="0"/><stop offset="1" stop-color="#ddd" stop-opacity=".992"/></linearGradient><linearGradient id="j"><stop offset="0" stop-color="#858585"/><stop offset="1" stop-color="#cecece"/></linearGradient></defs><g transform="translate(0 -308.268)"><rect style="marker:none" width="345.48" height="284.78" x="353.441" y="537.925" rx="0" ry="0" color="#000" overflow="visible" fill="#fff" stroke="#fff" stroke-linecap="round" stroke-linejoin="bevel"/><g transform="matrix(.3134 0 0 .3134 -58.236 577.484)" stroke="#000" stroke-width="3.191" stroke-linecap="round"><g transform="translate(1550.675 43.72)"><g stroke-width=".948" fill="none"><path d="M253.536-86.061H193.91M26.959-86.061h59.625l107.326-35.775" stroke-width="3.19052244"/></g><circle transform="translate(-77.527 -44.84) scale(.78846)" cx="210.714" cy="-52.281" r="6.786" stroke-width="4.047"/></g><circle transform="translate(1578.446 -1.12) scale(.78846)" cx="210.714" cy="-52.281" r="6.786" stroke-width="4.047"/></g><g stroke="#000" stroke-width="3.187"><path d="M398.688 688.82v31.697M398.688 649.65v31.506" fill="none" stroke-linecap="round" stroke-width="1.00011247"/><g stroke-width="3.582" fill="none" stroke-linecap="round"><path d="M893.302 1257.256v-200.939M869.468 1120.08v73.413" transform="matrix(0 -.31381 .24842 0 111.313 961.564)"/></g><g fill="none" stroke-linecap="round" stroke-width=".947"><path d="M379.498 660.22v10.367M373.729 665.403h10.367" stroke-width=".9999562399999999"/></g><path d="M379.498 699.484v10.367" fill="none" stroke-linecap="round" stroke-width="1.00011247"/></g><path d="M398.688 651.002v-86.787M398.688 805.952v-85.435M453.832 564.215H398.35M545.031 648.605v-84.39M545.37 661.305v47.557" fill="none" stroke="#000" stroke-linecap="round"/><ellipse ry="10.63" rx="14.173" cy="100.866" cx="421.654" style="marker:none" transform="matrix(0 -1.13232 1.50976 0 438.536 1162.53)" color="#000" overflow="visible" fill="#fff" stroke="#000" stroke-width=".765" stroke-linecap="square"/><text y="164.183" x="-705.369" style="line-height:125%;-inkscape-font-specification:Arial" transform="matrix(-.30077 0 0 .30077 385.319 642.564)" font-weight="400" font-size="66.318" font-family="Arial" letter-spacing="0" word-spacing="0"><tspan y="164.183" x="-705.369">A</tspan></text><path transform="matrix(.3253 0 0 -.32468 132.09 599.441)" fill="#fff" stroke-linecap="round" d="M1240.493-190.536h59.901v145.952h-59.901z" stroke="#000" stroke-width="3.077"/><path transform="matrix(.3253 0 0 -.32468 133.784 663.236)" fill="#fff" stroke-linecap="round" d="M1235.284-286.478h59.901v145.952h-59.901z" stroke="#000" stroke-width="3.077"/><g stroke-width="8.394" fill="none" stroke="#000"><path stroke-linejoin="round" stroke-dashoffset="4" d="M639.967 661.452v47.027h18.811v-47.027z" stroke-width=".99997722"/><path d="M400.315 136.727V16.39l.992-130.753" stroke-linecap="round" marker-start="url(#m)" transform="matrix(0 .11913 .11913 0 620.493 637.274)"/></g><path d="M649.035 564.215H545.03M649.035 805.952V708.48M649.035 661.452v-97.237M649.035 805.952H545.369" fill="none" stroke="#000" stroke-linecap="round"/><g transform="matrix(1.5003 0 0 1.5003 337.579 516.47)" ns0:preamble="/home/waldgeist/data/homepage/inkscape-preamble.tex" ns0:text="$R _{\\rm{1}}$" stroke-width=".667"><defs><symbol id="n" overflow="visible"><path d="M3.734-6.125c.063-.234.094-.328.282-.36.093-.015.406-.015.609-.015.703 0 1.813 0 1.813.984 0 .344-.157 1.032-.547 1.422-.266.25-.782.578-1.688.578h-1.11zm1.438 2.734c1.016-.218 2.187-.921 2.187-1.921 0-.86-.89-1.5-2.203-1.5H2.328c-.203 0-.297 0-.297.203 0 .109.094.109.281.109.016 0 .204 0 .376.016.187.03.265.03.265.171 0 .032 0 .063-.031.188L1.578-.781c-.094.39-.11.469-.906.469-.172 0-.266 0-.266.203C.406 0 .531 0 .546 0c.282 0 .985-.031 1.25-.031.282 0 1 .031 1.282.031.078 0 .188 0 .188-.203 0-.11-.079-.11-.282-.11-.359 0-.64 0-.64-.171 0-.063.015-.11.031-.172l.656-2.64H4.22c.906 0 1.078.562 1.078.905 0 .141-.078.454-.14.688-.063.281-.157.64-.157.844C5 .219 6.203.219 6.328.219c.844 0 1.203-1 1.203-1.14 0-.126-.11-.126-.125-.126-.093 0-.11.063-.125.14-.25.735-.687.907-.906.907-.328 0-.406-.219-.406-.61 0-.312.062-.812.11-1.14.015-.14.03-.328.03-.469 0-.765-.671-1.078-.937-1.172zm0 0"/></symbol><symbol id="o" overflow="visible"><path d="M2.328-4.438c0-.187 0-.187-.203-.187-.453.438-1.078.438-1.36.438v.25c.157 0 .626 0 1-.188v3.547c0 .234 0 .328-.687.328H.812V0c.125 0 .985-.031 1.235-.031.219 0 1.094.031 1.25.031v-.25H3.03c-.703 0-.703-.094-.703-.328zm0 0"/></symbol></defs><use y="83.403" x="118.801" xlink:href="#n" width="1052.362" height="744.094"/><use y="84.898" x="126.366" xlink:href="#o" width="1052.362" height="744.094"/></g><g ns0:text="$R _{\\rm{2}}$" ns0:preamble="/home/waldgeist/data/homepage/inkscape-preamble.tex" transform="matrix(1.5003 0 0 1.5003 336.138 611.415)" stroke-width=".667"><defs><symbol overflow="visible" id="p"><path d="M3.734-6.125c.063-.234.094-.328.282-.36.093-.015.406-.015.609-.015.703 0 1.813 0 1.813.984 0 .344-.157 1.032-.547 1.422-.266.25-.782.578-1.688.578h-1.11zm1.438 2.734c1.016-.218 2.187-.921 2.187-1.921 0-.86-.89-1.5-2.203-1.5H2.328c-.203 0-.297 0-.297.203 0 .109.094.109.281.109.016 0 .204 0 .376.016.187.03.265.03.265.171 0 .032 0 .063-.031.188L1.578-.781c-.094.39-.11.469-.906.469-.172 0-.266 0-.266.203C.406 0 .531 0 .546 0c.282 0 .985-.031 1.25-.031.282 0 1 .031 1.282.031.078 0 .188 0 .188-.203 0-.11-.079-.11-.282-.11-.359 0-.64 0-.64-.171 0-.063.015-.11.031-.172l.656-2.64H4.22c.906 0 1.078.562 1.078.905 0 .141-.078.454-.14.688-.063.281-.157.64-.157.844C5 .219 6.203.219 6.328.219c.844 0 1.203-1 1.203-1.14 0-.126-.11-.126-.125-.126-.093 0-.11.063-.125.14-.25.735-.687.907-.906.907-.328 0-.406-.219-.406-.61 0-.312.062-.812.11-1.14.015-.14.03-.328.03-.469 0-.765-.671-1.078-.937-1.172zm0 0"/></symbol><symbol overflow="visible" id="q"><path d="M3.516-1.266H3.28c-.015.157-.094.563-.187.625-.047.047-.578.047-.688.047H1.125c.734-.64.984-.844 1.39-1.172.516-.406 1-.843 1-1.5 0-.843-.734-1.359-1.624-1.359-.86 0-1.454.61-1.454 1.25 0 .344.297.39.376.39.156 0 .359-.124.359-.374 0-.125-.047-.375-.406-.375.218-.485.687-.641 1.015-.641.703 0 1.063.547 1.063 1.11 0 .609-.438 1.078-.656 1.328L.516-.266C.437-.203.437-.187.437 0h2.876zm0 0"/></symbol></defs><use height="744.094" width="1052.362" xlink:href="#p" x="118.801" y="83.403"/><use height="744.094" width="1052.362" xlink:href="#q" x="126.366" y="84.898"/></g><g transform="matrix(1.5003 0 0 1.5003 484.185 546.532)" ns0:preamble="/home/waldgeist/data/homepage/inkscape-preamble.tex" ns0:text="$R _{\\rm{3}}$" stroke-width=".667"><defs><symbol id="r" overflow="visible"><path d="M3.734-6.125c.063-.234.094-.328.282-.36.093-.015.406-.015.609-.015.703 0 1.813 0 1.813.984 0 .344-.157 1.032-.547 1.422-.266.25-.782.578-1.688.578h-1.11zm1.438 2.734c1.016-.218 2.187-.921 2.187-1.921 0-.86-.89-1.5-2.203-1.5H2.328c-.203 0-.297 0-.297.203 0 .109.094.109.281.109.016 0 .204 0 .376.016.187.03.265.03.265.171 0 .032 0 .063-.031.188L1.578-.781c-.094.39-.11.469-.906.469-.172 0-.266 0-.266.203C.406 0 .531 0 .546 0c.282 0 .985-.031 1.25-.031.282 0 1 .031 1.282.031.078 0 .188 0 .188-.203 0-.11-.079-.11-.282-.11-.359 0-.64 0-.64-.171 0-.063.015-.11.031-.172l.656-2.64H4.22c.906 0 1.078.562 1.078.905 0 .141-.078.454-.14.688-.063.281-.157.64-.157.844C5 .219 6.203.219 6.328.219c.844 0 1.203-1 1.203-1.14 0-.126-.11-.126-.125-.126-.093 0-.11.063-.125.14-.25.735-.687.907-.906.907-.328 0-.406-.219-.406-.61 0-.312.062-.812.11-1.14.015-.14.03-.328.03-.469 0-.765-.671-1.078-.937-1.172zm0 0"/></symbol><symbol id="s" overflow="visible"><path d="M1.906-2.328c.547 0 .938.375.938 1.125 0 .86-.516 1.125-.906 1.125-.282 0-.907-.078-1.188-.5.328 0 .406-.235.406-.39 0-.22-.172-.376-.39-.376a.38.38 0 0 0-.391.407C.375-.281 1.094.14 1.938.14c.968 0 1.64-.657 1.64-1.344 0-.547-.437-1.094-1.203-1.25.719-.266.984-.781.984-1.219 0-.547-.625-.953-1.406-.953-.766 0-1.36.375-1.36.938 0 .234.157.359.36.359.219 0 .36-.156.36-.344 0-.203-.141-.36-.36-.375.25-.297.719-.375.985-.375.312 0 .75.156.75.75 0 .297-.094.625-.282.828-.219.266-.422.281-.765.313-.172.015-.188.015-.22.015-.015 0-.077.016-.077.094 0 .094.062.094.187.094zm0 0"/></symbol></defs><use height="744.094" width="1052.362" y="83.403" x="118.801" xlink:href="#r"/><use height="744.094" width="1052.362" y="84.898" x="126.366" xlink:href="#s"/></g><g ns0:text="$R _{\\rm{4}}$" ns0:preamble="/home/waldgeist/data/homepage/inkscape-preamble.tex" transform="matrix(1.5003 0 0 1.5003 483.74 578.614)" stroke-width=".667"><defs><symbol overflow="visible" id="t"><path d="M3.734-6.125c.063-.234.094-.328.282-.36.093-.015.406-.015.609-.015.703 0 1.813 0 1.813.984 0 .344-.157 1.032-.547 1.422-.266.25-.782.578-1.688.578h-1.11zm1.438 2.734c1.016-.218 2.187-.921 2.187-1.921 0-.86-.89-1.5-2.203-1.5H2.328c-.203 0-.297 0-.297.203 0 .109.094.109.281.109.016 0 .204 0 .376.016.187.03.265.03.265.171 0 .032 0 .063-.031.188L1.578-.781c-.094.39-.11.469-.906.469-.172 0-.266 0-.266.203C.406 0 .531 0 .546 0c.282 0 .985-.031 1.25-.031.282 0 1 .031 1.282.031.078 0 .188 0 .188-.203 0-.11-.079-.11-.282-.11-.359 0-.64 0-.64-.171 0-.063.015-.11.031-.172l.656-2.64H4.22c.906 0 1.078.562 1.078.905 0 .141-.078.454-.14.688-.063.281-.157.64-.157.844C5 .219 6.203.219 6.328.219c.844 0 1.203-1 1.203-1.14 0-.126-.11-.126-.125-.126-.093 0-.11.063-.125.14-.25.735-.687.907-.906.907-.328 0-.406-.219-.406-.61 0-.312.062-.812.11-1.14.015-.14.03-.328.03-.469 0-.765-.671-1.078-.937-1.172zm0 0"/></symbol><symbol overflow="visible" id="u"><path d="M3.688-1.14v-.25h-.782V-4.5c0-.14 0-.203-.14-.203-.094 0-.125 0-.188.11L.266-1.392v.25h2.062v.563c0 .25 0 .328-.578.328h-.188V0c.36-.016.797-.031 1.047-.031.266 0 .704.015 1.063.031v-.25h-.188c-.578 0-.578-.078-.578-.328v-.563zM2.375-3.939v2.547H.531zm0 0"/></symbol></defs><use height="744.094" width="1052.362" xlink:href="#t" x="118.801" y="83.403"/><use height="744.094" width="1052.362" xlink:href="#u" x="126.366" y="84.898"/></g><path d="M545.37 756.25v49.702M574.771 685.084H545.37M545.37 805.952H398.687M545.362 564.215h-38.167" fill="none" stroke="#000" stroke-linecap="round"/><circle cx="545.031" cy="564.215" r="1.677" stroke="#000" stroke-linecap="round"/><circle r="1.677" cy="805.952" cx="545.369" stroke="#000" stroke-linecap="round"/><circle cx="545.369" cy="685.084" r="1.677" stroke="#000" stroke-linecap="round"/></g></svg>